<svg xmlns="http://www.w3.org/2000/svg" xmlns:xlink="http://www.w3.org/1999/xlink" width="50" height="50" viewBox="0 0 50 50">
    <defs>
        <path id="a" d="M0 50h35.746V0H0z"/>
    </defs>
    <g fill="none" fill-rule="evenodd" transform="translate(7)">
        <path fill="#0B2146" d="M35.746 26.55v13.675h-8.071v-3.88h6.934v-7h-4.976c-.154-.608-.32-1.224-.454-1.833h-1.504V26.5c0-.433.104-.863.308-1.246l.904-1.725c.184-.35.288-.733.305-1.125l.237-3.454h3.446l-.333-4.488h-2.8l-.034.43.259-3.734h.187a.456.456 0 0 1-.454-.458v-.45c0-.504.408-.913.912-.913h2.196c.5 0 .909.409.909.913v.45a.456.456 0 0 1-.455.458h.188l.78 11.259c.016.383.116.758.291 1.104l.929 1.804c.192.379.296.796.296 1.225z"/>
        <path fill="#FFF" d="M29.633 29.346c.317 1.241.596 2.454.513 3.5-.08.991-.484 1.838-1.488 2.412-.312.184-.646.33-.983.463v.625h6.933v-7h-4.975zM32.875 18.95h-3.446l.28-4.058.033-.43h2.8z"/>
        <path fill="#FFF" d="M30.146 32.846l-2.47-.08h-.072l-6.162-.2a64.429 64.429 0 0 1-.346-1.695h-2.659c.209-1.08.554-2.233.805-3.358h9.937c.134.608.3 1.225.454 1.833.317 1.242.596 2.454.513 3.5"/>
        <path fill="#F57153" d="M30.146 32.846c-.08.992-.483 1.837-1.488 2.412-.312.184-.645.33-.983.463-.025.012-.05.02-.071.029-1.162.446-2.366.708-2.979 1.358v8.571c2.004.05 3.563.463 3.563.971h-7.955c0-.508 1.559-.92 3.559-.97v-8.584c-.396-.408-1.03-.663-1.734-.913-.083-1.129-.35-2.366-.616-3.616l6.162.2h.071l2.471.079z"/>
        <path fill="#FFF" d="M7.85 0l-.217 2.992H5.33L5.113.538z"/>
        <path fill="#0B2146" d="M12.963 40.867v5.704H0v-3.8h9.167v-9.167H0c0-6.6 2.146-10.97 3.68-15.191 1.537-4.217 1-11.125 1-15.421h3.603c0 4.296-.537 11.204.996 15.42 1.317 3.609 3.075 7.33 3.554 12.459h-1.675c-.433 2.35-1.17 4.804-.937 6.729.125 1.054.546 1.95 1.458 2.583.23.159.475.3.725.425.184.096.371.184.559.259"/>
        <mask id="b" fill="#fff">
            <use xlink:href="#a"/>
        </mask>
        <path fill="#FFF" d="M0 42.77h9.167v-9.166H0zM21.975 37.98l-9.013-.293-2.741-.087c-.233-1.925.504-4.38.937-6.73h9.938c.104.563.225 1.13.346 1.697.266 1.25.533 2.487.616 3.616.042.638.025 1.242-.083 1.796" mask="url(#b)"/>
        <path fill="#0B2146" d="M21.975 37.98c-.18.89-.596 1.65-1.396 2.203-.233.159-.479.3-.725.425-1.079.55-2.191.859-3.308.917v7.504c2 .054 3.558.467 3.558.971H12.15c0-.504 1.558-.92 3.563-.97v-7.505a7.945 7.945 0 0 1-2.75-.658 6.11 6.11 0 0 1-.559-.259 5.999 5.999 0 0 1-.725-.425c-.912-.633-1.333-1.529-1.458-2.583l2.742.087 9.012.292z" mask="url(#b)"/>
    </g>
</svg>
