<?xml version="1.0" encoding="UTF-8"?>
<svg width="27px" height="34px" viewBox="0 0 27 34" version="1.1" xmlns="http://www.w3.org/2000/svg" xmlns:xlink="http://www.w3.org/1999/xlink">
    <!-- Generator: Sketch 47 (45396) - http://www.bohemiancoding.com/sketch -->
    <title>Group 2</title>
    <desc>Created with Sketch.</desc>
    <defs></defs>
    <g id="Page-1" stroke="none" stroke-width="1" fill="none" fill-rule="evenodd">
        <g id="Group-2" transform="translate(0.550000, 0.000000)" fill="#FFFFFF">
            <path d="M12.8073318,31.9079639 L11.5747359,30.4638465 C5.34037923,23.1532325 1.62071783,16.552781 1.62071783,12.8073318 C1.62071783,6.6372912 6.6372912,1.62071783 12.8073318,1.62071783 C18.9755305,1.62071783 23.9921038,6.6372912 23.9921038,12.8073318 C23.9921038,16.552781 20.2724424,23.1532325 14.038009,30.4620045 L12.8073318,31.9079639 Z M12.8073318,0 C5.73402709,0 0,5.73402709 0,12.8073318 C0,19.8419549 10.0847223,31.3082438 12.3565824,33.800912 C12.5976524,34.0657743 13.0151693,34.0657743 13.2561625,33.800912 C15.5280993,31.3082438 25.6128217,19.8419549 25.6128217,12.8073318 C25.6128217,5.73402709 19.8787946,0 12.8073318,0 L12.8073318,0 Z" id="Fill-1"></path>
            <path d="M22.0790935,14.6852447 C21.1145833,18.1857097 17.8284027,23.4669151 13.0893553,29.0792176 C12.9425336,29.2530551 12.6719919,29.2531318 12.5250935,29.0792944 C11.97173,28.4245449 11.4389354,27.7743237 10.9290889,27.1323147 C9.51037562,25.3514975 8.2552921,23.6236375 7.19116117,21.9968564 C7.04387901,21.7717503 7.17857427,21.4703553 7.44497156,21.4322108 C10.0895269,21.0535291 12.6397571,19.8459535 14.6763034,17.8110957 C16.6490709,15.8383282 19.1041318,14.6443372 21.66173,14.2276646 C21.9253643,14.1846849 22.1500099,14.4277503 22.0790935,14.6852447" id="Fill-4"></path>
        </g>
    </g>
</svg>