<svg xmlns="http://www.w3.org/2000/svg" width="310" height="243" viewBox="0 0 310 243">
    <g fill="none" fill-rule="evenodd">
        <path fill="#FFF" fill-rule="nonzero" d="M177.639 57.938l-7.75 5.028c-.629-.942-1.047-2.304-1.571-3.562l6.388-4.4c1.048.943 2.304 1.886 2.933 2.934z"/>
        <path fill="#0B2146" fill-rule="nonzero" d="M177.639 57.938c.419.628.524 1.362.105 2.2-.734 1.466-2.41 2.619-1.571 3.876-.838-1.152-2.514 0-4.085.105-1.047.105-1.675-.42-2.2-1.153l7.75-5.028z"/>
        <path stroke="#0B2146" stroke-linecap="round" stroke-linejoin="round" stroke-width=".396" d="M179.524 68.729l-4.922-7.02"/>
        <path fill="#0B2146" fill-rule="nonzero" d="M182.456 67.576l-5.027 3.562c-.21-.314.734-1.362 2.095-2.41 1.361-.942 2.723-1.466 2.932-1.152zM210 7.858l-4.294 1.362-1.152-4.61z"/>
        <path fill="#FFF" fill-rule="nonzero" d="M212.514 7.124L210 7.858l-5.446-3.248-.523-2.305z"/>
        <path stroke="#0B2146" stroke-linecap="round" stroke-linejoin="round" stroke-width=".379" d="M206.858 7.23L202.25 15.4M205.602 0l.314 7.02"/>
        <path fill="#0B2146" fill-rule="nonzero" d="M204.66 17.077l-5.133-2.933c.21-.314 1.467 0 2.933.838 1.466.838 2.409 1.781 2.2 2.095z"/>
        <path fill="#FCD8D0" fill-rule="nonzero" d="M117.943 195.5c14.557 1.886 29.324 2.2 44.091 2.724 6.703.21 13.3-.105 19.585 2.41 5.864 2.304 10.473 6.81 16.442 8.8 4.713 1.467 9.74 1.467 14.558.943 20.631-2.305 40.006-13.83 51.946-30.802 10.996-15.506 15.604-35.412 12.672-54.166-1.78-11.42-7.017-22.002-8.274-33.526-1.361-12.153 3.352-22.735 6.18-34.26 1.99-8.067 2.932-16.344 2.617-24.62-.209-4.82-.733-9.64-3.037-13.935-6.179-11.42-21.574-13.62-34.56-12.363-16.024 1.572-31.943 6.496-45.977 14.249-11.101 6.181-22.098 15.087-34.875 17.496-14.348 2.724-25.45-7.124-38.436-11.629-28.905-10.058-63.99 9.848-76.871 36.25C28.19 95.655 29.97 148.982 59.608 173.184c16.129 13.2 36.97 19.382 57.602 22.106.314.105.523.105.733.21z"/>
        <g fill-rule="nonzero">
            <path fill="#EEE" d="M36.673 178.422H39.5v64.12h-2.828z"/>
            <path fill="#0B2146" d="M36.673 178.422H39.5v7.44h-2.828z" opacity=".12"/>
            <path fill="#EEE" d="M36.149 177.794l-.314.628-3.456 7.439-26.497 56.576H2.74l26.497-56.576 3.456-7.439.838-1.78z"/>
            <path fill="#0B2146" d="M35.835 178.422l-3.456 7.439h-3.142l3.456-7.439z" opacity=".12"/>
            <g>
                <path fill="#EEE" d="M73.119 242.437h-3.142L43.48 185.86l-3.456-7.439-.21-.628 2.514-1.153.838 1.781 3.456 7.439z"/>
                <path fill="#0B2146" d="M46.622 185.861H43.48l-3.456-7.439h3.142z" opacity=".12"/>
            </g>
            <g>
                <path fill="#0B2146" d="M.855 104.246h74.15v74.177H.854z"/>
                <path fill="#FFF" d="M72.796 106.423v69.671H3.15v-69.671z"/>
                <path fill="#EEE" d="M67.777 112.313v-.314H8.291v57.309h59.486v-56.995zm-49.642 56.366H8.92v-8.8h9.216v8.8zm0-9.43H8.92v-8.8h9.216v8.8zm0-9.429H8.92v-8.8h9.216v8.8zm0-9.429H8.92v-8.8h9.216v8.8zm0-9.534H8.92v-8.8h9.216v8.8zm0-9.43H8.92v-8.8h9.216v8.8zm9.845 47.252h-9.216v-8.8h9.216v8.8zm0-9.43h-9.216v-8.8h9.216v8.8zm0-9.429h-9.216v-8.8h9.216v8.8zm0-9.429h-9.216v-8.8h9.216v8.8zm0-9.534h-9.216v-8.8h9.216v8.8zm0-9.43h-9.216v-8.8h9.216v8.8zm9.74 47.252h-9.216v-8.8h9.216v8.8zm0-9.43h-9.216v-8.8h9.216v8.8zm0-9.429h-9.216v-8.8h9.216v8.8zm0-9.429h-9.216v-8.8h9.216v8.8zm0-9.534h-9.216v-8.8h9.216v8.8zm0-9.43h-9.216v-8.8h9.216v8.8zm9.845 47.252h-9.217v-8.8h9.217v8.8zm0-9.43h-9.217v-8.8h9.217v8.8zm0-9.429h-9.217v-8.8h9.217v8.8zm0-9.429h-9.217v-8.8h9.217v8.8zm0-9.534h-9.217v-8.8h9.217v8.8zm0-9.43h-9.217v-8.8h9.217v8.8zm9.74 47.252h-9.112v-8.8h9.216v8.8h-.105zm0-9.43h-9.112v-8.8h9.216v8.8h-.105zm0-9.429h-9.112v-8.8h9.216v8.8h-.105zm0-9.429h-9.112v-8.8h9.216v8.8h-.105zm0-9.534h-9.112v-8.8h9.216v8.8h-.105zm0-9.43h-9.112v-8.8h9.216v8.8h-.105zm9.844 47.252h-9.111v-8.8h9.111v8.8zm0-9.43h-9.111v-8.8h9.111v8.8zm0-9.429h-9.111v-8.8h9.111v8.8zm0-9.429h-9.111v-8.8h9.111v8.8zm0-9.534h-9.111v-8.8h9.111v8.8zm0-9.43h-9.111v-8.8h9.111v8.8z"/>
                <path fill="#F57153" d="M62.96 122.475l-.629-3.143c0-.104-.104-.21-.209-.314-.105-.105-.21-.105-.314 0l-3.561.943a.576.576 0 0 0-.314.524c.105.21.314.314.523.314l2.41-.628-9.531 14.143-5.97-3.876c-.105-.105-.21-.105-.314-.105-.105 0-.21.105-.314.21l-6.493 12.782-4.818-2.724c-.105-.105-.21-.105-.314 0a.225.225 0 0 0-.21.21l-6.493 17.496-7.855-8.172c-.104-.105-.21-.105-.419-.105-.104 0-.209.105-.314.21l-9.216 18.23c-.105.209 0 .418.21.523h.209c.105 0 .314-.105.419-.21l8.902-17.705 7.96 8.276c.104.105.209.105.418.105.105 0 .21-.105.315-.314l6.493-17.706 4.817 2.724c.105.105.21.105.315 0 .104 0 .209-.105.209-.21l6.493-12.782 5.97 3.877c.21.105.419.105.628-.105l9.95-14.563.418 2.095c0 .21.21.315.42.315h.104c0 .21.21-.105.105-.315z"/>
            </g>
        </g>
        <g fill-rule="nonzero" transform="translate(211.571 213.73)">
            <path fill="#EEE" d="M21.26 1.257h8.169v27.24H21.26z"/>
            <path fill="#FFF" d="M22.412 16.24c0 .418.314.733.733.733h4.399a.716.716 0 0 0 .733-.734V5.867a.716.716 0 0 0-.733-.733h-4.399a.716.716 0 0 0-.733.733V16.24z"/>
            <g fill="#EEE">
                <path d="M22.936 9.115c0 .314.21.524.523.524h3.666c.314 0 .524-.21.524-.524 0-.314-.21-.524-.524-.524h-3.666c-.314 0-.523.21-.523.524zM22.936 11c0 .315.21.525.523.525h3.666c.314 0 .524-.21.524-.524 0-.315-.21-.524-.524-.524h-3.666c-.314 0-.523.21-.523.524zM22.936 12.887c0 .314.21.523.523.523h3.666c.314 0 .524-.209.524-.523 0-.315-.21-.524-.524-.524h-3.666c-.314 0-.523.21-.523.524z"/>
            </g>
            <ellipse cx="25.345" cy="25.04" fill="#FFF" rx="1.885" ry="1.467"/>
            <path fill="#F57153" d="M12.463 1.257h8.169v27.24h-8.169z"/>
            <path fill="#FFF" d="M13.72 16.24c0 .418.314.733.733.733h4.398a.716.716 0 0 0 .733-.734V5.867a.716.716 0 0 0-.733-.733h-4.398a.716.716 0 0 0-.733.733V16.24z"/>
            <g fill="#EEE">
                <path d="M14.139 9.115c0 .314.209.524.523.524h3.666c.314 0 .523-.21.523-.524 0-.314-.21-.524-.523-.524h-3.666c-.21 0-.523.21-.523.524zM14.139 11c0 .315.209.525.523.525h3.666c.314 0 .523-.21.523-.524 0-.315-.21-.524-.523-.524h-3.666c-.21 0-.523.21-.523.524zM14.139 12.887c0 .314.209.523.523.523h3.666c.314 0 .523-.209.523-.523 0-.315-.21-.524-.523-.524h-3.666c-.21 0-.523.21-.523.524z"/>
            </g>
            <ellipse cx="16.547" cy="25.04" fill="#FFF" rx="1.885" ry="1.467"/>
            <path fill="#EEE" d="M.52 27.435L3.795.394l8.11.983-3.276 27.041z"/>
            <g>
                <path fill="#FFF" d="M3.247 15.506c0 .419.21.733.628.733l4.294.524c.419 0 .733-.21.733-.629l1.257-10.267c0-.419-.21-.733-.629-.733L5.236 4.61c-.418 0-.733.21-.733.628L3.247 15.506z"/>
                <g fill="#EEE">
                    <path d="M4.608 8.382c0 .314.21.628.524.628l3.665.42c.314 0 .629-.21.629-.525 0-.314-.21-.628-.524-.628l-3.666-.42c-.314 0-.628.21-.628.525zM4.399 10.267c0 .315.21.629.523.629l3.666.42c.314 0 .628-.21.628-.525 0-.314-.21-.628-.523-.628l-3.666-.42c-.314 0-.628.21-.628.524zM4.19 12.153c0 .315.209.629.523.629l3.665.419c.315 0 .629-.21.629-.524 0-.314-.21-.629-.524-.629l-3.665-.419c-.315 0-.629.21-.629.524z"/>
                </g>
            </g>
            <path fill="#FFF" d="M3.247 24.307c-.105.838.628 1.571 1.675 1.676 1.048.105 1.99-.42 1.99-1.153.105-.838-.628-1.571-1.676-1.676-1.047-.21-1.99.314-1.99 1.153z"/>
        </g>
        <g fill-rule="nonzero">
            <path fill="#0B2146" d="M243.41 153.173h45.661v89.054H243.41z"/>
            <path fill="#FFF" d="M246.76 156.944h42.206v13.41H246.76z" opacity=".34"/>
            <path fill="#0B2146" d="M251.578 159.563h35.818v1.676h-35.818z"/>
            <path fill="#FFF" d="M246.76 180.203h42.206v13.41H246.76z" opacity=".34"/>
            <path fill="#0B2146" d="M251.578 182.717h35.818v1.676h-35.818z"/>
            <path fill="#FFF" d="M246.76 203.463h42.206v13.41H246.76z" opacity=".34"/>
            <path fill="#0B2146" d="M251.578 205.977h35.818v1.676h-35.818z"/>
            <path fill="#FFF" d="M246.76 226.721h42.206v13.41H246.76z" opacity=".34"/>
            <path fill="#0B2146" d="M251.578 229.236h35.818v1.676h-35.818z"/>
            <path fill="#FFF" d="M243.41 174.231h45.661v1.676H243.41zM243.41 197.7h45.661v1.676H243.41zM243.41 221.063h45.661v1.676H243.41z" opacity=".12"/>
        </g>
        <g fill-rule="nonzero">
            <path fill="#EEE" d="M304.048 242.541h-25.973c-2.514 0-4.608-2.095-4.608-4.61v-43.479c0-2.514 2.094-4.61 4.608-4.61h25.973c2.513 0 4.608 2.096 4.608 4.61v43.48c0 2.619-1.99 4.61-4.608 4.61z"/>
            <path fill="#FFF" d="M299.754 209.958h-17.28c-.839 0-1.572-.733-1.572-1.572v-7.752c0-.839.733-1.572 1.571-1.572h17.28c.839 0 1.572.733 1.572 1.572v7.752c0 .839-.733 1.572-1.571 1.572z"/>
            <path fill="#C8EAFB" d="M294.936 205.767h3.142c.419 0 .838.315.838.838 0 .42-.314.839-.838.839h-3.142a.826.826 0 0 1-.838-.839c0-.419.42-.838.838-.838z"/>
            <path fill="#F57153" d="M284.044 205.767h3.142c.42 0 .838.315.838.838 0 .42-.314.839-.838.839h-3.142a.826.826 0 0 1-.838-.839c0-.419.42-.838.838-.838z"/>
            <path fill="#0B2146" d="M301.325 208.386v8.068c0 1.257-.943 2.2-2.2 2.2h-16.023c-1.257 0-2.2-.943-2.2-2.2v-8.068c0 .839.733 1.572 1.571 1.572h17.176c.943 0 1.676-.733 1.676-1.572z"/>
            <g>
                <path fill="#C8EAFB" d="M308.237 146.887v37.926a5.141 5.141 0 0 1-5.132 5.134h-24.192a5.141 5.141 0 0 1-5.132-5.134v-37.926a5.141 5.141 0 0 1 5.132-5.134h24.192c2.933.105 5.132 2.305 5.132 5.134z"/>
                <path fill="#BBE4FA" d="M273.886 154.64h34.35v3.143h-34.35z"/>
                <path fill="#D9F0FC" d="M307.504 155.792h-32.78a2.101 2.101 0 0 1-2.095-2.095v-.105c0-1.152.942-2.095 2.094-2.095h32.78c1.153 0 2.095.943 2.095 2.095v.105a2.101 2.101 0 0 1-2.094 2.095z"/>
                <path fill="#BBE4FA" d="M273.886 171.612h34.35v3.143h-34.35z"/>
                <path fill="#D9F0FC" d="M307.504 172.765h-32.78a2.101 2.101 0 0 1-2.095-2.096v-.104c0-1.153.942-2.096 2.094-2.096h32.78c1.153 0 2.095.943 2.095 2.096v.104a2.101 2.101 0 0 1-2.094 2.096z"/>
                <g>
                    <path fill="#BBE4FA" d="M273.886 179.575h34.35v3.143h-34.35z"/>
                    <path fill="#D9F0FC" d="M307.504 180.727h-32.78a2.101 2.101 0 0 1-2.095-2.095v-.105c0-1.152.942-2.095 2.094-2.095h32.78c1.153 0 2.095.943 2.095 2.095v.105a2.101 2.101 0 0 1-2.094 2.095z"/>
                </g>
            </g>
        </g>
        <g>
            <g fill="#F6F2E3" fill-rule="nonzero">
                <path d="M188.16 78.132s.21.42.42 1.258c.209.839.523 1.992.628 3.564.314 3.04-.105 7.233-1.572 11.636-1.466 4.403-3.457 8.072-4.924 10.693-1.466 2.62-2.514 4.193-2.619 4.088-.104-.104.734-1.677 2.096-4.402 1.362-2.621 3.247-6.395 4.61-10.693 1.466-4.298 1.885-8.387 1.78-11.322 0-2.935-.524-4.717-.419-4.822zM196.436 56.432c.105 0 .21.629.524 1.887.314 1.258.629 3.04 1.048 5.346.838 4.508 1.885 10.798 2.095 17.926a60.228 60.228 0 0 1-.524 9.96c-.419 3.04-1.047 5.765-1.78 7.966a54.057 54.057 0 0 1-1.991 5.137c-.524 1.153-.943 1.782-.943 1.782-.105-.105 1.152-2.62 2.41-7.023 1.257-4.403 2.2-10.693 1.99-17.717-.21-7.024-1.153-13.313-1.781-17.821-.314-2.306-.629-4.089-.838-5.346-.21-1.363-.314-2.097-.21-2.097zM136.932 159.9c.104.105-.839 1.048-2.096 2.726-.314.419-.628.838-.943 1.467-.314.524-.628 1.049-.942 1.678-.629 1.258-1.153 2.62-1.677 4.193-.419 1.572-.733 3.04-.838 4.403 0 .733-.104 1.362-.104 1.991 0 .63 0 1.154.104 1.678.105 2.096.524 3.354.315 3.46-.105 0-.629-1.259-.943-3.355-.105-.525-.105-1.154-.21-1.783v-1.991c.105-1.468.314-3.04.734-4.613a17.63 17.63 0 0 1 1.78-4.298c.315-.629.734-1.258 1.048-1.677.314-.524.733-.944 1.048-1.363 1.571-1.782 2.724-2.516 2.724-2.516zM139.236 167.343c.105.105-.419.524-1.152 1.258-.314.42-.733.839-1.048 1.468-.314.629-.733 1.258-.943 1.991-.21.734-.419 1.468-.523 2.202-.105.629-.105 1.258 0 1.782.104 1.048.21 1.677.104 1.782-.104 0-.419-.524-.733-1.677-.105-.524-.21-1.258-.105-1.992 0-.734.21-1.572.42-2.411.314-.839.628-1.573 1.047-2.202.419-.629.838-1.153 1.362-1.467.838-.63 1.467-.839 1.571-.734z"/>
                <g>
                    <path d="M108.122 98.574s.42.314 1.048 1.048c.314.315.733.839 1.152 1.363.42.524.943 1.153 1.362 1.887.21.314.524.734.733 1.153.21.42.524.839.734 1.258a34.286 34.286 0 0 1 1.571 2.83c.943 2.097 1.99 4.403 2.724 6.92.733 2.515 1.152 5.031 1.466 7.233.105 1.153.21 2.201.21 3.25v2.83c0 .839-.105 1.677-.105 2.306 0 .63-.105 1.258-.21 1.782-.209.944-.314 1.468-.314 1.468-.104 0 .105-2.097.105-5.451v-1.363c0-.42-.105-.944-.105-1.468 0-.943-.21-2.096-.314-3.145-.314-2.201-.838-4.612-1.467-7.128-.733-2.516-1.676-4.718-2.619-6.814-.523-1.048-.942-1.992-1.466-2.83-.21-.42-.42-.84-.734-1.259-.21-.419-.523-.733-.733-1.153-1.78-3.04-3.143-4.717-3.038-4.717zM117.655 102.453c.105-.105 1.048.838 2.305 2.62.629.84 1.257 1.992 1.886 3.25.628 1.258 1.152 2.726 1.676 4.298.419 1.573.733 3.145.943 4.508.105 1.363.21 2.726.105 3.774-.105 2.097-.42 3.46-.524 3.354-.105 0 0-1.362-.105-3.354 0-1.048-.105-2.306-.314-3.67a41.94 41.94 0 0 0-.943-4.402c-.42-1.468-1.048-2.935-1.572-4.193-.628-1.258-1.152-2.307-1.676-3.25-1.152-1.782-1.885-2.83-1.78-2.935z"/>
                </g>
            </g>
            <g fill-rule="nonzero">
                <path fill="#0B2146" d="M54.065 129.185s-4.82-4.299-6.286-3.565c-1.886.944-12.571 11.427-12.152 16.354.21 1.992 2.514.314 6.705-4.088 4.19-4.403 9.533-2.516 9.533-2.516l2.2-6.185zM65.693 136.418l-5.761-3.46s-14.981 14.048-12.677 15.935c1.781 1.467 2.829.105 7.02-4.193 4.19-4.403 9.533-1.887 9.533-1.887l1.885-6.395z"/>
                <path fill="#F2A682" d="M100.998 90.187l1.048 15.41-23.99-6.29z"/>
                <path fill="#F57153" d="M78.055 99.832s21.057 1.363 23.886.42c0 0 4.086 40.464-3.248 44.867-7.333 4.403-23.78-1.992-23.78-1.992l4.4-8.7 9.533-.63v-15.725l-.734.105-10.057-18.345z"/>
                <path fill="#F57153" d="M51.655 127.402s-5.343 2.202-3.562 7.443c0 0 18.124 14.153 26.924 10.903 4.924-1.782 10.267-15.83 13.934-27.78l12.99-17.822s-6.18.315-8.171.315c-3.877 0-15.715-.734-15.715-.734s-6.18 32.183-8.38 33.022c-2.2.734-18.02-5.347-18.02-5.347z"/>
                <path fill="#F6F2E3" d="M113.989 24.563c1.362.42 2.095 1.992 1.466 3.355-2.41 5.241-12.362 20.966-12.362 20.966l-7.961 8.282-5.762 5.975-.943.944-2.41 2.41-3.143-7.023.105-.105c.21-.21.943-.943 2.095-1.992 1.362-1.362 3.353-3.145 5.238-5.032 3.248-3.144 7.439-7.862 7.439-7.862s8.276-14.571 13.828-19.603c.629-.42 1.572-.63 2.41-.315zM74.808 72.261l-4.505 3.25-1.257.839-7.02 5.032-5.866 4.193s-15.819 9.54-21.057 11.74c-1.362.63-2.933-.104-3.352-1.467-.21-.838-.105-1.782.523-2.41 5.134-5.452 20.429-13 20.429-13s2.724-2.306 4.819-4.298c3.143-3.04 6.914-6.814 8.905-8.91l.943-.944.523-.524.42.42 4.295 4.088 2.2 1.991z"/>
                <path fill="#0B2146" d="M72.293 60.73l-6.076 5.975 1.572 6.71s5.971 14.361 6.81 17.82c1.361 5.452-.839 13.734-.839 13.734s10.057-.839 19.276-1.154c9.22-.314 12.153-3.25 12.153-3.25S97.227 74.044 91.674 66.6c-5.552-7.443-7.542-9.749-7.542-9.749l-8.067 1.782-3.772 2.097z"/>
                <path fill="#0B2146" d="M90.103 65.552l6.286-3.983s.943-4.298-6.6-9.435l-8.905 5.556 9.219 7.862zM67.58 66.181c-3.458.524-9.744 9.225-10.477 9.225 0 0 4.4 7.234 7.962 7.443 0 0 15.505-18.555 2.514-16.668z"/>
                <g>
                    <path fill="#FFD249" d="M271.76 51.4c.105.105-.943 1.258-3.143 2.516-2.095 1.258-5.447 2.516-9.219 2.516-3.771 0-7.124-1.153-9.324-2.411s-3.247-2.411-3.142-2.411c.104-.105 1.257.838 3.457 1.887 2.095 1.048 5.343 2.096 9.01 2.096 3.666 0 6.809-1.153 9.009-2.201 2.095-1.153 3.247-2.097 3.352-1.992zM248.503 49.618c-.105.105-1.152-.315-3.143-.734-.943-.21-2.095-.42-3.457-.524-1.257-.105-2.724-.21-4.295-.315-1.467-.104-2.934-.21-4.296-.419a54.46 54.46 0 0 1-3.457-.629c-1.99-.524-3.038-1.153-3.038-1.153 0-.105 1.257.314 3.143.629.943.21 2.095.314 3.457.42 1.257.104 2.724.209 4.295.314 1.467.105 2.934.21 4.296.42 1.362.209 2.514.418 3.457.733 1.99.524 3.038 1.153 3.038 1.258z"/>
                    <path fill="#FFD249" d="M225.455 24.668c3.667-.734 7.438-.105 11.105.524 3.667.63 7.438 1.153 11.105.21 6.495-1.782 11.419-8.282 18.124-8.282 2.723 0 5.343 1.153 8.066 1.782 3.353.734 6.81.734 10.162 1.258 3.353.525 6.915 1.887 8.8 4.718 2.305 3.354 1.676 8.177-.733 11.426-2.41 3.355-6.181 5.347-10.057 6.5-2.724.839-5.657 1.258-7.962 2.83-2.41 1.573-3.981 4.194-6.181 5.976-5.552 4.612-14.248 3.25-20.01-1.049-1.466-1.048-2.828-2.306-4.4-3.145-6.6-3.25-16.133 1.049-21.79-4.822-6.076-5.975-5.238-15.934 3.771-17.926z"/>
                    <path fill="#F6F2E3" d="M223.57 140.716s6.076 12.999 6.81 10.588c.732-2.411.523-8.177.104-9.016-.42-.838-2.829-4.507-2.829-4.507l-4.085 2.935zM227.132 33.684c-1.153-.21-3.981 1.677-5.343 4.717-.734 1.677-1.362 3.46-.42 6.185.42 1.258 1.363 1.468 1.467 2.097.21.733-.628 3.04-.628 3.04l3.352 1.363c.21-1.573.42-3.25 2.095-3.88.629-.209 1.257-.419 1.886-.733 1.571-.839 2.41-2.83 3.038-4.403.42-1.258-2.619-7.862-5.447-8.386z"/>
                    <path fill="#F6F2E3" d="M223.15 78.866l-5.552-2.202s-16.447 30.506-16.343 38.997c.105 8.492 22.629 25.474 22.629 25.474l3.771-3.25s-6.914-12.16-10.685-16.458c-3.772-4.298 6.18-42.561 6.18-42.561zM250.703 113.67s12.257-5.766 9.743-6.29c-2.41-.524-8.172.21-9.01.629-.838.419-4.19 3.25-4.19 3.25l3.457 2.41z"/>
                    <path fill="#F6F2E3" d="M228.598 78.656l-8.38 3.04s-8.382 37.005-5.239 42.876c3.248 5.766 12.257 1.992 25.038-5.032l10.79-5.87-3.561-2.412s-12.572 2.412-16.029 4.928c0 0 1.886-5.242 4.295-12.58 2.41-7.338 4.086-14.886-6.914-24.95zM218.227 53.392c0-2.411.838-4.193 3.247-4.193 2.41 0 5.867.838 5.867 3.354 0 2.411-1.99 6.5-4.4 6.5-2.41-.105-4.714-3.25-4.714-5.661zM218.855 48.78l-7.857-16.354s-3.457-17.926-4.4-22.33c-.21-.943-1.152-1.572-2.095-1.257-.733.21-1.152.838-1.257 1.572-.105 4.508.628 22.33.628 22.33s8.067 21.07 10.162 25.892l4.82-9.854zM228.389 55.279s.628-2.621 10.266-6.08c8.277-3.04 23.362-12.475 27.657-15.2.63-.42 1.572-.315 2.096.314a1.595 1.595 0 0 1 0 2.096c-2.724 3.04-10.896 11.846-15.61 13.419-5.762 1.991-18.019 9.958-19.276 10.587-1.99.944-1.99 2.202-5.133-5.136z"/>
                    <path fill="#F57153" d="M220.217 48.78s-7.752 2.515-7.752 14.361c0 0 0 16.249 1.886 19.184 0 0 2.933.734 6.704 0 3.877-.839 7.648-3.669 7.648-3.669l6.076-18.345-.733-8.597-8.276-1.572s2.304 6.29-5.972 5.556c-1.886-.21 2.2-6.395 2.2-6.395l-1.78-.524z"/>
                    <path fill="#F57153" d="M213.617 58.424l-3.876-7.967s.524-4.823 7.543-6.605c0 0 .733 2.411 1.467 3.355.733.943 3.038 1.887 3.038 1.887l-8.172 9.33zM228.074 61.673l12.153-2.516s2.095-4.402-2.934-9.644c0 0-9.533.524-10.685.629-1.257.105-.42 1.048-.42 1.048l1.886 10.483zM214.246 78.342s-11.524 21.28-13.41 25.159c0 0 33.943 15.62 47.772-3.145 0 0-7.857-16.668-20.01-22.958l-5.238-1.572-8.905 2.516h-.21z"/>
                    <path fill="#F6F2E3" d="M232.055 41.756s1.362-1.363 2.096-.42c.838.944-2.934 2.202-2.934 2.202l.838-1.782z"/>
                    <path fill="#FFD249" d="M256.046 23.934s-.524.315-1.467.524c-.943.21-2.41.42-4.19.525a45.82 45.82 0 0 1-6.181-.42c-2.305-.314-4.82-.734-7.438-1.048-2.62-.315-5.134-.315-7.438 0-2.2.314-4.19 1.048-5.658 1.992-1.466.838-2.514 1.782-3.142 2.516-.629.734-.943 1.153-.943 1.153s.104-.524.733-1.363c.524-.839 1.571-1.887 3.143-2.83 1.467-.944 3.562-1.783 5.867-2.202 2.304-.42 4.923-.42 7.647-.105s5.238.734 7.543 1.153c2.305.315 4.4.525 6.076.63 3.248-.105 5.448-.734 5.448-.525z"/>
                    <path fill="#22343D" d="M226.189 146.062s1.885 6.605 3.771 6.08c1.886-.524.524-9.749.524-9.749l-1.886-3.04c0-.105 1.781 15.41-2.41 6.71zM249.76 109.267s1.362-1.468 3.038-1.678c1.676-.21 7.543-.943 8.381-.21.838.735-4.714 3.355-4.714 3.355s1.99-1.258 1.152-1.677c-1.571-.839-7.857.21-7.857.21zM247.455 111.049l1.781 3.774 1.048-.63-2.514-3.668zM226.817 136.313l-4.505 4.088 1.362 1.154 3.772-4.194z"/>
                </g>
                <g>
                    <path fill="#0B2146" d="M132.322 95.743c-1.257-3.144-1.78-6.709-3.667-9.644-2.723-4.088-8.066-6.185-10.266-10.588-.943-1.887-1.257-3.983-1.257-6.08 0-4.193 1.257-8.596 4.4-11.217 3.666-3.04 9.219-3.04 13.514-.943 4.295 1.991 7.647 5.765 10.476 9.644 2.829 3.879 5.238 8.072 8.486 11.531 2.41 2.621 5.343 4.823 7.124 7.863 5.028 8.281-.105 18.87-9.01 21.91-7.648 2.515-17.076-5.766-19.8-12.476z"/>
                    <path fill="#7F331C" d="M152.646 94.905c1.78-.315 7.333 3.25 5.866 10.588-.104.629-.942 1.992-1.152 2.516-.21.734 1.676 3.25 1.676 3.25l-5.028 1.572c-.21-1.573.104-3.774-1.467-4.403-.629-.21-1.257-.42-1.78-.734-1.572-.838-2.41-2.725-3.039-4.193-.524-1.153-.838-2.306-.838-3.564.105-3.145 2.828-4.613 5.762-5.032z"/>
                    <path fill="#7F331C" d="M162.703 114.718c0-2.62-.838-3.564-3.562-3.564-2.724 0-6.39 1.048-6.39 3.564 0 2.62 1.885 5.87 4.714 5.87 2.724 0 5.238-3.25 5.238-5.87z"/>
                    <path fill="#7F331C" d="M160.503 109.896s8.486-8.806 10.267-17.402c1.362-7.024 3.98-21.595 4.923-26.942.21-1.048 1.258-1.677 2.305-1.467.734.21 1.362.943 1.362 1.677.105 5.241-.733 27.046-.733 27.046-1.572 2.935-10.267 23.168-10.057 28.41l-8.067-11.322zM145.417 114.089s-2.933.524-7.333 10.588c-3.772 8.596-15.505 24.11-18.962 28.619-.524.733-.419 1.677.21 2.306.628.524 1.571.629 2.2.105 3.561-2.726 14.457-11.112 16.552-16.04 2.514-5.975 5.762-13.523 7.333-13.103 1.467.21 7.962-8.701 0-12.475z"/>
                    <path fill="#FF7B5B" d="M168.15 122.58l3.982-10.902s-.629-5.137-8.486-7.024l-4.4 6.395 8.905 11.531zM146.674 113.25s-4.714.42-8.485 8.701c0 0 4.19 5.766 7.228 5.976 0 0 11.315-9.645 1.257-14.677z"/>
                    <path fill="#7F331C" d="M159.56 212.106s-6.705 13.837-7.543 11.217c-.838-2.516-.524-8.701-.105-9.54.42-.839 3.143-4.717 3.143-4.717l4.505 3.04z"/>
                    <path fill="#0B2146" d="M160.084 146.482l6.18-2.411s18.334 32.392 18.23 41.408c-.105 9.015-25.143 26.941-25.143 26.941l-4.19-3.46s11.942-17.506 16.028-22.014c2.095-2.306-12.781-13.418-14.981-24.11-2.305-10.693 3.876-16.354 3.876-16.354z"/>
                    <g>
                        <path fill="#7F331C" d="M122.893 204.872s-12.676 9.33-12.152 6.71c.524-2.621 3.667-7.968 4.505-8.596.838-.63 5.133-2.83 5.133-2.83l2.514 4.716z"/>
                        <path fill="#0B2146" d="M143.217 158.013l18.229-10.588s.733 36.796-3.667 44.763c-4.4 7.967-35.305 12.999-35.305 12.999l-2.095-4.927s19.067-11.427 24.933-13.628c5.972-2.306-2.095-28.619-2.095-28.619z"/>
                        <path fill="#0B2146" d="M154.112 140.087s-13.409 4.717-10.895 17.821c2.62 13.104 6.81 15.515 6.81 15.515l7.752-12.684 7.753-16.564-7.753-.943-3.667-3.145z"/>
                    </g>
                    <path fill="#FF7B5B" d="M160.503 109.896s9.952 5.556 9.952 18.135c0 0-1.257 14.257-3.247 17.402 0 0-3.353.839-7.438 0-4.296-.838-8.486-3.878-8.486-3.878l-3.352-17.507-2.62-10.274 1.467-.419 7.438-.839s-1.047 11.113 7.229 5.556c1.78-1.153-2.2-6.918-2.2-6.918l1.257-1.258z"/>
                    <path fill="#FFF" d="M195.493 168.077l14.877-9.12-12.258-21.49-13.619 8.805z"/>
                    <path fill="#0B2146" d="M122.37 76.874s.523.42 1.257 1.258c.733.839 1.676 2.097 2.724 3.879.942 1.782 1.99 3.983 2.723 6.5.734 2.515 1.258 5.346 2.305 8.176.629 1.363 1.257 2.62 2.095 3.774.838 1.153 1.781 2.096 2.724 2.935 1.99 1.677 3.981 2.83 5.867 3.46 1.78.629 3.352.943 4.505 1.048 1.047.105 1.676.105 1.676.21 0 0-.629.104-1.781.104-1.153 0-2.724-.21-4.714-.838-1.886-.63-4.086-1.782-6.181-3.46-1.048-.838-1.99-1.887-2.934-3.04-.838-1.153-1.676-2.516-2.2-3.879-1.152-2.83-1.571-5.765-2.304-8.281-.629-2.516-1.572-4.718-2.41-6.395-.943-1.782-1.78-3.04-2.41-3.983-.628-.944-.942-1.468-.942-1.468zM147.932 62.617c.104 0 .314 1.992 1.466 5.032.524 1.467 1.467 3.25 2.62 4.927.628.838 1.361 1.677 2.094 2.62.839.84 1.677 1.678 2.41 2.726 1.676 1.992 2.724 4.089 3.771 5.976 1.048 1.887 1.886 3.669 2.305 5.346.42 1.572.42 3.04.314 3.879-.104.943-.419 1.363-.419 1.363-.104 0 0-.525.105-1.363 0-.944-.105-2.202-.524-3.774-.523-1.573-1.362-3.25-2.41-5.137-1.047-1.887-2.2-3.983-3.77-5.87-.734-.944-1.677-1.783-2.41-2.726-.838-.839-1.572-1.782-2.095-2.726-1.257-1.782-2.096-3.669-2.515-5.241a19.487 19.487 0 0 1-.838-3.774c-.21-.734-.21-1.258-.104-1.258z"/>
                    <path fill="#7F331C" d="M148.036 103.815s-1.257-1.048-1.885-.104c-.629.943 2.723 1.467 2.723 1.467l-.838-1.363z"/>
                    <path fill="#0B2146" d="M117.341 201.832s-1.78.839-2.305 1.258c-.524.42-4.819 8.072-4.295 9.016.524.943 4.924-2.306 4.924-2.306s-3.667.733 1.676-7.968zM153.065 211.896s-1.257 1.363-1.467 2.097c-.21.629-.524 9.435.42 9.959.942.629 3.456-4.194 3.456-4.194s-3.038 2.307-2.41-7.862z"/>
                </g>
            </g>
            <path fill="#F57153" fill-rule="nonzero" d="M86.227 84.107l-8.8-22.224 12.676 19.184-.42 3.46z"/>
            <path d="M32.589 98.364l-1.153-3.878M116.608 25.402l-3.981-1.258"/>
        </g>
        <g>
            <path stroke="#0B2146" stroke-width=".662" d="M90.024 178.365l5.033-3.142c2.622-1.571 6.083-.838 7.656 1.78 1.573 2.619.839 6.075-1.783 7.646l-5.034 3.142"/>
            <path stroke="#0B2146" stroke-width=".662" d="M88.45 175.746l5.034-3.142c2.622-1.57 6.083-.838 7.656 1.78 1.573 2.62.839 6.075-1.783 7.647l-5.034 3.142"/>
            <path fill="#F57153" fill-rule="nonzero" d="M86.394 172.404l9.062 14.722-24.3 14.92-9.061-14.723z"/>
            <path fill="#0B2146" fill-rule="nonzero" d="M95.446 187.206l2.582 4.194-24.3 14.919-2.581-4.194z"/>
            <path fill="#FFF" fill-rule="nonzero" d="M76.181 201.93l-4.928.21 2.516 4.19z" opacity=".08"/>
            <g fill="#FFF">
                <path d="M83.103 184.649c-1.154-1.78-3.461-2.409-5.244-1.257s-3.146 5.446-3.46 6.494c0 .104 0 .21.104.21.944.209 5.558.942 7.341-.106 1.888-1.256 2.412-3.56 1.259-5.341zm-8.075 4.923l.21-.524c.838-2.723 1.992-4.713 2.936-5.342 1.573-.942 3.67-.523 4.614 1.152.944 1.571.524 3.666-1.154 4.609-.943.628-3.25.628-6.082.21l-.524-.105z"/>
                <path d="M80.9 189.257c-1.048.315-2.936.315-5.138 0-.105 0-.105-.104-.105-.104.105-.21.21-.524.21-.734.21-.628.524-1.256.734-1.78 0-.105.105-.105.21 0 .524.628 1.258 1.047 2.097 1.257a3.64 3.64 0 0 1 1.992 1.257c.105 0 0 .104 0 .104z"/>
            </g>
            <g>
                <path stroke="#0B2146" stroke-width=".662" d="M265.991 86.72l-4.719-3.456c-2.517-1.78-3.041-5.341-1.153-7.75 1.782-2.514 5.348-3.038 7.76-1.152l4.719 3.456"/>
                <path stroke="#0B2146" stroke-width=".662" d="M264.103 89.234l-4.719-3.456c-2.516-1.78-3.04-5.342-1.153-7.75 1.888-2.41 5.348-3.038 7.76-1.153l4.72 3.457"/>
                <path fill="#F57153" fill-rule="nonzero" d="M261.884 92.418l10.233-13.935 23.001 16.848-10.233 13.935z"/>
                <path fill="#0B2146" fill-rule="nonzero" d="M272.116 78.427l2.915-3.97 23.002 16.849-2.915 3.97z"/>
                <path fill="#FFF" fill-rule="nonzero" d="M293.047 90.7l1.992 4.504 2.937-3.98z" opacity=".08"/>
                <g fill="#FFF">
                    <path d="M274.38 90.805c-1.258 1.676-.838 4.085.84 5.342 1.677 1.257 6.291.838 7.235.733.105 0 .21-.105.21-.21-.21-.942-1.154-5.446-2.936-6.703a3.761 3.761 0 0 0-5.349.838zm7.656 5.656h-.525c-2.831.21-5.138-.105-6.082-.733-1.468-1.048-1.783-3.247-.734-4.713 1.049-1.467 3.251-1.78 4.72-.734.943.629 1.887 2.724 2.516 5.552l.105.628z"/>
                    <path d="M279.519 91.12c.63.837 1.363 2.618 1.888 4.713 0 .104 0 .104-.105.104h-2.622c-.105 0-.105-.104-.105-.21.42-.732.525-1.57.42-2.408-.105-.838 0-1.676.42-2.304 0 .104.104 0 .104.104z"/>
                </g>
            </g>
        </g>
        <g fill-rule="nonzero">
            <path fill="#0B2146" d="M115.246 27.426c-.114 0-.229-.104-.229-.209M117.189 11.878h-3.543l.343-1.356h2.857z"/>
            <path fill="#0B2146" d="M118.674 23.252v10.122h-6.514V23.252c0-.313.114-.626.229-.939l.685-1.252c.115-.209.229-.522.229-.835l.686-8.348h2.857l.686 8.348c0 .313.114.522.228.835l.8 1.356c0 .21.114.522.114.835z"/>
            <path fill="#FFF" d="M112.046 24.4h5.714v7.096h-5.714z"/>
        </g>
        <g fill-rule="nonzero">
            <path fill="#F6F2E3" d="M80.572 61.036s-5.035-3.774-4.825-5.241c0-.42.734-.943.944-1.572.944-2.935-3.777-10.482-6.61-12.055-2.307-1.258-1.258-1.362-6.084 1.468s-2.098 7.757.105 10.272c1.993 2.411 4.301 3.46 6.4 3.564l2.937 6.604 5.875.419 1.258-3.459z"/>
            <path fill="#F57153" d="M60.745 48.143s-1.259.943-.63 2.411c.63 1.467 3.462 5.975 7.344 5.765.21 0-4.826-8.176-4.826-8.176h-1.888z"/>
            <path fill="#F6F2E3" d="M64.102 54.013s-1.679-.105-1.784 1.048c-.21 1.048 2.938 1.048 4.197.315l-2.413-1.363z"/>
            <path fill="#F57153" d="M64.941 55.061c-.315-1.991-2.413-3.459-2.308-5.346 1.05 0 1.679-1.257 1.154-2.306-.21-.419-.524-.733-.63-1.153-.21-.419-.21-.943 0-1.153.106-.105.315-.105.525-.105 1.469-.104 3.987.315 5.455-.21 1.26-.523 2.728-1.467 2.518-3.039-.105-1.363-1.364-2.516-2.518-3.354-.629-.524-2.517-1.782-3.147-1.677-1.049.21-1.364 1.572-1.364 2.83-.734-.734-1.888-.63-2.517 0-.63.524-.945 1.467-1.26 2.41-.314.84-.629 1.783-1.258 2.412-.63.524-1.574.943-1.364 1.886.105 1.153 1.574 1.468 2.308 2.411-.21-.21-.315 1.258-.21 1.468.315.733 1.05 1.258 1.469 1.886 1.154 1.049 1.678 2.306 3.147 3.04z"/>
            <g transform="translate(158.614 19)">
                <ellipse cx="14.372" cy="13.735" fill="#000" opacity=".15" rx="13.743" ry="13.731" transform="translate(.115 2.096)"/>
                <ellipse cx="14.487" cy="14.468" fill="#31314C" rx="13.743" ry="13.731"/>
                <ellipse cx="14.477" cy="14.444" fill="#FFF" rx="12.579" ry="12.589" transform="rotate(-81.101 14.477 14.444)"/>
                <g fill="#0B2146">
                    <path d="M14.09 3.043h1v2.621h-1zM14.09 23.273h1v2.621h-1z"/>
                </g>
                <g fill="#0B2146">
                    <path d="M2.842 14.154h2.623v1H2.842zM23.09 14.154h2.623v1H23.09z"/>
                </g>
                <g fill="#0B2146">
                    <path d="M20.53 8.19l1.855-1.853L20.53 8.19zM6.213 22.57l1.855-1.852-1.855 1.853z"/>
                </g>
                <g fill="#0B2146">
                    <path d="M6.175 6.378L8.03 8.23zM20.494 20.602l1.854 1.854z"/>
                </g>
                <path fill="#0B2146" d="M27.076 14.468v.734c-.42-6.604-5.875-11.845-12.589-11.845S2.213 8.598 1.898 15.202v-.734C1.898 7.55 7.563 1.89 14.487 1.89s12.589 5.66 12.589 12.578z" opacity=".15"/>
                <path fill="#F57153" d="M9.874 16.469l4.425-1.924-4.425 1.924z"/>
                <path fill="#0B2146" d="M13.753 14.573l5.245-5.24.315.314-4.93 4.926 3.986 3.983-.315.315z"/>
            </g>
            <path fill="#0B2146" d="M222.408 58.73l-3.882 18.553 1.364 3.878 2.833-3.563.21-18.763z"/>
            <path fill="#0B2146" d="M221.359 57.053l1.259 2.83 1.678-2.83-1.573-1.363z"/>
            <path fill="#FFF" d="M222.618 55.69l2.518 1.782s3.462-2.096 3.147-3.564c-.315-1.467-1.259-1.153-1.259-1.153s-1.993 2.306-4.406 2.935zM220.94 53.384s-1.47 1.048-1.574 1.992c-.21.943 1.678 2.515 1.678 2.515l1.574-2.096c-.42 0-.944 0-1.469-.105l-.21-2.306z"/>
        </g>
    </g>
</svg>
