<svg xmlns="http://www.w3.org/2000/svg" xmlns:xlink="http://www.w3.org/1999/xlink" width="572" height="271" viewBox="0 0 572 271">
    <defs>
        <path id="a" d="M0 .3h571.113v81.407H0z"/>
        <path id="c" d="M0 271h571.114V.925H0z"/>
        <path id="e" d="M9.738 1.195l-.642 2.639c-.842 3.45-4.7 5.192-7.84 3.537L.484.424l9.254.771z"/>
        <linearGradient id="f" x1="62.074%" x2="37.36%" y1="93.214%" y2="-39.923%">
            <stop offset="0%" stop-color="#BA7460"/>
            <stop offset="100%" stop-color="#DFAC9A"/>
        </linearGradient>
        <path id="h" d="M2.408.297C.973.297.39 2.478 1.565 3.451c.248.205.542.314.843.314h42.808c1.436 0 2.019-2.182.843-3.155a1.322 1.322 0 0 0-.843-.313H2.408z"/>
        <linearGradient id="i" x1="73.441%" x2="29.097%" y1="51.175%" y2="48.952%">
            <stop offset="0%" stop-color="#FFF"/>
            <stop offset="100%" stop-color="#DDD6C4"/>
        </linearGradient>
        <path id="k" d="M.346.988h18.107v22.501H.346z"/>
        <path id="m" d="M0 271h571.114V.925H0z"/>
        <path id="o" d="M0 271h571.114V.925H0z"/>
    </defs>
    <g fill="none" fill-rule="evenodd">
        <g>
            <g transform="translate(0 163.008)">
                <mask id="b" fill="#fff">
                    <use xlink:href="#a"/>
                </mask>
                <path fill="#FCD8D0" d="M69.826.322c2.053-.05 463.32 0 463.32 0s45.04 7.59 16.912 26.604c-20.262 13.699-15.433 20.921 1.254 21.004 33.634.165 17.811 23.307.92 26.345-16.892 3.038-236.802 4.498-304.711 6.2-148.933 3.733-135.625-1.652-122.076-7.626 13.56-5.977.187-15.77-23.428-7.725-34.638 11.8-92.864-5.275-54.696-17.986 20.01-6.664-1.704-13.355-22.009-10.776C5.007 38.94-8.073 21.463 5.664 12.942 19.4 4.42 43.55.976 69.826.322" mask="url(#b)"/>
            </g>
            <path fill="#0B2146" d="M345.693 151.758c1.218 1.818 2.089 3.543 1.766 5.969-.475 3.566-3.383 5.928-4.15 9.39-.068.312-.118.643-.036.978.161.654.803 1.157 1.428 1.322 3.363.885 6.304-4.06 8.204-5.976l7.173-7.227c.638-.638.552-1.8-.192-2.568l-8.005-8.28-1.177-1.232c-1.949-2.041-4.872-2.267-6.476-.5-1.386 1.527-1.275 4.14.128 6.19.464.678.921 1.311 1.337 1.934"/>
            <mask id="d" fill="#fff">
                <use xlink:href="#c"/>
            </mask>
            <path fill="#0B2146" d="M372.43 157.718h1.781v-39.344h-1.781z" mask="url(#d)"/>
            <path stroke="#0B2146" stroke-width="2" d="M388.9 165.974c0-5.81-10.27-8.246-15.401-8.256-6.108-.012-15.401 2.242-15.401 8.256M373.326 167.527v-9.65" mask="url(#d)"/>
            <path fill="#0B2146" d="M355.578 167.375a2.52 2.52 0 1 0 5.04 0 2.521 2.521 0 1 0-5.04 0M370.852 167.375a2.52 2.52 0 1 0 5.04 0 2.521 2.521 0 1 0-5.04 0M386.125 167.375a2.52 2.52 0 1 0 5.04 0 2.521 2.521 0 1 0-5.04 0" mask="url(#d)"/>
            <path fill="#FFF" d="M375.052 105.167V76.22c0-5.01 4.056-9.071 9.062-9.071h9.978c5.006 0 9.064 4.06 9.064 9.071v32.362c0 7.147-5.842 12.995-12.983 12.995h-32.534a1.528 1.528 0 0 1-1.527-1.53c0-.843.683-1.527 1.527-1.527h4.073c7.367 0 13.34-5.979 13.34-13.353" mask="url(#d)"/>
            <path fill="#0B2146" d="M342.97 160.963c-.388 2.154-.96 4-2.878 5.52-2.818 2.23-6.55 1.904-9.505 3.858-.266.176-.532.38-.705.677-.34.582-.227 1.39.108 1.945 1.801 2.976 7.351 1.47 10.046 1.416l10.175-.2c.903-.014 1.647-.91 1.647-1.98v-11.523l.01-1.703c.017-2.825-1.927-5.022-4.307-4.868-2.057.132-3.792 2.086-4.209 4.538-.136.809-.248 1.583-.381 2.32" mask="url(#d)"/>
            <path fill="#7F331C" d="M357.961 82.498a4.828 4.828 0 0 0-5.65 3.837c-.02.106-.031.212-.044.318l-.005-.002 3.015-23.311 11.537 2.075 1.88-8.505v-.001l-6.886 31.143a4.83 4.83 0 0 0-3.847-5.554" mask="url(#d)"/>
            <path fill="#7A483A" d="M361.83 88.427h-.003c.011-.04.017-.081.028-.122l-.026.122zM368.643 56.002l-.132.632zM361.938 87.948c-.02.121-.052.24-.083.358l.097-.46c-.006.035-.007.068-.014.102M352.397 86.547l9.43 1.88a4.828 4.828 0 0 1-5.498 3.417 4.83 4.83 0 0 1-3.932-5.297M355.14 63.201l1.078-8.887-1.056 8.89z" mask="url(#d)"/>
            <path fill="#F57153" d="M356.532 54.406c.79-2.357 2.147-4.56 4.426-5.707.682-.344 1.41-.584 2.136-.822 1.859-.612 3.728-1.226 5.663-1.511.325-.048.763-.015.837.305.03.126-.015.255-.042.38-.114.51.162.952.093 1.453-.09.648-.333 1.306-.495 1.941-.336 1.311-.67 2.683-.53 4.047.211 2.044-.865 3.766-.865 5.738-.069.324-1.005 4.933-1.036 4.927l-11.557-1.953c.355-2.985.429-5.992 1.37-8.798" mask="url(#d)"/>
            <path fill="#7F331C" d="M356.18 82.426l.003.04c.214-.04.432-.07.656-.08a4.829 4.829 0 0 1 5.034 4.615 4.83 4.83 0 0 1-5.102 5.036v.003l-33.04-2.462-.194-3.961 32.644-3.191z" mask="url(#d)"/>
            <path fill="#0B2146" d="M328.652 111.564a6.96 6.96 0 0 1 .547-2.342c.424-.981-.001-2.065.681-2.837 4.124-4.656 11.344-4.077 16.885-4.646 6.372-.655 12.743-1.31 19.116-1.963 1.153-.12 2.307-.238 3.462-.345.096-.006.19-.022.286-.024 4.273-.086 8.016 4.375 8.36 9.963.344 5.588-2.842 10.187-7.115 10.272-.097.002-.192-.011-.288-.009l-19.59-.159c-4.032-.032-8.048.49-12.086.158-3.428-.28-8.144-.9-9.756-4.906a7.357 7.357 0 0 1-.502-3.162" mask="url(#d)"/>
            <path fill="#0B2146" d="M331.788 104.057c8.558-3.22 12.742 1.72 14.6 8.573a247.644 247.644 0 0 1 7.289 38.984c-.673.338-11.998 1.389-11.901 1.64l-6.052-15.746-8.651-22.51c-1.252-3.256-1.53-6.649 1.673-9.24.897-.725 1.93-1.282 3.042-1.701M362.145 112.356c-.134.177-.261.36-.381.55-3.461 5.512 5.826 6.85 9.175 6.854l11.779.019c6.821 0 12.11-3.423 12.324-10.158V89.247l-14.57.036c-2.911.007-6.136-.382-9.018.022-2.063.289-1.805-.179-2.656 1.859-1.07 2.556-.518 6.614-.984 9.394-.593 3.537-1.736 7.08-4.013 9.849-.541.658-1.145 1.27-1.656 1.949" mask="url(#d)"/>
            <path fill="#0B2146" d="M344.553 115.206c2.648-4.295 20.612-11.732 22.899-13.342a22.26 22.26 0 0 1 16.466-3.787c4.844.783 9.708 1.771 11.246 8.662 1.193 5.355-.873 10.292-4.478 11.602-.081.03-.164.048-.245.077l-33.445 11.185c-.07.03-.134.064-.209.092a4.915 4.915 0 0 1-.548.16c-2.78.646-6.468-.727-9.501-3.693-3.662-3.584-4.285-7.549-2.185-10.956" mask="url(#d)"/>
            <path fill="#F57153" d="M362.075 50.6c.251-.301.516-.591.783-.879.486-.523.984-1.04 1.553-1.472 3.195-2.418 7.775-2.193 11.559-2.317 4.219-.136 8.459.06 12.412 1.687 4.346 1.789 8.228 5.228 10.021 9.633 1.883 4.629-.758 10.4-1.275 15.214a484.102 484.102 0 0 0-2.171 27.733c-4.475-.208-8.958-.244-13.435-.48-5.489-.287-11.67-.529-16.935-2.524-.541-6.735-1.867-13.423-2.718-20.125-.555-4.377-.834-8.874-1.67-13.207-.743-3.858-1.068-9.049 1.265-12.464.19-.277.396-.542.611-.8" mask="url(#d)"/>
            <path fill="#7F331C" d="M375.831 52.988a4.91 4.91 0 0 0 3.91-5.931l-2.418-11.324-8.918 1.612 1.69 11.455a4.908 4.908 0 0 0 5.736 4.188" mask="url(#d)"/>
            <g mask="url(#d)">
                <g transform="translate(368.441 38.714)">
                    <mask id="g" fill="#fff">
                        <use xlink:href="#e"/>
                    </mask>
                    <path fill="url(#f)" d="M9.738 1.195L.484.424l.772 6.947c3.14 1.655 6.998-.087 7.84-3.537l.642-2.639z" mask="url(#g)"/>
                </g>
            </g>
            <path fill="#7F331C" d="M371.914 43.596a6.486 6.486 0 0 0 7.787-4.852l2.193-9.431-13.25-3.085-1.578 9.573a6.492 6.492 0 0 0 4.848 7.795" mask="url(#d)"/>
            <path fill="#0B2146" d="M368.032 28.101c.85.485 1.943.717 2.794.938 1.362.355 2.745.636 4.097 1.032 3.159.927 3.217 3.263 2.265 6.13-.484 1.456-1.424 2.824-2.801 3.498-2.463 1.206-5.72.616-7.184-1.723-.079-.125-.163-.255-.29-.33-.289-.174-.668.001-.9.246-.52.552-.61 1.376-.6 2.135.01.785.098 1.583.406 2.305 1.39 3.247 7.01 4.286 9.74 2.384 1.097-.765 2.02-1.875 2.425-3.133.434-1.354 1.454-1.002 2.67-.837 1.513.206 3.16-.578 3.799-1.968.638-1.389.059-3.268-1.326-3.911 1.199-.367 2.288-1.354 2.417-2.602.108-1.044-.47-2.064-1.261-2.754-.79-.689-1.775-1.106-2.742-1.513.471-.577.346-1.485-.136-2.052-.482-.566-1.233-.837-1.97-.933-1-.13-2.2.094-3.182.305-.275-.93-.982-1.688-1.8-2.206-.82-.52-1.752-.83-2.678-1.116-.43-.132-.898-.26-1.323-.11-.424.151-.724.711-.449 1.07-.928-.024-1.902.077-2.678.588-1.816 1.196-.89 3.647.707 4.557" mask="url(#d)"/>
            <path fill="#7F331C" d="M376.322 36.32a1.404 1.404 0 1 0 2.736.636 1.404 1.404 0 0 0-2.736-.636M398.96 87.916h-9.624l-2.112-26.95a5.381 5.381 0 0 1 2.07-4.653c1.696-1.303 3.846-1.332 5.718-.335 1.341.714 2.315 1.993 2.941 3.38.717 1.588 1.276 3.5 1.257 5.248l-.039 3.666c-.031 2.832-.062 5.664-.091 8.496l-.12 11.148" mask="url(#d)"/>
            <path fill="#F57153" d="M387.477 64.483l-.556-4.828c-.249-2.158-.885-4.483-.151-6.598.293-.845.836-1.636 1.624-2.06.653-.35 1.416-.405 2.143-.354.651.045 1.708.082 2.265.402a13.172 13.172 0 0 1 5.166 5.432 13.16 13.16 0 0 1 1.331 4.441c.095.811.118 1.636.054 2.45-.063.81-.156.823-.902.802-3.638-.098-7.334.206-10.974.313" mask="url(#d)"/>
            <path fill="#7F331C" d="M356.147 90.956a2.249 2.249 0 0 1 1.867-2.181l34.905-5.977.006.042c1.031-.27 2.182-.248 3.431.421 1.35.724 2.36 2.044 2.57 3.563a4.832 4.832 0 0 1-4.694 5.518l-.021-.002v.004l-35.763.893a2.246 2.246 0 0 1-2.3-2.281" mask="url(#d)"/>
            <path fill="#0B2146" d="M351.514 85.42h-49.879a1.83 1.83 0 0 1-1.788-1.444l-6.196-28.718a1.831 1.831 0 0 1 1.789-2.218h49.879a1.83 1.83 0 0 1 1.788 1.445l6.195 28.718a1.83 1.83 0 0 1-1.788 2.218M313.225 94.813h18.455V93.59h-18.455z" mask="url(#d)"/>
            <path fill="#0B2146" d="M324.253 93.685h-3.843l1.022-12.238a1.917 1.917 0 0 1 1.908-1.757c1.12 0 2.002.96 1.909 2.077l-.996 11.918zM344.794 115.487c-3.174 5.959-2.266 14.684-2.574 21.33-.106 2.263-1.61 25.072-.368 25.276 4.033.659 8.109 1.06 12.118 1.826a354.31 354.31 0 0 0 7.268-48.896c.726-9.354-13.681-4.725-16.444.464M218.487 159.641h1.78V120.3h-1.78z" mask="url(#d)"/>
            <path stroke="#0B2146" stroke-width="2" d="M203.798 167.897c0-5.81 10.27-8.246 15.401-8.256 6.108-.011 15.401 2.242 15.401 8.256M219.371 169.45v-9.65" mask="url(#d)"/>
            <path fill="#0B2146" d="M237.12 169.299a2.52 2.52 0 1 1-5.04 0 2.521 2.521 0 1 1 5.04 0M221.846 169.299a2.52 2.52 0 1 1-5.04 0 2.521 2.521 0 1 1 5.04 0M206.572 169.299a2.52 2.52 0 1 1-5.04 0 2.521 2.521 0 1 1 5.04 0" mask="url(#d)"/>
            <path fill="#FFF" d="M217.646 107.091V78.144c0-5.01-4.057-9.071-9.062-9.071h-9.979c-5.005 0-9.063 4.06-9.063 9.071v32.362c0 7.147 5.842 12.995 12.983 12.995h32.534c.843 0 1.526-.685 1.526-1.53 0-.843-.683-1.528-1.526-1.528h-4.073c-7.367 0-13.34-5.978-13.34-13.352" mask="url(#d)"/>
            <path fill="#F0C3CC" d="M280.735 161.254c.24.433.492.859.777 1.263.905 1.286 2.88 2.422 4.501 2.207 1.745-.23 3.455-.85 5.214-.764.647.031 1.329.18 1.793.631 2.03 1.983-2.811 3.755-4.144 4.155-3.03.91-6.063 1.819-9.093 2.727-.568.172-1.164.344-1.747.237-2.351-.43-3.057-3.49-3.769-5.334-.506-1.31-1.364-2.444-1.9-3.738-.403-.97-1.044-3.45-.148-4.3.217-.206.501-.322.76-.474.51-.301.924-.75 1.449-1.026 1.488-.779 3.363.105 4.447 1.39.764.907 1.282 1.986 1.86 3.026" mask="url(#d)"/>
            <path fill="#E6AC8E" d="M229.851 91.313h.002c-.011-.04-.017-.082-.027-.122l.025.122zM223.037 58.887l.132.632zM229.742 90.834c.022.122.052.239.083.357l-.097-.46c.006.035.007.069.014.103" mask="url(#d)"/>
            <path fill="#E6AC8E" d="M239.283 89.433l-9.43 1.88a4.826 4.826 0 0 0 5.498 3.415 4.827 4.827 0 0 0 3.932-5.295M239.242 89.114a4.826 4.826 0 0 0-9.513 1.618l.097.46c.01.04.016.081.027.12l9.43-1.88c-.011-.106-.022-.212-.04-.318" mask="url(#d)"/>
            <path fill="#D18334" d="M236.54 66.086l-1.078-8.887 1.056 8.891z" mask="url(#d)"/>
            <path fill="#F57153" d="M266.183 114.804c-.083-.558-.402-1.073-.43-1.643-.545-10.916-28.59-11.892-35.947-12.406-2.488-.173-5.052-.202-7.393.653-4.244 1.549-8.863 7.139-8.732 11.824.126 4.544 3.223 9.265 8.12 9.415.108.003.215-.008.322-.005l21.917.12c3.471.018 6.93.369 10.402.401 2.73.025 6.142.524 8.562-1.036 2.478-1.596 3.587-4.544 3.179-7.323" mask="url(#d)"/>
            <path fill="#F57153" d="M233.474 112.186c7.054 3.838-5.954 10.439-12.733 10.46l-11.779.018c-6.821 0-12.11-3.422-12.324-10.157V92.132l26.116.064s3.057 15.82 10.72 19.99" mask="url(#d)"/>
            <path fill="#F57153" d="M258.997 115.353c-5.482-3.658-27.607-9.031-30.623-10.22-5.972-2.352-12.553-3.335-18.934-2.492-5.41.715-11.086 1.63-12.43 7.742-1.202 5.475 2.256 10.888 7.725 12.092.124.027.247.04.37.067l50.822 10.046c.113.03.221.067.335.092.272.06.544.104.82.135 3.99.454 7.203-1.871 8.085-5.883.964-4.39-1.543-8.49-6.17-11.579" mask="url(#d)"/>
            <path fill="#F0C3CC" d="M252.156 163.666c.022 1.525.234 2.863 1.591 4.155 1.995 1.898 5.09 2.168 7.236 3.894.193.156.382.33.483.557.197.443-.007.981-.357 1.316-1.883 1.8-6.21.037-8.406-.355l-8.289-1.48a1.328 1.328 0 0 1-1.073-1.571l1.592-7.885.226-1.167a3.512 3.512 0 0 1 4.193-2.763c1.663.361 2.812 1.928 2.813 3.66 0 .572-.016 1.116-.009 1.639" mask="url(#d)"/>
            <path fill="#0B2146" d="M224.96 68.043l.112-.018-.111.018zm.316-.053l.324-.055-.324.055zm25.517.59l-11.016 10.206c-2.175 2.015-2.535-6.51-2.666-7.596-.554-4.568-.573-9.493-1.963-13.898-.79-2.358-2.147-4.56-4.425-5.708-.682-.344-1.411-.584-2.137-.822-1.858-.611-3.728-1.226-5.663-1.51-.325-.049-.763-.014-.837.305-.029.126.015.255.042.38.114.51-.162.952-.092 1.452.09.649.332 1.307.494 1.941.336 1.313.67 2.683.53 4.047-.192 1.854.508 3.839.85 5.654l-.653-3.425c.83 4.95 1.623 9.905 2.38 14.867.714 4.68 1.18 9.439 2.681 13.952.496 1.53 1.242 4.24 2.97 4.859 1.464.524 2.915 1.207 4.387.707a4.94 4.94 0 0 0 1.969-1.24l19.876-17.438c-1.14-1.293-5.59-5.435-6.727-6.732z" mask="url(#d)"/>
            <path fill="#F57153" d="M281.514 159.226l-17.39-36.07c-.068-.122-2.104-4.004-2.179-4.124-2.197-3.543-11.223-5.482-14.992-3.625-3.769 1.858-3.58 5.477-1.383 9.02.085.137 1.428 3.942 1.428 3.942l24.1 36.253c3.347-2.042 6.836-3.812 10.416-5.396" mask="url(#d)"/>
            <path fill="#0B2146" d="M229.605 53.485c-.251-.3-.516-.591-.783-.878-.486-.524-.984-1.042-1.553-1.473-3.195-2.418-7.775-2.193-11.559-2.316-4.219-.137-8.459.059-12.412 1.686-4.346 1.789-8.228 5.228-10.021 9.634-1.883 4.629.758 10.398 1.275 15.213.99 9.221 1.713 18.47 2.171 27.733 4.475-.208 8.958-.244 13.435-.479 5.489-.287 11.67-.53 16.936-2.524.54-6.736 1.866-13.423 2.717-20.125.555-4.378.834-8.874 1.67-13.207.743-3.859 1.068-9.05-1.265-12.464-.19-.278-.396-.542-.611-.8" mask="url(#d)"/>
            <path fill="#F57153" d="M261.312 106.8c-2.528-1.635-6.415-1.26-8.6 1.094-.881.948-1.443 2.15-1.855 3.378-.697 2.072-1.002 4.253-1.303 6.42-2.015 14.496-3.162 29.094-5.352 43.536-.002.019 3.732.685 3.975.73.763.14 6.755 2.079 6.756 2.076 4.191-13.009 8.393-26.06 10.898-39.495.543-2.914.962-5.973.72-8.94-.32-3.917-1.978-6.69-5.24-8.8" mask="url(#d)"/>
            <path fill="#F6F2E3" d="M215.849 55.874a4.911 4.911 0 0 1-3.912-5.932l2.42-11.324 8.918 1.612-1.69 11.455a4.907 4.907 0 0 1-5.736 4.189" mask="url(#d)"/>
            <path fill="#F6F2E3" d="M219.766 46.482a6.486 6.486 0 0 1-7.787-4.853l-2.193-9.43 13.25-3.085 1.578 9.573a6.493 6.493 0 0 1-4.848 7.795" mask="url(#d)"/>
            <path fill="#0B2146" d="M223.408 30.74c-.38.365-.87.628-1.36.836-.709.3-1.452.52-2.21.65-1.177.202-2.395.195-3.533.556-3.065.972-2.65 4.355-2.385 6.945.183 1.799-1.86 4.946-3.786 4.97-1.137.014-2.093-.88-2.665-1.864-.992-1.706-1.198-3.768-1.052-5.737.198-2.658 1.141-5.462 3.337-6.97 1.858-1.275 4.007-1.65 6.02-2.56 1.155-.52 2.303-1.094 3.544-1.344 1.241-.251 2.62-.137 3.634.62 1.016.757 1.515 2.264.883 3.362-.116.2-.26.378-.427.536" mask="url(#d)"/>
            <path fill="#F6F2E3" d="M215.358 39.205a1.404 1.404 0 1 1-2.736.636 1.404 1.404 0 0 1 2.736-.636" mask="url(#d)"/>
            <path fill="#0B2146" d="M192.72 90.801h9.624l2.113-26.95a5.381 5.381 0 0 0-2.072-4.653c-1.695-1.303-3.845-1.33-5.717-.335-1.341.715-2.315 1.994-2.941 3.38-.717 1.589-1.276 3.5-1.257 5.25l.04 3.664.09 8.497.12 11.147" mask="url(#d)"/>
            <path fill="#0B2146" d="M204.203 67.368l.557-4.827c.248-2.159.884-4.483.15-6.598-.293-.846-.835-1.637-1.624-2.06-.653-.35-1.416-.406-2.143-.355-.651.045-1.708.083-2.265.402a13.184 13.184 0 0 0-5.166 5.433 13.174 13.174 0 0 0-1.33 4.44 12.627 12.627 0 0 0-.055 2.45c.063.812.156.823.902.803 3.639-.1 7.334.205 10.974.312" mask="url(#d)"/>
            <path fill="#F6F2E3" d="M236.172 91.049l-29.635-4.055c-1.94.146-3.872.33-5.791.601-.872 2.592-1.96 5.101-2.992 7.634l38.19-.496a1.849 1.849 0 0 0 1.824-1.754c.05-.961-.643-1.8-1.596-1.93" mask="url(#d)"/>
            <path fill="#F6F2E3" d="M241.128 97.42c-1.642-1.96-3.798-3.077-6.115-3.442-1.09-.172-.999 1.076.022 1.235a8.667 8.667 0 0 1 5.012 2.611c.57.594 1.613.232 1.08-.404" mask="url(#d)"/>
            <path fill="#0B2146" d="M223.09 95.219c.057-.179.105-.359.163-.536.303-1.57 1.318-5.286 1.596-6.866l-26.089-2.133-.005.042a4.851 4.851 0 0 0-1.136-.162 4.831 4.831 0 0 0-4.913 4.746 4.831 4.831 0 0 0 4.742 4.917l.02-.001v.003l25.622-.01z" mask="url(#d)"/>
            <path fill="#FFF" d="M276.023 94.813H231.65c0-.858.694-1.552 1.551-1.552h42.822v1.552z" mask="url(#d)"/>
            <path fill="#FFF5F5" d="M283.646 93.26h-44.34l7.908-23.44c.272-.807 1.079-1.355 1.992-1.355h39.968c1.407 0 2.412 1.26 1.992 2.501l-7.52 22.295z" mask="url(#d)"/>
            <path fill="#C9CDD1" d="M239.094 94.813h44.552v-1.552h-44.552z" mask="url(#d)"/>
            <path fill="#F6F2E3" d="M493.51 19.835c-1.055-2.534-1.145-5.117-1.293-7.737-1.06-.331-2.832.188-4.191.423-.82.14-3.45.207-3.687 1.089-.211.791 1.77 3.79 2.05 4.73.559 1.87.73 3.906.13 5.761a7.72 7.72 0 0 1-2.452 3.56c-.627.515-1.36.969-1.695 1.708-.71 1.564 1.273 2.407 2.41 2.737 2.662.772 4.382-3.404 7.073-4.067 1.848-.456 5.42-.505 4.573-3.33-1.118-1.54-2.186-3.119-2.917-4.874" mask="url(#d)"/>
            <path fill="#F6F2E3" d="M488.302 15.976c1.949-.298 1.556 1.74 2.947.343.32-.322 1.831-2.992 1.742-3.438-.551-2.753-.702-6.373-1.983-7.634-1.508-1.484-4.3-1.708-6.268-1.88-1.367-.122-2.909.146-3.741 1.237-.667.873-.719 2.054-.743 3.153-.05 2.249-.461 4.728 1.086 6.566 1.246 1.48 3.222 1.942 5.082 1.841.775-.041 1.024-.246 1.8-.265.102-.003.214 0 .298.06.084.06-.138-.047-.22.017M476.368 144.314c-.164.174-.31.36-.438.557-.865 1.336-1.024 2.995-1.158 4.582l-.746 8.8c-.411 4.856 4.555 8.67 8.079 4.024 2.301-3.034 1.666-8.024 2.06-11.587.18-1.621 1.348-4.391.578-5.972-1.478-3.03-6.289-2.632-8.375-.404" mask="url(#d)"/>
            <path fill="#0B2146" d="M483.105 160.409c-2.75.103-6.877 1.947-8.464-1.497-.16-.406-.284-.93-.709-1.033-.237-.057-.48.053-.699.164-2.001 1.012-3.866 2.217-5.922 3.086-2.166.916-4.381 1.485-6.592 2.282-.587.212-1.217.51-1.458 1.087-.227.546-.019 1.198.371 1.643.94 1.07 2.223 1.34 3.572 1.4 2.035.09 4.161.21 6.173.23 1.588.016 3.058-.69 4.568-1.074 1.685-.43 2.68.109 4.247.692 1.274.473 2.698.248 4.01-.107.592-.161 1.243-.403 1.494-.962.173-.386.11-.833.045-1.251-.231-1.453-.811-3.213-.533-4.663l-.103.003" mask="url(#d)"/>
            <path fill="#F0C3CC" d="M481.288 70.176c3.242-3.428 8.694-2.823 13.162-1.5 5.46 1.62 4.8 10.621 2.154 14.662-.914 1.397-2.212 2.502-3.19 3.855-1.963 2.72-2.479 6.196-2.873 9.529-2.257 19.091-2.46 38.426-5.7 57.375.182-1.062-11.096-.836-11.069-1.43.983-21.563-3.915-43.525-.167-64.96 1.071-6.128 3.338-12.274 7.326-17.126.116-.141.235-.276.357-.405" mask="url(#d)"/>
            <path fill="#0B2146" d="M497.625 49.529c.023-.17.047-.338.072-.507.598-4.085 1.524-8.147 1.561-12.275a28.709 28.709 0 0 0-1.22-8.504 28.694 28.694 0 0 0-1.643-4.225c-.577-1.197-.676-1.44-1.929-1.34-2.8.22-6.539.235-9.023 1.724-1.16.695-1.735 2.346-2.428 3.505l-2.833 4.741c-.802 1.342-1.619 2.718-1.926 4.252-.308 1.533-.015 3.281 1.132 4.344 1.307 1.211 2.366 1.176 2.46 3.066.105 2.134.336 4.235.307 6.377a49.761 49.761 0 0 1-1.797 12.614c-.19.683-.81 2.086-.29 2.725.43.526 1.74.35 2.321.42 2.775.33 5.556.592 8.344.783 1.22.084 2.443.154 3.666.163 1.819.013 2.094-.162 2.145-2.05.11-4.132.26-8.267.671-12.382.115-1.146.25-2.29.41-3.431" mask="url(#d)"/>
            <path fill="#F0C3CC" d="M496.579 64.796c.012-.22.036-.44.059-.658-5.47.579-10.96.183-16.435-.408-.253.134-.215.31-.31.974-.102.719-.18 1.44-.27 2.161-.12.964-.265 1.986-.885 2.734-.276.332-.63.588-.986.833-3.498 2.403-7.653 3.889-11.442 5.78l-11.331 5.66c-2.102 1.05-4.957 2.282-6.273 4.352-1.295 2.037.107 5.449.91 7.553 1.529 4.004 3.64 5.608 7.958 4.1 7.572-2.647 15.515-4.94 22.648-8.656 1.719-.896 3.414-1.885 5.28-2.405 4.666-1.3 8.946-.813 11.717-5.556 3.36-5.75-.976-10.608-.64-16.464" mask="url(#d)"/>
            <path fill="#F6F2E3" d="M467.482 21.221c.173-1.235.41-2.456.713-3.666.185-.743 1.334-.429 1.148.317-.047.187-.089.375-.132.562.347.013.698.301.584.74-.03.114-.064.228-.098.343a.666.666 0 0 1 .61.245c-.162.624-.457 1.208-.273 1.869.18.642 1.199 1.295 1.147 1.61-.001.008.014.006.022.01l.09.074c.046.037.106-.002.109-.045a.25.25 0 0 0 .097-.043c.794.988 1.993 1.367 1.865 4.352-.031.743.052 5.827-.25 5.816-.985-.037-2.757-.453-3.734-.576-.194-.024-1.668 1.21-1.754 0-.056-.791 1.926-6.113 1.91-6.496a1.054 1.054 0 0 0-.07-.337c-.158-.26-.14-.504-.337-.743a6.09 6.09 0 0 1-.204-.25V25c-.051-.063-.1-.128-.146-.19-.411-.571-.919-1.332-1.164-1.998-.16-.43-.101-.692 0-1.104a.622.622 0 0 1-.133-.488" mask="url(#d)"/>
            <path fill="#0B2146" d="M494 29.446c-.133-.615-.394-1.194-.806-1.668-1.428-1.641-4.151-1.441-5.967-.245-1.817 1.195-3.002 3.111-4.326 4.837-2.572 3.349-5.811 6.486-9.2 8.985-.254.187-.512.376-.773.564a35.95 35.95 0 0 1 .33-4.387c.12-.864 1.107-3.675 1.048-4.902-.009-.205-.047-.366-.125-.466-.65-.852-6.504-.824-6.886.462-2.079 7.004-4.164 13.837-.402 20.709.638 1.165 1.787 2.412 3.058 2.03.206-.063.393-.167.568-.291.758-.18 1.514-.544 2.192-.925 8.628-4.83 15.71-10.566 20.17-19.581.533-1.08 1.032-2.2 1.185-3.394a5.159 5.159 0 0 0-.065-1.728M471.945 24.461c.192-.067.3-.259.242-.428l-3.939-11.297c-.058-.17-.263-.252-.455-.185-.193.068-.301.259-.242.428l3.938 11.298c.059.169.263.251.456.184" mask="url(#d)"/>
            <path fill="#F6F2E3" d="M470.651 23.03c.158-.348.31-.18.44-.004.015.112.052.231.166.278.106.044.222-.002.305-.07.228-.185.415-.562.43-.854.005-.006.012-.012.016-.019a.503.503 0 0 1-.057-.246 2.738 2.738 0 0 0-.112-.078c-.279-.188-.492-.372-.644-.647l-.253-.725c-.121-.479.568-.737.925-.1.245.434.755.472.975.656.277.232.48.521.52.887l.001.004c.093.351.114.945.091 1.591.007.05.013.1.018.151.376 1.073.168 2.2-.59 3.094-.106.122-.28-.055-.178-.177.028-.033.054-.067.08-.101a.109.109 0 0 1-.03-.073c-.446-.07-1.179-.695-1.703-1.791-.143-.3-.319-.531-.379-.766-.251-.2-.164-.693-.02-1.01M486.613 8.749c.066-.153.154-.287.272-.39.511.015.99.31 1.181.819.216.571.015 1.41-.683 1.493a1.422 1.422 0 0 1-.945-.236 8.401 8.401 0 0 1-.014-.541c.028-.388.087-.77.189-1.145M476.346 110.055c-.003.08-.002.16 0 .24.068 1.467 1.273 2.655 2.595 3.29 1.322.635 2.798.868 4.174 1.375a11.141 11.141 0 0 1 4.377 2.981c.987 1.093 1.66 3.62 3.231 3.853 1.368.201 2.407-.89 2.88-2.018.485-1.155 1.14-2.352 1.473-3.567.343-1.248.29-2.668-.447-3.731-1.128-1.633-3.362-1.92-5.217-2.625-1.814-.69-3.477-1.7-5.207-2.567-1.42-.713-3.424-1.885-5.08-1.783-1.343.082-2.031 1.615-2.427 2.903-.165.538-.333 1.089-.352 1.649" mask="url(#d)"/>
            <path fill="#0B2146" d="M491.817 110.7c.01.036 1.321 5.082-.108 6.965-.766 1.008-2.043 1.758-3.042 2.532.003-.002 2.686 4.327 2.882 4.706 1.007 1.941 1.156 3.708 1.667 5.744.258 1.027.71 2.124 1.664 2.584.689.332 1.53.252 2.21-.095 3.69-1.88 1.891-8.663.931-11.693-.374-1.18-.844-2.422-.505-3.611.248-.873.904-1.595 1.26-2.435.6-1.417.195-3.878-1.337-4.734-.492-.275-5.772-.542-5.622.037" mask="url(#d)"/>
            <path fill="#F0C3CC" d="M455.21 107.281c-4.367-1.855-9.862-2.75-11.552-7.887-.51-1.553-.572-3.219-.478-4.85.135-2.333.623-4.743 2.055-6.59 1.3-1.674 3.233-2.71 5.11-3.698 2.362-1.245 4.64-3.558 6.452-.433.9 1.554 1.448 3.388 2.125 5.047.57 1.394 2.152 3.79 2.152 5.273.105.255.22.525.446.683.186.13.422.165.647.201 4.469.69 8.575 2.852 12.387 5.285 3.77 2.407 7.745 4.739 11.4 7.272-.262.969-2.77 8.078-3.227 8.011-.419-.06-19.963-5.104-27.518-8.314" mask="url(#d)"/>
            <path fill="#0B2146" d="M486.709 12.104c.086 2.542-.426 5.071-1.315 7.461-.346.934.487 1.867 1.458 1.653a68.047 68.047 0 0 0 9.134-2.698c.47-.175.792-.618.816-1.12.134-2.824.143-5.68-.58-8.406-.792-2.992-2.588-5.853-5.348-7.252-1.537-.779-7.609-1.629-7.51 1.277.039 1.137 1.792 2.859 2.25 3.96a14.718 14.718 0 0 1 1.095 5.125" mask="url(#d)"/>
            <path fill="#0B2146" d="M478.602 6.78a1.558 1.558 0 0 1-.127-.106c-.997-.9-.882-2.63.011-3.633.254-.285.571-.531.944-.615.32-.071.654-.017.982.01 2.376.197 3.84-1.913 6.081-1.442 1.31.274 2.513 1.242 2.835 2.541.412 1.666-.582 2.795-2.19 2.954-2.404.238-4.766.033-7.18.476-.304.056-.619.116-.917.037a1.267 1.267 0 0 1-.439-.222" mask="url(#d)"/>
            <path fill="#EEE" d="M114.003 98.148H448.91v-3.439H114.003z" mask="url(#d)"/>
            <path fill="#EEE" d="M445.423 176.307h-2.549l-20.839-80.935h2.549zM422.362 176.307h-2.549l-20.84-80.935h2.55zM118.393 176.307h2.548l20.84-80.935h-2.55zM141.454 176.307h2.549l20.84-80.935h-2.55z" mask="url(#d)"/>
            <path fill="#0B2146" d="M132.004 100.574h298.905v-2.695H132.004zM426.375 179.464c-1.042 2.123-2.831 5.01-.488 6.924 1.058.866 2.427 1.26 3.546 2.048 5.043 3.547 2.956 11.726 1.48 16.541-2.445 7.99-14.974 40.921-28.207 28.982-1.789-1.613-2.613-4.02-3.227-6.351-2.375-9.027-2.62-18.472-2.481-27.806.03-1.927.086-3.913.873-5.67.787-1.76 2.494-3.248 4.417-3.177 1.924.073 3.646 2.234 2.837 3.982 1.674-3.618 1.155-10.015 1.709-14.014 1.189-8.6 1.325-17.254 1.7-25.931.154-3.582.366-7.35 2.289-10.374 1.922-3.024 6.185-4.872 9.206-2.947 1.055.673 1.83 1.712 2.426 2.813 2.578 4.773 1.911 10.526.274 15.492-.649 1.963-1.417 4.25-.268 5.968.707 1.058 1.964 1.58 2.946 2.39 2.178 1.797 2.837 4.951 2.362 7.736-.154.901-.762 2.106-1.394 3.394" mask="url(#d)"/>
            <path fill="#A9D8BA" d="M387.943 215.916c-1.294-3.694-1.654-8.343 1.202-11.016.85-.795 1.93-1.351 2.625-2.286.7-.941.919-2.15 1.048-3.317.97-8.74-1.93-17.508-1.42-26.286a34.155 34.155 0 0 1 6.268-17.763c1.35-1.888 3.056-3.74 5.324-4.234 3.874-.843 7.438 2.677 8.823 6.395 2.868 7.707-.056 16.277.407 24.488.094 1.68.395 3.483 1.593 4.664 1.075 1.06 2.641 1.396 4.007 2.037 2.81 1.318 4.811 4.025 5.77 6.979.96 2.954.97 6.142.586 9.224-.804 6.465-3.283 12.624-6.426 18.329-1.565 2.841-3.349 5.646-5.888 7.664-10.188 8.104-20.841-6.084-23.92-14.878" mask="url(#d)"/>
            <path stroke="#110809" stroke-width=".5" d="M403.266 202.757l2.883 42.321" mask="url(#d)"/>
            <path fill="#E0E0E0" d="M406.508 261.542c-10.503 0-19.017-8.523-19.017-19.036V230.17h38.033v12.336c0 10.513-8.514 19.036-19.016 19.036" mask="url(#d)"/>
            <path fill="#0B2146" d="M155.12 141.542v.104c0 1.229 1.907 1.23 1.907 0v-.104c0-1.229-1.907-1.23-1.907 0" mask="url(#d)"/>
            <path fill="#F57153" d="M170.11 219.85c-5.73-4.056-8.69-11.724-9.321-18.945-.748-8.547.892-17.171.13-25.717-1.331-14.904-12.644-23.728-26.743-26.472-8.699-1.694-18.024-1.219-25.984 2.678-7.96 3.897-14.324 11.528-15.438 20.327-.526 4.154.093 8.355.216 12.54a53.165 53.165 0 0 1-5.404 24.892c-1.172 2.386-2.535 4.709-3.23 7.274-2.323 8.57 1.092 18.047 6.115 24.996 4.829 6.68 11.808 12.818 19.827 15.077 7.89 2.223 16.182 2.49 24.377 2.6 13.652.185 27.394-.03 40.801-2.606 4.571-.877 9.147-2.05 13.224-4.296 4.077-2.245 7.651-5.67 9.313-10.022.926-2.422 1.216-5.2.202-7.586-.926-2.176-2.804-3.776-4.643-5.26-2.3-1.855-4.682-3.687-7.438-4.749-4.019-1.547-8.543-1.346-12.564-2.887a15.66 15.66 0 0 1-3.44-1.845" mask="url(#d)"/>
            <path fill="#0B2146" d="M136.593 134.155c-3.185 3.824-4.075 9.425-2.234 14.05.47 1.18 1.116 2.359 1.057 3.63-.105 2.234-2.259 3.73-4.17 4.89-5.988 3.635-11.948 7.614-16.212 13.174-2.932 3.824-4.956 8.27-6.603 12.8-2.29 6.301-3.907 13.095-2.7 19.69.413 2.262 1.205 4.544 2.818 6.181 3.665 3.717 9.727 2.763 14.913 2.187 12.17-1.357 24.407.897 36.582 2.21 3.298.357 6.667.64 9.907-.069 5.219-1.144 9.572-4.749 13.093-8.768 2.065-2.358 3.976-4.943 6.616-6.633 2.883-1.844 6.357-2.444 9.612-3.5 3.255-1.057 6.595-2.847 7.95-5.992 1.716-3.98-.539-8.822-4.122-11.255-3.584-2.432-8.122-2.942-12.452-2.935-4.33.008-8.705.456-12.961-.343a22.474 22.474 0 0 1-7.073-2.622c-1.935-1.118-3.767-2.612-4.66-4.664-1.48-3.403-.079-7.568-1.666-10.923-2.58-5.462-11.587-6.008-13.087-11.86-.6-2.347.296-4.781.595-7.186 1.291-10.375-11.058-7.038-15.203-2.062" mask="url(#d)"/>
            <path fill="#F6F2E3" d="M157.42 174.703c3.29 9.678 12.212 17.203 22.3 18.807-1.246 2.143-1.766 4.104-2.436 6.492-6.936.094-14.182-1.847-19.12-6.724-4.937-4.877-6.895-13.055-3.377-19.039.428-.73 2.36-.338 2.633.464" mask="url(#d)"/>
            <path stroke="#0B2146" stroke-width=".75" d="M156.002 142.028c-.013 3.58-.095 7.4-2.109 10.36" mask="url(#d)"/>
            <path fill="#F0C3CC" d="M160.826 170.78a10.538 10.538 0 0 0-.415-.568c-.549-.706-1.235-1.298-1.758-2.023-.723-1.003-1.097-2.207-1.46-3.389-.818-2.655-1.27-6.72-3.252-8.658-1.54-1.507-3.948-1.942-6.014-1.914-4.145.057-8.89 1.963-11.726 5.037-2.021 2.192-3.285 5.152-3.118 8.13.225 3.989 3.186 6.71 3.795 10.661 1.117 7.25-2.26 14.376-3.11 21.663-.092.791-.15 1.617.136 2.36 1.007 2.606 7.782 2.405 10.076 2.61 4.012.356 8.632 1.32 12.414-.507.5-4.144.74-8.32.719-12.495-.018-3.48-.982-6.997 1.218-9.984 2.71-3.68 5.432-6.618 2.495-10.922" mask="url(#d)"/>
            <path fill="#F6F2E3" d="M152.01 158.602a36.05 36.05 0 0 0 .378-7.389c-.056-1.075-.148-2.185-.024-3.257.103-.884.737-1.248 1.407-1.798 1.334-1.097 2.222-2.66 2.776-4.297 1.352-3.987 1.527-8.83-2.19-11.631-2.102-1.584-5.19-1.865-7.397-.433-3.142 2.04-3.574 6.389-3.685 10.134l-.257 8.744c-.065 2.223-.122 4.508.638 6.597.76 2.09 2.54 3.965 4.752 4.153 2.214.188 4.523-1.92 3.998-4.08" mask="url(#d)"/>
            <path fill="#F6F2E3" d="M148.583 146.371c-1.31-.683-2.366-1.765-3.363-2.858-.284-.312-.598-.644-1.015-.71-.791 3.703-.522 7.55-.033 11.305.05.392.11.802.336 1.128.374.54 1.135.708 1.77.544.638-.163 1.172-.593 1.643-1.052 1.05-1.023 1.9-2.251 2.487-3.595.324-.74.568-1.514.91-2.244.308-.661.862-1.256 1.127-1.901-.515-.19-1.233.07-1.801.014a5.665 5.665 0 0 1-2.061-.63" mask="url(#d)"/>
            <path stroke="#0B2146" stroke-width=".75" d="M153.894 152.388c-.896 1.317-2.12 2.371-3.159 3.579-7.595 8.832-3.41 23.293 5.743 29.25 3.224 2.098 7.075 3.102 10.239 5.291 3.983 2.757 6.507 7.117 8.9 11.333M144.641 140.047c-1.67 5.332 1.889 12.323 6.188 15.887" mask="url(#d)"/>
            <path fill="#F57153" d="M136.684 209.015c-8.57 1.426-16.653 5.638-22.734 11.848-2.286 2.334-4.327 5.001-5.393 8.091-2.025 5.865-.184 12.596 3.662 17.46 3.847 4.865 9.447 8.07 15.26 10.225a58.46 58.46 0 0 0 20.72 3.635c6.42-.049 12.776-1.156 19.099-2.26l27.74-4.846c5.097-.89 10.242-1.794 15.02-3.779 4.779-1.983 9.228-5.168 11.78-9.672 2.708-4.778 3.009-10.805.961-15.901s-6.358-9.193-11.485-11.152c-3.803-1.453-7.93-1.764-11.99-2.061l-32.32-2.363c-11.748-.859-23.756-1.695-35.142 1.33" mask="url(#d)"/>
            <path fill="#0B2146" d="M244.43 256.13c.766.455 1.635.81 2.649 1.033 2.366.522 4.854.537 7.12 1.391.921.348 1.898.98 2.001 1.96.07.66-.314 1.323-.877 1.674-1.376.857-3.966.412-5.489.4-2.072-.015-4.145-.017-6.217-.046-.472-.003-.958-.01-1.389-.203-.415-.186-.738-.527-1.048-.86l-8.522-9.126c-.505-.541-1.049-1.21-.894-1.933.74-3.476 3.983-4.548 6.037-2.02 2.277 2.805 3.702 5.992 6.63 7.73" mask="url(#d)"/>
            <path fill="#0B2146" d="M216.557 218.799c-2.358-3.4-4.872-6.9-7.913-9.67-.426-1.011-1.17-1.896-2.028-2.533-1.556-1.157-3.414-1.634-5.309-1.899a4.667 4.667 0 0 0-1.005-.125c-.455-.049-.91-.093-1.361-.132l-26.02-2.278c-6.1-.534-12.202-1.068-18.312-1.478-2.506-.168-5.017-.316-7.528-.25-1.607.042-4.722 1.083-5.964-.466-.411-.513-.648-1.17-1.055-1.688-1.202-1.532-3.588-1.346-5.034-.085-1.448 1.262-2.146 3.263-2.612 5.208-.93 3.878-1.573 8.768-.631 12.924a13.297 13.297 0 0 0 1.058 3.022c1.991 3.97 5.832 6.647 9.789 7.824 4.989 1.484 10.274.99 15.428.485l9.275-.91c5.434-.533 10.875-1.066 16.259-2.024 4.18-.744 8.362-1.784 12.35-3.32.177.365.36.724.55 1.078 2.514 4.66 6.124 8.506 9.838 12.112a169.76 169.76 0 0 0 23.709 19.216c1.086.728 2.194 1.457 3.147 2.368 1.507-1.625 5.506-6.082 6.989-7.732-5.34-7.695-21.233-26.207-23.62-29.647" mask="url(#d)"/>
            <path fill="#F6F2E3" d="M128.107 167.715c-1.578 1.882-2.501 4.144-3.241 6.41a50.445 50.445 0 0 0-2.127 9.604c-.749 6.22.079 13.314 5.36 17.34 4.177 3.183 10.08 3.622 15.53 3.432 10.468-.364 20.854-2.517 30.454-6.316.078-1.979-.155-3.325-.592-5.265a75.766 75.766 0 0 1-18.903 2.519c-4.62.03-9.312-.377-13.619-1.894-2.783-.981-5.517-2.565-6.73-5.04-.793-1.62-.852-3.46-.637-5.221.693-5.626 3.981-10.676 7.194-15.529-3.634-2.891-9.761-3.528-12.689-.04" mask="url(#d)"/>
        </g>
        <g transform="translate(161 201)">
            <mask id="j" fill="#fff">
                <use xlink:href="#h"/>
            </mask>
            <path fill="url(#i)" d="M2.408.297C.973.297.39 2.478 1.565 3.451c.248.205.542.314.843.314h42.808c1.436 0 2.019-2.182.843-3.155a1.322 1.322 0 0 0-.843-.313H2.408z" mask="url(#j)"/>
        </g>
        <path fill="#FFF" d="M206.126 203.675h-40.423a.622.622 0 0 1-.512-.971l13.785-20.318a.618.618 0 0 1 .511-.271h40.425c.496 0 .79.558.512.971l-13.786 20.317a.615.615 0 0 1-.512.272"/>
        <g transform="translate(211.678 247.51)">
            <mask id="l" fill="#fff">
                <use xlink:href="#k"/>
            </mask>
            <path fill="#0B2146" d="M9.708 13.41c2.015 2.914 6.226 3.876 8.184 6.896 1.393 2.15.026 3.94-2.279 2.859-2.535-1.19-5.11-2.651-7.744-3.518-2.041-.672-3.841-1.534-4.381-3.878-.146-.636-.169-1.294-.235-1.944-.154-1.507-.546-2.978-.938-4.441-.265-.995-.532-1.995-.958-2.931C.88 5.407-.198 4.023.68 2.837 2.605.24 5.542.378 6.808 3.253c1.352 3.069.963 6.781 2.598 9.675.093.166.195.327.302.482" mask="url(#l)"/>
        </g>
        <path fill="#0B2146" d="M210.025 213.712c1.215 4.119 1.984 8.367 2.857 12.595 1.948 9.436 5.485 19.077 8.365 27.754-2.064.563-7.732 1.865-9.796 2.429-.501-1.767-1.552-3.315-2.563-4.846a182.419 182.419 0 0 1-15.259-28.217c-3.122-7.233-10.341-22.308.679-26.22 3.545-1.26 7.785-.233 10.37 2.51 3.203 3.398 3.512 8.285 4.892 12.527.159.487.31.976.455 1.468M153.012 128.474c1.684-.098 3.453-.396 4.984.31 1.281.592 2.92 2.48 1.235 3.616-.394.266-.862.401-1.32.532-1.166.33-2.368.665-3.569.517-2.157-.264-3.658-1.156-5.869-.358a6.897 6.897 0 0 0-4.08 4.086c-.626 1.733-.528 3.633-.742 5.464-.413 3.536-3.303 6.756-6.935 4.271-1.223-.836-1.904-2.316-2.047-3.796-.142-1.479.195-2.965.667-4.374 1.35-4.043 4.096-8.089 7.977-10.041.885-.446 1.839-.799 2.828-.832.866-.027 1.717.19 2.57.345 1.39.252 2.809.342 4.22.264.027 0 .053-.003.08-.004"/>
        <path fill="#F6F2E3" d="M146.03 138.88c-.641-1.136-2.04-1.85-3.253-1.105-1.285.79-1.063 2.647-.024 3.548.983.851 2.738.669 3.173-.702.086-.272.09-.525.06-.767a.873.873 0 0 0 .045-.974"/>
        <path fill="#0B2146" d="M143.332 141.227v.104c0 1.232 1.906 1.234 1.906 0v-.104c0-1.232-1.906-1.234-1.906 0"/>
        <path fill="#F57153" d="M119.166 233.988c3.648 1.593 7.653 1.74 11.323 3.218 4.005 1.614 8.48 1.787 12.754 2.229a261.968 261.968 0 0 0 30.128 1.352c6.932-.088 14.28-.01 21.137-1.035 4.75-.71 6.046-3.699 3.997-7.952-2.355-4.886-5.401-6.57-10.334-8.606-5.114-2.11-10.78-2.58-15.748-4.74-5.806-2.523-11.965-3.588-18.243-2.367-3.67.714-7.17 2.126-10.799 3.025-3.63.899-7.555 1.258-11.036-.11-2.279-.897-4.24-2.485-6.526-3.364-4.522-1.741-11.483-.333-13.203 4.644-2.049 5.928.982 11.274 6.55 13.706"/>
        <path fill="#F57153" d="M191.67 220.769c-1.327-.908-2.845-1.541-4.437-1.54-1.37.002-2.692.468-3.97.964-4.807 1.867-20.12 8.183-17.18 15.839.602 1.566 2.135 2.625 3.75 3.056 1.616.432 3.321.325 4.984.162 3.342-.329 6.621-1.052 9.907-1.718 1.558-.315 3.4-.97 4.992-.926 1.448.039 2.78.743 4.285.65 1.372-.087 2.788-.714 3.466-1.916.442-.784.527-1.717.518-2.617-.04-4.255-2.053-8.432-5.292-11.173a12.582 12.582 0 0 0-1.022-.781"/>
        <path fill="#F0C3CC" d="M135.142 175.328c.631.363 1.262.73 1.87 1.128.236.153 1.075.975 1.317.957.2-.015.425-.442.525-.579 2.022-2.777 3.706-5.925 5.34-8.947 1.03-1.905 1.03-4.09.543-6.154-.22-.93-.528-1.754-.503-2.725.026-.948.209-1.914-.031-2.85-.096-.373-.269-.742-.575-.974-.627-.475-1.517-.208-2.245.09-.313.128-.624.258-.933.39-3.44 1.474-6.757 3.278-9.73 5.565-2.865 2.205-5.181 5-7.096 8.056 1.591.34 3.032 1.162 4.444 1.974l6.91 3.975.164.094"/>
        <g>
            <path stroke="#0B2146" stroke-width=".755" d="M246.354 193.358v-6.547a6.17 6.17 0 0 1 6.166-6.172 6.17 6.17 0 0 1 6.166 6.172v6.547"/>
            <path stroke="#0B2146" stroke-width=".755" d="M242.93 193.358v-6.547a6.17 6.17 0 0 1 6.167-6.172 6.17 6.17 0 0 1 6.166 6.172v6.547"/>
            <mask id="n" fill="#fff">
                <use xlink:href="#m"/>
            </mask>
            <path fill="#F57153" d="M238.673 224.905h19.183v-31.548h-19.183z" mask="url(#n)"/>
            <path fill="#0B2146" d="M257.856 224.905h5.48v-31.548h-5.48z" mask="url(#n)"/>
            <path fill="#FFF" d="M260.596 220.153l-2.74 4.752h5.481zM248.265 214.085l-.41-.48c-2.072-2.432-3.307-4.627-3.307-5.873a3.722 3.722 0 0 1 3.717-3.72 3.722 3.722 0 0 1 3.716 3.72c0 1.246-1.236 3.441-3.307 5.872l-.41.481zm0-10.613a4.258 4.258 0 0 0-4.257 4.26c0 2.34 3.352 6.154 4.107 6.983a.2.2 0 0 0 .298 0c.755-.829 4.107-4.643 4.107-6.983a4.258 4.258 0 0 0-4.255-4.26z" mask="url(#n)"/>
            <path fill="#FFF" d="M251.345 208.357c-.32 1.164-1.412 2.92-2.987 4.787a.122.122 0 0 1-.187 0 25.308 25.308 0 0 1-.53-.648 22.371 22.371 0 0 1-1.242-1.707.12.12 0 0 1 .083-.188 4.242 4.242 0 0 0 2.403-1.204 4.225 4.225 0 0 1 2.322-1.192.122.122 0 0 1 .138.152" mask="url(#n)"/>
            <path stroke="#0B2146" stroke-width=".755" d="M141.545 63.067V56.52a6.168 6.168 0 0 1 6.166-6.172 6.17 6.17 0 0 1 6.166 6.172v6.547" mask="url(#n)"/>
            <path stroke="#0B2146" stroke-width=".755" d="M138.122 63.067V56.52a6.169 6.169 0 0 1 6.167-6.172 6.17 6.17 0 0 1 6.165 6.172v6.547" mask="url(#n)"/>
            <path fill="#F57153" d="M133.864 94.614h19.184V63.068h-19.184z" mask="url(#n)"/>
            <path fill="#0B2146" d="M153.048 94.614h5.48V63.068h-5.48z" mask="url(#n)"/>
            <path fill="#FFF" d="M155.788 89.862l-2.74 4.752h5.48zM143.456 83.794l-.41-.48c-2.072-2.432-3.307-4.627-3.307-5.873a3.722 3.722 0 0 1 3.717-3.72 3.723 3.723 0 0 1 3.717 3.72c0 1.246-1.237 3.441-3.308 5.872l-.41.481zm0-10.613a4.258 4.258 0 0 0-4.257 4.26c0 2.34 3.352 6.153 4.107 6.983a.2.2 0 0 0 .298 0c.756-.83 4.107-4.643 4.107-6.983a4.258 4.258 0 0 0-4.255-4.26z" mask="url(#n)"/>
            <path fill="#FFF" d="M146.536 78.066c-.32 1.164-1.412 2.92-2.987 4.787a.122.122 0 0 1-.187 0 25.307 25.307 0 0 1-.53-.648 22.371 22.371 0 0 1-1.242-1.707.12.12 0 0 1 .083-.188 4.242 4.242 0 0 0 2.403-1.204 4.225 4.225 0 0 1 2.322-1.192.122.122 0 0 1 .138.152" mask="url(#n)"/>
        </g>
        <path fill="#F57153" d="M171.239 50h2.523l.238-3-3 .538z"/>
        <g>
            <path fill="#0B2146" d="M179.264 81.227v13.336H165.93v-3.902h9.425v-9.434h-9.425c0-6.785 2.208-11.288 3.786-15.628 1.578-4.34 1.028-11.451 1.028-15.873h3.705c0 4.422-.55 11.533 1.028 15.873 1.577 4.34 3.786 8.843 3.786 15.628"/>
            <mask id="p" fill="#fff">
                <use xlink:href="#o"/>
            </mask>
            <path fill="#F57153" d="M165.93 90.66h9.426v-9.433h-9.425z" mask="url(#p)"/>
            <path fill="#FFF" d="M279.924 224.128l-12.251-.397c-.243-2.01.524-4.57.976-7.023h10.361c.482 2.618 1.324 5.36.914 7.42" mask="url(#p)"/>
            <path fill="#0B2146" d="M279.924 224.128c-.184.927-.619 1.72-1.455 2.297a6.986 6.986 0 0 1-.757.447c-1.266.645-2.574.97-3.885.966-1.307 0-2.615-.32-3.881-.969a6.497 6.497 0 0 1-.757-.444c-.95-.659-1.386-1.593-1.516-2.694l12.251.397zM277.976 236.672h-8.294c0-.563 1.857-1.018 4.147-1.018 2.291 0 4.147.455 4.147 1.018" mask="url(#p)"/>
            <path stroke="#0B2146" stroke-linecap="round" stroke-linejoin="round" stroke-width=".548" d="M273.829 235.707v-8.255" mask="url(#p)"/>
            <path fill="#FFF" d="M421 74.433l-.387 4.925-11.162-.392-.357-4.533z" mask="url(#p)"/>
            <path fill="#FFD249" d="M420.613 79.358l-1.196 15.176-8.735.013-1.23-15.58z" mask="url(#p)"/>
            <path fill="#FFF" d="M411.985 78.211l-.045 11.071-1.07-11.019a.557.557 0 1 1 1.115-.052" mask="url(#p)"/>
        </g>
    </g>
</svg>
