<svg xmlns="http://www.w3.org/2000/svg" xmlns:xlink="http://www.w3.org/1999/xlink" width="350" height="355" viewBox="0 0 350 355">
    <defs>
        <linearGradient id="a" x1="54.725%" x2="24.094%" y1="51.709%" y2="31.365%">
            <stop offset="0%" stop-color="#F57153"/>
            <stop offset="100%" stop-opacity=".3"/>
        </linearGradient>
        <path id="b" d="M.336 0H25.38v25.087H.336z"/>
    </defs>
    <g fill="none" fill-rule="evenodd">
        <path fill="#F57153" d="M27.962 59.346L25 87.036l316.14 34.138L350 38.348 89.085 10.174z"/>
        <path fill="url(#a)" d="M28 58.333l-3 28.84 135 14.575 15-83.082-85.915-8.492L28 58.334z"/>
        <path fill="#F57153" d="M28 58.333l55.114 5.84 5.886-54z"/>
        <path fill="#FFF" d="M0 320.283l315.902 33.89L341 121.066 25.098 87.174z"/>
        <path fill="#0B2146" d="M196.564 152.973L183.01 279.305c-.181 1.697-1.432 2.707-3.126 2.524l-25.412-2.736c-1.694-.182-2.703-1.435-2.52-3.132l11.187-104.27-22.401-2.412c-1.693-.183-2.89-1.455-2.707-3.153l2.063-19.232c.182-1.697 1.62-2.688 3.314-2.505l50.636 5.451c1.695.184 2.703 1.437 2.521 3.133"/>
        <path fill="#122343" d="M207.953 26.052c-.456 4.246-4.262 7.318-8.5 6.862-4.24-.456-7.307-4.27-6.852-8.515.456-4.246 4.262-7.318 8.501-6.862 4.24.456 7.307 4.269 6.85 8.515"/>
        <path fill="#0B2146" d="M216.55 29.408c-1.022 9.522-9.556 16.41-19.063 15.387-9.506-1.022-16.383-9.57-15.362-19.094 1.022-9.521 9.557-16.411 19.062-15.388 9.506 1.024 16.384 9.572 15.363 19.095"/>
        <path fill="#0B2146" d="M207.953 26.052c-.456 4.246-4.262 7.318-8.5 6.862-4.24-.456-7.307-4.27-6.852-8.515.456-4.246 4.262-7.318 8.501-6.862 4.24.456 7.307 4.269 6.85 8.515"/>
        <path fill="#213E67" d="M216.302 14.165c-.455 4.246-4.26 7.318-8.5 6.862-4.24-.456-7.306-4.27-6.85-8.515.455-4.246 4.261-7.318 8.5-6.862 4.24.456 7.307 4.269 6.85 8.515"/>
        <g transform="translate(197.094 .174)">
            <mask id="c" fill="#fff">
                <use xlink:href="#b"/>
            </mask>
            <path fill="#0B2146" d="M25.307 13.884c-.738 6.887-6.912 11.87-13.787 11.13C4.643 24.274-.33 18.09.408 11.203 1.147 4.316 7.32-.667 14.196.073c6.875.74 11.85 6.923 11.111 13.81" mask="url(#c)"/>
        </g>
        <path fill="#F57153" d="M206.95 240.888c-.405-4.237-2.876-6.524-7.34-6.098l-2.203.212 1.285 13.475 2.202-.211c4.465-.427 6.459-3.142 6.055-7.378m4.081-.391c.549 5.736-2.747 10.654-9.796 11.328l-5.787.555c-.263.024-.456-.134-.482-.4l-1.88-19.713c-.024-.265.134-.458.398-.483l5.787-.555c7.05-.673 11.215 3.53 11.76 9.268M217.644 241.795l6.873-.658c-.478-1.914-1.96-2.841-3.664-2.678-1.761.168-3.042 1.36-3.209 3.336m9.524 1.642l-9.225.882c.59 1.813 2.16 2.734 4.391 2.518 1.145-.109 2.027-.49 2.96-1.291.249-.202.424-.218.649-.032l1.413 1.142c.225.185.244.393.031.65a7.529 7.529 0 0 1-5.135 2.717c-4.495.43-7.893-2.6-8.29-6.748-.396-4.15 2.374-7.738 6.546-8.137 4.17-.4 7.157 2.64 7.522 6.465.109 1.146.02 1.75-.862 1.834M230.23 227.379l2.995-.288c.264-.025.457.135.484.4l1.962 20.595c.026.266-.134.458-.398.484l-2.996.287c-.265.025-.458-.133-.483-.4l-1.963-20.594c-.026-.265.133-.46.399-.484M238.509 233.714l2.996-.286c.264-.027.457.132.483.397l1.29 13.533c.026.266-.134.459-.4.485l-2.996.286c-.263.026-.456-.133-.481-.398l-1.29-13.535c-.025-.264.133-.457.398-.482m-1.083-4.826a2.15 2.15 0 0 1 1.94-2.353c1.175-.112 2.207.769 2.32 1.946.112 1.177-.735 2.238-1.91 2.349a2.146 2.146 0 0 1-2.35-1.942M256.455 231.998l3.025-.29c.323-.03.486.13.4.467l-4.083 14.075a.54.54 0 0 1-.495.405l-2.995.286a.54.54 0 0 1-.563-.303l-6.697-13.045c-.149-.314-.018-.503.305-.534l3.025-.29a.537.537 0 0 1 .563.303l4.432 9.195 2.586-9.867a.54.54 0 0 1 .497-.402M265.457 237.222l6.874-.658c-.48-1.914-1.96-2.84-3.664-2.679-1.763.17-3.042 1.36-3.21 3.337m9.524 1.642l-9.225.883c.59 1.813 2.158 2.732 4.391 2.518 1.145-.11 2.028-.491 2.96-1.29.248-.203.423-.219.649-.034l1.413 1.143c.224.184.244.39.032.65a7.535 7.535 0 0 1-5.137 2.717c-4.493.428-7.893-2.6-8.289-6.748-.395-4.15 2.375-7.739 6.546-8.137 4.17-.4 7.157 2.64 7.521 6.464.11 1.146.02 1.75-.861 1.834M287.969 229.932l-.673 2.262c-.087.335-.316.416-.62.357-.3-.061-.666-.145-1.222-.09-1.822.173-2.869 1.637-2.699 3.404l.729 7.65c.024.265-.135.458-.399.483l-2.996.286c-.264.025-.458-.133-.483-.4l-1.289-13.534c-.025-.264.133-.457.399-.482l2.848-.272c.264-.025.429.136.482.398l.27 1.578c.632-1.456 1.714-2.54 3.447-2.706.823-.078 1.557.18 2.002.492.254.154.272.36.204.574M304.375 227.919l-5.782 19.88a.54.54 0 0 1-.494.404l-2.938.281c-.323.032-.516-.128-.4-.467l1.602-5.259-6.879-13.414c-.149-.314-.02-.504.304-.534l3.025-.29a.538.538 0 0 1 .562.302l4.434 9.196 2.586-9.867a.54.54 0 0 1 .496-.403l3.084-.296c.323-.03.487.131.4.467M231.693 199.366l.256 2.678c.025.264-.135.457-.398.483l-6.963.665.443 4.65 6.579-.63c.265-.026.46.134.484.398l.255 2.678c.025.264-.134.459-.4.484l-6.58.63.8 8.384c.026.266-.133.458-.396.484l-3.145.3c-.265.025-.456-.134-.481-.4l-1.88-19.71c-.024-.265.134-.46.398-.485l10.545-1.009c.265-.025.458.136.483.4M245.164 204.816l-.674 2.262c-.087.335-.316.417-.618.357-.301-.061-.666-.144-1.224-.09-1.822.173-2.867 1.639-2.7 3.404l.731 7.65c.025.266-.134.458-.399.483l-2.996.286c-.264.026-.457-.133-.483-.399l-1.289-13.535c-.026-.264.133-.457.398-.482l2.849-.273c.264-.024.429.137.483.398l.268 1.58c.634-1.457 1.715-2.54 3.447-2.706.823-.079 1.56.178 2.004.492.252.153.271.359.203.573M250.611 209.431l6.875-.656c-.48-1.914-1.96-2.84-3.664-2.677-1.762.168-3.043 1.359-3.21 3.333m9.524 1.644l-9.225.883c.59 1.813 2.16 2.732 4.391 2.519 1.145-.11 2.027-.492 2.961-1.292.246-.203.422-.22.648-.033l1.413 1.141c.224.187.244.392.032.65a7.532 7.532 0 0 1-5.136 2.718c-4.493.43-7.894-2.6-8.29-6.748-.396-4.148 2.374-7.738 6.546-8.137 4.17-.4 7.157 2.642 7.522 6.466.11 1.147.018 1.75-.862 1.833M267.206 207.845l6.873-.657c-.478-1.913-1.959-2.841-3.663-2.677-1.763.168-3.042 1.36-3.21 3.334m9.524 1.644l-9.224.881c.589 1.814 2.159 2.734 4.39 2.52 1.145-.11 2.028-.491 2.96-1.294.247-.201.424-.218.65-.031l1.411 1.141c.226.188.245.393.032.65a7.52 7.52 0 0 1-5.135 2.718c-4.493.43-7.895-2.6-8.29-6.748-.396-4.148 2.375-7.739 6.546-8.137 4.17-.398 7.157 2.64 7.522 6.465.109 1.148.018 1.751-.862 1.835"/>
        <path fill="#F57153" d="M227.042 272.612c-35.972 47.618-124.689 42.818-147.82-15.32-13.092-32.905 5.708-67.613 28.235-91.195 21.41-22.415 51.401-39.157 83.149-37.372 15.359.864 30.477 6.424 42.148 16.578 13.002 11.31 19.96 26.79 22.868 43.556.267 1.541 2.61.888 2.344-.647-5.188-29.913-25.134-53.986-55.456-60.355-32.435-6.813-65.366 7.62-89.19 29.144-24.68 22.299-46.948 56.68-39.355 91.382 6.686 30.554 35.442 52.842 65.362 57.765 32.461 5.34 69.492-5.406 89.813-32.307.945-1.249-1.165-2.465-2.098-1.229"/>
        <path fill="#F57153" d="M218.415 278.674c4.248-3.26 8.495-6.523 12.74-9.789l-1.829-1.051c.044 5.546.09 11.092.132 16.638.014 1.566 2.444 1.57 2.43 0-.043-5.546-.086-11.092-.131-16.638-.007-.831-1.066-1.638-1.829-1.051-4.245 3.265-8.491 6.529-12.74 9.789-1.225.94-.016 3.056 1.227 2.102"/>
        <path fill="#FFF" fill-opacity=".12" d="M221.153 10.502c-.539 5.02-5.038 8.65-10.048 8.111-5.012-.539-8.637-5.045-8.099-10.065.539-5.02 5.037-8.65 10.049-8.11 5.01.539 8.635 5.045 8.098 10.064"/>
    </g>
</svg>
