<svg xmlns="http://www.w3.org/2000/svg" width="350" height="56" viewBox="0 0 350 56">
    <g fill="none" fill-rule="evenodd">
        <path fill="#FFF" fill-rule="nonzero" d="M328.1 30.935c-.487 0-.987-.118-1.45-.341-.825-.406-1.45-1.14-1.762-2.056l-2.675-7.805a3.802 3.802 0 0 1 .112-2.776c.388-.877 1.075-1.545 1.925-1.872l17.463-6.745a3.265 3.265 0 0 1 3.287.564l3.6 3.025c1.025.85 1.488 2.226 1.225 3.575l-.925 4.78c-.237 1.243-1.05 2.239-2.175 2.684l-17.462 6.744a3.274 3.274 0 0 1-1.163.223z"/>
        <path fill="#F57153" fill-rule="nonzero" d="M348.1 13.61l-3.6-3.025a2.482 2.482 0 0 0-2.512-.433l-17.463 6.744c-1.35.524-2.05 2.109-1.562 3.55l2.675 7.804c.487 1.44 1.987 2.174 3.337 1.65l17.462-6.744c.85-.327 1.475-1.1 1.663-2.043l.925-4.78c.213-1.021-.15-2.082-.925-2.723zm.137 2.553l-.925 4.78c-.125.655-.55 1.178-1.137 1.401l-17.462 6.744a1.68 1.68 0 0 1-1.375-.065 1.799 1.799 0 0 1-.925-1.074l-2.675-7.805a2.01 2.01 0 0 1 .062-1.454c.2-.458.562-.811 1.012-.982l17.45-6.744a1.7 1.7 0 0 1 1.725.301l3.6 3.025c.538.446.788 1.166.65 1.873z"/>
        <path d="M324.538 16.896L342 10.152c.85-.327 1.8-.17 2.512.433l3.6 3.025a2.852 2.852 0 0 1 .938 2.723l-.925 4.78c-.188.943-.813 1.716-1.663 2.043L329 29.9c-1.35.524-2.85-.223-3.337-1.65l-2.675-7.805c-.5-1.44.187-3.025 1.55-3.549z"/>
        <path d="M324.538 16.896L342 10.152c.85-.327 1.8-.17 2.512.433l3.6 3.025a2.852 2.852 0 0 1 .938 2.723l-.925 4.78c-.188.943-.813 1.716-1.663 2.043L329 29.9c-1.35.524-2.85-.223-3.337-1.65l-2.675-7.805c-.5-1.44.187-3.025 1.55-3.549z"/>
        <path fill="#F57153" fill-rule="nonzero" d="M331.95 23.156c.475 1.375-.075 2.436-1.725 3.064l-2.138.825c-.087.04-.162-.013-.2-.105l-2.387-6.966c-.038-.092 0-.184.1-.21l2.137-.825c1.438-.55 2.313.105 2.613.996.25.733.113 1.466-.425 1.95.913-.117 1.712.38 2.025 1.271zm-3.987-3.3l-1.3.498.724 2.108 1.3-.498c.738-.288 1.063-.877.813-1.61-.237-.668-.813-.773-1.537-.498zM331 23.457c-.262-.772-.9-1.087-1.975-.668l-1.363.524.875 2.567 1.363-.524c1-.393 1.412-.995 1.1-1.899zM336.837 22.842l.2.576c.038.092 0 .183-.1.21L333.5 24.95c-.088.04-.163 0-.2-.105l-2.388-6.966c-.037-.092 0-.184.088-.21l3.425-1.323c.087-.039.162.014.2.105l.2.576a.154.154 0 0 1-.1.21l-2.663 1.034.725 2.122 2.5-.97c.088-.038.163.014.2.106l.2.576c.038.091 0 .183-.087.21l-2.5.968.862 2.502 2.675-1.035c.088-.04.163 0 .2.092zM339.613 14.54l.2.575c.037.092 0 .184-.088.21l-1.538.59 2.138 6.233c.038.091 0 .183-.087.21l-.613.235c-.087.04-.175 0-.2-.105l-2.138-6.233-1.537.589c-.088.04-.162-.013-.2-.105l-.2-.576c-.037-.092 0-.183.088-.21l3.987-1.532c.075-.026.15.014.188.118zM347.188 19.66l-.625.248c-.075.027-.15.027-.213-.065l-1.025-1.323-2.937 1.14.012 1.715c0 .105-.05.157-.125.196l-.625.236c-.112.04-.187-.013-.175-.13l.012-7.897c0-.092.05-.17.138-.197l.613-.235a.21.21 0 0 1 .225.052l4.787 6.05c.075.079.05.17-.062.21zm-2.388-1.82l-2.45-3.157.037 4.086 2.413-.93z"/>
        <path fill="#757575" fill-rule="nonzero" d="M164 8h1v36h-1z"/>
        <g fill="#000" fill-opacity=".65" fill-rule="nonzero">
            <path d="M206.311 17.467l-5.983 19.682a.512.512 0 0 1-.502.353h-2.245c-.226 0-.414-.117-.477-.353l-4.93-15.4-4.967 15.4a.512.512 0 0 1-.502.353h-2.22c-.226 0-.476-.117-.527-.353l-5.908-19.682c-.113-.288.025-.498.339-.498h2.245c.226 0 .39.092.477.354l4.516 16.08 5.042-16.08a.379.379 0 0 1 .226-.288.528.528 0 0 1 .226-.053h2.082c.113 0 .188.026.251.053.088.052.138.144.188.288l5.018 16.08 4.603-16.08c.05-.262.251-.354.477-.354h2.245c.301 0 .414.21.326.498zM219.759 23.569v13.488c0 .262-.164.445-.414.445h-1.807c-.25 0-.389-.17-.414-.445l-.138-1.637c-1.003 1.375-2.47 2.292-4.44 2.292-3.851 0-6.623-3.287-6.623-7.36 0-4.19 2.772-7.503 6.623-7.503 1.97 0 3.462.969 4.465 2.41l.113-1.677c.025-.262.163-.445.414-.445h1.807c.25 0 .414.17.414.432zm-2.823 6.757c0-2.58-1.693-4.688-4.102-4.688-2.358 0-4.102 1.99-4.102 4.688 0 2.606 1.744 4.57 4.102 4.57 2.409 0 4.102-1.99 4.102-4.57zM231.374 23.923l-.64 1.61c-.113.288-.276.328-.552.262a3.173 3.173 0 0 0-1.103-.17c-1.719 0-2.91 1.349-2.91 3.143v8.302c0 .262-.164.445-.415.445h-2.082c-.25 0-.414-.17-.414-.445V23.582c0-.262.163-.445.414-.445h1.944c.251 0 .39.17.414.445l.113 1.414c.753-1.296 1.857-2.173 3.412-2.173.715 0 1.33.235 1.719.563.188.157.213.3.1.537zM245.712 29.815c0 1.087-.138 1.611-.89 1.611h-9.396c.364 2.226 1.97 3.693 4.403 3.693 1.38 0 2.383-.445 3.299-1.179.226-.17.389-.235.577-.026l.89.904c.226.236.226.445 0 .68a6.814 6.814 0 0 1-5.042 2.2c-4.152 0-7.012-3.312-7.012-7.45s2.822-7.425 6.736-7.425c3.939.013 6.435 3.3 6.435 6.992zm-10.311-.523h7.74c-.227-2.292-1.744-3.785-3.827-3.785-2.094 0-3.637 1.493-3.913 3.785zM260.376 28.702v8.355c0 .262-.164.445-.414.445h-2.083c-.25 0-.414-.17-.414-.445v-7.922c0-2.462-1.191-3.523-2.797-3.523-2.358 0-3.55 2.462-3.55 3.077v8.355c0 .262-.163.445-.414.445h-2.082c-.25 0-.414-.17-.414-.445V16.537c0-.262.163-.445.414-.445h2.082c.251 0 .414.17.414.445v8.97c.94-1.519 2.409-2.697 4.44-2.697 2.785 0 4.818 2.055 4.818 5.892zM263.449 30.326c0-4.23 3.048-7.503 6.962-7.503 3.876 0 6.961 3.287 6.961 7.503 0 4.164-3.073 7.478-6.961 7.478-3.914 0-6.962-3.314-6.962-7.478zm11.114 0c0-2.724-1.832-4.688-4.152-4.688-2.321 0-4.152 1.964-4.152 4.688 0 2.672 1.831 4.636 4.152 4.636 2.32 0 4.152-1.977 4.152-4.636zM292.312 23.569v13.488c0 .262-.163.445-.414.445h-1.97c-.25 0-.388-.17-.413-.445l-.113-1.702c-.94 1.44-2.333 2.527-4.19 2.527-3.073 0-5.067-2.108-5.067-5.958v-8.355c0-.262.163-.445.414-.445h2.082c.25 0 .414.17.414.445v7.923c0 2.488 1.242 3.575 2.885 3.575 2.27 0 3.462-2.174 3.462-3.143v-8.355c0-.262.163-.445.414-.445h2.082a.423.423 0 0 1 .414.445zM305.42 33.574c0 2.606-2.52 4.23-4.93 4.23-2.295 0-4.151-1.205-5.13-2.41-.163-.21-.138-.406 0-.59l.866-1.204c.163-.262.339-.21.577 0 .916.733 2.22 1.558 3.6 1.558 1.217 0 2.195-.497 2.195-1.637 0-2.815-6.987-1.728-6.987-6.547 0-2.554 2.108-4.164 4.541-4.164 1.606 0 3.387.759 4.516 2.173.163.21.113.406-.025.616l-.778 1.087c-.163.235-.364.144-.615-.026-1.053-.878-1.806-1.323-2.935-1.323-.916 0-1.906.498-1.906 1.61 0 2.79 7.012 1.441 7.012 6.627zM320.975 29.815c0 1.087-.138 1.611-.89 1.611h-9.396c.364 2.226 1.97 3.693 4.403 3.693 1.38 0 2.383-.445 3.299-1.179.226-.17.389-.235.577-.026l.89.904c.226.236.226.445 0 .68a6.814 6.814 0 0 1-5.042 2.2c-4.152 0-7.012-3.312-7.012-7.45s2.822-7.425 6.736-7.425c3.939.013 6.435 3.3 6.435 6.992zm-10.311-.523h7.74c-.226-2.292-1.744-3.785-3.826-3.785-2.095 0-3.638 1.493-3.914 3.785z"/>
        </g>
        <g fill="#F57153">
            <path d="M20.853.038C9.333.038 0 9.459 0 21.088c0 11.566 16.417 30.41 20.115 34.496a.972.972 0 0 0 1.462 0c3.699-4.1 20.116-22.943 20.116-34.496 0-11.629-9.333-21.05-20.84-21.05zm0 52.443L18.84 50.11C8.696 38.09 2.636 27.243 2.636 21.088c0-10.14 8.171-18.389 18.217-18.389 10.045 0 18.204 8.249 18.204 18.39 0 6.154-6.06 17.001-16.205 29.008l-2 2.384z"/>
            <path d="M35.945 24.178c-1.574 5.752-6.921 14.43-14.63 23.649a.6.6 0 0 1-.925 0c-.9-1.072-1.774-2.144-2.598-3.204a113.104 113.104 0 0 1-6.085-8.437c-.237-.366-.025-.87.412-.934 4.31-.618 8.459-2.61 11.77-5.953 3.21-3.241 7.209-5.209 11.37-5.89a.62.62 0 0 1 .686.77z"/>
            <g fill-rule="nonzero">
                <path d="M59.997 22.463v9.119c0 1.173.6 1.74 1.561 1.74.275 0 .925 0 1.4-.075.437-.076.724.164.724.567v3.154c0 .933-1.999 1.173-3.473 1.173-2.874 0-5.472-1.45-5.472-5.613V22.476H52.1c-.362 0-.6-.24-.6-.606v-3.153c0-.366.238-.605.6-.605h2.624V13.47c0-.365.238-.605.6-.605h4.073c.362 0 .6.24.6.605v4.642h3.073c.362 0 .6.24.6.605v3.153c0 .366-.238.606-.6.606h-3.073v-.013zM68.23 18.1h4.073c.363 0 .6.239.6.605V37.27c0 .366-.237.606-.6.606H68.23c-.362 0-.6-.24-.6-.606V18.705c0-.354.238-.606.6-.606zM97.204 28.025c0 5.65-3.998 10.128-9.508 10.128-2.436 0-4.273-.971-5.56-2.384v9.157c0 .366-.237.606-.6.606h-4.073c-.362 0-.6-.24-.6-.606V18.705c0-.366.238-.606.6-.606h3.474c.362 0 .562.24.6.606l.2 2.018c1.361-1.817 3.323-3.028 5.959-3.028 5.522 0 9.508 4.566 9.508 10.33zm-5.073-.038c0-3.19-2.124-5.448-5.035-5.448-2.96 0-4.997 2.46-4.997 5.448 0 3.027 2.036 5.323 4.997 5.323 2.924 0 5.035-2.258 5.035-5.323zM120.193 28.025c0 5.65-3.998 10.128-9.508 10.128-2.436 0-4.273-.971-5.56-2.384v9.157c0 .366-.237.606-.6.606h-4.073c-.362 0-.6-.24-.6-.606V18.705c0-.366.238-.606.6-.606h3.474c.362 0 .562.24.6.606l.2 2.018c1.361-1.817 3.323-3.028 5.96-3.028 5.509 0 9.507 4.566 9.507 10.33zm-5.072-.038c0-3.19-2.124-5.448-5.036-5.448-2.96 0-4.997 2.46-4.997 5.448 0 3.027 2.036 5.323 4.997 5.323 2.912 0 5.036-2.258 5.036-5.323zM123.43 8.425h4.072c.363 0 .6.24.6.606v28.24c0 .365-.237.605-.6.605h-4.073c-.362 0-.6-.24-.6-.606V9.03c0-.365.238-.605.6-.605zM148.53 29.841h-12.557c.562 2.548 2.561 3.999 5.598 3.999 1.561 0 2.798-.404 4.16-1.375.362-.24.6-.24.875.038l1.761 1.74c.275.278.275.568-.037.883a10.166 10.166 0 0 1-7.272 3.027c-6.11 0-10.307-4.566-10.307-10.254s4.198-10.204 9.87-10.204c5.672 0 9.308 4.516 9.308 9.763 0 1.576-.2 2.383-1.4 2.383zm-12.632-3.468h9.358c-.4-2.661-2.274-4.112-4.598-4.112-2.398 0-4.273 1.45-4.76 4.112zM66.943 10.998c0-1.866 1.437-3.367 3.336-3.367 1.9 0 3.374 1.488 3.374 3.367 0 1.88-1.475 3.406-3.374 3.406s-3.336-1.527-3.336-3.406z"/>
            </g>
        </g>
    </g>
</svg>
