<?xml version="1.0" encoding="utf-8"?>
<!-- Generator: Adobe Illustrator 23.0.3, SVG Export Plug-In . SVG Version: 6.00 Build 0)  -->
<svg version="1.1" id="Layer_1" xmlns="http://www.w3.org/2000/svg" xmlns:xlink="http://www.w3.org/1999/xlink" x="0px" y="0px"
	 viewBox="0 0 2490.6 447" style="enable-background:new 0 0 2490.6 447;" xml:space="preserve">
<style type="text/css">
	.st0{fill:#FFFFFF;}
	.st1{fill-rule:evenodd;clip-rule:evenodd;fill:#FFFFFF;}
</style>
<g>
	<rect x="1304.7" y="66.8" class="st0" width="12" height="294.3"/>
</g>
<g>
	<g>
		<path class="st1" d="M166.9,0.3C74.7,0.3,0,75,0,167.2c0,91.7,131.4,241.1,161,273.5c3.1,3.5,8.6,3.5,11.7,0
			c29.6-32.5,161-181.9,161-273.5C333.7,75,259,0.3,166.9,0.3z M166.9,416.1l-16.1-18.8C69.6,302,21.1,216,21.1,167.2
			c0-80.4,65.4-145.8,145.8-145.8s145.7,65.4,145.7,145.8c0,48.8-48.5,134.8-129.7,230L166.9,416.1z"/>
		<path class="st1" d="M287.7,191.7c-12.6,45.6-55.4,114.4-117.1,187.5c-1.9,2.3-5.4,2.3-7.4,0c-7.2-8.5-14.2-17-20.8-25.4
			c-18.5-23.2-34.8-45.7-48.7-66.9c-1.9-2.9-0.2-6.9,3.3-7.4c34.5-4.9,67.7-20.7,94.2-47.2c25.7-25.7,57.7-41.3,91-46.7
			C285.7,185.1,288.6,188.3,287.7,191.7z"/>
	</g>
	<g>
		<path class="st0" d="M480.2,178.1v72.3c0,9.3,4.8,13.8,12.5,13.8c2.2,0,7.4,0,11.2-0.6c3.5-0.6,5.8,1.3,5.8,4.5v25
			c0,7.4-16,9.3-27.8,9.3c-23,0-43.8-11.5-43.8-44.5v-79.7H417c-2.9,0-4.8-1.9-4.8-4.8v-25c0-2.9,1.9-4.8,4.8-4.8h21v-36.8
			c0-2.9,1.9-4.8,4.8-4.8h32.6c2.9,0,4.8,1.9,4.8,4.8v36.8h24.6c2.9,0,4.8,1.9,4.8,4.8v25c0,2.9-1.9,4.8-4.8,4.8L480.2,178.1
			L480.2,178.1z"/>
		<path class="st0" d="M546.1,143.5h32.6c2.9,0,4.8,1.9,4.8,4.8v147.2c0,2.9-1.9,4.8-4.8,4.8h-32.6c-2.9,0-4.8-1.9-4.8-4.8V148.3
			C541.3,145.5,543.2,143.5,546.1,143.5z"/>
		<path class="st0" d="M778,222.2c0,44.8-32,80.3-76.1,80.3c-19.5,0-34.2-7.7-44.5-18.9v72.6c0,2.9-1.9,4.8-4.8,4.8H620
			c-2.9,0-4.8-1.9-4.8-4.8V148.3c0-2.9,1.9-4.8,4.8-4.8h27.8c2.9,0,4.5,1.9,4.8,4.8l1.6,16c10.9-14.4,26.6-24,47.7-24
			C746.1,140.3,778,176.5,778,222.2z M737.4,221.9c0-25.3-17-43.2-40.3-43.2c-23.7,0-40,19.5-40,43.2c0,24,16.3,42.2,40,42.2
			C720.5,264.1,737.4,246.2,737.4,221.9z"/>
		<path class="st0" d="M962,222.2c0,44.8-32,80.3-76.1,80.3c-19.5,0-34.2-7.7-44.5-18.9v72.6c0,2.9-1.9,4.8-4.8,4.8H804
			c-2.9,0-4.8-1.9-4.8-4.8V148.3c0-2.9,1.9-4.8,4.8-4.8h27.8c2.9,0,4.5,1.9,4.8,4.8l1.6,16c10.9-14.4,26.6-24,47.7-24
			C930,140.3,962,176.5,962,222.2z M921.4,221.9c0-25.3-17-43.2-40.3-43.2c-23.7,0-40,19.5-40,43.2c0,24,16.3,42.2,40,42.2
			C904.4,264.1,921.4,246.2,921.4,221.9z"/>
		<path class="st0" d="M987.9,66.8h32.6c2.9,0,4.8,1.9,4.8,4.8v223.9c0,2.9-1.9,4.8-4.8,4.8h-32.6c-2.9,0-4.8-1.9-4.8-4.8V71.6
			C983.1,68.7,985,66.8,987.9,66.8z"/>
		<path class="st0" d="M1188.8,236.6h-100.5c4.5,20.2,20.5,31.7,44.8,31.7c12.5,0,22.4-3.2,33.3-10.9c2.9-1.9,4.8-1.9,7,0.3
			l14.1,13.8c2.2,2.2,2.2,4.5-0.3,7c-15,15-35.5,24-58.2,24c-48.9,0-82.5-36.2-82.5-81.3s33.6-80.9,79-80.9s74.5,35.8,74.5,77.4
			C1200,230.2,1198.4,236.6,1188.8,236.6z M1087.7,209.1h74.9c-3.2-21.1-18.2-32.6-36.8-32.6C1106.6,176.5,1091.6,188,1087.7,209.1z
			"/>
		<path class="st0" d="M535.8,87.2c0-14.8,11.5-26.7,26.7-26.7s27,11.8,27,26.7s-11.8,27-27,27S535.8,102.1,535.8,87.2z"/>
	</g>
</g>
<g>
	<path class="st0" d="M1536.1,254.6c0,29-18.3,44.9-56.1,44.9h-49.7c-2,0-3.3-1.3-3.3-3.3V148.1c0-2,1.3-3.3,3.3-3.3h49.9
		c31.8,0,45.3,18.6,45.3,38c0,15.9-7.7,28.5-21,33.4C1522.8,220.6,1536.1,235.2,1536.1,254.6z M1477.9,166.5h-27v40.9h27
		c15,0,24.8-7.5,24.8-22.1C1502.7,172,1492.8,166.5,1477.9,166.5z M1511.8,252.4c0-15.5-10.4-24.8-31.8-24.8h-29v50.2h29
		C1500.3,277.8,1511.8,270.3,1511.8,252.4z"/>
	<path class="st0" d="M1655.2,194.5v101.7c0,2-1.3,3.3-3.3,3.3h-15.7c-2,0-3.1-1.3-3.3-3.3l-0.9-12.8c-7.5,10.8-18.6,19-33.4,19
		c-24.5,0-40.4-15.9-40.4-44.9v-63c0-2,1.3-3.3,3.3-3.3h16.6c2,0,3.3,1.3,3.3,3.3v59.7c0,18.8,9.9,27,23,27
		c18.1,0,27.6-16.4,27.6-23.6v-63c0-2,1.3-3.3,3.3-3.3h16.6C1653.9,191.2,1655.2,192.5,1655.2,194.5z"/>
	<path class="st0" d="M1759.7,269.9c0,19.7-20.1,31.8-39.3,31.8c-18.3,0-33.1-9.1-40.9-18.1c-1.3-1.5-1.1-3.1,0-4.4l6.9-9.1
		c1.3-2,2.7-1.5,4.6,0c7.3,5.5,17.7,11.7,28.7,11.7c9.7,0,17.5-3.8,17.5-12.4c0-21.2-55.7-13-55.7-49.3c0-19.2,16.8-31.4,36.2-31.4
		c12.8,0,27,5.7,36,16.4c1.3,1.5,0.9,3.1-0.2,4.6l-6.2,8.2c-1.3,1.8-2.9,1.1-4.9-0.2c-8.4-6.6-14.4-9.9-23.4-9.9
		c-7.3,0-15.2,3.8-15.2,12.2C1703.8,240.9,1759.7,230.8,1759.7,269.9z"/>
	<path class="st0" d="M1783.1,154.5c0-7.5,5.7-13.5,13.5-13.5c7.5,0,13.3,6,13.3,13.5s-5.7,13.5-13.3,13.5
		C1788.9,168,1783.1,162,1783.1,154.5z M1788.2,191.2h16.6c2,0,3.3,1.3,3.3,3.3v101.7c0,2-1.3,3.3-3.3,3.3h-16.6
		c-2,0-3.3-1.3-3.3-3.3V194.5C1784.9,192.5,1786.2,191.2,1788.2,191.2z"/>
	<path class="st0" d="M1930.1,233.2v63c0,2-1.3,3.3-3.3,3.3h-16.6c-2,0-3.3-1.3-3.3-3.3v-59.7c0-18.6-9.5-26.5-22.3-26.5
		c-18.8,0-28.3,18.6-28.3,23.2v63c0,2-1.3,3.3-3.3,3.3h-16.6c-2,0-3.3-1.3-3.3-3.3V194.5c0-2,1.3-3.3,3.3-3.3h15.7
		c2,0,3.1,1.3,3.3,3.3l0.9,14.6c7.5-11.5,19.2-20.3,35.4-20.3C1914,188.8,1930.1,204.2,1930.1,233.2z"/>
	<path class="st0" d="M2059.6,241.6c0,8.2-1.1,12.2-7.1,12.2h-74.9c2.9,16.8,15.7,27.8,35.1,27.8c11,0,19-3.3,26.3-8.8
		c1.8-1.3,3.1-1.8,4.6-0.2l7.1,6.9c1.8,1.8,1.8,3.3,0,5.1c-10.2,10.4-24.3,16.6-40.2,16.6c-33.1,0-55.9-25-55.9-56.1
		c0-31.2,22.5-55.9,53.7-55.9C2039.7,189,2059.6,213.7,2059.6,241.6z M1977.4,237.6h61.7c-1.8-17.2-13.9-28.5-30.5-28.5
		S1979.6,220.4,1977.4,237.6z"/>
	<path class="st0" d="M2158.4,269.9c0,19.7-20.1,31.8-39.3,31.8c-18.3,0-33.1-9.1-40.9-18.1c-1.3-1.5-1.1-3.1,0-4.4l6.9-9.1
		c1.3-2,2.7-1.5,4.6,0c7.3,5.5,17.7,11.7,28.7,11.7c9.7,0,17.5-3.8,17.5-12.4c0-21.2-55.7-13-55.7-49.3c0-19.2,16.8-31.4,36.2-31.4
		c12.8,0,27,5.7,36,16.4c1.3,1.5,0.9,3.1-0.2,4.6l-6.2,8.2c-1.3,1.8-2.9,1.1-4.9-0.2c-8.4-6.6-14.4-9.9-23.4-9.9
		c-7.3,0-15.2,3.8-15.2,12.2C2102.5,240.9,2158.4,230.8,2158.4,269.9z"/>
	<path class="st0" d="M2258.5,269.9c0,19.7-20.1,31.8-39.3,31.8c-18.3,0-33.1-9.1-40.9-18.1c-1.3-1.5-1.1-3.1,0-4.4l6.9-9.1
		c1.3-2,2.7-1.5,4.6,0c7.3,5.5,17.7,11.7,28.7,11.7c9.7,0,17.5-3.8,17.5-12.4c0-21.2-55.7-13-55.7-49.3c0-19.2,16.8-31.4,36.2-31.4
		c12.8,0,27,5.7,36,16.4c1.3,1.5,0.9,3.1-0.2,4.6l-6.2,8.2c-1.3,1.8-2.9,1.1-4.9-0.2c-8.4-6.6-14.4-9.9-23.4-9.9
		c-7.3,0-15.2,3.8-15.2,12.2C2202.6,240.9,2258.5,230.8,2258.5,269.9z"/>
</g>
</svg>
