<svg xmlns="http://www.w3.org/2000/svg" width="270" height="48" viewBox="0 0 270 48">
    <g fill="none" fill-rule="evenodd">
        <path fill="#FFF" fill-rule="nonzero" d="M250.4 26.54c-.422 0-.854-.097-1.254-.28a2.952 2.952 0 0 1-1.524-1.698l-2.314-6.443a3.007 3.007 0 0 1 .097-2.292 2.958 2.958 0 0 1 1.665-1.546l15.103-5.567a2.93 2.93 0 0 1 2.843.464l3.114 2.498a2.984 2.984 0 0 1 1.06 2.951l-.8 3.946a2.973 2.973 0 0 1-1.882 2.216l-15.103 5.568a2.95 2.95 0 0 1-1.005.184z"/>
        <path fill="#F57153" fill-rule="nonzero" d="M267.697 12.238l-3.113-2.497a2.227 2.227 0 0 0-2.173-.357l-15.103 5.567c-1.167.433-1.773 1.74-1.351 2.93l2.313 6.443a2.237 2.237 0 0 0 2.887 1.362l15.102-5.567a2.282 2.282 0 0 0 1.438-1.687l.8-3.946a2.258 2.258 0 0 0-.8-2.248zm.12 2.108l-.8 3.946c-.109.54-.476.973-.985 1.157l-15.102 5.567c-.39.14-.811.13-1.19-.054a1.508 1.508 0 0 1-.8-.886l-2.313-6.444a1.59 1.59 0 0 1 .054-1.2c.173-.378.487-.67.876-.81l15.092-5.568a1.526 1.526 0 0 1 1.492.249l3.113 2.497c.465.368.681.962.562 1.546z"/>
        <path d="M247.319 14.951l15.103-5.567a2.227 2.227 0 0 1 2.173.357l3.113 2.497c.67.54.984 1.405.81 2.248l-.8 3.946a2.282 2.282 0 0 1-1.437 1.687l-15.103 5.567c-1.167.433-2.464-.183-2.886-1.362l-2.314-6.443c-.432-1.19.163-2.497 1.34-2.93z"/>
        <path d="M247.319 14.951l15.103-5.567a2.227 2.227 0 0 1 2.173.357l3.113 2.497c.67.54.984 1.405.81 2.248l-.8 3.946a2.282 2.282 0 0 1-1.437 1.687l-15.103 5.567c-1.167.433-2.464-.183-2.886-1.362l-2.314-6.443c-.432-1.19.163-2.497 1.34-2.93z"/>
        <path fill="#F57153" fill-rule="nonzero" d="M253.73 20.119c.41 1.135-.065 2.01-1.492 2.53l-1.849.68c-.075.033-.14-.01-.173-.086l-2.065-5.751c-.032-.076 0-.151.087-.173l1.848-.681c1.244-.454 2 .086 2.26.821.216.606.097 1.211-.368 1.611.79-.097 1.481.314 1.752 1.049zm-3.449-2.724l-1.124.41.627 1.74 1.124-.41c.638-.238.919-.724.703-1.33-.206-.55-.703-.637-1.33-.41zm2.627 2.973c-.227-.638-.778-.898-1.708-.552l-1.178.433.756 2.119 1.179-.433c.865-.324 1.221-.821.951-1.567zM257.957 19.86l.173.475c.032.076 0 .151-.087.173L255.07 21.6c-.075.032-.14 0-.173-.086l-2.065-5.752c-.032-.076 0-.151.076-.173l2.962-1.092c.076-.032.14.011.173.087l.173.475c.033.076-.01.152-.086.173l-2.303.854.627 1.752 2.162-.8c.076-.033.14.01.173.086l.173.476c.033.076 0 .151-.076.173l-2.162.8.746 2.065 2.314-.854c.075-.033.14 0 .173.075zM260.357 13.005l.173.476c.032.076 0 .151-.076.173l-1.33.487 1.849 5.145c.032.076 0 .152-.076.173l-.53.195c-.075.032-.15 0-.172-.086l-1.85-5.146-1.329.486c-.075.033-.14-.01-.173-.086l-.173-.476c-.032-.076 0-.151.076-.173l3.449-1.265c.064-.022.13.01.162.097zM266.908 17.232l-.54.206c-.065.021-.13.021-.184-.054l-.887-1.092-2.54.94.01 1.417c0 .086-.043.13-.108.162l-.54.194c-.097.033-.162-.01-.151-.108l.01-6.519c0-.075.044-.14.12-.162l.529-.194a.188.188 0 0 1 .195.043l4.14 4.994c.065.065.043.141-.054.173zm-2.065-1.502l-2.119-2.606.033 3.373 2.086-.767z"/>
        <path fill="#FFF" fill-rule="nonzero" d="M141.049 7.222h1.297v31.816h-1.297z"/>
        <g fill="#F57153">
            <path d="M18.043.032C8.076.032 0 8.108 0 18.076c0 9.913 14.205 26.065 17.405 29.567a.847.847 0 0 0 1.265 0c3.2-3.513 17.406-19.665 17.406-29.567C36.076 8.108 28 .032 18.043.032zm0 44.952l-1.74-2.033C7.524 32.65 2.28 23.351 2.28 18.076c0-8.692 7.07-15.762 15.762-15.762s15.752 7.07 15.752 15.762c0 5.275-5.244 14.573-14.022 24.865l-1.73 2.043z"/>
            <path d="M31.103 20.724c-1.362 4.93-5.99 12.368-12.66 20.27a.522.522 0 0 1-.8 0 96.89 96.89 0 0 1-2.248-2.745c-2-2.508-3.763-4.94-5.265-7.233a.52.52 0 0 1 .356-.8 17.932 17.932 0 0 0 10.184-5.102 17.941 17.941 0 0 1 9.838-5.05.533.533 0 0 1 .595.66z"/>
            <g fill-rule="nonzero">
                <path d="M51.914 19.254v7.816c0 1.006.518 1.492 1.35 1.492.239 0 .8 0 1.212-.065.378-.065.627.14.627.487v2.702c0 .8-1.73 1.006-3.006 1.006-2.486 0-4.735-1.243-4.735-4.81v-8.617h-2.28c-.314 0-.52-.206-.52-.52v-2.702c0-.313.206-.519.52-.519h2.27v-3.978c0-.314.205-.519.518-.519h3.525c.313 0 .519.205.519.519v3.978h2.659c.313 0 .519.206.519.52v2.702c0 .313-.206.519-.519.519h-2.66v-.01zM59.038 15.514h3.524c.314 0 .52.205.52.518v15.914c0 .313-.206.519-.52.519h-3.524c-.314 0-.52-.206-.52-.52V16.033c0-.302.206-.518.52-.518zM84.108 24.022c0 4.843-3.46 8.68-8.227 8.68-2.108 0-3.697-.832-4.81-2.043v7.85c0 .313-.206.518-.52.518h-3.524c-.313 0-.519-.205-.519-.519V16.032c0-.313.206-.518.519-.518h3.005c.314 0 .487.205.52.518l.172 1.73c1.179-1.557 2.876-2.594 5.157-2.594 4.778 0 8.227 3.913 8.227 8.854zm-4.39-.033c0-2.735-1.837-4.67-4.356-4.67-2.562 0-4.324 2.108-4.324 4.67 0 2.595 1.762 4.562 4.324 4.562 2.53 0 4.357-1.935 4.357-4.562zM104 24.022c0 4.843-3.46 8.68-8.227 8.68-2.108 0-3.697-.832-4.81-2.043v7.85c0 .313-.206.518-.52.518H86.92c-.314 0-.519-.205-.519-.519V16.032c0-.313.205-.518.519-.518h3.005c.314 0 .487.205.52.518l.172 1.73c1.179-1.557 2.876-2.594 5.157-2.594 4.768 0 8.227 3.913 8.227 8.854zm-4.39-.033c0-2.735-1.837-4.67-4.356-4.67-2.562 0-4.324 2.108-4.324 4.67 0 2.595 1.762 4.562 4.324 4.562 2.519 0 4.357-1.935 4.357-4.562zM106.8 7.222h3.524c.314 0 .52.205.52.519v24.205c0 .313-.206.519-.52.519H106.8c-.314 0-.519-.206-.519-.52V7.742c0-.314.205-.52.519-.52zM128.519 25.578h-10.865c.487 2.184 2.216 3.427 4.843 3.427 1.352 0 2.422-.346 3.6-1.178.314-.205.52-.205.757.032l1.524 1.492c.238.238.238.487-.032.757a8.838 8.838 0 0 1-6.292 2.595c-5.286 0-8.919-3.914-8.919-8.79 0-4.875 3.633-8.745 8.54-8.745 4.909 0 8.055 3.87 8.055 8.367 0 1.351-.173 2.043-1.211 2.043zm-10.93-2.973h8.097c-.345-2.28-1.967-3.524-3.978-3.524-2.076 0-3.697 1.243-4.119 3.524zM57.924 9.427c0-1.6 1.244-2.886 2.887-2.886s2.919 1.275 2.919 2.886a2.9 2.9 0 0 1-2.92 2.919c-1.642 0-2.886-1.308-2.886-2.919z"/>
            </g>
        </g>
        <g fill="#FFF" fill-rule="nonzero">
            <path d="M166.065 27.524c0 3.135-1.979 4.854-6.065 4.854h-5.373c-.216 0-.357-.14-.357-.356V16.01c0-.216.14-.357.357-.357h5.395c3.437 0 4.897 2.01 4.897 4.108 0 1.72-.833 3.081-2.27 3.611 1.978.476 3.416 2.054 3.416 4.151zM159.773 18h-2.919v4.422h2.919c1.622 0 2.681-.811 2.681-2.39 0-1.437-1.07-2.032-2.681-2.032zm3.665 9.286c0-1.675-1.124-2.68-3.438-2.68h-3.135v5.426H160c2.195 0 3.438-.81 3.438-2.746zM178.94 21.027v10.995c0 .216-.14.356-.356.356h-1.698c-.216 0-.335-.14-.356-.356l-.098-1.384c-.81 1.167-2.01 2.054-3.61 2.054-2.649 0-4.368-1.719-4.368-4.854v-6.811c0-.216.14-.357.357-.357h1.794c.217 0 .357.14.357.357v6.454c0 2.033 1.07 2.919 2.487 2.919 1.956 0 2.983-1.773 2.983-2.551v-6.811c0-.216.141-.357.357-.357h1.795c.216-.01.357.13.357.346zM190.238 29.178c0 2.13-2.173 3.438-4.249 3.438-1.978 0-3.578-.984-4.421-1.957-.141-.162-.12-.335 0-.475l.746-.984c.14-.216.291-.162.497 0 .789.595 1.913 1.265 3.103 1.265 1.048 0 1.891-.41 1.891-1.34 0-2.293-6.021-1.406-6.021-5.33 0-2.076 1.816-3.395 3.913-3.395 1.384 0 2.92.616 3.892 1.773.14.162.097.335-.021.497l-.67.887c-.141.194-.314.119-.53-.022-.909-.713-1.557-1.07-2.53-1.07-.79 0-1.643.41-1.643 1.319 0 2.26 6.043 1.167 6.043 5.394zM192.768 16.703c0-.811.616-1.46 1.459-1.46.81 0 1.438.649 1.438 1.46 0 .81-.616 1.46-1.438 1.46a1.44 1.44 0 0 1-1.46-1.46zm.55 3.967h1.796c.216 0 .356.14.356.357v10.995c0 .216-.14.356-.356.356h-1.795c-.216 0-.357-.14-.357-.356V21.027c0-.216.14-.357.357-.357zM208.66 25.21v6.812c0 .216-.141.356-.357.356h-1.795c-.216 0-.357-.14-.357-.356v-6.454c0-2.011-1.027-2.865-2.41-2.865-2.033 0-3.06 2.01-3.06 2.508v6.81c0 .217-.14.357-.357.357h-1.794c-.216 0-.357-.14-.357-.356V21.027c0-.216.14-.357.357-.357h1.697c.216 0 .335.14.357.357l.097 1.578c.81-1.243 2.076-2.194 3.827-2.194 2.41 0 4.151 1.665 4.151 4.8zM222.66 26.119c0 .886-.12 1.319-.768 1.319h-8.097c.313 1.816 1.697 3.005 3.794 3.005 1.19 0 2.054-.357 2.843-.951.195-.14.336-.195.498-.022l.767.746c.195.195.195.357 0 .552-1.102 1.124-2.627 1.794-4.346 1.794-3.578 0-6.043-2.703-6.043-6.065 0-3.373 2.433-6.043 5.806-6.043 3.394-.022 5.545 2.649 5.545 5.665zm-8.887-.433h6.67c-.194-1.859-1.502-3.08-3.297-3.08-1.795 0-3.135 1.221-3.373 3.08zM233.34 29.178c0 2.13-2.172 3.438-4.248 3.438-1.978 0-3.578-.984-4.422-1.957-.14-.162-.119-.335 0-.475l.746-.984c.14-.216.292-.162.498 0 .789.595 1.913 1.265 3.102 1.265 1.049 0 1.892-.41 1.892-1.34 0-2.293-6.022-1.406-6.022-5.33 0-2.076 1.817-3.395 3.914-3.395 1.384 0 2.919.616 3.892 1.773.14.162.097.335-.022.497l-.67.887c-.14.194-.314.119-.53-.022-.908-.713-1.556-1.07-2.53-1.07-.789 0-1.643.41-1.643 1.319 0 2.26 6.044 1.167 6.044 5.394zM244.162 29.178c0 2.13-2.173 3.438-4.248 3.438-1.979 0-3.579-.984-4.422-1.957-.14-.162-.119-.335 0-.475l.746-.984c.14-.216.292-.162.497 0 .79.595 1.914 1.265 3.103 1.265 1.048 0 1.892-.41 1.892-1.34 0-2.293-6.022-1.406-6.022-5.33 0-2.076 1.816-3.395 3.914-3.395 1.383 0 2.919.616 3.892 1.773.14.162.097.335-.022.497l-.67.887c-.14.194-.314.119-.53-.022-.908-.713-1.557-1.07-2.53-1.07-.789 0-1.643.41-1.643 1.319 0 2.26 6.043 1.167 6.043 5.394z"/>
        </g>
    </g>
</svg>
