<?xml version="1.0" encoding="utf-8"?>
<!-- Generator: Adobe Illustrator 23.0.3, SVG Export Plug-In . SVG Version: 6.00 Build 0)  -->
<svg version="1.1" id="Layer_1" xmlns="http://www.w3.org/2000/svg" xmlns:xlink="http://www.w3.org/1999/xlink" x="0px" y="0px"
	 viewBox="0 0 2792.2 447" style="enable-background:new 0 0 2792.2 447;" xml:space="preserve">
<style type="text/css">
	.st0{fill:#FFFFFF;}
	.st1{fill:none;}
	.st2{fill-rule:evenodd;clip-rule:evenodd;fill:#FFFFFF;}
</style>
<g>
	<path class="st0" d="M2648.6,186.1c-2.5-6.8-8.9-10.6-16.2-9.7c4.3-3.7,5.4-9.3,3.4-14.9c-2.4-6.8-9.4-11.8-20.9-7.6l-17.1,6.3
		c-0.8,0.2-1.1,0.9-0.8,1.6l19.1,53.2c0.3,0.7,0.9,1.1,1.6,0.8l17.1-6.3C2648,204.7,2652.4,196.6,2648.6,186.1z M2606.3,164.7
		l10.4-3.8c5.8-2.1,10.4-1.3,12.3,3.8c2,5.6-0.6,10.1-6.5,12.3l-10.4,3.8L2606.3,164.7z M2632.2,202.9l-10.9,4l-7-19.6l10.9-4
		c8.6-3.2,13.7-0.8,15.8,5.1C2643.5,195.3,2640.2,199.9,2632.2,202.9z"/>
	<path class="st0" d="M2640.3,145.8c-0.3-0.7,0-1.4,0.7-1.6l27.4-10.1c0.7-0.3,1.3,0.1,1.6,0.8l1.6,4.4c0.3,0.7-0.1,1.4-0.8,1.6
		l-21.3,7.9l5.8,16.2l20-7.4c0.7-0.3,1.3,0.1,1.6,0.8l1.6,4.4c0.3,0.7,0,1.4-0.7,1.6l-20,7.4l6.9,19.1l21.4-7.9
		c0.7-0.3,1.3,0,1.6,0.7l1.6,4.4c0.3,0.7,0,1.4-0.8,1.6l-27.5,10.1c-0.7,0.3-1.3,0-1.6-0.8L2640.3,145.8z"/>
	<path class="st0" d="M2675.8,132.7c-0.3-0.7,0-1.4,0.7-1.6l31.9-11.7c0.6-0.2,1.2,0.1,1.5,0.9l1.6,4.4c0.3,0.7,0,1.4-0.7,1.6
		l-12.3,4.5l17.1,47.6c0.3,0.7,0,1.4-0.7,1.6l-4.9,1.8c-0.7,0.3-1.4,0-1.6-0.8l-17.1-47.6l-12.3,4.5c-0.7,0.3-1.3-0.1-1.6-0.8
		L2675.8,132.7z"/>
	<path class="st0" d="M2771,157.8l-38.3-46.2c-0.5-0.5-1.2-0.6-1.8-0.4l-4.9,1.8c-0.7,0.2-1.1,0.8-1.1,1.5l-0.1,60.3
		c-0.1,0.9,0.5,1.3,1.4,1l5-1.8c0.6-0.3,1-0.7,1-1.5l-0.1-13.1l23.5-8.7l8.2,10.1c0.5,0.7,1.1,0.7,1.7,0.5l5-1.9
		C2771.4,159.1,2771.6,158.4,2771,157.8z M2732.1,152.6l-0.3-31.2l19.6,24.1L2732.1,152.6z"/>
	<path class="st0" d="M2777.9,113.2l-28.8-23.1c-2.9-2.3-6.2-3.8-9.7-4.3c-0.8-0.1-1.6-0.2-2.4-0.2c-0.6,0-1.1,0-1.7,0
		c-0.3,0-0.5,0-0.8,0.1c-1.9,0.1-3.7,0.5-5.6,1.2l-139.7,51.5c-10.8,4-16.4,16.1-12.5,27.1l21.4,59.6c3.1,8.7,11.2,14,19.8,13.9
		c0.2,0,0.5,0,0.7,0c2.1-0.1,4.3-0.5,6.4-1.3l139.7-51.5c6.8-2.5,11.8-8.4,13.3-15.6l7.4-36.5C2787,126.2,2784.1,118.2,2777.9,113.2
		z M2611.7,230.9c-3.5-1.6-6.1-4.5-7.4-8.2l-21.4-59.6c-1.3-3.7-1.1-7.6,0.5-11.1c1.6-3.5,4.5-6.2,8.1-7.5L2731.1,93
		c4.6-1.7,9.9-0.9,13.8,2.3l28.8,23.1c4.3,3.4,6.3,8.9,5.2,14.3l-7.4,36.5c-1,5-4.4,9-9.1,10.7l-139.7,51.5
		C2619.1,232.7,2615.2,232.6,2611.7,230.9z"/>
	<path class="st0" d="M2777.8,113.2L2749,90.1c-2.9-2.3-6.2-3.8-9.6-4.3c-0.8-0.1-1.6-0.2-2.4-0.2c-0.6,0-1.1,0-1.7,0
		c-0.3,0-0.5,0-0.8,0.1c-1.9,0.1-3.7,0.5-5.6,1.2l-139.7,51.5c-10.8,4-16.4,16.1-12.5,27.1l21.4,59.6c3.1,8.7,11.2,14,19.8,13.9
		c0.2,0,0.5,0,0.7,0c2.1-0.1,4.1-0.5,6.2-1.3l139.7-51.5c6.8-2.5,11.8-8.4,13.3-15.6l7.4-36.5C2786.9,126.2,2784,118.1,2777.8,113.2
		z M2778.9,132.7l-7.4,36.5c-1,5-4.4,9-9.1,10.7l-139.7,51.5c-3.6,1.3-7.5,1.2-11-0.5c-3.5-1.6-6.1-4.5-7.4-8.2l-21.4-59.6
		c-1.3-3.7-1.1-7.6,0.5-11.1c1.6-3.5,4.5-6.2,8.1-7.5L2731.1,93c4.6-1.7,9.9-0.9,13.8,2.3l28.8,23.1
		C2778,121.8,2780,127.3,2778.9,132.7z"/>
	<path class="st1" d="M2648.6,186.1c-2.5-6.8-8.9-10.6-16.2-9.7c4.3-3.7,5.4-9.3,3.4-14.9c-2.4-6.8-9.4-11.8-20.9-7.6l-17.1,6.3
		c-0.8,0.2-1.1,0.9-0.8,1.6l19.1,53.2c0.3,0.7,0.9,1.1,1.6,0.8l17.1-6.3C2648,204.7,2652.4,196.6,2648.6,186.1z M2606.3,164.7
		l10.4-3.8c5.8-2.1,10.4-1.3,12.3,3.8c2,5.6-0.6,10.1-6.5,12.3l-10.4,3.8L2606.3,164.7z M2632.2,202.9l-10.9,4l-7-19.6l10.9-4
		c8.6-3.2,13.7-0.8,15.8,5.1C2643.5,195.3,2640.2,199.9,2632.2,202.9z"/>
	<path class="st1" d="M2640.3,145.8c-0.3-0.7,0-1.4,0.7-1.6l27.4-10.1c0.7-0.3,1.3,0.1,1.6,0.8l1.6,4.4c0.3,0.7-0.1,1.4-0.8,1.6
		l-21.3,7.9l5.8,16.2l20-7.4c0.7-0.3,1.3,0.1,1.6,0.8l1.6,4.4c0.3,0.7,0,1.4-0.7,1.6l-20,7.4l6.9,19.1l21.4-7.9
		c0.7-0.3,1.3,0,1.6,0.7l1.6,4.4c0.3,0.7,0,1.4-0.8,1.6l-27.5,10.1c-0.7,0.3-1.3,0-1.6-0.8L2640.3,145.8z"/>
	<path class="st1" d="M2675.8,132.7c-0.3-0.7,0-1.4,0.7-1.6l31.9-11.7c0.6-0.2,1.2,0.1,1.5,0.9l1.6,4.4c0.3,0.7,0,1.4-0.7,1.6
		l-12.3,4.5l17.1,47.6c0.3,0.7,0,1.4-0.7,1.6l-4.9,1.8c-0.7,0.3-1.4,0-1.6-0.8l-17.1-47.6l-12.3,4.5c-0.7,0.3-1.3-0.1-1.6-0.8
		L2675.8,132.7z"/>
	<path class="st1" d="M2771,157.8l-38.3-46.2c-0.5-0.5-1.2-0.6-1.8-0.4l-4.9,1.8c-0.7,0.2-1.1,0.8-1.1,1.5l-0.1,60.3
		c-0.1,0.9,0.5,1.3,1.4,1l5-1.8c0.6-0.3,1-0.7,1-1.5l-0.1-13.1l23.5-8.7l8.2,10.1c0.5,0.7,1.1,0.7,1.7,0.5l5-1.9
		C2771.4,159.1,2771.6,158.4,2771,157.8z M2732.1,152.6l-0.3-31.2l19.6,24.1L2732.1,152.6z"/>
	<path class="st1" d="M2777.9,113.2l-28.8-23.1c-2.9-2.3-6.2-3.8-9.7-4.3c-0.8-0.1-1.6-0.2-2.4-0.2c-0.6,0-1.1,0-1.7,0
		c-0.3,0-0.5,0-0.8,0.1c-1.8,0.1-3.7,0.6-5.4,1.2l-139.7,51.5c-10.9,4-16.4,16.1-12.4,27.1l21.4,59.6c3.1,8.5,11.1,13.9,19.6,13.9
		c0.2,0,0.5,0,0.7,0c2.1-0.1,4.3-0.5,6.4-1.3l139.7-51.5c6.8-2.5,11.8-8.4,13.3-15.6l7.4-36.5C2787,126.2,2784.1,118.2,2777.9,113.2
		z M2611.7,230.9c-3.5-1.6-6.1-4.5-7.4-8.2l-21.4-59.6c-1.3-3.7-1.1-7.6,0.5-11.1c1.6-3.5,4.5-6.2,8.1-7.5L2731.1,93
		c4.6-1.7,9.9-0.9,13.8,2.3l28.8,23.1c4.3,3.4,6.3,8.9,5.2,14.3l-7.4,36.5c-1,5-4.4,9-9.1,10.7l-139.7,51.5
		C2619.1,232.7,2615.2,232.6,2611.7,230.9z"/>
	<path class="st1" d="M2648.6,186.1c-2.5-6.8-8.9-10.6-16.2-9.7c4.3-3.7,5.4-9.3,3.4-14.9c-2.4-6.8-9.4-11.8-20.9-7.6l-17.1,6.3
		c-0.8,0.2-1.1,0.9-0.8,1.6l19.1,53.2c0.3,0.7,0.9,1.1,1.6,0.8l17.1-6.3C2648,204.7,2652.4,196.6,2648.6,186.1z M2606.3,164.7
		l10.4-3.8c5.8-2.1,10.4-1.3,12.3,3.8c2,5.6-0.6,10.1-6.5,12.3l-10.4,3.8L2606.3,164.7z M2632.2,202.9l-10.9,4l-7-19.6l10.9-4
		c8.6-3.2,13.7-0.8,15.8,5.1C2643.5,195.3,2640.2,199.9,2632.2,202.9z"/>
	<path class="st1" d="M2640.3,145.8c-0.3-0.7,0-1.4,0.7-1.6l27.4-10.1c0.7-0.3,1.3,0.1,1.6,0.8l1.6,4.4c0.3,0.7-0.1,1.4-0.8,1.6
		l-21.3,7.9l5.8,16.2l20-7.4c0.7-0.3,1.3,0.1,1.6,0.8l1.6,4.4c0.3,0.7,0,1.4-0.7,1.6l-20,7.4l6.9,19.1l21.4-7.9
		c0.7-0.3,1.3,0,1.6,0.7l1.6,4.4c0.3,0.7,0,1.4-0.8,1.6l-27.5,10.1c-0.7,0.3-1.3,0-1.6-0.8L2640.3,145.8z"/>
	<path class="st1" d="M2675.8,132.7c-0.3-0.7,0-1.4,0.7-1.6l31.9-11.7c0.6-0.2,1.2,0.1,1.5,0.9l1.6,4.4c0.3,0.7,0,1.4-0.7,1.6
		l-12.3,4.5l17.1,47.6c0.3,0.7,0,1.4-0.7,1.6l-4.9,1.8c-0.7,0.3-1.4,0-1.6-0.8l-17.1-47.6l-12.3,4.5c-0.7,0.3-1.3-0.1-1.6-0.8
		L2675.8,132.7z"/>
	<path class="st1" d="M2771,157.8l-38.3-46.2c-0.5-0.5-1.2-0.6-1.8-0.4l-4.9,1.8c-0.7,0.2-1.1,0.8-1.1,1.5l-0.1,60.3
		c-0.1,0.9,0.5,1.3,1.4,1l5-1.8c0.6-0.3,1-0.7,1-1.5l-0.1-13.1l23.5-8.7l8.2,10.1c0.5,0.7,1.1,0.7,1.7,0.5l5-1.9
		C2771.4,159.1,2771.6,158.4,2771,157.8z M2732.1,152.6l-0.3-31.2l19.6,24.1L2732.1,152.6z"/>
	<path class="st1" d="M2777.9,113.2l-28.8-23.1c-2.9-2.3-6.2-3.8-9.7-4.3c-0.8-0.1-1.6-0.2-2.4-0.2c-0.6,0-1.1,0-1.7,0
		c-0.3,0-0.5,0-0.8,0.1c-1.8,0.1-3.7,0.6-5.4,1.2l-139.7,51.5c-10.9,4-16.4,16.1-12.4,27.1l21.4,59.6c3.1,8.5,11.1,13.9,19.6,13.9
		c0.2,0,0.5,0,0.7,0c2.1-0.1,4.3-0.5,6.4-1.3l139.7-51.5c6.8-2.5,11.8-8.4,13.3-15.6l7.4-36.5C2787,126.2,2784.1,118.2,2777.9,113.2
		z M2611.7,230.9c-3.5-1.6-6.1-4.5-7.4-8.2l-21.4-59.6c-1.3-3.7-1.1-7.6,0.5-11.1c1.6-3.5,4.5-6.2,8.1-7.5L2731.1,93
		c4.6-1.7,9.9-0.9,13.8,2.3l28.8,23.1c4.3,3.4,6.3,8.9,5.2,14.3l-7.4,36.5c-1,5-4.4,9-9.1,10.7l-139.7,51.5
		C2619.1,232.7,2615.2,232.6,2611.7,230.9z"/>
	<path class="st0" d="M2648.6,186.1c-2.5-6.8-8.9-10.6-16.2-9.7c4.3-3.7,5.4-9.3,3.4-14.9c-2.4-6.8-9.4-11.8-20.9-7.6l-17.1,6.3
		c-0.8,0.2-1.1,0.9-0.8,1.6l19.1,53.2c0.3,0.7,0.9,1.1,1.6,0.8l17.1-6.3C2648,204.7,2652.4,196.6,2648.6,186.1z M2606.3,164.7
		l10.4-3.8c5.8-2.1,10.4-1.3,12.3,3.8c2,5.6-0.6,10.1-6.5,12.3l-10.4,3.8L2606.3,164.7z M2632.2,202.9l-10.9,4l-7-19.6l10.9-4
		c8.6-3.2,13.7-0.8,15.8,5.1C2643.5,195.3,2640.2,199.9,2632.2,202.9z"/>
	<path class="st0" d="M2688.5,189.7l-27.5,10.1c-0.7,0.3-1.3,0-1.6-0.8l-19.1-53.2c-0.3-0.7,0-1.4,0.7-1.6l27.4-10.1
		c0.7-0.3,1.3,0.1,1.6,0.8l1.6,4.4c0.3,0.7-0.1,1.4-0.8,1.6l-21.3,7.9l5.8,16.2l20-7.4c0.7-0.3,1.3,0.1,1.6,0.8l1.6,4.4
		c0.3,0.7,0,1.4-0.7,1.6l-20,7.4l6.9,19.1l21.4-7.9c0.7-0.3,1.3,0,1.6,0.7l1.6,4.4C2689.6,188.8,2689.3,189.5,2688.5,189.7z"/>
	<path class="st0" d="M2714.9,180l-4.9,1.8c-0.7,0.3-1.4,0-1.6-0.8l-17.1-47.6l-12.3,4.5c-0.7,0.3-1.3-0.1-1.6-0.8l-1.6-4.4
		c-0.3-0.7,0-1.4,0.7-1.6l31.9-11.7c0.6-0.2,1.2,0.1,1.5,0.9l1.6,4.4c0.3,0.7,0,1.4-0.7,1.6l-12.3,4.5l17.1,47.6
		C2715.9,179.1,2715.6,179.8,2714.9,180z"/>
	<path class="st0" d="M2771,157.8l-38.3-46.2c-0.5-0.5-1.2-0.6-1.8-0.4l-4.9,1.8c-0.7,0.2-1.1,0.8-1.1,1.5l-0.1,60.3
		c-0.1,0.9,0.5,1.3,1.4,1l5-1.8c0.6-0.3,1-0.7,1-1.5l-0.1-13.1l23.5-8.7l8.2,10.1c0.5,0.7,1.1,0.7,1.7,0.5l5-1.9
		C2771.4,159.1,2771.6,158.4,2771,157.8z M2732.1,152.6l-0.3-31.2l19.6,24.1L2732.1,152.6z"/>
</g>
<g>
	<rect x="1304.7" y="66.8" class="st0" width="12" height="294.3"/>
</g>
<g>
	<path class="st0" d="M1646.7,147.2L1599,297.5c-0.7,1.8-2.2,2.7-4,2.7h-17.9c-1.8,0-3.3-0.9-3.8-2.7L1534,179.9l-39.6,117.6
		c-0.7,1.8-2.2,2.7-4,2.7h-17.7c-1.8,0-3.8-0.9-4.2-2.7l-47.1-150.3c-0.9-2.2,0.2-3.8,2.7-3.8h17.9c1.8,0,3.1,0.7,3.8,2.7l36,122.8
		l40.2-122.8c0.2-1.1,0.9-1.8,1.8-2.2c0.4-0.2,1.1-0.4,1.8-0.4h16.6c0.9,0,1.5,0.2,2,0.4c0.7,0.4,1.1,1.1,1.5,2.2l40,122.8
		l36.7-122.8c0.4-2,2-2.7,3.8-2.7h17.9C1646.5,143.4,1647.4,145,1646.7,147.2z"/>
	<path class="st0" d="M1753.9,193.8v103c0,2-1.3,3.4-3.3,3.4h-14.4c-2,0-3.1-1.3-3.3-3.4l-1.1-12.5c-8,10.5-19.7,17.5-35.4,17.5
		c-30.7,0-52.8-25.1-52.8-56.2c0-32,22.1-57.3,52.8-57.3c15.7,0,27.6,7.4,35.6,18.4l0.9-12.8c0.2-2,1.3-3.4,3.3-3.4h14.4
		C1752.6,190.5,1753.9,191.8,1753.9,193.8z M1731.4,245.4c0-19.7-13.5-35.8-32.7-35.8c-18.8,0-32.7,15.2-32.7,35.8
		c0,19.9,13.9,34.9,32.7,34.9C1717.9,280.3,1731.4,265.1,1731.4,245.4z"/>
	<path class="st0" d="M1846.5,196.5l-5.1,12.3c-0.9,2.2-2.2,2.5-4.4,2c-2.2-0.7-4.6-1.3-8.8-1.3c-13.7,0-23.2,10.3-23.2,24v63.4
		c0,2-1.3,3.4-3.3,3.4h-16.6c-2,0-3.3-1.3-3.3-3.4v-103c0-2,1.3-3.4,3.3-3.4h15.5c2,0,3.1,1.3,3.3,3.4l0.9,10.8
		c6-9.9,14.8-16.6,27.2-16.6c5.7,0,10.6,1.8,13.7,4.3C1847.2,193.6,1847.4,194.7,1846.5,196.5z"/>
	<path class="st0" d="M1960.8,241.5c0,8.3-1.1,12.3-7.1,12.3h-74.9c2.9,17,15.7,28.2,35.1,28.2c11,0,19-3.4,26.3-9
		c1.8-1.3,3.1-1.8,4.6-0.2l7.1,6.9c1.8,1.8,1.8,3.4,0,5.2c-10.2,10.5-24.3,16.8-40.2,16.8c-33.1,0-55.9-25.3-55.9-56.9
		s22.5-56.7,53.7-56.7C1940.9,188.2,1960.8,213.3,1960.8,241.5z M1878.6,237.5h61.7c-1.8-17.5-13.9-28.9-30.5-28.9
		C1893.1,208.6,1880.8,220,1878.6,237.5z"/>
	<path class="st0" d="M2077.7,233v63.8c0,2-1.3,3.4-3.3,3.4h-16.6c-2,0-3.3-1.3-3.3-3.4v-60.5c0-18.8-9.5-26.9-22.3-26.9
		c-18.8,0-28.3,18.8-28.3,23.5v63.8c0,2-1.3,3.4-3.3,3.4H1984c-2,0-3.3-1.3-3.3-3.4V140.1c0-2,1.3-3.4,3.3-3.4h16.6
		c2,0,3.3,1.3,3.3,3.4v68.5c7.5-11.6,19.2-20.6,35.4-20.6C2061.5,188,2077.7,203.7,2077.7,233z"/>
	<path class="st0" d="M2102.2,245.4c0-32.3,24.3-57.3,55.5-57.3c30.9,0,55.5,25.1,55.5,57.3c0,31.8-24.5,57.1-55.5,57.1
		C2126.5,302.5,2102.2,277.2,2102.2,245.4z M2190.8,245.4c0-20.8-14.6-35.8-33.1-35.8s-33.1,15-33.1,35.8
		c0,20.4,14.6,35.4,33.1,35.4S2190.8,265.7,2190.8,245.4z"/>
	<path class="st0" d="M2332.3,193.8v103c0,2-1.3,3.4-3.3,3.4h-15.7c-2,0-3.1-1.3-3.3-3.4l-0.9-13c-7.5,11-18.6,19.3-33.4,19.3
		c-24.5,0-40.4-16.1-40.4-45.5v-63.8c0-2,1.3-3.4,3.3-3.4h16.6c2,0,3.3,1.3,3.3,3.4v60.5c0,19,9.9,27.3,23,27.3
		c18.1,0,27.6-16.6,27.6-24v-63.8c0-2,1.3-3.4,3.3-3.4h16.6C2330.9,190.5,2332.3,191.8,2332.3,193.8z"/>
	<path class="st0" d="M2436.8,270.2c0,19.9-20.1,32.3-39.3,32.3c-18.3,0-33.1-9.2-40.9-18.4c-1.3-1.6-1.1-3.1,0-4.5l6.9-9.2
		c1.3-2,2.7-1.6,4.6,0c7.3,5.6,17.7,11.9,28.7,11.9c9.7,0,17.5-3.8,17.5-12.5c0-21.5-55.7-13.2-55.7-50c0-19.5,16.8-31.8,36.2-31.8
		c12.8,0,27,5.8,36,16.6c1.3,1.6,0.9,3.1-0.2,4.7l-6.2,8.3c-1.3,1.8-2.9,1.1-4.9-0.2c-8.4-6.7-14.4-10.1-23.4-10.1
		c-7.3,0-15.2,3.8-15.2,12.3C2380.9,240.9,2436.8,230.6,2436.8,270.2z"/>
	<path class="st0" d="M2560.8,241.5c0,8.3-1.1,12.3-7.1,12.3h-74.9c2.9,17,15.7,28.2,35.1,28.2c11,0,19-3.4,26.3-9
		c1.8-1.3,3.1-1.8,4.6-0.2l7.1,6.9c1.8,1.8,1.8,3.4,0,5.2c-10.2,10.5-24.3,16.8-40.2,16.8c-33.1,0-55.9-25.3-55.9-56.9
		s22.5-56.7,53.7-56.7C2540.9,188.2,2560.8,213.3,2560.8,241.5z M2478.6,237.5h61.7c-1.8-17.5-13.9-28.9-30.5-28.9
		C2493.1,208.6,2480.8,220,2478.6,237.5z"/>
</g>
<g>
	<g>
		<path class="st2" d="M166.9,0.3C74.7,0.3,0,75,0,167.2c0,91.7,131.4,241.1,161,273.5c3.1,3.5,8.6,3.5,11.7,0
			c29.6-32.5,161-181.9,161-273.5C333.7,75,259,0.3,166.9,0.3z M166.9,416.1l-16.1-18.8C69.6,302,21.1,216,21.1,167.2
			c0-80.4,65.4-145.8,145.8-145.8s145.7,65.4,145.7,145.8c0,48.8-48.5,134.8-129.7,230L166.9,416.1z"/>
		<path class="st2" d="M287.7,191.7c-12.6,45.6-55.4,114.4-117.1,187.5c-1.9,2.3-5.4,2.3-7.4,0c-7.2-8.5-14.2-17-20.8-25.4
			c-18.5-23.2-34.8-45.7-48.7-66.9c-1.9-2.9-0.2-6.9,3.3-7.4c34.5-4.9,67.7-20.7,94.2-47.2c25.7-25.7,57.7-41.3,91-46.7
			C285.7,185.1,288.6,188.3,287.7,191.7z"/>
	</g>
	<g>
		<path class="st0" d="M480.2,178.1v72.3c0,9.3,4.8,13.8,12.5,13.8c2.2,0,7.4,0,11.2-0.6c3.5-0.6,5.8,1.3,5.8,4.5v25
			c0,7.4-16,9.3-27.8,9.3c-23,0-43.8-11.5-43.8-44.5v-79.7H417c-2.9,0-4.8-1.9-4.8-4.8v-25c0-2.9,1.9-4.8,4.8-4.8h21v-36.8
			c0-2.9,1.9-4.8,4.8-4.8h32.6c2.9,0,4.8,1.9,4.8,4.8v36.8h24.6c2.9,0,4.8,1.9,4.8,4.8v25c0,2.9-1.9,4.8-4.8,4.8L480.2,178.1
			L480.2,178.1z"/>
		<path class="st0" d="M546.1,143.5h32.6c2.9,0,4.8,1.9,4.8,4.8v147.2c0,2.9-1.9,4.8-4.8,4.8h-32.6c-2.9,0-4.8-1.9-4.8-4.8V148.3
			C541.3,145.5,543.2,143.5,546.1,143.5z"/>
		<path class="st0" d="M778,222.2c0,44.8-32,80.3-76.1,80.3c-19.5,0-34.2-7.7-44.5-18.9v72.6c0,2.9-1.9,4.8-4.8,4.8H620
			c-2.9,0-4.8-1.9-4.8-4.8V148.3c0-2.9,1.9-4.8,4.8-4.8h27.8c2.9,0,4.5,1.9,4.8,4.8l1.6,16c10.9-14.4,26.6-24,47.7-24
			C746.1,140.3,778,176.5,778,222.2z M737.4,221.9c0-25.3-17-43.2-40.3-43.2c-23.7,0-40,19.5-40,43.2c0,24,16.3,42.2,40,42.2
			C720.5,264.1,737.4,246.2,737.4,221.9z"/>
		<path class="st0" d="M962,222.2c0,44.8-32,80.3-76.1,80.3c-19.5,0-34.2-7.7-44.5-18.9v72.6c0,2.9-1.9,4.8-4.8,4.8H804
			c-2.9,0-4.8-1.9-4.8-4.8V148.3c0-2.9,1.9-4.8,4.8-4.8h27.8c2.9,0,4.5,1.9,4.8,4.8l1.6,16c10.9-14.4,26.6-24,47.7-24
			C930,140.3,962,176.5,962,222.2z M921.4,221.9c0-25.3-17-43.2-40.3-43.2c-23.7,0-40,19.5-40,43.2c0,24,16.3,42.2,40,42.2
			C904.4,264.1,921.4,246.2,921.4,221.9z"/>
		<path class="st0" d="M987.9,66.8h32.6c2.9,0,4.8,1.9,4.8,4.8v223.9c0,2.9-1.9,4.8-4.8,4.8h-32.6c-2.9,0-4.8-1.9-4.8-4.8V71.6
			C983.1,68.7,985,66.8,987.9,66.8z"/>
		<path class="st0" d="M1188.8,236.6h-100.5c4.5,20.2,20.5,31.7,44.8,31.7c12.5,0,22.4-3.2,33.3-10.9c2.9-1.9,4.8-1.9,7,0.3
			l14.1,13.8c2.2,2.2,2.2,4.5-0.3,7c-15,15-35.5,24-58.2,24c-48.9,0-82.5-36.2-82.5-81.3s33.6-80.9,79-80.9s74.5,35.8,74.5,77.4
			C1200,230.2,1198.4,236.6,1188.8,236.6z M1087.7,209.1h74.9c-3.2-21.1-18.2-32.6-36.8-32.6C1106.6,176.5,1091.6,188,1087.7,209.1z
			"/>
		<path class="st0" d="M535.8,87.2c0-14.8,11.5-26.7,26.7-26.7s27,11.8,27,26.7s-11.8,27-27,27S535.8,102.1,535.8,87.2z"/>
	</g>
</g>
</svg>
