<svg xmlns="http://www.w3.org/2000/svg" xmlns:xlink="http://www.w3.org/1999/xlink" width="192" height="34" viewBox="0 0 192 34">
    <defs>
        <path id="a" d="M11.82 12.45V0H.033V12.45h11.785z"/>
    </defs>
    <g fill="none" fill-rule="evenodd">
        <path fill="#F57153" d="M12.807 31.908l-1.232-1.444C5.34 23.154 1.62 16.553 1.62 12.807c0-6.17 5.016-11.186 11.186-11.186 6.169 0 11.185 5.016 11.185 11.186 0 3.746-3.72 10.346-9.954 17.655l-1.23 1.446zm0-31.908C5.734 0 0 5.734 0 12.807c0 7.035 10.085 18.501 12.357 20.994a.609.609 0 0 0 .9 0c2.271-2.493 12.356-13.96 12.356-20.994C25.613 5.734 19.879 0 12.807 0z"/>
        <path fill="#F57153" d="M22.08 14.685c-.965 3.5-4.252 8.782-8.99 14.394a.37.37 0 0 1-.565 0 82.591 82.591 0 0 1-1.596-1.947 68.533 68.533 0 0 1-3.738-5.135.367.367 0 0 1 .254-.565 12.76 12.76 0 0 0 7.231-3.62 12.747 12.747 0 0 1 6.986-3.584c.263-.043.488.2.417.457M36.858 13.643v5.55c0 .711.368 1.055.958 1.055.171 0 .564 0 .859-.05.27-.048.442.099.442.344v1.915c0 .565-1.228.712-2.136.712-1.768 0-3.364-.883-3.364-3.412v-6.114h-1.62c-.222 0-.369-.147-.369-.368V11.36c0-.221.147-.368.369-.368h1.62V8.168c0-.221.147-.368.368-.368h2.505c.22 0 .368.147.368.368v2.824h1.89c.222 0 .369.147.369.368v1.915c0 .221-.147.368-.368.368h-1.891zM41.914 10.992h2.505c.221 0 .368.147.368.368v11.294c0 .221-.147.368-.368.368h-2.505c-.22 0-.368-.147-.368-.368V11.36c0-.221.147-.368.368-.368M56.597 17.007c0-1.94-1.302-3.315-3.094-3.315-1.817 0-3.07 1.498-3.07 3.315 0 1.841 1.253 3.24 3.07 3.24 1.792 0 3.094-1.374 3.094-3.24m3.118.024c0 3.438-2.456 6.163-5.844 6.163-1.498 0-2.627-.589-3.413-1.448v5.573c0 .22-.147.368-.368.368h-2.504c-.222 0-.369-.147-.369-.368V11.36c0-.22.147-.367.369-.367h2.136c.22 0 .343.147.368.368l.122 1.227c.836-1.105 2.039-1.841 3.66-1.841 3.387 0 5.843 2.774 5.843 6.285M70.714 17.007c0-1.94-1.3-3.315-3.093-3.315-1.817 0-3.07 1.498-3.07 3.315 0 1.841 1.253 3.24 3.07 3.24 1.792 0 3.093-1.374 3.093-3.24m3.118.024c0 3.438-2.455 6.163-5.843 6.163-1.498 0-2.628-.589-3.413-1.448v5.573c0 .22-.147.368-.368.368h-2.505c-.22 0-.368-.147-.368-.368V11.36c0-.22.147-.367.368-.367h2.136c.221 0 .344.147.369.368l.122 1.227c.835-1.105 2.038-1.841 3.659-1.841 3.388 0 5.843 2.774 5.843 6.285M75.821 5.099h2.505c.22 0 .368.147.368.368v17.187c0 .221-.148.368-.368.368H75.82c-.221 0-.368-.147-.368-.368V5.467c0-.221.147-.368.368-.368"/>
        <g transform="translate(80.28 10.744)">
            <mask id="b" fill="#fff">
                <use xlink:href="#a"/>
            </mask>
            <path fill="#F57153" d="M3.201 5.28h5.746c-.246-1.62-1.4-2.504-2.824-2.504-1.473 0-2.627.884-2.922 2.504m7.76 2.112H3.25c.343 1.546 1.571 2.43 3.437 2.43.957 0 1.718-.245 2.554-.834.22-.148.368-.148.54.024l1.08 1.056c.172.172.172.344-.025.54a6.272 6.272 0 0 1-4.469 1.842C2.612 12.45.034 9.675.034 6.213S2.612.001 6.099.001c3.486 0 5.72 2.75 5.72 5.942 0 .958-.122 1.449-.859 1.449" mask="url(#b)"/>
        </g>
        <path fill="#F57153" d="M41.119 6.668c0-1.14.88-2.046 2.047-2.046 1.165 0 2.072.907 2.072 2.046 0 1.141-.907 2.073-2.072 2.073-1.166 0-2.047-.932-2.047-2.073"/>
        <path stroke="#000" stroke-linecap="square" stroke-opacity=".38" d="M101.5 6.099V25"/>
        <g>
            <path fill="#FFF" stroke="#F57153" stroke-width=".5" d="M176.206 10.684a1.35 1.35 0 0 0-.807 1.73l1.641 4.51a1.35 1.35 0 0 0 1.73.807l10.72-3.901c.44-.16.766-.537.86-.996l.57-2.761a1.35 1.35 0 0 0-.485-1.332l-2.211-1.749a1.35 1.35 0 0 0-1.3-.21l-10.718 3.902z"/>
            <g fill="#F57153" fill-rule="nonzero">
                <path d="M179.428 13.332c.567-.07 1.059.214 1.247.731.29.794-.046 1.406-1.063 1.776l-1.31.477c-.055.02-.104-.003-.124-.057l-1.467-4.03c-.02-.053.004-.103.058-.122l1.317-.48c.884-.321 1.419.063 1.605.574.155.427.072.852-.263 1.13zm-.26-.886c-.143-.39-.493-.454-.944-.29l-.8.291.444 1.221.8-.291c.457-.167.655-.504.5-.93zm.252 2.884c.608-.22.863-.566.67-1.095-.163-.451-.549-.63-1.21-.39l-.837.304.541 1.486.836-.305zm4.126-1.501c.054-.02.103.003.123.057l.12.33c.02.055-.003.104-.057.124l-2.111.768c-.054.02-.103-.003-.123-.057l-1.467-4.03c-.02-.054.003-.103.058-.123l2.105-.766c.054-.02.103.004.123.058l.12.33c.02.055-.003.104-.057.123l-1.636.596.446 1.227 1.54-.56c.054-.02.103.003.123.057l.12.33c.02.055-.003.104-.057.124l-1.54.56.528 1.45 1.642-.598zm1.697-4.807c.054-.02.103.004.123.058l.12.33c.02.055-.003.104-.057.124l-.945.343 1.314 3.609c.02.054-.003.103-.058.123l-.378.138c-.055.02-.104-.004-.123-.058l-1.314-3.608-.944.344c-.054.02-.103-.004-.123-.058l-.12-.33c-.02-.055.003-.104.057-.124l2.448-.89zM190.069 11.918c.046.051.03.104-.035.128l-.385.14c-.048.018-.091.013-.129-.035l-.626-.766-1.804.657.007.991c.001.061-.028.092-.076.11l-.385.14c-.066.024-.112-.007-.11-.076l.005-4.572c0-.054.034-.094.082-.111l.379-.138a.117.117 0 0 1 .134.033l2.943 3.499zm-2.983-.393l1.48-.538-1.504-1.83.024 2.368z"/>
            </g>
        </g>
        <path fill="#000" fill-opacity=".541" fill-rule="nonzero" d="M117.784 14.968c1.328.32 2.288 1.376 2.288 2.784 0 2.096-1.328 3.248-4.064 3.248h-3.6c-.144 0-.24-.096-.24-.24V10.04c0-.144.096-.24.24-.24h3.616c2.304 0 3.28 1.344 3.28 2.752 0 1.152-.56 2.064-1.52 2.416zm-.128-2.24c0-.96-.72-1.36-1.792-1.36h-1.952v2.96h1.952c1.088 0 1.792-.544 1.792-1.6zm-1.648 6.704c1.472 0 2.304-.544 2.304-1.84 0-1.12-.752-1.792-2.304-1.792h-2.096v3.632h2.096zm12.562-6.272c.144 0 .24.096.24.24v7.36c0 .144-.096.24-.24.24h-1.136c-.144 0-.224-.096-.24-.24l-.064-.928c-.544.784-1.344 1.376-2.416 1.376-1.776 0-2.928-1.152-2.928-3.248V13.4c0-.144.096-.24.24-.24h1.2c.144 0 .24.096.24.24v4.32c0 1.36.72 1.952 1.664 1.952 1.312 0 2-1.184 2-1.712V13.4c0-.144.096-.24.24-.24h1.2zm3.875 2.08c0 1.52 4.048.784 4.048 3.616 0 1.424-1.456 2.304-2.848 2.304-1.328 0-2.4-.656-2.96-1.312-.096-.112-.08-.224 0-.32l.496-.656c.096-.144.192-.112.336 0 .528.4 1.28.848 2.08.848.704 0 1.264-.272 1.264-.896 0-1.536-4.032-.944-4.032-3.568 0-1.392 1.216-2.272 2.624-2.272.928 0 1.952.416 2.608 1.184.096.112.064.224-.016.336l-.448.592c-.096.128-.208.08-.352-.016-.608-.48-1.04-.72-1.696-.72-.528 0-1.104.272-1.104.88zm6.834-3.76a.96.96 0 0 1-.976-.976.96.96 0 0 1 .976-.976c.544 0 .96.432.96.976a.956.956 0 0 1-.96.976zm-.848 1.92c0-.144.096-.24.24-.24h1.2c.144 0 .24.096.24.24v7.36c0 .144-.096.24-.24.24h-1.2c-.144 0-.24-.096-.24-.24V13.4zm8.162-.416c1.616 0 2.784 1.12 2.784 3.216v4.56c0 .144-.096.24-.24.24h-1.2c-.144 0-.24-.096-.24-.24v-4.32c0-1.344-.688-1.92-1.616-1.92-1.36 0-2.048 1.344-2.048 1.68v4.56c0 .144-.096.24-.24.24h-1.2c-.144 0-.24-.096-.24-.24V13.4c0-.144.096-.24.24-.24h1.136c.144 0 .224.096.24.24l.064 1.056c.544-.832 1.392-1.472 2.56-1.472zm8.562.016c2.272 0 3.712 1.792 3.712 3.808 0 .592-.08.88-.512.88h-5.424c.208 1.216 1.136 2.016 2.544 2.016.8 0 1.376-.24 1.904-.64.128-.096.224-.128.336-.016l.512.496c.128.128.128.24 0 .368-.736.752-1.76 1.2-2.912 1.2-2.4 0-4.048-1.808-4.048-4.064 0-2.256 1.632-4.048 3.888-4.048zm.016 1.456c-1.2 0-2.096.816-2.256 2.064h4.464c-.128-1.248-1.008-2.064-2.208-2.064zm6.915.784c0 1.52 4.048.784 4.048 3.616 0 1.424-1.456 2.304-2.848 2.304-1.328 0-2.4-.656-2.96-1.312-.096-.112-.08-.224 0-.32l.496-.656c.096-.144.192-.112.336 0 .528.4 1.28.848 2.08.848.704 0 1.264-.272 1.264-.896 0-1.536-4.032-.944-4.032-3.568 0-1.392 1.216-2.272 2.624-2.272.928 0 1.952.416 2.608 1.184.096.112.064.224-.016.336l-.448.592c-.096.128-.208.08-.352-.016-.608-.48-1.04-.72-1.696-.72-.528 0-1.104.272-1.104.88zm7.362 0c0 1.52 4.048.784 4.048 3.616 0 1.424-1.456 2.304-2.848 2.304-1.328 0-2.4-.656-2.96-1.312-.096-.112-.08-.224 0-.32l.496-.656c.096-.144.192-.112.336 0 .528.4 1.28.848 2.08.848.704 0 1.264-.272 1.264-.896 0-1.536-4.032-.944-4.032-3.568 0-1.392 1.216-2.272 2.624-2.272.928 0 1.952.416 2.608 1.184.096.112.064.224-.016.336l-.448.592c-.096.128-.208.08-.352-.016-.608-.48-1.04-.72-1.696-.72-.528 0-1.104.272-1.104.88z"/>
    </g>
</svg>
