<svg xmlns="http://www.w3.org/2000/svg" width="116" height="119" viewBox="0 0 116 119">
    <g fill="none" fill-rule="evenodd">
        <path fill="#EEE" d="M0 59.701A82.174 82.174 0 0 1 4.41 32.87C9.297 18.91 18.57 9.34 32.36 4.855a80.765 80.765 0 0 1 50.621-.143c16.384 5.253 26.15 17.136 30.062 34.014a90.44 90.44 0 0 1-.328 43.244c-4.703 18.441-16.408 29.844-34.478 34.186a83.945 83.945 0 0 1-43.164-.684C10.403 108.452.01 83.894 0 59.702"/>
        <path fill="#FFF" d="M58.532 63.653c-2 0-3.628-1.627-3.628-3.628 0-2 1.628-3.628 3.628-3.628s3.627 1.628 3.627 3.628-1.627 3.628-3.627 3.628m30.13 12.693l-6.313-3.644 4.212-1.129a1.121 1.121 0 1 0-.58-2.166l-6.38 1.709L73.6 67.65l10.883-2.917a1.122 1.122 0 1 0-.58-2.166L70.85 66.063l-6.835-3.946a5.87 5.87 0 0 0 .129-3.816l7.064-4.078 12.526 3.356a1.122 1.122 0 0 0 .58-2.167l-10.359-2.775 6.076-3.508 6.19 1.659a1.122 1.122 0 0 0 .581-2.167l-4.023-1.079 6.073-3.506a1.122 1.122 0 0 0-1.122-1.943l-6.311 3.644 1.128-4.212a1.121 1.121 0 1 0-2.168-.58l-1.709 6.378-6.003 3.466 2.917-10.883a1.122 1.122 0 0 0-2.167-.581l-3.497 13.05-6.837 3.947a5.885 5.885 0 0 0-3.238-2.019v-8.158l9.17-9.17a1.122 1.122 0 0 0-1.587-1.586l-7.583 7.583v-7.015l4.532-4.532a1.122 1.122 0 0 0-1.587-1.586l-2.945 2.945v-7.012a1.122 1.122 0 0 0-2.244 0v7.287l-3.083-3.083a1.122 1.122 0 0 0-1.587 1.587l4.67 4.67v6.93l-7.968-7.966a1.122 1.122 0 1 0-1.587 1.586l9.555 9.554v7.89a5.864 5.864 0 0 0-3.366 1.8l-7.068-4.08-3.356-12.526a1.121 1.121 0 1 0-2.167.58l2.775 10.36-6.074-3.508-1.66-6.19a1.122 1.122 0 1 0-2.167.58l1.078 4.024-6.073-3.507a1.121 1.121 0 1 0-1.122 1.943l6.312 3.645-4.211 1.128a1.122 1.122 0 0 0 .58 2.167l6.379-1.709 6.003 3.466-10.884 2.917a1.12 1.12 0 1 0 .581 2.167l13.051-3.498 6.834 3.946a5.87 5.87 0 0 0-.129 3.817l-7.063 4.078-12.527-3.356a1.121 1.121 0 1 0-.581 2.167l10.36 2.775-6.076 3.508-6.19-1.659a1.121 1.121 0 1 0-.58 2.167l4.023 1.079-6.073 3.506a1.121 1.121 0 1 0 1.121 1.943l6.312-3.644-1.128 4.212a1.121 1.121 0 1 0 2.167.58l1.71-6.378 6.002-3.466-2.916 10.883a1.121 1.121 0 0 0 2.167.581l3.497-13.05 6.836-3.948a5.88 5.88 0 0 0 3.24 2.02v8.157l-9.172 9.171a1.122 1.122 0 0 0 1.587 1.586l7.584-7.584v7.016l-4.531 4.532a1.12 1.12 0 1 0 1.586 1.586l2.945-2.945v7.012a1.122 1.122 0 0 0 2.244 0V86.99l3.083 3.083a1.12 1.12 0 1 0 1.586-1.586l-4.67-4.67v-6.931l7.968 7.967a1.119 1.119 0 0 0 1.587 0 1.123 1.123 0 0 0 0-1.587l-9.554-9.553v-7.891a5.864 5.864 0 0 0 3.365-1.8l7.068 4.08 3.357 12.527a1.122 1.122 0 1 0 2.166-.58l-2.775-10.36 6.076 3.508 1.658 6.19a1.123 1.123 0 0 0 2.167-.581l-1.078-4.023 6.073 3.506a1.12 1.12 0 0 0 1.532-.41 1.121 1.121 0 0 0-.41-1.533"/>
        <path stroke="#0B2146" stroke-linecap="round" stroke-linejoin="round" d="M58.532 63.653c-2 0-3.628-1.627-3.628-3.628 0-2 1.628-3.628 3.628-3.628s3.627 1.628 3.627 3.628-1.627 3.628-3.627 3.628zm30.13 12.693l-6.313-3.644 4.212-1.129a1.121 1.121 0 1 0-.58-2.166l-6.38 1.709L73.6 67.65l10.883-2.917a1.122 1.122 0 1 0-.58-2.166L70.85 66.063l-6.835-3.946a5.87 5.87 0 0 0 .129-3.816l7.064-4.078 12.526 3.356a1.122 1.122 0 0 0 .58-2.167l-10.359-2.775 6.076-3.508 6.19 1.659a1.122 1.122 0 0 0 .581-2.167l-4.023-1.079 6.073-3.506a1.122 1.122 0 0 0-1.122-1.943l-6.311 3.644 1.128-4.212a1.121 1.121 0 1 0-2.168-.58l-1.709 6.378-6.003 3.466 2.917-10.883a1.122 1.122 0 0 0-2.167-.581l-3.497 13.05-6.837 3.947a5.885 5.885 0 0 0-3.238-2.019v-8.158l9.17-9.17a1.122 1.122 0 0 0-1.587-1.586l-7.583 7.583v-7.015l4.532-4.532a1.122 1.122 0 0 0-1.587-1.586l-2.945 2.945v-7.012a1.122 1.122 0 0 0-2.244 0v7.287l-3.083-3.083a1.122 1.122 0 0 0-1.587 1.587l4.67 4.67v6.93l-7.968-7.966a1.122 1.122 0 1 0-1.587 1.586l9.555 9.554v7.89a5.864 5.864 0 0 0-3.366 1.8l-7.068-4.08-3.356-12.526a1.121 1.121 0 1 0-2.167.58l2.775 10.36-6.074-3.508-1.66-6.19a1.122 1.122 0 1 0-2.167.58l1.078 4.024-6.073-3.507a1.121 1.121 0 1 0-1.122 1.943l6.312 3.645-4.211 1.128a1.122 1.122 0 0 0 .58 2.167l6.379-1.709 6.003 3.466-10.884 2.917a1.12 1.12 0 1 0 .581 2.167l13.051-3.498 6.834 3.946a5.87 5.87 0 0 0-.129 3.817l-7.063 4.078-12.527-3.356a1.121 1.121 0 1 0-.581 2.167l10.36 2.775-6.076 3.508-6.19-1.659a1.121 1.121 0 1 0-.58 2.167l4.023 1.079-6.073 3.506a1.121 1.121 0 1 0 1.121 1.943l6.312-3.644-1.128 4.212a1.121 1.121 0 1 0 2.167.58l1.71-6.378 6.002-3.466-2.916 10.883a1.121 1.121 0 0 0 2.167.581l3.497-13.05 6.836-3.948a5.88 5.88 0 0 0 3.24 2.02v8.157l-9.172 9.171a1.122 1.122 0 0 0 1.587 1.586l7.584-7.584v7.016l-4.531 4.532a1.12 1.12 0 1 0 1.586 1.586l2.945-2.945v7.012a1.122 1.122 0 0 0 2.244 0V86.99l3.083 3.083a1.12 1.12 0 1 0 1.586-1.586l-4.67-4.67v-6.931l7.968 7.967a1.119 1.119 0 0 0 1.587 0 1.123 1.123 0 0 0 0-1.587l-9.554-9.553v-7.891a5.864 5.864 0 0 0 3.365-1.8l7.068 4.08 3.357 12.527a1.122 1.122 0 1 0 2.166-.58l-2.775-10.36 6.076 3.508 1.658 6.19a1.123 1.123 0 0 0 2.167-.581l-1.078-4.023 6.073 3.506a1.12 1.12 0 0 0 1.532-.41 1.121 1.121 0 0 0-.41-1.533z"/>
        <path fill="#FFF" d="M50.32 50.578l2.63 1.563a1.122 1.122 0 0 0 1.695-.974l-.027-3.344a1.118 1.118 0 0 0-.334-.79l-3.949-3.888a1.122 1.122 0 0 0-1.878 1.059l1.345 5.668c.07.296.258.55.519.706"/>
        <path stroke="#0B2146" stroke-linecap="round" stroke-linejoin="round" d="M50.32 50.578l2.63 1.563a1.122 1.122 0 0 0 1.695-.974l-.027-3.344a1.118 1.118 0 0 0-.334-.79l-3.949-3.888a1.122 1.122 0 0 0-1.878 1.059l1.345 5.668c.07.296.258.55.519.706z"/>
        <path fill="#FFF" d="M45.375 62.508a1.128 1.128 0 0 0 .87-.096l2.667-1.496a1.12 1.12 0 0 0 .005-1.954l-2.91-1.65a1.122 1.122 0 0 0-.852-.105l-5.34 1.477a1.122 1.122 0 0 0-.022 2.156l5.582 1.668z"/>
        <path stroke="#0B2146" stroke-linecap="round" stroke-linejoin="round" d="M45.375 62.508a1.128 1.128 0 0 0 .87-.096l2.667-1.496a1.12 1.12 0 0 0 .005-1.954l-2.91-1.65a1.122 1.122 0 0 0-.852-.105l-5.34 1.477a1.122 1.122 0 0 0-.022 2.156l5.582 1.668z"/>
        <path fill="#FFF" d="M48.527 76.81a1.12 1.12 0 0 0 1.34-.15l4.237-4a1.12 1.12 0 0 0 .352-.801l.039-3.058a1.122 1.122 0 0 0-1.691-.981l-2.883 1.695c-.257.15-.443.397-.518.685l-1.391 5.363c-.126.484.084.993.515 1.248"/>
        <path stroke="#0B2146" stroke-linecap="round" stroke-linejoin="round" d="M48.527 76.81a1.12 1.12 0 0 0 1.34-.15l4.237-4a1.12 1.12 0 0 0 .352-.801l.039-3.058a1.122 1.122 0 0 0-1.691-.981l-2.883 1.695c-.257.15-.443.397-.518.685l-1.391 5.363c-.126.484.084.993.515 1.248z"/>
        <path fill="#FFF" d="M66.742 69.472l-2.629-1.562a1.121 1.121 0 0 0-1.695.973l.027 3.344c.002.298.122.582.335.791l3.948 3.887a1.12 1.12 0 0 0 1.338.178c.436-.246.656-.75.54-1.237l-1.345-5.669a1.122 1.122 0 0 0-.519-.705"/>
        <path stroke="#0B2146" stroke-linecap="round" stroke-linejoin="round" d="M66.742 69.472l-2.629-1.562a1.121 1.121 0 0 0-1.695.973l.027 3.344c.002.298.122.582.335.791l3.948 3.887a1.12 1.12 0 0 0 1.338.178c.436-.246.656-.75.54-1.237l-1.345-5.669a1.122 1.122 0 0 0-.519-.705z"/>
        <path fill="#FFF" d="M71.689 57.541a1.121 1.121 0 0 0-.87.096l-2.668 1.496a1.123 1.123 0 0 0-.005 1.955l2.91 1.65a1.126 1.126 0 0 0 .852.105l5.34-1.476a1.123 1.123 0 0 0 .023-2.157l-5.582-1.669z"/>
        <path stroke="#0B2146" stroke-linecap="round" stroke-linejoin="round" d="M71.689 57.541a1.121 1.121 0 0 0-.87.096l-2.668 1.496a1.123 1.123 0 0 0-.005 1.955l2.91 1.65a1.126 1.126 0 0 0 .852.105l5.34-1.476a1.123 1.123 0 0 0 .023-2.157l-5.582-1.669z"/>
        <path fill="#FFF" d="M68.537 43.24a1.12 1.12 0 0 0-1.341.149l-4.236 4a1.12 1.12 0 0 0-.352.801l-.039 3.059a1.121 1.121 0 0 0 1.69.98l2.884-1.695c.257-.15.443-.397.517-.685l1.392-5.363a1.121 1.121 0 0 0-.515-1.247"/>
        <path stroke="#0B2146" stroke-linecap="round" stroke-linejoin="round" d="M68.537 43.24a1.12 1.12 0 0 0-1.341.149l-4.236 4a1.12 1.12 0 0 0-.352.801l-.039 3.059a1.121 1.121 0 0 0 1.69.98l2.884-1.695c.257-.15.443-.397.517-.685l1.392-5.363a1.121 1.121 0 0 0-.515-1.247z"/>
    </g>
</svg>
