<svg xmlns="http://www.w3.org/2000/svg" xmlns:xlink="http://www.w3.org/1999/xlink" width="200" height="157" viewBox="0 0 200 157">
    <defs>
        <rect id="b" width="280" height="365" rx="6"/>
        <filter id="a" width="119.6%" height="115.1%" x="-9.8%" y="-7.3%" filterUnits="objectBoundingBox">
            <feMorphology in="SourceAlpha" radius=".5" result="shadowSpreadOuter1"/>
            <feOffset dy="3" in="shadowSpreadOuter1" result="shadowOffsetOuter1"/>
            <feGaussianBlur in="shadowOffsetOuter1" result="shadowBlurOuter1" stdDeviation="2.5"/>
            <feColorMatrix in="shadowBlurOuter1" result="shadowMatrixOuter1" values="0 0 0 0 0 0 0 0 0 0 0 0 0 0 0 0 0 0 0.2 0"/>
            <feOffset dy="1" in="SourceAlpha" result="shadowOffsetOuter2"/>
            <feGaussianBlur in="shadowOffsetOuter2" result="shadowBlurOuter2" stdDeviation="9"/>
            <feColorMatrix in="shadowBlurOuter2" result="shadowMatrixOuter2" values="0 0 0 0 0 0 0 0 0 0 0 0 0 0 0 0 0 0 0.12 0"/>
            <feOffset dy="6" in="SourceAlpha" result="shadowOffsetOuter3"/>
            <feGaussianBlur in="shadowOffsetOuter3" result="shadowBlurOuter3" stdDeviation="5"/>
            <feColorMatrix in="shadowBlurOuter3" result="shadowMatrixOuter3" values="0 0 0 0 0 0 0 0 0 0 0 0 0 0 0 0 0 0 0.14 0"/>
            <feMerge>
                <feMergeNode in="shadowMatrixOuter1"/>
                <feMergeNode in="shadowMatrixOuter2"/>
                <feMergeNode in="shadowMatrixOuter3"/>
            </feMerge>
        </filter>
        <rect id="d" width="280" height="365" rx="6"/>
        <filter id="c" width="104.3%" height="103.3%" x="-2.1%" y="-1.4%" filterUnits="objectBoundingBox">
            <feOffset dy="1" in="SourceAlpha" result="shadowOffsetOuter1"/>
            <feGaussianBlur in="shadowOffsetOuter1" result="shadowBlurOuter1" stdDeviation="1.5"/>
            <feColorMatrix in="shadowBlurOuter1" result="shadowMatrixOuter1" values="0 0 0 0 0.2471 0 0 0 0 0.2471 0 0 0 0 0.2667 0 0 0 0.15 0"/>
            <feMorphology in="SourceAlpha" operator="dilate" radius=".5" result="shadowSpreadOuter2"/>
            <feOffset in="shadowSpreadOuter2" result="shadowOffsetOuter2"/>
            <feColorMatrix in="shadowOffsetOuter2" result="shadowMatrixOuter2" values="0 0 0 0 0.2471 0 0 0 0 0.2471 0 0 0 0 0.2667 0 0 0 0.05 0"/>
            <feMerge>
                <feMergeNode in="shadowMatrixOuter1"/>
                <feMergeNode in="shadowMatrixOuter2"/>
            </feMerge>
        </filter>
    </defs>
    <g fill="none" fill-rule="evenodd">
        <g transform="translate(-40 -132)">
            <use fill="#000" filter="url(#a)" xlink:href="#b"/>
            <use fill="#FFF" xlink:href="#b"/>
        </g>
        <g transform="translate(-40 -132)">
            <use fill="#000" filter="url(#c)" xlink:href="#d"/>
            <use fill="#FFF" xlink:href="#d"/>
        </g>
        <g>
            <path fill="#EFE8D0" fill-rule="nonzero" d="M83.726 154.012c11.683-1.965 23.247-5.167 34.85-8.212 5.26-1.403 10.346-3.178 15.694-2.739 4.984.378 9.383 2.715 14.392 2.83 3.935.013 7.853-1.158 11.514-2.677 15.666-6.553 28.7-19.791 34.963-35.421 5.79-14.3 5.815-30.442.168-43.955-3.434-8.23-9.411-15.02-12.456-23.452-3.239-8.882.579-3.667-1.324-27.373-.518-6.455-37.1-19.315-69.664-8.895-10.57 3.382-14.518 16.57-24.043 21.37-10.694 5.406-21.11.537-32.039.153-24.33-.878-48.104 22.365-53.412 45.353-6.485 28.35 4.46 68.303 31.895 79.717 14.935 6.235 32.286 6.058 48.853 3.313.263.006.427-.043.609-.012z"/>
            <path fill="#FFFDF6" d="M67.664 37.539c-2.257-1.943-1.651-5.419-1.373-8.14a7.497 7.497 0 0 0 1.563-1.59c.017-.023.03-.047.048-.07.476.506 1.23.768 1.91.589.809-.213 1.397-1.075 1.22-1.871-.177-.79-1.138-1.336-1.911-1.049.257-.676.463-1.373.63-2.074.355-1.48.568-3.007.44-4.521-.085-.984-.331-1.992-.963-2.765-.624-.764-1.693-1.24-2.654-.972-1.588-.115-3.14.795-4.301 1.899-2.352 2.236-3.737 5.407-3.76 8.607-.008 1.167.178 2.386.871 3.338.576.792 1.468 1.31 2.44 1.535-.324 2.136-.912 4.223-2.354 5.816-2.824 3.12-7.952 3.3-10.973 6.24 5.997-.788 6.479 8.131 12.52 8.5 3.228.196 12.313-9.053 15.02-10.777-3.41.339-5.805-.487-8.373-2.695"/>
            <path fill="#0B2146" d="M75.654 77.526c.165-1.39.317-2.78.383-4.062-3.161.144-6.338.28-9.479-.093-1.85-.22-3.674-.616-5.52-.855-3.864-.5-7.782-.308-11.673-.115-.516 2.683-.515 4.387-.457 6.469-.156 6.274-.123 16.67-.283 22.85-.374 14.464.096 46.413 1.116 47.67l4.116-.212c1.972-21.459 4.196-42.784 6.183-64.234 1.07.057 2.14.101 3.21.13 1.554 21.693 3.633 43.833 5.164 65.505l4.925-.12s.167-3.145.389-5.584c1.309-14.41 1.405-30.404 1.337-44.873-.027-5.93.554-16.109.59-22.476M76.496 72.255c-.01.31-.024.626-.04.945.073-.004.147-.008.22-.01l-.18-.935z"/>
            <path fill="#C8EAFB" d="M67.613 35.418c-1.246 1.6-2.118 2.435-4.293 2.435-2.803 0-4.62-2.573-4.62-2.573-.383-.178-10.195-.27-14.44.107.565 12.032-.658 24.496 1.305 36.375 13.783 2.621 32.771.998 32.771.998 1.062-3.834 4.023-25.814 2.632-36.64-4.438-.398-8.941-.129-13.355-.702"/>
            <path fill="#0B2146" d="M73.111 149.52c1.342 2.892 4.388 4.563 6.103 7.241-.178.276-.592.172-.888.037l-5.357-2.448c-1.596-.73-3.195-1.46-4.862-1.997-.212-.068-.455-.161-.524-.377a.712.712 0 0 1-.015-.265l.091-1.455c.007-.116.02-.246.107-.322.071-.063.172-.072.266-.078 1.844-.115 3.235-.22 5.08-.336M53.449 149.52l-3.454.102c-.161.005-.33.011-.469.088-.12.067-.204.18-.283.29-1.66 2.312-3.322 4.623-4.983 6.935 3.013-1.104 5.772-2.733 8.37-4.53.556-.385 1.192-.239 1.162-.883-.02-.449-.387-1.543-.206-1.958l-.137-.044z"/>
            <path fill="#FFD249" d="M60.148 20.668A39.134 39.134 0 0 1 62.695 9.5c.11-.282.239-.584.511-.743.654-.386 1.403.298 1.908.844 1.415 1.525 3.508 2.481 5.662 2.587 1.177.058 2.39-.123 3.517.199 1.785.51 2.9 2.12 3.862 3.617-.421-.426-1.151-.55-1.705-.29-.458.215-.758.636-1.031 1.04a77.412 77.412 0 0 0-6.189 10.956c-.179-1.942.915-3.757 1.538-5.616.263-.785.44-1.654.112-2.419-.439-1.021-1.65-1.556-2.804-1.774-2.807-.532-5.894.877-7.928 2.766"/>
            <path fill="#F57153" d="M16.655 8.014a2.79 2.79 0 0 0-.928.216c.324-.194.626-.26.928-.216"/>
            <path fill="#C8EAFB" d="M54.626 44.432c-.525.106-1.04.213-1.552.308-3.214.602-6.199.91-8.97.968-26.62.543-33.045-22.006-31.373-29.648l5.482.035c-.478 5.8 3.415 11.068 7.798 14.93 2.615 2.304 5.72 2.032 9.04 3.095 3.332 1.064 9.435 2.694 12.48.98a9.4 9.4 0 0 1 1.637 1.111c1.253 1.075 2.078 2.375 2.962 3.745.645 1.027 1.349 2.09 2.292 3.141.347.379.657 1.064.204 1.335"/>
            <path fill="#F6F2E3" d="M17.535 13.941l-5.051-.036c.429-2.24 1.672-5.406 2.75-6.16.023-.025.045-.038.067-.038a1.3 1.3 0 0 1 .473-.121c.826.146 1.43.889 1.75 1.765.01 0 .01 0 0 .012.044.122.077.256.12.39.034.17.067.34.089.512.154 1.217-.11 2.446-.198 3.676"/>
            <path fill="#F6F2E3" d="M15.662 8.645c-.83.779-1.788 4.044-2.119 6.355.348-2.436.95-5.651 2.119-6.355M18.84 9.704c-.387-1.05-1.12-1.94-2.12-2.114 1.014-.073 1.76.963 2.12 2.114"/>
            <path fill="#7F331C" d="M166.922 74.316c.66.175 1.36.18 2.048.182 1.917.01 3.836.018 5.753.027.127.001.255.002.375.036.34.098.527.449.502.769-.024.32-.215.608-.428.865-.926 1.112-2.353 1.838-3.858 2.153-1.505.314-3.084.24-4.599-.035-.142-.026-.291-.058-.39-.153-.089-.088-.116-.211-.137-.329a7.581 7.581 0 0 1 .18-3.442"/>
            <path fill="#0B2146" d="M126.118 18.225c-2.648-.314-5.419.97-6.928 3.213-2.742 4.07-1.09 9.902-3.363 14.262-1.28 2.458-3.632 4.106-5.896 5.657.77.84 1.758 1.43 2.733 2.01 3.045 1.809 6.177 3.652 9.654 4.234 1.18.199 2.381.247 3.578.233 4.057-.047 9.886-3.709 13.693-5.141-3.348-5.483-6.22-8.308-6.092-14.768.137-6.88-4.731-9.385-7.38-9.7"/>
            <path fill="#FFD249" d="M143.058 47.836c0 8.718 3.844 16.092 23.612 26.647-.593 2.136.275 3.976.459 6.188-16.023-3.307-27.642-13.952-29.658-22.35.438-3.91 2.738-7.807 5.587-10.485"/>
            <path fill="#7F331C" d="M124.792 41.527c1.623-1.41 1.887-3.925 1.837-6.257-1.434-.37-2.672-1.348-3.534-2.541-.016-.022-.03-.046-.045-.068-.458.49-1.184.745-1.838.57-.777-.206-1.343-1.043-1.172-1.815.17-.767 1.093-1.297 1.837-1.017a16.433 16.433 0 0 1-.606-2.013c-.342-1.437-.546-2.92-.422-4.389.08-.955.318-1.934.925-2.684.6-.741 1.627-1.204 2.552-.943 1.526-.112 3.02.772 4.135 1.843 2.262 2.17 3.594 5.248 3.615 8.354.008 1.133-.17 2.316-.837 3.24-.623.865-1.63 1.394-2.7 1.559-.245 2.022-.68 3.972.69 5.498 2.714 3.028 9.1 4.157 12.479 6.134-5.767-.765-6.23 7.892-12.039 8.25-3.104.19-11.839-8.786-14.442-10.46 3.278.33 7.096-1.117 9.565-3.261"/>
            <path fill="#F57153" d="M130.081 149.682c1.49 2.903 4.342 4.706 6.33 7.253a75.978 75.978 0 0 1-10.586-4.273 6.518 6.518 0 0 1 .578-2.974.318.318 0 0 1 .1-.14c.064-.042.146-.028.22-.013l3.815.793M102.244 148.46c-.326.543-.744 1.03-1.16 1.513l-5.982 6.962c1.236-.2 2.39-.707 3.526-1.208l6.763-2.98a.587.587 0 0 0 .237-.156c.087-.112.07-.265.05-.402l-.48-3.36a9.158 9.158 0 0 1-2.626-.287"/>
            <path fill="#0B2146" d="M139.59 81.959a53.135 53.135 0 0 1-1.325 10.132c-.056.242-.123.5-.325.664-.196.159-.475.193-.735.22-8.965.898-18.018.138-26.998-.622a30.499 30.499 0 0 1 .633-11.482c4.148-.19 8.322-.378 12.44.113 1.97.236 3.913.625 5.884.842 3.391.373 6.822.23 10.234.086"/>
            <path fill="#0B2146" d="M126.336 84.263c-.33 21.831-.186 44.19-.517 66.022l4.415.294s.395-3.066.784-5.437c2.296-14.005 4.598-28.582 5.676-42.759.49-6.443 1.38-14.597 1.836-20.652-3.164.903-7.503 3.946-10.759 3.587M122.642 90.751c-3.723 19.19-15.855 58.417-16.956 58.77 0 0-3.46-.685-4.228-.62.255-6.965 8.449-55.29 8.865-58.656 3.803.299 8.18-.444 11.915.312"/>
            <path fill="#FFD249" d="M109.958 46.777c-5.71 8.985-12.118 18.235-17.828 27.22-.528.832-1.07 1.696-1.22 2.67-.394 2.557 1.916 4.641 3.987 6.186l12.711 9.474c-1.367 1.308-1.779 2.379-2.157 4.233 3.216-1.056 5.108-2.94 6.683-5.94.472-.9.392-1.79.09-2.76-.277-.886-.26-1.473-.996-2.038l-9.313-7.166c-.614-.472-1.266-1-1.461-1.75-.25-.955.324-1.915.891-2.723a57.038 57.038 0 0 1 8.258-9.38c1.482-1.35 3.136-2.795 3.451-4.776.2-1.26-.185-2.53-.567-3.747-1.04-3.319-1.3-6.147-2.34-9.466"/>
            <path fill="#7F331C" d="M105.35 90.69l1.723 1.322a8.842 8.842 0 0 0-2.438 4.548c2.903-.982 5.406-3.164 6.826-5.952.427-.837.763-1.812.49-2.714-.25-.823-.95-1.401-1.613-1.926"/>
            <path fill="#FFD249" d="M139.013 44.036c-8.387 4.982-14.687 4.996-22.328.275-.505-.312-1.025-.65-1.616-.71-.596-.063-5.902 2.417-6.063 2.702-.177.314-.142.698-.1 1.056.705 6.17.94 38.534.708 41.186-.229 2.632 26.433 15.52 29.485 19.666.636-5.549 1.216-11.7 1.386-18.187.343-13.067 2.282-41.175 2.282-44.385"/>
            <path fill="#0B2146" d="M129.488 19.598c.682.661.714 1.903.288 2.797-.425.894-1.2 1.504-1.981 2.007-.782.503-1.611.943-2.268 1.636-.905.955-1.404 2.317-1.61 3.696-.206 1.377-.145 2.785-.084 4.18.034.79.083 1.625.485 2.27a31.982 31.982 0 0 1-3.458-9.322c-.328-1.61-.531-3.328-.056-4.891.583-1.92 2.19-3.349 3.962-3.7 1.771-.352 3.648.32 5.017 1.637"/>
            <path fill="#C78B5B" d="M66.504 74.316h14.829V59.487h-14.83z"/>
            <path fill="#E5BE84" d="M69.681 74.316h14.83V59.487H69.68z"/>
            <path fill="#EAD1B7" d="M74.977 62.665h4.237v-3.178h-4.237zM74.977 74.316h4.237V71.14h-4.237z"/>
            <path fill="#C78B5B" d="M27.313 35.125h20.125V16.06H27.313z"/>
            <path fill="#E5BE84" d="M32.609 35.125h20.125V16.06H32.609z"/>
            <path fill="#EAD1B7" d="M40.023 20.296h5.296V16.06h-5.296z"/>
            <path fill="#C78B5B" d="M145.944 134.691h24.362V98.678h-24.362z"/>
            <path fill="#E5BE84" d="M156.537 134.691h24.361V98.678h-24.361z"/>
            <path fill="#EAD1B7" d="M166.07 134.691h5.296v-7.414h-5.297z"/>
            <path fill="#F7EEE5" d="M156.537 132.573h7.414v-4.237h-7.414z"/>
            <path fill="#444248" d="M156.537 132.573h1.059v-3.178h-1.06zM158.932 132.573h.505v-3.178h-.505zM159.714 132.573h1.06v-3.178h-1.06z"/>
            <path fill="#444248" d="M158.825 132.573h.72v-3.178h-.72zM160 132.573h.487v-3.178H160z"/>
            <g fill="#FFF" opacity=".799">
                <path d="M167.793 104.609c-2.041.156-3.714 1.86-3.66 3.955.053 2.094 2.897 5.314 3.6 6.084.086.05.172.099.225.008.645-.72 3.56-4.377 3.592-6.421-.086-2.235-1.717-3.783-3.757-3.626zm-.003 9.343l-.325-.43c-1.817-2.02-2.873-3.965-2.917-5.082.014-1.813 1.41-3.435 3.26-3.459 1.763-.074 3.273 1.284 3.207 3.187.043 1.117-1.113 3.12-2.876 5.379l-.349.405z"/>
                <path d="M170.374 108.374c-.281 1.058-1.233 2.707-2.59 4.487-.053.091-.136.043-.136.043-.112-.186-.306-.42-.471-.516-.39-.469-.726-1.03-1.032-1.45-.083-.048-.03-.14.106-.184.759-.172 1.459-.622 2.047-1.26.587-.637 1.234-.996 1.994-1.168.053-.091.082.048.082.048z"/>
            </g>
            <path fill="#444248" d="M161.874 132.573h.976v-3.178h-.976zM163.18 132.573h.483v-3.178h-.484z"/>
            <path fill="#EAD1B7" d="M166.07 106.093h5.296v-7.415h-5.297z"/>
            <path fill="#444248" d="M160.969 132.573h.668v-3.178h-.668zM163.061 132.573h.72v-3.178h-.72z"/>
            <path fill="#C78B5B" d="M158.655 134.691h22.243V110.33h-22.243z"/>
            <path fill="#C78B5B" d="M163.951 132.573h20.125v-20.125h-20.125z"/>
            <path fill="#E5BE84" d="M170.306 132.573h20.125v-20.125h-20.125z"/>
            <path fill="#EAD1B7" d="M177.72 118.803h2.12v-5.296h-2.12zM177.72 133.632h2.12v-5.296h-2.12z"/>
            <path fill="#C78B5B" d="M171.366 152.698h20.125v-20.125h-20.125z"/>
            <path fill="#E5BE84" d="M176.662 152.698h20.125v-20.125h-20.125z"/>
            <path fill="#EAD1B7" d="M184.076 137.869h5.296v-5.296h-5.296z"/>
            <path fill="#C78B5B" d="M149.122 98.678h20.125V78.553h-20.125z"/>
            <path fill="#E5BE84" d="M155.477 98.678h20.125V78.553h-20.125z"/>
            <path fill="#EAD1B7" d="M162.892 83.908h5.296v-5.296h-5.296z"/>
            <path fill="#C78B5B" d="M134.293 152.698h30.717V121.98h-30.717z"/>
            <path fill="#E5BE84" d="M143.826 152.698h30.717V121.98h-30.717z"/>
            <path fill="#EAD1B7" d="M155.477 129.395h7.415v-7.414h-7.415zM155.477 152.698h7.415v-7.415h-7.415z"/>
            <path fill="#FFF" d="M176.132 149.52l1.589 3.178h-3.178zM145.415 118.803l1.589 3.178h-3.178z"/>
            <g fill="#FFF" opacity=".799">
                <path d="M158.546 131.788c-3.061.235-5.57 2.792-5.49 5.933.08 3.14 4.346 7.97 5.4 9.126.13.074.259.149.338.012.967-1.08 5.34-6.566 5.389-9.632-.13-3.352-2.576-5.674-5.637-5.439zm-.004 14.016l-.487-.646c-2.725-3.03-4.31-5.947-4.375-7.623.02-2.719 2.113-5.151 4.888-5.188 2.645-.111 4.911 1.925 4.812 4.78.065 1.676-1.67 4.68-4.314 8.069l-.524.608z"/>
                <path d="M162.418 137.436c-.421 1.588-1.849 4.06-3.885 6.73-.08.137-.203.066-.203.066-.168-.28-.46-.632-.707-.775-.584-.703-1.089-1.544-1.549-2.175-.123-.072-.044-.21.159-.275 1.139-.258 2.189-.934 3.07-1.89.882-.956 1.853-1.494 2.992-1.752.079-.138.123.071.123.071z"/>
            </g>
            <g fill="#FFF" opacity=".799">
                <path d="M186.802 138.146c-2.041.157-3.714 1.861-3.66 3.955.052 2.094 2.897 5.314 3.6 6.084.086.05.172.1.224.008.646-.72 3.56-4.377 3.593-6.421-.086-2.235-1.717-3.783-3.757-3.626zm-.003 9.344l-.325-.43c-1.817-2.02-2.874-3.966-2.917-5.083.014-1.812 1.41-3.434 3.259-3.459 1.764-.074 3.274 1.284 3.208 3.187.043 1.118-1.113 3.12-2.876 5.38l-.349.405z"/>
                <path d="M189.383 141.911c-.281 1.059-1.233 2.707-2.59 4.487-.053.091-.136.044-.136.044-.112-.187-.306-.422-.471-.517-.39-.469-.726-1.029-1.032-1.45-.083-.048-.03-.14.105-.183.76-.172 1.46-.623 2.047-1.26.588-.637 1.235-.996 1.995-1.168.052-.092.082.047.082.047z"/>
            </g>
            <path fill="#F57153" d="M73.043 88.292c.195.26.432.474.69.647-.344-.15-.56-.366-.69-.647"/>
            <path fill="#C8EAFB" d="M80.323 87.027l-3.227-4.723c5.43-2.97 7.81-9.381 8.645-15.386.494-3.587.595-7.274-.443-10.75-1.026-3.465-3.316-6.695-6.646-8.285a35.222 35.222 0 0 1 .937-12.329c.14-.518.683-.505 1.19-.284 27.682 25.977 8.252 48.354-.456 51.757"/>
            <path fill="#F6F2E3" d="M81.333 87.73c-.194.077-.4.168-.605.245-2.15.89-4.835 1.715-6.2.709-.013 0-.025-.013-.037-.026a1.612 1.612 0 0 1-.387-.386c-.435-1.02-.06-2.219.641-3.096.036-.051.073-.09.12-.142.073-.09.158-.18.243-.257.906-.865 2.079-1.342 3.142-1.987l3.083 4.94z"/>
            <path fill="#EAD1B7" d="M184.076 152.698h5.296v-5.296h-5.296z"/>
            <path fill="#F6F2E3" d="M73.19 88.086c-.741-.61-.124-1.5.728-2.118-.796.6-1.221 1.42-.728 2.118"/>
            <path fill="#0B2146" d="M169.951 93.045h.002c-.194 0-.351-.17-.351-.38v-.005h-.001v.005M170.866 78.653h-2.119l.183-1.06h1.753z"/>
            <path fill="#0B2146" d="M172.425 89.21v9.468h-5.296v-9.503c0-.301.07-.597.202-.863l.594-1.194a1.94 1.94 0 0 0 .2-.779l.51-7.786h2.285l.51 7.795c.012.266.077.527.192.763l.608 1.25c.128.263.195.553.195.848"/>
            <path fill="#FFF" d="M167.129 95.5h4.237v-4.236h-4.237zM170.306 83.85h-2.118l.204-2.12h1.71z"/>
            <path fill="#0B2146" d="M151.24 131.514h-2.118l.156-1.06h1.807zM153.359 140.437v12.26h-6.355v-3.202h5.88v-5.474h-5.88v-3.608c0-.311.07-1.243.237-1.518l.715-1.805c.142-.239 1.273-4.517 1.273-4.517h1.893s1.13 4.278 1.274 4.517l.725 1.865c.154.25.238 1.194.238 1.482"/>
            <path fill="#FFF" d="M147.004 149.52h6.355v-6h-6.355zM158.655 127.277v2.118l-2.118-.24v-1.878z"/>
            <path fill="#0B2146" d="M163.951 145.37c0 1.64-.013 7.328-.013 7.328h-12.697v-1.456h9.082v-6.192h-9.07c.086-1.505.98-3.257 3.775-4.786a.729.729 0 0 0 .38-.666c-.037-1.185-.233-1.53-.233-2.628 0-1.209.87-2.812.87-4.169v-4.465l3.089.172v4.293c0 1.357.858 2.96.858 4.17 0 1.097-.184 1.442-.233 2.627 0 .27.147.53.393.666 2.953 1.616 3.799 3.528 3.799 5.106"/>
            <path fill="#FFF" d="M160.34 144.994v6.355h-9v-6.09c0-.088 0-.176.011-.265h8.988zM151.781 144.527c-.022.151-.022.302-.022.453v-.453h.022z"/>
            <g fill="#FFF" opacity=".8">
                <path d="M41.844 21.622c-2.298.177-4.18 2.096-4.12 4.454.059 2.357 3.261 5.983 4.052 6.85.097.055.194.111.253.009.726-.81 4.008-4.929 4.045-7.23-.097-2.517-1.932-4.26-4.23-4.083zm-.003 10.52l-.366-.484c-2.046-2.274-3.235-4.464-3.284-5.722.016-2.04 1.587-3.867 3.67-3.894 1.985-.084 3.686 1.445 3.61 3.588.05 1.258-1.252 3.513-3.238 6.056l-.392.457z"/>
                <path d="M44.864 26.235c-.301 1.193-1.366 3.038-2.9 5.022-.059.103-.156.047-.156.047-.134-.214-.366-.485-.56-.597-.462-.54-.866-1.183-1.232-1.668-.097-.056-.038-.158.118-.205.877-.177 1.68-.67 2.346-1.378a4.142 4.142 0 0 1 2.287-1.277c.06-.102.097.056.097.056z"/>
            </g>
            <g fill="#FFF" opacity=".8">
                <path d="M76.998 63.345c-1.313.101-2.389 1.198-2.355 2.545.034 1.347 1.864 3.419 2.316 3.914.055.032.11.064.145.005.415-.463 2.29-2.816 2.311-4.131-.055-1.438-1.104-2.434-2.417-2.333zm-.002 6.012l-.21-.277c-1.168-1.3-1.848-2.55-1.875-3.27.009-1.166.906-2.21 2.096-2.225 1.135-.048 2.107.826 2.064 2.05.028.72-.716 2.008-1.85 3.461l-.225.26z"/>
                <path d="M78.723 65.981c-.172.682-.78 1.736-1.656 2.87-.034.059-.09.027-.09.027-.076-.123-.209-.277-.32-.341-.264-.31-.495-.677-.704-.953-.055-.032-.021-.091.068-.118.501-.1.96-.383 1.34-.787a2.367 2.367 0 0 1 1.307-.73c.034-.058.055.032.055.032z"/>
            </g>
        </g>
    </g>
</svg>
