<svg xmlns="http://www.w3.org/2000/svg" xmlns:xlink="http://www.w3.org/1999/xlink" width="116" height="119" viewBox="0 0 116 119">
    <defs>
        <path id="a" d="M0 117.937h115.46V.005H0z"/>
    </defs>
    <g fill="none" fill-rule="evenodd">
        <path fill="#EEE" d="M4.41 32.869C9.292 18.91 18.561 9.34 32.347 4.855a80.704 80.704 0 0 1 50.602-.143C99.327 9.965 109.089 21.848 113 38.726a90.474 90.474 0 0 1-.328 43.244c-4.701 18.44-16.402 29.844-34.465 34.186a83.881 83.881 0 0 1-43.148-.684C10.4 108.452.01 83.894.001 59.702a82.203 82.203 0 0 1 4.408-26.833z"/>
        <g transform="translate(0 .71)">
            <path fill="#0B2146" d="M81.1 71.382l-.49-.53v-.008h.002v.007c0 .293.22.53.49.53H81.1zM84.133 35.223h-5.33a.782.782 0 0 1-.783-.781v-.778c0-.863.7-1.564 1.564-1.564h3.767c.863 0 1.564.7 1.564 1.564v.778c0 .431-.35.781-.782.781"/>
            <path fill="#0B2146" d="M88.39 61.625v23.46H74.546V61.54c0-.744.181-1.477.527-2.136l1.553-2.96a4.602 4.602 0 0 0 .522-1.93l1.333-19.29h5.974l1.335 19.312c.03.66.201 1.305.502 1.892l1.59 3.097c.334.65.508 1.37.508 2.1"/>
            <mask id="b" fill="#fff">
                <use xlink:href="#a"/>
            </mask>
            <path fill="#FFF" d="M74.426 78.435H86.44V66.423H74.426zM83.469 48.592h-5.953l.573-7.699h4.807z" mask="url(#b)"/>
            <path fill="#FFF" d="M78.783 72.429l-20.385-.652c-.004-2.547 1.038-5.576 1.685-8.498h17.044c.702 3.175 1.872 6.479 1.656 9.15" mask="url(#b)"/>
            <path fill="#0B2146" d="M78.783 72.429c-.133 1.703-.826 3.148-2.546 4.14-3.185 1.835-7.633 1.798-7.633 5.006 0-3.208-4.446-3.171-7.63-5.007-1.938-1.12-2.576-2.808-2.576-4.79l20.385.651z" mask="url(#b)"/>
            <path stroke="#0B2146" stroke-linecap="round" stroke-linejoin="round" d="M67.416 94.433V75.476" mask="url(#b)"/>
            <path fill="#0B2146" d="M75.427 96.105H61.78c0-.923 3.055-1.672 6.824-1.672 3.77 0 6.824.749 6.824 1.672" mask="url(#b)"/>
            <path fill="#FFF" d="M36.217 21.217h3.947l.373-5.133-4.693.922z" mask="url(#b)"/>
            <path fill="#0B2146" d="M41.283 21.217c0 7.37-.921 19.215 1.711 26.453 2.632 7.239 6.317 14.74 6.317 26.058v22.241H27.07V73.728c0-11.319 3.685-18.82 6.317-26.058 2.632-7.238 1.71-19.083 1.71-26.453h6.186z" mask="url(#b)"/>
            <path fill="#FFF" d="M27.07 89.455h15.726V73.728H27.07zM64.768 81.236l-20.16-.652c-.4-3.303.863-7.512 1.606-11.545h17.049c.793 4.304 2.179 8.81 1.505 12.197" mask="url(#b)"/>
            <path fill="#EF7153" d="M64.768 81.236c-.303 1.524-1.02 2.827-2.396 3.777-.399.275-.817.514-1.244.735-2.083 1.06-4.235 1.592-6.392 1.587-2.152 0-4.305-.528-6.389-1.592a10.622 10.622 0 0 1-1.242-.73c-1.566-1.083-2.281-2.62-2.497-4.429l20.16.652zM61.563 101.857H47.914c0-.923 3.056-1.673 6.825-1.673s6.824.75 6.824 1.673" mask="url(#b)"/>
            <path stroke="#EF7153" stroke-linecap="round" stroke-linejoin="round" d="M53.933 100.27V86.702" mask="url(#b)"/>
        </g>
    </g>
</svg>
