<svg xmlns="http://www.w3.org/2000/svg" xmlns:xlink="http://www.w3.org/1999/xlink" width="116" height="119" viewBox="0 0 116 119">
    <defs>
        <path id="a" d="M.652.56h55.542v59.804H.652z"/>
        <path id="c" d="M0 .2h62.961v62.961H0z"/>
    </defs>
    <g fill="none" fill-rule="evenodd">
        <path fill="#EEE" d="M0 59.697a82.174 82.174 0 0 1 4.41-26.833C9.297 18.906 18.57 9.336 32.36 4.85a80.765 80.765 0 0 1 50.622-.143c16.383 5.253 26.149 17.136 30.06 34.015a90.44 90.44 0 0 1-.327 43.243c-4.703 18.441-16.408 29.845-34.478 34.186a83.945 83.945 0 0 1-43.164-.684C10.403 108.448.01 83.89 0 59.697"/>
        <g transform="translate(26 35.146)">
            <mask id="b" fill="#fff">
                <use xlink:href="#a"/>
            </mask>
            <path fill="#F57153" d="M55.72 44.877a6.137 6.137 0 0 1-3.35 3.349L24.2 59.9a6.157 6.157 0 0 1-4.719-.012 6.171 6.171 0 0 1-3.337-3.337L1.122 20.3c-.597-1.464-.656-3.15 0-4.719l16.695-6.289L37.372.56a6.209 6.209 0 0 1 3.337 3.337L55.72 40.16a6.103 6.103 0 0 1 0 4.718" mask="url(#b)"/>
        </g>
        <path fill="#0B2146" d="M37.44 40.502a4.625 4.625 0 0 1 0-9.25 4.627 4.627 0 0 1 4.625 4.625 4.628 4.628 0 0 1-4.624 4.625m16.954-15.415H26.65v27.747c0 1.702.693 3.241 1.81 4.363l27.757 27.741a6.137 6.137 0 0 0 4.359 1.81c1.705 0 3.246-.69 4.36-1.804l21.563-21.566a6.155 6.155 0 0 0 1.813-4.365c0-1.705-.688-3.25-1.81-4.36L58.76 26.89a6.186 6.186 0 0 0-4.365-1.803"/>
        <g transform="translate(26 24.236)">
            <mask id="d" fill="#fff">
                <use xlink:href="#c"/>
            </mask>
            <path fill="#FFF" d="M11.44 7.666A3.978 3.978 0 0 0 7.47 11.64a3.979 3.979 0 0 0 3.972 3.975 3.98 3.98 0 0 0 3.975-3.975 3.98 3.98 0 0 0-3.975-3.975zm0 9.25a5.279 5.279 0 0 1-5.27-5.275 5.279 5.279 0 0 1 5.27-5.274 5.28 5.28 0 0 1 5.275 5.274 5.28 5.28 0 0 1-5.274 5.274zM1.3 1.498v27.1c0 1.466.575 2.853 1.62 3.903l27.755 27.74a5.47 5.47 0 0 0 3.9 1.62 5.48 5.48 0 0 0 3.901-1.613L60.04 38.683a5.48 5.48 0 0 0 1.623-3.907 5.437 5.437 0 0 0-1.617-3.897L32.3 3.113A5.53 5.53 0 0 0 28.395 1.5H1.299zm33.276 61.662a6.758 6.758 0 0 1-4.82-2L2.002 33.42A6.797 6.797 0 0 1 0 28.598V.85C0 .49.29.2.65.2h27.745c1.81 0 3.523.708 4.822 1.992l27.744 27.765a6.727 6.727 0 0 1 2 4.82 6.772 6.772 0 0 1-2.003 4.825L39.395 61.167a6.764 6.764 0 0 1-4.82 1.994z" mask="url(#d)"/>
        </g>
        <g fill="#FFF">
            <path d="M55.858 44.66l-9.674 9.62c-.13.13-.304.129-.432-.001l-1.939-1.95c-.13-.13-.13-.302.001-.431l7.986-7.94-1.709-1.719c-.129-.13-.142-.317-.013-.446l1.473-1.465c.13-.129.318-.114.446.015l3.863 3.885c.13.13.129.303-.002.432M57.732 59.367c-2.253 2.24-5.176 2.102-7.344-.078-1.508-1.516-1.733-3.418-1.369-4.612.044-.187.13-.244.318-.201l2.388.44c.202.029.302.13.287.345-.117.691.025 1.325.542 1.845.89.896 2.159.669 2.88-.05.664-.66.898-1.926.008-2.82a2.04 2.04 0 0 0-1.38-.61c-.202 0-.303-.044-.388-.188l-1.06-1.99c-.115-.174-.057-.29.102-.389l6.057-3.525c.144-.086.289-.085.418.045l4.437 4.462c.13.13.128.302-.002.432l-1.487 1.478c-.13.13-.303.13-.432 0l-3-3.018-1.732 1.002c-.1.014.345.174.833.665 1.982 1.993 1.743 4.959-.076 6.767M65.325 57.503a.653.653 0 0 0-.016.907c.258.26.66.26.921.003a.631.631 0 0 0 .002-.922.64.64 0 0 0-.907.012zM64.07 68.946a.64.64 0 0 0 .011.908.622.622 0 0 0 .893.002c.26-.258.276-.675.032-.921a.675.675 0 0 0-.936.011zm3.669-9.017c-1.098 1.09-2.826 1.087-3.931-.025-1.106-1.113-1.087-2.826.01-3.918 1.098-1.09 2.797-1.085 3.903.027 1.106 1.112 1.115 2.825.018 3.916zM66.48 71.373c-1.098 1.09-2.797 1.086-3.903-.026-1.09-1.097-1.115-2.825-.017-3.917a2.764 2.764 0 0 1 3.93.026c1.106 1.112 1.087 2.825-.01 3.917zm6.532-8.102l-15.2 2.937-.498-2.119 15.2-2.937.498 2.119z"/>
        </g>
    </g>
</svg>
