<?xml version="1.0" encoding="UTF-8"?>
<svg width="200px" height="160px" viewBox="0 0 200 160" version="1.1" xmlns="http://www.w3.org/2000/svg" xmlns:xlink="http://www.w3.org/1999/xlink">
    <!-- Generator: Sketch 54.1 (76490) - https://sketchapp.com -->
    <title>Card_Image/On_Demand/Available Copy</title>
    <desc>Created with Sketch.</desc>
    <defs>
        <polygon id="path-1" points="0.269047855 0.311395493 38.6858303 0.311395493 38.6858303 77.889868 0.269047855 77.889868"></polygon>
        <polygon id="path-3" points="0 0.0306028162 2.90801306 0.0306028162 2.90801306 1.7057994 0 1.7057994"></polygon>
        <polygon id="path-5" points="0.557801056 0.808202809 16.9941299 0.808202809 16.9941299 31.4311508 0.557801056 31.4311508"></polygon>
        <polygon id="path-7" points="0.342259617 0.110885088 10.6690852 0.110885088 10.6690852 10.1342045 0.342259617 10.1342045"></polygon>
        <polygon id="path-9" points="0.412404972 0.110885088 10.7392305 0.110885088 10.7392305 10.1342045 0.412404972 10.1342045"></polygon>
        <polygon id="path-11" points="0 0.815621 44.5708295 0.815621 44.5708295 65.665848 0 65.665848"></polygon>
        <polygon id="path-13" points="0.193597169 0.0997779768 17.2031564 0.0997779768 17.2031564 8.63070971 0.193597169 8.63070971"></polygon>
        <polygon id="path-15" points="0.264250996 0.497354838 8.19610345 0.497354838 8.19610345 5.76512033 0.264250996 5.76512033"></polygon>
    </defs>
    <g id="symbols" stroke="none" stroke-width="1" fill="none" fill-rule="evenodd">
        <g id="Card_Image/On_Demand/Available-Copy">
            <g id="Image" transform="translate(-5.000000, -9.000000)">
                <path d="M81.2570027,149.491074 C92.3573928,151.225719 103.587528,151.873549 114.821591,152.667099 C119.920211,153.007656 124.929405,152.980867 129.752821,154.912174 C134.253891,156.685582 137.840956,159.952526 142.415737,161.510398 C146.025442,162.667436 149.846461,162.813564 153.498449,162.589301 C169.137331,161.586104 183.6481,154.134669 192.404802,142.67835 C200.472563,132.214677 203.601946,118.505168 201.021409,105.377931 C199.454023,97.3844038 195.275401,89.8732964 194.104073,81.8221302 C192.841355,73.3307579 196.225165,66.1088606 198.158415,58.1764229 C199.519651,52.6240209 200.080912,46.8954551 199.686918,41.1303574 C199.437351,37.7726945 198.948971,34.4058985 197.117134,31.3516507 C192.206357,23.230262 180.463237,21.2526808 170.615845,21.7495092 C158.465813,22.3766334 146.458243,25.3383319 135.936591,30.3220565 C127.614402,34.2981173 119.42289,40.1715905 109.756314,41.475971 C98.9015617,42.9532676 90.2788349,35.7817007 80.3234055,32.2712119 C58.1639762,24.4363904 31.8696684,37.2600035 22.5733124,55.2463512 C11.1639226,77.4462163 13.5170292,114.583869 36.498871,132.276142 C49.005474,141.925367 64.9626736,146.829944 80.6958422,149.324043 C80.9366202,149.406036 81.0958293,149.412125 81.2570027,149.491074 Z" id="Path" fill="#D6D6D6" fill-rule="nonzero" opacity="0.5" transform="translate(108.905206, 92.178043) rotate(-165.000000) translate(-108.905206, -92.178043) "></path>
                <g id="Group-2" transform="translate(18.000000, 25.877551)">
                    <g id="Group-47" transform="translate(112.137615, 22.601573)">
                        <path d="M25.0302699,116.49615 C27.8743269,116.360754 30.6045033,115.778067 33.1638589,114.80934 C33.8353107,114.561113 34.4919729,114.28065 35.1353243,113.976009 L35.1663826,111.416376 C34.4823596,111.97408 33.7613623,112.481815 33.0093066,112.929106 C30.6155956,114.354796 27.895772,115.22117 24.9866403,115.361402 L25.0302699,116.49615 Z" id="Fill-1" fill="#393939"></path>
                        <path d="M37.6778285,116.49615 C40.5218856,116.360754 43.252062,115.778067 45.8114175,114.80934 C46.4828694,114.561113 47.1395315,114.28065 47.782883,113.976009 L47.8139413,111.416376 C47.1299182,111.97408 46.4089209,112.481815 45.6568653,112.929106 C43.2631543,114.354796 40.5433306,115.22117 37.634199,115.361402 L37.6778285,116.49615 Z" id="Fill-3" fill="#393939"></path>
                        <path d="M0,54.2456335 C0,54.6021706 0.144935245,54.9258688 0.374481334,55.1596508 C0.614212063,55.3942147 0.932286167,55.5388624 1.29579943,55.5388624 L2.46781633,55.5388624 L2.46781633,52.8296496 L1.17280033,52.9531866 C0.502181036,53.0141732 0,53.5771265 0,54.2456335" id="Fill-5" fill="#777777"></path>
                        <path d="M45.9630791,14.9006704 L45.9630791,21.490066 L56.4033241,20.9532434 L57.7793334,36.5743728 L60.4509846,36.5743728 L60.4615,17.5470831 C60.4615,16.2791982 59.53014,15.2391555 58.3681933,15.2104703 L45.9630791,14.9006704 Z" id="Fill-7" fill="#777777"></path>
                        <path d="M2.46781633,52.6771757 L2.46781633,55.5388624 L21.377789,55.5388624 C22.5098217,55.5388624 23.4430548,54.5618421 23.5015694,53.3172355 L24.0612092,41.3154952 L18.0979699,41.3154952 L18.3072722,51.0460557 L2.46781633,52.6771757 Z" id="Fill-9" fill="#777777"></path>
                        <path d="M17.5837438,32.275134 L17.7801249,41.5876378 L23.7148645,41.5876378 L23.9119922,37.3096318 L36.2182886,49.4431336 L52.1326199,39.1815166 L41.7266648,21.9361392 L45.9156292,21.7188228 L45.9156292,15.100549 L38.182099,14.9013423 C37.7131739,14.8889948 37.2502224,15.0470431 36.8723942,15.3582007 L18.445431,30.3266944 C17.8869024,30.7843761 17.5680632,31.5062947 17.5837438,32.275134" id="Fill-11" fill="#949494"></path>
                        <path d="M57.6852066,36.5743728 L57.8186747,38.0270908 C57.8857991,38.7599716 58.4922596,39.3110588 59.1931624,39.2825262 C59.5490774,39.2654066 59.8659667,39.102363 60.0938772,38.8520912 C60.3225682,38.6083411 60.4615,38.2716561 60.4615,37.8991016 L60.4615,36.5743728 L57.6852066,36.5743728 Z" id="Fill-13" fill="#7C7C7C"></path>
                        <polygon id="Fill-15" fill="#F47153" points="37.634199 14.9006704 37.634199 14.9054115 37.6428363 14.9006704"></polygon>
                        <g id="Group-19" transform="translate(17.583191, 38.606282)">
                            <mask id="mask-2" fill="white">
                                <use xlink:href="#path-1"></use>
                            </mask>
                            <g id="Clip-18"></g>
                            <path d="M0.269047855,35.3782339 L17.6394948,77.8905239 L19.4982727,77.8905239 L7.48065903,37.7911801 L26.0036227,20.9891057 L19.4982727,35.3077231 L29.1847777,77.8905239 L31.1120957,77.8905239 L27.2090346,35.0207605 L36.7100343,18.4933504 C39.5402937,13.5723505 39.3115784,7.24359374 36.1415985,2.58577964 L34.7663263,0.311395493 L18.8873717,10.5330059 L0.269047855,35.3782339 Z" id="Fill-17" fill="#393939" mask="url(#mask-2)"></path>
                        </g>
                        <polygon id="Fill-22" fill="#777777" points="31.4646581 19.8113417 27.0987058 23.3669604 24.4285578 19.4280525 20.3526773 22.7479892 13.2645127 12.2923499 21.7063456 5.4184256 27.9837967 14.6736358 28.7945101 15.8724338"></polygon>
                        <polygon id="Fill-24" fill="#393939" points="23.1033562 12.5301092 25.2951173 10.7660893 21.6258147 5.4184256 19.4340536 7.18244547"></polygon>
                        <path d="M21.1896847,11.3744062 C21.5456023,11.8996839 22.2218458,12.0093938 22.7004413,11.6187601 C23.1782796,11.2281263 23.2782395,10.4859223 22.9230792,9.96064459 C22.5671616,9.43536691 21.8909181,9.32565701 21.4123225,9.71629073 C20.933727,10.1069245 20.8337671,10.8491285 21.1896847,11.3744062" id="Fill-26" fill="#7C7C7C"></path>
                        <polygon id="Fill-28" fill="#393939" points="26.2205485 1.34089469 20.3278248 6.26965584 20.2830699 6.31023882 19.6565018 6.83284818 19.4924006 6.97364626 18.6345991 7.6850907 13.2565563 12.1823471 13.2490972 12.1914576 12.3390816 10.8571887 20.9767703 3.62762121 21.4466964 3.22924546 21.5660427 3.12985858 25.3105329 0"></polygon>
                        <path d="M20.9764388,3.72133728 L12.2812957,10.8368512 L12.2737869,10.8213632 L11.4027709,9.5741715 C11.3952621,9.56601992 11.3877533,9.5489016 11.3877533,9.54156518 C10.4041059,8.090584 10.6744212,6.05268907 12.0034716,4.96037739 L17.6575672,0.330280128 C18.3258468,-0.215875712 19.2794592,-0.0691472774 19.7825461,0.655528158 L19.7975636,0.672646475 L19.2043716,1.16989284 L20.9764388,3.72133728 Z" id="Fill-30" fill="#393939"></path>
                        <polygon id="Fill-32" fill="#FFFFFF" points="21.5933928 3.23552138 21.4680434 3.33328768 20.9744802 3.7251676 19.1255765 1.17509661 19.7444892 0.6773032"></polygon>
                        <polygon id="Fill-34" fill="#FFFFFF" points="21.3651198 3.386516 20.9826083 3.71839457 20.9764388 3.71162153"></polygon>
                        <path d="M13.5729898,9.80205411 L12.3267425,10.8368512 L11.4136505,9.51170322 L11.4522101,9.47962957 C12.1192917,8.92678121 13.069401,9.07111261 13.5729898,9.80205411" id="Fill-36" fill="#777777"></path>
                        <g id="Group-40" transform="translate(0.000000, 37.251676)">
                            <mask id="mask-4" fill="white">
                                <use xlink:href="#path-3"></use>
                            </mask>
                            <g id="Clip-39"></g>
                            <polygon id="Fill-38" fill="#393939" mask="url(#mask-4)" points="-0.00015423852 1.7057994 2.90801306 1.2229951 2.46226374 0.0306028162 0.0553716288 0.431227659"></polygon>
                        </g>
                        <path d="M7.09497194,58.6875942 L1.87691142,59.6026816 L0.436666389,50.0346712 C0.391423089,49.7326352 0.414044739,49.4305992 0.504531338,49.1457058 L0.911721031,47.7742992 C0.98712653,47.5130788 1.01728873,47.2428791 0.98712653,46.9661488 L0.308477041,39.0070923 L0.308477041,38.9989292 L2.56310146,38.6062824 L3.0532372,40.8919602 L1.23596468,41.2103224 L1.49234337,44.393945 L3.72434614,43.9939514 L4.24464408,46.3865662 C4.29742793,46.6641128 4.40299563,46.9163537 4.55380662,47.1375746 L5.32294271,48.247761 C5.49637536,48.4918387 5.60948361,48.7775484 5.65472691,49.0795844 L5.9563489,51.0713893 L1.46972172,51.8640297 L2.20115506,56.7619106 L6.68024169,55.9782497 L7.09497194,58.6875942 Z" id="Fill-41" fill="#393939"></path>
                        <polygon id="Fill-43" fill="#FFFFFF" points="6.78649489 56.0927064 6.73390354 56.1017779 2.27115116 56.8934688 1.5423852 51.9454007 6.01265063 51.1446384 6.05021588 51.1363916"></polygon>
                        <polygon id="Fill-45" fill="#FFFFFF" points="3.70172449 43.9765547 3.68685812 43.9765547 1.48663634 44.3633596 1.23390816 41.2847087 3.02530495 40.9768436 3.2483004 41.980168"></polygon>
                    </g>
                    <g id="Group-34" transform="translate(60.889908, 0.022280)">
                        <path d="M30.1722127,21.9644526 L36.0308646,34.7386173 L21.7850654,42.4617257 L15.9675841,29.7796133 C16.6907881,29.295705 17.2998021,28.6724514 17.7767594,27.9613681 C18.5978407,26.7511752 19.0398419,25.2800265 19.0359579,23.7759416 C21.9303277,24.7547369 25.1393029,24.6381935 28.099701,23.2160268 C28.2861338,23.1256635 28.4725666,23.0327666 28.6582227,22.9322691 C29.1887795,22.6442888 29.6968089,22.3216833 30.1722127,21.9644526" id="Fill-1" fill="#393939"></path>
                        <path d="M22.2331257,52.1938556 L20.2064454,62.469939 C19.8296957,64.3658798 17.6538691,65.0279811 16.4304036,63.6193267 L5.35551629,50.8814761 L4.40315521,49.7802259 C3.98290452,49.2980067 3.93862672,48.5641214 4.29284911,48.022786 C4.54220303,47.6368417 4.9344888,47.4383802 5.32832816,47.4383802 C5.62739751,47.4383802 5.92646685,47.5532345 6.16960634,47.7812541 L7.22761269,48.7811623 L16.7512235,57.7930036 L17.3276116,46.8607305 L22.2331257,52.1938556 Z" id="Fill-3" fill="#B8B8B8"></path>
                        <path d="M45.8327263,59.3400744 L30.8217757,62.7291213 L22.8253606,49.1720892 L22.2334364,52.1937712 L17.3271456,46.8606461 L17.4964887,42.2749185 C17.5423201,41.0301004 18.2080407,39.9111153 19.2334213,39.3562676 L37.2389494,29.6071629 L38.3241438,27.2661617 L42.189518,31.4676339 L39.8466787,37.6258522 L45.8327263,59.3400744 Z" id="Fill-5" fill="#949494"></path>
                        <g id="Group-9" transform="translate(30.295336, 0.036314)">
                            <mask id="mask-6" fill="white">
                                <use xlink:href="#path-5"></use>
                            </mask>
                            <g id="Clip-8"></g>
                            <path d="M16.8273502,18.45768 L11.8938712,31.4311508 L8.02927389,27.2296785 L12.3980167,17.7964232 L0.864038519,3.10098213 C0.520691378,2.66267778 0.459323902,2.03604614 0.714115446,1.53018043 C0.952594117,1.06062895 1.38993448,0.808118357 1.8389269,0.808118357 C2.15974674,0.808118357 2.48056658,0.940707533 2.73535812,1.2117975 L16.3410712,15.8405217 C16.9764965,16.5245805 17.1691437,17.5591139 16.8273502,18.45768" id="Fill-7" fill="#B8B8B8" mask="url(#mask-6)"></path>
                        </g>
                        <polygon id="Fill-10" fill="#393939" points="20.9450301 122.189793 20.3298018 138.401142 18.3916771 138.401142 17.2792945 122.189793"></polygon>
                        <polygon id="Fill-12" fill="#393939" points="43.0327382 138.401395 41.0223707 138.401395 37.3022588 122.190046 41.5102033 122.190046"></polygon>
                        <polygon id="Fill-14" fill="#393939" points="39.0125471 95.5940931 41.5099703 122.189624 37.3020258 122.189624 31.1551798 95.4319458 33.960994 77.4192419 21.8972358 96.9486984 20.9448748 122.189624 17.2791391 122.189624 15.3907298 94.6913044 30.8211543 62.732246 45.8321049 59.3423546"></polygon>
                        <path d="M31.8267264,35.0280333 C31.8267264,37.7642686 29.7837332,39.9769032 27.274658,39.9769032 C25.4802419,39.9769032 23.934403,38.8536955 23.1886716,37.2153325 L25.728819,35.8387697 L24.5558458,33.2798831 L21.704977,34.8506848 L16.3528009,23.1794592 L25.1384484,20.8063664 L29.5895324,30.5098672 L27.6164515,31.5992941 L28.7971928,34.1835163 L31.3373402,32.8069535 C31.6480616,33.474122 31.8267264,34.2350318 31.8267264,35.0280333" id="Fill-16" fill="#B8B8B8"></path>
                        <path d="M29.6578911,20.842765 L30.172135,21.9642837 C29.6967313,22.3215144 29.1887018,22.6441199 28.658145,22.9321002 C28.472489,23.0325977 28.2860561,23.1254946 28.0996233,23.2167024 C25.1392252,24.6380246 21.93025,24.754568 19.0358802,23.7757727 C19.0397642,25.2798576 18.597763,26.7510063 17.7774585,27.9611992 C17.2997244,28.6722825 16.6907105,29.2955361 15.9675064,29.7794444 L15.4113151,28.5667179 C14.3727289,26.3034122 14.3338887,23.7825289 15.1099154,21.5960742 C15.5029779,20.4796227 16.1127687,19.4476229 16.909769,18.583682 C17.5001397,17.941849 18.1922716,17.3912239 18.9815039,16.9630538 C22.9167904,14.8298037 27.6964623,16.5678198 29.6578911,20.842765" id="Fill-18" fill="#393939"></path>
                        <g id="Group-22" transform="translate(9.321642, 128.402905)">
                            <mask id="mask-8" fill="white">
                                <use xlink:href="#path-7"></use>
                            </mask>
                            <g id="Clip-21"></g>
                            <path d="M10.6690852,0.110885088 C10.0872594,5.75225893 5.69132843,10.1344579 0.342259617,10.1344579 L0.342259617,8.87612746 C4.79955803,8.87612746 8.41014064,4.95081225 8.41014064,0.110885088 L10.6690852,0.110885088 Z" id="Fill-20" fill="#393939" mask="url(#mask-8)"></path>
                        </g>
                        <g id="Group-25" transform="translate(30.295336, 128.402905)">
                            <mask id="mask-10" fill="white">
                                <use xlink:href="#path-9"></use>
                            </mask>
                            <g id="Clip-24"></g>
                            <path d="M10.7392305,0.110885088 C10.1574047,5.75225893 5.76147379,10.1344579 0.412404972,10.1344579 L0.412404972,8.87612746 C4.86970338,8.87612746 8.47950919,4.95081225 8.47950919,0.110885088 L10.7392305,0.110885088 Z" id="Fill-23" fill="#393939" mask="url(#mask-10)"></path>
                        </g>
                        <polygon id="Fill-26" fill="#FFFFFF" points="6.36101072 44.3787794 6.15360419 46.2612079 0.190860617 46.1117283 0.000543762441 44.3787794"></polygon>
                        <polygon id="Fill-28" fill="#393939" points="6.15391491 46.2607856 5.51460564 52.0592396 0.847570286 52.0651512 0.190394535 46.1113061"></polygon>
                        <polygon id="Fill-30" fill="#FFFFFF" points="4.82938728 48.8140984 3.99432353 51.0047756 1.98007209 50.0977643 2.85708323 47.7939218"></polygon>
                        <polygon id="Fill-32" fill="#FFFFFF" points="2.85094648 45.7552577 3.68523343 47.9459349 1.67020518 48.8537907 0.793194041 46.5499482"></polygon>
                    </g>
                    <g id="Group-38" transform="translate(0.550459, 12.378768)">
                        <path d="M47.572615,126.543917 C44.6219256,126.400646 41.7893867,125.784069 39.1340732,124.758999 C38.4374466,124.496336 37.7561642,124.199561 37.0886916,123.877201 L37.0564687,121.168698 C37.7661379,121.758838 38.5141676,122.296104 39.29442,122.76941 C41.7778785,124.278018 44.5996766,125.194782 47.6178803,125.34317 L47.572615,126.543917 Z" id="Fill-1" fill="#393939"></path>
                        <path d="M0,93.5193677 C0.128124055,90.2386337 0.682816819,87.090937 1.60577034,84.1393851 C1.84207099,83.3650397 2.10906004,82.6068977 2.39906538,81.8649589 L4.83495684,81.8299939 C4.30404759,82.6188369 3.82147255,83.4494673 3.39567105,84.3176209 C2.03770952,87.0772922 1.21372608,90.2139024 1.07946434,93.5688303 L0,93.5193677 Z" id="Fill-3" fill="#393939"></path>
                        <path d="M51.2693392,36.9062817 L45.0649126,35.5435022 L44.0284121,28.2946748 L50.7952035,30.7021383 L64.9878196,22.9203089 C65.6629643,22.5766292 66.4577937,22.9348066 66.7278516,23.7040351 C66.944972,24.3231702 66.7508679,25.0275857 66.2583192,25.4062303 L51.2693392,36.9062817 Z" id="Fill-5" fill="#B8B8B8"></path>
                        <path d="M8.64077831,59.4888521 C8.31241247,59.6227422 7.9656336,59.5963053 7.67255941,59.450476 C7.37564918,59.2935602 7.13474526,59.0223688 7.01199168,58.6522522 L6.61611137,57.4532108 L9.11031078,56.434111 L9.43560778,57.803713 C9.60516117,58.5115396 9.25684787,59.2372752 8.64077831,59.4888521" id="Fill-7" fill="#B8B8B8"></path>
                        <path d="M40.0477435,34.4202751 L43.9305928,61.6963333 L24.1994884,61.6963333 L17.2539371,34.4569456 L11.5719805,36.6273298 L9.73988323,29.4484323 L14.5779089,26.8337376 C14.9998744,26.6060391 15.4632691,26.4874995 15.9328016,26.4874995 L38.4335338,26.4874995 C38.7534603,26.4874995 39.0710852,26.5429317 39.3756676,26.6503849 L44.0287957,28.2988535 L45.0629946,35.5451225 L40.0477435,34.4202751 Z" id="Fill-9" fill="#949494"></path>
                        <path d="M5.74018781,38.8458974 L9.10900652,56.4324054 L6.61480711,57.4532108 L0.199397855,38.0468208 C-0.349924439,36.3847073 0.322151441,34.5307131 1.75529955,33.7572206 L9.73735144,29.4480059 L11.5694487,36.6269034 L5.74018781,38.8458974 Z" id="Fill-11" fill="#B8B8B8"></path>
                        <g id="Group-15" transform="translate(0.000000, 60.878495)">
                            <mask id="mask-12" fill="white">
                                <use xlink:href="#path-11"></use>
                            </mask>
                            <g id="Clip-14"></g>
                            <polygon id="Fill-13" fill="#393939" mask="url(#mask-12)" points="44.5708295 26.6512946 38.5988675 65.6661891 36.6846788 65.6661891 38.1454465 26.7280469 33.8613464 9.63019509 29.6685442 33.7943743 -0.000230162973 21.1293937 -0.000230162973 19.6096984 23.242394 25.3192159 24.199872 0.815621 43.9325108 0.815621"></polygon>
                        </g>
                        <path d="M31.5679258,26.4851969 L32.9335594,26.4851969 C32.9335594,29.2482794 30.9234695,31.4826238 28.4377094,31.4826238 C25.9519492,31.4826238 23.9418593,29.2482794 23.9418593,26.4851969 L25.8829004,26.4851969 L25.3458534,22.6569633 L25.3381813,22.6569633 L24.3561526,15.7739885 L23.3894682,8.98482204 L23.3894682,8.96009075 L26.2741774,8.45693685 L33.8081787,7.13509185 L33.8081787,7.15214792 L35.7568919,20.8225835 L30.8927811,21.6753868 L31.5679258,26.4851969 Z" id="Fill-16" fill="#B8B8B8"></path>
                        <polygon id="Fill-18" fill="#393939" points="27.2460022 15.2688731 24.3589913 15.776291 23.3900052 8.96665733 26.2770161 8.45923941"></polygon>
                        <polygon id="Fill-20" fill="#F47153" points="33.8084856 7.13475073 33.8084856 7.1526596 26.2744843 8.48217982 23.389775 8.98533372 23.389775 8.96060243 26.2744843 8.45744853"></polygon>
                        <g id="Group-24" transform="translate(22.689304, 0.329466)">
                            <mask id="mask-14" fill="white">
                                <use xlink:href="#path-13"></use>
                            </mask>
                            <g id="Clip-23"></g>
                            <path d="M11.1191818,6.82276689 L11.1191818,6.80485802 L3.58518048,8.12755581 L0.700471224,8.63070971 L0.462636152,6.94983457 L0.23247318,5.32183322 C-0.0360502882,3.4371381 1.11476457,1.67183543 2.81029847,1.37335431 L9.95302272,0.119733572 C10.7969536,-0.0252429753 11.5948519,0.61435944 11.7252776,1.55244298 L11.7252776,1.57887988 L5.19632129,2.7207834 L5.67199143,6.03818792 L12.2009478,4.88605077 L16.9576492,4.05115642 L17.2031564,5.75676286 L11.1191818,6.82276689 Z" id="Fill-22" fill="#676767" mask="url(#mask-14)"></path>
                        </g>
                        <polygon id="Fill-25" fill="#FFFFFF" points="34.8900214 5.21594349 28.3610651 6.36808064 27.8853949 3.05067611 34.4143513 1.90791979 34.4220234 1.90791979"></polygon>
                        <path d="M27.9001254,12.896204 C27.9944922,13.5588321 27.5863365,14.1813785 26.9894472,14.2854205 C26.3933251,14.3903153 25.8332619,13.9374767 25.7396623,13.273143 C25.6452954,12.6105149 26.0534511,11.9879686 26.6495732,11.8839266 C27.2464625,11.7790318 27.8065258,12.2327231 27.9001254,12.896204" id="Fill-27" fill="#B4B4B4"></path>
                        <g id="Group-31" transform="translate(62.144003, 13.974318)">
                            <mask id="mask-16" fill="white">
                                <use xlink:href="#path-15"></use>
                            </mask>
                            <g id="Clip-30"></g>
                            <path d="M8.12651751,5.76512033 L0.294071558,5.48369527 C0.138327946,4.05695548 0.629342288,2.23963182 0.917813213,0.497354838 L7.54190356,0.497354838 C7.85032195,2.35646586 8.38813609,4.30256281 8.12651751,5.76512033" id="Fill-29" fill="#FFFFFF" mask="url(#mask-16)"></path>
                        </g>
                        <path d="M70.2705201,19.7394382 C70.153137,20.3969495 69.8746398,20.9606524 69.3398945,21.3708507 C69.1841509,21.4902432 69.0222696,21.5925796 68.8565522,21.6880935 C68.0471458,22.1451961 67.210887,22.3754529 66.3730938,22.3737473 C65.536835,22.3737473 64.7005762,22.1451961 63.8911697,21.6855351 C63.7254524,21.5925796 63.5628039,21.4902432 63.4078275,21.3708507 C62.8001972,20.9026618 62.5217,20.2391809 62.4380741,19.4580131 L70.2705201,19.7394382 Z" id="Fill-32" fill="#393939"></path>
                        <path d="M69.0252617,28.6447505 L63.7223068,28.6447505 C63.7223068,28.2456386 64.9091805,27.9224262 66.3737843,27.9224262 C67.838388,27.9224262 69.0252617,28.2456386 69.0252617,28.6447505" id="Fill-34" fill="#393939"></path>
                        <path d="M66.3737843,27.9593526 L66.3737843,22.0997416" id="Stroke-36" stroke="#393939" stroke-width="0.571" stroke-linecap="round" stroke-linejoin="round"></path>
                    </g>
                </g>
            </g>
            <g id="Group" transform="translate(134.500000, 145.000000) rotate(-315.000000) translate(-134.500000, -145.000000) translate(119.000000, 131.000000)">
                <path d="M6.71156755,10.7686334 L3.16119135,8.3078326 C1.26765738,7.04014735 0.873171133,4.50477686 2.29332161,2.78967329 C3.63457484,1 6.3170813,0.627151398 8.13171803,1.96940637 L11.6820942,4.43020714" id="Path" stroke="#393939" stroke-width="0.6622"></path>
                <g transform="translate(0.000000, 0.745697)">
                    <path d="M5.29141707,11.8126095 L1.74104087,9.35180868 C-0.152493102,8.08412344 -0.546979346,5.54875294 0.873171133,3.83364938 C2.29332161,2.11854581 4.89693082,1.67112748 6.71156755,3.01338245 L10.2619437,5.47418322" id="Path" stroke="#393939" stroke-width="0.6622"></path>
                    <polygon id="Rectangle" fill="#BABABA" fill-rule="nonzero" transform="translate(16.123386, 15.116466) rotate(-53.744314) translate(-16.123386, -15.116466) " points="9.56573475 4.42183227 22.1196882 4.76235659 22.6810373 25.8110991 10.1270839 25.4705747"></polygon>
                    <polygon id="Rectangle" fill="#393939" fill-rule="nonzero" transform="translate(21.069123, 8.702903) rotate(-53.744314) translate(-21.069123, -8.702903) " points="19.0004613 -1.86996717 22.5764359 -1.77296934 23.1377851 19.2757731 19.5618105 19.1787753"></polygon>
                    <polygon id="Path" fill="#FFFFFF" fill-rule="nonzero" opacity="0.08" points="27.0670578 12.8565855 28.5661055 16.0630835 30.7752284 13.2294341"></polygon>
                </g>
                <g transform="translate(11.918786, 12.185458)" fill="#FFFFFF">
                    <path d="M1.10456148,1.49139441 C0.157794498,2.68450993 0.473383493,4.3996135 1.73573947,5.29445015 C2.99809546,6.18928679 6.46957441,5.89100791 7.17964965,5.81643819 C7.25854689,5.81643819 7.33744414,5.74186847 7.33744414,5.66729875 C7.17964965,4.99617127 6.46957441,1.78967329 5.12832118,0.894836645 C3.86596519,-3.41925377e-11 2.05132847,0.223709161 1.10456148,1.49139441 Z M6.86406065,5.51815931 L6.46957441,5.51815931 C4.33934869,5.66729875 2.60360921,5.44358959 1.89353397,4.99617127 C0.788972488,4.25047406 0.552280742,2.68450993 1.34125323,1.64053385 C2.13022572,0.596557763 3.78706794,0.372848602 4.89162943,1.11854581 C5.60170467,1.56596413 6.31177991,3.05735854 6.7851634,5.07074099 L6.86406065,5.51815931 Z" id="Shape"></path>
                    <path d="M4.97052668,1.71510357 C5.44391017,2.31166133 5.99619091,3.57934658 6.39067716,5.07074099 C6.39067716,5.14531071 6.39067716,5.14531071 6.31177991,5.14531071 C6.15398541,5.14531071 5.91729366,5.14531071 5.75949917,5.14531071 C5.20721842,5.14531071 4.73383493,5.14531071 4.33934869,5.14531071 C4.26045144,5.14531071 4.26045144,5.07074099 4.26045144,4.99617127 C4.57604043,4.47418322 4.65493768,3.87762546 4.57604043,3.2810677 C4.49714318,2.68450993 4.57604043,2.08795217 4.89162943,1.64053385 C4.89162943,1.71510357 4.97052668,1.64053385 4.97052668,1.71510357 Z" id="Path"></path>
                </g>
            </g>
            <g id="Group" transform="translate(17.874356, 105.423394) rotate(-300.000000) translate(-17.874356, -105.423394) translate(2.374356, 91.423394)">
                <path d="M6.71156755,10.7686334 L3.16119135,8.3078326 C1.26765738,7.04014735 0.873171133,4.50477686 2.29332161,2.78967329 C3.63457484,1 6.3170813,0.627151398 8.13171803,1.96940637 L11.6820942,4.43020714" id="Path" stroke="#393939" stroke-width="0.6622"></path>
                <g transform="translate(0.000000, 0.745697)">
                    <path d="M5.29141707,11.8126095 L1.74104087,9.35180868 C-0.152493102,8.08412344 -0.546979346,5.54875294 0.873171133,3.83364938 C2.29332161,2.11854581 4.89693082,1.67112748 6.71156755,3.01338245 L10.2619437,5.47418322" id="Path" stroke="#393939" stroke-width="0.6622"></path>
                    <polygon id="Rectangle" fill="#BABABA" fill-rule="nonzero" transform="translate(16.123386, 15.116466) rotate(-53.744314) translate(-16.123386, -15.116466) " points="9.56573475 4.42183227 22.1196882 4.76235659 22.6810373 25.8110991 10.1270839 25.4705747"></polygon>
                    <polygon id="Rectangle" fill="#393939" fill-rule="nonzero" transform="translate(21.069123, 8.702903) rotate(-53.744314) translate(-21.069123, -8.702903) " points="19.0004613 -1.86996717 22.5764359 -1.77296934 23.1377851 19.2757731 19.5618105 19.1787753"></polygon>
                    <polygon id="Path" fill="#FFFFFF" fill-rule="nonzero" opacity="0.08" points="27.0670578 12.8565855 28.5661055 16.0630835 30.7752284 13.2294341"></polygon>
                </g>
                <g transform="translate(11.052761, 11.685458)" fill="#FFFFFF">
                    <path d="M1.10456148,1.49139441 C0.157794498,2.68450993 0.473383493,4.3996135 1.73573947,5.29445015 C2.99809546,6.18928679 6.46957441,5.89100791 7.17964965,5.81643819 C7.25854689,5.81643819 7.33744414,5.74186847 7.33744414,5.66729875 C7.17964965,4.99617127 6.46957441,1.78967329 5.12832118,0.894836645 C3.86596519,-2.60902411e-15 2.05132847,0.223709161 1.10456148,1.49139441 Z M6.86406065,5.51815931 L6.46957441,5.51815931 C4.33934869,5.66729875 2.60360921,5.44358959 1.89353397,4.99617127 C0.788972488,4.25047406 0.552280742,2.68450993 1.34125323,1.64053385 C2.13022572,0.596557763 3.78706794,0.372848602 4.89162943,1.11854581 C5.60170467,1.56596413 6.31177991,3.05735854 6.7851634,5.07074099 L6.86406065,5.51815931 Z" id="Shape"></path>
                    <path d="M4.97052668,1.71510357 C5.44391017,2.31166133 5.99619091,3.57934658 6.39067716,5.07074099 C6.39067716,5.14531071 6.39067716,5.14531071 6.31177991,5.14531071 C6.15398541,5.14531071 5.91729366,5.14531071 5.75949917,5.14531071 C5.20721842,5.14531071 4.73383493,5.14531071 4.33934869,5.14531071 C4.26045144,5.14531071 4.26045144,5.07074099 4.26045144,4.99617127 C4.57604043,4.47418322 4.65493768,3.87762546 4.57604043,3.2810677 C4.49714318,2.68450993 4.57604043,2.08795217 4.89162943,1.64053385 C4.89162943,1.71510357 4.97052668,1.64053385 4.97052668,1.71510357 Z" id="Path"></path>
                </g>
            </g>
        </g>
    </g>
</svg>