<svg width="145" height="145" viewBox="0 0 145 145" fill="none" xmlns="http://www.w3.org/2000/svg">
<g clip-path="url(#clip0)">
<path d="M72.1807 144.84C112.221 144.84 144.681 112.381 144.681 72.3403C144.681 32.2997 112.221 -0.159668 72.1807 -0.159668C32.14 -0.159668 -0.319336 32.2997 -0.319336 72.3403C-0.319336 112.381 32.14 144.84 72.1807 144.84Z" fill="#FFD249"/>
<path fill-rule="evenodd" clip-rule="evenodd" d="M33.7378 52.9595H63.966C65.0029 52.9595 65.8005 53.757 65.8005 54.7939V56.07C65.8005 57.1069 65.0029 57.9045 63.966 57.9045H33.7378C32.7009 57.9045 31.9033 57.1069 31.9033 56.07V54.7939C31.9033 53.757 32.7807 52.9595 33.7378 52.9595Z" fill="#123156"/>
<path fill-rule="evenodd" clip-rule="evenodd" d="M39.7192 52.9595H69.9475C70.9843 52.9595 71.7819 53.757 71.7819 54.7939V56.07C71.7819 57.1069 70.9843 57.9045 69.9475 57.9045H39.7192C38.6823 57.9045 37.8848 57.1069 37.8848 56.07V54.7939C37.8848 53.757 38.7621 52.9595 39.7192 52.9595Z" fill="#09547B"/>
<path d="M70.1872 95.3906H65.7207V115.41H70.1872V95.3906Z" fill="#A2B0BF"/>
<path fill-rule="evenodd" clip-rule="evenodd" d="M64.9228 113.336H70.9046V116.127L93.8749 117.483V120.115H70.9046H69.1499H66.7572H42.0322V117.483L64.9228 116.127V113.336Z" fill="#123156"/>
<path d="M71.5425 90.7646H64.3643V97.5441H71.5425V90.7646Z" fill="#123156"/>
<path d="M73.2979 82.709H62.6104V92.0407H73.2979V82.709Z" fill="#123156"/>
<path fill-rule="evenodd" clip-rule="evenodd" d="M59.9775 83.7461C59.18 84.464 58.0634 84.7032 57.0265 84.3842L54.7933 83.7461C53.0386 83.2676 52.0018 81.3534 52.4005 79.5987L66.6772 22.7313C67.1558 20.9766 68.5914 20.4981 70.6651 20.4183L106.397 20.2588L91.4022 83.7461H59.9775Z" fill="#657B93"/>
<path fill-rule="evenodd" clip-rule="evenodd" d="M26.9579 74.813H78.2423C80.2363 74.813 81.9112 76.4879 81.9112 78.4819V81.1139C81.9112 83.1078 80.2363 84.7827 78.2423 84.7827H26.9579C24.964 84.7827 23.2891 83.1078 23.2891 81.1139V78.4819C23.2891 76.4879 24.964 74.813 26.9579 74.813Z" fill="#123156"/>
<path fill-rule="evenodd" clip-rule="evenodd" d="M111.9 25.2034L97.6238 82.0709C97.1452 83.8256 95.3906 84.8624 93.6359 84.3839L91.4027 83.7458C89.648 83.2673 88.6111 81.3531 89.0099 79.5984L103.287 22.7309C103.765 20.9763 105.52 19.9394 107.274 20.418L109.508 21.056C111.262 21.6143 112.379 23.4488 111.9 25.2034Z" fill="#09547B"/>
<path fill-rule="evenodd" clip-rule="evenodd" d="M70.1874 74.813H96.7468C98.7408 74.813 100.416 76.4879 100.416 78.4819V81.1139C100.416 83.1078 98.7408 84.7827 96.7468 84.7827H70.1874C68.1935 84.7827 66.5186 83.1078 66.5186 81.1139V78.4819C66.5186 76.4879 68.1137 74.813 70.1874 74.813Z" fill="#09547B"/>
<path fill-rule="evenodd" clip-rule="evenodd" d="M43.8667 124.343C45.2226 124.343 46.419 123.226 46.419 121.791C46.419 120.435 45.3024 119.238 43.8667 119.238C42.5108 119.238 41.3145 120.355 41.3145 121.791C41.3145 123.226 42.4311 124.343 43.8667 124.343Z" fill="#123156"/>
<path fill-rule="evenodd" clip-rule="evenodd" d="M66.5181 124.343C67.874 124.343 69.0703 123.226 69.0703 121.791C69.0703 120.435 67.9537 119.238 66.5181 119.238C65.0824 119.238 63.9658 120.355 63.9658 121.791C64.0456 123.226 65.1622 124.343 66.5181 124.343Z" fill="#123156"/>
<path fill-rule="evenodd" clip-rule="evenodd" d="M92.6792 124.343C94.0351 124.343 95.2315 123.226 95.2315 121.791C95.2315 120.435 94.1148 119.238 92.6792 119.238C91.3233 119.238 90.127 120.355 90.127 121.791C90.127 123.226 91.2436 124.343 92.6792 124.343Z" fill="#123156"/>
<path fill-rule="evenodd" clip-rule="evenodd" d="M72.8989 52.9595H103.127C104.164 52.9595 104.962 53.757 104.962 54.7939V56.07C104.962 57.1069 104.164 57.9045 103.127 57.9045H72.8989C71.862 57.9045 71.0645 57.1069 71.0645 56.07V54.7939C71.0645 53.757 71.862 52.9595 72.8989 52.9595Z" fill="#123156"/>
<path fill-rule="evenodd" clip-rule="evenodd" d="M78.8803 52.9595H109.109C110.145 52.9595 110.943 53.757 110.943 54.7939V56.07C110.943 57.1069 110.145 57.9045 109.109 57.9045H78.8803C77.8435 57.9045 77.0459 57.1069 77.0459 56.07V54.7939C77.0459 53.757 77.8435 52.9595 78.8803 52.9595Z" fill="#09547B"/>
<path d="M69.8682 97.8633H68.6719V113.017H69.8682V97.8633Z" fill="white"/>
<path d="M71.1438 92.5991H68.0332V97.0656H71.1438V92.5991Z" fill="#657B93"/>
<path d="M72.739 85.1016H67.5547V91.7215H72.739V85.1016Z" fill="#657B93"/>
<path fill-rule="evenodd" clip-rule="evenodd" d="M68.1927 31.6641H96.108C96.9056 31.6641 97.4639 32.3021 97.2246 33.1795C96.9854 33.977 96.1878 34.6949 95.3104 34.6949H67.3952C66.5976 34.6949 66.0393 34.0568 66.2785 33.1795C66.5178 32.3021 67.3952 31.6641 68.1927 31.6641Z" fill="#123156"/>
<path fill-rule="evenodd" clip-rule="evenodd" d="M65.8002 39.9585H93.7155C94.513 39.9585 95.0713 40.5966 94.8321 41.4739C94.5928 42.2715 93.7952 42.9893 92.9179 42.9893H65.0026C64.205 42.9893 63.6467 42.3512 63.886 41.4739C64.1252 40.6763 65.0026 39.9585 65.8002 39.9585Z" fill="#123156"/>
<path fill-rule="evenodd" clip-rule="evenodd" d="M63.7269 49.6094H91.6422C92.4398 49.6094 92.9981 50.2474 92.7588 51.1248C92.5196 51.9224 91.722 52.6402 90.8446 52.6402H62.9293C62.1318 52.6402 61.5734 52.0021 61.8127 51.1248C62.052 50.3272 62.9293 49.6094 63.7269 49.6094Z" fill="#123156"/>
<path fill-rule="evenodd" clip-rule="evenodd" d="M60.6166 60.2173H88.5319C89.3294 60.2173 89.8878 60.8553 89.6485 61.7327C89.4092 62.5303 88.6116 63.2481 87.7343 63.2481H59.819C59.0214 63.2481 58.4631 62.61 58.7024 61.7327C58.9416 60.9351 59.7392 60.2173 60.6166 60.2173Z" fill="#123156"/>
<path fill-rule="evenodd" clip-rule="evenodd" d="M58.8617 69.3096H86.777C87.5746 69.3096 88.1329 69.9476 87.8936 70.825C87.6543 71.6226 86.8567 72.3404 85.9794 72.3404H58.0641C57.2665 72.3404 56.7082 71.7023 56.9475 70.825C57.1868 69.9476 58.0641 69.3096 58.8617 69.3096Z" fill="#123156"/>
</g>
<defs>
<clipPath id="clip0">
<rect width="145" height="145" fill="white"/>
</clipPath>
</defs>
</svg>
