<svg width="145" height="146" viewBox="0 0 145 146" fill="none" xmlns="http://www.w3.org/2000/svg">
<circle cx="72.5" cy="73" r="72.5" fill="#C3E4CF"/>
<path d="M125.706 114.498H19.0196C17.834 114.498 16.5827 113.898 16.4556 112.16V110.547L28.1344 88.8906C28.4412 88.2675 28.9154 87.7428 29.5035 87.3756C30.0915 87.0084 30.7701 86.8134 31.4627 86.8125H113.106C114.63 86.8125 117.988 89.8235 118.67 91.1898L128.301 110.911V111.618C128.329 113.671 127.006 114.498 125.706 114.498Z" fill="#0B2146"/>
<path d="M125.716 112.229H19.0281C17.8446 112.229 15.8946 111.188 16.6272 109.905L28.1556 86.6224C28.4632 86.0005 28.9378 85.4773 29.5259 85.1116C30.1139 84.7459 30.7921 84.5523 31.4839 84.5527H113.116C113.864 84.5524 114.596 84.761 115.232 85.1551C115.868 85.5492 116.381 86.1132 116.716 86.7839L128.117 109.682C128.913 111.139 127.016 112.229 125.716 112.229Z" fill="#F5F5F5"/>
<path d="M110.917 31.5039H32.2651C30.8841 31.5039 29.7646 32.6274 29.7646 34.0134V82.0442C29.7646 83.4302 30.8841 84.5537 32.2651 84.5537H110.917C112.298 84.5537 113.417 83.4302 113.417 82.0442V34.0134C113.417 32.6274 112.298 31.5039 110.917 31.5039Z" fill="#0B2146"/>
<path d="M110.176 34.3965H32.9765V80.364H110.176V34.3965Z" fill="#F4E0E4"/>
<path d="M87.8364 111.221H56.3996C56.3177 111.221 56.2368 111.203 56.1624 111.169C56.0881 111.134 56.0222 111.084 55.969 111.021C55.9159 110.959 55.877 110.885 55.8548 110.806C55.8326 110.727 55.8278 110.644 55.8406 110.563L57.1618 102.252C57.1965 102.036 57.3069 101.838 57.4734 101.696C57.6398 101.553 57.8513 101.475 58.0701 101.475H86.4285C86.623 101.475 86.8111 101.545 86.9585 101.672C87.1058 101.8 87.2025 101.976 87.2309 102.169L88.4441 110.527C88.4556 110.613 88.4484 110.702 88.4231 110.785C88.3978 110.869 88.3549 110.947 88.2974 111.012C88.2399 111.078 88.1689 111.131 88.0894 111.167C88.0099 111.203 87.9237 111.222 87.8364 111.221V111.221Z" fill="#0B2146"/>
<path d="M36.2138 89.5312H32.8135C32.3371 89.5312 32.0089 89.3909 32.0788 89.2167L32.2905 88.7046C32.3582 88.5346 32.7965 88.3965 33.2665 88.3965H36.6245C37.0945 88.3965 37.4269 88.5346 37.3677 88.7046L37.1856 89.2167C37.1242 89.3909 36.6901 89.5312 36.2138 89.5312Z" fill="#0B2146"/>
<path d="M41.9663 89.5312H38.5554C38.079 89.5312 37.7424 89.3909 37.8038 89.2167L37.9816 88.7046C38.0409 88.5346 38.4686 88.3965 38.9386 88.3965H42.3114C42.7814 88.3965 43.1223 88.5346 43.0715 88.7046L42.9191 89.2167C42.8683 89.3909 42.4427 89.5312 41.9663 89.5312Z" fill="#0B2146"/>
<path d="M47.7189 89.5312H44.308C43.8316 89.5312 43.4865 89.3909 43.5373 89.2167L43.6855 88.7046C43.7342 88.5346 44.1556 88.3965 44.6256 88.3965H47.9962C48.4663 88.3965 48.8156 88.5346 48.7754 88.7046L48.6547 89.2167C48.6124 89.3909 48.1931 89.5312 47.7189 89.5312Z" fill="#0B2146"/>
<path d="M53.4714 89.5312H50.0605C49.5842 89.5312 49.2306 89.3909 49.2708 89.2167L49.3894 88.7046C49.4275 88.5346 49.8404 88.3965 50.3104 88.3965H53.6832C54.1532 88.3965 54.5089 88.5346 54.4792 88.7046L54.3882 89.2167C54.3564 89.3909 53.9457 89.5312 53.4714 89.5312Z" fill="#0B2146"/>
<path d="M59.224 89.5312H55.8131C55.3368 89.5312 54.9662 89.3909 55.0043 89.2167L55.0933 88.7046C55.1229 88.5346 55.5167 88.3965 55.9973 88.3965H59.368C59.838 88.3965 60.2022 88.5346 60.1831 88.7046L60.1217 89.2167C60.1006 89.3909 59.7025 89.5312 59.224 89.5312Z" fill="#0B2146"/>
<path d="M64.9765 89.5312H61.5657C61.0893 89.5312 60.7188 89.3909 60.7378 89.2167L60.7971 88.7046C60.8162 88.5346 61.2206 88.3965 61.6821 88.3965H65.0549C65.5249 88.3965 65.9018 88.5346 65.887 88.7046L65.8552 89.2167C65.8425 89.3909 65.4508 89.5312 64.9765 89.5312Z" fill="#0B2146"/>
<path d="M70.727 89.5312H67.3246C66.8503 89.5312 66.4777 89.3909 66.4777 89.2167L66.5052 88.7046C66.5052 88.5346 66.9032 88.3965 67.3733 88.3965H70.7439C71.2139 88.3965 71.5908 88.5346 71.5908 88.7046V89.2167C71.5887 89.3909 71.2034 89.5312 70.727 89.5312Z" fill="#0B2146"/>
<path d="M76.4796 89.5312H73.0687C72.5944 89.5312 72.207 89.3909 72.207 89.2167V88.7046C72.207 88.5346 72.586 88.3965 73.0539 88.3965H76.4288C76.8988 88.3965 77.2756 88.5346 77.2968 88.7046L77.3265 89.2167C77.3328 89.3909 76.9559 89.5312 76.4796 89.5312Z" fill="#0B2146"/>
<path d="M82.2321 89.5312H78.8212C78.3469 89.5312 77.951 89.3909 77.9404 89.2167L77.9108 88.7046C77.9108 88.5346 78.2728 88.3965 78.7428 88.3965H82.1135C82.5835 88.3965 82.9816 88.5346 83.0006 88.7046L83.0599 89.2167C83.0769 89.3909 82.7084 89.5312 82.2321 89.5312Z" fill="#0B2146"/>
<path d="M87.9847 89.5312H84.5738C84.0995 89.5312 83.6951 89.3909 83.674 89.2167L83.6126 88.7046C83.5914 88.5346 83.9556 88.3965 84.4256 88.3965H87.7962C88.2684 88.3965 88.6728 88.5346 88.7024 88.7046L88.7914 89.2167C88.821 89.3909 88.4611 89.5312 87.9847 89.5312Z" fill="#0B2146"/>
<path d="M93.7372 89.5312H90.3264C89.85 89.5312 89.4392 89.3909 89.4096 89.2167L89.3164 88.7046C89.2847 88.5346 89.6404 88.3965 90.1125 88.3965H93.4832C93.9532 88.3965 94.366 88.5346 94.4063 88.7046L94.5248 89.2167C94.5651 89.3909 94.2136 89.5312 93.7372 89.5312Z" fill="#0B2146"/>
<path d="M99.4898 89.5312H96.0789C95.6025 89.5312 95.1833 89.3909 95.1431 89.2167L95.0203 88.7046C94.98 88.5346 95.3273 88.3965 95.7973 88.3965H99.1679C99.638 88.3965 100.059 88.5346 100.11 88.7046L100.26 89.2167C100.309 89.3909 99.9661 89.5312 99.4898 89.5312Z" fill="#0B2146"/>
<path d="M105.242 89.5312H101.836C101.359 89.5312 100.932 89.3909 100.881 89.2167L100.728 88.7046C100.678 88.5346 101.016 88.3965 101.486 88.3965H104.859C105.329 88.3965 105.759 88.5346 105.818 88.7046L105.998 89.2167C106.053 89.3909 105.719 89.5312 105.242 89.5312Z" fill="#0B2146"/>
<path d="M110.995 89.5312H107.584C107.108 89.5312 106.671 89.3909 106.61 89.2167L106.428 88.7046C106.367 88.5346 106.699 88.3965 107.169 88.3965H110.54C111.01 88.3965 111.448 88.5346 111.518 88.7046L111.73 89.2167C111.797 89.3909 111.471 89.5312 110.995 89.5312Z" fill="#0B2146"/>
<path d="M35.9004 91.4455H31.5432C31.4352 91.4455 31.359 91.4115 31.3759 91.3712L32.0111 89.7732C32.0259 89.735 32.1254 89.7031 32.2228 89.7031H36.4996C36.6076 89.7031 36.6817 89.735 36.669 89.7732L36.0995 91.3712C36.1079 91.4115 36.0084 91.4455 35.9004 91.4455Z" fill="#0B2146"/>
<path d="M43.9354 93.5412H39.4891C39.379 93.5412 39.2986 93.5072 39.3134 93.4647L39.8427 91.8009C39.8554 91.7584 39.9528 91.7266 40.0544 91.7266H44.4181C44.5282 91.7266 44.6065 91.7584 44.5959 91.8009L44.145 93.4647C44.145 93.5072 44.0454 93.5412 43.9354 93.5412Z" fill="#0B2146"/>
<path d="M44.67 95.737H40.1222C40.01 95.737 39.9295 95.7009 39.9422 95.6584L40.4715 93.9202C40.4843 93.8778 40.5859 93.8438 40.696 93.8438H45.1422C45.2544 93.8438 45.3349 93.8778 45.3243 93.9202L44.8818 95.6499C44.8818 95.6924 44.7738 95.737 44.67 95.737Z" fill="#0B2146"/>
<path d="M47.2107 98.0113H42.5782C42.4639 98.0113 42.3792 97.9731 42.3919 97.9284L42.8916 96.1159C42.9043 96.0713 43.0059 96.0352 43.1202 96.0352H47.6723C47.7845 96.0352 47.8692 96.0713 47.8586 96.1159L47.4457 97.9284C47.4352 97.9731 47.3314 98.0113 47.2107 98.0113Z" fill="#0B2146"/>
<path d="M32.5827 100.663H27.8549C27.73 100.663 27.6432 100.621 27.6664 100.57L28.5345 98.4193C28.5557 98.3683 28.67 98.3301 28.7928 98.3301H33.419C33.5418 98.3301 33.6307 98.3683 33.6117 98.4193L32.8431 100.57C32.8262 100.625 32.7097 100.663 32.5827 100.663Z" fill="#0B2146"/>
<path d="M38.8963 100.663H34.1685C34.0436 100.663 33.9568 100.621 33.9737 100.57L34.719 98.4193C34.7359 98.3683 34.8482 98.3301 34.971 98.3301H39.5887C39.7115 98.3301 39.8004 98.3683 39.7856 98.4193L39.1504 100.57C39.1356 100.625 39.0212 100.663 38.8963 100.663Z" fill="#0B2146"/>
<path d="M45.0173 100.663H40.2916C40.1645 100.663 40.0798 100.621 40.0904 100.57L40.715 98.4193C40.7277 98.3683 40.8399 98.3301 40.9627 98.3301H45.5889C45.7117 98.3301 45.8006 98.3683 45.8006 98.4193L45.2798 100.57C45.2565 100.625 45.1443 100.663 45.0173 100.663Z" fill="#0B2146"/>
<path d="M52.7347 100.663H46.4973C46.3533 100.663 46.2474 100.616 46.2622 100.557L46.7577 98.4321C46.7704 98.3747 46.8953 98.3301 47.035 98.3301H53.1391C53.2788 98.3301 53.3847 98.3747 53.3762 98.4321L53.0099 100.557C53.0014 100.625 52.8786 100.663 52.7347 100.663Z" fill="#0B2146"/>
<path d="M91.1054 100.663H84.868C84.7261 100.663 84.6034 100.616 84.597 100.557L84.3472 98.4321C84.3472 98.3747 84.4488 98.3301 84.5885 98.3301H90.6925C90.8344 98.3301 90.9551 98.3747 90.9657 98.4321L91.3468 100.557C91.3574 100.625 91.2494 100.663 91.1054 100.663Z" fill="#0B2146"/>
<path d="M97.4213 100.663H92.7634C92.6384 100.663 92.5283 100.621 92.5199 100.57L92.1091 98.4172C92.1091 98.3683 92.1917 98.3301 92.3209 98.3301H96.8814C97.0042 98.3301 97.1122 98.3683 97.1249 98.4172L97.6351 100.57C97.6373 100.625 97.5462 100.663 97.4213 100.663Z" fill="#0B2146"/>
<path d="M83.314 100.663H54.5322C54.2294 100.663 54.0008 100.563 54.0219 100.44L54.3289 98.5426C54.348 98.4257 54.6042 98.3301 54.8985 98.3301H83.0578C83.3521 98.3301 83.6041 98.4257 83.6168 98.5426L83.8285 100.44C83.8391 100.563 83.6147 100.663 83.314 100.663Z" fill="#0B2146"/>
<path d="M53.2407 98.0113H48.6018C48.4874 98.0113 48.4006 97.9731 48.4112 97.9284L48.8093 96.1159C48.8093 96.0713 48.9172 96.0352 49.0316 96.0352H53.5836C53.6959 96.0352 53.7827 96.0713 53.7742 96.1159L53.463 97.9284C53.4566 97.9731 53.3507 98.0113 53.2407 98.0113Z" fill="#0B2146"/>
<path d="M59.2642 98.0113H54.6211C54.5047 98.0113 54.4094 97.9731 54.4263 97.9284L54.7206 96.1159C54.7206 96.0713 54.8244 96.0352 54.9324 96.0352H59.4908C59.6051 96.0352 59.7025 96.0713 59.6877 96.1159L59.476 97.9284C59.476 97.9731 59.3786 98.0113 59.2642 98.0113Z" fill="#0B2146"/>
<path d="M65.2878 98.0113H60.6489C60.5325 98.0113 60.4372 97.9731 60.4372 97.9284L60.6299 96.1159C60.6299 96.0713 60.7294 96.0352 60.8416 96.0352H65.3937C65.508 96.0352 65.6054 96.0713 65.5948 96.1159L65.4889 97.9284C65.4974 97.9731 65.4021 98.0113 65.2878 98.0113Z" fill="#0B2146"/>
<path d="M71.3092 98.0113H66.6725C66.556 98.0113 66.4608 97.9731 66.4608 97.9284L66.5497 96.1159C66.5497 96.0713 66.6471 96.0352 66.7614 96.0352H71.3135C71.4278 96.0352 71.5252 96.0713 71.5252 96.1159V97.9284C71.5188 97.9731 71.4257 98.0113 71.3092 98.0113Z" fill="#0B2146"/>
<path d="M77.3328 98.0113H72.6961C72.5796 98.0113 72.4843 97.9731 72.4843 97.9284L72.4738 96.1159C72.4738 96.0713 72.5648 96.0352 72.6855 96.0352H77.2376C77.3519 96.0352 77.4493 96.0713 77.4493 96.1159L77.5488 97.9284C77.5403 97.9731 77.4493 98.0113 77.3328 98.0113Z" fill="#0B2146"/>
<path d="M83.3563 98.0113H78.7175C78.6031 98.0113 78.5057 97.9731 78.5057 97.9284L78.3914 96.1159C78.3914 96.0713 78.4782 96.0352 78.5904 96.0352H83.1446C83.2568 96.0352 83.3563 96.0713 83.3563 96.1159L83.5575 97.9284C83.5617 97.9731 83.4728 98.0113 83.3563 98.0113Z" fill="#0B2146"/>
<path d="M89.3799 98.0113H84.7411C84.6267 98.0113 84.5294 97.9731 84.5294 97.9284L84.3176 96.1159C84.3176 96.0713 84.4002 96.0352 84.5145 96.0352H89.0666C89.1788 96.0352 89.2783 96.0713 89.2783 96.1159L89.5811 97.9284C89.5832 97.9731 89.4964 98.0113 89.3799 98.0113Z" fill="#0B2146"/>
<path d="M95.4035 98.0113H90.7646C90.6503 98.0113 90.5529 97.9731 90.5402 97.9284L90.2205 96.1159C90.2205 96.0713 90.2988 96.0352 90.4131 96.0352H94.9652C95.0774 96.0352 95.1769 96.0713 95.1875 96.1159L95.594 97.9284C95.6046 97.9731 95.5178 98.0113 95.4035 98.0113Z" fill="#0B2146"/>
<path d="M103.004 100.698H99.3903C98.9308 100.698 98.5201 100.545 98.4756 100.36L98.3422 99.816C98.2957 99.6312 98.6281 99.4824 99.0833 99.4824H102.657C103.112 99.4824 103.525 99.6312 103.578 99.816L103.739 100.36C103.792 100.545 103.466 100.698 103.004 100.698Z" fill="#0B2146"/>
<path d="M109.2 100.698H105.585C105.126 100.698 104.707 100.545 104.65 100.36L104.487 99.816C104.429 99.6312 104.753 99.4824 105.208 99.4824H108.782C109.238 99.4824 109.659 99.6312 109.722 99.816L109.913 100.36C109.979 100.545 109.67 100.698 109.2 100.698Z" fill="#0B2146"/>
<path d="M108.734 99.3497H105.164C104.709 99.3497 104.296 99.201 104.241 99.0183L104.082 98.4892C104.027 98.3086 104.347 98.1641 104.796 98.1641H108.327C108.776 98.1641 109.191 98.3086 109.255 98.4892L109.439 99.0183C109.504 99.1904 109.187 99.3497 108.734 99.3497Z" fill="#0B2146"/>
<path d="M115.386 100.698H111.787C111.327 100.698 110.9 100.545 110.834 100.36L110.639 99.816C110.574 99.6312 110.887 99.4824 111.342 99.4824H114.916C115.371 99.4824 115.801 99.6312 115.875 99.816L116.097 100.36C116.165 100.545 115.854 100.698 115.386 100.698Z" fill="#0B2146"/>
<path d="M50.6111 95.737H46.0717C45.9595 95.737 45.8748 95.7009 45.8875 95.6584L46.3109 93.9202C46.3215 93.8778 46.421 93.8438 46.5227 93.8438H50.9795C51.0896 93.8438 51.1743 93.8778 51.1658 93.9202L50.8164 95.6584C50.8228 95.6924 50.7233 95.737 50.6111 95.737Z" fill="#0B2146"/>
<path d="M56.5583 95.737H52.0211C51.9068 95.737 51.8221 95.7009 51.8305 95.6584L52.1629 93.9202C52.1629 93.8778 52.2667 93.8438 52.3747 93.8438H56.8209C56.931 93.8438 57.0157 93.8778 57.0093 93.9202L56.7616 95.6584C56.7701 95.6924 56.6727 95.737 56.5583 95.737Z" fill="#0B2146"/>
<path d="M62.5079 95.737H57.9685C57.8563 95.737 57.7695 95.7009 57.7758 95.6584L58.0087 93.9202C58.0087 93.8778 58.1082 93.8438 58.2205 93.8438H62.6667C62.7789 93.8438 62.8657 93.8778 62.8615 93.9202L62.7111 95.6584C62.7154 95.6924 62.6222 95.737 62.5079 95.737Z" fill="#0B2146"/>
<path d="M68.4213 95.737H63.8819C63.7697 95.737 63.6808 95.7009 63.6829 95.6584L63.8184 93.9202C63.8184 93.8778 63.9137 93.8438 64.0301 93.8438H68.4763C68.5886 93.8438 68.6881 93.8778 68.6754 93.9202L68.6246 95.6584C68.6267 95.6924 68.5335 95.737 68.4213 95.737Z" fill="#0B2146"/>
<path d="M74.3708 95.737H69.8314C69.7171 95.737 69.6197 95.7009 69.6197 95.6584L69.6557 93.9202C69.6557 93.8778 69.7467 93.8438 69.8568 93.8438H74.303C74.4153 93.8438 74.5148 93.8778 74.5148 93.9202L74.5613 95.6584C74.574 95.6924 74.483 95.737 74.3708 95.737Z" fill="#0B2146"/>
<path d="M80.064 95.737H75.5247C75.4124 95.737 75.3129 95.7009 75.3129 95.6584L75.2537 93.9202C75.2537 93.8778 75.3405 93.8438 75.4527 93.8438H79.9095C80.0196 93.8438 80.1212 93.8778 80.1212 93.9202L80.2631 95.6584C80.2652 95.6924 80.1763 95.737 80.064 95.737Z" fill="#0B2146"/>
<path d="M85.9563 95.737H81.4191C81.3068 95.737 81.2073 95.7009 81.2073 95.6584L81.0507 93.9202C81.0507 93.8778 81.1332 93.8438 81.2433 93.8438H85.6895C85.8018 93.8438 85.9013 93.8778 85.9013 93.9202L86.1405 95.6584C86.168 95.6924 86.0706 95.737 85.9563 95.737Z" fill="#0B2146"/>
<path d="M91.8529 95.737H87.3135C87.2013 95.737 87.1018 95.7009 87.1018 95.6584L86.8456 93.9202C86.8456 93.8778 86.9239 93.8438 87.0361 93.8438H91.4823C91.5924 93.8438 91.6941 93.8778 91.6941 93.9202L92.0307 95.6584C92.0498 95.6924 91.9651 95.737 91.8529 95.737Z" fill="#0B2146"/>
<path d="M97.7113 95.737H93.1719C93.0597 95.737 92.9602 95.7009 92.9602 95.6584L92.6066 93.9202C92.6066 93.8778 92.6807 93.8438 92.7908 93.8438H97.237C97.3492 93.8438 97.4487 93.8778 97.4487 93.9202L97.8849 95.6584C97.906 95.6924 97.8235 95.737 97.7113 95.737Z" fill="#0B2146"/>
<path d="M103.57 95.737H99.0303C98.916 95.737 98.8186 95.7009 98.8038 95.6584L98.3528 93.9202C98.3528 93.8778 98.4248 93.8438 98.5349 93.8438H102.992C103.102 93.8438 103.203 93.8778 103.216 93.9202L103.75 95.6584C103.762 95.6924 103.682 95.737 103.57 95.737Z" fill="#0B2146"/>
<path d="M101.368 98.0113H96.7289C96.6146 98.0113 96.5172 97.9731 96.5002 97.9284L96.0768 96.1159C96.0768 96.0713 96.1509 96.0352 96.2652 96.0352H100.817C100.93 96.0352 101.029 96.0713 101.044 96.1159L101.552 97.9284C101.567 97.9731 101.482 98.0113 101.368 98.0113Z" fill="#0B2146"/>
<path d="M113.946 95.737H105.183C105.026 95.737 104.887 95.6881 104.868 95.6287L104.334 93.95C104.315 93.8905 104.423 93.8438 104.575 93.8438H113.182C113.335 93.8438 113.476 93.8905 113.5 93.95L114.184 95.6287C114.209 95.6796 114.103 95.737 113.946 95.737Z" fill="#0B2146"/>
<path d="M114.825 98.0113H102.816C102.632 98.0113 102.467 97.9518 102.448 97.8796L101.952 96.1627C101.931 96.0925 102.06 96.0352 102.24 96.0352H114.027C114.207 96.0352 114.376 96.0925 114.404 96.1627L115.104 97.8796C115.132 97.9518 115.009 98.0113 114.825 98.0113Z" fill="#0B2146"/>
<path d="M38.7629 95.737H29.9044C29.7477 95.737 29.6418 95.6882 29.6651 95.6265L30.3427 93.95C30.3659 93.8905 30.5099 93.8438 30.6624 93.8438H39.36C39.5146 93.8438 39.6225 93.8905 39.6056 93.95L39.0784 95.6265C39.0594 95.6797 38.9175 95.737 38.7629 95.737Z" fill="#0B2146"/>
<path d="M41.1194 98.0113H28.9347C28.7505 98.0113 28.6235 97.9518 28.6531 97.8774L29.3476 96.1627C29.3772 96.0925 29.5466 96.0352 29.7265 96.0352H41.6869C41.8668 96.0352 41.9981 96.0925 41.9769 96.1627L41.49 97.8774C41.4688 97.9518 41.3036 98.0113 41.1194 98.0113Z" fill="#0B2146"/>
<path d="M49.7303 93.5412H45.2841C45.1719 93.5412 45.0914 93.5072 45.1041 93.4647L45.5381 91.8009C45.5487 91.7584 45.6461 91.7266 45.7499 91.7266H50.1156C50.2236 91.7266 50.3041 91.7584 50.2956 91.8009L49.9399 93.4647C49.9378 93.5072 49.8404 93.5412 49.7303 93.5412Z" fill="#0B2146"/>
<path d="M55.4892 93.5412H51.0429C50.9328 93.5412 50.8482 93.5072 50.8587 93.4647L51.1996 91.8009C51.1996 91.7584 51.3012 91.7266 51.4113 91.7266H55.775C55.8851 91.7266 55.9677 91.7584 55.9613 91.8009L55.6988 93.4647C55.6945 93.5072 55.5993 93.5412 55.4892 93.5412Z" fill="#0B2146"/>
<path d="M61.2841 93.5412H56.8379C56.7256 93.5412 56.641 93.5072 56.6473 93.4647L56.895 91.8009C56.895 91.7584 56.9945 91.7266 57.1067 91.7266H61.4704C61.5805 91.7266 61.6652 91.7584 61.6609 91.8009L61.4937 93.4647C61.4873 93.5072 61.3963 93.5412 61.2841 93.5412Z" fill="#0B2146"/>
<path d="M67.0769 93.5412H62.6307C62.5184 93.5412 62.4316 93.5072 62.4359 93.4647L62.5883 91.8009C62.5883 91.7584 62.6836 91.7266 62.8 91.7266H67.1658C67.2738 91.7266 67.3606 91.7584 67.3585 91.8009L67.2865 93.4647C67.2801 93.5072 67.1891 93.5412 67.0769 93.5412Z" fill="#0B2146"/>
<path d="M72.8295 93.5412H68.3833C68.271 93.5412 68.1821 93.5072 68.1842 93.4647L68.2435 91.8009C68.2435 91.7584 68.3324 91.7266 68.4425 91.7266H72.8062C72.9163 91.7266 73.0052 91.7584 73.0052 91.8009L73.0264 93.4647C73.0412 93.5072 72.948 93.5412 72.8295 93.5412Z" fill="#0B2146"/>
<path d="M78.4655 93.5412H74.0193C73.9092 93.5412 73.8076 93.5072 73.8076 93.4647L73.7758 91.8009C73.7758 91.7584 73.8626 91.7266 73.9706 91.7266H78.3343C78.4444 91.7266 78.5333 91.7584 78.546 91.8009L78.6582 93.4647C78.6624 93.5072 78.5756 93.5412 78.4655 93.5412Z" fill="#0B2146"/>
<path d="M84.307 93.5412H79.8608C79.7507 93.5412 79.6491 93.5072 79.6491 93.4647L79.5199 91.8009C79.5199 91.7584 79.6025 91.7266 79.7105 91.7266H84.0762C84.1842 91.7266 84.2879 91.7584 84.2879 91.8009L84.4997 93.4647C84.5039 93.5072 84.4171 93.5412 84.307 93.5412Z" fill="#0B2146"/>
<path d="M90.0786 93.5412H85.6324C85.5223 93.5412 85.4207 93.5072 85.4207 93.4647L85.1984 91.8009C85.1984 91.7584 85.2767 91.7266 85.3847 91.7266H89.7504C89.8584 91.7266 89.9622 91.7584 89.9622 91.8009L90.2649 93.4647C90.2713 93.5072 90.1908 93.5412 90.0786 93.5412Z" fill="#0B2146"/>
<path d="M95.7528 93.5412H91.3066C91.1944 93.5412 91.0949 93.5072 91.0949 93.4647L90.7794 91.8009C90.7794 91.7584 90.8535 91.7266 90.9615 91.7266H95.3273C95.4352 91.7266 95.539 91.7584 95.539 91.8009L95.9349 93.4647C95.9455 93.5072 95.8651 93.5412 95.7528 93.5412Z" fill="#0B2146"/>
<path d="M101.666 93.5412H97.2202C97.108 93.5412 97.0084 93.5072 97.0084 93.4647L96.5956 91.8009C96.5956 91.7584 96.6654 91.7266 96.7755 91.7266H101.139C101.249 91.7266 101.351 91.7584 101.351 91.8009L101.84 93.4647C101.857 93.5072 101.779 93.5412 101.666 93.5412Z" fill="#0B2146"/>
<path d="M107.319 93.5412H102.873C102.763 93.5412 102.661 93.5072 102.649 93.4647L102.145 91.8009C102.134 91.7584 102.21 91.7266 102.321 91.7266H106.684C106.794 91.7266 106.896 91.7584 106.909 91.8009L107.491 93.4647C107.508 93.5072 107.429 93.5412 107.319 93.5412Z" fill="#0B2146"/>
<path d="M113.138 93.5412H108.691C108.581 93.5412 108.48 93.5072 108.465 93.4647L107.866 91.8009C107.851 91.7584 107.927 91.7266 108.035 91.7266H112.401C112.509 91.7266 112.612 91.7584 112.627 91.8009L113.305 93.4647C113.324 93.5072 113.248 93.5412 113.138 93.5412Z" fill="#0B2146"/>
<path d="M41.6572 91.4455H37.3042C37.1962 91.4455 37.12 91.4115 37.1327 91.3712L37.6874 89.7732C37.7001 89.735 37.7975 89.7031 37.8991 89.7031H42.176C42.2839 89.7031 42.3602 89.735 42.3474 89.7732L41.8711 91.3712C41.8626 91.4115 41.7652 91.4455 41.6572 91.4455Z" fill="#0B2146"/>
<path d="M47.2382 91.4455H42.8873C42.7772 91.4455 42.6989 91.4115 42.7116 91.3712L43.1752 89.7732C43.1879 89.735 43.2832 89.7031 43.387 89.7031H47.6638C47.7697 89.7031 47.8501 89.735 47.8395 89.7732L47.4521 91.3712C47.4436 91.4115 47.3483 91.4455 47.2382 91.4455Z" fill="#0B2146"/>
<path d="M52.9612 91.4455H48.6081C48.5001 91.4455 48.4197 91.4115 48.4303 91.3712L48.8029 89.7732C48.8029 89.735 48.9045 89.7031 49.0146 89.7031H53.2915C53.3973 89.7031 53.4778 89.735 53.4714 89.7732L53.1729 91.3712C53.1644 91.4115 53.0692 91.4455 52.9612 91.4455Z" fill="#0B2146"/>
<path d="M58.5401 91.4455H54.1977C54.0876 91.4455 54.0071 91.4115 54.0135 91.3712L54.2972 89.7732C54.2972 89.735 54.3967 89.7031 54.5089 89.7031H58.7857C58.8916 89.7031 58.9742 89.735 58.9699 89.7732L58.7582 91.3712C58.7413 91.4115 58.6439 91.4455 58.5401 91.4455Z" fill="#0B2146"/>
<path d="M64.2948 91.4455H59.9417C59.8337 91.4455 59.7512 91.4115 59.7554 91.3712L59.946 89.7732C59.946 89.735 60.0412 89.7031 60.1577 89.7031H64.4345C64.5404 89.7031 64.6251 89.735 64.6208 89.7732L64.5044 91.3712C64.4938 91.4115 64.4028 91.4455 64.2948 91.4455Z" fill="#0B2146"/>
<path d="M69.8251 91.4455H65.472C65.364 91.4455 65.2794 91.4115 65.2815 91.3712L65.3852 89.7732C65.3852 89.735 65.4763 89.7031 65.5821 89.7031H69.8653C69.9712 89.7031 70.058 89.735 70.058 89.7732L70.0305 91.3712C70.022 91.4115 69.9331 91.4455 69.8251 91.4455Z" fill="#0B2146"/>
<path d="M75.5819 91.4455H71.2183C71.1103 91.4455 71.0214 91.4115 71.0235 91.3712V89.7732C71.0235 89.735 71.1103 89.7031 71.2161 89.7031H75.493C75.601 89.7031 75.6878 89.735 75.6899 89.7732L75.7534 91.3712C75.7661 91.4115 75.6793 91.4455 75.5819 91.4455Z" fill="#0B2146"/>
<path d="M81.1544 91.4455H76.8013C76.6933 91.4455 76.6023 91.4115 76.5896 91.3712L76.5134 89.7732C76.5134 89.735 76.5959 89.7031 76.7018 89.7031H80.9786C81.0866 89.7031 81.1755 89.735 81.1904 89.7732L81.3428 91.3712C81.347 91.4115 81.2623 91.4455 81.1544 91.4455Z" fill="#0B2146"/>
<path d="M86.8879 91.4455H82.5348C82.4268 91.4455 82.3358 91.4115 82.3231 91.3712L82.1537 89.7732C82.1537 89.735 82.232 89.7031 82.3379 89.7031H86.6147C86.7227 89.7031 86.8137 89.735 86.8264 89.7732L87.0721 91.3712C87.0784 91.4115 86.9958 91.4455 86.8879 91.4455Z" fill="#0B2146"/>
<path d="M92.6087 91.4455H88.2578C88.1477 91.4455 88.0461 91.4115 88.0461 91.3712L87.7856 89.7732C87.7856 89.735 87.8619 89.7031 87.9677 89.7031H92.2446C92.3504 89.7031 92.4436 89.735 92.4563 89.7732L92.7929 91.3712C92.7993 91.4115 92.7188 91.4455 92.6087 91.4455Z" fill="#0B2146"/>
<path d="M98.2745 91.4455H93.9214C93.8134 91.4455 93.7097 91.4115 93.7097 91.3712L93.3667 89.7732C93.3667 89.735 93.4366 89.7031 93.5424 89.7031H97.8129C97.9209 89.7031 98.0246 89.735 98.0246 89.7732L98.4481 91.3712C98.4608 91.4115 98.3825 91.4455 98.2745 91.4455Z" fill="#0B2146"/>
<path d="M103.716 91.4455H99.3648C99.2547 91.4455 99.1531 91.4115 99.1531 91.3712L98.7169 89.7732C98.7042 89.735 98.7826 89.7031 98.8884 89.7031H103.165C103.273 89.7031 103.377 89.735 103.377 89.7732L103.891 91.3712C103.902 91.4115 103.826 91.4455 103.716 91.4455Z" fill="#0B2146"/>
<path d="M111.876 91.4482H105.365C105.064 91.4482 104.789 91.3568 104.753 91.2357L104.309 89.8928C104.273 89.7844 104.484 89.6973 104.781 89.6973H111.177C111.473 89.6973 111.749 89.7844 111.793 89.8928L112.337 91.2357C112.384 91.3568 112.176 91.4482 111.876 91.4482Z" fill="#0B2146"/>
<path d="M37.7064 93.5419H31.0604C30.7534 93.5419 30.5416 93.4484 30.5903 93.3294L31.1535 91.9312C31.2001 91.8165 31.4817 91.7188 31.7887 91.7188H38.3183C38.6211 91.7188 38.8349 91.8101 38.7989 91.9312L38.3395 93.3294C38.295 93.4484 38.0134 93.5419 37.7064 93.5419Z" fill="#0B2146"/>
<path opacity="0.5" d="M97.5411 80.3932H45.7895L66.3659 37.0797C66.9826 36.2305 67.7338 35.5506 68.5719 35.0834C69.41 34.6161 70.3167 34.3716 71.2345 34.3654C72.1523 34.3591 73.0611 34.5913 73.9032 35.0472C74.7453 35.5031 75.5024 36.1727 76.1264 37.0135L97.5411 80.3932Z" fill="white"/>
<ellipse cx="71.7846" cy="78.0801" rx="20.0329" ry="1.54099" fill="#C4C4C4"/>
<rect x="51.7517" y="75.6582" width="40.0658" height="2.49494" fill="#C4C4C4"/>
<ellipse cx="71.7846" cy="75.7324" rx="20.0329" ry="1.54099" fill="#D9D9D9"/>
<path d="M80.2648 59.0019H77.5779L77.8085 57.9746H80.0323L80.2648 59.0019Z" fill="#0B2146"/>
<path d="M81.2883 68.1125V76.2087H76.5543V68.0823C76.5532 67.8258 76.6135 67.5727 76.73 67.3447L77.2572 66.3233C77.3633 66.1174 77.4233 65.8904 77.4329 65.6584L77.8898 59.002H79.9422L80.3991 65.6655C80.4102 65.8933 80.4701 66.1159 80.5748 66.318L81.1178 67.3819C81.2314 67.6083 81.2898 67.8587 81.2883 68.1125V68.1125Z" fill="#0B2146"/>
<path d="M80.7191 69.8984H76.6649V73.9527H80.7191V69.8984Z" fill="white"/>
<path d="M79.625 63.6248H77.5779L77.7741 61.0566H79.4288L79.625 63.6248Z" fill="white"/>
<path d="M68.4394 52.0137V53.4078L65.544 53.2548V52.0137H68.4394Z" fill="white"/>
<path d="M72.945 69.15C72.945 70.6833 72.9313 75.9892 72.9313 75.9892H61.0526V69.0951C61.0526 67.6264 61.8341 65.8931 64.5947 64.3892C64.7062 64.3287 64.7988 64.2385 64.8623 64.1284C64.9257 64.0183 64.9575 63.8928 64.9542 63.7657C64.9151 62.6637 64.7374 62.3362 64.7374 61.3206C64.7374 60.1833 65.5443 58.6853 65.5443 57.4264V53.2539L68.4397 53.4108V57.4206C68.4397 58.6794 69.2466 60.1774 69.2466 61.3147C69.2466 62.3304 69.0688 62.6578 69.0297 63.7598C69.0273 63.8879 69.0606 64.0142 69.1259 64.1243C69.1911 64.2345 69.2857 64.3242 69.399 64.3833C72.1537 65.8931 72.945 67.6813 72.945 69.15Z" fill="#0B2146"/>
<path d="M69.5553 68.8555H61.0526V74.628H69.5553V68.8555Z" fill="white"/>
<path d="M72.1339 48.4693H73.6203L73.761 46.5273L71.9933 46.8745L72.1339 48.4693Z" fill="white"/>
<path d="M74.0424 48.4688C74.0424 51.2558 73.6965 55.7386 74.6887 58.476C75.6809 61.2134 77.0703 64.0539 77.0703 68.3364V76.7509H68.6842V68.3364C68.6842 64.0539 70.0737 61.2153 71.0658 58.476C72.058 55.7367 71.7121 51.2558 71.7121 48.4688H74.0424Z" fill="#0B2146"/>
<path d="M74.6464 68.2305H68.9227V74.1926H74.6464V68.2305Z" fill="white"/>
</svg>
