<svg width="145" height="145" viewBox="0 0 145 145" fill="none" xmlns="http://www.w3.org/2000/svg">
<g clip-path="url(#clip0)">
<path d="M72.5801 145C112.621 145 145.08 112.541 145.08 72.5C145.08 32.4594 112.621 0 72.5801 0C32.5394 0 0.0800781 32.4594 0.0800781 72.5C0.0800781 112.541 32.5394 145 72.5801 145Z" fill="#F0C4CD"/>
<path d="M47.2163 94.4335C46.977 94.5133 46.7378 94.5133 46.4985 94.5931C46.0997 94.7526 45.8604 94.7526 45.5414 94.3538C45.2224 93.955 44.8236 94.1943 44.5045 94.274C43.2284 94.5133 41.9523 94.7526 40.6762 94.9919C40.1976 95.0716 40.0381 95.3906 40.0381 95.7894C40.0381 96.587 39.7191 96.8263 38.9215 96.7465C38.5227 96.7465 38.3632 97.0656 38.1239 97.2251C37.5656 97.7036 37.0871 98.1822 36.449 98.6607C35.6514 99.219 34.6943 99.2988 33.7372 99.219C32.5408 99.1393 31.504 98.5012 30.5469 97.9429C30.4671 97.8631 30.3874 97.8631 30.2279 97.8631C29.6696 98.0227 29.51 97.6239 29.3505 97.2251C29.191 96.8263 29.0315 96.3477 28.872 95.9489C28.7922 95.7097 28.7922 95.4704 29.0315 95.4704C29.8291 95.3906 29.9886 94.8323 30.1481 94.1943C30.2279 94.0348 30.2279 93.8752 30.1481 93.636C30.0683 93.0777 29.9088 92.5991 29.8291 92.0408C29.7493 91.4825 29.9088 90.9242 30.0683 90.3659C30.1481 90.0469 30.1481 89.8076 29.9886 89.4885C29.3505 88.2922 28.6327 87.1756 27.9946 85.9792C27.5161 85.0221 27.2768 83.9853 27.0375 82.8686C26.9578 82.4698 26.7185 82.1508 26.4792 81.9115C25.9209 80.9544 25.1234 80.1569 24.6448 79.12C23.8472 77.2058 22.3318 75.8499 21.1355 74.2548C20.8164 73.7762 20.6569 73.2977 20.5771 72.8191C21.295 73.4572 21.8533 74.175 22.4913 74.8928C22.6509 74.6536 22.6509 74.6536 22.4913 74.4143C22.2521 74.0155 21.933 73.537 21.614 73.1382C21.5342 72.9786 21.3747 72.8989 21.5342 72.7394C21.6938 72.5799 21.7735 72.7394 21.933 72.8191C22.3318 73.1382 22.6509 73.4572 23.0496 73.7762C23.1294 73.856 23.2889 73.9357 23.3687 73.856C23.5282 73.7762 23.3687 73.6965 23.3687 73.537C22.8901 71.862 22.0128 70.4264 20.8962 69.0705C20.8164 68.9908 20.6569 68.8312 20.6569 68.6717C20.6569 67.7944 20.5771 66.917 20.8962 66.0397C21.2152 65.4016 21.2152 64.6838 20.8962 64.0458C20.4974 63.1684 20.7367 62.5304 21.295 61.8923C21.4545 61.7328 21.5342 61.653 21.6938 61.9721C21.7735 62.2113 21.6938 62.5304 21.933 62.8494C22.3318 62.4506 22.8104 62.1316 23.0496 61.5733C23.3687 60.7757 24.0067 60.2971 24.6448 59.7388C25.2031 59.2603 25.7614 58.7817 26.3995 58.3032C27.0375 57.7449 27.6756 57.1068 28.4732 56.708C28.9517 56.389 29.51 56.4688 30.0683 56.389C30.3076 56.3092 30.5469 56.2295 30.6267 56.07C31.0254 55.5117 31.5838 55.1926 32.3016 55.1129C32.8599 55.0331 33.0992 54.7938 33.3384 54.3153C33.4182 54.1558 33.4182 53.9963 33.6575 53.9165C33.8967 53.8367 34.2158 53.9165 34.455 53.8367C35.2526 53.8367 35.9704 53.757 36.768 53.757C37.0073 53.757 37.1668 53.5975 37.3263 53.5177C38.762 52.9594 39.5595 51.763 40.2774 50.4869C40.6762 49.7691 40.9952 49.0513 41.394 48.4132C41.4737 48.3334 41.4737 48.1739 41.5535 48.0942C42.1916 47.6954 42.032 47.1371 41.713 46.6585C41.4737 46.3395 41.5535 46.0205 41.6333 45.6217C41.8725 44.3455 42.7499 43.548 43.5474 42.6706C43.7867 42.4314 43.8665 42.5111 44.026 42.7504C44.1855 43.2289 44.4248 43.7075 44.5843 44.186C44.6641 44.4253 44.7438 44.5051 44.9831 44.5848C45.3021 44.7443 45.6212 44.9836 45.9402 44.5848C46.2592 44.2658 46.339 43.9468 46.1795 43.4682C46.0199 43.0694 45.7009 42.8301 45.3021 42.6706C45.0628 42.5909 44.8236 42.5111 44.9033 42.1921C44.9831 41.9528 44.7438 41.873 44.5843 41.7933C44.4248 41.7933 44.345 41.7135 44.345 41.4743C44.345 41.235 44.5843 41.3147 44.6641 41.3147C45.5414 41.3147 46.339 41.554 47.2163 41.6338C47.4556 41.6338 47.6151 41.6338 47.6949 41.3945C47.6949 41.3147 47.6949 41.235 47.7746 41.1552C48.3329 40.8362 48.0139 40.4374 47.8544 40.1184C47.6949 39.7993 47.5353 39.5601 47.7746 39.241C47.7746 39.1613 47.8544 39.1613 47.8544 39.0815C47.4556 38.3637 47.9341 38.2042 48.4924 38.1244C48.8912 38.0447 49.1305 37.6459 49.6091 37.6459C49.8483 37.6459 49.7686 37.3268 49.7686 37.1673C49.6888 36.9281 49.5293 36.609 49.7686 36.3697C50.0876 35.971 50.4864 35.7317 50.8054 35.4127C50.8054 35.4127 50.8852 35.4127 50.9649 35.4127C51.603 35.7317 51.8423 35.3329 52.0816 34.8543C52.2411 34.4556 52.6399 34.3758 52.8791 34.2163C53.0387 34.1365 53.1184 34.2163 53.1982 34.296C53.5172 34.5353 53.7565 34.4556 53.8362 34.0568C53.916 33.8973 53.916 33.8175 53.916 33.658C54.0755 33.3389 54.235 33.1794 54.5541 33.3389C55.9099 33.8973 57.1063 34.6948 58.0634 35.8912C58.2229 36.1305 58.1432 36.29 58.0634 36.4495C57.9836 36.7685 58.0634 36.9281 58.4622 36.7685C58.542 36.7685 58.6217 36.7685 58.6217 36.6888C59.499 36.1305 60.2966 36.29 61.0144 36.8483C61.3335 37.4066 61.2537 38.0447 61.2537 38.6827C61.2537 40.1981 61.3335 41.7933 61.4132 43.3087C61.493 46.0205 61.5728 48.812 61.6525 51.5238C61.7323 52.6404 61.7323 53.757 61.7323 54.9534C61.812 56.6283 61.812 58.3032 61.8918 59.9781C61.9715 62.5304 61.9715 65.0826 62.1311 67.6349C62.1311 68.0337 62.1311 68.5122 62.1311 68.9908C62.2108 71.0645 62.2906 73.1382 62.3703 75.2916C62.4501 77.6046 62.5298 79.8378 62.6096 82.1508C62.6894 83.2674 62.6096 84.4638 62.6894 85.5804C62.6894 85.8197 62.6894 86.059 62.5299 86.2982C61.493 86.8565 60.4561 87.4946 59.3395 87.8934C58.4622 88.2124 57.5849 88.2922 56.7075 88.3719C55.6707 88.4517 54.7136 88.6112 53.7565 88.9302C53.0387 89.1695 52.4006 89.7278 51.7625 90.1266C50.5662 90.2861 50.4066 91.4027 50.0078 92.2003C49.7686 92.7586 49.5293 93.2372 48.8912 93.636C48.4127 93.955 48.0139 94.1145 47.5353 93.955C47.6949 94.3538 47.4556 94.3538 47.2163 94.4335Z" fill="white"/>
<path d="M102.728 34.2162C102.728 34.7745 102.728 35.253 102.967 35.7316C103.127 36.2899 103.446 36.3696 103.924 36.1304C104.243 35.9709 104.722 36.1304 105.041 35.8911C105.12 35.8113 105.2 35.9709 105.2 36.0506C105.439 36.8482 105.998 37.3267 106.556 37.885C106.795 38.1243 106.875 38.2838 106.795 38.6029C106.716 39.56 106.636 40.5171 107.194 41.3146C107.354 41.6337 107.354 41.8729 107.194 42.192C106.955 42.5908 107.035 42.9098 107.354 43.2288C107.673 43.5479 107.832 44.1062 108.311 44.3454C108.47 44.4252 108.391 44.6645 108.391 44.824C108.391 45.2228 108.391 45.6216 108.391 46.0204C108.311 46.2596 108.391 46.5787 108.311 46.8179C108.311 47.0572 108.311 47.2965 108.311 47.5358C108.231 47.775 108.231 48.0941 108.311 48.3333C108.71 48.3333 108.869 48.5726 108.789 48.8916C108.63 50.0083 109.427 50.7261 110.145 51.3641C110.544 51.6832 110.943 52.2415 111.661 52.1617C111.82 52.1617 111.98 52.3212 112.059 52.401C112.618 53.1986 113.415 53.7569 114.053 54.3949C114.293 54.6342 114.771 54.7937 114.931 55.1128C115.01 55.1925 115.09 55.2723 115.01 55.4318C114.771 55.9103 115.01 56.2294 115.25 56.5484C115.888 57.4257 116.207 58.3828 116.606 59.4197C116.685 59.659 116.685 59.8185 116.685 60.0578C116.606 60.6161 116.765 61.1744 117.164 61.5732C117.244 61.5732 117.323 61.4934 117.323 61.4136C117.403 61.0946 117.563 61.0946 117.802 61.3339C117.961 61.4934 118.201 61.6529 118.44 61.8922C118.759 62.1315 118.998 62.291 119.238 61.7327C119.557 61.8922 119.557 62.1315 119.557 62.4505C119.557 63.1683 119.557 63.8861 119.557 64.604C119.557 64.8432 119.557 65.0028 119.876 65.1623C120.354 65.4015 120.673 65.7206 120.753 66.2789C120.753 66.4384 120.833 66.5979 120.992 66.6777C121.949 67.6348 122.587 68.8311 123.305 70.0275C123.704 70.8251 124.183 71.5429 124.422 72.5C124.502 72.819 124.581 73.0583 124.422 73.3773C124.262 73.7761 124.342 74.1749 124.342 74.5737C124.262 74.813 124.342 75.132 124.262 75.3713C124.262 75.6106 124.262 75.9296 124.262 76.1689C124.183 76.4879 124.183 76.8867 124.262 77.2057C124.262 77.2855 124.262 77.3652 124.262 77.3652C124.581 78.0033 124.581 78.7211 124.342 79.3592C124.183 79.5187 123.943 79.5187 123.704 79.5187C123.226 79.5187 122.667 79.5187 122.189 79.5187C121.63 79.5187 121.152 79.758 120.833 80.3163C120.434 80.9543 119.158 81.5127 118.36 81.3531C118.041 81.2734 117.882 81.1139 117.802 80.8746C117.563 80.2365 117.084 80.077 116.526 79.9175C115.569 79.5985 114.612 79.6782 113.655 79.758C113.415 79.758 113.256 79.8377 113.017 79.9973C112.697 80.2365 112.299 80.396 111.82 80.3163C109.986 80.1568 108.151 79.9973 106.237 79.8377C104.403 79.6782 102.568 79.5187 100.734 79.3592C98.8196 79.1997 96.9851 79.0402 95.071 78.8806C94.4329 78.8009 93.7948 78.7211 93.2365 78.7211C92.9973 78.7211 92.6782 78.7211 92.5187 78.4819C92.3592 78.1628 92.4389 77.8438 92.4389 77.445C92.5985 75.2915 92.6782 73.2178 92.758 71.0644C92.758 70.8251 92.758 70.5061 92.8377 70.2668C92.9175 69.868 92.758 69.7085 92.3592 69.7085C91.3223 69.6287 90.2855 69.6287 89.2486 69.549C88.2118 69.4692 87.2547 69.4692 86.2178 69.3894C85.9785 69.3894 85.819 69.3894 85.6595 69.2299C85.4202 68.5919 85.5 67.874 85.5798 67.236C85.5798 66.8372 85.6595 66.3586 85.6595 65.9598C85.6595 63.0088 85.819 60.1375 85.8988 57.1865C85.8988 55.033 86.0583 52.8795 86.0583 50.7261C86.1381 48.3333 86.2178 45.8608 86.2976 43.4681C86.2976 42.9098 86.2178 42.3515 86.5369 41.8729C87.3344 42.2717 88.2118 42.6705 89.0093 43.0693C89.2486 43.1491 89.3284 43.3086 89.4081 43.5479C89.6474 44.2657 90.6843 45.0633 91.4021 45.0633C91.6414 45.0633 91.8806 45.0633 92.0402 45.0633C93.077 45.0633 93.9543 44.505 94.3531 43.5479C94.4329 43.3883 94.5126 43.2288 94.5924 43.0693C95.5495 41.5539 95.9483 39.879 96.3471 38.2041C96.4268 38.0446 96.3471 37.885 96.4268 37.7255C96.4268 37.566 96.4268 37.4863 96.4268 37.3267C96.5066 37.0875 96.5066 36.8482 96.4268 36.6089C96.1876 36.0506 96.1078 35.5721 96.3471 34.934C96.5864 34.1364 96.5066 33.3388 96.6661 32.5413C96.8256 31.9032 97.1447 31.2651 97.3839 30.6271C97.4637 30.4676 97.5435 30.3878 97.3839 30.2283C96.9054 29.8295 97.2244 29.3509 97.3839 28.9522C97.4637 28.7129 97.6232 28.5534 97.7827 28.3141C98.341 27.5963 98.5803 26.7189 98.8196 25.8416C98.9791 25.2035 99.4576 24.9643 99.8564 24.5655C99.9362 24.4059 100.096 24.4857 100.175 24.6452C100.494 25.1238 100.734 25.6023 100.814 26.2404C100.893 26.8784 100.973 27.5165 101.053 28.1546C101.053 28.3938 101.133 28.5534 101.372 28.5534C101.611 28.6331 101.771 28.7926 101.611 29.0319C101.292 29.5105 101.691 29.8295 101.93 30.0688C102.169 30.308 102.329 30.6271 102.169 30.9461C101.93 31.4246 102.169 31.7437 102.488 32.1425C102.568 32.302 102.488 32.5413 102.568 32.7805C102.568 33.0198 102.568 33.1793 102.568 33.4186C102.728 33.8174 102.568 34.0567 102.728 34.2162Z" fill="white"/>
<path d="M86.4574 42.1921C86.3777 44.5051 86.2979 46.8978 86.2182 49.2108C86.1384 51.7631 86.0586 54.2356 85.9789 56.7878C85.8991 58.9413 85.8194 61.015 85.8194 63.1685C85.7396 65.3219 85.6598 67.4754 85.6598 69.6289C85.5003 69.7884 85.2611 69.7884 85.1015 69.7884C83.5861 69.7086 82.1505 69.6289 80.6351 69.6289C74.8128 69.6289 69.0702 69.6289 63.2479 69.6289C62.9288 69.6289 62.6098 69.7086 62.2908 69.4693C62.211 67.7147 62.1312 65.96 62.1312 64.2053C62.0515 61.2543 61.9717 58.383 61.892 55.4319C61.8122 52.1619 61.6527 48.812 61.5729 45.5419C61.4932 43.4682 61.4134 41.3148 61.3337 39.2411C61.3337 38.603 61.2539 37.9649 61.2539 37.4066C62.2908 37.4066 62.2908 37.4066 62.0515 36.3698C62.0515 36.29 62.0515 36.2103 62.0515 36.1305C61.7325 35.2532 61.9717 34.5353 62.6895 33.977C62.8491 33.8175 62.9288 33.658 62.8491 33.4187C62.8491 33.0199 63.0086 32.7009 63.4074 32.5414C63.9657 32.3819 64.0454 32.1426 63.8859 31.5843C63.8062 31.1057 63.8062 30.8665 64.1252 30.4677C64.6037 29.7499 65.3216 29.2713 65.8001 28.5535C65.9596 28.3142 66.9167 28.1547 67.3953 28.3142C68.4321 28.713 69.3892 28.4737 70.3463 28.0749C70.9844 27.8357 70.9844 27.4369 70.6653 26.8786C70.2666 26.3203 69.7082 26.081 69.1499 25.8417C69.0702 25.762 68.9107 25.762 68.9107 25.6822C68.9107 25.5227 69.0702 25.5227 69.2297 25.5227C69.5487 25.5227 69.788 25.3632 70.107 25.2037C70.6653 24.9644 70.9046 25.0441 70.9844 25.6822C71.0641 26.0012 71.0641 26.2405 71.4629 26.081C71.9415 25.9215 72.1807 26.081 72.5795 26.4C73.0581 26.7988 73.6164 27.2774 74.3342 27.0381C74.4937 26.9583 74.5735 27.0381 74.733 27.1178C75.2913 27.4369 75.8496 27.5964 76.4079 27.7559C76.6472 27.8357 76.8067 27.8357 76.9662 27.7559C77.365 27.5964 77.684 27.6762 77.9233 28.0749C78.1626 28.4737 78.4816 28.394 78.8804 28.2345C80.3958 27.5166 81.6719 26.4798 83.1076 25.3632C83.0278 25.762 82.8683 26.0012 82.7088 26.2405C82.1505 26.7191 81.7517 27.3571 81.0339 27.7559C80.8744 27.8357 80.7946 27.9154 80.8744 28.1547C80.9541 28.4737 80.9541 28.7928 81.1934 28.9523C81.2732 29.032 81.3529 28.9523 81.4327 28.8725C81.5922 28.713 81.6719 28.6332 81.7517 28.394C81.991 27.7559 81.991 27.7559 82.4695 28.1547C82.7088 28.3142 82.8683 28.4737 83.1076 28.1547C83.2671 27.9154 83.4266 28.0749 83.4266 28.3142C83.4266 28.5535 83.5064 28.7928 83.3469 29.032C82.9481 29.7499 82.5493 30.3879 82.2303 31.1057C82.0707 31.5045 81.6719 31.8236 81.1136 31.8236C80.7148 31.8236 80.3958 32.3021 80.6351 32.6212C80.7148 32.8604 80.7148 33.0199 80.6351 33.1795C80.3161 34.2961 79.997 35.3329 79.4387 36.3698C79.359 36.609 79.4387 36.609 79.5185 36.7686C80.0768 37.4066 80.6351 38.2042 81.3529 38.6828C81.9112 39.0815 82.4695 39.6399 83.1076 39.8791C83.6659 40.1184 84.1444 40.3577 84.7027 40.5969C85.5003 40.8362 86.1384 41.3148 86.4574 42.1921Z" fill="white"/>
<path d="M62.291 69.3896C68.8312 69.3896 75.3713 69.3896 81.9115 69.3896C83.1876 69.3896 84.384 69.3896 85.6601 69.5492C87.8933 69.7087 90.1266 69.7884 92.3598 69.948C93.0776 70.0277 92.9978 69.948 92.9978 70.6658C92.8383 73.218 92.7586 75.7703 92.5991 78.3225C92.5991 78.4821 92.5991 78.7213 92.5991 78.8808C92.8383 79.1999 92.7586 79.5987 92.7586 79.9975C92.6788 81.5926 92.5991 83.108 92.5193 84.7032C92.4395 86.3781 92.3598 88.1328 92.2003 89.8077C92.1205 91.1636 92.1205 92.5992 91.961 93.9551C92.0408 94.9122 91.8812 95.9491 91.8812 96.9062C91.8015 97.8633 91.8015 98.8203 91.7217 99.6977C91.642 101.452 91.4824 103.207 91.4824 105.041C91.4824 105.52 91.4824 106.078 91.2432 106.557C90.7646 106.477 90.3658 106.078 89.8873 106.158C89.7278 106.158 89.7278 105.999 89.648 105.919C89.1695 105.121 88.6909 104.324 88.1326 103.606C88.0528 103.446 87.9731 103.207 88.0529 103.048C88.4516 102.409 88.2124 101.851 87.9731 101.293C87.6541 100.495 87.2553 99.6977 86.8565 98.9799C86.5374 98.5013 86.6172 98.5013 86.8565 98.0228C86.2982 97.943 85.8994 98.1823 85.4208 98.262C85.2613 98.262 85.022 98.4216 84.8625 98.262C84.703 98.1025 84.8625 97.8632 84.9423 97.7835C85.1018 97.3847 85.3411 97.0657 85.5006 96.7466C85.6601 96.5074 85.6601 96.2681 85.5006 96.0288C85.1816 95.5503 84.9423 95.0717 84.6233 94.6729C84.4637 94.4337 84.3042 94.3539 84.2245 94.7527C83.9852 95.3908 83.8257 96.1086 83.5864 96.7466C83.5066 96.9859 83.4269 97.2252 83.1079 97.1454C82.5495 97.1454 81.9115 97.1454 81.4329 97.5442C81.3532 96.9859 81.6722 96.1883 82.071 96.0288C82.1508 96.0288 82.1508 95.9491 82.2305 95.9491C82.8686 96.1883 82.8686 95.7098 82.9483 95.311C83.1079 94.6729 83.2674 94.1146 83.4269 93.4766C83.5066 93.0778 83.5864 92.5992 83.9852 92.2802C84.2245 92.0409 84.2245 91.8016 84.065 91.5624C83.9054 91.3231 83.9054 91.0041 84.065 90.7648C84.3042 90.4458 84.384 90.047 84.3042 89.5684C84.0649 89.6482 83.9852 89.8077 83.9054 89.9672C83.4269 91.4826 82.2305 92.2004 81.0341 93.1575C80.2366 93.7956 79.6783 94.5134 79.5985 95.63C79.5985 95.7895 79.5187 95.9491 79.3592 96.0288C78.8807 96.2681 78.1629 95.8693 78.0831 95.311C78.0033 94.9122 78.0033 94.5134 78.0033 94.0349C78.0033 93.6361 77.6046 93.3968 77.3653 93.0778C77.2058 92.8385 77.0462 92.5992 76.8867 92.2802C76.6475 91.7219 76.3284 91.4029 75.7701 91.0838C75.2118 90.7648 74.6535 90.2862 74.9725 89.4887C74.9725 89.4089 74.9725 89.1696 74.8928 89.1696C74.2547 89.0899 74.175 88.2923 73.5369 88.2125C72.8988 88.1328 72.2608 87.8137 71.7025 87.4947C71.6227 87.415 71.4632 87.3352 71.3834 87.415C70.3466 87.5745 69.6288 86.9364 68.9109 86.4579C68.3526 86.1388 67.8741 85.9793 67.236 86.2186C66.1194 86.7769 64.923 86.4579 63.8064 86.5376C63.5671 86.5376 63.3279 86.5376 63.0088 86.5376C62.8493 82.0712 62.6898 77.6845 62.5303 73.218C62.3708 72.0217 62.3708 70.6658 62.291 69.3896Z" fill="white"/>
<path d="M91.7217 93.955C91.8812 91.1634 92.0407 88.4517 92.2002 85.6601C92.3597 83.4269 92.4395 81.1937 92.5193 78.9604C93.0776 79.12 93.6359 79.0402 94.1942 79.12C96.0286 79.2795 97.9428 79.3592 99.857 79.5188C101.851 79.6783 103.925 79.8378 105.919 79.9973C107.753 80.1568 109.667 80.3163 111.502 80.4759C112.06 80.5556 112.618 80.5556 113.017 80.0771C113.097 79.9973 113.256 79.9175 113.336 79.9175C114.134 79.9973 114.931 79.5985 115.809 79.9175C115.968 79.9973 116.207 79.9973 116.367 80.0771C117.164 80.1568 117.643 80.4759 117.962 81.2734C118.122 81.8317 118.76 81.5925 119.079 81.5127C119.796 81.2734 120.514 81.0342 120.833 80.2366C120.993 79.758 121.631 79.8378 122.03 79.758C122.748 79.758 123.465 79.758 124.183 79.758C124.422 81.6722 123.864 83.3471 122.987 85.0221C122.668 85.6601 122.429 86.2982 122.109 86.9363C122.03 87.0958 121.87 87.2553 121.95 87.4148C122.109 88.6112 121.232 89.4088 120.754 90.3658C120.674 90.5254 120.594 90.6051 120.514 90.6849C119.956 92.28 118.68 93.3169 117.404 94.3537C116.367 95.1513 115.809 96.4275 115.25 97.5441C114.692 98.5809 114.293 99.6975 113.496 100.655C113.017 101.213 113.017 102.011 112.778 102.649C112.459 103.765 112.14 104.882 111.821 105.998C111.581 106.078 111.422 105.919 111.262 105.839C110.385 105.281 109.428 104.643 108.551 104.004C108.152 103.765 107.992 103.446 107.992 103.047C107.913 102.409 107.594 102.011 107.274 101.532C107.115 101.293 106.876 101.213 106.636 101.213C105.919 101.133 105.121 101.053 104.403 100.974C103.845 100.894 103.287 100.814 102.728 100.495C102.09 100.096 101.372 99.9368 100.575 100.336C100.176 100.575 99.6177 100.415 99.3784 99.9368C98.8999 99.0595 98.1023 98.5012 97.225 97.9429C96.8262 97.7036 96.5869 97.3846 96.6667 96.906C96.6667 96.587 96.5869 96.2679 96.2679 96.0287C96.0286 95.8691 95.8691 95.7894 95.6298 95.9489C95.3108 96.1882 95.0715 96.0287 94.8322 95.7096C94.5132 95.3108 94.1942 94.9121 93.9549 94.5133C93.6359 94.0347 93.3168 93.955 92.8383 93.955C92.599 94.1145 92.1205 94.1942 91.7217 93.955Z" fill="white"/>
<path d="M91.7211 93.9551C92.2794 93.9551 92.8377 93.9551 93.396 93.9551C93.6353 93.9551 93.7948 94.0348 93.9543 94.2741C94.3531 94.8324 94.7519 95.3907 95.1507 95.949C95.2304 96.1085 95.3102 96.2681 95.5495 96.1085C96.1875 95.7098 96.9851 96.1085 96.9054 96.9061C96.8256 97.7037 97.3041 98.0227 97.7827 98.3418C98.5005 98.8203 99.1386 99.2989 99.6171 100.096C99.8564 100.495 100.255 100.655 100.734 100.415C101.372 100.096 102.01 100.176 102.648 100.495C103.605 101.054 104.642 101.054 105.599 101.213C105.998 101.293 106.476 101.293 106.875 101.373C107.354 101.452 108.151 102.33 108.231 103.047C108.311 103.686 108.55 104.084 109.108 104.403C110.065 104.962 111.023 105.679 111.98 106.318C111.661 106.716 111.182 106.876 110.783 107.195C110.624 107.275 110.384 107.195 110.225 107.275C109.746 107.354 109.268 107.354 108.789 107.434C108.63 107.514 108.47 107.434 108.231 107.514C107.513 107.594 106.795 107.594 106.078 107.833C105.519 108.072 105.12 108.471 104.722 108.87C104.243 109.269 103.765 109.667 103.047 109.667C102.967 109.907 103.446 109.986 103.047 110.226C102.728 110.385 102.568 110.385 102.329 110.066C101.85 109.508 101.452 108.87 100.574 108.87C100.255 108.87 99.9362 108.631 99.6171 108.391C99.2981 108.232 99.4576 107.913 99.5374 107.673C99.5374 107.594 99.6969 107.514 99.7766 107.434C99.9362 107.195 100.096 106.876 99.8564 106.637C99.6171 106.397 99.2981 106.637 98.9791 106.716C98.7398 106.796 98.9791 106.956 99.0588 106.956C99.2981 107.115 99.2183 107.275 99.0588 107.354C98.1815 107.913 97.2244 108.471 96.347 108.95C96.1875 109.029 96.028 109.029 95.8685 108.95C95.2304 108.551 94.5126 108.312 93.8745 107.833C93.396 107.434 92.8377 107.354 92.1996 107.434C91.6413 107.514 91.2425 107.275 90.8438 106.796C91.3223 102.33 91.5616 98.1025 91.7211 93.9551Z" fill="white"/>
<path d="M106.636 117.723C106.636 117.962 106.636 118.201 106.636 118.441C106.556 118.68 106.636 118.919 106.556 119.159C105.838 120.116 105.36 121.153 105.121 122.349C105.041 122.588 105.041 122.748 104.881 122.987C104.802 122.827 104.722 122.748 104.642 122.588C104.562 122.429 104.562 122.269 104.323 122.269C104.084 122.269 104.004 122.429 103.924 122.588C103.685 122.907 103.525 123.226 103.286 123.545C103.047 124.024 102.648 124.104 102.17 124.024H102.09C101.691 123.864 101.292 124.183 100.973 124.024C100.654 123.864 100.973 123.306 100.654 122.987C100.335 122.668 100.176 122.269 99.9363 121.95C99.4577 121.312 99.378 120.594 99.5375 119.876C99.6173 119.238 99.2982 118.76 99.0589 118.201C98.6602 117.324 98.6602 116.447 98.6602 115.49C98.6602 115.091 98.9792 114.931 99.378 115.091C100.096 115.49 100.893 115.809 101.611 116.208C102.17 116.527 102.648 116.527 103.206 116.447C104.084 116.287 104.961 116.208 105.759 115.809C106.078 115.649 106.795 116.208 106.795 116.606C106.795 116.766 106.795 116.925 106.795 117.085C106.636 117.244 106.795 117.484 106.636 117.723Z" fill="white"/>
<path d="M118.122 72.9785C114.692 72.9785 111.98 75.6903 111.98 79.1199C111.98 83.6661 118.122 90.5253 118.122 90.5253C118.122 90.5253 124.263 83.6661 124.263 79.1199C124.263 75.6903 121.551 72.9785 118.122 72.9785ZM118.122 81.2733C116.925 81.2733 115.968 80.3162 115.968 79.1199C115.968 77.9235 116.925 76.9664 118.122 76.9664C119.318 76.9664 120.275 77.9235 120.275 79.1199C120.355 80.3162 119.398 81.2733 118.122 81.2733Z" fill="#F37155"/>
<path d="M100.575 88.5312C97.1454 88.5312 94.4336 91.243 94.4336 94.6726C94.4336 99.2188 100.575 106.078 100.575 106.078C100.575 106.078 106.716 99.2188 106.716 94.6726C106.716 91.243 104.005 88.5312 100.575 88.5312ZM100.575 96.9058C99.3786 96.9058 98.4215 95.9487 98.4215 94.7524C98.4215 93.556 99.3786 92.5989 100.575 92.5989C101.771 92.5989 102.728 93.556 102.728 94.7524C102.808 95.9487 101.851 96.9058 100.575 96.9058Z" fill="#F37155"/>
<path d="M30.7068 68.1133C27.2772 68.1133 24.5654 70.8251 24.5654 74.2546C24.5654 78.8009 30.7068 85.66 30.7068 85.66C30.7068 85.66 36.8482 78.8009 36.8482 74.2546C36.7684 70.8251 34.0566 68.1133 30.7068 68.1133ZM30.7068 76.4879C29.5104 76.4879 28.5533 75.5308 28.5533 74.3344C28.5533 73.138 29.5104 72.1809 30.7068 72.1809C31.9032 72.1809 32.8603 73.138 32.8603 74.3344C32.8603 75.5308 31.9032 76.4879 30.7068 76.4879Z" fill="#F37155"/>
</g>
<defs>
<clipPath id="clip0">
<rect width="145" height="145" fill="white"/>
</clipPath>
</defs>
</svg>
