<svg width="18" height="18" viewBox="0 0 18 18" fill="none" xmlns="http://www.w3.org/2000/svg">
<path d="M9 18C8.54813 18 8.18182 17.6337 8.18182 17.1818C8.18182 16.7299 8.54813 16.3636 9 16.3636C13.0668 16.3636 16.3636 13.0668 16.3636 9C16.3636 4.99148 13.1569 1.72131 9.15666 1.63799C9.10452 1.63691 9.05229 1.63636 9 1.63636C4.93318 1.63636 1.63636 4.93318 1.63636 9C1.63636 9.45187 1.27005 9.81818 0.818182 9.81818C0.366312 9.81818 0 9.45187 0 9C0 4.02944 4.02944 0 9 0C9.06365 0 9.12723 0.000662067 9.19074 0.00198465C14.0808 0.10383 18 4.10058 18 9C18 13.9706 13.9706 18 9 18Z" fill="white"/>
</svg>
