<svg width="145" height="145" viewBox="0 0 145 145" fill="none" xmlns="http://www.w3.org/2000/svg">
<g clip-path="url(#clip0)">
<path d="M72.5801 145C112.621 145 145.08 112.541 145.08 72.5C145.08 32.4594 112.621 0 72.5801 0C32.5394 0 0.0800781 32.4594 0.0800781 72.5C0.0800781 112.541 32.5394 145 72.5801 145Z" fill="#F0C4CD"/>
<path d="M73.9357 59.3398L78.8807 77.0461L115.33 93.7155C114.852 101.532 112.14 108.71 106.078 114.134C106.078 114.134 48.2537 108.869 36.29 91.243C24.3263 73.6165 28.8725 49.5295 46.5787 37.5658C64.2053 25.6022 88.2922 30.1484 100.256 47.8546C102.968 51.9223 105.759 56.7078 108.152 61.9718L73.9357 59.3398Z" fill="white"/>
<path d="M108.073 61.9717C112.699 71.9414 115.969 83.4266 115.41 93.7951L78.8812 77.1257L73.8564 59.4194L108.073 61.9717Z" fill="#102246"/>
<path fill-rule="evenodd" clip-rule="evenodd" d="M56.3096 52.7198C50.3277 51.8425 44.7446 56.0696 43.9471 62.0515C43.0697 68.0333 50.2479 78.9602 51.9229 81.3529C52.0824 81.5922 52.4812 81.6719 52.7204 81.4327C54.9537 79.5982 64.8437 71.0641 65.721 65.162C66.5186 59.1004 62.3712 53.5174 56.3096 52.7198ZM52.5609 79.7578L51.6836 78.4019C47.2171 71.3832 44.9042 65.4013 45.303 62.211C46.0208 56.947 50.886 53.3579 56.15 54.0757C61.4141 54.7935 65.0032 59.6588 64.2853 64.9228C63.8068 68.1131 59.8987 73.2176 53.7573 78.7209L52.5609 79.7578Z" fill="#F37155"/>
<path fill-rule="evenodd" clip-rule="evenodd" d="M62.451 66.2785C61.2546 69.1498 57.8251 73.2175 53.1193 77.3649C52.9598 77.5244 52.7205 77.4446 52.6408 77.2851C52.242 76.6471 51.8432 76.0887 51.5242 75.4507C50.5671 73.7758 49.6897 72.1806 48.9719 70.6652C48.8922 70.4259 49.0517 70.1867 49.2909 70.1867C51.6039 70.1867 53.9169 69.4688 55.8311 67.9534C57.7453 66.5178 59.9785 65.8 62.2117 65.7202C62.3713 65.8 62.5308 66.0392 62.451 66.2785Z" fill="#F37155"/>
</g>
<defs>
<clipPath id="clip0">
<rect width="145" height="145" fill="white"/>
</clipPath>
</defs>
</svg>
