<svg width="145" height="145" viewBox="0 0 145 145" fill="none" xmlns="http://www.w3.org/2000/svg">
<path d="M72.5 145C112.541 145 145 112.541 145 72.5C145 32.4594 112.541 0 72.5 0C32.4594 0 0 32.4594 0 72.5C0 112.541 32.4594 145 72.5 145Z" fill="#FFD249"/>
<mask id="mask0" mask-type="alpha" maskUnits="userSpaceOnUse" x="0" y="0" width="145" height="145">
<path d="M72.5 145C112.541 145 145 112.541 145 72.5C145 32.4594 112.541 0 72.5 0C32.4594 0 0 32.4594 0 72.5C0 112.541 32.4594 145 72.5 145Z" fill="#FFD249"/>
</mask>
<g mask="url(#mask0)">
<path d="M58.0643 84.6233C64.2855 99.219 69.3102 116.686 75.2921 131.84C77.286 136.785 79.4395 141.73 81.6727 146.595C84.6237 153.056 87.495 159.436 90.4461 165.897L93.5566 172.517C95.3113 176.744 97.4648 180.811 99.7777 184.72C104.005 191.659 109.987 198.597 118.042 199.714C120.674 200.113 123.466 199.794 126.098 199.395C134.393 198.199 142.608 196.205 150.504 193.493L143.166 156.725C139.178 158.479 134.871 159.357 130.564 159.197C128.411 159.117 126.257 158.798 124.343 157.921C122.429 157.044 120.674 155.448 119.957 153.454L118.361 151.141C115.41 144.681 96.3482 94.4335 89.0104 79.9176L88.8509 77.4451C88.8509 75.3714 88.8509 73.2179 88.8509 71.1442C88.8509 70.6657 88.8509 70.1871 88.6914 69.7086C88.2926 68.6717 87.0962 68.1932 86.0594 67.8741C83.9059 67.3158 81.7524 67.1563 79.5192 67.3158C79.5192 67.3158 78.4824 30.0688 76.8075 30.0688C75.0528 30.0688 71.5434 65.5611 71.5434 65.5611C71.5434 65.5611 59.5797 31.9033 55.8311 33.0199C52.0825 34.1365 62.2117 65.7207 62.2117 65.7207C60.3773 66.4385 55.5121 66.1992 53.6776 66.917C52.561 67.3158 51.3647 67.8741 50.7266 68.8312C50.0088 70.0276 50.248 71.6228 50.4873 72.9786C50.9659 75.0523 51.4444 77.1261 52.7205 78.8807C53.8372 80.6354 58.0643 84.6233 58.0643 84.6233Z" fill="#EA8958"/>
<path d="M79.2 66.2788C77.2858 66.3586 75.4513 66.5181 73.5372 66.8371C72.6598 66.9966 71.7825 67.1561 70.9051 67.3954C70.0278 67.6347 69.1505 67.874 68.4327 68.512C67.0768 69.7084 66.997 71.8619 67.8743 73.2975C68.8314 74.8927 70.6659 75.6105 72.4206 75.8498C74.574 76.1688 76.7275 76.3283 78.8809 76.6474C79.6785 76.7271 80.3963 75.8498 80.3963 75.1319C80.3963 74.2546 79.6785 73.6963 78.8809 73.6165C76.9668 73.3773 74.893 73.2178 73.1384 72.9785C72.1813 72.819 71.623 72.6595 70.9051 72.2607C70.7456 72.1809 70.7456 72.1809 70.8254 72.1809C70.7456 72.1011 70.6659 72.0214 70.5861 71.9416C70.3468 71.7024 70.5861 72.0214 70.4266 71.7821C70.3468 71.7024 70.3468 71.6226 70.2671 71.5428C70.3468 71.7024 70.3468 71.7024 70.2671 71.5428C70.2671 71.4631 70.1873 71.3833 70.1873 71.3036C70.1873 71.4631 70.1873 71.4631 70.1873 71.3036C70.1873 71.1441 70.1873 71.1441 70.1873 71.3036C70.1873 71.2238 70.1873 71.144 70.2671 71.0643C70.3468 70.9048 70.3468 70.9048 70.2671 71.0643C70.3468 70.9048 70.3468 70.9048 70.2671 71.0643C70.3468 70.9845 70.5861 70.825 70.4266 70.9048C70.5064 70.825 70.5861 70.825 70.6659 70.7453C70.5064 70.825 70.5861 70.825 70.7456 70.7453C71.623 70.506 72.5003 70.2667 73.3776 70.1072C75.2918 69.7084 77.1263 69.5489 79.0405 69.4691C79.838 69.4691 80.5559 68.8311 80.5559 67.9537C80.7154 66.9966 79.9976 66.2788 79.2 66.2788Z" fill="#EC6E4D"/>
<path d="M71.623 76.0891C73.2181 81.4329 78.0036 85.2613 83.5069 85.5803C84.3045 85.6601 85.0223 84.8625 85.0223 84.0649C85.0223 83.1876 84.3045 82.6293 83.5069 82.5495C82.9486 82.5495 82.6295 82.4697 81.9915 82.3102C81.4332 82.1507 80.8749 81.9912 80.3166 81.8317C79.519 81.5127 78.4024 80.8746 77.7643 80.3163C76.1691 78.9604 75.0525 77.2057 74.4145 75.2915C74.1752 74.494 73.3776 74.0154 72.58 74.2547C71.942 74.4142 71.3837 75.2915 71.623 76.0891Z" fill="#EC6E4D"/>
<path d="M58.3035 85.8195C62.7699 85.341 67.2364 84.8624 71.7028 84.3839C72.7397 84.3041 73.8563 84.1446 74.4944 83.1077C75.0527 82.3102 74.9729 81.1936 74.9729 80.2365C74.8931 78.083 74.2551 76.089 73.2182 74.2546C72.2611 72.5797 69.6291 74.0951 70.5862 75.77C71.3838 77.1259 71.8623 78.5615 71.9421 80.1567C71.9421 80.5555 71.9421 80.9543 71.9421 81.3531C71.9421 81.5923 71.7826 81.7519 72.1016 81.5126C72.5004 81.1935 72.1814 81.4328 72.0219 81.4328C71.1445 81.4328 70.1874 81.5923 69.3101 81.7519C65.6412 82.1506 61.9724 82.5494 58.3035 82.9482C57.5059 83.028 56.7881 83.5863 56.7881 84.4636C56.7881 85.0219 57.5059 85.8993 58.3035 85.8195Z" fill="#EC6E4D"/>
<path d="M54.4755 68.5122C57.4265 73.6167 60.8561 78.4022 64.6845 82.8686C65.2428 83.5067 66.2797 83.4269 66.838 82.8686C67.4761 82.2306 67.3963 81.3532 66.838 80.7152C63.1691 76.4082 59.899 71.862 57.1075 66.9968C56.0707 65.3219 53.5184 66.8373 54.4755 68.5122Z" fill="#EC6E4D"/>
<path d="M61.0153 67.0764C63.408 70.5059 66.2793 73.6963 69.4696 76.408C70.1077 76.8866 70.985 77.0461 71.6231 76.408C72.1016 75.8497 72.2611 74.8129 71.6231 74.2546C70.1077 72.9784 68.672 71.5428 67.2364 70.1072C66.5983 69.3893 65.9603 68.6715 65.3222 67.8739C64.7639 67.1561 64.2056 66.4383 63.5675 65.5609C63.089 64.9229 62.2116 64.5241 61.4938 65.0026C60.9355 65.4014 60.5367 66.3585 61.0153 67.0764Z" fill="#EC6E4D"/>
</g>
</svg>
