<svg width="145" height="145" viewBox="0 0 145 145" fill="none" xmlns="http://www.w3.org/2000/svg">
<g clip-path="url(#clip0)">
<path d="M72.5801 145C112.621 145 145.08 112.541 145.08 72.5C145.08 32.4594 112.621 0 72.5801 0C32.5394 0 0.0800781 32.4594 0.0800781 72.5C0.0800781 112.541 32.5394 145 72.5801 145Z" fill="#C8EBFB"/>
<path d="M117.564 59.7388H29.9893V115.171H117.564V59.7388Z" fill="#FFD249"/>
<path d="M84.8628 73.0586H62.6104V115.171H84.8628V73.0586Z" fill="white"/>
<path fill-rule="evenodd" clip-rule="evenodd" d="M62.6104 100.655L84.8628 78.8807V76.6475L62.6104 98.4214V100.655Z" fill="#C8EBFB"/>
<path fill-rule="evenodd" clip-rule="evenodd" d="M62.6104 107.434L84.8628 85.6603V81.1938L62.6104 102.888V107.434Z" fill="#C8EBFB"/>
<path fill-rule="evenodd" clip-rule="evenodd" d="M62.6104 111.9L84.8628 90.1263V87.8931L62.6104 109.667V111.9Z" fill="#C8EBFB"/>
<path d="M112.22 73.0586H92.1211V104.483H112.22V73.0586Z" fill="white"/>
<path fill-rule="evenodd" clip-rule="evenodd" d="M92.1211 94.1147L112.22 74.4942V73.0586H111.343L92.1211 91.8815V94.1147Z" fill="#C8EBFB"/>
<path fill-rule="evenodd" clip-rule="evenodd" d="M92.1211 100.894L112.22 81.194V76.7275L92.1211 96.4278V100.894Z" fill="#C8EBFB"/>
<path fill-rule="evenodd" clip-rule="evenodd" d="M92.9984 104.483L112.22 85.6605V83.4272L92.1211 103.127V104.483H92.9984Z" fill="#C8EBFB"/>
<path d="M55.3519 73.0586H35.2529V104.483H55.3519V73.0586Z" fill="white"/>
<path fill-rule="evenodd" clip-rule="evenodd" d="M35.2529 94.1147L55.3519 74.4942V73.0586H54.4746L35.2529 91.8815V94.1147Z" fill="#C8EBFB"/>
<path fill-rule="evenodd" clip-rule="evenodd" d="M35.2529 100.894L55.3519 81.194V76.7275L35.2529 96.4278V100.894Z" fill="#C8EBFB"/>
<path fill-rule="evenodd" clip-rule="evenodd" d="M36.1303 104.483L55.3519 85.6605V83.4272L35.2529 103.127V104.483H36.1303Z" fill="#C8EBFB"/>
<path d="M53.7571 41.2354H49.9287V61.4141H53.7571V41.2354Z" fill="#F37155"/>
<path d="M97.5442 41.2354H93.7158V61.4141H97.5442V41.2354Z" fill="#F37155"/>
<path d="M121.631 58.3833H25.8418V64.8437H121.631V58.3833Z" fill="#F37155"/>
<path d="M121.631 27.6763H25.8418V51.9227H121.631V27.6763Z" fill="#F37155"/>
<path d="M119.717 29.6704H27.8359V50.0087H119.717V29.6704Z" fill="white"/>
<path d="M62.929 46.1803V47.3767C62.929 47.5362 62.8492 47.6159 62.6897 47.6159H61.0148C60.8553 47.6159 60.7755 47.5362 60.7755 47.3767V46.1803C59.4196 45.8613 58.2233 45.1434 57.5852 44.3459C57.5055 44.2661 57.5055 44.1066 57.5852 43.9471L58.9411 42.4317C59.0209 42.2722 59.1804 42.2722 59.3399 42.4317C60.2172 43.1495 61.0148 43.4685 61.9719 43.4685C62.6897 43.4685 63.3278 43.1495 63.3278 42.4317C63.3278 40.7568 57.9042 41.3151 57.9042 37.2474C57.9042 35.413 59.1804 34.2166 60.6958 33.8178V32.4619C60.6958 32.3024 60.7755 32.2227 60.935 32.2227H62.61C62.7695 32.2227 62.8492 32.3024 62.8492 32.4619V33.7381C64.0456 33.8976 64.9229 34.5356 65.8003 35.2535C65.9598 35.413 65.9598 35.4927 65.8003 35.6522L64.5242 37.2474C64.4444 37.4069 64.2849 37.4069 64.1254 37.3272C63.248 36.7689 62.6897 36.5296 61.9719 36.5296C61.1743 36.5296 60.7755 37.0081 60.7755 37.4069C60.7755 39.1616 66.1991 38.2843 66.1991 42.5912C66.3586 44.6649 64.6837 45.8613 62.929 46.1803Z" fill="#F37155"/>
<path d="M74.8929 46.1803V47.3767C74.8929 47.5362 74.8131 47.6159 74.6536 47.6159H72.9787C72.8192 47.6159 72.7394 47.5362 72.7394 47.3767V46.1803C71.3835 45.8613 70.1871 45.1434 69.5491 44.3459C69.4693 44.2661 69.4693 44.1066 69.5491 43.9471L70.905 42.4317C70.9847 42.2722 71.1442 42.2722 71.3038 42.4317C72.1811 43.1495 72.9787 43.4685 73.9358 43.4685C74.6536 43.4685 75.2917 43.1495 75.2917 42.4317C75.2917 40.7568 69.8681 41.3151 69.8681 37.2474C69.8681 35.413 71.1442 34.2166 72.6596 33.8178V32.4619C72.6596 32.3024 72.7394 32.2227 72.8989 32.2227H74.5738C74.7333 32.2227 74.8131 32.3024 74.8131 32.4619V33.7381C76.0095 33.8976 76.8868 34.5356 77.7642 35.2535C77.9237 35.413 77.9237 35.4927 77.7642 35.6522L76.488 37.2474C76.4083 37.4069 76.2488 37.4069 76.0892 37.3272C75.2119 36.7689 74.6536 36.5296 73.9358 36.5296C73.1382 36.5296 72.7394 37.0081 72.7394 37.4069C72.7394 39.1616 78.1629 38.2843 78.1629 42.5912C78.2427 44.6649 76.6475 45.8613 74.8929 46.1803Z" fill="#F37155"/>
<path d="M86.7766 46.1803V47.3767C86.7766 47.5362 86.6969 47.6159 86.5374 47.6159H84.8625C84.7029 47.6159 84.6232 47.5362 84.6232 47.3767V46.1803C83.2673 45.8613 82.0709 45.1434 81.4329 44.3459C81.3531 44.2661 81.3531 44.1066 81.4329 43.9471L82.7888 42.4317C82.8685 42.2722 83.028 42.2722 83.1875 42.4317C84.0649 43.1495 84.8625 43.4685 85.8196 43.4685C86.5374 43.4685 87.1754 43.1495 87.1754 42.4317C87.1754 40.7568 81.7519 41.3151 81.7519 37.2474C81.7519 35.413 83.028 34.2166 84.5434 33.8178V32.4619C84.5434 32.3024 84.6232 32.2227 84.7827 32.2227H86.4576C86.6171 32.2227 86.6969 32.3024 86.6969 32.4619V33.7381C87.8933 33.8976 88.7706 34.5356 89.6479 35.2535C89.8074 35.413 89.8074 35.4927 89.6479 35.6522L88.3718 37.2474C88.292 37.4069 88.1325 37.4069 87.973 37.3272C87.0957 36.7689 86.5374 36.5296 85.8196 36.5296C85.022 36.5296 84.6232 37.0081 84.6232 37.4069C84.6232 39.1616 90.0467 38.2843 90.0467 42.5912C90.1265 44.6649 88.5313 45.8613 86.7766 46.1803Z" fill="#F37155"/>
</g>
<defs>
<clipPath id="clip0">
<rect width="145" height="145" fill="white"/>
</clipPath>
</defs>
</svg>
