<svg width="36" height="32" viewBox="0 0 36 32" fill="none" xmlns="http://www.w3.org/2000/svg">
<rect width="32" height="32" transform="translate(4)" fill="white"/>
<mask id="path-1-inside-1" fill="white">
<path d="M6.3 6.7L5.40669 4.54118C5.22106 4.09256 4.78339 3.8 4.29787 3.8H1.2C0.537257 3.8 0 3.26274 0 2.6V2.2C0 1.53726 0.537258 1 1.2 1H5.81597C6.29233 1 6.72358 1.28176 6.91492 1.71801L8.78509 5.98199C8.97642 6.41824 9.40767 6.7 9.88403 6.7H34.6626C35.4737 6.7 36.0512 7.48793 35.8069 8.26136L31.1648 22.9614C31.0072 23.4606 30.5441 23.8 30.0205 23.8H12.0095C11.4717 23.8 10.9995 23.4421 10.8542 22.9243L6.3 6.7Z"/>
</mask>
<path d="M6.3 6.7L9.18836 5.88923C9.15628 5.77493 9.11744 5.66264 9.07205 5.55294L6.3 6.7ZM5.40669 4.54118L2.63464 5.68823L5.40669 4.54118ZM6.91492 1.71801L9.66228 0.513022L6.91492 1.71801ZM10.8542 22.9243L13.7426 22.1135L10.8542 22.9243ZM35.8069 8.26136L38.6677 9.16475L35.8069 8.26136ZM32.9462 7.35796L28.3041 22.058L34.0256 23.8648L38.6677 9.16475L32.9462 7.35796ZM30.0205 20.8H12.0095V26.8H30.0205V20.8ZM13.7426 22.1135L9.18836 5.88923L3.41163 7.51077L7.96583 23.7351L13.7426 22.1135ZM4.16755 2.92299L6.03772 7.18698L11.5325 4.77701L9.66228 0.513022L4.16755 2.92299ZM9.88403 9.7H34.6626V3.7H9.88403V9.7ZM1.2 4H5.81597V-2H1.2V4ZM3 2.6V2.2H-3V2.6H3ZM9.07205 5.55294L8.17875 3.39412L2.63464 5.68823L3.52795 7.84705L9.07205 5.55294ZM4.29787 0.8H1.2V6.8H4.29787V0.8ZM8.17875 3.39412C7.52902 1.82395 5.99716 0.8 4.29787 0.8V6.8C3.56961 6.8 2.9131 6.36117 2.63464 5.68823L8.17875 3.39412ZM-3 2.6C-3 4.91959 -1.1196 6.8 1.2 6.8V0.8C2.19412 0.8 3 1.60589 3 2.6H-3ZM1.2 -2C-1.11959 -2 -3 -0.1196 -3 2.2H3C3 3.19411 2.19411 4 1.2 4V-2ZM6.03772 7.18698C6.70739 8.71383 8.21678 9.7 9.88403 9.7V3.7C10.5986 3.7 11.2454 4.12264 11.5325 4.77701L6.03772 7.18698ZM9.66228 0.513022C8.99261 -1.01382 7.48322 -2 5.81597 -2V4C5.10143 4 4.45455 3.57735 4.16755 2.92299L9.66228 0.513022ZM12.0095 20.8C12.8163 20.8 13.5245 21.3368 13.7426 22.1135L7.96583 23.7351C8.47457 25.5475 10.1271 26.8 12.0095 26.8V20.8ZM28.3041 22.058C28.5406 21.3091 29.2352 20.8 30.0205 20.8V26.8C31.8529 26.8 33.4738 25.6121 34.0256 23.8648L28.3041 22.058ZM38.6677 9.16475C39.5225 6.45777 37.5014 3.7 34.6626 3.7V9.7C33.446 9.7 32.5798 8.5181 32.9462 7.35796L38.6677 9.16475Z" fill="#75B634" mask="url(#path-1-inside-1)"/>
<circle cx="15.2999" cy="28.5992" r="2.4" fill="#75B634"/>
<circle cx="26.7" cy="28.5992" r="2.4" fill="#75B634"/>
</svg>
