<svg width="118" height="25" viewBox="0 0 118 25" fill="none" xmlns="http://www.w3.org/2000/svg">
<path d="M8.30992 24.099C8.29059 24.099 8.29059 24.1184 8.30992 24.099C3.76554 22.32 0.536133 17.8916 0.536133 12.7091C0.536133 5.94085 6.00873 0.468262 12.777 0.468262C15.0588 0.468262 17.2053 1.10641 19.0424 2.18932C16.9346 2.73078 15.5423 4.33582 15.5423 6.83039V7.15914L10.6498 18.6845L5.98939 7.10112H3.86223L9.45085 21.237L8.30992 24.099ZM12.777 24.9499C11.9068 24.9499 11.0559 24.8532 10.2244 24.6792L15.5423 12.0323V21.7012H17.4954V8.89954H21.1696V7.10112H17.6114H17.4954V6.48231C17.4954 5.78615 17.8241 5.12867 18.4623 4.43251C18.907 4.00708 19.6225 3.77502 20.6474 3.71701L21.0729 3.69767C23.4901 5.94086 25.0178 9.13159 25.0178 12.6897C25.0178 19.4773 19.5452 24.9499 12.777 24.9499Z" fill="url(#paint0_linear)"/>
<path d="M117.51 16.8863V18.2786H109.446V16.8863L115.402 8.55169H109.833V7.17871H117.22V8.57103L111.322 16.8863H117.51Z" fill="#3F3F3F"/>
<path d="M108.479 12.7867C108.518 14.3918 107.938 15.7648 106.758 16.9444C105.579 18.0853 104.186 18.6461 102.581 18.5881C101.034 18.5494 99.7194 17.9693 98.6558 16.8477C97.5729 15.7068 97.0508 14.3724 97.0508 12.8061C97.0508 11.201 97.6309 9.78939 98.7912 8.62912C99.9514 7.46886 101.324 6.88872 102.929 6.94674C104.573 7.00475 105.927 7.66223 107.029 8.91919V3.33057H108.499V12.7867H108.479ZM105.714 15.8615C106.584 14.9526 107.01 13.889 106.971 12.6707C106.952 11.4911 106.526 10.5049 105.714 9.65403C104.921 8.8225 103.954 8.39707 102.813 8.39707C101.634 8.37773 100.628 8.80316 99.7967 9.65403C98.9459 10.4856 98.5398 11.4911 98.5204 12.6707C98.5011 13.8503 98.8879 14.8752 99.7 15.7454C100.493 16.635 101.44 17.0797 102.601 17.1184C103.819 17.1958 104.863 16.7897 105.714 15.8615Z" fill="#3F3F3F"/>
<path d="M94.4214 8.68714C95.5044 9.80873 96.0458 11.1624 96.0458 12.7287C96.0458 14.3144 95.4657 15.7068 94.2861 16.8864C93.1258 18.0466 91.7528 18.5881 90.1671 18.5301C88.6201 18.4914 87.2858 17.9113 86.2222 16.7897C85.1587 15.6681 84.6172 14.3144 84.6172 12.7481C84.6172 11.143 85.1973 9.73138 86.3576 8.57111C87.5179 7.41085 88.8908 6.83071 90.4959 6.88873C92.0429 6.94674 93.3579 7.52687 94.4214 8.68714ZM93.2999 15.8034C94.1894 14.8752 94.5955 13.831 94.5761 12.5934C94.5375 11.4331 94.112 10.4275 93.2999 9.57668C92.507 8.74515 91.5595 8.33906 90.4185 8.33906C89.2389 8.31972 88.2334 8.74515 87.4018 9.57668C86.5703 10.4275 86.1642 11.4138 86.1449 12.6127C86.1255 13.773 86.493 14.8172 87.3051 15.6874C88.098 16.577 89.0455 17.0217 90.2058 17.0604C91.4048 17.1378 92.449 16.7123 93.2999 15.8034Z" fill="#3F3F3F"/>
<path d="M81.9869 8.68714C83.0698 9.80873 83.6113 11.1624 83.6113 12.7287C83.6113 14.3144 83.0311 15.7068 81.8515 16.8864C80.6912 18.0466 79.3183 18.5881 77.7132 18.5301C76.1662 18.4914 74.8512 17.9113 73.7877 16.7897C72.7047 15.6681 72.1826 14.3144 72.1826 12.7481C72.1826 11.143 72.7628 9.73138 73.923 8.57111C75.0833 7.41085 76.4563 6.83071 78.0613 6.88873C79.589 6.94674 80.9233 7.52687 81.9869 8.68714ZM80.8653 15.8034C81.7355 14.8752 82.1609 13.831 82.1416 12.5934C82.1029 11.4331 81.6775 10.4275 80.8653 9.57668C80.0724 8.74515 79.1249 8.33906 77.984 8.33906C76.8043 8.31972 75.7988 8.74515 74.9673 9.57668C74.1357 10.4275 73.7103 11.4138 73.7103 12.6127C73.691 13.773 74.0584 14.8172 74.8706 15.6874C75.6634 16.577 76.611 17.0217 77.7712 17.0604C78.9702 17.1378 79.9951 16.7123 80.8653 15.8034Z" fill="#3F3F3F"/>
<path d="M72.1242 3.25274V4.56771L71.7375 4.58704C70.964 4.62572 70.4225 4.79976 70.0744 5.1285C69.591 5.65062 69.3396 6.15341 69.3396 6.67553V7.13963H72.0082V8.49328H69.3396V18.2589H67.8506V6.92692C67.8506 4.56771 69.4556 3.2334 71.7375 3.2334H72.1242V3.25274Z" fill="#3F3F3F"/>
<path d="M65.6466 7.17871V13.5215C65.6466 14.9718 65.1825 16.1708 64.2543 17.1183C63.3261 18.0852 62.1658 18.5687 60.7348 18.5687C59.3232 18.5687 58.1436 18.0852 57.196 17.1183C56.2872 16.1514 55.8037 14.9525 55.8037 13.5215V7.17871H57.3121V13.6762C57.3121 14.6044 57.6408 15.4166 58.337 16.0934C59.0138 16.7509 59.8066 17.0797 60.7348 17.0797C61.6631 17.0797 62.4366 16.7316 63.1134 16.0934C63.8096 15.3973 64.1576 14.6044 64.1576 13.6762V7.17871H65.6466Z" fill="#3F3F3F"/>
<path d="M52.7289 8.68714C53.7925 9.80873 54.3339 11.1624 54.3339 12.7287C54.3339 14.3144 53.7538 15.7068 52.5742 16.8864C51.4139 18.0466 50.0409 18.5881 48.4552 18.5301C46.9082 18.4914 45.5739 17.9113 44.5103 16.7897C43.4467 15.6681 42.9053 14.3144 42.9053 12.7481C42.9053 11.143 43.4854 9.73138 44.6457 8.57111C45.8059 7.41085 47.1789 6.83071 48.784 6.88873C50.331 6.94674 51.6653 7.52687 52.7289 8.68714ZM51.5879 15.8034C52.4775 14.8752 52.8836 13.831 52.8642 12.5934C52.8256 11.4331 52.4001 10.4275 51.5879 9.57668C50.7951 8.74515 49.8475 8.33906 48.7066 8.33906C47.5077 8.31972 46.5214 8.74515 45.6706 9.57668C44.8391 10.4275 44.433 11.4138 44.4136 12.6127C44.3943 13.773 44.7617 14.8172 45.5739 15.6874C46.3667 16.577 47.3143 17.0217 48.4746 17.0604C49.7122 17.1378 50.7371 16.7123 51.5879 15.8034Z" fill="#3F3F3F"/>
<path d="M42.9821 7.17871L36.6779 22.1655H35.0922L36.7553 17.9305L32.501 7.17871H34.1253L37.6642 15.9774L41.4157 7.17871H42.9821Z" fill="#3F3F3F"/>
<defs>
<linearGradient id="paint0_linear" x1="17.0257" y1="5.22203" x2="8.40531" y2="19.9789" gradientUnits="userSpaceOnUse">
<stop stop-color="#9DCB3C"/>
<stop offset="1" stop-color="#5A9941"/>
</linearGradient>
</defs>
</svg>
