<?xml version="1.0" standalone="no"?>
<!DOCTYPE svg PUBLIC "-//W3C//DTD SVG 1.1//EN" "http://www.w3.org/Graphics/SVG/1.1/DTD/svg11.dtd">
<svg xmlns="http://www.w3.org/2000/svg"><metadata>This SVG WebFont was generated by YouWorkForThem.
Â© 2016 Connary Fagen</metadata><defs><font horiz-adv-x="1249" id="ywftsvg"><font-face ascent="1638" bbox="-338 -627 2189.63 1925" cap-height="1434" descent="-410" font-family="" font-stretch="normal" font-weight="600" panose-1="0 0 7 0 0 0 0 0 0 0" underline-position="0" underline-thickness="0" unicode-range="U+0020-FB02" units-per-em="2048" x-height="1004"/><missing-glyph d="M831 1638v-2027h-643v2027h643zM676 1503h-336v-67h133v-76h-135v-66h338v66h-135v76h135v67zM541 1241h-203v-211h338v70h-135v141zM473 1171v-71h-67v71h67zM676 975h-338v-66h135v-75h-135v-68h203v143h135v66zM676 854h-68v-133h-270v-70h338v203zM676 606h-203v-112 h68v45h67v-95h-202v162h-68v-229h338v229zM676 256h-338v-229h338v229zM608 188v-94h-202v94h202zM676 -20h-338v-66h143l-143 -96v-68h338v68h-207l141 96h66v66z" horiz-adv-x="1013"/><glyph d="M696 1475q20 -12 21 -37v-133q0 -41 -37 -21q-59 33 -115 33q-74 0 -98.5 -34t-24.5 -101v-178h213q31 0 31 -31v-117q0 -31 -31 -31h-213v-794q0 -31 -30 -31h-154q-31 0 -31 31v794h-118q-31 0 -31 31v117q0 31 31 31h118v198q0 305 318 305q92 1 151 -32zM991 1219 q-53 0 -89 35.5t-36 89t36 89t89 35.5q51 0 87 -35.5t36 -89t-36 -89t-87 -35.5zM1067 1004q31 0 31 -31v-942q0 -31 -31 -31h-154q-31 0 -30 31v942q0 31 30 31h154z" glyph-name="uniFB01" horiz-adv-x="1189" unicode="fi"/><glyph d="M696 1475q20 -12 21 -37v-133q0 -41 -37 -21q-59 33 -115 33q-74 0 -98.5 -34t-24.5 -101v-178h213q31 0 31 -31v-117q0 -31 -31 -31h-213v-794q0 -31 -30 -31h-154q-31 0 -31 31v794h-118q-31 0 -31 31v117q0 31 31 31h118v198q0 305 318 305q92 1 151 -32zM1061 1495 q31 0 31 -31v-1433q0 -31 -31 -31h-154q-31 0 -30 31v1433q0 31 30 31h154z" glyph-name="uniFB02" horiz-adv-x="1198" unicode="fl"/><glyph d="M831 1638v-2027h-643v2027h643zM676 1503h-336v-67h133v-76h-135v-66h338v66h-135v76h135v67zM541 1241h-203v-211h338v70h-135v141zM473 1171v-71h-67v71h67zM676 975h-338v-66h135v-75h-135v-68h203v143h135v66zM676 854h-68v-133h-270v-70h338v203zM676 606h-203v-112 h68v45h67v-95h-202v162h-68v-229h338v229zM676 256h-338v-229h338v229zM608 188v-94h-202v94h202zM676 -20h-338v-66h143l-143 -96v-68h338v68h-207l141 96h66v66z" glyph-name=".notdef" horiz-adv-x="1013"/><glyph glyph-name="glyph1" horiz-adv-x="0"/><glyph glyph-name="glyph2" horiz-adv-x="681"/><glyph glyph-name="space" horiz-adv-x="573" unicode=" "/><glyph d="M406 1315l-60 -875q-2 -31 -33 -30h-57q-31 0 -33 30l-59 875q-4 59 31.5 97t89 38t89.5 -39t32 -96zM284.5 -27q-51.5 0 -88 36t-36.5 89.5t36.5 89t88 35.5t88.5 -35.5t37 -89t-37 -89.5t-88.5 -36z" glyph-name="exclam" horiz-adv-x="567" unicode="!"/><glyph d="M252 1434q14 0 23.5 -8.5t7.5 -22.5l-17 -393q-4 -31 -30 -31h-99q-31 0 -31 31l-18 393q0 31 31 31h133zM528 1434q14 0 23.5 -8.5t7.5 -22.5l-16 -393q-4 -31 -31 -31h-98q-31 0 -31 31l-18 393q0 31 30 31h133z" glyph-name="quotedbl" horiz-adv-x="645" unicode="&quot;"/><glyph d="M1059 987h-137v-375h137q35 0 35 -30v-107q0 -31 -35 -31h-137v-249q0 -31 -31 -31h-141q-31 0 -31 31v249h-215v-249q0 -31 -31 -31h-139q-31 0 -31 31v249h-139q-31 0 -31 31v107q0 31 31 30h139v375h-139q-31 0 -31 31v106q0 31 31 31h139v248q0 31 31 31h139 q31 0 31 -31v-248h215v248q0 31 31 31h141q31 0 31 -31v-248h137q35 0 35 -31v-106q0 -31 -35 -31zM719 612v375h-215v-375h215z" glyph-name="numbersign" horiz-adv-x="1226" unicode="#"/><glyph d="M1055 387q0 -160 -116 -270.5t-286 -134.5v-136q0 -31 -30 -30h-111q-31 0 -31 30v136q-121 16 -221 74.5t-156 140.5q-16 20 5 41l92 98q23 18 45 -2q160 -150 327 -150q115 0 189 59.5t74 149.5q0 70 -52.5 121t-129 82t-168 71t-168 84t-129 125.5t-52.5 190.5 q0 147 96.5 248.5t247.5 126.5v145q0 31 31 31h111q31 0 30 -31v-143q195 -31 338 -184q16 -20 0 -43l-84 -99q-23 -23 -43 -4q-147 129 -291 129q-98 0 -159.5 -49t-61.5 -131q0 -80 73 -134.5t176.5 -91t205.5 -82.5t175 -139.5t73 -228.5z" glyph-name="dollar" horiz-adv-x="1132" unicode="$"/><glyph d="M381 1444q117 0 199 -80t82 -196.5t-82 -197.5t-199 -81q-115 0 -197 81t-82 197.5t81 196.5t198 80zM1139 1436l125 -82l-910 -1356l-125 84zM381 1300q-55 0 -94 -37.5t-39 -95t39 -95.5t94 -38q57 0 96 38t39 95.5t-39 95t-96 37.5zM1110 545q115 0 197 -81t82 -197.5 t-81 -196.5t-198 -80t-199 80t-82 196.5t82 197.5t199 81zM1110 401q-55 0 -95 -38.5t-40 -96.5q0 -55 40 -93t95 -38t94 38t39 93q0 57 -39 96t-94 39z" glyph-name="percent" horiz-adv-x="1490" unicode="%"/><glyph d="M1315 125q23 -23 0 -43l-84 -84q-25 -25 -43 -2l-166 170q-213 -184 -451 -184q-188 0 -325 108.5t-137 296.5q0 135 78.5 231.5t215.5 188.5q-168 180 -167 321q0 131 99 226.5t253 95.5q150 0 253 -96.5t103 -225.5q0 -113 -65.5 -196.5t-184.5 -165.5l328 -338 q63 76 141 197q16 27 39 10l105 -76q20 -14 4 -43q-86 -133 -162 -221zM434 1126q0 -88 125 -221q92 59 139 109.5t47 111.5q0 57 -46 97.5t-111.5 40.5t-109.5 -40.5t-44 -97.5zM592 180q154 0 301 121l-352 363q-104 -72 -159.5 -133.5t-55.5 -137.5q0 -94 75.5 -153.5 t190.5 -59.5z" glyph-name="ampersand" horiz-adv-x="1392" unicode="&amp;"/><glyph d="M252 1434q14 0 23.5 -8.5t7.5 -22.5l-17 -393q-4 -31 -30 -31h-99q-31 0 -31 31l-18 393q0 31 31 31h133z" glyph-name="quotesingle" horiz-adv-x="370" unicode="'"/><glyph d="M518 1526q39 0 23 -37q-193 -360 -193 -834q0 -494 193 -884q16 -37 -23 -37h-149q-25 0 -37 20q-209 369 -209 901q0 496 209 850q12 20 37 21h149z" glyph-name="parenleft" horiz-adv-x="667" unicode="("/><glyph d="M150 1526h149q25 0 37 -21q209 -354 209 -850q0 -532 -209 -901q-12 -20 -37 -20h-149q-39 0 -23 37q193 391 192 884q0 473 -192 834q-16 37 23 37z" glyph-name="parenright" horiz-adv-x="667" unicode=")"/><glyph d="M829 1157l-223 -59l148 -195l-119 -76l-131 189l-133 -189l-119 76l147 193l-225 61l35 135l229 -69l-6 239h137l-4 -239l232 69zM539 1124l-11 37h-51l-10 -37l37 -30z" glyph-name="asterisk" horiz-adv-x="1003" unicode="*"/><glyph d="M774 668q31 0 31 -31v-107q0 -31 -31 -30h-221v-221q0 -31 -31 -31h-106q-31 0 -31 31v221h-221q-31 0 -31 30v107q0 31 31 31h221v219q0 31 31 31h106q31 0 31 -31v-219h221z" glyph-name="plus" horiz-adv-x="937" unicode="+"/><glyph d="M223 223q55 0 93 -42t38 -118q0 -86 -47 -192.5t-127 -196.5l-59 39q80 121 86 258q-49 6 -82 41t-33 84q0 53 39 90t92 37z" glyph-name="comma" horiz-adv-x="446" unicode=","/><glyph d="M754 664q31 0 30 -31v-119q0 -31 -30 -31h-611q-31 0 -30 31v119q0 31 30 31h611z" glyph-name="hyphen" horiz-adv-x="876" unicode="-"/><glyph d="M217 -27q-53 0 -89 36t-36 89.5t36 89t89 35.5t89 -35.5t36 -89t-36 -89.5t-89 -36z" glyph-name="period" horiz-adv-x="434" unicode="."/><glyph d="M909 1526q37 0 25 -35l-672 -1733q-8 -25 -37 -24h-155q-37 0 -25 35l672 1732q8 25 37 25h155z" glyph-name="slash" horiz-adv-x="978" unicode="/"/><glyph d="M655.5 1450q243.5 0 400 -195.5t156.5 -544t-156.5 -543t-400 -194.5t-400.5 194.5t-157 543t157 544t400.5 195.5zM655 1253q-166 0 -258 -148.5t-92 -393.5q0 -244 92 -391.5t258 -147.5t258.5 147.5t92.5 391.5q0 246 -92.5 394t-258.5 148z" glyph-name="zero" horiz-adv-x="1308" unicode="0"/><glyph d="M543 1434q31 0 30 -31v-1372q0 -31 -30 -31h-154q-31 0 -31 31v1224h-227q-29 0 -29 31v117q0 31 29 31h412z" glyph-name="one" horiz-adv-x="706" unicode="1"/><glyph d="M958 180q31 0 31 -30v-119q0 -31 -31 -31h-825q-31 0 -31 31v149l283 299q39 41 101.5 105.5t89 93.5t68.5 75t58.5 71.5t37 60.5t26.5 64.5t6 62.5q0 109 -69.5 176t-184.5 67q-154 0 -285 -145q-20 -25 -45 0l-90 88q-20 20 -2 43q164 209 426 209q201 0 329 -123 t128 -311q0 -33 -4 -64.5t-18.5 -65.5t-24.5 -58.5t-39 -64.5t-43 -59.5t-57 -67.5t-60.5 -66.5t-74 -78t-76.5 -81.5l-217 -230h593z" glyph-name="two" horiz-adv-x="1085" unicode="2"/><glyph d="M766 762q109 -49 175.5 -140.5t66.5 -215.5q0 -186 -135.5 -309.5t-346.5 -123.5q-283 0 -436 195q-16 25 2 43l90 84q25 25 45 0q121 -125 291 -125q123 0 202 68.5t79 175.5q0 111 -84 179.5t-238 72.5q-31 0 -31 30v109q0 31 31 31q143 4 214 66.5t71 154.5 q0 90 -68.5 144t-161.5 54q-154 0 -262 -127q-23 -23 -45 0l-90 86q-20 20 -2 43q156 193 404 193q172 0 294.5 -107.5t122.5 -273.5q0 -194 -188 -307z" glyph-name="three" horiz-adv-x="1099" unicode="3"/><glyph d="M1049 494q31 0 30 -31v-117q0 -31 -30 -31h-136v-284q0 -31 -30 -31h-154q-31 0 -31 31v284h-585q-31 0 -31 31v127q0 23 10 39l594 901q12 20 37 21h160q31 0 30 -31v-909h136zM698 494v610l-399 -610h399z" glyph-name="four" horiz-adv-x="1171" unicode="4"/><glyph d="M543 950q195 0 332 -137t137 -340q0 -225 -142.5 -361.5t-357.5 -136.5q-137 0 -245.5 59.5t-160.5 141.5q-16 25 7 41l106 80q27 18 45 -6q98 -119 248 -119q119 0 206 86t87 215q0 123 -88 207t-201 84q-141 0 -229 -102q-18 -20 -41 -13l-119 43q-27 8 -21 37l177 678 q6 27 32 27h586q31 0 31 -31v-117q0 -31 -31 -31h-465l-92 -358q70 53 199 53z" glyph-name="five" horiz-adv-x="1110" unicode="5"/><glyph d="M553 932q207 0 350.5 -135t143.5 -342q0 -203 -139.5 -342.5t-342.5 -139.5q-205 0 -344 139.5t-139 342.5q0 184 149 379l480 624q20 27 43 6l104 -88q23 -23 6 -43l-313 -401h2zM565.5 172q116.5 0 195.5 80t79 203t-79 204.5t-195.5 81.5t-196.5 -81.5t-80 -204.5 t80 -203t196.5 -80z" glyph-name="six" horiz-adv-x="1128" unicode="6"/><glyph d="M971 1434q14 0 22 -9.5t2 -21.5l-551 -1372q-10 -31 -34 -31h-152q-14 0 -23.5 9t-3.5 22l500 1224h-612q-31 0 -31 31v117q0 31 31 31h852z" glyph-name="seven" horiz-adv-x="1058" unicode="7"/><glyph d="M571 -27q-197 0 -338 122t-141 319q0 133 74 236.5t188 152.5q-82 45 -128 124t-46 169q0 145 108.5 249.5t282.5 104.5t284 -104.5t110 -249.5q0 -90 -47.5 -169t-129.5 -124q115 -49 189 -151.5t74 -237.5q0 -197 -140.5 -319t-339.5 -122zM571 889q86 0 145.5 58.5 t57.5 142.5q0 80 -56 134t-147 54q-88 0 -144 -54.5t-58 -133.5q0 -84 59 -142.5t143 -58.5zM571 170q119 0 194 68.5t75 179.5q0 117 -79 189.5t-189.5 72.5t-189.5 -72.5t-79 -189.5q0 -111 75.5 -179.5t192.5 -68.5z" glyph-name="eight" horiz-adv-x="1142" unicode="8"/><glyph d="M553 1450q205 0 344 -139.5t139 -341.5q0 -184 -149 -379l-479 -625q-20 -27 -43 -6l-105 88q-23 23 -6 43l313 402h-2q-207 0 -350 135t-143 342q0 203 139 342t342 139zM553 682q117 0 196.5 82t79.5 205t-79.5 202.5t-196.5 79.5t-195.5 -79.5t-78.5 -202.5t78.5 -205 t195.5 -82z" glyph-name="nine" horiz-adv-x="1118" unicode="9"/><glyph d="M217 764q-53 0 -89 36t-36 89t36 89t89 36t89 -36t36 -89t-36 -89t-89 -36zM217 -27q-53 0 -89 36t-36 89.5t36 89t89 35.5t89 -35.5t36 -89t-36 -89.5t-89 -36z" glyph-name="colon" horiz-adv-x="434" unicode=":"/><glyph d="M219 764q-51 0 -88 36t-37 89t37 89t88 36t88 -36t37 -89t-37 -89t-88 -36zM223 223q55 0 93 -42t38 -118q0 -86 -47 -192.5t-127 -196.5l-59 39q80 121 86 258q-49 6 -82 41t-33 84q0 53 39 90t92 37z" glyph-name="semicolon" horiz-adv-x="436" unicode=";"/><glyph d="M899 985q14 8 25.5 1t11.5 -23v-123q0 -25 -23 -35l-594 -295l594 -293q23 -12 23 -37v-123q0 -16 -11.5 -22t-25.5 2l-754 387q-23 12 -22 37v100q0 25 22 37z" glyph-name="less" horiz-adv-x="1038" unicode="&lt;"/><glyph d="M815 815q31 0 31 -31v-106q0 -31 -31 -31h-651q-31 0 -31 31v106q0 31 31 31h651zM815 520q31 0 31 -31v-106q0 -31 -31 -31h-651q-31 0 -31 31v106q0 31 31 31h651z" glyph-name="equal" horiz-adv-x="978" unicode="="/><glyph d="M180 985l754 -387q23 -12 22 -37v-100q0 -25 -22 -37l-754 -387q-16 -8 -26.5 -2t-10.5 22v123q0 25 23 37l594 293l-594 295q-23 10 -23 35v123q0 16 10.5 23t26.5 -1z" glyph-name="greater" horiz-adv-x="1079" unicode=">"/><glyph d="M526 1450q186 0 316.5 -106.5t130.5 -272.5q0 -139 -89 -237.5t-280 -188.5l-10 -205q-4 -31 -31 -30h-117q-27 0 -30 30l-15 293q-4 25 27 35q180 59 251 126t71 159q0 88 -67 137t-167 49q-150 0 -301 -133q-37 -33 -63 0l-66 80q-25 33 -2 61q74 90 191.5 146.5 t250.5 56.5zM506 223q51 0 88 -35.5t37 -89t-37 -89.5t-88 -36t-88 36t-37 89.5t37 89t88 35.5z" glyph-name="question" horiz-adv-x="1064" unicode="?"/><glyph d="M1208 1038l-41 -420q-14 -131 90 -131q133 0 134 256q0 244 -159 390.5t-384 146.5q-227 0 -397 -153.5t-170 -413.5q0 -254 168.5 -405.5t392.5 -151.5q166 0 293 84l137 -99q-180 -158 -424 -157q-195 0 -364 86t-277.5 256t-108.5 387q0 332 223.5 534.5t526.5 202.5 q299 0 512 -196.5t213 -510.5q0 -205 -97.5 -312t-238.5 -107q-131 0 -190 90q-90 -78 -222 -78q-160 0 -265 107.5t-105 263.5q0 158 104.5 265t265.5 107q152 0 248 -102l31 61h104zM825 494q92 0 151.5 61t59.5 151.5t-59 153t-152 62.5q-94 0 -151.5 -61.5t-57.5 -153.5 q0 -90 57.5 -151.5t151.5 -61.5z" glyph-name="at" horiz-adv-x="1669" unicode="@"/><glyph d="M1311 35q14 -35 -25 -35h-166q-27 0 -35 25l-96 278h-588l-96 -278q-8 -25 -35 -25h-166q-39 0 -24 35l500 1374q10 25 36 25h156q27 0 37 -25zM465 485h461l-232 664z" glyph-name="A" horiz-adv-x="1388" unicode="A"/><glyph d="M868 772q131 -31 212 -127t81 -229q0 -416 -520 -416h-461q-31 0 -30 31v1372q0 31 30 31h463q207 0 313.5 -102.5t106.5 -250.5q0 -111 -51.5 -193.5t-143.5 -115.5zM852 1059q0 174 -229 174h-250v-379h250q106 0 167.5 52.5t61.5 152.5zM641 201q295 0 295 235 q0 111 -75 170.5t-220 59.5h-268v-465h268z" glyph-name="B" horiz-adv-x="1247" unicode="B"/><glyph d="M1229 324l102 -107q18 -23 -2 -43q-217 -201 -491 -201q-305 0 -517 215t-212 523q0 309 211.5 524t517.5 215q276 0 491 -201q23 -18 2 -43l-102 -106q-18 -20 -43 0q-158 133 -350 133q-209 0 -354.5 -149.5t-145.5 -372.5q0 -219 145.5 -368.5t354.5 -149.5 q197 0 350 133q25 21 43 -2z" glyph-name="C" horiz-adv-x="1437" unicode="C"/><glyph d="M545 1434q358 0 553.5 -201t195.5 -516q0 -313 -196.5 -515t-552.5 -202h-365q-31 0 -30 31v1372q0 31 30 31h365zM545 201q258 0 391 135t133 381t-133 381t-391 135h-172v-1032h172z" glyph-name="D" horiz-adv-x="1392" unicode="D"/><glyph d="M911 201q31 0 31 -31v-139q0 -31 -31 -31h-731q-31 0 -30 31v1372q0 31 30 31h729q31 0 31 -31v-139q0 -31 -31 -31h-536v-383h504q31 0 30 -31v-139q0 -31 -30 -31h-504v-448h538z" glyph-name="E" horiz-adv-x="1075" unicode="E"/><glyph d="M891 1434q31 0 31 -31v-139q0 -31 -31 -31h-518v-383h491q31 0 31 -31v-139q0 -31 -31 -31h-491v-618q0 -31 -31 -31h-162q-31 0 -30 31v1372q0 31 30 31h711z" glyph-name="F" horiz-adv-x="1044" unicode="F"/><glyph d="M1470 774q31 0 31 -31v-92q0 -291 -179 -484.5t-480 -193.5q-311 0 -522 216.5t-211 527.5q0 305 211.5 519t517.5 214q276 0 491 -201q23 -18 2 -43l-102 -106q-18 -20 -43 0q-158 133 -350 133q-209 0 -354.5 -148.5t-145.5 -367.5q0 -225 144.5 -374.5t361.5 -149.5 q195 0 317.5 109.5t128.5 279.5h-430q-31 0 -31 30v131q0 31 31 31h612z" glyph-name="G" horiz-adv-x="1599" unicode="G"/><glyph d="M1167 1434q31 0 31 -31v-1372q0 -31 -31 -31h-161q-31 0 -31 31v577h-602v-577q0 -31 -31 -31h-162q-31 0 -30 31v1372q0 31 30 31h162q31 0 31 -31v-594h602v594q0 31 31 31h161z" glyph-name="H" horiz-adv-x="1345" unicode="H"/><glyph d="M150 1403q0 31 30 31h162q31 0 31 -31v-1372q0 -31 -31 -31h-162q-31 0 -30 31v1372z" glyph-name="I" horiz-adv-x="520" unicode="I"/><glyph d="M186 274q16 23 45 2q104 -82 222 -81q119 0 185.5 85t66.5 257v866q0 31 30 31h162q31 0 31 -31v-875q0 -279 -125 -412.5t-346 -133.5q-233 0 -355 139q-18 23 0 43z" glyph-name="J" horiz-adv-x="1075" unicode="J"/><glyph d="M1221 37q10 -16 5 -26.5t-24 -10.5h-194q-25 0 -37 18l-473 641l-125 -141v-487q0 -31 -31 -31h-162q-31 0 -30 31v1372q0 31 30 31h162q31 0 31 -31v-588l522 602q14 16 37 17h205q20 0 25 -11.5t-9 -25.5l-508 -572z" glyph-name="K" horiz-adv-x="1304" unicode="K"/><glyph d="M870 201q31 0 31 -31v-139q0 -31 -31 -31h-690q-31 0 -30 31v1372q0 31 30 31h162q31 0 31 -31v-1202h497z" glyph-name="L" horiz-adv-x="1009" unicode="L"/><glyph d="M1599 1434q31 0 31 -31v-1372q0 -31 -31 -31h-161q-31 0 -31 31v999l-29 -88l-377 -917q-10 -25 -36 -25h-152q-27 0 -35 25l-377 917l-28 86v-997q0 -31 -31 -31h-162q-31 0 -30 31v1372q0 31 30 31h193q29 0 37 -21l479 -1159l479 1159q8 20 37 21h194z" glyph-name="M" horiz-adv-x="1777" unicode="M"/><glyph d="M1225 1434q31 0 30 -31v-1372q0 -31 -28 -31h-197q-25 0 -37 20l-620 1074v-1063q0 -31 -31 -31h-162q-31 0 -30 31v1372q0 27 26 31h199q25 0 37 -21l620 -1075v1065q0 31 31 31h162z" glyph-name="N" horiz-adv-x="1402" unicode="N"/><glyph d="M844 -27q-305 0 -520 215t-215 522.5t215 523.5t520 216q303 0 518 -216t215 -523.5t-215 -522.5t-518 -215zM844 193q215 0 361.5 149.5t146.5 368.5q0 221 -146.5 371.5t-361.5 150.5q-217 0 -363.5 -150.5t-146.5 -371.5q0 -219 146.5 -368.5t363.5 -149.5z" glyph-name="O" horiz-adv-x="1685" unicode="O"/><glyph d="M586 1434q238 0 368.5 -126t130.5 -331t-131 -331t-368 -126h-213v-489q0 -31 -31 -31h-162q-31 0 -30 31v1372q0 31 30 31h406zM578 721q129 0 210.5 61.5t81.5 194.5t-81.5 194.5t-210.5 61.5h-205v-512h205z" glyph-name="P" horiz-adv-x="1173" unicode="P"/><glyph d="M1427 266l140 -139q20 -20 0 -43l-109 -109q-20 -20 -43 0l-139 140q-195 -141 -432 -142q-305 0 -520 215t-215 522.5t215 523.5t520 216q303 0 518 -216t215 -523q0 -250 -150 -445zM844 193q152 0 276 79l-176 177q-23 23 -2 43l109 108q23 20 43 0l176 -176 q82 131 82 287q0 221 -146.5 371.5t-361.5 150.5q-217 0 -363.5 -150.5t-146.5 -371.5q0 -219 146.5 -368.5t363.5 -149.5z" glyph-name="Q" horiz-adv-x="1685" unicode="Q"/><glyph d="M1102 37q23 -37 -21 -37h-174q-25 0 -37 20l-327 500h-170v-489q0 -31 -31 -31h-162q-31 0 -30 31v1372q0 31 30 31h406q238 0 368.5 -126t130.5 -331q0 -160 -83.5 -275.5t-237.5 -158.5zM373 1233v-512h205q129 0 210.5 61.5t81.5 194.5t-81.5 194.5t-210.5 61.5h-205z " glyph-name="R" horiz-adv-x="1214" unicode="R"/><glyph d="M352 1063q0 -80 73 -134.5t176.5 -91t205.5 -82.5t175 -139.5t73 -228.5q0 -180 -143.5 -296t-340.5 -116q-150 0 -275.5 62.5t-191.5 159.5q-16 20 5 41l92 98q23 18 45 -2q160 -150 327 -150q115 0 189 59.5t74 149.5q0 70 -52.5 121t-129 82t-168 71t-168 84 t-129 125.5t-52.5 190.5q0 170 126 276.5t306 106.5q246 0 422 -190q16 -20 0 -43l-84 -99q-23 -23 -43 -4q-147 129 -291 129q-98 0 -159.5 -49t-61.5 -131z" glyph-name="S" horiz-adv-x="1150" unicode="S"/><glyph d="M997 1434q31 0 31 -31v-139q0 -31 -31 -31h-317v-1202q0 -31 -31 -31h-162q-31 0 -30 31v1202h-318q-31 0 -30 31v139q0 31 30 31h858z" glyph-name="T" horiz-adv-x="1134" unicode="T"/><glyph d="M1167 1434q31 0 31 -31v-846q0 -279 -146.5 -431.5t-383.5 -152.5q-236 0 -382.5 153t-146.5 431v846q0 31 31 31h162q31 0 30 -31v-846q0 -180 82 -274.5t224 -94.5q143 0 225 94.5t82 274.5v846q0 31 31 31h161z" glyph-name="U" horiz-adv-x="1335" unicode="U"/><glyph d="M1106 1409q8 25 35 25h166q39 0 24 -35l-502 -1374q-10 -25 -36 -25h-156q-27 0 -37 25l-500 1374q-14 35 25 35h166q27 0 35 -25l389 -1124z" glyph-name="V" horiz-adv-x="1429" unicode="V"/><glyph d="M2163 1434q35 0 24 -35l-442 -1374q-8 -25 -37 -25h-166q-29 0 -35 25l-364 1075l-367 -1075q-10 -25 -37 -25h-164q-33 0 -38 25l-437 1374q-14 35 25 35h166q27 0 35 -25l333 -1122l373 1122q2 14 17 21q8 4 16 4h154q10 0 18 -4q8 -6 14 -21l371 -1122l340 1122 q6 25 35 25h166z" glyph-name="W" horiz-adv-x="2285" unicode="W"/><glyph d="M1202 37q10 -16 4 -26.5t-24 -10.5h-172q-25 0 -37 20l-320 521l-321 -521q-12 -20 -37 -20h-170q-18 0 -24.5 10t3.5 27l431 696l-410 664q-20 37 20 37h170q25 0 37 -21l301 -487l299 487q12 20 37 21h172q41 0 21 -37l-410 -664z" glyph-name="X" horiz-adv-x="1304" unicode="X"/><glyph d="M1151 1434q41 0 20 -37l-421 -715v-651q0 -31 -31 -31h-162q-31 0 -31 31v651l-422 715q-20 37 21 37h170q25 0 37 -21l305 -522l305 522q12 20 37 21h172z" glyph-name="Y" horiz-adv-x="1273" unicode="Y"/><glyph d="M1065 201q31 0 31 -31v-139q0 -31 -31 -31h-915q-31 0 -31 31v149q0 18 12 37l709 1016h-670q-31 0 -31 31v139q0 31 31 31h874q31 0 31 -31v-150q0 -18 -12 -36l-709 -1016h711z" glyph-name="Z" horiz-adv-x="1214" unicode="Z"/><glyph d="M489 1526q31 0 31 -31v-117q0 -31 -31 -30h-143v-1436h143q31 0 31 -31v-117q0 -31 -31 -30h-335q-31 0 -31 30v1731q0 31 31 31h335z" glyph-name="bracketleft" horiz-adv-x="643" unicode="["/><glyph d="M70 1526h155q29 0 37 -25l672 -1732q12 -35 -25 -35h-155q-29 0 -37 24l-672 1733q-12 35 25 35z" glyph-name="backslash" horiz-adv-x="978" unicode="\"/><glyph d="M154 1526h335q31 0 31 -31v-1731q0 -31 -31 -30h-335q-31 0 -31 30v117q0 31 31 31h143v1436h-143q-31 0 -31 30v117q0 31 31 31z" glyph-name="bracketright" horiz-adv-x="643" unicode="]"/><glyph d="M1077 657q8 -14 1 -25t-23 -11h-123q-25 0 -35 22l-295 594l-293 -594q-12 -23 -37 -22h-122q-16 0 -22.5 11t1.5 25l387 754q12 23 37 23h100q25 0 37 -23z" glyph-name="asciicircum" horiz-adv-x="1204" unicode="^"/><glyph d="M1116 0q31 0 31 -31v-119q0 -31 -31 -30h-962q-31 0 -31 30v119q0 31 31 31h962z" glyph-name="underscore" horiz-adv-x="1269" unicode="_"/><glyph d="M106 1491h130q25 0 34 -25l123 -258q16 -35 -24 -34h-129q-25 0 -35 24l-123 258q-17 35 24 35z" glyph-name="grave" horiz-adv-x="428" unicode="`"/><glyph d="M1090 1004q31 0 30 -31v-942q0 -31 -30 -31h-134q-27 0 -30 31l-11 114q-123 -160 -327 -159q-211 0 -350.5 149.5t-139.5 364.5q0 221 139.5 372.5t350.5 151.5q207 0 330 -168l8 117q4 31 30 31h134zM608 182q133 0 218 91.5t85 228.5t-86 232t-217 95t-217 -93 t-86 -234q0 -137 86 -228.5t217 -91.5z" glyph-name="a" unicode="a"/><glyph d="M662 1024q211 0 350 -151.5t139 -372.5q0 -215 -139.5 -364.5t-349.5 -149.5q-205 0 -328 159l-10 -114q-4 -31 -31 -31h-133q-31 0 -31 31v1433q0 31 31 31h153q31 0 31 -31v-594q123 154 318 154zM641 182q131 0 217 91.5t86 228.5q0 141 -86 234t-217 93t-217 -95 t-86 -232t85 -228.5t218 -91.5z" glyph-name="b" unicode="b"/><glyph d="M608 184q139 0 252 109q25 20 45 0l90 -86q20 -20 2 -43q-156 -178 -391 -178q-215 0 -361.5 150.5t-146.5 367.5q0 219 146.5 369.5t361.5 150.5q229 0 385 -178q18 -23 -2 -43l-90 -86q-20 -20 -45 2q-41 37 -64.5 53t-73.5 35.5t-108 19.5q-133 0 -218 -93t-85 -230 q0 -135 86 -227.5t217 -92.5z" glyph-name="c" horiz-adv-x="1091" unicode="c"/><glyph d="M1090 1495q31 0 30 -31v-1433q0 -31 -30 -31h-134q-27 0 -30 31l-11 114q-123 -160 -327 -159q-211 0 -350.5 149.5t-139.5 364.5q0 221 139.5 372.5t350.5 151.5q195 0 317 -154v594q0 31 31 31h154zM608 182q133 0 218 91.5t85 228.5t-86 232t-217 95t-217 -93 t-86 -234q0 -137 86 -228.5t217 -91.5z" glyph-name="d" unicode="d"/><glyph d="M596 1024q211 0 343 -143.5t132 -343.5q0 -61 -13.5 -87t-51.5 -26h-695q20 -119 106.5 -188.5t219.5 -69.5q135 0 244 82q27 18 43 2l65 -64q23 -23 0 -47q-150 -154 -373 -153q-227 0 -372.5 150.5t-145.5 369.5t141.5 368.5t356.5 149.5zM598 838q-115 0 -194.5 -73 t-94.5 -192h572q-12 119 -90 192t-193 73z" glyph-name="e" horiz-adv-x="1167" unicode="e"/><glyph d="M831 1370q12 -12 -2 -27l-79 -79q-12 -12 -29 -4q-96 57 -152 57q-74 0 -100.5 -34t-26.5 -101v-178h201q31 0 31 -31v-117q0 -31 -31 -31h-201v-794q0 -31 -30 -31h-154q-31 0 -31 31v794h-118q-31 0 -31 31v117q0 31 31 31h118v198q0 152 83 228.5t239 76.5 q173 0 282 -137z" glyph-name="f" horiz-adv-x="823" unicode="f"/><glyph d="M1092 1004q31 0 30 -31v-957q0 -113 -48 -198.5t-126 -131.5t-165 -69t-179 -23q-240 0 -409 111q-23 16 -9 43l50 88q14 27 40 12q143 -74 312 -73q131 0 231.5 60.5t100.5 189.5v135q-127 -166 -334 -166q-209 0 -348.5 150.5t-139.5 365.5t139.5 365.5t348.5 150.5 q199 0 329 -162l7 109q4 31 30 31h140zM608 190q129 0 216 95.5t87 226.5q0 129 -87 223t-216 94t-216 -91t-87 -226t87 -228.5t216 -93.5z" glyph-name="g" unicode="g"/><glyph d="M672 1026q160 0 258 -107.5t98 -304.5v-583q0 -31 -31 -31h-153q-31 0 -31 31v553q0 123 -56.5 184t-150.5 61q-113 0 -187.5 -81.5t-74.5 -133.5v-583q0 -31 -31 -31h-153q-31 0 -31 31v1433q0 31 31 31h153q31 0 31 -31v-626q123 188 328 188z" glyph-name="h" horiz-adv-x="1157" unicode="h"/><glyph d="M254 1219q-53 0 -89 35.5t-36 89t36 89t89 35.5q51 0 87 -35.5t36 -89t-36 -89t-87 -35.5zM145 973q0 31 31 31h154q31 0 30 -31v-942q0 -31 -30 -31h-154q-31 0 -31 31v942z" glyph-name="i" horiz-adv-x="503" unicode="i"/><glyph d="M377 1219q-53 0 -89 35.5t-36 89t36 89t89 35.5t89 -35.5t36 -89t-36 -89t-89 -35.5zM301 1004h154q31 0 30 -31v-957q0 -205 -98 -310t-272 -112q-20 0 -25 17l-47 158q-8 23 16 22q211 16 211 256v926q0 31 31 31z" glyph-name="j" horiz-adv-x="628" unicode="j"/><glyph d="M1057 37q12 -16 6 -26.5t-25 -10.5h-166q-25 0 -36 18l-332 428l-160 -170v-245q0 -31 -31 -31h-153q-31 0 -31 31v1433q0 31 31 31h153q31 0 31 -31v-929l426 452q14 16 39 17h174q20 0 25.5 -10.5t-9.5 -26.5l-362 -383z" glyph-name="k" horiz-adv-x="1126" unicode="k"/><glyph d="M129 1464q0 31 31 31h153q31 0 31 -31v-1433q0 -31 -31 -31h-153q-31 0 -31 31v1433z" glyph-name="l" horiz-adv-x="471" unicode="l"/><glyph d="M1348 1026q166 0 266 -107.5t100 -304.5v-583q0 -31 -31 -31h-153q-31 0 -31 31v553q0 123 -57.5 184t-151.5 61q-123 0 -192.5 -75.5t-69.5 -151.5v-571q0 -31 -31 -31h-153q-31 0 -31 31v553q0 123 -56.5 184t-150.5 61q-113 0 -187.5 -81.5t-74.5 -133.5v-583 q0 -31 -31 -31h-153q-31 0 -31 31v942q0 31 31 31h145q27 0 31 -31l8 -135q123 188 328 188q225 0 315 -195q123 195 361 195z" glyph-name="m" horiz-adv-x="1841" unicode="m"/><glyph d="M672 1026q160 0 258 -107.5t98 -304.5v-583q0 -31 -31 -31h-153q-31 0 -31 31v553q0 123 -56.5 184t-150.5 61q-113 0 -187.5 -81.5t-74.5 -133.5v-583q0 -31 -31 -31h-153q-31 0 -31 31v942q0 31 31 31h145q27 0 31 -31l8 -135q123 188 328 188z" glyph-name="n" horiz-adv-x="1157" unicode="n"/><glyph d="M612 -20q-217 0 -365.5 151.5t-148.5 370.5q0 221 148.5 372.5t365.5 151.5q215 0 364.5 -151.5t149.5 -372.5q0 -219 -149.5 -370.5t-364.5 -151.5zM612 178q129 0 218.5 92t89.5 232q0 141 -88.5 234t-219.5 93t-219 -93t-88 -234q0 -139 89 -231.5t218 -92.5z" glyph-name="o" horiz-adv-x="1222" unicode="o"/><glyph d="M662 1024q211 0 350 -151.5t139 -372.5q0 -215 -139.5 -364.5t-349.5 -149.5q-197 0 -318 147v-491q0 -31 -31 -31h-153q-31 0 -31 31v1331q0 31 31 31h133q27 0 31 -31l8 -117q123 168 330 168zM641 182q131 0 217 91.5t86 228.5q0 141 -86 234t-217 93t-217 -95 t-86 -232t85 -228.5t218 -91.5z" glyph-name="p" unicode="p"/><glyph d="M1090 1004q31 0 30 -31v-1331q0 -31 -30 -31h-154q-31 0 -31 31v491q-121 -147 -317 -147q-211 0 -350.5 149.5t-139.5 364.5q0 221 139.5 372.5t350.5 151.5q207 0 330 -168l8 117q4 31 30 31h134zM608 182q133 0 218 91.5t85 228.5t-86 232t-217 95t-217 -93t-86 -234 q0 -137 86 -228.5t217 -91.5z" glyph-name="q" unicode="q"/><glyph d="M721 987q18 -16 8 -39l-47 -112q-10 -25 -41 -19q-41 12 -82 12q-94 0 -154.5 -62t-60.5 -157v-579q0 -31 -31 -31h-153q-31 0 -31 31v942q0 31 31 31h143q27 0 31 -31l8 -99q92 152 252 152q78 0 127 -39z" glyph-name="r" horiz-adv-x="768" unicode="r"/><glyph d="M322 737q0 -53 53 -87t130 -57.5t152.5 -54t129 -97t53.5 -167.5q0 -131 -112 -212.5t-253 -81.5q-119 0 -219 49t-160 118q-16 20 0 41l64 84q14 23 43 0q143 -109 266 -108q72 0 117 28.5t45 86.5q0 53 -53.5 88.5t-129 60.5t-151.5 56.5t-129 95t-53 155.5 q0 129 98 210t238 81q92 0 182 -40t151 -112q16 -18 -2 -43l-57 -75q-14 -18 -45 2q-117 92 -217 92q-57 0 -99 -29t-42 -84z" glyph-name="s" horiz-adv-x="927" unicode="s"/><glyph d="M651 1004q31 0 31 -31v-117q0 -31 -31 -31h-164v-794q0 -31 -30 -31h-154q-31 0 -31 31v794h-163q-31 0 -31 31v117q0 31 31 31h163v276q0 31 31 31h154q31 0 30 -31v-276h164z" glyph-name="t" horiz-adv-x="757" unicode="t"/><glyph d="M987 1004q31 0 31 -31v-942q0 -31 -31 -31h-145q-27 0 -31 31l-8 119q-123 -176 -309 -177q-174 0 -274.5 108.5t-100.5 307.5v584q0 31 31 31h153q31 0 31 -31v-553q0 -125 58.5 -187.5t154.5 -62.5q113 0 184.5 77t71.5 142v584q0 31 31 31h153z" glyph-name="u" horiz-adv-x="1146" unicode="u"/><glyph d="M848 979q8 25 37 25h155q37 0 25 -35l-377 -944q-8 -25 -37 -25h-157q-27 0 -37 25l-375 944q-12 35 24 35h156q29 0 37 -25l274 -729z" glyph-name="v" horiz-adv-x="1144" unicode="v"/><glyph d="M1755 1004q37 0 25 -35l-355 -944q-8 -25 -36 -25h-154q-27 0 -37 25l-268 698l-266 -698q-8 -25 -37 -25h-156q-27 0 -37 25l-352 944q-12 35 24 35h150q27 0 37 -25l262 -733l268 733q6 18 21 20q8 4 16 5h139q8 0 17 -5q14 -2 20 -20l271 -733l260 733q10 25 37 25 h151z" glyph-name="w" horiz-adv-x="1859" unicode="w"/><glyph d="M985 37q10 -16 4 -26.5t-24 -10.5h-174q-23 0 -37 20l-211 328l-211 -328q-14 -20 -37 -20h-174q-18 0 -24.5 10t3.5 27l324 477l-307 453q-10 16 -4 26.5t24 10.5h174q23 0 37 -21l195 -303l196 303q12 20 37 21h174q18 0 24.5 -10.5t-3.5 -26.5l-309 -453z" glyph-name="x" horiz-adv-x="1085" unicode="x"/><glyph d="M1042 1004q37 0 25 -35l-528 -1334q-10 -25 -37 -24h-154q-37 0 -24 35l143 350l-385 973q-12 35 24 35h156q29 0 37 -25l274 -729l275 729q8 25 37 25h157z" glyph-name="y" horiz-adv-x="1148" unicode="y"/><glyph d="M918 973v-125q0 -25 -15 -39l-559 -631h543q31 0 31 -31v-116q0 -31 -31 -31h-768q-31 0 -31 31v125q0 25 14 39l560 630h-543q-31 0 -31 31v117q0 31 31 31h768q31 0 31 -31z" glyph-name="z" horiz-adv-x="1003" unicode="z"/><glyph d="M545 1526q31 0 30 -31v-117q0 -31 -30 -30h-41q-33 0 -52.5 -18.5t-19.5 -51.5v-492q0 -16 -10 -36l-68 -101q-12 -23 0 -43l68 -96q10 -18 10 -39v-489q0 -33 19.5 -51.5t52.5 -18.5h41q31 0 30 -31v-117q0 -31 -30 -30h-160q-74 0 -125 45t-51 133v549q0 23 -10 39 l-68 106q-12 23 -2 41l70 111q10 18 10 39v551q0 88 51 133t125 45h160z" glyph-name="braceleft" horiz-adv-x="698" unicode="{"/><glyph d="M139 1608q0 31 31 30h162q31 0 30 -30v-1966q0 -31 -30 -31h-162q-31 0 -31 31v1966z" glyph-name="bar" horiz-adv-x="499" unicode="|"/><glyph d="M100 1526h160q74 0 125 -45t51 -133v-551q0 -20 10 -39l70 -111q10 -18 -2 -41l-68 -106q-10 -16 -10 -39v-549q0 -88 -51 -133t-125 -45h-160q-31 0 -30 30v117q0 31 30 31h41q33 0 52.5 18.5t19.5 51.5v489q0 20 10 39l68 96q12 20 0 43l-68 101q-10 20 -10 36v492 q0 33 -19.5 51.5t-52.5 18.5h-41q-31 0 -30 30v117q-1 31 30 31z" glyph-name="braceright" horiz-adv-x="645" unicode="}"/><glyph d="M336 733q90 2 189.5 -75.5t152.5 -77.5q74 2 100 67q6 20 25 19h51q10 2 16.5 -4.5t6.5 -18.5q-8 -96 -66.5 -148.5t-144.5 -52.5q-57 0 -108.5 23.5t-83.5 53.5t-73 53.5t-79 23.5q-76 0 -101 -68q-6 -18 -24 -18h-52q-27 0 -22 29q12 96 69.5 146t143.5 48z" glyph-name="asciitilde" horiz-adv-x="999" unicode="~"/><glyph d="M284.5 1092q51.5 0 88.5 -36t37 -89.5t-37 -89t-88.5 -35.5t-88 35.5t-36.5 89t36.5 89.5t88 36zM406 -250q4 -57 -32 -96t-89.5 -39t-89 38t-31.5 97l59 875q2 31 33 30h57q31 0 33 -30z" glyph-name="exclamdown" horiz-adv-x="452" unicode="¡"/><glyph d="M995 356q20 -20 2 -43q-133 -150 -331 -170v-194q0 -31 -31 -31h-90q-31 0 -31 31v198q-182 33 -299 173.5t-117 326.5q0 190 117 330.5t299 171.5v254q0 31 31 31h90q31 0 31 -31v-250q193 -20 325 -170q18 -23 -2 -43l-90 -84q-20 -20 -45 2q-37 31 -54.5 44t-56 32.5 t-77.5 26.5v-623q102 14 194 102q25 20 45 0zM305 647q0 -106 57.5 -188t151.5 -111v602q-96 -29 -152.5 -111.5t-56.5 -191.5z" glyph-name="cent" horiz-adv-x="1071" unicode="¢"/><glyph d="M612 1233q-90 0 -151.5 -56.5t-61.5 -152.5q0 -37 10.5 -74t20.5 -58.5t31.5 -62.5t32.5 -61h448q31 0 31 -31v-139q0 -31 -31 -31h-389q0 -10 1 -31.5t1 -33.5q0 -166 -139 -301h577q31 0 31 -31v-139q0 -31 -31 -31h-835q-31 0 -31 31v170q213 115 213 313q0 20 -4 53 h-182q-31 0 -31 31v139q0 31 31 31h100q-76 143 -76 276q0 172 124 289t298 117q240 0 432 -213q23 -27 -2 -59l-61 -80q-27 -31 -64 0q-88 76 -149.5 105.5t-143.5 29.5z" glyph-name="sterling" horiz-adv-x="1167" unicode="£"/><glyph d="M1069 975q0 -137 -74 -250l95 -94l-117 -115l-90 90q-119 -90 -273 -90q-152 0 -272 88l-88 -88l-117 115l92 92q-74 115 -73 252q0 141 77 254l-96 96l117 115l92 -92q123 86 268 86q147 0 271 -86l92 92l117 -115l-97 -96q76 -119 76 -254zM293 975q0 -123 90 -219.5 t227 -96.5q135 0 226.5 96.5t91.5 219.5q0 121 -91.5 219t-226.5 98q-137 0 -227 -98t-90 -219z" glyph-name="currency" horiz-adv-x="1222" unicode="¤"/><glyph d="M1171 1397l-421 -715v-10h161q31 0 31 -31v-106q0 -31 -31 -31h-161v-86h161q31 0 31 -31v-106q0 -31 -31 -31h-161v-219q0 -31 -31 -31h-162q-31 0 -31 31v219h-182q-31 0 -31 31v106q0 31 31 31h182v86h-182q-31 0 -31 31v106q0 31 31 31h182v10l-422 715q-20 37 21 37 h170q25 0 37 -21l305 -522l305 522q12 20 37 21h172q40 0 20 -37z" glyph-name="yen" horiz-adv-x="1253" unicode="¥"/><glyph d="M332 1638q31 0 30 -30v-574q0 -31 -30 -30h-162q-31 0 -31 30v574q0 31 31 30h162zM332 246q31 0 30 -31v-573q0 -31 -30 -31h-162q-31 0 -31 31v573q0 31 31 31h162z" glyph-name="brokenbar" horiz-adv-x="499" unicode="¦"/><glyph d="M1305 580q0 -217 -201 -332q-25 -160 -165 -253t-327 -93q-164 0 -297 67.5t-215 167.5q-23 29 0 58l68 90q25 29 61 -2q96 -84 182.5 -125t204.5 -41q123 0 195 52t72 146q0 84 -78 138.5t-188.5 90.5t-221 79t-188.5 132t-78 222q0 109 54.5 194.5t146.5 135.5 q23 152 148.5 241.5t303.5 89.5q272 0 461 -213q25 -25 -2 -59l-61 -80q-23 -31 -64 0q-94 76 -164.5 108.5t-165.5 32.5q-111 0 -174 -49t-63 -131t78 -136t188.5 -89t222 -79t189.5 -135t78 -228zM352 977q0 -72 56.5 -121t145.5 -81t183 -62.5t185.5 -85t136.5 -129.5 q20 39 20 88q0 72 -56 122t-145.5 81.5t-182.5 62.5t-184 84t-136 127q-23 -39 -23 -86z" glyph-name="section" horiz-adv-x="1390" unicode="§"/><glyph d="M145.5 1214q-47.5 0 -81 34t-33.5 83q0 45 33.5 79t81 34t81 -33t33.5 -80q0 -49 -33.5 -83t-81 -34zM557 1214q-47 0 -81 34t-34 83q0 47 34 80t81 33t81 -34t34 -79q0 -49 -34 -83t-81 -34z" glyph-name="dieresis" horiz-adv-x="702" unicode="¨"/><glyph d="M686 279q-244 0 -416 172t-172 413.5t172 413.5t416 172t416 -172t172 -413.5t-172 -413.5t-416 -172zM686 420q184 0 311 130t127 314q0 186 -127 316.5t-311 130.5t-312 -130t-128 -317q0 -184 128 -314t312 -130zM881 659q23 -23 0 -43q-78 -66 -185 -65 q-129 0 -220 90t-91 223t91 224.5t220 91.5q106 0 185 -66q23 -20 0 -43l-39 -43q-16 -16 -43 -2q-47 29 -101 29q-78 0 -131 -55.5t-53 -135.5t53.5 -134t130.5 -54q53 0 101 26q27 14 43 -2z" glyph-name="copyright" horiz-adv-x="1370" unicode="©"/><glyph d="M688 1434h137v-736h-137l-18 78q-88 -78 -209 -78q-156 0 -264.5 108.5t-108.5 264.5t108.5 264.5t264.5 108.5q121 0 209 -78zM461 854q90 0 154.5 63.5t64.5 153.5q0 92 -64.5 155.5t-154.5 63.5q-92 0 -155.5 -63.5t-63.5 -155.5q0 -90 63.5 -153.5t155.5 -63.5z" glyph-name="ordfeminine" horiz-adv-x="911" unicode="ª"/><glyph d="M92 647q0 23 17 37l213 186q14 12 25 8t11 -24v-98q0 -23 -16 -37l-158 -135l158 -135q16 -14 16 -37v-99q0 -20 -11 -25t-25 7l-213 188q-16 14 -17 37v127zM416 647q0 23 16 37l213 186q14 12 25.5 8t11.5 -24v-98q0 -23 -16 -37l-158 -135l158 -135q16 -14 16 -37v-99 q0 -20 -11.5 -25t-25.5 7l-213 188q-16 14 -16 37v127z" glyph-name="guillemotleft" horiz-adv-x="774" unicode="«"/><glyph d="M922 629q31 0 30 -31v-285q0 -31 -30 -30h-152q-31 0 -31 30v138h-585q-31 0 -31 30v117q0 31 31 31h768z" glyph-name="logicalnot" horiz-adv-x="1075" unicode="¬"/><glyph d="M754 664q31 0 30 -31v-119q0 -31 -30 -31h-611q-31 0 -30 31v119q0 31 30 31h611z" glyph-name="uni00AD" horiz-adv-x="839" unicode="­"/><glyph d="M686 1450q244 0 416 -172t172 -413.5t-172 -413.5t-416 -172t-416 172t-172 413.5t172 413.5t416 172zM686 420q184 0 311 130t127 314q0 186 -127 316.5t-311 130.5t-312 -130t-128 -317q0 -184 128 -314t312 -130zM969 956q0 -152 -166 -182l160 -170q6 -8 3 -15 t-14 -7h-106q-12 0 -23 10l-159 176h-103v-168q0 -18 -16 -18h-90q-16 0 -17 18v530q0 18 17 19h278q109 0 172.5 -49.5t63.5 -143.5zM735 874q51 0 79 23t28 59q0 84 -107 84h-174v-166h174z" glyph-name="registered" horiz-adv-x="1370" unicode="®"/><glyph d="M649 1434q31 0 31 -31v-109q0 -31 -31 -30h-588q-31 0 -30 30v109q0 31 30 31h588z" glyph-name="macron" horiz-adv-x="710" unicode="¯"/><glyph d="M424 1473q125 0 213 -87.5t88 -209.5q0 -125 -88 -214.5t-213 -89.5t-213 89.5t-88 214.5q0 123 88 210t213 87zM424 1335q-70 0 -115 -48t-45 -111q0 -66 45 -115t115 -49q72 0 116 49t44 115q0 63 -44 111t-116 48z" glyph-name="degree" horiz-adv-x="847" unicode="°"/><glyph d="M184 520q-31 0 -30 31v106q0 31 30 31h222v219q0 31 30 31h107q31 0 30 -31v-219h222q31 0 30 -31v-106q0 -31 -30 -31h-222v-221q0 -31 -30 -31h-107q-31 0 -30 31v221h-222zM815 168q31 0 31 -31v-106q0 -31 -31 -31h-651q-31 0 -31 31v106q0 31 31 31h651z" glyph-name="plusminus" horiz-adv-x="978" unicode="±"/><glyph d="M254 1442q70 0 121 -46t51 -108q0 -53 -29.5 -96t-109.5 -125l-97 -100h242v-66h-344v66l139 141q57 59 74.5 78.5t32 46.5t14.5 55q0 37 -28.5 63.5t-65.5 26.5q-39 0 -67.5 -26.5t-28.5 -75.5v-29h-76v29q0 72 50 119t122 47z" glyph-name="uni00B2" horiz-adv-x="530" unicode="²"/><glyph d="M281 1440q66 0 114.5 -42t48.5 -98q0 -66 -61 -108q86 -37 86 -135q0 -70 -56.5 -117t-131.5 -47q-84 0 -137.5 55.5t-49.5 130.5h78q-4 -49 27.5 -85t81.5 -36q45 0 77.5 28t32.5 71q0 106 -151 96v61q129 2 129 86q0 33 -26 54.5t-62 21.5q-45 0 -71 -30.5t-24 -83.5 h-77q-2 78 47 128t125 50z" glyph-name="uni00B3" horiz-adv-x="561" unicode="³"/><glyph d="M322 1491q41 0 24 -35l-123 -258q-10 -25 -35 -24h-129q-41 0 -24 34l123 258q10 25 35 25h129z" glyph-name="acute" horiz-adv-x="380" unicode="´"/><glyph d="M987 1004q31 0 31 -31v-942q0 -31 -31 -31h-145q-27 0 -31 31l-8 119q-123 -176 -309 -177q-92 0 -170 33v-364q0 -31 -31 -31h-154q-31 0 -30 31v1065h10v266q0 31 31 31h153q31 0 31 -31v-553q0 -125 58.5 -187.5t154.5 -62.5q113 0 184.5 77t71.5 142v584q0 31 31 31 h153z" glyph-name="uni00B5" horiz-adv-x="1126" unicode="µ"/><glyph d="M588 1434h405q31 0 31 -31v-1372q0 -31 -31 -31h-162q-31 0 -30 31v489h-213q-238 0 -369 126t-131 331t131 331t369 126zM1202 1403q0 31 31 31h162q31 0 30 -31v-1372q0 -31 -30 -31h-162q-31 0 -31 31v1372zM596 721h205v512h-205q-129 0 -211 -61.5t-82 -194.5 t82 -194.5t211 -61.5z" glyph-name="paragraph" horiz-adv-x="1552" unicode="¶"/><glyph d="M217 453q-53 0 -89 35.5t-36 89t36 89t89 35.5t89 -35.5t36 -89t-36 -89t-89 -35.5z" glyph-name="periodcentered" horiz-adv-x="452" unicode="·"/><glyph d="M211 -74q72 -6 123 -50t51 -114q0 -123 -100.5 -172t-235.5 -28q-18 4 -18 22v76q0 20 22 21q176 -18 176 69q0 39 -50 55.5t-124 -8.5q-25 -10 -24 15v77q0 10 10 25l86 86h160z" glyph-name="cedilla" horiz-adv-x="415" unicode="¸"/><glyph d="M219 1436v-535h-76v461h-55v74h131z" glyph-name="uni00B9" horiz-adv-x="335" unicode="¹"/><glyph d="M460.5 698q-155.5 0 -264 108.5t-108.5 264.5t108.5 264.5t264 108.5t264.5 -108.5t109 -264.5t-109 -264.5t-264.5 -108.5zM461 854q90 0 154.5 63.5t64.5 153.5q0 92 -64.5 155.5t-154.5 63.5q-92 0 -155.5 -63.5t-63.5 -155.5q0 -90 63.5 -153.5t155.5 -63.5z" glyph-name="ordmasculine" horiz-adv-x="919" unicode="º"/><glyph d="M358 647v-127q0 -23 -16 -37l-213 -188q-14 -12 -25.5 -7t-11.5 25v99q0 23 17 37l157 135l-157 135q-16 14 -17 37v98q0 20 11.5 24.5t25.5 -8.5l213 -186q16 -14 16 -37zM682 647v-127q0 -23 -16 -37l-213 -188q-14 -12 -25.5 -7t-11.5 25v99q0 23 16 37l158 135 l-158 135q-16 14 -16 37v98q0 20 11 24.5t26 -8.5l213 -186q16 -14 16 -37z" glyph-name="guillemotright" horiz-adv-x="774" unicode="»"/><glyph d="M213 1436v-535h-76v461h-55v74h131zM1075 1434l-880 -1434h-99l893 1434h86zM1083 535v-316h56v-63h-56v-156h-75v156h-271l271 379h75zM1008 424l-144 -205h144v205z" glyph-name="onequarter" horiz-adv-x="1220" unicode="¼"/><glyph d="M213 1436v-535h-76v461h-55v74h131zM1075 1434l-880 -1434h-99l893 1434h86zM909 541q70 0 121 -46t51 -108q0 -53 -29.5 -96t-109.5 -125l-96 -100h241v-66h-344v66l140 141q57 59 74.5 78.5t32 46t14.5 55.5q0 37 -29 63.5t-66 26.5q-39 0 -67.5 -26.5t-28.5 -75.5v-29 h-76v29q0 72 50 119t122 47z" glyph-name="onehalf" horiz-adv-x="1169" unicode="½"/><glyph d="M268 1440q66 0 115 -42t49 -98q0 -66 -61 -108q86 -37 86 -135q0 -70 -56.5 -117t-132.5 -47q-84 0 -137 55.5t-49 130.5h78q-4 -49 27.5 -85t80.5 -36q45 0 78 28t33 71q0 106 -152 96v61q129 2 129 86q0 33 -25.5 54.5t-62.5 21.5q-45 0 -70.5 -30.5t-23.5 -83.5h-78 q-2 78 47 128t125 50zM1139 1434l-881 -1434h-98l893 1434h86zM1126 535v-316h56v-63h-56v-156h-75v156h-271l271 379h75zM1051 424l-144 -205h144v205z" glyph-name="threequarters" horiz-adv-x="1263" unicode="¾"/><glyph d="M559 842q-51 0 -88 35.5t-37 89t37 89.5t88 36t88 -36t37 -89.5t-37 -89t-88 -35.5zM979 -121q25 -33 2 -61q-74 -90 -191.5 -146.5t-250.5 -56.5q-186 0 -316.5 106.5t-130.5 272.5q0 139 89 237.5t280 188.5l10 205q4 31 31 30h116q27 0 31 -30l15 -293q4 -25 -27 -35 q-180 -59 -251 -126t-71 -159q0 -88 67 -137t167 -49q150 0 301 133q37 33 63 0z" glyph-name="questiondown" horiz-adv-x="1064" unicode="¿"/><glyph d="M582 1567l-123 258q-16 35 24 35h129q25 0 35 -25l123 -258q16 -35 -25 -35h-129q-24 0 -34 25zM1311 35q14 -35 -25 -35h-166q-27 0 -35 25l-96 278h-588l-96 -278q-8 -25 -35 -25h-166q-39 0 -24 35l500 1374q10 25 36 25h156q27 0 37 -25zM465 485h461l-232 664z" glyph-name="Agrave" horiz-adv-x="1388" unicode="À"/><glyph d="M645 1542q-41 0 -24 35l122 258q10 25 35 25h129q41 0 25 -35l-123 -258q-10 -25 -35 -25h-129zM1311 35q14 -35 -25 -35h-166q-27 0 -35 25l-96 278h-588l-96 -278q-8 -25 -35 -25h-166q-39 0 -24 35l500 1374q10 25 36 25h156q27 0 37 -25zM465 485h461l-232 664z" glyph-name="Aacute" horiz-adv-x="1388" unicode="Á"/><glyph d="M434 1593q-20 0 -25.5 11.5t7.5 25.5l188 213q14 16 37 17h127q23 0 37 -17l186 -213q12 -14 8 -25.5t-24 -11.5h-98q-23 0 -37 17l-135 157l-136 -157q-14 -16 -37 -17h-98zM1311 35q14 -35 -25 -35h-166q-27 0 -35 25l-96 278h-588l-96 -278q-8 -25 -35 -25h-166 q-39 0 -24 35l500 1374q10 25 36 25h156q27 0 37 -25zM465 485h461l-232 664z" glyph-name="Acircumflex" horiz-adv-x="1388" unicode="Â"/><glyph d="M383 1698q-23 0 -18 24q8 88 60 133.5t134 45.5t171 -70t138 -70q68 0 90 62q6 16 23 16h47q20 0 21 -20q-6 -88 -59.5 -135.5t-131.5 -47.5q-84 0 -174 70t-139 70q-66 0 -92 -62q-6 -16 -23 -16h-47zM1311 35q14 -35 -25 -35h-166q-27 0 -35 25l-96 278h-588l-96 -278 q-8 -25 -35 -25h-166q-39 0 -24 35l500 1374q10 25 36 25h156q27 0 37 -25zM465 485h461l-232 664z" glyph-name="Atilde" horiz-adv-x="1388" unicode="Ã"/><glyph d="M500 1645q-47 0 -81 33.5t-34 82.5q0 45 34 79t81 34t80.5 -33t33.5 -80q0 -49 -33.5 -82.5t-80.5 -33.5zM911 1645q-47 0 -80.5 33.5t-33.5 82.5q0 47 33.5 80t80.5 33t81 -34t34 -79q0 -49 -34 -82.5t-81 -33.5zM1311 35q14 -35 -25 -35h-166q-27 0 -35 25l-96 278 h-588l-96 -278q-8 -25 -35 -25h-166q-39 0 -24 35l500 1374q10 25 36 25h156q27 0 37 -25zM465 485h461l-232 664z" glyph-name="Adieresis" horiz-adv-x="1388" unicode="Ä"/><glyph d="M707 1556q-80 0 -134.5 54.5t-54.5 130.5t54.5 130t134.5 54q76 0 130 -54t54 -130t-54 -130.5t-130 -54.5zM707 1794q-23 0 -38.5 -15.5t-15.5 -38t15.5 -36.5t38 -14t37 15t14.5 36q0 23 -15.5 38t-35.5 15zM1311 35q14 -35 -25 -35h-166q-27 0 -35 25l-96 278h-588 l-96 -278q-8 -25 -35 -25h-166q-39 0 -24 35l500 1374q10 25 36 25h156q27 0 37 -25zM465 485h461l-232 664z" glyph-name="Aring" horiz-adv-x="1388" unicode="Å"/><glyph d="M1616 201q31 0 31 -31v-139q0 -31 -31 -31h-731q-31 0 -31 31v293h-420l-135 -299q-10 -25 -35 -25h-170q-39 0 -24 35l645 1374q10 25 35 25h864q31 0 31 -31v-139q0 -31 -31 -31h-537v-383h504q31 0 31 -31v-139q0 -31 -31 -31h-504v-448h539zM520 516h334v744z" glyph-name="AE" horiz-adv-x="1759" unicode="Æ"/><glyph d="M1229 324l102 -107q18 -23 -2 -43q-199 -182 -442 -199l-51 -49q72 -6 123 -50t51 -114q0 -123 -100.5 -172t-235.5 -28q-18 4 -19 22v76q0 20 23 21q176 -18 176 69q0 39 -50 55.5t-124 -8.5q-25 -10 -25 15v77q0 10 11 25l67 68q-268 37 -446 243.5t-178 485.5 q0 309 211.5 524t517.5 215q276 0 491 -201q23 -18 2 -43l-102 -106q-18 -20 -43 0q-158 133 -350 133q-209 0 -354.5 -149.5t-145.5 -372.5q0 -219 145.5 -368.5t354.5 -149.5q197 0 350 133q25 21 43 -2z" glyph-name="Ccedilla" horiz-adv-x="1437" unicode="Ç"/><glyph d="M328 1860h129q25 0 35 -25l122 -258q16 -35 -24 -35h-129q-25 0 -35 25l-123 258q-16 35 25 35zM911 201q31 0 31 -31v-139q0 -31 -31 -31h-731q-31 0 -30 31v1372q0 31 30 31h729q31 0 31 -31v-139q0 -31 -31 -31h-536v-383h504q31 0 30 -31v-139q0 -31 -30 -31h-504 v-448h538z" glyph-name="Egrave" horiz-adv-x="1075" unicode="È"/><glyph d="M752 1860q41 0 24 -35l-123 -258q-10 -25 -35 -25h-129q-41 0 -24 35l123 258q10 25 35 25h129zM911 201q31 0 31 -31v-139q0 -31 -31 -31h-731q-31 0 -30 31v1372q0 31 30 31h729q31 0 31 -31v-139q0 -31 -31 -31h-536v-383h504q31 0 30 -31v-139q0 -31 -30 -31h-504 v-448h538z" glyph-name="Eacute" horiz-adv-x="1075" unicode="É"/><glyph d="M612 1860q23 0 37 -17l187 -213q12 -14 8 -25.5t-25 -11.5h-98q-23 0 -37 17l-135 157l-135 -157q-14 -16 -37 -17h-98q-20 0 -25.5 11.5t6.5 25.5l189 213q14 16 36 17h127zM911 201q31 0 31 -31v-139q0 -31 -31 -31h-731q-31 0 -30 31v1372q0 31 30 31h729q31 0 31 -31 v-139q0 -31 -31 -31h-536v-383h504q31 0 30 -31v-139q0 -31 -30 -31h-504v-448h538z" glyph-name="Ecircumflex" horiz-adv-x="1075" unicode="Ê"/><glyph d="M344 1645q-47 0 -81 33.5t-34 82.5q0 45 34 79t81 34t81 -33t34 -80q0 -49 -34 -82.5t-81 -33.5zM756 1645q-47 0 -81 33.5t-34 82.5q0 47 34 80t81 33t80.5 -34t33.5 -79q0 -49 -33.5 -82.5t-80.5 -33.5zM911 201q31 0 31 -31v-139q0 -31 -31 -31h-731q-31 0 -30 31 v1372q0 31 30 31h729q31 0 31 -31v-139q0 -31 -31 -31h-536v-383h504q31 0 30 -31v-139q0 -31 -30 -31h-504v-448h538z" glyph-name="Edieresis" horiz-adv-x="1075" unicode="Ë"/><glyph d="M39 1860h129q25 0 35 -25l123 -258q16 -35 -25 -35h-129q-25 0 -35 25l-123 258q-16 35 25 35zM150 1403q0 31 30 31h162q31 0 31 -31v-1372q0 -31 -31 -31h-162q-31 0 -30 31v1372z" glyph-name="Igrave" horiz-adv-x="520" unicode="Ì"/><glyph d="M463 1860q41 0 24 -35l-122 -258q-10 -25 -35 -25h-129q-41 0 -25 35l123 258q10 25 35 25h129zM150 1403q0 31 30 31h162q31 0 31 -31v-1372q0 -31 -31 -31h-162q-31 0 -30 31v1372z" glyph-name="Iacute" horiz-adv-x="520" unicode="Í"/><glyph d="M324 1860q23 0 36 -17l187 -213q12 -14 8 -25.5t-25 -11.5h-98q-23 0 -37 17l-135 157l-135 -157q-14 -16 -37 -17h-98q-20 0 -25.5 11.5t6.5 25.5l189 213q14 16 37 17h127zM150 1403q0 31 30 31h162q31 0 31 -31v-1372q0 -31 -31 -31h-162q-31 0 -30 31v1372z" glyph-name="Icircumflex" horiz-adv-x="520" unicode="Î"/><glyph d="M55 1645q-47 0 -80.5 33.5t-33.5 82.5q0 45 33.5 79t80.5 34t81 -33t34 -80q0 -49 -34 -82.5t-81 -33.5zM467 1645q-47 0 -81 33.5t-34 82.5q0 47 34 80t81 33t81 -34t34 -79q0 -49 -34 -82.5t-81 -33.5zM150 1403q0 31 30 31h162q31 0 31 -31v-1372q0 -31 -31 -31h-162 q-31 0 -30 31v1372z" glyph-name="Idieresis" horiz-adv-x="520" unicode="Ï"/><glyph d="M561 1434q358 0 554 -201t196 -516q0 -313 -196.5 -515t-553.5 -202h-364q-31 0 -31 31v596h-84q-31 0 -31 30v109q0 31 31 31h84v606q0 31 31 31h364zM561 201q258 0 391 135t133 381t-133 381t-391 135h-172v-436h281q31 0 30 -31v-109q0 -31 -30 -30h-281v-426h172z " glyph-name="Eth" horiz-adv-x="1409" unicode="Ð"/><glyph d="M381 1698q-20 0 -19 24q8 88 60.5 133.5t134.5 45.5t171 -70t138 -70q68 0 90 62q6 16 23 16h47q20 0 21 -20q-6 -88 -59.5 -135.5t-131.5 -47.5q-84 0 -174 70t-139 70q-66 0 -92 -62q-6 -16 -23 -16h-47zM1225 1434q31 0 30 -31v-1372q0 -31 -28 -31h-197q-25 0 -37 20 l-620 1074v-1063q0 -31 -31 -31h-162q-31 0 -30 31v1372q0 27 26 31h199q25 0 37 -21l620 -1075v1065q0 31 31 31h162z" glyph-name="Ntilde" horiz-adv-x="1402" unicode="Ñ"/><glyph d="M623 1860h129q25 0 34 -25l123 -258q16 -35 -24 -35h-129q-25 0 -35 25l-123 258q-16 35 25 35zM844 -27q-305 0 -520 215t-215 522.5t215 523.5t520 216q303 0 518 -216t215 -523.5t-215 -522.5t-518 -215zM844 193q215 0 361.5 149.5t146.5 368.5q0 221 -146.5 371.5 t-361.5 150.5q-217 0 -363.5 -150.5t-146.5 -371.5q0 -219 146.5 -368.5t363.5 -149.5z" glyph-name="Ograve" horiz-adv-x="1685" unicode="Ò"/><glyph d="M1047 1860q41 0 24 -35l-123 -258q-10 -25 -35 -25h-129q-41 0 -24 35l123 258q10 25 35 25h129zM844 -27q-305 0 -520 215t-215 522.5t215 523.5t520 216q303 0 518 -216t215 -523.5t-215 -522.5t-518 -215zM844 193q215 0 361.5 149.5t146.5 368.5q0 221 -146.5 371.5 t-361.5 150.5q-217 0 -363.5 -150.5t-146.5 -371.5q0 -219 146.5 -368.5t363.5 -149.5z" glyph-name="Oacute" horiz-adv-x="1685" unicode="Ó"/><glyph d="M907 1860q23 0 37 -17l186 -213q12 -14 8.5 -25.5t-24.5 -11.5h-98q-23 0 -37 17l-135 157l-135 -157q-14 -16 -37 -17h-99q-20 0 -25 11.5t7 25.5l188 213q14 16 37 17h127zM844 -27q-305 0 -520 215t-215 522.5t215 523.5t520 216q303 0 518 -216t215 -523.5 t-215 -522.5t-518 -215zM844 193q215 0 361.5 149.5t146.5 368.5q0 221 -146.5 371.5t-361.5 150.5q-217 0 -363.5 -150.5t-146.5 -371.5q0 -219 146.5 -368.5t363.5 -149.5z" glyph-name="Ocircumflex" horiz-adv-x="1685" unicode="Ô"/><glyph d="M698 1901q82 0 171 -70t139 -70q68 0 90 62q6 16 22 16h47q20 0 21 -20q-6 -88 -59.5 -135.5t-131.5 -47.5q-84 0 -174 70t-139 70q-66 0 -92 -62q-6 -16 -23 -16h-47q-23 0 -18 24q8 88 60 133.5t134 45.5zM844 -27q-305 0 -520 215t-215 522.5t215 523.5t520 216 q303 0 518 -216t215 -523.5t-215 -522.5t-518 -215zM844 193q215 0 361.5 149.5t146.5 368.5q0 221 -146.5 371.5t-361.5 150.5q-217 0 -363.5 -150.5t-146.5 -371.5q0 -219 146.5 -368.5t363.5 -149.5z" glyph-name="Otilde" horiz-adv-x="1685" unicode="Õ"/><glyph d="M639 1645q-47 0 -81 33.5t-34 82.5q0 45 34 79t81 34t81 -33t34 -80q0 -49 -34 -82.5t-81 -33.5zM1051 1645q-47 0 -81 33.5t-34 82.5q0 47 34 80t81 33t80.5 -34t33.5 -79q0 -49 -33.5 -82.5t-80.5 -33.5zM844 -27q-305 0 -520 215t-215 522.5t215 523.5t520 216 q303 0 518 -216t215 -523.5t-215 -522.5t-518 -215zM844 193q215 0 361.5 149.5t146.5 368.5q0 221 -146.5 371.5t-361.5 150.5q-217 0 -363.5 -150.5t-146.5 -371.5q0 -219 146.5 -368.5t363.5 -149.5z" glyph-name="Odieresis" horiz-adv-x="1685" unicode="Ö"/><glyph d="M694 426q23 -20 0 -43l-76 -76q-20 -20 -43 0l-155 158l-158 -158q-20 -20 -43 0l-76 76q-20 23 0 43l158 158l-158 155q-20 23 0 43l76 76q23 23 43 0l158 -156l153 154q20 25 43 0l76 -76q20 -20 0 -43l-153 -153z" glyph-name="multiply" horiz-adv-x="835" unicode="×"/><glyph d="M1227 1341q160 -98 255 -266t95 -364q0 -307 -215 -522.5t-518 -215.5q-117 0 -226 35l-40 -88q-8 -23 -35 -22h-150q-39 0 -22 36l71 158q-154 100 -243.5 263t-89.5 356q0 307 215 523t520 216q109 0 207 -31l39 84q8 23 34 23h148q39 0 22 -37zM334 711 q0 -264 201 -418l426 928q-55 12 -117 12q-217 0 -363.5 -150.5t-146.5 -371.5zM844 193q215 0 361.5 149.5t146.5 368.5q0 135 -57.5 247.5t-157.5 184.5l-426 -934q65 -16 133 -16z" glyph-name="Oslash" horiz-adv-x="1665" unicode="Ø"/><glyph d="M446 1860h129q25 0 35 -25l123 -258q16 -35 -24 -35h-129q-25 0 -35 25l-123 258q-17 35 24 35zM1167 1434q31 0 31 -31v-846q0 -279 -146.5 -431.5t-383.5 -152.5q-236 0 -382.5 153t-146.5 431v846q0 31 31 31h162q31 0 30 -31v-846q0 -180 82 -274.5t224 -94.5 q143 0 225 94.5t82 274.5v846q0 31 31 31h161z" glyph-name="Ugrave" horiz-adv-x="1335" unicode="Ù"/><glyph d="M870 1860q41 0 25 -35l-123 -258q-10 -25 -35 -25h-129q-41 0 -24 35l123 258q10 25 34 25h129zM1167 1434q31 0 31 -31v-846q0 -279 -146.5 -431.5t-383.5 -152.5q-236 0 -382.5 153t-146.5 431v846q0 31 31 31h162q31 0 30 -31v-846q0 -180 82 -274.5t224 -94.5 q143 0 225 94.5t82 274.5v846q0 31 31 31h161z" glyph-name="Uacute" horiz-adv-x="1335" unicode="Ú"/><glyph d="M731 1860q23 0 37 -17l186 -213q12 -14 8 -25.5t-24 -11.5h-98q-23 0 -37 17l-135 157l-136 -157q-14 -16 -36 -17h-99q-20 0 -25 11.5t7 25.5l188 213q14 16 37 17h127zM1167 1434q31 0 31 -31v-846q0 -279 -146.5 -431.5t-383.5 -152.5q-236 0 -382.5 153t-146.5 431 v846q0 31 31 31h162q31 0 30 -31v-846q0 -180 82 -274.5t224 -94.5q143 0 225 94.5t82 274.5v846q0 31 31 31h161z" glyph-name="Ucircumflex" horiz-adv-x="1335" unicode="Û"/><glyph d="M463 1645q-47 0 -81 33.5t-34 82.5q0 45 34 79t81 34t81 -33t34 -80q0 -49 -34 -82.5t-81 -33.5zM874.5 1645q-47.5 0 -81 33.5t-33.5 82.5q0 47 33.5 80t81 33t81 -34t33.5 -79q0 -49 -33.5 -82.5t-81 -33.5zM1167 1434q31 0 31 -31v-846q0 -279 -146.5 -431.5 t-383.5 -152.5q-236 0 -382.5 153t-146.5 431v846q0 31 31 31h162q31 0 30 -31v-846q0 -180 82 -274.5t224 -94.5q143 0 225 94.5t82 274.5v846q0 31 31 31h161z" glyph-name="Udieresis" horiz-adv-x="1335" unicode="Ü"/><glyph d="M578 1542q-41 0 -25 35l123 258q10 25 35 25h129q41 0 24 -35l-123 -258q-10 -25 -34 -25h-129zM1151 1434q41 0 20 -37l-421 -715v-651q0 -31 -31 -31h-162q-31 0 -31 31v651l-422 715q-20 37 21 37h170q25 0 37 -21l305 -522l305 522q12 20 37 21h172z" glyph-name="Yacute" horiz-adv-x="1273" unicode="Ý"/><glyph d="M598 1174q240 0 369 -123t129 -334t-129 -334t-369 -123h-225v-229q0 -31 -31 -31h-162q-31 0 -30 31v1372q0 31 30 31h162q31 0 31 -31v-229h225zM582 461q299 0 299 256t-299 256h-209v-512h209z" glyph-name="Thorn" horiz-adv-x="1173" unicode="Þ"/><glyph d="M844 762q147 -25 236 -117t89 -235q0 -217 -139 -313.5t-432 -96.5h-109q-31 0 -30 31v112q0 31 30 31h109q188 0 276.5 54.5t88.5 187.5q0 238 -377 237h-97q-31 0 -30 31v111q0 31 30 30h97q147 0 221 60.5t74 169.5q0 92 -71 140t-200 48q-135 0 -195.5 -52 t-60.5 -155v-1005q0 -31 -30 -31h-154q-31 0 -31 31v1005q0 188 127 293t344 105q213 0 345 -96.5t132 -266.5q0 -125 -67 -205.5t-176 -103.5z" glyph-name="germandbls" horiz-adv-x="1247" unicode="ß"/><glyph d="M489 1137l-122 258q-16 35 24 35h129q25 0 35 -25l123 -258q16 -35 -25 -35h-129q-25 0 -35 25zM1090 1004q31 0 30 -31v-942q0 -31 -30 -31h-134q-27 0 -30 31l-11 114q-123 -160 -327 -159q-211 0 -350.5 149.5t-139.5 364.5q0 221 139.5 372.5t350.5 151.5 q207 0 330 -168l8 117q4 31 30 31h134zM608 182q133 0 218 91.5t85 228.5t-86 232t-217 95t-217 -93t-86 -234q0 -137 86 -228.5t217 -91.5z" glyph-name="agrave" unicode="à"/><glyph d="M553 1112q-41 0 -25 35l123 258q10 25 35 25h129q41 0 25 -35l-123 -258q-10 -25 -35 -25h-129zM1090 1004q31 0 30 -31v-942q0 -31 -30 -31h-134q-27 0 -30 31l-11 114q-123 -160 -327 -159q-211 0 -350.5 149.5t-139.5 364.5q0 221 139.5 372.5t350.5 151.5 q207 0 330 -168l8 117q4 31 30 31h134zM608 182q133 0 218 91.5t85 228.5t-86 232t-217 95t-217 -93t-86 -234q0 -137 86 -228.5t217 -91.5z" glyph-name="aacute" unicode="á"/><glyph d="M342 1163q-20 0 -25.5 11.5t7.5 25.5l188 213q14 16 37 17h127q23 0 37 -17l186 -213q12 -14 8 -25.5t-24 -11.5h-99q-23 0 -36 17l-136 157l-135 -157q-14 -16 -37 -17h-98zM1090 1004q31 0 30 -31v-942q0 -31 -30 -31h-134q-27 0 -30 31l-11 114q-123 -160 -327 -159 q-211 0 -350.5 149.5t-139.5 364.5q0 221 139.5 372.5t350.5 151.5q207 0 330 -168l8 117q4 31 30 31h134zM608 182q133 0 218 91.5t85 228.5t-86 232t-217 95t-217 -93t-86 -234q0 -137 86 -228.5t217 -91.5z" glyph-name="acircumflex" unicode="â"/><glyph d="M291 1268q-20 0 -19 24q8 88 60.5 133t134.5 45t171 -69.5t138 -69.5q68 0 90 62q6 16 23 16h47q20 0 20 -20q-6 -88 -59 -135.5t-131 -47.5q-84 0 -174 70t-139 70q-66 0 -93 -62q-6 -16 -22 -16h-47zM1090 1004q31 0 30 -31v-942q0 -31 -30 -31h-134q-27 0 -30 31 l-11 114q-123 -160 -327 -159q-211 0 -350.5 149.5t-139.5 364.5q0 221 139.5 372.5t350.5 151.5q207 0 330 -168l8 117q4 31 30 31h134zM608 182q133 0 218 91.5t85 228.5t-86 232t-217 95t-217 -93t-86 -234q0 -137 86 -228.5t217 -91.5z" glyph-name="atilde" unicode="ã"/><glyph d="M407.5 1214q-47.5 0 -81 34t-33.5 83q0 45 33.5 79t81 34t81 -33t33.5 -80q0 -49 -33.5 -83t-81 -34zM819 1214q-47 0 -80.5 34t-33.5 83q0 47 33.5 80t80.5 33t81 -34t34 -79q0 -49 -34 -83t-81 -34zM1090 1004q31 0 30 -31v-942q0 -31 -30 -31h-134q-27 0 -30 31 l-11 114q-123 -160 -327 -159q-211 0 -350.5 149.5t-139.5 364.5q0 221 139.5 372.5t350.5 151.5q207 0 330 -168l8 117q4 31 30 31h134zM608 182q133 0 218 91.5t85 228.5t-86 232t-217 95t-217 -93t-86 -234q0 -137 86 -228.5t217 -91.5z" glyph-name="adieresis" unicode="ä"/><glyph d="M614 1126q-80 0 -134 54.5t-54 130t54.5 130t133.5 54.5q76 0 130.5 -54.5t54.5 -130t-54.5 -130t-130.5 -54.5zM614 1364q-23 0 -38 -15.5t-15 -38t15.5 -36.5t37.5 -14q20 0 36 15t16 36q0 23 -16 38t-36 15zM1090 1004q31 0 30 -31v-942q0 -31 -30 -31h-134 q-27 0 -30 31l-11 114q-123 -160 -327 -159q-211 0 -350.5 149.5t-139.5 364.5q0 221 139.5 372.5t350.5 151.5q207 0 330 -168l8 117q4 31 30 31h134zM608 182q133 0 218 91.5t85 228.5t-86 232t-217 95t-217 -93t-86 -234q0 -137 86 -228.5t217 -91.5z" glyph-name="aring" unicode="å"/><glyph d="M1415 1024q211 0 343 -143.5t132 -343.5q0 -61 -13 -87t-52 -26h-695q20 -119 106.5 -188.5t219.5 -69.5q135 0 244 82q27 18 43 2l65 -64q23 -23 0 -47q-150 -154 -372 -153q-182 0 -316 100v-55q0 -31 -30 -31h-134q-27 0 -30 31l-11 114q-123 -160 -327 -159 q-211 0 -350.5 149.5t-139.5 364.5q0 221 139.5 372.5t350.5 151.5q207 0 330 -168l8 117q4 31 30 31h134q31 0 30 -31v-45q125 96 295 96zM1417.5 838q-114.5 0 -194.5 -73t-95 -192h572q-12 119 -90 192t-192.5 73zM608 182q133 0 218 91.5t85 228.5t-86 232t-217 95 t-217 -93t-86 -234q0 -137 86 -228.5t217 -91.5z" glyph-name="ae" horiz-adv-x="1966" unicode="æ"/><glyph d="M995 207q20 -20 2 -43q-131 -150 -325 -174l-66 -64q72 -6 123 -50t51 -114q0 -123 -100 -172t-236 -28q-18 4 -18 22v76q0 20 23 21q176 -18 176 69q0 39 -50.5 55.5t-123.5 -8.5q-25 -10 -25 15v77q0 10 10 25l80 80q-182 33 -300 175t-118 335q0 219 146.5 369.5 t361.5 150.5q229 0 385 -178q18 -23 -2 -43l-90 -86q-20 -20 -45 2q-41 37 -64.5 53t-73.5 35.5t-108 19.5q-133 0 -218 -93t-85 -230q0 -135 86 -227.5t217 -92.5q139 0 252 109q25 20 45 0z" glyph-name="ccedilla" horiz-adv-x="1169" unicode="ç"/><glyph d="M463 1137l-123 258q-16 35 25 35h129q25 0 34 -25l123 -258q16 -35 -24 -35h-129q-25 0 -35 25zM596 1024q211 0 343 -143.5t132 -343.5q0 -61 -13.5 -87t-51.5 -26h-695q20 -119 106.5 -188.5t219.5 -69.5q135 0 244 82q27 18 43 2l65 -64q23 -23 0 -47 q-150 -154 -373 -153q-227 0 -372.5 150.5t-145.5 369.5t141.5 368.5t356.5 149.5zM598 838q-115 0 -194.5 -73t-94.5 -192h572q-12 119 -90 192t-193 73z" glyph-name="egrave" horiz-adv-x="1167" unicode="è"/><glyph d="M526 1112q-41 0 -24 35l123 258q10 25 34 25h129q41 0 25 -35l-123 -258q-10 -25 -35 -25h-129zM596 1024q211 0 343 -143.5t132 -343.5q0 -61 -13.5 -87t-51.5 -26h-695q20 -119 106.5 -188.5t219.5 -69.5q135 0 244 82q27 18 43 2l65 -64q23 -23 0 -47 q-150 -154 -373 -153q-227 0 -372.5 150.5t-145.5 369.5t141.5 368.5t356.5 149.5zM598 838q-115 0 -194.5 -73t-94.5 -192h572q-12 119 -90 192t-193 73z" glyph-name="eacute" horiz-adv-x="1167" unicode="é"/><glyph d="M315 1163q-20 0 -25 11.5t7 25.5l188 213q14 16 37 17h127q23 0 37 -17l186 -213q12 -14 8.5 -25.5t-24.5 -11.5h-98q-23 0 -37 17l-135 157l-135 -157q-14 -16 -37 -17h-99zM596 1024q211 0 343 -143.5t132 -343.5q0 -61 -13.5 -87t-51.5 -26h-695q20 -119 106.5 -188.5 t219.5 -69.5q135 0 244 82q27 18 43 2l65 -64q23 -23 0 -47q-150 -154 -373 -153q-227 0 -372.5 150.5t-145.5 369.5t141.5 368.5t356.5 149.5zM598 838q-115 0 -194.5 -73t-94.5 -192h572q-12 119 -90 192t-193 73z" glyph-name="ecircumflex" horiz-adv-x="1167" unicode="ê"/><glyph d="M381 1214q-47 0 -81 34t-34 83q0 45 34 79t81 34t81 -33t34 -80q0 -49 -34 -83t-81 -34zM792.5 1214q-47.5 0 -81 34t-33.5 83q0 47 33.5 80t81 33t81 -34t33.5 -79q0 -49 -33.5 -83t-81 -34zM596 1024q211 0 343 -143.5t132 -343.5q0 -61 -13.5 -87t-51.5 -26h-695 q20 -119 106.5 -188.5t219.5 -69.5q135 0 244 82q27 18 43 2l65 -64q23 -23 0 -47q-150 -154 -373 -153q-227 0 -372.5 150.5t-145.5 369.5t141.5 368.5t356.5 149.5zM598 838q-115 0 -194.5 -73t-94.5 -192h572q-12 119 -90 192t-193 73z" glyph-name="edieresis" horiz-adv-x="1167" unicode="ë"/><glyph d="M6 1430h129q25 0 35 -25l123 -258q16 -35 -25 -35h-129q-25 0 -35 25l-122 258q-17 35 24 35zM119 973q0 31 31 31h153q31 0 31 -31v-942q0 -31 -31 -31h-153q-31 0 -31 31v942z" glyph-name="igrave" horiz-adv-x="450" unicode="ì"/><glyph d="M430 1430q41 0 25 -35l-123 -258q-10 -25 -35 -25h-129q-41 0 -25 35l123 258q10 25 35 25h129zM119 973q0 31 31 31h153q31 0 31 -31v-942q0 -31 -31 -31h-153q-31 0 -31 31v942z" glyph-name="iacute" horiz-adv-x="450" unicode="í"/><glyph d="M291 1430q23 0 37 -17l186 -213q12 -14 8 -25.5t-24 -11.5h-99q-23 0 -37 17l-135 157l-135 -157q-14 -16 -37 -17h-98q-20 0 -25.5 11.5t7.5 25.5l188 213q14 16 37 17h127zM119 973q0 31 31 31h153q31 0 31 -31v-942q0 -31 -31 -31h-153q-31 0 -31 31v942z" glyph-name="icircumflex" horiz-adv-x="450" unicode="î"/><glyph d="M22.5 1214q-47.5 0 -81 34t-33.5 83q0 45 33.5 79t81 34t81 -33t33.5 -80q0 -49 -33.5 -83t-81 -34zM434 1214q-47 0 -81 34t-34 83q0 47 34 80t81 33t81 -34t34 -79q0 -49 -34 -83t-81 -34zM119 973q0 31 31 31h153q31 0 31 -31v-942q0 -31 -31 -31h-153q-31 0 -31 31 v942z" glyph-name="idieresis" horiz-adv-x="450" unicode="ï"/><glyph d="M1151 1311q33 4 33 -29v-96q0 -29 -29 -33l-35 -4v-1118q0 -31 -30 -31h-134q-27 0 -30 31l-11 114q-123 -160 -327 -159q-211 0 -350.5 149.5t-139.5 364.5q0 221 139.5 372.5t350.5 151.5q195 0 317 -154v250l-172 -22q-33 -4 -33 28v97q0 29 29 32l176 23v186 q0 31 31 31h154q31 0 30 -31v-157zM608 182q133 0 218 91.5t85 228.5t-86 232t-217 95t-217 -93t-86 -234q0 -137 86 -228.5t217 -91.5z" glyph-name="eth" horiz-adv-x="1214" unicode="ð"/><glyph d="M258 1268q-20 0 -18 24q8 88 60 133t134 45t171 -69.5t138 -69.5q68 0 91 62q6 16 22 16h47q20 0 21 -20q-6 -88 -59.5 -135.5t-131.5 -47.5q-84 0 -174 70t-139 70q-66 0 -92 -62q-6 -16 -23 -16h-47zM672 1026q160 0 258 -107.5t98 -304.5v-583q0 -31 -31 -31h-153 q-31 0 -31 31v553q0 123 -56.5 184t-150.5 61q-113 0 -187.5 -81.5t-74.5 -133.5v-583q0 -31 -31 -31h-153q-31 0 -31 31v942q0 31 31 31h145q27 0 31 -31l8 -135q123 188 328 188z" glyph-name="ntilde" horiz-adv-x="1157" unicode="ñ"/><glyph d="M391 1430h129q25 0 35 -25l123 -258q16 -35 -25 -35h-129q-25 0 -35 25l-122 258q-17 35 24 35zM612 -20q-217 0 -365.5 151.5t-148.5 370.5q0 221 148.5 372.5t365.5 151.5q215 0 364.5 -151.5t149.5 -372.5q0 -219 -149.5 -370.5t-364.5 -151.5zM612 178 q129 0 218.5 92t89.5 232q0 141 -88.5 234t-219.5 93t-219 -93t-88 -234q0 -139 89 -231.5t218 -92.5z" glyph-name="ograve" horiz-adv-x="1222" unicode="ò"/><glyph d="M815 1430q41 0 25 -35l-123 -258q-10 -25 -35 -25h-129q-41 0 -25 35l123 258q10 25 35 25h129zM612 -20q-217 0 -365.5 151.5t-148.5 370.5q0 221 148.5 372.5t365.5 151.5q215 0 364.5 -151.5t149.5 -372.5q0 -219 -149.5 -370.5t-364.5 -151.5zM612 178 q129 0 218.5 92t89.5 232q0 141 -88.5 234t-219.5 93t-219 -93t-88 -234q0 -139 89 -231.5t218 -92.5z" glyph-name="oacute" horiz-adv-x="1222" unicode="ó"/><glyph d="M676 1430q23 0 37 -17l186 -213q12 -14 8 -25.5t-24 -11.5h-99q-23 0 -36 17l-136 157l-135 -157q-14 -16 -37 -17h-98q-20 0 -25.5 11.5t7.5 25.5l188 213q14 16 37 17h127zM612 -20q-217 0 -365.5 151.5t-148.5 370.5q0 221 148.5 372.5t365.5 151.5 q215 0 364.5 -151.5t149.5 -372.5q0 -219 -149.5 -370.5t-364.5 -151.5zM612 178q129 0 218.5 92t89.5 232q0 141 -88.5 234t-219.5 93t-219 -93t-88 -234q0 -139 89 -231.5t218 -92.5z" glyph-name="ocircumflex" horiz-adv-x="1222" unicode="ô"/><glyph d="M467 1470q82 0 171 -69.5t138 -69.5q68 0 90 62q6 16 23 16h47q20 0 20 -20q-6 -88 -59 -135.5t-131 -47.5q-84 0 -174 70t-139 70q-66 0 -93 -62q-6 -16 -22 -16h-47q-20 0 -19 24q8 88 60.5 133t134.5 45zM612 -20q-217 0 -365.5 151.5t-148.5 370.5q0 221 148.5 372.5 t365.5 151.5q215 0 364.5 -151.5t149.5 -372.5q0 -219 -149.5 -370.5t-364.5 -151.5zM612 178q129 0 218.5 92t89.5 232q0 141 -88.5 234t-219.5 93t-219 -93t-88 -234q0 -139 89 -231.5t218 -92.5z" glyph-name="otilde" horiz-adv-x="1222" unicode="õ"/><glyph d="M407.5 1214q-47.5 0 -81 34t-33.5 83q0 45 33.5 79t81 34t81 -33t33.5 -80q0 -49 -33.5 -83t-81 -34zM819 1214q-47 0 -80.5 34t-33.5 83q0 47 33.5 80t80.5 33t81 -34t34 -79q0 -49 -34 -83t-81 -34zM612 -20q-217 0 -365.5 151.5t-148.5 370.5q0 221 148.5 372.5 t365.5 151.5q215 0 364.5 -151.5t149.5 -372.5q0 -219 -149.5 -370.5t-364.5 -151.5zM612 178q129 0 218.5 92t89.5 232q0 141 -88.5 234t-219.5 93t-219 -93t-88 -234q0 -139 89 -231.5t218 -92.5z" glyph-name="odieresis" horiz-adv-x="1222" unicode="ö"/><glyph d="M489.5 754q-51.5 0 -88 36.5t-36.5 88t36.5 88.5t88 37t88 -37t36.5 -88.5t-36.5 -88t-88 -36.5zM815 668q31 0 31 -31v-107q0 -31 -31 -30h-651q-31 0 -31 30v107q0 31 31 31h651zM489.5 131q-51.5 0 -88 37t-36.5 88t36.5 88t88 37t88 -37t36.5 -88t-36.5 -88t-88 -37z " glyph-name="divide" horiz-adv-x="978" unicode="÷"/><glyph d="M895 942q106 -70 168.5 -186.5t62.5 -253.5q0 -219 -149.5 -370.5t-364.5 -151.5q-80 0 -143 20l-55 -121q-8 -23 -35 -22h-119q-39 0 -22 37l79 178q-102 72 -160.5 184.5t-58.5 245.5q0 221 148.5 372.5t365.5 151.5q63 0 129 -16l50 110q8 23 34 23h121q39 0 23 -37z M305 502q0 -147 98 -242l254 565q-29 4 -45 4q-131 0 -219 -93t-88 -234zM612 178q129 0 218.5 92t89.5 232q0 160 -109 254l-260 -572q30 -6 61 -6z" glyph-name="oslash" horiz-adv-x="1202" unicode="ø"/><glyph d="M446 1137l-122 258q-16 35 24 35h129q25 0 35 -25l123 -258q16 -35 -25 -35h-129q-25 0 -35 25zM987 1004q31 0 31 -31v-942q0 -31 -31 -31h-145q-27 0 -31 31l-8 119q-123 -176 -309 -177q-174 0 -274.5 108.5t-100.5 307.5v584q0 31 31 31h153q31 0 31 -31v-553 q0 -125 58.5 -187.5t154.5 -62.5q113 0 184.5 77t71.5 142v584q0 31 31 31h153z" glyph-name="ugrave" horiz-adv-x="1146" unicode="ù"/><glyph d="M510 1112q-41 0 -25 35l123 258q10 25 35 25h129q41 0 25 -35l-123 -258q-10 -25 -35 -25h-129zM987 1004q31 0 31 -31v-942q0 -31 -31 -31h-145q-27 0 -31 31l-8 119q-123 -176 -309 -177q-174 0 -274.5 108.5t-100.5 307.5v584q0 31 31 31h153q31 0 31 -31v-553 q0 -125 58.5 -187.5t154.5 -62.5q113 0 184.5 77t71.5 142v584q0 31 31 31h153z" glyph-name="uacute" horiz-adv-x="1146" unicode="ú"/><glyph d="M299 1163q-20 0 -25.5 11.5t7.5 25.5l188 213q14 16 37 17h127q23 0 37 -17l186 -213q12 -14 8 -25.5t-24 -11.5h-99q-23 0 -36 17l-136 157l-135 -157q-14 -16 -37 -17h-98zM987 1004q31 0 31 -31v-942q0 -31 -31 -31h-145q-27 0 -31 31l-8 119q-123 -176 -309 -177 q-174 0 -274.5 108.5t-100.5 307.5v584q0 31 31 31h153q31 0 31 -31v-553q0 -125 58.5 -187.5t154.5 -62.5q113 0 184.5 77t71.5 142v584q0 31 31 31h153z" glyph-name="ucircumflex" horiz-adv-x="1146" unicode="û"/><glyph d="M364.5 1214q-47.5 0 -81 34t-33.5 83q0 45 33.5 79t81 34t81 -33t33.5 -80q0 -49 -33.5 -83t-81 -34zM776 1214q-47 0 -80.5 34t-33.5 83q0 47 33.5 80t80.5 33t81 -34t34 -79q0 -49 -34 -83t-81 -34zM987 1004q31 0 31 -31v-942q0 -31 -31 -31h-145q-27 0 -31 31l-8 119 q-123 -176 -309 -177q-174 0 -274.5 108.5t-100.5 307.5v584q0 31 31 31h153q31 0 31 -31v-553q0 -125 58.5 -187.5t154.5 -62.5q113 0 184.5 77t71.5 142v584q0 31 31 31h153z" glyph-name="udieresis" horiz-adv-x="1146" unicode="ü"/><glyph d="M776 1430q41 0 25 -35l-123 -258q-10 -25 -35 -25h-129q-41 0 -25 35l123 258q10 25 35 25h129zM1042 1004q37 0 25 -35l-528 -1334q-10 -25 -37 -24h-154q-37 0 -24 35l143 350l-385 973q-12 35 24 35h156q29 0 37 -25l274 -729l275 729q8 25 37 25h157z" glyph-name="yacute" horiz-adv-x="1148" unicode="ý"/><glyph d="M674 1024q211 0 350 -151.5t139 -372.5q0 -215 -139 -364.5t-350 -149.5h-6h-6q-186 0 -306 133v-477q0 -31 -30 -31h-154q-31 0 -31 31v364q-12 6 -12 25v1433q0 31 31 31h153q31 0 31 -31v-594q123 154 318 154h6h6zM350 502q0 -135 84 -226.5t213 -93.5 q127 4 212 94.5t85 225.5q0 139 -85 231t-212 96q-129 -2 -213 -97t-84 -230z" glyph-name="thorn" horiz-adv-x="1241" unicode="þ"/><glyph d="M369 1214q-47 0 -81 34t-34 83q0 45 34 79t81 34t80.5 -33t33.5 -80q0 -49 -33.5 -83t-80.5 -34zM780 1214q-47 0 -80.5 34t-33.5 83q0 47 33.5 80t80.5 33t81 -34t34 -79q0 -49 -34 -83t-81 -34zM1042 1004q37 0 25 -35l-528 -1334q-10 -25 -37 -24h-154q-37 0 -24 35 l143 350l-385 973q-12 35 24 35h156q29 0 37 -25l274 -729l275 729q8 25 37 25h157z" glyph-name="ydieresis" horiz-adv-x="1148" unicode="ÿ"/><glyph d="M410 1690q-31 0 -31 30v109q0 31 31 31h587q31 0 31 -31v-109q0 -31 -31 -30h-587zM1311 35q14 -35 -25 -35h-166q-27 0 -35 25l-96 278h-588l-96 -278q-8 -25 -35 -25h-166q-39 0 -24 35l500 1374q10 25 36 25h156q27 0 37 -25zM465 485h461l-232 664z" glyph-name="Amacron" horiz-adv-x="1388" unicode="Ā"/><glyph d="M317 1260q-31 0 -30 30v109q0 31 30 31h588q31 0 31 -31v-109q0 -31 -31 -30h-588zM1090 1004q31 0 30 -31v-942q0 -31 -30 -31h-134q-27 0 -30 31l-11 114q-123 -160 -327 -159q-211 0 -350.5 149.5t-139.5 364.5q0 221 139.5 372.5t350.5 151.5q207 0 330 -168l8 117 q4 31 30 31h134zM608 182q133 0 218 91.5t85 228.5t-86 232t-217 95t-217 -93t-86 -234q0 -137 86 -228.5t217 -91.5z" glyph-name="amacron" unicode="ā"/><glyph d="M704.5 1579q-126.5 0 -208.5 71.5t-93 180.5q-2 31 29 31h76q27 0 33 -29q12 -53 55 -87t108.5 -34t107.5 34t54 87q6 29 33 29h76q33 0 29 -31q-10 -109 -91.5 -180.5t-208 -71.5zM1311 35q14 -35 -25 -35h-166q-27 0 -35 25l-96 278h-588l-96 -278q-8 -25 -35 -25h-166 q-39 0 -24 35l500 1374q10 25 36 25h156q27 0 37 -25zM465 485h461l-232 664z" glyph-name="Abreve" horiz-adv-x="1388" unicode="Ă"/><glyph d="M612 1149q-127 0 -208.5 71.5t-92.5 180.5q-4 31 29 31h76q27 0 33 -29q12 -53 55 -87t108.5 -34t107.5 34t54 87q6 29 33 29h76q31 0 28 -31q-10 -109 -91 -180.5t-208 -71.5zM1090 1004q31 0 30 -31v-942q0 -31 -30 -31h-134q-27 0 -30 31l-11 114q-123 -160 -327 -159 q-211 0 -350.5 149.5t-139.5 364.5q0 221 139.5 372.5t350.5 151.5q207 0 330 -168l8 117q4 31 30 31h134zM608 182q133 0 218 91.5t85 228.5t-86 232t-217 95t-217 -93t-86 -234q0 -137 86 -228.5t217 -91.5z" glyph-name="abreve" unicode="ă"/><glyph d="M1311 35q14 -35 -25 -35h-2q-94 0 -151.5 -54.5t-57.5 -117.5q0 -55 40 -82t116 -10v-142q-41 -18 -97.5 -19t-110.5 17.5t-92 68.5t-38 124q0 166 186 260l-90 258h-588l-96 -278q-8 -25 -35 -25h-166q-39 0 -24 35l500 1374q10 25 36 25h156q27 0 37 -25zM465 485h461 l-232 664z" glyph-name="Aogonek" horiz-adv-x="1388" unicode="Ą"/><glyph d="M1090 1004q31 0 30 -31v-942q0 -31 -30 -31h-15q-96 0 -152.5 -53t-56.5 -119q0 -55 40 -82t116 -10v-142q-41 -18 -97.5 -19t-110.5 17.5t-92 68.5t-38 124q0 100 67.5 172t170.5 111l-7 77q-123 -160 -327 -159q-211 0 -350.5 149.5t-139.5 364.5q0 221 139.5 372.5 t350.5 151.5q207 0 330 -168l8 117q4 31 30 31h134zM608 182q133 0 218 91.5t85 228.5t-86 232t-217 95t-217 -93t-86 -234q0 -137 86 -228.5t217 -91.5z" glyph-name="aogonek" horiz-adv-x="1230" unicode="ą"/><glyph d="M1026 1860q41 0 25 -35l-123 -258q-10 -25 -35 -25h-129q-41 0 -25 35l123 258q10 25 35 25h129zM1229 324l102 -107q18 -23 -2 -43q-217 -201 -491 -201q-305 0 -517 215t-212 523q0 309 211.5 524t517.5 215q276 0 491 -201q23 -18 2 -43l-102 -106q-18 -20 -43 0 q-158 133 -350 133q-209 0 -354.5 -149.5t-145.5 -372.5q0 -219 145.5 -368.5t354.5 -149.5q197 0 350 133q25 21 43 -2z" glyph-name="Cacute" horiz-adv-x="1437" unicode="Ć"/><glyph d="M831 1491q41 0 25 -35l-123 -258q-10 -25 -35 -24h-129q-41 0 -24 34l123 258q10 25 34 25h129zM608 184q139 0 252 109q25 20 45 0l90 -86q20 -20 2 -43q-156 -178 -391 -178q-215 0 -361.5 150.5t-146.5 367.5q0 219 146.5 369.5t361.5 150.5q229 0 385 -178 q18 -23 -2 -43l-90 -86q-20 -20 -45 2q-41 37 -64.5 53t-73.5 35.5t-108 19.5q-133 0 -218 -93t-85 -230q0 -135 86 -227.5t217 -92.5z" glyph-name="cacute" horiz-adv-x="1169" unicode="ć"/><glyph d="M823 1645q-47 0 -80.5 33.5t-33.5 82.5q0 45 33.5 79t80.5 34t81 -33t34 -80q0 -49 -34 -82.5t-81 -33.5zM1229 324l102 -107q18 -23 -2 -43q-217 -201 -491 -201q-305 0 -517 215t-212 523q0 309 211.5 524t517.5 215q276 0 491 -201q23 -18 2 -43l-102 -106 q-18 -20 -43 0q-158 133 -350 133q-209 0 -354.5 -149.5t-145.5 -372.5q0 -219 145.5 -368.5t354.5 -149.5q197 0 350 133q25 21 43 -2z" glyph-name="Cdotaccent" horiz-adv-x="1437" unicode="Ċ"/><glyph d="M616.5 1214q-47.5 0 -81 34t-33.5 83q0 45 33.5 79t81 34t81 -33t33.5 -80q0 -49 -33.5 -83t-81 -34zM608 184q139 0 252 109q25 20 45 0l90 -86q20 -20 2 -43q-156 -178 -391 -178q-215 0 -361.5 150.5t-146.5 367.5q0 219 146.5 369.5t361.5 150.5q229 0 385 -178 q18 -23 -2 -43l-90 -86q-20 -20 -45 2q-41 37 -64.5 53t-73.5 35.5t-108 19.5q-133 0 -218 -93t-85 -230q0 -135 86 -227.5t217 -92.5z" glyph-name="cdotaccent" horiz-adv-x="1169" unicode="ċ"/><glyph d="M887 1593h-127q-23 0 -37 17l-188 213q-12 14 -7.5 25.5t25.5 11.5h98q23 0 37 -17l135 -157l135 157q14 16 37 17h99q20 0 24 -11.5t-8 -25.5l-186 -213q-14 -17 -37 -17zM1229 324l102 -107q18 -23 -2 -43q-217 -201 -491 -201q-305 0 -517 215t-212 523 q0 309 211.5 524t517.5 215q276 0 491 -201q23 -18 2 -43l-102 -106q-18 -20 -43 0q-158 133 -350 133q-209 0 -354.5 -149.5t-145.5 -372.5q0 -219 145.5 -368.5t354.5 -149.5q197 0 350 133q25 21 43 -2z" glyph-name="Ccaron" horiz-adv-x="1437" unicode="Č"/><glyph d="M633 1167h-127q-23 0 -37 17l-188 213q-12 14 -7 25.5t25 11.5h98q23 0 37 -17l135 -157l136 157q14 16 36 17h99q20 0 24 -11.5t-8 -25.5l-186 -213q-14 -17 -37 -17zM608 184q139 0 252 109q25 20 45 0l90 -86q20 -20 2 -43q-156 -178 -391 -178q-215 0 -361.5 150.5 t-146.5 367.5q0 219 146.5 369.5t361.5 150.5q229 0 385 -178q18 -23 -2 -43l-90 -86q-20 -20 -45 2q-41 37 -64.5 53t-73.5 35.5t-108 19.5q-133 0 -218 -93t-85 -230q0 -135 86 -227.5t217 -92.5z" glyph-name="ccaron" horiz-adv-x="1169" unicode="č"/><glyph d="M575 1610l-188 213q-12 14 -7 25.5t26 11.5h98q23 0 37 -17l135 -157l135 157q14 16 37 17h98q20 0 24.5 -11.5t-7.5 -25.5l-187 -213q-14 -16 -37 -17h-127q-23 1 -37 17zM545 1434q358 0 553.5 -201t195.5 -516q0 -313 -196.5 -515t-552.5 -202h-365q-31 0 -30 31v1372 q0 31 30 31h365zM545 201q258 0 391 135t133 381t-133 381t-391 135h-172v-1032h172z" glyph-name="Dcaron" horiz-adv-x="1392" unicode="Ď"/><glyph d="M1090 1495q31 0 30 -31v-1433q0 -31 -30 -31h-134q-27 0 -30 31l-11 114q-123 -160 -327 -159q-211 0 -350.5 149.5t-139.5 364.5q0 221 139.5 372.5t350.5 151.5q195 0 317 -154v594q0 31 31 31h154zM1485 1495q41 0 24 -35l-123 -258q-10 -25 -34 -24h-129 q-41 0 -25 34l123 258q10 25 35 25h129zM608 182q133 0 218 91.5t85 228.5t-86 232t-217 95t-217 -93t-86 -234q0 -137 86 -228.5t217 -91.5z" glyph-name="dcaron" horiz-adv-x="1511" unicode="ď"/><glyph d="M561 1434q358 0 554 -201t196 -516q0 -313 -196.5 -515t-553.5 -202h-364q-31 0 -31 31v596h-84q-31 0 -31 30v109q0 31 31 31h84v606q0 31 31 31h364zM561 201q258 0 391 135t133 381t-133 381t-391 135h-172v-436h281q31 0 30 -31v-109q0 -31 -30 -30h-281v-426h172z " glyph-name="Dcroat" horiz-adv-x="1409" unicode="Đ"/><glyph d="M1210 1313q31 0 31 -31v-108q0 -31 -31 -31h-90v-1112q0 -31 -30 -31h-134q-27 0 -30 31l-11 114q-123 -160 -327 -159q-211 0 -350.5 149.5t-139.5 364.5q0 221 139.5 372.5t350.5 151.5q195 0 317 -154v273h-282q-31 0 -31 31v108q0 31 31 31h282v151q0 31 31 31h154 q31 0 30 -31v-151h90zM608 182q133 0 218 91.5t85 228.5t-86 232t-217 95t-217 -93t-86 -234q0 -137 86 -228.5t217 -91.5z" glyph-name="dcroat" horiz-adv-x="1271" unicode="đ"/><glyph d="M842 1860q31 0 30 -31v-109q0 -31 -30 -30h-588q-31 0 -31 30v109q0 31 31 31h588zM911 201q31 0 31 -31v-139q0 -31 -31 -31h-731q-31 0 -30 31v1372q0 31 30 31h729q31 0 31 -31v-139q0 -31 -31 -31h-536v-383h504q31 0 30 -31v-139q0 -31 -30 -31h-504v-448h538z" glyph-name="Emacron" horiz-adv-x="1075" unicode="Ē"/><glyph d="M291 1260q-31 0 -31 30v109q0 31 31 31h588q31 0 30 -31v-109q0 -31 -30 -30h-588zM596 1024q211 0 343 -143.5t132 -343.5q0 -61 -13.5 -87t-51.5 -26h-695q20 -119 106.5 -188.5t219.5 -69.5q135 0 244 82q27 18 43 2l65 -64q23 -23 0 -47q-150 -154 -373 -153 q-227 0 -372.5 150.5t-145.5 369.5t141.5 368.5t356.5 149.5zM598 838q-115 0 -194.5 -73t-94.5 -192h572q-12 119 -90 192t-193 73z" glyph-name="emacron" horiz-adv-x="1167" unicode="ē"/><glyph d="M549 1645q-47 0 -81 33.5t-34 82.5q0 45 34 79t81 34t81 -33t34 -80q0 -49 -34 -82.5t-81 -33.5zM911 201q31 0 31 -31v-139q0 -31 -31 -31h-731q-31 0 -30 31v1372q0 31 30 31h729q31 0 31 -31v-139q0 -31 -31 -31h-536v-383h504q31 0 30 -31v-139q0 -31 -30 -31h-504 v-448h538z" glyph-name="Edotaccent" horiz-adv-x="1075" unicode="Ė"/><glyph d="M586 1214q-47 0 -81 34t-34 83q0 45 34 79t81 34t80.5 -33t33.5 -80q0 -49 -33.5 -83t-80.5 -34zM596 1024q211 0 343 -143.5t132 -343.5q0 -61 -13.5 -87t-51.5 -26h-695q20 -119 106.5 -188.5t219.5 -69.5q135 0 244 82q27 18 43 2l65 -64q23 -23 0 -47 q-150 -154 -373 -153q-227 0 -372.5 150.5t-145.5 369.5t141.5 368.5t356.5 149.5zM598 838q-115 0 -194.5 -73t-94.5 -192h572q-12 119 -90 192t-193 73z" glyph-name="edotaccent" horiz-adv-x="1167" unicode="ė"/><glyph d="M911 201q31 0 31 -31v-139q0 -31 -31 -31h-80q-51 -25 -79.5 -67t-28.5 -85q0 -55 40 -81.5t116 -10.5v-141q-41 -18 -97.5 -19.5t-111 17t-92 69t-37.5 123.5q0 113 92 195h-453q-31 0 -30 31v1372q0 31 30 31h729q31 0 31 -31v-139q0 -31 -31 -31h-536v-383h504 q31 0 30 -31v-139q0 -31 -30 -31h-504v-448h538z" glyph-name="Eogonek" horiz-adv-x="1075" unicode="Ę"/><glyph d="M596 1024q211 0 343 -143.5t132 -343.5q0 -61 -13.5 -87t-51.5 -26h-695q20 -119 106.5 -188.5t219.5 -69.5q135 0 244 82q27 18 43 2l65 -64q23 -23 0 -47q-90 -90 -215 -131v-8q-94 -25 -148.5 -75t-54.5 -109q0 -55 40 -81t116 -9v-142q-41 -18 -97.5 -19t-110.5 17.5 t-92 68.5t-38 124q0 129 131 219q-188 33 -305 175t-117 337q0 219 141.5 368.5t356.5 149.5zM598 838q-115 0 -194.5 -73t-94.5 -192h572q-12 119 -90 192t-193 73z" glyph-name="eogonek" horiz-adv-x="1146" unicode="ę"/><glyph d="M612 1593h-127q-23 0 -36 17l-189 213q-12 14 -7 25.5t26 11.5h98q23 0 37 -17l135 -157l135 157q14 16 37 17h98q20 0 24.5 -11.5t-7.5 -25.5l-187 -213q-14 -17 -37 -17zM911 201q31 0 31 -31v-139q0 -31 -31 -31h-731q-31 0 -30 31v1372q0 31 30 31h729q31 0 31 -31 v-139q0 -31 -31 -31h-536v-383h504q31 0 30 -31v-139q0 -31 -30 -31h-504v-448h538z" glyph-name="Ecaron" horiz-adv-x="1075" unicode="Ě"/><glyph d="M485 1180l-188 213q-12 14 -7 25.5t25 11.5h99q23 0 37 -17l135 -158l135 158q14 16 37 17h98q20 0 24.5 -11.5t-8.5 -25.5l-186 -213q-14 -16 -37 -17h-127q-23 1 -37 17zM596 1024q211 0 343 -143.5t132 -343.5q0 -61 -13.5 -87t-51.5 -26h-695q20 -119 106.5 -188.5 t219.5 -69.5q135 0 244 82q27 18 43 2l65 -64q23 -23 0 -47q-150 -154 -373 -153q-227 0 -372.5 150.5t-145.5 369.5t141.5 368.5t356.5 149.5zM598 838q-115 0 -194.5 -73t-94.5 -192h572q-12 119 -90 192t-193 73z" glyph-name="ecaron" horiz-adv-x="1167" unicode="ě"/><glyph d="M831.5 1579q-126.5 0 -208.5 71.5t-93 180.5q-2 31 29 31h76q27 0 33 -29q12 -53 55 -87t108.5 -34t107.5 34t54 87q6 29 33 29h76q33 0 28 -31q-10 -109 -91 -180.5t-207.5 -71.5zM1470 774q31 0 31 -31v-92q0 -291 -179 -484.5t-480 -193.5q-311 0 -522 216.5 t-211 527.5q0 305 211.5 519t517.5 214q276 0 491 -201q23 -18 2 -43l-102 -106q-18 -20 -43 0q-158 133 -350 133q-209 0 -354.5 -148.5t-145.5 -367.5q0 -225 144.5 -374.5t361.5 -149.5q195 0 317.5 109.5t128.5 279.5h-430q-31 0 -31 30v131q0 31 31 31h612z" glyph-name="Gbreve" horiz-adv-x="1599" unicode="Ğ"/><glyph d="M627 1149q-127 0 -209 71.5t-92 180.5q-2 31 28 31h76q27 0 33 -29q12 -53 55 -87t108.5 -34t107.5 34t54 87q6 29 33 29h76q33 0 29 -31q-10 -109 -91 -180.5t-208 -71.5zM1092 1004q31 0 30 -31v-957q0 -113 -48 -198.5t-126 -131.5t-165 -69t-179 -23q-240 0 -409 111 q-23 16 -9 43l50 88q14 27 40 12q143 -74 312 -73q131 0 231.5 60.5t100.5 189.5v135q-127 -166 -334 -166q-209 0 -348.5 150.5t-139.5 365.5t139.5 365.5t348.5 150.5q199 0 329 -162l7 109q4 31 30 31h140zM608 190q129 0 216 95.5t87 226.5q0 129 -87 223t-216 94 t-216 -91t-87 -226t87 -228.5t216 -93.5z" glyph-name="gbreve" unicode="ğ"/><glyph d="M831.5 1645q-47.5 0 -81 33.5t-33.5 82.5q0 45 33.5 79t81 34t81 -33t33.5 -80q0 -49 -33.5 -82.5t-81 -33.5zM1470 774q31 0 31 -31v-92q0 -291 -179 -484.5t-480 -193.5q-311 0 -522 216.5t-211 527.5q0 305 211.5 519t517.5 214q276 0 491 -201q23 -18 2 -43 l-102 -106q-18 -20 -43 0q-158 133 -350 133q-209 0 -354.5 -148.5t-145.5 -367.5q0 -225 144.5 -374.5t361.5 -149.5q195 0 317.5 109.5t128.5 279.5h-430q-31 0 -31 30v131q0 31 31 31h612z" glyph-name="Gdotaccent" horiz-adv-x="1599" unicode="Ġ"/><glyph d="M627 1214q-47 0 -81 34t-34 83q0 45 34 79t81 34t80.5 -33t33.5 -80q0 -49 -33.5 -83t-80.5 -34zM1092 1004q31 0 30 -31v-957q0 -113 -48 -198.5t-126 -131.5t-165 -69t-179 -23q-240 0 -409 111q-23 16 -9 43l50 88q14 27 40 12q143 -74 312 -73q131 0 231.5 60.5 t100.5 189.5v135q-127 -166 -334 -166q-209 0 -348.5 150.5t-139.5 365.5t139.5 365.5t348.5 150.5q199 0 329 -162l7 109q4 31 30 31h140zM608 190q129 0 216 95.5t87 226.5q0 129 -87 223t-216 94t-216 -91t-87 -226t87 -228.5t216 -93.5z" glyph-name="gdotaccent" unicode="ġ"/><glyph d="M1470 774q31 0 31 -31v-92q0 -291 -179 -484.5t-480 -193.5q-311 0 -522 216.5t-211 527.5q0 305 211.5 519t517.5 214q276 0 491 -201q23 -18 2 -43l-102 -106q-18 -20 -43 0q-158 133 -350 133q-209 0 -354.5 -148.5t-145.5 -367.5q0 -225 144.5 -374.5t361.5 -149.5 q195 0 317.5 109.5t128.5 279.5h-430q-31 0 -31 30v131q0 31 31 31h612zM811 -78q55 0 93 -42t38 -118q0 -86 -47 -192.5t-127 -196.5l-59 39q80 121 86 258q-49 6 -82 41t-33 84q0 53 39 90t92 37z" glyph-name="Gcommaaccent" horiz-adv-x="1599" unicode="Ģ"/><glyph d="M610 1130q-55 0 -93 42t-38 118q0 86 47 192.5t127 196.5l60 -39q-80 -121 -86 -258q49 -6 81.5 -40.5t32.5 -84.5q0 -53 -39 -90t-92 -37zM1092 1004q31 0 30 -31v-957q0 -113 -48 -198.5t-126 -131.5t-165 -69t-179 -23q-240 0 -409 111q-23 16 -9 43l50 88 q14 27 40 12q143 -74 312 -73q131 0 231.5 60.5t100.5 189.5v135q-127 -166 -334 -166q-209 0 -348.5 150.5t-139.5 365.5t139.5 365.5t348.5 150.5q199 0 329 -162l7 109q4 31 30 31h140zM608 190q129 0 216 95.5t87 226.5q0 129 -87 223t-216 94t-216 -91t-87 -226 t87 -228.5t216 -93.5z" glyph-name="gcommaaccent" horiz-adv-x="1228" unicode="ģ"/><glyph d="M1167 1434q31 0 31 -31v-1372q0 -31 -31 -31h-161q-31 0 -31 31v577h-602v-577q0 -31 -31 -31h-162q-31 0 -30 31v1372q0 31 30 31h162q31 0 31 -31v-244h602v244q0 31 31 31h161zM373 809h602v164h-602v-164z" glyph-name="Hbar" horiz-adv-x="1345" unicode="Ħ"/><glyph d="M688 1026q160 0 258 -107.5t98 -304.5v-583q0 -31 -30 -31h-154q-31 0 -31 31v553q0 123 -56 184t-150 61q-113 0 -188 -81.5t-75 -133.5v-583q0 -31 -30 -31h-154q-31 0 -31 31v1099h-84q-31 0 -30 31v109q0 31 30 30h84v164q0 31 31 31h154q31 0 30 -31v-164h289 q31 0 31 -30v-109q0 -31 -31 -31h-289v-292q123 188 328 188z" glyph-name="hbar" horiz-adv-x="1150" unicode="ħ"/><glyph d="M553 1860q31 0 31 -31v-109q0 -31 -31 -30h-588q-31 0 -31 30v109q0 31 31 31h588zM150 1403q0 31 30 31h162q31 0 31 -31v-1372q0 -31 -31 -31h-162q-31 0 -30 31v1372z" glyph-name="Imacron" horiz-adv-x="520" unicode="Ī"/><glyph d="M520 1430q31 0 31 -31v-109q0 -31 -31 -30h-588q-31 0 -30 30v109q0 31 30 31h588zM119 973q0 31 31 31h153q31 0 31 -31v-942q0 -31 -31 -31h-153q-31 0 -31 31v942z" glyph-name="imacron" horiz-adv-x="450" unicode="ī"/><glyph d="M227 1214q-47 0 -80.5 34t-33.5 83q0 45 33.5 79t80.5 34t81 -33t34 -80q0 -49 -34 -83t-81 -34zM303 1004q31 0 31 -31v-942q0 -31 -31 -31q-94 0 -151.5 -54.5t-57.5 -117.5q0 -55 40 -82t116 -10v-142q-41 -18 -97.5 -19t-110.5 17.5t-92 68.5t-38 124q0 174 207 270 v918q0 31 31 31h153z" glyph-name="iogonek" horiz-adv-x="450" unicode="į"/><glyph d="M260 1645q-47 0 -81 33.5t-34 82.5q0 45 34 79t81 34t81 -33t34 -80q0 -49 -34 -82.5t-81 -33.5zM150 1403q0 31 30 31h162q31 0 31 -31v-1372q0 -31 -31 -31h-162q-31 0 -30 31v1372z" glyph-name="Idotaccent" horiz-adv-x="520" unicode="İ"/><glyph d="M119 973q0 31 31 31h153q31 0 31 -31v-942q0 -31 -31 -31h-153q-31 0 -31 31v942z" glyph-name="dotlessi" horiz-adv-x="450" unicode="ı"/><glyph d="M150 1403q0 31 30 31h162q31 0 31 -31v-1372q0 -31 -31 -31h-162q-31 0 -30 31v1372zM707 274q16 23 45 2q104 -82 221 -81q119 0 185.5 85t66.5 257v866q0 31 30 31h162q31 0 31 -31v-875q0 -279 -125 -412.5t-346 -133.5q-233 0 -354 139q-18 23 0 43z" glyph-name="IJ" horiz-adv-x="1595" unicode="Ĳ"/><glyph d="M254 1219q-53 0 -89 35.5t-36 89t36 89t89 35.5q51 0 87 -35.5t36 -89t-36 -89t-87 -35.5zM819 1219q-53 0 -89 35.5t-36 89t36 89t89 35.5t89 -35.5t36 -89t-36 -89t-89 -35.5zM145 973q0 31 31 31h154q31 0 30 -31v-942q0 -31 -30 -31h-154q-31 0 -31 31v942zM743 1004 h154q31 0 31 -31v-957q0 -205 -98.5 -310t-272.5 -112q-20 0 -25 17l-47 158q-8 23 17 22q211 16 211 256v926q-1 31 30 31z" glyph-name="ij" horiz-adv-x="1071" unicode="ĳ"/><glyph d="M1221 37q10 -16 5 -26.5t-24 -10.5h-194q-25 0 -37 18l-473 641l-125 -141v-487q0 -31 -31 -31h-162q-31 0 -30 31v1372q0 31 30 31h162q31 0 31 -31v-588l522 602q14 16 37 17h205q20 0 25 -11.5t-9 -25.5l-508 -572zM653 -78q55 0 93 -42t38 -118q0 -86 -47 -192.5 t-127 -196.5l-59 39q80 121 86 258q-49 6 -82 41t-33 84q0 53 39 90t92 37z" glyph-name="Kcommaaccent" horiz-adv-x="1284" unicode="Ķ"/><glyph d="M1057 37q12 -16 6 -26.5t-25 -10.5h-166q-25 0 -36 18l-332 428l-160 -170v-245q0 -31 -31 -31h-153q-31 0 -31 31v1433q0 31 31 31h153q31 0 31 -31v-929l426 452q14 16 39 17h174q20 0 25.5 -10.5t-9.5 -26.5l-362 -383zM584 -78q55 0 93 -42t38 -118q0 -86 -47 -192.5 t-127 -196.5l-60 39q80 121 86 258q-49 6 -81.5 41t-32.5 84q0 53 39 90t92 37z" glyph-name="kcommaaccent" horiz-adv-x="1126" unicode="ķ"/><glyph d="M229 1538q-41 0 -24 35l123 258q10 25 34 24h130q41 0 24 -34l-123 -258q-10 -25 -35 -25h-129zM870 201q31 0 31 -31v-139q0 -31 -31 -31h-690q-31 0 -30 31v1372q0 31 30 31h162q31 0 31 -31v-1202h497z" glyph-name="Lacute" horiz-adv-x="989" unicode="Ĺ"/><glyph d="M440 1921q41 0 25 -35l-123 -258q-10 -25 -35 -24h-129q-41 0 -24 34l122 258q10 25 35 25h129zM129 1464q0 31 31 31h153q31 0 31 -31v-1433q0 -31 -31 -31h-153q-31 0 -31 31v1433z" glyph-name="lacute" horiz-adv-x="471" unicode="ĺ"/><glyph d="M870 201q31 0 31 -31v-139q0 -31 -31 -31h-690q-31 0 -30 31v1372q0 31 30 31h162q31 0 31 -31v-1202h497zM506 -78q55 0 93 -42t38 -118q0 -86 -47 -192.5t-127 -196.5l-60 39q80 121 86 258q-49 6 -81.5 41t-32.5 84q0 53 39 90t92 37z" glyph-name="Lcommaaccent" horiz-adv-x="1009" unicode="Ļ"/><glyph d="M160 0q-31 0 -31 31v1433q0 31 31 31h153q31 0 31 -31v-1433q0 -31 -31 -31h-153zM244 -78q55 0 93 -42t38 -118q0 -86 -47 -192.5t-127 -196.5l-60 39q80 121 86 258q-49 6 -81.5 41t-32.5 84q0 53 39 90t92 37z" glyph-name="lcommaaccent" horiz-adv-x="471" unicode="ļ"/><glyph d="M657 1245q-49 6 -81.5 41t-32.5 84q0 53 39 90t92 37q55 0 93 -42t38 -118q0 -86 -47 -192.5t-127 -196.5l-60 39q80 121 86 258zM870 201q31 0 31 -31v-139q0 -31 -31 -31h-690q-31 0 -30 31v1372q0 31 30 31h162q31 0 31 -31v-1202h497z" glyph-name="Lcaron" horiz-adv-x="989" unicode="Ľ"/><glyph d="M580 1532q55 0 93 -42t38 -118q0 -86 -47.5 -192.5t-126.5 -196.5l-60 39q80 121 86 258q-49 6 -81.5 41t-32.5 84q0 53 39 90t92 37zM313 1495q31 0 31 -31v-1433q0 -31 -31 -31h-153q-31 0 -31 31v1433q0 31 31 31h153z" glyph-name="lcaron" horiz-adv-x="751" unicode="ľ"/><glyph d="M870 201q31 0 31 -31v-139q0 -31 -31 -31h-690q-31 0 -30 31v1372q0 31 30 31h162q31 0 31 -31v-1202h497zM727 631q-51 0 -88 37t-37 88t37 88t88 37t88 -37t37 -88t-37 -88t-88 -37z" glyph-name="Ldot" horiz-adv-x="1007" unicode="Ŀ"/><glyph d="M129 1464q0 31 31 31h153q31 0 31 -31v-1433q0 -31 -31 -31h-153q-31 0 -31 31v1433zM549 627q-53 0 -89 36.5t-36 88t36 88.5t89 37t89 -37t36 -88.5t-36 -88t-89 -36.5z" glyph-name="ldot" horiz-adv-x="749" unicode="ŀ"/><glyph d="M909 201q31 0 31 -31v-139q0 -31 -31 -31h-690q-31 0 -31 31v432l-90 -88q-16 -14 -26.5 -9t-10.5 25v141q0 23 17 39l110 109v723q0 31 31 31h162q31 0 31 -31v-506l198 193q16 14 26.5 9t10.5 -26v-139q0 -23 -16 -39l-219 -215v-479h497z" glyph-name="Lslash" horiz-adv-x="1026" unicode="Ł"/><glyph d="M627 1096v-185l-172 -182v-698q0 -31 -31 -31h-154q-31 0 -30 31v473l-148 -156v187l148 155v774q0 31 30 31h154q31 0 31 -31v-546l170 178h2z" glyph-name="lslash" horiz-adv-x="718" unicode="ł"/><glyph d="M643 1542q-41 0 -25 35l123 258q10 25 35 25h129q41 0 25 -35l-123 -258q-10 -25 -35 -25h-129zM1225 1434q31 0 30 -31v-1372q0 -31 -28 -31h-197q-25 0 -37 20l-620 1074v-1063q0 -31 -31 -31h-162q-31 0 -30 31v1372q0 27 26 31h199q25 0 37 -21l620 -1075v1065 q0 31 31 31h162z" glyph-name="Nacute" horiz-adv-x="1402" unicode="Ń"/><glyph d="M520 1112q-41 0 -24 35l122 258q10 25 35 25h129q41 0 25 -35l-123 -258q-10 -25 -35 -25h-129zM672 1026q160 0 258 -107.5t98 -304.5v-583q0 -31 -31 -31h-153q-31 0 -31 31v553q0 123 -56.5 184t-150.5 61q-113 0 -187.5 -81.5t-74.5 -133.5v-583q0 -31 -31 -31h-153 q-31 0 -31 31v942q0 31 31 31h145q27 0 31 -31l8 -135q123 188 328 188z" glyph-name="nacute" horiz-adv-x="1157" unicode="ń"/><glyph d="M1225 1434q31 0 30 -31v-1372q0 -31 -28 -31h-197q-25 0 -37 20l-620 1074v-1063q0 -31 -31 -31h-162q-31 0 -30 31v1372q0 27 26 31h199q25 0 37 -21l620 -1075v1065q0 31 31 31h162zM709 -78q55 0 93 -42t38 -118q0 -86 -47.5 -192.5t-126.5 -196.5l-60 39 q80 121 86 258q-49 6 -81.5 41t-32.5 84q0 53 39 90t92 37z" glyph-name="Ncommaaccent" horiz-adv-x="1402" unicode="Ņ"/><glyph d="M672 1026q160 0 258 -107.5t98 -304.5v-583q0 -31 -31 -31h-153q-31 0 -31 31v553q0 123 -56.5 184t-150.5 61q-113 0 -187.5 -81.5t-74.5 -133.5v-583q0 -31 -31 -31h-153q-31 0 -31 31v942q0 31 31 31h145q27 0 31 -31l8 -135q123 188 328 188zM586 -78q55 0 93 -42 t38 -118q0 -86 -47 -192.5t-127 -196.5l-60 39q80 121 86 258q-49 6 -81.5 41t-32.5 84q0 53 39 90t92 37z" glyph-name="ncommaaccent" horiz-adv-x="1157" unicode="ņ"/><glyph d="M602 1610l-188 213q-12 14 -7 25.5t25 11.5h98q23 0 37 -17l135 -157l136 157q14 16 36 17h99q20 0 24 -11.5t-8 -25.5l-186 -213q-14 -16 -37 -17h-127q-23 1 -37 17zM1225 1434q31 0 30 -31v-1372q0 -31 -28 -31h-197q-25 0 -37 20l-620 1074v-1063q0 -31 -31 -31h-162 q-31 0 -30 31v1372q0 27 26 31h199q25 0 37 -21l620 -1075v1065q0 31 31 31h162z" glyph-name="Ncaron" horiz-adv-x="1402" unicode="Ň"/><glyph d="M479 1180l-188 213q-12 14 -7 25.5t25 11.5h99q23 0 36 -17l136 -158l135 158q14 16 37 17h98q20 0 24.5 -11.5t-8.5 -25.5l-186 -213q-14 -16 -37 -17h-127q-23 1 -37 17zM672 1026q160 0 258 -107.5t98 -304.5v-583q0 -31 -31 -31h-153q-31 0 -31 31v553 q0 123 -56.5 184t-150.5 61q-113 0 -187.5 -81.5t-74.5 -133.5v-583q0 -31 -31 -31h-153q-31 0 -31 31v942q0 31 31 31h145q27 0 31 -31l8 -135q123 188 328 188z" glyph-name="ncaron" horiz-adv-x="1157" unicode="ň"/><glyph d="M1225 1434q31 0 30 -31v-1372q0 -12 -6 -19q-25 -221 -145.5 -328.5t-319.5 -107.5q-233 0 -354 139q-18 23 0 43l84 111q16 23 45 2q104 -82 221 -82q195 0 240 211q-16 2 -27 20l-620 1074v-1063q0 -31 -31 -31h-162q-31 0 -30 31v1372q0 27 26 31h199q25 0 37 -21 l620 -1075v1065q0 31 31 31h162z" glyph-name="Eng" horiz-adv-x="1382" unicode="Ŋ"/><glyph d="M672 1026q160 0 258 -107.5t98 -304.5v-583q0 -14 -10 -25q-2 -203 -101.5 -307.5t-269.5 -104.5q-18 0 -24 17l-48 158q-8 23 17 22q96 0 153.5 64.5t57.5 191.5v141h10v396q0 123 -56.5 184t-150.5 61q-113 0 -187.5 -81.5t-74.5 -133.5v-583q0 -31 -31 -31h-153 q-31 0 -31 31v942q0 31 31 31h145q27 0 31 -31l8 -135q123 188 328 188z" glyph-name="eng" horiz-adv-x="1136" unicode="ŋ"/><glyph d="M1137 1860q31 0 30 -31v-109q0 -31 -30 -30h-588q-31 0 -31 30v109q0 31 31 31h588zM844 -27q-305 0 -520 215t-215 522.5t215 523.5t520 216q303 0 518 -216t215 -523.5t-215 -522.5t-518 -215zM844 193q215 0 361.5 149.5t146.5 368.5q0 221 -146.5 371.5t-361.5 150.5 q-217 0 -363.5 -150.5t-146.5 -371.5q0 -219 146.5 -368.5t363.5 -149.5z" glyph-name="Omacron" horiz-adv-x="1685" unicode="Ō"/><glyph d="M905 1430q31 0 31 -31v-109q0 -31 -31 -30h-588q-31 0 -30 30v109q0 31 30 31h588zM612 -20q-217 0 -365.5 151.5t-148.5 370.5q0 221 148.5 372.5t365.5 151.5q215 0 364.5 -151.5t149.5 -372.5q0 -219 -149.5 -370.5t-364.5 -151.5zM612 178q129 0 218.5 92t89.5 232 q0 141 -88.5 234t-219.5 93t-219 -93t-88 -234q0 -139 89 -231.5t218 -92.5z" glyph-name="omacron" horiz-adv-x="1222" unicode="ō"/><glyph d="M874 1860q41 0 25 -35l-123 -258q-10 -25 -35 -25h-129q-41 0 -24 35l123 258q10 25 34 25h129zM1212 1860q41 0 25 -35l-123 -258q-10 -25 -35 -25h-129q-41 0 -24 35l123 258q10 25 34 25h129zM844 -27q-305 0 -520 215t-215 522.5t215 523.5t520 216q303 0 518 -216 t215 -523.5t-215 -522.5t-518 -215zM844 193q215 0 361.5 149.5t146.5 368.5q0 221 -146.5 371.5t-361.5 150.5q-217 0 -363.5 -150.5t-146.5 -371.5q0 -219 146.5 -368.5t363.5 -149.5z" glyph-name="Ohungarumlaut" horiz-adv-x="1685" unicode="Ő"/><glyph d="M643 1430q41 0 25 -35l-123 -258q-10 -25 -35 -25h-129q-41 0 -25 35l123 258q10 25 35 25h129zM981 1430q41 0 25 -35l-123 -258q-10 -25 -35 -25h-129q-41 0 -25 35l123 258q10 25 35 25h129zM612 -20q-217 0 -365.5 151.5t-148.5 370.5q0 221 148.5 372.5t365.5 151.5 q215 0 364.5 -151.5t149.5 -372.5q0 -219 -149.5 -370.5t-364.5 -151.5zM612 178q129 0 218.5 92t89.5 232q0 141 -88.5 234t-219.5 93t-219 -93t-88 -234q0 -139 89 -231.5t218 -92.5z" glyph-name="ohungarumlaut" horiz-adv-x="1222" unicode="ő"/><glyph d="M2120 201q31 0 30 -31v-139q0 -31 -30 -31h-731q-31 0 -31 31v153q-215 -211 -514 -211q-305 0 -520 215t-215 522.5t215 523.5t520 216q299 0 514 -211v164q0 31 31 31h729q31 0 30 -31v-139q0 -31 -30 -31h-537v-383h504q31 0 31 -31v-139q0 -31 -31 -31h-504v-448h539 zM844 193q215 0 361.5 149.5t146.5 368.5q0 221 -146.5 371.5t-361.5 150.5q-217 0 -363.5 -150.5t-146.5 -371.5q0 -219 146.5 -368.5t363.5 -149.5z" glyph-name="OE" horiz-adv-x="2263" unicode="Œ"/><glyph d="M1417 1024q211 0 343 -143.5t132 -343.5q0 -61 -13 -87t-52 -26h-694q20 -119 106 -188.5t219 -69.5q135 0 244 82q27 18 43 2l65 -64q25 -23 0 -47q-150 -154 -372 -153q-264 0 -416 198q-70 -94 -177.5 -149t-232.5 -55q-217 0 -365.5 151.5t-148.5 370.5 q0 221 148.5 372.5t365.5 151.5q254 0 408 -201q145 199 397 199zM1419.5 838q-114.5 0 -194.5 -73t-95 -192h572q-12 119 -90 192t-192.5 73zM612 178q129 0 218.5 92t89.5 232q0 141 -88.5 234t-219.5 93t-219 -93t-88 -234q0 -139 89 -231.5t218 -92.5z" glyph-name="oe" horiz-adv-x="1968" unicode="œ"/><glyph d="M518 1542q-41 0 -24 35l122 258q10 25 35 25h129q41 0 25 -35l-123 -258q-10 -25 -35 -25h-129zM1102 37q23 -37 -21 -37h-174q-25 0 -37 20l-327 500h-170v-489q0 -31 -31 -31h-162q-31 0 -30 31v1372q0 31 30 31h406q238 0 368.5 -126t130.5 -331q0 -160 -83.5 -275.5 t-237.5 -158.5zM373 1233v-512h205q129 0 210.5 61.5t81.5 194.5t-81.5 194.5t-210.5 61.5h-205z" glyph-name="Racute" horiz-adv-x="1214" unicode="Ŕ"/><glyph d="M309 1112q-41 0 -24 35l123 258q10 25 34 25h129q41 0 25 -35l-123 -258q-10 -25 -35 -25h-129zM721 987q18 -16 8 -39l-47 -112q-10 -25 -41 -19q-41 12 -82 12q-94 0 -154.5 -62t-60.5 -157v-579q0 -31 -31 -31h-153q-31 0 -31 31v942q0 31 31 31h143q27 0 31 -31 l8 -99q92 152 252 152q78 0 127 -39z" glyph-name="racute" horiz-adv-x="768" unicode="ŕ"/><glyph d="M1102 37q23 -37 -21 -37h-174q-25 0 -37 20l-327 500h-170v-489q0 -31 -31 -31h-162q-31 0 -30 31v1372q0 31 30 31h406q238 0 368.5 -126t130.5 -331q0 -160 -83.5 -275.5t-237.5 -158.5zM373 1233v-512h205q129 0 210.5 61.5t81.5 194.5t-81.5 194.5t-210.5 61.5h-205z M584 -78q55 0 93 -42t38 -118q0 -86 -47 -192.5t-127 -196.5l-60 39q80 121 86 258q-49 6 -81.5 41t-32.5 84q0 53 39 90t92 37z" glyph-name="Rcommaaccent" horiz-adv-x="1214" unicode="Ŗ"/><glyph d="M721 987q18 -16 8 -39l-47 -112q-10 -25 -41 -19q-41 12 -82 12q-94 0 -154.5 -62t-60.5 -157v-579q0 -31 -31 -31h-153q-31 0 -31 31v942q0 31 31 31h143q27 0 31 -31l8 -99q92 152 252 152q78 0 127 -39zM242 -78q55 0 93 -42t38 -118q0 -86 -47 -192.5t-127 -196.5 l-60 39q80 121 86 258q-49 6 -81.5 41t-32.5 84q0 53 39 90t92 37z" glyph-name="rcommaaccent" horiz-adv-x="768" unicode="ŗ"/><glyph d="M477 1610l-188 213q-12 14 -7 25.5t25 11.5h99q23 0 36 -17l136 -157l135 157q14 16 37 17h98q20 0 24.5 -11.5t-8.5 -25.5l-186 -213q-14 -16 -37 -17h-127q-23 1 -37 17zM1102 37q23 -37 -21 -37h-174q-25 0 -37 20l-327 500h-170v-489q0 -31 -31 -31h-162 q-31 0 -30 31v1372q0 31 30 31h406q238 0 368.5 -126t130.5 -331q0 -160 -83.5 -275.5t-237.5 -158.5zM373 1233v-512h205q129 0 210.5 61.5t81.5 194.5t-81.5 194.5t-210.5 61.5h-205z" glyph-name="Rcaron" horiz-adv-x="1214" unicode="Ř"/><glyph d="M305 1163q-23 0 -37 17l-188 213q-12 14 -7 25.5t25 11.5h99q23 0 36 -17l136 -158l135 158q14 16 37 17h98q20 0 24.5 -11.5t-8.5 -25.5l-186 -213q-14 -16 -37 -17h-127zM721 987q18 -16 8 -39l-47 -112q-10 -25 -41 -19q-41 12 -82 12q-94 0 -154.5 -62t-60.5 -157 v-579q0 -31 -31 -31h-153q-31 0 -31 31v942q0 31 31 31h143q27 0 31 -31l8 -99q92 152 252 152q78 0 127 -39z" glyph-name="rcaron" horiz-adv-x="768" unicode="ř"/><glyph d="M762 1860q41 0 24 -35l-122 -258q-10 -25 -35 -25h-129q-41 0 -25 35l123 258q10 25 35 25h129zM352 1063q0 -80 73 -134.5t176.5 -91t205.5 -82.5t175 -139.5t73 -228.5q0 -180 -143.5 -296t-340.5 -116q-150 0 -275.5 62.5t-191.5 159.5q-16 20 5 41l92 98q23 18 45 -2 q160 -150 327 -150q115 0 189 59.5t74 149.5q0 70 -52.5 121t-129 82t-168 71t-168 84t-129 125.5t-52.5 190.5q0 170 126 276.5t306 106.5q246 0 422 -190q16 -20 0 -43l-84 -99q-23 -23 -43 -4q-147 129 -291 129q-98 0 -159.5 -49t-61.5 -131z" glyph-name="Sacute" horiz-adv-x="1150" unicode="Ś"/><glyph d="M668 1430q41 0 24 -35l-123 -258q-10 -25 -34 -25h-129q-41 0 -25 35l123 258q10 25 35 25h129zM322 737q0 -53 53 -87t130 -57.5t152.5 -54t129 -97t53.5 -167.5q0 -131 -112 -212.5t-253 -81.5q-119 0 -219 49t-160 118q-16 20 0 41l64 84q14 23 43 0 q143 -109 266 -108q72 0 117 28.5t45 86.5q0 53 -53.5 88.5t-129 60.5t-151.5 56.5t-129 95t-53 155.5q0 129 98 210t238 81q92 0 182 -40t151 -112q16 -18 -2 -43l-57 -75q-14 -18 -45 2q-117 92 -217 92q-57 0 -99 -29t-42 -84z" glyph-name="sacute" horiz-adv-x="927" unicode="ś"/><glyph d="M1055 387q0 -168 -125 -280.5t-305 -129.5l-54 -51q72 -6 123 -50t51 -114q0 -123 -100 -172t-235 -28q-18 4 -19 22v76q0 20 23 21q176 -18 176 69q0 39 -50.5 55.5t-123.5 -8.5q-25 -10 -25 15v77q0 10 10 25l70 70q-119 18 -216 75.5t-151 137.5q-16 20 5 41l92 98 q23 18 45 -2q160 -150 327 -150q115 0 189 59.5t74 149.5q0 70 -52.5 121t-129 82t-168 71t-168 84t-129 125.5t-52.5 190.5q0 170 126 276.5t306 106.5q246 0 422 -190q16 -20 0 -43l-84 -99q-23 -23 -43 -4q-147 129 -291 129q-98 0 -159.5 -49t-61.5 -131 q0 -80 73 -134.5t176.5 -91t205.5 -82.5t175 -139.5t73 -228.5z" glyph-name="Scedilla" horiz-adv-x="1150" unicode="Ş"/><glyph d="M840 274q0 -117 -89 -194.5t-214 -95.5l-60 -58q72 -6 123 -50t51 -114q0 -123 -100 -172t-236 -28q-18 4 -18 22v76q0 20 22 21q176 -18 177 69q0 39 -50.5 55.5t-123.5 -8.5q-25 -10 -25 15v77q0 10 10 25l74 74q-178 35 -285 159q-16 20 0 41l64 84q14 23 43 0 q143 -109 266 -108q72 0 117 28.5t45 86.5q0 53 -53.5 88.5t-129 60.5t-151.5 56.5t-129 95t-53 155.5q0 129 98 210t238 81q92 0 182 -40t151 -112q16 -18 -2 -43l-57 -75q-14 -18 -45 2q-117 92 -217 92q-57 0 -99 -28.5t-42 -84.5q0 -53 53 -87t130 -57.5t152.5 -54 t129 -97.5t53.5 -167z" glyph-name="scedilla" horiz-adv-x="927" unicode="ş"/><glyph d="M623 1593h-127q-23 0 -37 17l-189 213q-12 14 -7 25.5t26 11.5h98q23 0 37 -17l135 -157l135 157q14 16 37 17h98q20 0 24.5 -11.5t-7.5 -25.5l-187 -213q-13 -17 -36 -17zM352 1063q0 -80 73 -134.5t176.5 -91t205.5 -82.5t175 -139.5t73 -228.5q0 -180 -143.5 -296 t-340.5 -116q-150 0 -275.5 62.5t-191.5 159.5q-16 20 5 41l92 98q23 18 45 -2q160 -150 327 -150q115 0 189 59.5t74 149.5q0 70 -52.5 121t-129 82t-168 71t-168 84t-129 125.5t-52.5 190.5q0 170 126 276.5t306 106.5q246 0 422 -190q16 -20 0 -43l-84 -99 q-23 -23 -43 -4q-147 129 -291 129q-98 0 -159.5 -49t-61.5 -131z" glyph-name="Scaron" horiz-adv-x="1150" unicode="Š"/><glyph d="M528 1163h-127q-23 0 -36 17l-189 213q-12 14 -7 25.5t26 11.5h98q23 0 37 -17l135 -158l135 158q14 16 37 17h98q20 0 24.5 -11.5t-7.5 -25.5l-187 -213q-14 -17 -37 -17zM322 737q0 -53 53 -87t130 -57.5t152.5 -54t129 -97t53.5 -167.5q0 -131 -112 -212.5t-253 -81.5 q-119 0 -219 49t-160 118q-16 20 0 41l64 84q14 23 43 0q143 -109 266 -108q72 0 117 28.5t45 86.5q0 53 -53.5 88.5t-129 60.5t-151.5 56.5t-129 95t-53 155.5q0 129 98 210t238 81q92 0 182 -40t151 -112q16 -18 -2 -43l-57 -75q-14 -18 -45 2q-117 92 -217 92 q-57 0 -99 -29t-42 -84z" glyph-name="scaron" horiz-adv-x="927" unicode="š"/><glyph d="M997 1434q31 0 31 -31v-139q0 -31 -31 -31h-317v-1202q0 -31 -31 -31h6l-75 -74q72 -6 123 -50t51 -114q0 -123 -100.5 -172t-235.5 -28q-18 4 -19 22v76q0 20 23 21q176 -18 176 69q0 39 -50 55.5t-124 -8.5q-25 -10 -25 15v77q0 10 11 25l86 86h-9q-31 0 -30 31v1202 h-318q-31 0 -30 31v139q0 31 30 31h858z" glyph-name="Tcommaaccent" horiz-adv-x="1134" unicode="Ţ"/><glyph d="M651 1004q31 0 31 -31v-117q0 -31 -31 -31h-164v-794q0 -31 -30 -31h-8l-62 -59q72 -6 123 -50.5t51 -113.5q0 -123 -100.5 -172t-235.5 -29q-18 2 -18 23v75q0 20 22 21q176 -18 177 69q0 39 -50.5 55.5t-124.5 -7.5q-25 -10 -24 14v78q0 10 10 24l74 74q-18 6 -19 29 v794h-163q-31 0 -31 31v117q0 31 31 31h163v276q0 31 31 31h154q31 0 30 -31v-276h164z" glyph-name="tcommaaccent" horiz-adv-x="757" unicode="ţ"/><glyph d="M631 1593h-127q-23 0 -37 17l-188 213q-12 14 -7.5 25.5t25.5 11.5h98q23 0 37 -17l135 -157l135 157q14 16 37 17h99q20 0 24 -11.5t-8 -25.5l-186 -213q-14 -17 -37 -17zM997 1434q31 0 31 -31v-139q0 -31 -31 -31h-317v-1202q0 -31 -31 -31h-162q-31 0 -30 31v1202 h-318q-31 0 -30 31v139q0 31 30 31h858z" glyph-name="Tcaron" horiz-adv-x="1134" unicode="Ť"/><glyph d="M827 1434q41 0 25 -35l-123 -258q-10 -25 -35 -25h-129q-41 0 -24 35l123 258q10 25 34 25h129zM651 1004q31 0 31 -31v-117q0 -31 -31 -31h-164v-794q0 -31 -30 -31h-154q-31 0 -31 31v794h-163q-31 0 -31 31v117q0 31 31 31h163v276q0 31 31 31h154q31 0 30 -31v-276 h164z" glyph-name="tcaron" horiz-adv-x="886" unicode="ť"/><glyph d="M997 1434q31 0 31 -31v-139q0 -31 -31 -31h-317v-229h172q31 0 31 -31v-109q0 -31 -31 -30h-172v-803q0 -31 -31 -31h-162q-31 0 -30 31v803h-193q-31 0 -31 30v109q0 31 31 31h193v229h-318q-31 0 -30 31v139q0 31 30 31h858z" glyph-name="Tbar" horiz-adv-x="1114" unicode="Ŧ"/><glyph d="M651 1004q31 0 31 -31v-117q0 -31 -31 -31h-164v-120h123q31 0 31 -31v-117q0 -31 -31 -31h-123v-495q0 -31 -30 -31h-154q-31 0 -31 31v495h-163q-31 0 -31 31v117q0 31 31 31h163v120h-163q-31 0 -31 31v117q0 31 31 31h163v276q0 31 31 31h154q31 0 30 -31v-276h164z " glyph-name="tbar" horiz-adv-x="716" unicode="ŧ"/><glyph d="M961 1860q31 0 30 -31v-109q0 -31 -30 -30h-588q-31 0 -31 30v109q0 31 31 31h588zM1167 1434q31 0 31 -31v-846q0 -279 -146.5 -431.5t-383.5 -152.5q-236 0 -382.5 153t-146.5 431v846q0 31 31 31h162q31 0 30 -31v-846q0 -180 82 -274.5t224 -94.5q143 0 225 94.5 t82 274.5v846q0 31 31 31h161z" glyph-name="Umacron" horiz-adv-x="1335" unicode="Ū"/><glyph d="M274 1260q-31 0 -30 30v109q0 31 30 31h588q31 0 31 -31v-109q0 -31 -31 -30h-588zM987 1004q31 0 31 -31v-942q0 -31 -31 -31h-145q-27 0 -31 31l-8 119q-123 -176 -309 -177q-174 0 -274.5 108.5t-100.5 307.5v584q0 31 31 31h153q31 0 31 -31v-553q0 -125 58.5 -187.5 t154.5 -62.5q113 0 184.5 77t71.5 142v584q0 31 31 31h153z" glyph-name="umacron" horiz-adv-x="1146" unicode="ū"/><glyph d="M829 1833q6 29 33 29h76q33 0 29 -31q-10 -109 -91 -180.5t-208 -71.5t-209 71.5t-92 180.5q-2 31 28 31h76q27 0 33 -29q12 -53 55 -87t108.5 -34t107.5 34t54 87zM1167 1434q31 0 31 -31v-846q0 -279 -146.5 -431.5t-383.5 -152.5q-236 0 -382.5 153t-146.5 431v846 q0 31 31 31h162q31 0 30 -31v-846q0 -180 82 -274.5t224 -94.5q143 0 225 94.5t82 274.5v846q0 31 31 31h161z" glyph-name="Ubreve" horiz-adv-x="1335" unicode="Ŭ"/><glyph d="M569 1149q-127 0 -208.5 71.5t-92.5 180.5q-2 31 29 31h76q27 0 33 -29q12 -53 55 -87t108.5 -34t107.5 34t54 87q6 29 33 29h76q33 0 28 -31q-10 -109 -91 -180.5t-208 -71.5zM987 1004q31 0 31 -31v-942q0 -31 -31 -31h-145q-27 0 -31 31l-8 119q-123 -176 -309 -177 q-174 0 -274.5 108.5t-100.5 307.5v584q0 31 31 31h153q31 0 31 -31v-553q0 -125 58.5 -187.5t154.5 -62.5q113 0 184.5 77t71.5 142v584q0 31 31 31h153z" glyph-name="ubreve" horiz-adv-x="1146" unicode="ŭ"/><glyph d="M670 1925q76 0 130 -54t54 -130t-54.5 -130.5t-129.5 -54.5q-80 0 -134.5 54.5t-54.5 130.5t54.5 130t134.5 54zM669.5 1690q22.5 0 37 15t14.5 36q0 23 -15.5 38t-35.5 15q-23 0 -38.5 -15.5t-15.5 -38t15.5 -36.5t38 -14zM1167 1434q31 0 31 -31v-846 q0 -279 -146.5 -431.5t-383.5 -152.5q-236 0 -382.5 153t-146.5 431v846q0 31 31 31h162q31 0 30 -31v-846q0 -180 82 -274.5t224 -94.5q143 0 225 94.5t82 274.5v846q0 31 31 31h161z" glyph-name="Uring" horiz-adv-x="1335" unicode="Ů"/><glyph d="M571 1126q-80 0 -134 54.5t-54 130t54.5 130t133.5 54.5q76 0 130.5 -54.5t54.5 -130t-54.5 -130t-130.5 -54.5zM571 1364q-23 0 -38 -15.5t-15 -38t15.5 -36.5t38 -14t37 15t14.5 36q0 23 -16 38t-36 15zM987 1004q31 0 31 -31v-942q0 -31 -31 -31h-145q-27 0 -31 31 l-8 119q-123 -176 -309 -177q-174 0 -274.5 108.5t-100.5 307.5v584q0 31 31 31h153q31 0 31 -31v-553q0 -125 58.5 -187.5t154.5 -62.5q113 0 184.5 77t71.5 142v584q0 31 31 31h153z" glyph-name="uring" horiz-adv-x="1146" unicode="ů"/><glyph d="M698 1860q41 0 25 -35l-123 -258q-10 -25 -35 -25h-129q-41 0 -24 35l123 258q10 25 34 25h129zM1036 1860q41 0 25 -35l-123 -258q-10 -25 -35 -25h-129q-41 0 -24 35l122 258q10 25 35 25h129zM1167 1434q31 0 31 -31v-846q0 -279 -146.5 -431.5t-383.5 -152.5 q-236 0 -382.5 153t-146.5 431v846q0 31 31 31h162q31 0 30 -31v-846q0 -180 82 -274.5t224 -94.5q143 0 225 94.5t82 274.5v846q0 31 31 31h161z" glyph-name="Uhungarumlaut" horiz-adv-x="1335" unicode="Ű"/><glyph d="M338 1112q-41 0 -25 35l123 258q10 25 35 25h129q41 0 25 -35l-123 -258q-10 -25 -35 -25h-129zM676 1112q-41 0 -25 35l123 258q10 25 35 25h129q41 0 25 -35l-123 -258q-10 -25 -35 -25h-129zM987 1004q31 0 31 -31v-942q0 -31 -31 -31h-145q-27 0 -31 31l-8 119 q-123 -176 -309 -177q-174 0 -274.5 108.5t-100.5 307.5v584q0 31 31 31h153q31 0 31 -31v-553q0 -125 58.5 -187.5t154.5 -62.5q113 0 184.5 77t71.5 142v584q0 31 31 31h153z" glyph-name="uhungarumlaut" horiz-adv-x="1146" unicode="ű"/><glyph d="M1167 1434q31 0 31 -31v-846q0 -227 -99.5 -372.5t-271.5 -190.5q-158 -70 -157 -168q0 -55 40 -81t115 -9v-142q-41 -18 -97 -19t-109.5 17.5t-91.5 68.5t-38 124q0 111 97 192q-203 27 -325 177.5t-122 402.5v846q0 31 31 31h162q31 0 30 -31v-846q0 -180 82 -274.5 t224 -94.5q143 0 225 94.5t82 274.5v846q0 31 31 31h161z" glyph-name="Uogonek" horiz-adv-x="1314" unicode="Ų"/><glyph d="M987 1004q31 0 31 -31v-942q0 -31 -31 -31q-98 0 -154.5 -53t-56.5 -119q0 -55 40 -82t116 -10v-142q-41 -18 -97.5 -19t-109.5 17.5t-91 68.5t-38 124q0 92 60.5 161.5t152.5 110.5l-6 93q-123 -176 -309 -177q-174 0 -274.5 108.5t-100.5 307.5v584q0 31 31 31h153 q31 0 31 -31v-553q0 -125 58.5 -187.5t154.5 -62.5q113 0 184.5 77t71.5 142v584q0 31 31 31h153z" glyph-name="uogonek" horiz-adv-x="1126" unicode="ų"/><glyph d="M874 1593q-20 0 -25 11.5t7 25.5l188 213q14 16 37 17h127q23 0 37 -17l187 -213q12 -14 8 -25.5t-25 -11.5h-98q-23 0 -37 17l-135 157l-135 -157q-14 -16 -37 -17h-99zM2163 1434q35 0 24 -35l-442 -1374q-8 -25 -37 -25h-166q-29 0 -35 25l-364 1075l-367 -1075 q-10 -25 -37 -25h-164q-33 0 -38 25l-437 1374q-14 35 25 35h166q27 0 35 -25l333 -1122l373 1122q2 14 17 21q8 4 16 4h154q10 0 18 -4q8 -6 14 -21l371 -1122l340 1122q6 25 35 25h166z" glyph-name="Wcircumflex" horiz-adv-x="2285" unicode="Ŵ"/><glyph d="M662 1163q-20 0 -25.5 11.5t6.5 25.5l188 213q14 16 37 17h127q23 0 37 -17l187 -213q12 -14 8 -25.5t-25 -11.5h-98q-23 0 -37 17l-135 157l-135 -157q-14 -16 -37 -17h-98zM1755 1004q37 0 25 -35l-355 -944q-8 -25 -36 -25h-154q-27 0 -37 25l-268 698l-266 -698 q-8 -25 -37 -25h-156q-27 0 -37 25l-352 944q-12 35 24 35h150q27 0 37 -25l262 -733l268 733q6 18 21 20q8 4 16 5h139q8 0 17 -5q14 -2 20 -20l271 -733l260 733q10 25 37 25h151z" glyph-name="wcircumflex" horiz-adv-x="1859" unicode="ŵ"/><glyph d="M367 1593q-20 0 -25.5 11.5t6.5 25.5l189 213q14 16 36 17h127q23 0 37 -17l187 -213q12 -14 8 -25.5t-25 -11.5h-98q-23 0 -37 17l-135 157l-135 -157q-14 -16 -37 -17h-98zM1151 1434q41 0 20 -37l-421 -715v-651q0 -31 -31 -31h-162q-31 0 -31 31v651l-422 715 q-20 37 21 37h170q25 0 37 -21l305 -522l305 522q12 20 37 21h172z" glyph-name="Ycircumflex" horiz-adv-x="1273" unicode="Ŷ"/><glyph d="M637 1430q23 0 37 -17l186 -213q12 -14 8 -25.5t-24 -11.5h-99q-23 0 -36 17l-136 157l-135 -157q-14 -16 -37 -17h-98q-20 0 -25.5 11.5t7.5 25.5l188 213q14 16 37 17h127zM1042 1004q37 0 25 -35l-528 -1334q-10 -25 -37 -24h-154q-37 0 -24 35l143 350l-385 973 q-12 35 24 35h156q29 0 37 -25l274 -729l275 729q8 25 37 25h157z" glyph-name="ycircumflex" horiz-adv-x="1148" unicode="ŷ"/><glyph d="M432 1645q-47 0 -81 33.5t-34 82.5q0 45 34 79t81 34t81 -33t34 -80q0 -49 -34 -82.5t-81 -33.5zM844 1645q-47 0 -81 33.5t-34 82.5q0 47 34 80t81 33t80.5 -34t33.5 -79q0 -49 -33.5 -82.5t-80.5 -33.5zM1151 1434q41 0 20 -37l-421 -715v-651q0 -31 -31 -31h-162 q-31 0 -31 31v651l-422 715q-20 37 21 37h170q25 0 37 -21l305 -522l305 522q12 20 37 21h172z" glyph-name="Ydieresis" horiz-adv-x="1273" unicode="Ÿ"/><glyph d="M811 1860q41 0 25 -35l-123 -258q-10 -25 -35 -25h-129q-41 0 -25 35l123 258q10 25 35 25h129zM1065 201q31 0 31 -31v-139q0 -31 -31 -31h-915q-31 0 -31 31v149q0 18 12 37l709 1016h-670q-31 0 -31 31v139q0 31 31 31h874q31 0 31 -31v-150q0 -18 -12 -36l-709 -1016 h711z" glyph-name="Zacute" horiz-adv-x="1214" unicode="Ź"/><glyph d="M707 1430q41 0 24 -35l-123 -258q-10 -25 -35 -25h-129q-41 0 -24 35l123 258q10 25 35 25h129zM918 973v-125q0 -25 -15 -39l-559 -631h543q31 0 31 -31v-116q0 -31 -31 -31h-768q-31 0 -31 31v125q0 25 14 39l560 630h-543q-31 0 -31 31v117q0 31 31 31h768 q31 0 31 -31z" glyph-name="zacute" horiz-adv-x="1003" unicode="ź"/><glyph d="M608 1645q-47 0 -80.5 33.5t-33.5 82.5q0 45 33.5 79t80.5 34t81 -33t34 -80q0 -49 -34 -82.5t-81 -33.5zM1065 201q31 0 31 -31v-139q0 -31 -31 -31h-915q-31 0 -31 31v149q0 18 12 37l709 1016h-670q-31 0 -31 31v139q0 31 31 31h874q31 0 31 -31v-150q0 -18 -12 -36 l-709 -1016h711z" glyph-name="Zdotaccent" horiz-adv-x="1214" unicode="Ż"/><glyph d="M504 1214q-47 0 -81 34t-34 83q0 45 34 79t81 34t80.5 -33t33.5 -80q0 -49 -33.5 -83t-80.5 -34zM918 973v-125q0 -25 -15 -39l-559 -631h543q31 0 31 -31v-116q0 -31 -31 -31h-768q-31 0 -31 31v125q0 25 14 39l560 630h-543q-31 0 -31 31v117q0 31 31 31h768 q31 0 31 -31z" glyph-name="zdotaccent" horiz-adv-x="1003" unicode="ż"/><glyph d="M672 1593h-127q-23 0 -37 17l-189 213q-12 14 -7 25.5t26 11.5h98q23 0 37 -17l135 -157l135 157q14 16 37 17h99q20 0 24 -11.5t-8 -25.5l-186 -213q-14 -17 -37 -17zM1065 201q31 0 31 -31v-139q0 -31 -31 -31h-915q-31 0 -31 31v149q0 18 12 37l709 1016h-670 q-31 0 -31 31v139q0 31 31 31h874q31 0 31 -31v-150q0 -18 -12 -36l-709 -1016h711z" glyph-name="Zcaron" horiz-adv-x="1214" unicode="Ž"/><glyph d="M567 1163h-127q-23 0 -37 17l-188 213q-12 14 -7 25.5t25 11.5h99q23 0 37 -17l135 -158l135 158q14 16 37 17h98q20 0 24.5 -11.5t-7.5 -25.5l-187 -213q-14 -17 -37 -17zM918 973v-125q0 -25 -15 -39l-559 -631h543q31 0 31 -31v-116q0 -31 -31 -31h-768q-31 0 -31 31 v125q0 25 14 39l560 630h-543q-31 0 -31 31v117q0 31 31 31h768q31 0 31 -31z" glyph-name="zcaron" horiz-adv-x="1003" unicode="ž"/><glyph d="M725 1434q20 -12 20 -37v-133q0 -43 -36 -23q-63 35 -115 35q-74 0 -98.5 -34t-24.5 -101v-137h213q31 0 31 -31v-117q0 -31 -31 -31h-213v-909q0 -152 -81 -228.5t-236 -76.5q-94 0 -154 33q-20 12 -20 37v133q0 43 36 22q63 -35 117 -35q72 0 97.5 34t25.5 102v888 h-119q-31 0 -31 31v117q0 31 31 31h119v157q0 305 317 305q95 1 152 -32z" glyph-name="florin" horiz-adv-x="724" unicode="ƒ"/><glyph d="M604 1610l-188 213q-12 14 -7 25.5t25 11.5h98q23 0 37 -17l136 -157l135 157q14 16 37 17h98q20 0 24.5 -11.5t-8.5 -25.5l-186 -213q-14 -16 -37 -17h-127q-23 1 -37 17zM1311 35q14 -35 -25 -35h-166q-27 0 -35 25l-96 278h-588l-96 -278q-8 -25 -35 -25h-166 q-39 0 -24 35l500 1374q10 25 36 25h156q27 0 37 -25zM465 485h461l-232 664z" glyph-name="uni01CD" horiz-adv-x="1388" unicode="Ǎ"/><glyph d="M512 1180l-188 213q-12 14 -7 25.5t25 11.5h98q23 0 37 -17l135 -158l136 158q14 16 36 17h99q20 0 24 -11.5t-8 -25.5l-186 -213q-14 -16 -37 -17h-127q-23 1 -37 17zM1090 1004q31 0 30 -31v-942q0 -31 -30 -31h-134q-27 0 -30 31l-11 114q-123 -160 -327 -159 q-211 0 -350.5 149.5t-139.5 364.5q0 221 139.5 372.5t350.5 151.5q207 0 330 -168l8 117q4 31 30 31h134zM608 182q133 0 218 91.5t85 228.5t-86 232t-217 95t-217 -93t-86 -234q0 -137 86 -228.5t217 -91.5z" glyph-name="uni01CE" unicode="ǎ"/><glyph d="M324 1593h-127q-23 0 -37 17l-189 213q-12 14 -7 25.5t26 11.5h98q23 0 37 -17l135 -157l135 157q14 16 37 17h98q20 0 24.5 -11.5t-7.5 -25.5l-187 -213q-13 -17 -36 -17zM150 1403q0 31 30 31h162q31 0 31 -31v-1372q0 -31 -31 -31h-162q-31 0 -30 31v1372z" glyph-name="uni01CF" horiz-adv-x="520" unicode="Ǐ"/><glyph d="M291 1163h-127q-23 0 -37 17l-188 213q-12 14 -7 25.5t25 11.5h98q23 0 37 -17l135 -158l135 158q14 16 37 17h99q20 0 24 -11.5t-8 -25.5l-186 -213q-14 -17 -37 -17zM119 973q0 31 31 31h153q31 0 31 -31v-942q0 -31 -31 -31h-153q-31 0 -31 31v942z" glyph-name="uni01D0" horiz-adv-x="450" unicode="ǐ"/><glyph d="M907 1593h-127q-23 0 -37 17l-188 213q-12 14 -7 25.5t25 11.5h99q23 0 37 -17l135 -157l135 157q14 16 37 17h98q20 0 24.5 -11.5t-8.5 -25.5l-186 -213q-14 -17 -37 -17zM844 -27q-305 0 -520 215t-215 522.5t215 523.5t520 216q303 0 518 -216t215 -523.5t-215 -522.5 t-518 -215zM844 193q215 0 361.5 149.5t146.5 368.5q0 221 -146.5 371.5t-361.5 150.5q-217 0 -363.5 -150.5t-146.5 -371.5q0 -219 146.5 -368.5t363.5 -149.5z" glyph-name="uni01D1" horiz-adv-x="1685" unicode="Ǒ"/><glyph d="M676 1163h-127q-23 0 -37 17l-188 213q-12 14 -7 25.5t25 11.5h98q23 0 37 -17l135 -158l136 158q14 16 36 17h99q20 0 24 -11.5t-8 -25.5l-186 -213q-14 -17 -37 -17zM612 -20q-217 0 -365.5 151.5t-148.5 370.5q0 221 148.5 372.5t365.5 151.5q215 0 364.5 -151.5 t149.5 -372.5q0 -219 -149.5 -370.5t-364.5 -151.5zM612 178q129 0 218.5 92t89.5 232q0 141 -88.5 234t-219.5 93t-219 -93t-88 -234q0 -139 89 -231.5t218 -92.5z" glyph-name="uni01D2" horiz-adv-x="1222" unicode="ǒ"/><glyph d="M731 1593h-127q-23 0 -37 17l-188 213q-12 14 -7 25.5t25 11.5h99q23 0 36 -17l136 -157l135 157q14 16 37 17h98q20 0 24.5 -11.5t-8.5 -25.5l-186 -213q-14 -17 -37 -17zM1167 1434q31 0 31 -31v-846q0 -279 -146.5 -431.5t-383.5 -152.5q-236 0 -382.5 153t-146.5 431 v846q0 31 31 31h162q31 0 30 -31v-846q0 -180 82 -274.5t224 -94.5q143 0 225 94.5t82 274.5v846q0 31 31 31h161z" glyph-name="uni01D3" horiz-adv-x="1335" unicode="Ǔ"/><glyph d="M469 1180l-188 213q-12 14 -7 25.5t25 11.5h98q23 0 37 -17l135 -158l136 158q14 16 36 17h99q20 0 24 -11.5t-8 -25.5l-186 -213q-14 -16 -37 -17h-127q-23 1 -37 17zM987 1004q31 0 31 -31v-942q0 -31 -31 -31h-145q-27 0 -31 31l-8 119q-123 -176 -309 -177 q-174 0 -274.5 108.5t-100.5 307.5v584q0 31 31 31h153q31 0 31 -31v-553q0 -125 58.5 -187.5t154.5 -62.5q113 0 184.5 77t71.5 142v584q0 31 31 31h153z" glyph-name="uni01D4" horiz-adv-x="1146" unicode="ǔ"/><glyph d="M846 -27q-96 -51 -96 -145q0 -55 39.5 -82t115.5 -10v-142q-41 -18 -97 -19t-110.5 17.5t-92.5 68.5t-38 124q0 121 107 209q-246 57 -405.5 257t-159.5 460q0 307 215 523t520 216q303 0 518 -216t215 -523.5t-214 -521.5t-517 -216zM334 711q0 -219 146.5 -368.5 t363.5 -149.5q215 0 361.5 149.5t146.5 368.5q0 221 -146.5 371.5t-361.5 150.5q-217 0 -363.5 -150.5t-146.5 -371.5z" glyph-name="uni01EA" horiz-adv-x="1665" unicode="Ǫ"/><glyph d="M696 -14q-133 -59 -133 -160q0 -55 40 -81t116 -9v-142q-41 -18 -97.5 -19t-109.5 17.5t-91 68.5t-38 124q0 121 115 207q-174 41 -287 182t-113 328q0 221 148.5 372.5t365.5 151.5q215 0 364.5 -151.5t149.5 -372.5q0 -195 -122 -340t-308 -176zM305 502 q0 -139 89 -231.5t218 -92.5t218.5 92t89.5 232q0 141 -88.5 234t-219.5 93t-219 -93t-88 -234z" glyph-name="uni01EB" horiz-adv-x="1202" unicode="ǫ"/><glyph d="M352 1063q0 -80 73 -134.5t176.5 -91t205.5 -82.5t175 -139.5t73 -228.5q0 -180 -143.5 -296t-340.5 -116q-150 0 -275.5 62.5t-191.5 159.5q-16 20 5 41l92 98q23 18 45 -2q160 -150 327 -150q115 0 189 59.5t74 149.5q0 70 -52.5 121t-129 82t-168 71t-168 84 t-129 125.5t-52.5 190.5q0 170 126 276.5t306 106.5q246 0 422 -190q16 -20 0 -43l-84 -99q-23 -23 -43 -4q-147 129 -291 129q-98 0 -159.5 -49t-61.5 -131zM565 -78q55 0 93 -42t38 -118q0 -86 -47 -192.5t-127 -196.5l-59 39q80 121 86 258q-49 6 -82 41t-33 84 q0 53 39 90t92 37z" glyph-name="Scommaaccent" horiz-adv-x="1150" unicode="Ș"/><glyph d="M322 737q0 -53 53 -87t130 -57.5t152.5 -54t129 -97t53.5 -167.5q0 -131 -112 -212.5t-253 -81.5q-119 0 -219 49t-160 118q-16 20 0 41l64 84q14 23 43 0q143 -109 266 -108q72 0 117 28.5t45 86.5q0 53 -53.5 88.5t-129 60.5t-151.5 56.5t-129 95t-53 155.5 q0 129 98 210t238 81q92 0 182 -40t151 -112q16 -18 -2 -43l-57 -75q-14 -18 -45 2q-117 92 -217 92q-57 0 -99 -29t-42 -84zM471 -78q55 0 93 -42t38 -118q0 -86 -47 -192.5t-127 -196.5l-59 39q80 121 86 258q-49 6 -82 41t-33 84q0 53 39 90t92 37z" glyph-name="scommaaccent" horiz-adv-x="927" unicode="ș"/><glyph d="M997 1434q31 0 31 -31v-139q0 -31 -31 -31h-317v-1202q0 -31 -31 -31h-162q-31 0 -30 31v1202h-318q-31 0 -30 31v139q0 31 30 31h858zM573 -78q55 0 93.5 -42t38.5 -118q0 -86 -47.5 -192.5t-127.5 -196.5l-59 39q80 121 86 258q-49 6 -82 41t-33 84q0 53 39 90t92 37z " glyph-name="uni021A" horiz-adv-x="1134" unicode="Ț"/><glyph d="M651 1004q31 0 31 -31v-117q0 -31 -31 -31h-164v-794q0 -31 -30 -31h-154q-31 0 -31 31v794h-163q-31 0 -31 31v117q0 31 31 31h163v276q0 31 31 31h154q31 0 30 -31v-276h164zM381 -63q55 0 93 -42t38 -118q0 -86 -47 -192.5t-127 -196.5l-59 39q80 121 86 258 q-49 6 -82 40.5t-33 84.5q0 53 39 90t92 37z" glyph-name="uni021B" horiz-adv-x="757" unicode="ț"/><glyph d="M291 1004h153q31 0 31 -31v-957q0 -205 -98 -310t-273 -112q-20 0 -24 17l-47 158q-8 23 16 22q211 16 211 256v926q0 31 31 31z" glyph-name="uni0237" horiz-adv-x="577" unicode="ȷ"/><glyph d="M393 1434q23 0 37 -17l186 -213q12 -14 8.5 -25.5t-24.5 -11.5h-98q-23 0 -37 17l-135 157l-135 -157q-14 -16 -37 -17h-99q-20 0 -25 11.5t7 25.5l188 213q14 16 37 17h127z" glyph-name="circumflex" horiz-adv-x="657" unicode="ˆ"/><glyph d="M393 1167h-127q-23 0 -37 17l-188 213q-12 14 -7 25.5t25 11.5h99q23 0 37 -17l135 -157l135 157q14 16 37 17h98q20 0 24.5 -11.5t-8.5 -25.5l-186 -213q-14 -17 -37 -17z" glyph-name="caron" horiz-adv-x="657" unicode="ˇ"/><glyph d="M496 1405q6 29 32 29h76q31 0 29 -31q-10 -109 -91 -180.5t-208 -71.5t-209 71.5t-92 180.5q-4 31 28 31h76q27 0 33 -29q12 -53 55 -87t108.5 -34t108 34t54.5 87z" glyph-name="breve" horiz-adv-x="665" unicode="˘"/><glyph d="M145.5 1214q-47.5 0 -81 34t-33.5 83q0 45 33.5 79t81 34t81 -33t33.5 -80q0 -49 -33.5 -83t-81 -34z" glyph-name="dotaccent" horiz-adv-x="290" unicode="˙"/><glyph d="M219 1495q76 0 130 -54.5t54 -130t-54 -130t-130 -54.5q-80 0 -134 54.5t-54 130t54 130t134 54.5zM219.5 1260q22.5 0 36.5 15t14 36q0 23 -15 38t-36 15q-23 0 -38 -15.5t-15 -38t15.5 -36.5t38 -14z" glyph-name="ring" horiz-adv-x="434" unicode="˚"/><glyph d="M422 0q-94 0 -151.5 -54.5t-57.5 -117.5q0 -55 40 -82t116 -10v-142q-41 -18 -97.5 -19t-111 17.5t-92 68.5t-37.5 124q0 98 72.5 174t158.5 108.5t160 32.5v-100z" glyph-name="ogonek" horiz-adv-x="452" unicode="˛"/><glyph d="M227 1475q82 0 171 -70t139 -70q68 0 90 62q6 16 22 16h47q20 0 21 -20q-6 -88 -59.5 -135.5t-131.5 -47.5q-84 0 -174 70t-139 70q-66 0 -92 -62q-6 -16 -23 -16h-47q-23 0 -18 24q8 88 60 133.5t134 45.5z" glyph-name="tilde" horiz-adv-x="747" unicode="˜"/><glyph d="M322 1491q41 0 24 -35l-123 -258q-10 -25 -35 -24h-129q-41 0 -24 34l123 258q10 25 35 25h129zM659 1491q41 0 25 -35l-123 -258q-10 -25 -35 -24h-129q-41 0 -24 34l123 258q10 25 34 25h129z" glyph-name="hungarumlaut" horiz-adv-x="765" unicode="˝"/><glyph d="M-152 -78q55 0 93.5 -42t38.5 -118q0 -86 -47.5 -192.5t-127.5 -196.5l-59 39q80 121 86 258q-49 6 -82 41t-33 84q0 53 39 90t92 37z" glyph-name="uni0326" horiz-adv-x="0" unicode="̦"/><glyph d="M1313 35q14 -35 -25 -35h-1182q-39 0 -24 35l500 1374q8 25 36 25h156q29 0 37 -25zM696 1149l-336 -971h674z" glyph-name="Delta" horiz-adv-x="1372" unicode="Δ"/><glyph d="M1333 209v-31h236v-178h-459v283q238 154 238 450q0 215 -148.5 359.5t-366 144.5t-366 -144.5t-148.5 -359.5q0 -299 238 -450v-283h-459v178h236v31q-119 94 -177.5 232.5t-58.5 291.5q0 303 215 510t520.5 207t520.5 -207t215 -510q0 -152 -58.5 -291t-177.5 -233z " glyph-name="Omega" horiz-adv-x="1665" unicode="Ω"/><glyph d="M987 1004q31 0 31 -31v-942q0 -31 -31 -31h-145q-27 0 -31 31l-8 119q-123 -176 -309 -177q-92 0 -170 33v-364q0 -31 -31 -31h-154q-31 0 -30 31v1065h10v266q0 31 31 31h153q31 0 31 -31v-553q0 -125 58.5 -187.5t154.5 -62.5q113 0 184.5 77t71.5 142v584q0 31 31 31 h153z" glyph-name="mu" horiz-adv-x="1126" unicode="μ"/><glyph d="M1257 184q37 6 37 -28v-113q0 -57 -164 -57q-111 0 -177 61.5t-66 192.5v585h-350v-794q0 -31 -31 -31h-154q-31 0 -30 31v794h-172q-31 0 -31 31v117q0 31 31 31h1099q31 0 31 -31v-117q0 -31 -31 -31h-147v-557q0 -88 80 -88q50 0 75 4z" glyph-name="pi" horiz-adv-x="1374" unicode="π"/><glyph d="M344 1645q-47 0 -81 33.5t-34 82.5q0 45 34 79t81 34t81 -33t34 -80q0 -49 -34 -82.5t-81 -33.5zM756 1645q-47 0 -81 33.5t-34 82.5q0 47 34 80t81 33t80.5 -34t33.5 -79q0 -49 -33.5 -82.5t-80.5 -33.5zM911 201q31 0 31 -31v-139q0 -31 -31 -31h-731q-31 0 -30 31 v1372q0 31 30 31h729q31 0 31 -31v-139q0 -31 -31 -31h-536v-383h504q31 0 30 -31v-139q0 -31 -30 -31h-504v-448h538z" glyph-name="afii10023" horiz-adv-x="1075" unicode="Ё"/><glyph d="M451 1542q-41 0 -25 35l123 258q10 25 35 25h129q41 0 24 -35l-123 -258q-10 -25 -34 -25h-129zM905 1434q31 0 31 -31v-139q0 -31 -31 -31h-532v-1202q0 -31 -31 -31h-162q-31 0 -30 31v1372q0 31 30 31h725z" glyph-name="afii10052" horiz-adv-x="1013" unicode="Ѓ"/><glyph d="M1229 324l102 -107q18 -23 -2 -43q-217 -201 -491 -201q-305 0 -517 215t-212 523q0 309 211.5 524t517.5 215q276 0 491 -201q23 -18 2 -43l-102 -106q-18 -20 -43 0q-158 133 -350 133q-182 0 -319.5 -117t-170.5 -299h502q31 0 31 -31v-139q0 -31 -31 -31h-504 q31 -186 169 -304.5t323 -118.5q197 0 350 133q25 21 43 -2z" glyph-name="afii10053" horiz-adv-x="1417" unicode="Є"/><glyph d="M150 1403q0 31 30 31h162q31 0 31 -31v-1372q0 -31 -31 -31h-162q-31 0 -30 31v1372z" glyph-name="afii10055" horiz-adv-x="520" unicode="І"/><glyph d="M55 1645q-47 0 -80.5 33.5t-33.5 82.5q0 45 33.5 79t80.5 34t81 -33t34 -80q0 -49 -34 -82.5t-81 -33.5zM467 1645q-47 0 -81 33.5t-34 82.5q0 47 34 80t81 33t81 -34t34 -79q0 -49 -34 -82.5t-81 -33.5zM150 1403q0 31 30 31h162q31 0 31 -31v-1372q0 -31 -31 -31h-162 q-31 0 -30 31v1372z" glyph-name="afii10056" horiz-adv-x="520" unicode="Ї"/><glyph d="M584 1542q-41 0 -25 35l123 258q10 25 35 25h129q41 0 24 -35l-122 -258q-10 -25 -35 -25h-129zM1221 37q10 -16 5 -26.5t-24 -10.5h-194q-25 0 -37 18l-473 641l-125 -141v-487q0 -31 -31 -31h-162q-31 0 -30 31v1372q0 31 30 31h162q31 0 31 -31v-588l522 602 q14 16 37 17h205q20 0 25 -11.5t-9 -25.5l-508 -572z" glyph-name="afii10061" horiz-adv-x="1304" unicode="Ќ"/><glyph d="M690 1579q-127 0 -209 71.5t-92 180.5q-4 31 29 31h76q27 0 32 -29q12 -53 55.5 -87t109 -34t107.5 34t54 87q6 29 33 29h76q31 0 28 -31q-10 -109 -91 -180.5t-208 -71.5zM1266 1434q18 0 24 -10.5t-4 -26.5l-831 -1377q-12 -20 -37 -20h-170q-41 0 -21 37l344 569 l-477 791q-10 16 -4 26.5t25 10.5h170q25 0 37 -21l368 -610l369 610q12 20 37 21h170z" glyph-name="afii10062" horiz-adv-x="1380" unicode="Ў"/><glyph d="M1311 35q14 -35 -25 -35h-166q-27 0 -35 25l-96 278h-588l-96 -278q-8 -25 -35 -25h-166q-39 0 -24 35l500 1374q10 25 36 25h156q27 0 37 -25zM465 485h461l-232 664z" glyph-name="afii10017" horiz-adv-x="1388" unicode="А"/><glyph d="M586 913q238 0 368.5 -125.5t130.5 -330.5t-131 -331t-368 -126h-406q-31 0 -30 31v1372q0 31 30 31h725q31 0 31 -31v-139q0 -31 -31 -31h-532v-320h213zM578 201q129 0 210.5 61.5t81.5 194.5t-81.5 194.5t-210.5 61.5h-205v-512h205z" glyph-name="afii10018" horiz-adv-x="1153" unicode="Б"/><glyph d="M868 772q131 -31 212 -127t81 -229q0 -416 -520 -416h-461q-31 0 -30 31v1372q0 31 30 31h463q207 0 313.5 -102.5t106.5 -250.5q0 -111 -51.5 -193.5t-143.5 -115.5zM852 1059q0 174 -229 174h-250v-379h250q106 0 167.5 52.5t61.5 152.5zM641 201q295 0 295 235 q0 111 -75 170.5t-220 59.5h-268v-465h268z" glyph-name="afii10019" horiz-adv-x="1247" unicode="В"/><glyph d="M905 1434q31 0 31 -31v-139q0 -31 -31 -31h-532v-1202q0 -31 -31 -31h-162q-31 0 -30 31v1372q0 31 30 31h725z" glyph-name="afii10020" horiz-adv-x="1013" unicode="Г"/><glyph d="M1481 201q31 0 30 -31v-281q0 -31 -30 -30h-162q-31 0 -31 30v111h-983v-111q0 -31 -31 -30h-161q-31 0 -31 30v281q0 31 31 31h67q133 47 133 241v961q0 31 31 31h997q31 0 31 -31v-1202h109zM537 412q0 -125 -37 -211h649v1032h-612v-821z" glyph-name="afii10021" horiz-adv-x="1593" unicode="Д"/><glyph d="M911 201q31 0 31 -31v-139q0 -31 -31 -31h-731q-31 0 -30 31v1372q0 31 30 31h729q31 0 31 -31v-139q0 -31 -31 -31h-536v-383h504q31 0 30 -31v-139q0 -31 -30 -31h-504v-448h538z" glyph-name="afii10022" horiz-adv-x="1075" unicode="Е"/><glyph d="M2009 37q10 -16 5 -26.5t-23 -10.5h-195q-25 0 -37 18l-473 641l-125 -141v-487q0 -31 -31 -31h-184q-31 0 -31 31v487l-124 141l-474 -641q-12 -18 -36 -18h-195q-18 0 -23.5 10t5.5 27l575 788l-508 572q-14 14 -9 25.5t26 11.5h204q23 0 37 -17l522 -602v588 q0 31 31 31h184q31 0 31 -31v-588l522 602q14 16 37 17h205q20 0 25.5 -11.5t-8.5 -25.5l-508 -572z" glyph-name="afii10024" horiz-adv-x="2072" unicode="Ж"/><glyph d="M764 768q109 -41 182.5 -134t73.5 -216q0 -186 -140.5 -310t-355.5 -124q-268 0 -424 178q-18 23 2 43l103 98q20 20 45 0q113 -104 268 -104q123 0 199 61.5t76 165.5q0 102 -86 169t-244 69q-31 0 -31 30v125q0 33 33 33q147 2 215 59.5t68 141.5q0 86 -67 135t-153 49 q-127 0 -237 -98q-25 -20 -45 0l-99 92q-20 20 -2 43q150 176 390 176q174 0 303 -106.5t129 -270.5q0 -98 -57.5 -180t-145.5 -125z" glyph-name="afii10025" horiz-adv-x="1112" unicode="З"/><glyph d="M1206 1434q27 -4 27 -31v-1372q0 -31 -31 -31h-162q-31 0 -30 31v1063l-621 -1074q-12 -20 -37 -20h-196q-29 0 -29 31v1372q0 31 31 31h161q31 0 31 -31v-1065l621 1075q12 20 37 21h198z" glyph-name="afii10026" horiz-adv-x="1382" unicode="И"/><glyph d="M692 1579q-127 0 -209 71.5t-92 180.5q-2 31 29 31h76q27 0 32 -29q12 -53 55.5 -87t109 -34t107.5 34t54 87q6 29 33 29h76q33 0 28 -31q-10 -109 -91 -180.5t-208 -71.5zM1206 1434q27 -4 27 -31v-1372q0 -31 -31 -31h-162q-31 0 -30 31v1063l-621 -1074 q-12 -20 -37 -20h-196q-29 0 -29 31v1372q0 31 31 31h161q31 0 31 -31v-1065l621 1075q12 20 37 21h198z" glyph-name="afii10027" horiz-adv-x="1382" unicode="Й"/><glyph d="M1221 37q10 -16 5 -26.5t-24 -10.5h-194q-25 0 -37 18l-473 641l-125 -141v-487q0 -31 -31 -31h-162q-31 0 -30 31v1372q0 31 30 31h162q31 0 31 -31v-588l522 602q14 16 37 17h205q20 0 25 -11.5t-9 -25.5l-508 -572z" glyph-name="afii10028" horiz-adv-x="1304" unicode="К"/><glyph d="M1298 1434q31 0 31 -31v-1372q0 -31 -31 -31h-161q-31 0 -31 31v1202h-612v-821q0 -207 -102.5 -314.5t-276.5 -107.5q-18 0 -25 18l-47 158q-4 23 16 22q96 0 153.5 64.5t57.5 189.5v961q0 31 31 31h997z" glyph-name="afii10029" horiz-adv-x="1456" unicode="Л"/><glyph d="M1599 1434q31 0 31 -31v-1372q0 -31 -31 -31h-161q-31 0 -31 31v999l-29 -88l-377 -917q-10 -25 -36 -25h-152q-27 0 -35 25l-377 917l-28 86v-997q0 -31 -31 -31h-162q-31 0 -30 31v1372q0 31 30 31h193q29 0 37 -21l479 -1159l479 1159q8 20 37 21h194z" glyph-name="afii10030" horiz-adv-x="1777" unicode="М"/><glyph d="M1167 1434q31 0 31 -31v-1372q0 -31 -31 -31h-161q-31 0 -31 31v577h-602v-577q0 -31 -31 -31h-162q-31 0 -30 31v1372q0 31 30 31h162q31 0 31 -31v-594h602v594q0 31 31 31h161z" glyph-name="afii10031" horiz-adv-x="1345" unicode="Н"/><glyph d="M844 -27q-305 0 -520 215t-215 522.5t215 523.5t520 216q303 0 518 -216t215 -523.5t-215 -522.5t-518 -215zM844 193q215 0 361.5 149.5t146.5 368.5q0 221 -146.5 371.5t-361.5 150.5q-217 0 -363.5 -150.5t-146.5 -371.5q0 -219 146.5 -368.5t363.5 -149.5z" glyph-name="afii10032" horiz-adv-x="1685" unicode="О"/><glyph d="M1167 1434q31 0 31 -31v-1372q0 -31 -31 -31h-161q-31 0 -31 31v1202h-602v-1202q0 -31 -31 -31h-162q-31 0 -30 31v1372q0 31 30 31h987z" glyph-name="afii10033" horiz-adv-x="1325" unicode="П"/><glyph d="M586 1434q238 0 368.5 -126t130.5 -331t-131 -331t-368 -126h-213v-489q0 -31 -31 -31h-162q-31 0 -30 31v1372q0 31 30 31h406zM578 721q129 0 210.5 61.5t81.5 194.5t-81.5 194.5t-210.5 61.5h-205v-512h205z" glyph-name="afii10034" horiz-adv-x="1173" unicode="Р"/><glyph d="M1229 324l102 -107q18 -23 -2 -43q-217 -201 -491 -201q-305 0 -517 215t-212 523q0 309 211.5 524t517.5 215q276 0 491 -201q23 -18 2 -43l-102 -106q-18 -20 -43 0q-158 133 -350 133q-209 0 -354.5 -149.5t-145.5 -372.5q0 -219 145.5 -368.5t354.5 -149.5 q197 0 350 133q25 21 43 -2z" glyph-name="afii10035" horiz-adv-x="1437" unicode="С"/><glyph d="M997 1434q31 0 31 -31v-139q0 -31 -31 -31h-317v-1202q0 -31 -31 -31h-162q-31 0 -30 31v1202h-318q-31 0 -30 31v139q0 31 30 31h858z" glyph-name="afii10036" horiz-adv-x="1134" unicode="Т"/><glyph d="M1266 1434q18 0 24 -10.5t-4 -26.5l-831 -1377q-12 -20 -37 -20h-170q-41 0 -21 37l344 569l-477 791q-10 16 -4 26.5t25 10.5h170q25 0 37 -21l368 -610l369 610q12 20 37 21h170z" glyph-name="afii10037" horiz-adv-x="1380" unicode="У"/><glyph d="M1038 1311q317 0 498.5 -176.5t181.5 -418t-182 -417.5t-498 -176h-12v-92q0 -31 -31 -31h-161q-31 0 -31 31v92h-37q-160 0 -292 50t-214 135t-127 189.5t-45 219.5q0 242 181.5 418t496.5 176h37v92q0 31 31 31h161q31 0 31 -31v-92h12zM766 324h37v786h-37 q-217 0 -335 -109.5t-118 -283.5q0 -172 118 -282.5t335 -110.5zM1038 324q217 0 335 110.5t118 282.5q0 174 -118 283.5t-335 109.5h-12v-786h12z" glyph-name="afii10038" horiz-adv-x="1804" unicode="Ф"/><glyph d="M1202 37q10 -16 4 -26.5t-24 -10.5h-172q-25 0 -37 20l-320 521l-321 -521q-12 -20 -37 -20h-170q-18 0 -24.5 10t3.5 27l431 696l-410 664q-20 37 20 37h170q25 0 37 -21l301 -487l299 487q12 20 37 21h172q41 0 21 -37l-410 -664z" glyph-name="afii10039" horiz-adv-x="1304" unicode="Х"/><glyph d="M1307 201q31 0 30 -31v-281q0 -31 -30 -30h-162q-31 0 -31 30v111h-934q-31 0 -30 31v1372q0 31 30 31h162q31 0 31 -31v-1202h602v1202q0 31 31 31h161q31 0 31 -31v-1202h109z" glyph-name="afii10040" horiz-adv-x="1419" unicode="Ц"/><glyph d="M1092 1434q31 0 30 -31v-1372q0 -31 -30 -31h-162q-31 0 -31 31v587q-150 -197 -412 -196q-172 0 -288.5 117.5t-116.5 314.5v549q0 31 31 31h161q31 0 31 -31v-518q0 -123 72 -185.5t180 -62.5q141 0 241.5 74.5t100.5 122.5v569q0 31 31 31h162z" glyph-name="afii10041" horiz-adv-x="1259" unicode="Ч"/><glyph d="M1993 1434q31 0 30 -31v-1372q0 -31 -30 -31h-1813q-31 0 -30 31v1372q0 31 30 31h162q31 0 31 -31v-1202h602v1202q0 31 31 31h161q31 0 31 -31v-1202h602v1202q0 31 31 31h162z" glyph-name="afii10042" horiz-adv-x="2148" unicode="Ш"/><glyph d="M2132 201q31 0 31 -31v-281q0 -31 -31 -30h-162q-31 0 -31 30v111h-1759q-31 0 -30 31v1372q0 31 30 31h162q31 0 31 -31v-1202h602v1202q0 31 31 31h161q31 0 31 -31v-1202h602v1202q0 31 31 31h162q31 0 30 -31v-1202h109z" glyph-name="afii10043" horiz-adv-x="2244" unicode="Щ"/><glyph d="M741 913q238 0 369 -125.5t131 -330.5t-131 -331t-369 -126h-405q-31 0 -31 31v1202h-223q-31 0 -31 31v139q0 31 31 31h416q31 0 30 -31v-490h213zM733 201q129 0 211 61.5t82 194.5t-82 194.5t-211 61.5h-205v-512h205z" glyph-name="afii10044" horiz-adv-x="1306" unicode="Ъ"/><glyph d="M586 0h-406q-31 0 -30 31v1372q0 31 30 31h162q31 0 31 -31v-490h213q238 0 368.5 -125.5t130.5 -330.5t-130.5 -331t-368.5 -126zM1346 1403q0 31 30 31h162q31 0 31 -31v-1372q0 -31 -31 -31h-162q-31 0 -30 31v1372zM578 713h-205v-512h205q129 0 210.5 61.5 t81.5 194.5t-81.5 194.5t-210.5 61.5z" glyph-name="afii10045" horiz-adv-x="1695" unicode="Ы"/><glyph d="M586 0h-406q-31 0 -30 31v1372q0 31 30 31h162q31 0 31 -31v-490h213q238 0 368.5 -125.5t130.5 -330.5t-130.5 -331t-368.5 -126zM578 713h-205v-512h205q129 0 210.5 61.5t81.5 194.5t-81.5 194.5t-210.5 61.5z" glyph-name="afii10046" horiz-adv-x="1153" unicode="Ь"/><glyph d="M590 1450q305 0 517 -215t212 -524q0 -307 -212 -522.5t-517 -215.5q-274 0 -492 201q-20 20 -2 43l103 107q18 23 43 2q154 -133 350 -133q184 0 322.5 118.5t168.5 304.5h-503q-31 0 -31 31v139q0 31 31 31h501q-33 182 -170 299t-319 117q-193 0 -350 -133 q-25 -20 -43 0l-103 106q-20 25 2 43q216 201 492 201z" glyph-name="afii10047" horiz-adv-x="1417" unicode="Э"/><glyph d="M1255 1450q303 0 518.5 -216t215.5 -523.5t-215 -522.5t-519 -215q-281 0 -487.5 184.5t-241.5 458.5h-153v-585q0 -31 -31 -31h-162q-31 0 -30 31v1372q0 31 30 31h162q31 0 31 -31v-586h155q39 272 245 452.5t482 180.5zM1255 193q215 0 361.5 149.5t146.5 368.5 q0 221 -146.5 371.5t-361.5 150.5q-217 0 -363.5 -150.5t-146.5 -371.5q0 -219 146.5 -368.5t363.5 -149.5z" glyph-name="afii10048" horiz-adv-x="2076" unicode="Ю"/><glyph d="M1034 1434q31 0 31 -31v-1372q0 -31 -31 -31h-162q-31 0 -30 31v489h-170l-328 -500q-12 -20 -37 -20h-174q-43 0 -20 37l338 506q-154 43 -238 158.5t-84 275.5q0 205 131 331t369 126h405zM842 721v512h-205q-129 0 -211 -61.5t-82 -194.5t82 -194.5t211 -61.5h205z " glyph-name="afii10049" horiz-adv-x="1214" unicode="Я"/><glyph d="M1090 1004q31 0 30 -31v-942q0 -31 -30 -31h-134q-27 0 -30 31l-11 114q-123 -160 -327 -159q-211 0 -350.5 149.5t-139.5 364.5q0 221 139.5 372.5t350.5 151.5q207 0 330 -168l8 117q4 31 30 31h134zM608 182q133 0 218 91.5t85 228.5t-86 232t-217 95t-217 -93 t-86 -234q0 -137 86 -228.5t217 -91.5z" glyph-name="afii10065" unicode="а"/><glyph d="M653 1026q211 0 350.5 -152.5t139.5 -373.5t-139.5 -374t-350.5 -153q-197 0 -325 160l-9 -102q-4 -31 -30 -31h-139q-31 0 -31 31v1038q0 188 80 276.5t252 88.5h256q102 0 151 41h180q-12 -133 -95 -182.5t-236 -49.5h-207q-90 0 -128 -42t-38 -132l2 -195 q127 152 317 152zM631 170q131 0 218 95t87 236.5t-87 234.5t-218 93q-129 0 -216 -96t-87 -231q0 -137 87 -234.5t216 -97.5z" glyph-name="afii10066" horiz-adv-x="1228" unicode="б"/><glyph d="M836 537q106 -20 167.5 -90t61.5 -158q0 -139 -113.5 -214t-330.5 -75h-471q-31 0 -31 31v942q0 31 31 31h471q170 0 268 -71t98 -190q1 -153 -151 -206zM791 719q0 49 -35 77.5t-140 28.5h-282v-219h272q185 0 185 113zM616 178q141 0 192.5 36t51.5 97q0 137 -254 138 h-272v-271h282z" glyph-name="afii10067" horiz-adv-x="1142" unicode="в"/><glyph d="M774 1004q31 0 31 -31v-117q0 -31 -31 -31h-440v-794q0 -31 -31 -31h-153q-31 0 -31 31v942q0 31 31 31h624z" glyph-name="afii10068" horiz-adv-x="880" unicode="г"/><glyph d="M1350 178q31 0 30 -31v-247q0 -31 -30 -31h-154q-31 0 -31 31v100h-868v-100q0 -31 -31 -31h-153q-31 0 -31 31v268q0 23 20 22h31q82 10 130 75t48 177v531q0 31 31 31h846q31 0 31 -31v-795h131zM526 825v-413q0 -137 -45 -234h523v647h-478z" glyph-name="afii10069" horiz-adv-x="1462" unicode="д"/><glyph d="M596 1024q211 0 343 -143.5t132 -343.5q0 -61 -13.5 -87t-51.5 -26h-695q20 -119 106.5 -188.5t219.5 -69.5q135 0 244 82q27 18 43 2l65 -64q23 -23 0 -47q-150 -154 -373 -153q-227 0 -372.5 150.5t-145.5 369.5t141.5 368.5t356.5 149.5zM598 838q-115 0 -194.5 -73 t-94.5 -192h572q-12 119 -90 192t-193 73z" glyph-name="afii10070" horiz-adv-x="1167" unicode="е"/><glyph d="M1763 37q12 -16 8 -26.5t-24 -10.5h-191q-23 0 -36 16l-363 418l-129 -131v-272q0 -31 -31 -31h-155q-31 0 -31 31v272l-129 131l-363 -418q-14 -16 -36 -16h-191q-20 0 -24.5 10t8.5 27l467 536l-389 394q-14 16 -10.5 26.5t24.5 10.5h190q23 0 39 -17l414 -418v404 q0 31 31 31h155q31 0 31 -31v-404l414 418q16 16 39 17h190q20 0 24.5 -10.5t-9.5 -26.5l-390 -394z" glyph-name="afii10072" horiz-adv-x="1841" unicode="ж"/><glyph d="M629 539q164 -82 164 -246q0 -137 -104.5 -223t-258.5 -86q-221 0 -326 129q-25 31 5 59l67 68q25 25 55 -7q80 -68 185 -67q76 0 129 39t53 104q0 63 -57.5 103.5t-161.5 40.5q-23 0 -36 12t-13 33v61q0 47 49 47q86 0 133 34t47 89q0 47 -41 77t-102 30q-82 0 -160 -58 q-41 -29 -68 0l-53 56q-29 29 -2 57q111 125 299 125q135 0 230.5 -75t95.5 -193q0 -125 -129 -209z" glyph-name="afii10073" horiz-adv-x="884" unicode="з"/><glyph d="M1047 1004q31 0 30 -31v-942q0 -31 -30 -31h-154q-31 0 -31 31v704l-485 -715q-14 -20 -39 -20h-188q-31 0 -31 31v942q0 31 31 31h153q31 0 31 -31v-707l487 717q14 20 39 21h187z" glyph-name="afii10074" horiz-adv-x="1193" unicode="и"/><glyph d="M612 1149q-127 0 -208.5 71.5t-92.5 180.5q-4 31 29 31h76q27 0 33 -29q12 -53 55 -87t108.5 -34t107.5 34t54 87q6 29 33 29h76q31 0 28 -31q-10 -109 -91 -180.5t-208 -71.5zM1047 1004q31 0 30 -31v-942q0 -31 -30 -31h-154q-31 0 -31 31v704l-485 -715 q-14 -20 -39 -20h-188q-31 0 -31 31v942q0 31 31 31h153q31 0 31 -31v-707l487 717q14 20 39 21h187z" glyph-name="afii10075" horiz-adv-x="1193" unicode="й"/><glyph d="M1069 37q12 -16 8 -26.5t-24 -10.5h-191q-23 0 -37 16l-362 418l-129 -131v-272q0 -31 -31 -31h-153q-31 0 -31 31v942q0 31 31 31h153q31 0 31 -31v-404l414 418q16 16 38 17h191q20 0 24.5 -10.5t-10.5 -26.5l-389 -394z" glyph-name="afii10076" horiz-adv-x="1146" unicode="к"/><glyph d="M1137 1004q31 0 30 -31v-942q0 -31 -30 -31h-154q-31 0 -31 31v794h-477v-413q0 -207 -99.5 -314.5t-271.5 -107.5q-18 0 -24 18l-47 158q-8 23 16 22q96 0 153.5 64.5t57.5 189.5v531q0 31 31 31h846z" glyph-name="afii10077" horiz-adv-x="1284" unicode="л"/><glyph d="M1356 1004q31 0 30 -31v-942q0 -31 -30 -31h-154q-31 0 -31 31v612l-299 -620q-10 -23 -34 -23h-172q-25 0 -35 23l-297 618v-610q0 -31 -31 -31h-153q-31 0 -31 31v942q0 31 31 31h200q23 0 35 -23l367 -752l368 752q12 23 35 23h201z" glyph-name="afii10078" horiz-adv-x="1503" unicode="м"/><glyph d="M1047 1004q31 0 30 -31v-942q0 -31 -30 -31h-154q-31 0 -31 31v383h-528v-383q0 -31 -31 -31h-153q-31 0 -31 31v942q0 31 31 31h153q31 0 31 -31v-381h528v381q0 31 31 31h154z" glyph-name="afii10079" horiz-adv-x="1193" unicode="н"/><glyph d="M612 -20q-217 0 -365.5 151.5t-148.5 370.5q0 221 148.5 372.5t365.5 151.5q215 0 364.5 -151.5t149.5 -372.5q0 -219 -149.5 -370.5t-364.5 -151.5zM612 178q129 0 218.5 92t89.5 232q0 141 -88.5 234t-219.5 93t-219 -93t-88 -234q0 -139 89 -231.5t218 -92.5z" glyph-name="afii10080" horiz-adv-x="1222" unicode="о"/><glyph d="M1047 1004q31 0 30 -31v-942q0 -31 -30 -31h-154q-31 0 -31 31v794h-528v-794q0 -31 -31 -31h-153q-31 0 -31 31v942q0 31 31 31h897z" glyph-name="afii10081" horiz-adv-x="1193" unicode="п"/><glyph d="M662 1024q211 0 350 -151.5t139 -372.5q0 -215 -139.5 -364.5t-349.5 -149.5q-197 0 -318 147v-491q0 -31 -31 -31h-153q-31 0 -31 31v1331q0 31 31 31h133q27 0 31 -31l8 -117q123 168 330 168zM641 182q131 0 217 91.5t86 228.5q0 141 -86 234t-217 93t-217 -95 t-86 -232t85 -228.5t218 -91.5z" glyph-name="afii10082" unicode="р"/><glyph d="M608 184q139 0 252 109q25 20 45 0l90 -86q20 -20 2 -43q-156 -178 -391 -178q-215 0 -361.5 150.5t-146.5 367.5q0 219 146.5 369.5t361.5 150.5q229 0 385 -178q18 -23 -2 -43l-90 -86q-20 -20 -45 2q-41 37 -64.5 53t-73.5 35.5t-108 19.5q-133 0 -218 -93t-85 -230 q0 -135 86 -227.5t217 -92.5z" glyph-name="afii10083" horiz-adv-x="1091" unicode="с"/><glyph d="M829 1004q31 0 31 -31v-117q0 -31 -31 -31h-247v-794q0 -31 -31 -31h-154q-31 0 -30 31v794h-248q-31 0 -31 31v117q0 31 31 31h710z" glyph-name="afii10084" horiz-adv-x="946" unicode="т"/><glyph d="M1042 1004q37 0 25 -35l-528 -1334q-10 -25 -37 -24h-154q-37 0 -24 35l143 350l-385 973q-12 35 24 35h156q29 0 37 -25l274 -729l275 729q8 25 37 25h157z" glyph-name="afii10085" horiz-adv-x="1128" unicode="у"/><glyph d="M1442 1026q211 0 350 -152.5t139 -373.5t-139 -374t-350 -153q-197 0 -326 160v-491q0 -31 -31 -31h-153q-31 0 -31 31v493q-131 -160 -326 -160q-211 0 -349 153t-138 374t138.5 373.5t348.5 152.5q199 0 326 -158v490q0 31 31 31h153q31 0 31 -31v-496q127 162 326 162 zM598 172q131 0 217 96.5t86 231.5q0 137 -86 234t-217 97t-217 -94t-86 -237q0 -139 86 -233.5t217 -94.5zM1419 170q131 0 218 95t87 236.5t-87 234.5t-218 93q-129 0 -216 -96t-87 -231q0 -137 87 -234.5t216 -97.5z" glyph-name="afii10086" horiz-adv-x="2017" unicode="ф"/><glyph d="M985 37q10 -16 4 -26.5t-24 -10.5h-174q-23 0 -37 20l-211 328l-211 -328q-14 -20 -37 -20h-174q-18 0 -24.5 10t3.5 27l324 477l-307 453q-10 16 -4 26.5t24 10.5h174q23 0 37 -21l195 -303l196 303q12 20 37 21h174q18 0 24.5 -10.5t-3.5 -26.5l-309 -453z" glyph-name="afii10087" horiz-adv-x="1085" unicode="х"/><glyph d="M1159 178q31 0 31 -31v-247q0 -31 -31 -31h-153q-31 0 -31 31v100h-825q-31 0 -31 31v942q0 31 31 31h153q31 0 31 -31v-795h528v795q0 31 31 31h154q31 0 30 -31v-795h82z" glyph-name="afii10088" horiz-adv-x="1271" unicode="ц"/><glyph d="M1026 1004q31 0 31 -31v-942q0 -31 -31 -31h-154q-31 0 -30 31v381q-141 -160 -355 -160q-78 0 -145.5 20.5t-126.5 65.5t-93 127t-34 192v316q0 31 31 31h153q31 0 31 -31v-314q0 -117 58.5 -178t168.5 -61q184 0 312 182v371q0 31 30 31h154z" glyph-name="afii10089" horiz-adv-x="1173" unicode="ч"/><glyph d="M1348 1004q31 0 30 -31v-942q0 -31 -30 -31h-1198q-31 0 -31 31v942q0 31 31 31h153q31 0 31 -31v-795h307v795q0 31 31 31h153q31 0 31 -31v-795h307v795q0 31 31 31h154z" glyph-name="afii10090" horiz-adv-x="1495" unicode="ш"/><glyph d="M1477 178q31 0 30 -31v-247q0 -31 -30 -31h-154q-31 0 -31 31v100h-1142q-31 0 -31 31v942q0 31 31 31h153q31 0 31 -31v-795h307v795q0 31 31 31h153q31 0 31 -31v-795h307v795q0 31 31 31h154q31 0 30 -31v-795h99z" glyph-name="afii10091" horiz-adv-x="1589" unicode="щ"/><glyph d="M686 668q207 0 318.5 -85t111.5 -249t-111.5 -249t-318.5 -85h-475q-31 0 -31 31v794h-88q-31 0 -31 31v117q0 31 31 31h273q31 0 30 -31v-305h291zM690 170q219 0 219 164q0 166 -219 166h-295v-330h295z" glyph-name="afii10092" horiz-adv-x="1193" unicode="ъ"/><glyph d="M625 668q207 0 318.5 -85t111.5 -249t-112 -249t-318 -85h-475q-31 0 -31 31v942q0 31 31 31h153q31 0 31 -31v-305h291zM1421 1004q31 0 31 -31v-942q0 -31 -31 -31h-153q-31 0 -31 31v942q0 31 31 31h153zM629 170q219 0 219 164q0 166 -219 166h-295v-330h295z" glyph-name="afii10093" horiz-adv-x="1568" unicode="ы"/><glyph d="M625 668q207 0 318.5 -85t111.5 -249t-112 -249t-318 -85h-475q-31 0 -31 31v942q0 31 31 31h153q31 0 31 -31v-305h291zM629 170q219 0 219 164q0 166 -219 166h-295v-330h295z" glyph-name="afii10094" horiz-adv-x="1132" unicode="ь"/><glyph d="M475 1024q215 0 361.5 -150.5t146.5 -369.5q0 -217 -146.5 -367.5t-361.5 -150.5q-236 0 -391 178q-18 23 2 43l90 86q20 20 45 0q113 -109 252 -109q111 0 189.5 65.5t103.5 170.5h-332q-31 0 -31 31v100q0 31 31 31h334q-23 109 -102.5 177t-192.5 68 q-57 0 -107.5 -19.5t-74 -35.5t-64.5 -53q-25 -23 -45 -2l-90 86q-20 20 -2 43q156 178 385 178z" glyph-name="afii10095" horiz-adv-x="1071" unicode="э"/><glyph d="M1004 1026q215 0 364.5 -151.5t149.5 -372.5q0 -219 -149.5 -370.5t-364.5 -151.5q-193 0 -334.5 121.5t-171.5 310.5h-164v-383q0 -31 -31 -31h-153q-31 0 -31 31v942q0 31 31 30h153q31 0 31 -30v-381h162q31 190 172 313t336 123zM1003.5 178q129.5 0 218.5 92t89 232 q0 141 -88 234t-219.5 93t-219.5 -93t-88 -234q0 -139 89 -231.5t218.5 -92.5z" glyph-name="afii10096" horiz-adv-x="1593" unicode="ю"/><glyph d="M997 1004q31 0 31 -31v-942q0 -31 -31 -31h-153q-31 0 -31 31v305h-205l-286 -320q-14 -16 -37 -16h-164q-20 0 -25.5 11.5t8.5 25.5l283 309q-299 51 -299 324q0 164 111.5 249t318.5 85h479zM514 506h299v330h-299q-219 0 -219 -166q0 -164 219 -164z" glyph-name="afii10097" horiz-adv-x="1144" unicode="я"/><glyph d="M405.5 1276q-47.5 0 -81 33.5t-33.5 83.5q0 45 33.5 78.5t81 33.5t81 -32.5t33.5 -79.5q0 -49 -33.5 -83t-81 -34zM817 1276q-47 0 -81 33.5t-34 83.5q0 47 34 79.5t81 32.5t81 -33.5t34 -78.5q0 -49 -34 -83t-81 -34zM596 1024q211 0 343 -143.5t132 -343.5 q0 -61 -13.5 -87t-51.5 -26h-695q20 -119 106.5 -188.5t219.5 -69.5q135 0 244 82q27 18 43 2l65 -64q23 -23 0 -47q-150 -154 -373 -153q-227 0 -372.5 150.5t-145.5 369.5t141.5 368.5t356.5 149.5zM598 838q-115 0 -194.5 -73t-94.5 -192h572q-12 119 -90 192t-193 73z " glyph-name="afii10071" horiz-adv-x="1167" unicode="ё"/><glyph d="M377 1112q-41 0 -25 35l123 258q10 25 35 25h129q41 0 25 -35l-123 -258q-10 -25 -35 -25h-129zM774 1004q31 0 31 -31v-117q0 -31 -31 -31h-440v-794q0 -31 -31 -31h-153q-31 0 -31 31v942q0 31 31 31h624z" glyph-name="afii10100" horiz-adv-x="880" unicode="ѓ"/><glyph d="M995 207q20 -20 2 -43q-156 -178 -391 -178q-215 0 -361.5 150.5t-146.5 367.5q0 219 146.5 369.5t361.5 150.5q229 0 385 -178q18 -23 -2 -43l-90 -86q-20 -20 -45 2q-41 37 -64.5 53t-73.5 35.5t-108 19.5q-113 0 -192.5 -68.5t-102.5 -176.5h334q31 0 31 -31v-100 q0 -31 -31 -31h-332q25 -104 104 -170t189 -66q139 0 252 109q25 20 45 0z" glyph-name="afii10101" horiz-adv-x="1071" unicode="є"/><glyph d="M22.5 1214q-47.5 0 -81 34t-33.5 83q0 45 33.5 79t81 34t81 -33t33.5 -80q0 -49 -33.5 -83t-81 -34zM434 1214q-47 0 -81 34t-34 83q0 47 34 80t81 33t81 -34t34 -79q0 -49 -34 -83t-81 -34zM119 973q0 31 31 31h153q31 0 31 -31v-942q0 -31 -31 -31h-153q-31 0 -31 31 v942z" glyph-name="afii10104" horiz-adv-x="450" unicode="ї"/><glyph d="M514 1112q-41 0 -25 35l123 258q10 25 35 25h129q41 0 25 -35l-123 -258q-10 -25 -35 -25h-129zM1069 37q12 -16 8 -26.5t-24 -10.5h-191q-23 0 -37 16l-362 418l-129 -131v-272q0 -31 -31 -31h-153q-31 0 -31 31v942q0 31 31 31h153q31 0 31 -31v-404l414 418 q16 16 38 17h191q20 0 24.5 -10.5t-10.5 -26.5l-389 -394z" glyph-name="afii10109" horiz-adv-x="1146" unicode="ќ"/><glyph d="M735 1403q6 29 33 29h76q33 0 28 -31q-10 -109 -91 -180.5t-208 -71.5t-208.5 71.5t-92.5 180.5q-2 31 29 31h76q27 0 33 -29q12 -53 55 -87t108.5 -34t107.5 34t54 87zM1042 1004q37 0 25 -35l-528 -1334q-10 -25 -37 -24h-154q-37 0 -24 35l143 350l-385 973 q-12 35 24 35h156q29 0 37 -25l274 -729l275 729q8 25 37 25h157z" glyph-name="afii10110" horiz-adv-x="1128" unicode="ў"/><glyph d="M905 1538q31 0 31 -31v-243q0 -31 -31 -31h-532v-1202q0 -31 -31 -31h-162q-31 0 -30 31v1372q0 31 30 31h555v73q0 31 31 31h139z" glyph-name="afii10050" horiz-adv-x="1013" unicode="Ґ"/><glyph d="M774 1130q31 0 31 -30v-244q0 -31 -31 -31h-440v-794q0 -31 -31 -31h-153q-31 0 -31 31v942q0 31 31 31h440v96q0 31 31 30h153z" glyph-name="afii10098" horiz-adv-x="880" unicode="ґ"/><glyph d="M1022 1567l-123 258q-16 35 25 35h129q25 0 34 -25l123 -258q16 -35 -24 -35h-129q-25 0 -35 25zM2163 1434q35 0 24 -35l-442 -1374q-8 -25 -37 -25h-166q-29 0 -35 25l-364 1075l-367 -1075q-10 -25 -37 -25h-164q-33 0 -38 25l-437 1374q-14 35 25 35h166q27 0 35 -25 l333 -1122l373 1122q2 14 17 21q8 4 16 4h154q10 0 18 -4q8 -6 14 -21l371 -1122l340 1122q6 25 35 25h166z" glyph-name="Wgrave" horiz-adv-x="2285" unicode="Ẁ"/><glyph d="M809 1137l-123 258q-16 35 25 35h129q25 0 34 -25l123 -258q16 -35 -24 -35h-129q-25 0 -35 25zM1755 1004q37 0 25 -35l-355 -944q-8 -25 -36 -25h-154q-27 0 -37 25l-268 698l-266 -698q-8 -25 -37 -25h-156q-27 0 -37 25l-352 944q-12 35 24 35h150q27 0 37 -25 l262 -733l268 733q6 18 21 20q8 4 16 5h139q8 0 17 -5q14 -2 20 -20l271 -733l260 733q10 25 37 25h151z" glyph-name="wgrave" horiz-adv-x="1859" unicode="ẁ"/><glyph d="M1085 1542q-41 0 -24 35l123 258q10 25 35 25h129q41 0 24 -35l-123 -258q-10 -25 -35 -25h-129zM2163 1434q35 0 24 -35l-442 -1374q-8 -25 -37 -25h-166q-29 0 -35 25l-364 1075l-367 -1075q-10 -25 -37 -25h-164q-33 0 -38 25l-437 1374q-14 35 25 35h166q27 0 35 -25 l333 -1122l373 1122q2 14 17 21q8 4 16 4h154q10 0 18 -4q8 -6 14 -21l371 -1122l340 1122q6 25 35 25h166z" glyph-name="Wacute" horiz-adv-x="2285" unicode="Ẃ"/><glyph d="M872 1112q-41 0 -24 35l123 258q10 25 35 25h129q41 0 24 -35l-123 -258q-10 -25 -35 -25h-129zM1755 1004q37 0 25 -35l-355 -944q-8 -25 -36 -25h-154q-27 0 -37 25l-268 698l-266 -698q-8 -25 -37 -25h-156q-27 0 -37 25l-352 944q-12 35 24 35h150q27 0 37 -25 l262 -733l268 733q6 18 21 20q8 4 16 5h139q8 0 17 -5q14 -2 20 -20l271 -733l260 733q10 25 37 25h151z" glyph-name="wacute" horiz-adv-x="1859" unicode="ẃ"/><glyph d="M940 1645q-47 0 -81 33.5t-34 82.5q0 45 34 79t81 34t81 -33t34 -80q0 -49 -34 -82.5t-81 -33.5zM1352 1645q-47 0 -81 33.5t-34 82.5q0 47 34 80t81 33t80.5 -34t33.5 -79q0 -49 -33.5 -82.5t-80.5 -33.5zM2163 1434q35 0 24 -35l-442 -1374q-8 -25 -37 -25h-166 q-29 0 -35 25l-364 1075l-367 -1075q-10 -25 -37 -25h-164q-33 0 -38 25l-437 1374q-14 35 25 35h166q27 0 35 -25l333 -1122l373 1122q2 14 17 21q8 4 16 4h154q10 0 18 -4q8 -6 14 -21l371 -1122l340 1122q6 25 35 25h166z" glyph-name="Wdieresis" horiz-adv-x="2285" unicode="Ẅ"/><glyph d="M727 1214q-47 0 -81 34t-34 83q0 45 34 79t81 34t81 -33t34 -80q0 -49 -34 -83t-81 -34zM1139 1214q-47 0 -81 34t-34 83q0 47 34 80t81 33t80.5 -34t33.5 -79q0 -49 -33.5 -83t-80.5 -34zM1755 1004q37 0 25 -35l-355 -944q-8 -25 -36 -25h-154q-27 0 -37 25l-268 698 l-266 -698q-8 -25 -37 -25h-156q-27 0 -37 25l-352 944q-12 35 24 35h150q27 0 37 -25l262 -733l268 733q6 18 21 20q8 4 16 5h139q8 0 17 -5q14 -2 20 -20l271 -733l260 733q10 25 37 25h151z" glyph-name="wdieresis" horiz-adv-x="1859" unicode="ẅ"/><glyph d="M514 1567l-123 258q-16 35 25 35h129q25 0 35 -25l122 -258q16 -35 -24 -35h-129q-25 0 -35 25zM1151 1434q41 0 20 -37l-421 -715v-651q0 -31 -31 -31h-162q-31 0 -31 31v651l-422 715q-20 37 21 37h170q25 0 37 -21l305 -522l305 522q12 20 37 21h172z" glyph-name="Ygrave" horiz-adv-x="1273" unicode="Ỳ"/><glyph d="M352 1430h129q25 0 35 -25l123 -258q16 -35 -25 -35h-129q-25 0 -34 25l-123 258q-17 35 24 35zM1042 1004q37 0 25 -35l-528 -1334q-10 -25 -37 -24h-154q-37 0 -24 35l143 350l-385 973q-12 35 24 35h156q29 0 37 -25l274 -729l275 729q8 25 37 25h157z" glyph-name="ygrave" horiz-adv-x="1148" unicode="ỳ"/><glyph d="M1137 664q31 0 30 -31v-119q0 -31 -30 -31h-983q-31 0 -31 31v119q0 31 31 31h983z" glyph-name="endash" horiz-adv-x="1290" unicode="–"/><glyph d="M1260 664q31 0 30 -31v-119q0 -31 -30 -31h-1106q-31 0 -31 31v119q0 31 31 31h1106z" glyph-name="emdash" horiz-adv-x="1413" unicode="—"/><glyph d="M229 1174q49 -6 82 -41t33 -84q0 -53 -39 -90t-92 -37q-55 0 -93 42t-38 117q0 86 47 192.5t127 196.5l59 -38q-80 -121 -86 -258z" glyph-name="quoteleft" horiz-adv-x="425" unicode="‘"/><glyph d="M213 1466q55 0 93 -42t38 -117q0 -86 -47 -192.5t-127 -196.5l-59 38q80 121 86 258q-49 6 -82 41t-33 84q0 53 39 90t92 37z" glyph-name="quoteright" horiz-adv-x="425" unicode="’"/><glyph d="M213 223q55 0 93 -42t38 -118q0 -86 -47 -192.5t-127 -196.5l-59 39q80 121 86 258q-49 6 -82 41t-33 84q0 53 39 90t92 37z" glyph-name="quotesinglbase" horiz-adv-x="415" unicode="‚"/><glyph d="M229 1174q49 -6 82 -41t33 -84q0 -53 -39 -90t-92 -37q-55 0 -93 42t-38 117q0 86 47 192.5t127 196.5l59 -38q-80 -121 -86 -258zM578 1174q49 -6 81.5 -41t32.5 -84q0 -53 -39 -90t-92 -37q-55 0 -93 42t-38 117q0 86 47 192.5t127 196.5l60 -38q-80 -121 -86 -258z " glyph-name="quotedblleft" horiz-adv-x="774" unicode="“"/><glyph d="M213 1466q55 0 93 -42t38 -117q0 -86 -47 -192.5t-127 -196.5l-59 38q80 121 86 258q-49 6 -82 41t-33 84q0 53 39 90t92 37zM561 1466q55 0 93 -42t38 -117q0 -86 -47 -192.5t-127 -196.5l-59 38q80 121 86 258q-49 6 -82 41t-33 84q0 53 39 90t92 37z" glyph-name="quotedblright" horiz-adv-x="774" unicode="”"/><glyph d="M213 223q55 0 93 -42t38 -118q0 -86 -47 -192.5t-127 -196.5l-59 39q80 121 86 258q-49 6 -82 41t-33 84q0 53 39 90t92 37zM565 223q55 0 93 -42t38 -118q0 -86 -47 -192.5t-127 -196.5l-59 39q80 121 86 258q-49 6 -82 41t-33 84q0 53 39 90t92 37z" glyph-name="quotedblbase" horiz-adv-x="778" unicode="„"/><glyph d="M774 1184q31 0 31 -31v-106q0 -31 -31 -31h-221v-221q0 -31 -31 -31h-106q-31 0 -31 31v221h-221q-31 0 -31 31v106q0 31 31 31h221v219q0 31 31 31h106q31 0 31 -31v-219h221z" glyph-name="dagger" horiz-adv-x="937" unicode="†"/><glyph d="M774 1184q31 0 31 -31v-106q0 -31 -31 -31h-221v-221q0 -31 -31 -31h-106q-31 0 -31 31v221h-221q-31 0 -31 31v106q0 31 31 31h221v219q0 31 31 31h106q31 0 31 -31v-219h221zM774 406q31 0 31 -31v-107q0 -31 -31 -30h-221v-222q0 -31 -31 -30h-106q-31 0 -31 30v222 h-221q-31 0 -31 30v107q0 31 31 31h221v219q0 31 31 30h106q31 0 31 -30v-219h221z" glyph-name="daggerdbl" horiz-adv-x="937" unicode="‡"/><glyph d="M307 391q-72 0 -123 50.5t-51 122t51.5 121.5t123 50t121.5 -50t50 -121.5t-51 -122t-121 -50.5z" glyph-name="bullet" horiz-adv-x="612" unicode="•"/><glyph d="M217 -27q-53 0 -89 36t-36 89.5t36 89t89 35.5t89 -35.5t36 -89t-36 -89.5t-89 -36zM723 -27q-51 0 -88 36t-37 89.5t37 89t88 35.5t88 -35.5t37 -89t-37 -89.5t-88 -36zM1229 -27q-53 0 -89 36t-36 89.5t36 89t89 35.5t89 -35.5t36 -89t-36 -89.5t-89 -36z" glyph-name="ellipsis" horiz-adv-x="1445" unicode="…"/><glyph d="M381 1444q117 0 199 -80t82 -196.5t-82 -197.5t-199 -81q-115 0 -197 81t-82 197.5t81 196.5t198 80zM1139 1436l125 -82l-910 -1356l-125 84zM381 1300q-55 0 -94 -37.5t-39 -95t39 -95.5t94 -38q57 0 96 38t39 95.5t-39 95t-96 37.5zM1110 545q115 0 197 -81t82 -197.5 t-81 -196.5t-198 -80t-199 80t-82 196.5t82 197.5t199 81zM1829 545q115 0 196.5 -81t81.5 -197.5t-80.5 -196.5t-197.5 -80t-199 80t-82 196.5t82 197.5t199 81zM1110 401q-55 0 -95 -38.5t-40 -96.5q0 -55 40 -93t95 -38t94 38t39 93q0 57 -39 96t-94 39zM1829 401 q-55 0 -95 -38.5t-40 -96.5q0 -55 40 -93t95 -38t94 38t39 93q0 57 -39 96t-94 39z" glyph-name="perthousand" horiz-adv-x="2209" unicode="‰"/><glyph d="M92 647q0 23 17 37l213 186q14 12 25 8t11 -24v-98q0 -23 -16 -37l-158 -135l158 -135q16 -14 16 -37v-99q0 -20 -11 -25t-25 7l-213 188q-16 14 -17 37v127z" glyph-name="guilsinglleft" horiz-adv-x="450" unicode="‹"/><glyph d="M358 688v-127q0 -23 -16 -37l-213 -188q-14 -12 -25.5 -7t-11.5 25v99q0 23 17 36l157 136l-157 135q-16 14 -17 37v98q0 20 11.5 24.5t25.5 -8.5l213 -186q16 -14 16 -37z" glyph-name="guilsinglright" horiz-adv-x="450" unicode="›"/><glyph d="M641 1434l-881 -1434h-98l893 1434h86z" glyph-name="fraction" horiz-adv-x="303" unicode="⁄"/><glyph d="M1300 324l103 -107q18 -23 -2 -43q-217 -201 -492 -201q-246 0 -438 145.5t-260 375.5h-98q-31 0 -31 30v107q0 31 31 31h69q-2 16 -2 49v37h-67q-31 0 -31 30v107q0 31 31 30h94q66 236 259 385.5t443 149.5q276 0 492 -201q23 -18 2 -43l-103 -106q-18 -20 -43 0 q-158 133 -350 133q-156 0 -280.5 -87t-180.5 -231h236q31 0 31 -30v-107q0 -31 -31 -30h-272q-2 -12 -2 -37q0 -33 2 -49h272q31 0 31 -31v-107q0 -31 -31 -30h-229q59 -137 181 -219t273 -82q197 0 350 133q25 21 43 -2z" glyph-name="Euro" horiz-adv-x="1488" unicode="€"/><glyph d="M1151 748h-240q-57 -39 -174 -86h414q35 0 31 -31v-107q4 -31 -31 -30h-717q-35 -45 -35 -101q0 -90 74 -149.5t189 -59.5q168 0 327 150q23 20 45 2l92 -98q20 -20 4 -41q-66 -96 -191.5 -159t-274.5 -63q-197 0 -340.5 116t-143.5 296q0 57 13 107h-74q-31 0 -31 30 v107q0 31 31 31h174q49 47 125 86h-299q-31 0 -31 30v107q0 31 31 30h674q90 59 90 148q0 82 -61.5 131t-159.5 49q-143 0 -291 -129q-20 -18 -43 4l-84 99q-16 23 0 43q176 190 422 190q180 0 306 -106.5t126 -276.5q0 -88 -31 -152h84q35 0 31 -30v-107q4 -30 -31 -30z " glyph-name="uni20B4" horiz-adv-x="1269" unicode="₴"/><glyph d="M475 1434q10 0 10 -11v-51q0 -10 -10 -10h-125v-287q0 -10 -10 -10h-61q-10 0 -11 10v287h-125q-10 0 -10 10v51q0 10 10 11h332zM1004 1434q10 0 10 -11v-348q0 -10 -10 -10h-60q-10 0 -10 10v217l-113 -219q-4 -8 -12 -8h-45q-8 0 -12 8l-115 219v-217q0 -10 -10 -10 h-60q-10 0 -10 10v348q0 10 10 11h70q10 0 12 -7l135 -262l140 262q2 6 12 7h68z" glyph-name="trademark" horiz-adv-x="1146" unicode="™"/><glyph d="M213 1436v-535h-76v461h-55v74h131zM1075 1434l-880 -1434h-99l893 1434h86zM924 539q74 0 117.5 -41t43.5 -97q0 -70 -61 -108q88 -43 88 -135q0 -70 -55.5 -116t-132.5 -46q-76 0 -131.5 46t-55.5 116q0 92 88 135q-61 39 -61 108q0 53 44 95.5t116 42.5zM924 475 q-41 0 -62.5 -21.5t-21.5 -52t25.5 -55t58.5 -24.5q35 0 59.5 23.5t24.5 55.5q0 74 -84 74zM924 258q-45 0 -78 -28.5t-33 -71.5q0 -41 33 -70t78 -29q49 0 79.5 27t30.5 72t-30.5 72.5t-79.5 27.5z" glyph-name="oneeighth" horiz-adv-x="1193" unicode="⅛"/><glyph d="M268 1440q66 0 115 -42t49 -98q0 -66 -61 -108q86 -37 86 -135q0 -70 -56.5 -117t-132.5 -47q-84 0 -137 55.5t-49 130.5h78q-4 -49 27.5 -85t80.5 -36q45 0 78 28t33 71q0 106 -152 96v61q129 2 129 86q0 33 -25.5 54.5t-62.5 21.5q-45 0 -70.5 -30.5t-23.5 -83.5h-78 q-2 78 47 128t125 50zM1122 1434l-880 -1434h-99l893 1434h86zM967 539q74 0 117.5 -41t43.5 -97q0 -70 -61 -108q88 -43 88 -135q0 -70 -55.5 -116t-132.5 -46q-76 0 -131.5 46t-55.5 116q0 92 88 135q-61 39 -61 108q0 53 44 95.5t116 42.5zM967 475q-41 0 -62.5 -21.5 t-21.5 -52t25.5 -55t58.5 -24.5q37 0 60.5 23.5t23.5 55.5q0 74 -84 74zM967 258q-45 0 -78 -28.5t-33 -71.5q0 -41 33 -70t78 -29q49 0 79.5 27t30.5 72t-30.5 72.5t-79.5 27.5z" glyph-name="threeeighths" horiz-adv-x="1236" unicode="⅜"/><glyph d="M412 1436v-66h-213l-17 -119q45 20 92 21q72 0 129.5 -54.5t57.5 -134t-57.5 -135t-137.5 -55.5q-68 0 -120 38t-64 89l68 39q4 -41 35.5 -71t80.5 -30q47 0 82 36t35 89q0 51 -34 87t-75 36q-72 0 -116 -59l-66 16l37 273h283zM1122 1434l-880 -1434h-99l893 1434h86z M971 539q74 0 118 -41t44 -97q0 -70 -62 -108q88 -43 88 -135q0 -70 -55 -116t-133 -46q-76 0 -131.5 46t-55.5 116q0 92 88 135q-61 39 -61 108q0 53 44 95.5t116 42.5zM971 475q-41 0 -62.5 -21.5t-21.5 -52t25.5 -55t58.5 -24.5q37 0 60.5 23.5t23.5 55.5q0 74 -84 74z M971 258q-45 0 -78 -28.5t-33 -71.5q0 -41 33 -70t78 -29q49 0 79.5 27t30.5 72t-30.5 72.5t-79.5 27.5z" glyph-name="fiveeighths" horiz-adv-x="1241" unicode="⅝"/><glyph d="M436 1436l-209 -535h-80l183 469h-248v66h354zM1077 1434l-880 -1434h-99l893 1434h86zM926 539q74 0 117.5 -41t43.5 -97q0 -70 -61 -108q88 -43 88 -135q0 -70 -55 -116t-133 -46q-76 0 -131.5 46t-55.5 116q0 92 88 135q-61 39 -61 108q0 53 44 95.5t116 42.5z M926 475q-41 0 -62.5 -21.5t-21.5 -52t25.5 -55t58.5 -24.5q37 0 60.5 23.5t23.5 55.5q0 74 -84 74zM926 258q-45 0 -78 -28.5t-33 -71.5q0 -41 33 -70t78 -29q49 0 79.5 27t30.5 72t-30.5 72.5t-79.5 27.5z" glyph-name="seveneighths" horiz-adv-x="1196" unicode="⅞"/><glyph d="M887 834q150 -195 149 -379q0 -203 -139 -342.5t-344 -139.5q-203 0 -342 139.5t-139 342.5q0 207 143 342t350 135h2l-313 401q-16 20 6 43l105 88q23 20 43 -6zM553 172q117 0 196.5 80t79.5 203t-79.5 204.5t-196.5 81.5t-195.5 -81.5t-78.5 -204.5t78.5 -203 t195.5 -80z" glyph-name="partialdiff" horiz-adv-x="1118" unicode="∂"/><glyph d="M123 1608q0 31 31 30h1142q31 0 31 -30v-1966q0 -31 -31 -31h-145q-31 0 -31 31v1796h-788v-1796q0 -31 -31 -31h-147q-31 0 -31 31v1966z" glyph-name="product" horiz-adv-x="1449" unicode="∏"/><glyph d="M1266 1638q31 0 30 -30v-140q0 -31 -30 -30h-885l549 -791q12 -20 0 -43l-549 -792h885q31 0 30 -31v-139q0 -31 -30 -31h-1112q-31 0 -31 31v149q0 18 12 37l551 797l-551 796q-12 18 -12 37v150q0 31 31 30h1112z" glyph-name="summation" horiz-adv-x="1419" unicode="∑"/><glyph d="M815 668q31 0 31 -31v-107q0 -31 -31 -30h-651q-31 0 -31 30v107q0 31 31 31h651z" glyph-name="minus" horiz-adv-x="978" unicode="−"/><glyph d="M1341 1638q37 0 27 -34l-491 -1966q-6 -27 -33 -27h-191q-29 0 -35 24l-264 885h-200q-31 0 -31 31v139q0 31 31 31h311q29 0 35 -27l243 -860l441 1778q6 27 33 26h124z" glyph-name="radical" horiz-adv-x="1492" unicode="√"/><glyph d="M1227 872q145 0 247.5 -96t102.5 -239q0 -147 -101.5 -244.5t-248.5 -97.5q-203 0 -389 221q-182 -221 -387 -221q-150 0 -251.5 96t-101.5 246q0 145 101.5 240t251.5 95q203 0 387 -219q186 219 389 219zM457 336q150 0 291 199q-139 197 -291 196q-90 0 -146.5 -56.5 t-56.5 -140t56.5 -141t146.5 -57.5zM1217 336q90 0 146 57.5t56 141t-56 140t-146 56.5q-152 0 -289 -196q137 -199 289 -199z" glyph-name="infinity" horiz-adv-x="1673" unicode="∞"/><glyph d="M823 1606q20 -12 21 -37v-133q0 -18 -10.5 -24.5t-26.5 1.5q-63 35 -117 35q-72 0 -97.5 -34t-25.5 -101v-1397q0 -305 -317 -305q-94 0 -152 33q-20 12 -20 37v133q0 43 37 22q63 -35 114 -35q74 0 98.5 34t24.5 102v1396q0 152 81 228.5t237 76.5q94 1 153 -32z" glyph-name="integral" horiz-adv-x="823" unicode="∫"/><glyph d="M336 872q90 2 189.5 -75.5t152.5 -77.5q74 2 100 67q6 20 25 19h51q10 2 16.5 -4t6.5 -19q-8 -96 -66.5 -148t-144.5 -52q-72 0 -133.5 38.5t-112.5 76.5t-98 38q-76 0 -101 -67q-6 -18 -24 -19h-52q-27 0 -22 29q12 96 69.5 146t143.5 48zM336 545q90 2 189.5 -76 t152.5 -78q74 2 100 68q6 20 25 18h51q10 2 16.5 -4t6.5 -18q-8 -96 -66.5 -148.5t-144.5 -52.5q-72 0 -133.5 39t-112.5 77t-98 38q-76 0 -101 -68q-6 -18 -24 -18h-52q-27 0 -22 28q12 96 69.5 146.5t143.5 48.5z" glyph-name="approxequal" horiz-adv-x="999" unicode="≈"/><glyph d="M815 647h-207l-49 -127h256q31 0 31 -31v-106q0 -31 -31 -31h-321l-127 -327q-10 -25 -37 -25h-115q-37 0 -25 35l123 317h-149q-31 0 -31 31v106q0 31 31 31h215l49 127h-264q-31 0 -31 31v106q0 31 31 31h330l118 309q10 25 37 25h115q37 0 24 -35l-116 -299h143 q31 0 31 -31v-106q0 -31 -31 -31z" glyph-name="notequal" horiz-adv-x="978" unicode="≠"/><glyph d="M799 1214q14 8 23 2t9 -22v-111q0 -23 -20 -32l-512 -267l512 -266q20 -10 20 -33v-112q0 -16 -9 -21.5t-23 2.5l-652 353q-18 10 -18 32v92q0 20 18 33zM811 162q31 0 31 -31v-106q0 -31 -31 -31h-651q-31 0 -31 31v106q0 31 31 31h651z" glyph-name="lessequal" horiz-adv-x="962" unicode="≤"/><glyph d="M180 1214l651 -350q18 -12 19 -33v-92q0 -23 -19 -32l-651 -353q-14 -8 -23.5 -3t-9.5 22v112q0 23 21 33l512 266l-512 267q-20 10 -21 32v111q0 16 9.5 22t23.5 -2zM168 162h651q31 0 31 -31v-106q0 -31 -31 -31h-651q-31 0 -31 31v106q0 31 31 31z" glyph-name="greaterequal" horiz-adv-x="983" unicode="≥"/><glyph d="M696 1434q27 0 35 -23l299 -674q8 -20 0 -41l-299 -673q-8 -23 -35 -23h-231q-27 0 -35 23l-299 673q-8 20 0 41l299 674q8 23 35 23h231zM582 131l258 586l-258 586l-260 -586z" glyph-name="lozenge" horiz-adv-x="1161" unicode="◊"/><glyph d="M1589 1217q20 -20 0 -43l-971 -971q-20 -23 -43 0l-489 489q-20 20 0 43l100 99q20 20 43 0l353 -353l850 850q23 20 43 0z" glyph-name="uni2713" horiz-adv-x="1675" unicode="✓"/><glyph d="M227 1214q-47 0 -80.5 34t-33.5 83q0 45 33.5 79t80.5 34t81 -33t34 -80q0 -49 -34 -83t-81 -34zM119 973q0 31 31 31h153q31 0 31 -31v-942q0 -31 -31 -31h-153q-31 0 -31 31v942z" glyph-name="i.aalt" horiz-adv-x="450"/><glyph d="M696 1475q20 -12 21 -37v-133q0 -41 -37 -21q-59 33 -115 33q-74 0 -98.5 -34t-24.5 -101v-178h213q31 0 31 -31v-117q0 -31 -31 -31h-213v-794q0 -31 -30 -31h-154q-31 0 -31 31v794h-118q-31 0 -31 31v117q0 31 31 31h118v198q0 305 318 305q92 1 151 -32z" glyph-name="f.aalt" horiz-adv-x="798"/><glyph d="M1006 162q27 -14 26 -35v-98q0 -33 -26 -35q-96 -12 -163 20.5t-83 106.5q-150 -147 -354 -148q-156 0 -237 79t-81 210t78 205t248 102l215 37q111 20 125 47q-6 190 -197 191q-186 0 -209 -142q-4 -23 -29 -22h-147q-33 0 -29 31q18 315 416 315q203 0 306.5 -98.5 t103.5 -282.5v-399q0 -66 37 -84zM301 286.5q0 -55.5 37 -91t113 -35.5q168 0 303 135v211q-14 -27 -115 -45l-186 -35q-86 -16 -119 -50t-33 -89.5z" glyph-name="a.salt" horiz-adv-x="1110"/><glyph d="M502 1112q-41 0 -25 35l123 258q10 25 35 25h129q41 0 24 -35l-122 -258q-10 -25 -35 -25h-129zM1006 162q27 -14 26 -35v-98q0 -33 -26 -35q-96 -12 -163 20.5t-83 106.5q-150 -147 -354 -148q-156 0 -237 79t-81 210t78 205t248 102l215 37q111 20 125 47 q-6 190 -197 191q-186 0 -209 -142q-4 -23 -29 -22h-147q-33 0 -29 31q18 315 416 315q203 0 306.5 -98.5t103.5 -282.5v-399q0 -66 37 -84zM301 286.5q0 -55.5 37 -91t113 -35.5q168 0 303 135v211q-14 -27 -115 -45l-186 -35q-86 -16 -119 -50t-33 -89.5z" glyph-name="aacute.aalt" horiz-adv-x="1110"/><glyph d="M561 1149q-127 0 -209 71.5t-92 180.5q-2 31 29 31h76q27 0 32 -29q12 -53 55.5 -87t109 -34t107.5 34t54 87q6 29 33 29h75q33 0 29 -31q-10 -109 -91 -180.5t-208 -71.5zM1006 162q27 -14 26 -35v-98q0 -33 -26 -35q-96 -12 -163 20.5t-83 106.5q-150 -147 -354 -148 q-156 0 -237 79t-81 210t78 205t248 102l215 37q111 20 125 47q-6 190 -197 191q-186 0 -209 -142q-4 -23 -29 -22h-147q-33 0 -29 31q18 315 416 315q203 0 306.5 -98.5t103.5 -282.5v-399q0 -66 37 -84zM301 286.5q0 -55.5 37 -91t113 -35.5q168 0 303 135v211 q-14 -27 -115 -45l-186 -35q-86 -16 -119 -50t-33 -89.5z" glyph-name="abreve.aalt" horiz-adv-x="1110"/><glyph d="M461 1180l-189 213q-12 14 -7 25.5t26 11.5h98q23 0 37 -17l135 -158l135 158q14 16 37 17h98q20 0 24.5 -11.5t-7.5 -25.5l-186 -213q-14 -16 -37 -17h-127q-23 1 -37 17zM1006 162q27 -14 26 -35v-98q0 -33 -26 -35q-96 -12 -163 20.5t-83 106.5q-150 -147 -354 -148 q-156 0 -237 79t-81 210t78 205t248 102l215 37q111 20 125 47q-6 190 -197 191q-186 0 -209 -142q-4 -23 -29 -22h-147q-33 0 -29 31q18 315 416 315q203 0 306.5 -98.5t103.5 -282.5v-399q0 -66 37 -84zM301 286.5q0 -55.5 37 -91t113 -35.5q168 0 303 135v211 q-14 -27 -115 -45l-186 -35q-86 -16 -119 -50t-33 -89.5z" glyph-name="uni01CE.aalt" horiz-adv-x="1110"/><glyph d="M291 1163q-20 0 -25.5 11.5t6.5 25.5l189 213q14 16 37 17h127q23 0 37 -17l186 -213q12 -14 8 -25.5t-25 -11.5h-98q-23 0 -37 17l-135 157l-135 -157q-14 -16 -37 -17h-98zM1006 162q27 -14 26 -35v-98q0 -33 -26 -35q-96 -12 -163 20.5t-83 106.5q-150 -147 -354 -148 q-156 0 -237 79t-81 210t78 205t248 102l215 37q111 20 125 47q-6 190 -197 191q-186 0 -209 -142q-4 -23 -29 -22h-147q-33 0 -29 31q18 315 416 315q203 0 306.5 -98.5t103.5 -282.5v-399q0 -66 37 -84zM301 286.5q0 -55.5 37 -91t113 -35.5q168 0 303 135v211 q-14 -27 -115 -45l-186 -35q-86 -16 -119 -50t-33 -89.5z" glyph-name="acircumflex.aalt" horiz-adv-x="1110"/><glyph d="M356 1214q-47 0 -80.5 34t-33.5 83q0 45 33.5 79t80.5 34t81 -33t34 -80q0 -49 -34 -83t-81 -34zM768 1214q-47 0 -81 34t-34 83q0 47 34 80t81 33t81 -34t34 -79q0 -49 -34 -83t-81 -34zM1006 162q27 -14 26 -35v-98q0 -33 -26 -35q-96 -12 -163 20.5t-83 106.5 q-150 -147 -354 -148q-156 0 -237 79t-81 210t78 205t248 102l215 37q111 20 125 47q-6 190 -197 191q-186 0 -209 -142q-4 -23 -29 -22h-147q-33 0 -29 31q18 315 416 315q203 0 306.5 -98.5t103.5 -282.5v-399q0 -66 37 -84zM301 286.5q0 -55.5 37 -91t113 -35.5 q168 0 303 135v211q-14 -27 -115 -45l-186 -35q-86 -16 -119 -50t-33 -89.5z" glyph-name="adieresis.aalt" horiz-adv-x="1110"/><glyph d="M438 1137l-123 258q-16 35 25 35h129q25 0 35 -25l123 -258q16 -35 -25 -35h-129q-25 0 -35 25zM1006 162q27 -14 26 -35v-98q0 -33 -26 -35q-96 -12 -163 20.5t-83 106.5q-150 -147 -354 -148q-156 0 -237 79t-81 210t78 205t248 102l215 37q111 20 125 47 q-6 190 -197 191q-186 0 -209 -142q-4 -23 -29 -22h-147q-33 0 -29 31q18 315 416 315q203 0 306.5 -98.5t103.5 -282.5v-399q0 -66 37 -84zM301 286.5q0 -55.5 37 -91t113 -35.5q168 0 303 135v211q-14 -27 -115 -45l-186 -35q-86 -16 -119 -50t-33 -89.5z" glyph-name="agrave.aalt" horiz-adv-x="1110"/><glyph d="M266 1260q-31 0 -30 30v109q0 31 30 31h588q31 0 31 -31v-109q0 -31 -31 -30h-588zM1006 162q27 -14 26 -35v-98q0 -33 -26 -35q-96 -12 -163 20.5t-83 106.5q-150 -147 -354 -148q-156 0 -237 79t-81 210t78 205t248 102l215 37q111 20 125 47q-6 190 -197 191 q-186 0 -209 -142q-4 -23 -29 -22h-147q-33 0 -29 31q18 315 416 315q203 0 306.5 -98.5t103.5 -282.5v-399q0 -66 37 -84zM301 286.5q0 -55.5 37 -91t113 -35.5q168 0 303 135v211q-14 -27 -115 -45l-186 -35q-86 -16 -119 -50t-33 -89.5z" glyph-name="amacron.aalt" horiz-adv-x="1110"/><glyph d="M1006 162q27 -14 26 -35v-98q0 -33 -26 -35q-12 -2 -37 -2v-2q-80 -2 -131.5 -42t-51.5 -100q0 -55 40 -81.5t116 -10.5v-141q-41 -18 -97.5 -19.5t-109.5 17t-91 69t-38 123.5q0 176 189 246q-25 29 -35 70q-150 -147 -354 -148q-156 0 -237 79t-81 210t78 205t248 102 l215 37q111 20 125 47q-6 190 -197 191q-186 0 -209 -142q-4 -23 -29 -22h-147q-33 0 -29 31q18 315 416 315q203 0 306.5 -98.5t103.5 -282.5v-399q0 -66 37 -84zM301 286.5q0 -55.5 37 -91t113 -35.5q168 0 303 135v211q-14 -27 -115 -45l-186 -35q-86 -16 -119 -50 t-33 -89.5z" glyph-name="aogonek.aalt" horiz-adv-x="1099"/><glyph d="M563 1126q-80 0 -134 54.5t-54 130t54 130t134 54.5q76 0 130.5 -54.5t54.5 -130t-54.5 -130t-130.5 -54.5zM563 1364q-23 0 -38 -15.5t-15 -38t15.5 -36.5t38 -14t36.5 15t14 36q0 23 -15.5 38t-35.5 15zM1006 162q27 -14 26 -35v-98q0 -33 -26 -35q-96 -12 -163 20.5 t-83 106.5q-150 -147 -354 -148q-156 0 -237 79t-81 210t78 205t248 102l215 37q111 20 125 47q-6 190 -197 191q-186 0 -209 -142q-4 -23 -29 -22h-147q-33 0 -29 31q18 315 416 315q203 0 306.5 -98.5t103.5 -282.5v-399q0 -66 37 -84zM301 286.5q0 -55.5 37 -91 t113 -35.5q168 0 303 135v211q-14 -27 -115 -45l-186 -35q-86 -16 -119 -50t-33 -89.5z" glyph-name="aring.aalt" horiz-adv-x="1110"/><glyph d="M240 1268q-23 0 -19 24q8 88 60.5 133t134.5 45t171 -69.5t138 -69.5q68 0 90 62q6 16 23 16h47q20 0 20 -20q-6 -88 -59 -135.5t-131 -47.5q-84 0 -174 70t-140 70q-66 0 -92 -62q-6 -16 -22 -16h-47zM1006 162q27 -14 26 -35v-98q0 -33 -26 -35q-96 -12 -163 20.5 t-83 106.5q-150 -147 -354 -148q-156 0 -237 79t-81 210t78 205t248 102l215 37q111 20 125 47q-6 190 -197 191q-186 0 -209 -142q-4 -23 -29 -22h-147q-33 0 -29 31q18 315 416 315q203 0 306.5 -98.5t103.5 -282.5v-399q0 -66 37 -84zM301 286.5q0 -55.5 37 -91 t113 -35.5q168 0 303 135v211q-14 -27 -115 -45l-186 -35q-86 -16 -119 -50t-33 -89.5z" glyph-name="atilde.aalt" horiz-adv-x="1110"/><glyph d="M793 115q293 0 292 -240q0 -279 -524 -278q-473 0 -473 233q0 113 117 158q-90 68 -90 166q0 129 129 180q-111 115 -111 282q0 178 125 294t324 116q133 0 239 -55l193 33q12 2 21 -7.5t9 -23.5v-101q0 -31 -30 -30h-47q66 -102 65 -226q0 -180 -126 -296.5t-324 -116.5 q-129 0 -228 51q-76 -4 -75 -64q0 -76 194 -75h320zM581.5 848q-102.5 0 -172 -66.5t-69.5 -165.5q0 -100 69.5 -166.5t172.5 -66.5q104 0 173.5 66.5t69.5 166.5q0 98 -70.5 165t-173 67zM561 -254q324 0 324 115q0 68 -113 67h-362q-141 0 -142 -73q0 -109 293 -109z" glyph-name="g.aalt" horiz-adv-x="1171"/><glyph d="M602 1149q-127 0 -209 71.5t-92 180.5q-2 31 29 31h76q27 0 32 -29q12 -53 55.5 -87t109 -34t107.5 34t54 87q6 29 33 29h75q33 0 29 -31q-10 -109 -91 -180.5t-208 -71.5zM793 115q293 0 292 -240q0 -279 -524 -278q-473 0 -473 233q0 113 117 158q-90 68 -90 166 q0 129 129 180q-111 115 -111 282q0 178 125 294t324 116q133 0 239 -55l193 33q12 2 21 -7.5t9 -23.5v-101q0 -31 -30 -30h-47q66 -102 65 -226q0 -180 -126 -296.5t-324 -116.5q-129 0 -228 51q-76 -4 -75 -64q0 -76 194 -75h320zM581.5 848q-102.5 0 -172 -66.5 t-69.5 -165.5q0 -100 69.5 -166.5t172.5 -66.5q104 0 173.5 66.5t69.5 166.5q0 98 -70.5 165t-173 67zM561 -254q324 0 324 115q0 68 -113 67h-362q-141 0 -142 -73q0 -109 293 -109z" glyph-name="gbreve.aalt" horiz-adv-x="1171"/><glyph d="M600 1137q-55 0 -93 42t-38 117q0 86 47 192.5t127 197.5l59 -39q-80 -121 -86 -258q49 -6 82 -41t33 -84q0 -53 -39 -90t-92 -37zM793 115q293 0 292 -240q0 -279 -524 -278q-473 0 -473 233q0 113 117 158q-90 68 -90 166q0 129 129 180q-111 115 -111 282 q0 178 125 294t324 116q133 0 239 -55l193 33q12 2 21 -7.5t9 -23.5v-101q0 -31 -30 -30h-47q66 -102 65 -226q0 -180 -126 -296.5t-324 -116.5q-129 0 -228 51q-76 -4 -75 -64q0 -76 194 -75h320zM581.5 848q-102.5 0 -172 -66.5t-69.5 -165.5q0 -100 69.5 -166.5 t172.5 -66.5q104 0 173.5 66.5t69.5 166.5q0 98 -70.5 165t-173 67zM561 -254q324 0 324 115q0 68 -113 67h-362q-141 0 -142 -73q0 -109 293 -109z" glyph-name="gcommaaccent.aalt" horiz-adv-x="1202"/><glyph d="M602 1214q-47 0 -81 34t-34 83q0 45 34 79t81 34t81 -33t34 -80q0 -49 -34 -83t-81 -34zM793 115q293 0 292 -240q0 -279 -524 -278q-473 0 -473 233q0 113 117 158q-90 68 -90 166q0 129 129 180q-111 115 -111 282q0 178 125 294t324 116q133 0 239 -55l193 33 q12 2 21 -7.5t9 -23.5v-101q0 -31 -30 -30h-47q66 -102 65 -226q0 -180 -126 -296.5t-324 -116.5q-129 0 -228 51q-76 -4 -75 -64q0 -76 194 -75h320zM581.5 848q-102.5 0 -172 -66.5t-69.5 -165.5q0 -100 69.5 -166.5t172.5 -66.5q104 0 173.5 66.5t69.5 166.5 q0 98 -70.5 165t-173 67zM561 -254q324 0 324 115q0 68 -113 67h-362q-141 0 -142 -73q0 -109 293 -109z" glyph-name="gdotaccent.aalt" horiz-adv-x="1171"/><glyph d="M625 825h-164v-555q0 -88 80 -88q51 0 75 4q37 6 37 -28v-113q0 -57 -164 -57q-111 0 -177 61.5t-66 192.5v583h-137q-31 0 -31 31v117q0 31 31 31h137v235q0 31 30 31h154q31 0 31 -31v-235h164q31 0 30 -31v-117q1 -31 -30 -31z" glyph-name="t.aalt" horiz-adv-x="741"/><glyph d="M760 1450q244 0 400.5 -195.5t156.5 -544t-156.5 -543t-400.5 -194.5t-400.5 194.5t-156.5 543t156.5 544t400.5 195.5zM760 1253q-166 0 -258 -148.5t-92 -393.5q0 -244 92 -391.5t258 -147.5t258 147.5t92 391.5q0 246 -92 394t-258 148z" glyph-name="zero.tnum" horiz-adv-x="1495"/><glyph d="M1012 1434q31 0 30 -31v-1372q0 -31 -30 -31h-154q-31 0 -31 31v1224h-227q-29 0 -29 31v117q0 31 29 31h412z" glyph-name="one.tnum" horiz-adv-x="1495"/><glyph d="M1174 180q31 0 30 -30v-119q0 -31 -30 -31h-826q-31 0 -31 31v149l283 299q39 41 101.5 105.5t89 93.5t68.5 75t58.5 71.5t37 60.5t26.5 64.5t6 62.5q0 109 -69.5 176t-184.5 67q-154 0 -284 -145q-20 -25 -46 0l-90 88q-20 20 -2 43q164 209 426 209q201 0 329 -123 t128 -311q0 -33 -4 -64.5t-18.5 -65.5t-24.5 -58.5t-39 -64.5t-43 -59.5t-57 -67.5t-60.5 -66.5t-74 -78t-76.5 -81.5l-217 -230h594z" glyph-name="two.tnum" horiz-adv-x="1495"/><glyph d="M967 762q109 -49 175 -140.5t66 -215.5q0 -186 -135 -309.5t-346 -123.5q-283 0 -436 195q-16 25 2 43l90 84q25 25 45 0q121 -125 291 -125q123 0 201.5 68.5t78.5 175.5q0 111 -84 179.5t-237 72.5q-31 0 -31 30v109q0 31 31 31q143 4 214 66.5t71 154.5q0 90 -69 144 t-161 54q-154 0 -262 -127q-23 -23 -45 0l-90 86q-20 20 -2 43q156 193 403 193q172 0 295 -107.5t123 -273.5q0 -194 -188 -307z" glyph-name="three.tnum" horiz-adv-x="1495"/><glyph d="M1217 494q31 0 30 -31v-117q0 -31 -30 -31h-136v-284q0 -31 -30 -31h-154q-31 0 -31 31v284h-585q-31 0 -31 31v127q0 23 10 39l594 901q12 20 37 21h160q31 0 30 -31v-909h136zM866 494v610l-399 -610h399z" glyph-name="four.tnum" horiz-adv-x="1495"/><glyph d="M723 950q195 0 332 -137t137 -340q0 -225 -142.5 -361.5t-357.5 -136.5q-137 0 -245.5 59.5t-159.5 141.5q-16 25 6 41l106 80q27 18 45 -6q98 -119 248 -119q119 0 206 86t87 215q0 123 -88 207t-201 84q-141 0 -229 -102q-18 -20 -41 -13l-119 43q-27 8 -20 37l176 678 q6 27 33 27h585q31 0 31 -31v-117q0 -31 -31 -31h-465l-92 -358q70 53 199 53z" glyph-name="five.tnum" horiz-adv-x="1495"/><glyph d="M741 932q207 0 350.5 -135t143.5 -342q0 -203 -139.5 -342.5t-341.5 -139.5q-205 0 -344.5 139.5t-139.5 342.5q0 184 150 379l479 624q20 27 43 6l105 -88q23 -23 6 -43l-314 -401h2zM753.5 172q116.5 0 195.5 80t79 203t-79 204.5t-195.5 81.5t-196.5 -81.5t-80 -204.5 t80 -203t196.5 -80z" glyph-name="six.tnum" horiz-adv-x="1495"/><glyph d="M1178 1434q14 0 22 -9.5t2 -21.5l-551 -1372q-10 -31 -35 -31h-151q-14 0 -23.5 9t-3.5 22l500 1224h-612q-31 0 -31 31v117q0 31 31 31h852z" glyph-name="seven.tnum" horiz-adv-x="1495"/><glyph d="M748 -27q-197 0 -338.5 122t-141.5 319q0 133 74 236.5t188 152.5q-82 45 -128 124t-46 169q0 145 108.5 249.5t283 104.5t284 -104.5t109.5 -249.5q0 -90 -47 -169t-129 -124q115 -49 188.5 -151.5t73.5 -237.5q0 -197 -140 -319t-339 -122zM748 889q86 0 145 58.5 t57 142.5q0 80 -56 134t-146 54q-88 0 -144.5 -54.5t-58.5 -133.5q0 -84 59.5 -142.5t143.5 -58.5zM748 170q119 0 193.5 68.5t74.5 179.5q0 117 -79 189.5t-189.5 72.5t-189.5 -72.5t-79 -189.5q0 -111 76 -179.5t193 -68.5z" glyph-name="eight.tnum" horiz-adv-x="1495"/><glyph d="M762 1450q205 0 344 -139.5t139 -341.5q0 -184 -149 -379l-480 -625q-20 -27 -43 -6l-104 88q-23 23 -6 43l313 402h-2q-207 0 -350 135t-143 342q0 203 139 342t342 139zM762 682q117 0 196.5 82t79.5 205t-79.5 202.5t-196.5 79.5t-196 -79.5t-79 -202.5t79 -205 t196 -82z" glyph-name="nine.tnum" horiz-adv-x="1495"/><glyph d="M297 539q96 0 155.5 -72t59.5 -186v-27q0 -115 -59.5 -186.5t-155.5 -71.5q-92 0 -153.5 71.5t-61.5 186.5v27q0 115 61.5 186.5t153.5 71.5zM297 475q-59 0 -99 -52t-40 -142v-27q0 -90 40 -142.5t99 -52.5q63 0 101 51.5t38 143.5v27q0 92 -38 143t-101 51z" glyph-name="zero.dnom" horiz-adv-x="593"/><glyph d="M213 535v-535h-76v461h-55v74h131z" glyph-name="one.dnom" horiz-adv-x="294"/><glyph d="M254 541q70 0 121 -46t51 -108q0 -53 -29.5 -96t-109.5 -125l-97 -100h242v-66h-344v66l139 141q57 59 74.5 78.5t32 46t14.5 55.5q0 37 -28.5 63.5t-65.5 26.5q-39 0 -67.5 -26.5t-28.5 -75.5v-29h-76v29q0 72 50 119t122 47z" glyph-name="two.dnom" horiz-adv-x="514"/><glyph d="M268 539q66 0 115 -42t49 -98q0 -66 -61 -108q86 -37 86 -135q0 -70 -56.5 -117t-132.5 -47q-84 0 -137 55t-49 131h78q-4 -49 27.5 -85t80.5 -36q45 0 78 28t33 71q0 106 -152 96v61q129 2 129 86q0 33 -25.5 54.5t-62.5 21.5q-45 0 -70.5 -30.5t-23.5 -84.5h-78 q-2 78 47 128.5t125 50.5z" glyph-name="three.dnom" horiz-adv-x="538"/><glyph d="M428 535v-316h55v-63h-55v-156h-76v156h-270l270 379h76zM352 424l-143 -205h143v205z" glyph-name="four.dnom" horiz-adv-x="565"/><glyph d="M412 535v-66h-213l-17 -119q45 20 92 21q72 0 129.5 -54.5t57.5 -134.5t-57.5 -135t-137.5 -55q-68 0 -120 38t-64 89l68 39q4 -41 35.5 -71t80.5 -30q47 0 82 36t35 89q0 51 -34 87t-75 36q-72 0 -116 -59l-66 16l37 273h283z" glyph-name="five.dnom" horiz-adv-x="542"/><glyph d="M387 535l-139 -197h12q70 0 123 -51t53 -121q0 -72 -53 -123t-123 -51t-124 51t-54 123q0 33 11 64.5t20.5 47t37 51.5t33.5 44l117 162h86zM260 272q-45 0 -73.5 -28.5t-28.5 -77.5q0 -47 31.5 -78t70.5 -31q37 0 68.5 31t31.5 78t-30.5 76.5t-69.5 29.5z" glyph-name="six.dnom" horiz-adv-x="518"/><glyph d="M436 535l-209 -535h-80l183 469h-248v66h354z" glyph-name="seven.dnom" horiz-adv-x="518"/><glyph d="M268 539q74 0 118 -41t44 -97q0 -70 -61 -108q88 -43 88 -135q0 -70 -55.5 -116t-133.5 -46q-76 0 -131 46t-55 116q0 92 88 135q-61 39 -61 108q0 53 43.5 95.5t115.5 42.5zM268 475q-41 0 -62.5 -21.5t-21.5 -52t26 -55t58 -24.5q35 0 59.5 23.5t24.5 55.5q0 74 -84 74 zM268 258q-45 0 -77.5 -28.5t-32.5 -71.5q0 -41 32.5 -70t77.5 -29q49 0 80 27t31 72t-31 72.5t-80 27.5z" glyph-name="eight.dnom" horiz-adv-x="538"/><glyph d="M260 541q70 0 124 -50.5t54 -121.5q0 -27 -5 -49.5t-18.5 -46t-21.5 -37t-29.5 -40t-29.5 -36.5l-115 -160h-88l139 195h-10q-72 0 -125 52t-53 122q0 72 54 122t124 50zM260 475q-39 0 -70.5 -30.5t-31.5 -75.5q0 -47 31.5 -78t70.5 -31q45 0 72.5 29.5t27.5 79.5 q0 45 -31.5 75.5t-68.5 30.5z" glyph-name="nine.dnom" horiz-adv-x="520"/><glyph d="M297 1440q96 0 155.5 -72t59.5 -186v-27q0 -115 -59.5 -186.5t-155.5 -71.5q-92 0 -153.5 71.5t-61.5 186.5v27q0 115 61.5 186.5t153.5 71.5zM297 1376q-59 0 -99 -52t-40 -142v-27q0 -90 40 -142t99 -52q63 0 101 51t38 143v27q0 92 -38 143t-101 51z" glyph-name="zero.numr" horiz-adv-x="593"/><glyph d="M213 1436v-535h-76v461h-55v74h131z" glyph-name="one.numr" horiz-adv-x="294"/><glyph d="M254 1442q70 0 121 -46t51 -108q0 -53 -29.5 -96t-109.5 -125l-97 -100h242v-66h-344v66l139 141q57 59 74.5 78.5t32 46.5t14.5 55q0 37 -28.5 63.5t-65.5 26.5q-39 0 -67.5 -26.5t-28.5 -75.5v-29h-76v29q0 72 50 119t122 47z" glyph-name="two.numr" horiz-adv-x="514"/><glyph d="M268 1440q66 0 115 -42t49 -98q0 -66 -61 -108q86 -37 86 -135q0 -70 -56.5 -117t-132.5 -47q-84 0 -137 55.5t-49 130.5h78q-4 -49 27.5 -85t80.5 -36q45 0 78 28t33 71q0 106 -152 96v61q129 2 129 86q0 33 -25.5 54.5t-62.5 21.5q-45 0 -70.5 -30.5t-23.5 -83.5h-78 q-2 78 47 128t125 50z" glyph-name="three.numr" horiz-adv-x="538"/><glyph d="M428 1436v-316h55v-63h-55v-156h-76v156h-270l270 379h76zM352 1325l-143 -205h143v205z" glyph-name="four.numr" horiz-adv-x="565"/><glyph d="M412 1436v-66h-213l-17 -119q45 20 92 21q72 0 129.5 -54.5t57.5 -134t-57.5 -135t-137.5 -55.5q-68 0 -120 38t-64 89l68 39q4 -41 35.5 -71t80.5 -30q47 0 82 36t35 89q0 51 -34 87t-75 36q-72 0 -116 -59l-66 16l37 273h283z" glyph-name="five.numr" horiz-adv-x="542"/><glyph d="M387 1436l-139 -197h12q70 0 123 -51t53 -121q0 -72 -53 -123t-123 -51t-124 51t-54 123q0 33 11 64.5t20.5 47t37 51.5t33.5 44l117 162h86zM260 1174q-45 0 -73.5 -29t-28.5 -78q0 -47 31.5 -78t70.5 -31q37 0 68.5 31t31.5 78t-30.5 77t-69.5 30z" glyph-name="six.numr" horiz-adv-x="518"/><glyph d="M436 1436l-209 -535h-80l183 469h-248v66h354z" glyph-name="seven.numr" horiz-adv-x="518"/><glyph d="M268 1440q74 0 118 -41t44 -96q0 -70 -61 -109q88 -43 88 -135q0 -70 -55.5 -116t-133.5 -46q-76 0 -131 46t-55 116q0 92 88 135q-61 39 -61 109q0 53 43.5 95t115.5 42zM268 1376q-41 0 -62.5 -21.5t-21.5 -52t26 -55t58 -24.5q35 0 59.5 23.5t24.5 56.5q0 73 -84 73z M268 1159q-45 0 -77.5 -28.5t-32.5 -71.5q0 -41 32.5 -69.5t77.5 -28.5q49 0 80 26.5t31 71.5t-31 72.5t-80 27.5z" glyph-name="eight.numr" horiz-adv-x="538"/><glyph d="M260 1442q70 0 124 -50.5t54 -121.5q0 -27 -5 -49.5t-18.5 -46t-21.5 -37t-29.5 -40t-29.5 -36.5l-115 -160h-88l139 195h-10q-72 0 -125 52t-53 122q0 72 54 122t124 50zM260 1376q-39 0 -70.5 -30.5t-31.5 -75.5q0 -47 31.5 -78t70.5 -31q45 0 72.5 30t27.5 79 q0 45 -31.5 75.5t-68.5 30.5z" glyph-name="nine.numr" horiz-adv-x="520"/><glyph d="M645 1542q-41 0 -24 35l122 258q10 25 35 25h129q41 0 25 -35l-123 -258q-10 -25 -35 -25h-129zM1311 35q14 -35 -25 -35h-166q-27 0 -35 25l-96 278h-588l-96 -278q-8 -25 -35 -25h-166q-39 0 -24 35l500 1374q10 25 36 25h156q27 0 37 -25zM465 485h461l-232 664z" glyph-name="glyph499" horiz-adv-x="1388"/><glyph d="M752 1860q41 0 24 -35l-123 -258q-10 -25 -35 -25h-129q-41 0 -24 35l123 258q10 25 35 25h129zM911 201q31 0 31 -31v-139q0 -31 -31 -31h-731q-31 0 -30 31v1372q0 31 30 31h729q31 0 31 -31v-139q0 -31 -31 -31h-536v-383h504q31 0 30 -31v-139q0 -31 -30 -31h-504 v-448h538z" glyph-name="glyph500" horiz-adv-x="1075"/><glyph d="M633 1542q-41 0 -25 35l123 258q10 25 35 25h129q41 0 25 -35l-123 -258q-10 -25 -35 -25h-129zM1206 1434q27 -4 27 -31v-1372q0 -31 -31 -31h-162q-31 0 -30 31v1063l-621 -1074q-12 -20 -37 -20h-196q-29 0 -29 31v1372q0 31 31 31h161q31 0 31 -31v-1065l621 1075 q12 20 37 21h198z" glyph-name="glyph501" horiz-adv-x="1382"/><glyph d="M1047 1860q41 0 24 -35l-123 -258q-10 -25 -35 -25h-129q-41 0 -24 35l123 258q10 25 35 25h129zM844 -27q-305 0 -520 215t-215 522.5t215 523.5t520 216q303 0 518 -216t215 -523.5t-215 -522.5t-518 -215zM844 193q215 0 361.5 149.5t146.5 368.5q0 221 -146.5 371.5 t-361.5 150.5q-217 0 -363.5 -150.5t-146.5 -371.5q0 -219 146.5 -368.5t363.5 -149.5z" glyph-name="glyph502" horiz-adv-x="1685"/><glyph d="M631 1542q-41 0 -25 35l123 258q10 25 35 25h129q41 0 25 -35l-123 -258q-10 -25 -35 -25h-129zM1266 1434q18 0 24 -10.5t-4 -26.5l-831 -1377q-12 -20 -37 -20h-170q-41 0 -21 37l344 569l-477 791q-10 16 -4 26.5t25 10.5h170q25 0 37 -21l368 -610l369 610 q12 20 37 21h170z" glyph-name="glyph503" horiz-adv-x="1380"/><glyph d="M1051 1860q41 0 24 -35l-123 -258q-10 -25 -34 -25h-130q-41 0 -24 35l123 258q10 25 35 25h129zM586 0h-406q-31 0 -30 31v1372q0 31 30 31h162q31 0 31 -31v-490h213q238 0 368.5 -125.5t130.5 -330.5t-130.5 -331t-368.5 -126zM1346 1403q0 31 30 31h162q31 0 31 -31 v-1372q0 -31 -31 -31h-162q-31 0 -30 31v1372zM578 713h-205v-512h205q129 0 210.5 61.5t81.5 194.5t-81.5 194.5t-210.5 61.5z" glyph-name="glyph504" horiz-adv-x="1695"/><glyph d="M651 1542q-41 0 -24 35l123 258q10 25 34 25h129q41 0 25 -35l-123 -258q-10 -25 -35 -25h-129zM590 1450q305 0 517 -215t212 -524q0 -307 -212 -522.5t-517 -215.5q-274 0 -492 201q-20 20 -2 43l103 107q18 23 43 2q154 -133 350 -133q184 0 322.5 118.5t168.5 304.5 h-503q-31 0 -31 31v139q0 31 31 31h501q-33 182 -170 299t-319 117q-193 0 -350 -133q-25 -20 -43 0l-103 106q-20 25 2 43q216 201 492 201z" glyph-name="glyph505" horiz-adv-x="1417"/><glyph d="M979 1542q-41 0 -25 35l123 258q10 25 35 25h129q41 0 25 -35l-123 -258q-10 -25 -35 -25h-129zM1255 1450q303 0 518.5 -216t215.5 -523.5t-215 -522.5t-519 -215q-281 0 -487.5 184.5t-241.5 458.5h-153v-585q0 -31 -31 -31h-162q-31 0 -30 31v1372q0 31 30 31h162 q31 0 31 -31v-586h155q39 272 245 452.5t482 180.5zM1255 193q215 0 361.5 149.5t146.5 368.5q0 221 -146.5 371.5t-361.5 150.5q-217 0 -363.5 -150.5t-146.5 -371.5q0 -219 146.5 -368.5t363.5 -149.5z" glyph-name="glyph506" horiz-adv-x="2076"/><glyph d="M578 1542q-41 0 -25 35l123 258q10 25 35 25h129q41 0 24 -35l-123 -258q-10 -25 -34 -25h-129zM1034 1434q31 0 31 -31v-1372q0 -31 -31 -31h-162q-31 0 -30 31v489h-170l-328 -500q-12 -20 -37 -20h-174q-43 0 -20 37l338 506q-154 43 -238 158.5t-84 275.5 q0 205 131 331t369 126h405zM842 721v512h-205q-129 0 -211 -61.5t-82 -194.5t82 -194.5t211 -61.5h205z" glyph-name="glyph507" horiz-adv-x="1214"/><glyph d="M553 1112q-41 0 -25 35l123 258q10 25 35 25h129q41 0 25 -35l-123 -258q-10 -25 -35 -25h-129zM1090 1004q31 0 30 -31v-942q0 -31 -30 -31h-134q-27 0 -30 31l-11 114q-123 -160 -327 -159q-211 0 -350.5 149.5t-139.5 364.5q0 221 139.5 372.5t350.5 151.5 q207 0 330 -168l8 117q4 31 30 31h134zM608 182q133 0 218 91.5t85 228.5t-86 232t-217 95t-217 -93t-86 -234q0 -137 86 -228.5t217 -91.5z" glyph-name="glyph508"/><glyph d="M551 1174q-41 0 -25 34l123 258q10 25 35 25h129q41 0 25 -35l-123 -258q-10 -25 -35 -24h-129zM596 1024q211 0 343 -143.5t132 -343.5q0 -61 -13.5 -87t-51.5 -26h-695q20 -119 106.5 -188.5t219.5 -69.5q135 0 244 82q27 18 43 2l65 -64q23 -23 0 -47 q-150 -154 -373 -153q-227 0 -372.5 150.5t-145.5 369.5t141.5 368.5t356.5 149.5zM598 838q-115 0 -194.5 -73t-94.5 -192h572q-12 119 -90 192t-193 73z" glyph-name="glyph509" horiz-adv-x="1167"/><glyph d="M553 1112q-41 0 -25 35l123 258q10 25 35 25h129q41 0 25 -35l-123 -258q-10 -25 -35 -25h-129zM1047 1004q31 0 30 -31v-942q0 -31 -30 -31h-154q-31 0 -31 31v704l-485 -715q-14 -20 -39 -20h-188q-31 0 -31 31v942q0 31 31 31h153q31 0 31 -31v-707l487 717 q14 20 39 21h187z" glyph-name="glyph510" horiz-adv-x="1193"/><glyph d="M815 1430q41 0 25 -35l-123 -258q-10 -25 -35 -25h-129q-41 0 -25 35l123 258q10 25 35 25h129zM612 -20q-217 0 -365.5 151.5t-148.5 370.5q0 221 148.5 372.5t365.5 151.5q215 0 364.5 -151.5t149.5 -372.5q0 -219 -149.5 -370.5t-364.5 -151.5zM612 178 q129 0 218.5 92t89.5 232q0 141 -88.5 234t-219.5 93t-219 -93t-88 -234q0 -139 89 -231.5t218 -92.5z" glyph-name="glyph511" horiz-adv-x="1222"/><glyph d="M776 1430q41 0 25 -35l-123 -258q-10 -25 -35 -25h-129q-41 0 -25 35l123 258q10 25 35 25h129zM1042 1004q37 0 25 -35l-528 -1334q-10 -25 -37 -24h-154q-37 0 -24 35l143 350l-385 973q-12 35 24 35h156q29 0 37 -25l274 -729l275 729q8 25 37 25h157z" glyph-name="glyph512" horiz-adv-x="1128"/><glyph d="M725 1112q-41 0 -25 35l123 258q10 25 35 25h129q41 0 25 -35l-123 -258q-10 -25 -35 -25h-129zM625 668q207 0 318.5 -85t111.5 -249t-112 -249t-318 -85h-475q-31 0 -31 31v942q0 31 31 31h153q31 0 31 -31v-305h291zM1421 1004q31 0 31 -31v-942q0 -31 -31 -31h-153 q-31 0 -31 31v942q0 31 31 31h153zM629 170q219 0 219 164q0 166 -219 166h-295v-330h295z" glyph-name="glyph513" horiz-adv-x="1568"/><glyph d="M477 1112q-41 0 -24 35l122 258q10 25 35 25h129q41 0 25 -35l-123 -258q-10 -25 -35 -25h-129zM475 1024q215 0 361.5 -150.5t146.5 -369.5q0 -217 -146.5 -367.5t-361.5 -150.5q-236 0 -391 178q-18 23 2 43l90 86q20 20 45 0q113 -109 252 -109q111 0 189.5 65.5 t103.5 170.5h-332q-31 0 -31 31v100q0 31 31 31h334q-23 109 -102.5 177t-192.5 68q-57 0 -107.5 -19.5t-74 -35.5t-64.5 -53q-25 -23 -45 -2l-90 86q-20 20 -2 43q156 178 385 178z" glyph-name="glyph514" horiz-adv-x="1071"/><glyph d="M737 1112q-41 0 -24 35l123 258q10 25 34 25h129q41 0 25 -35l-123 -258q-10 -25 -35 -25h-129zM1004 1026q215 0 364.5 -151.5t149.5 -372.5q0 -219 -149.5 -370.5t-364.5 -151.5q-193 0 -334.5 121.5t-171.5 310.5h-164v-383q0 -31 -31 -31h-153q-31 0 -31 31v942 q0 31 31 30h153q31 0 31 -30v-381h162q31 190 172 313t336 123zM1003.5 178q129.5 0 218.5 92t89 232q0 141 -88 234t-219.5 93t-219.5 -93t-88 -234q0 -139 89 -231.5t218.5 -92.5z" glyph-name="glyph515" horiz-adv-x="1593"/><glyph d="M514 1112q-41 0 -25 35l123 258q10 25 35 25h129q41 0 25 -35l-123 -258q-10 -25 -35 -25h-129zM997 1004q31 0 31 -31v-942q0 -31 -31 -31h-153q-31 0 -31 31v305h-205l-286 -320q-14 -16 -37 -16h-164q-20 0 -25.5 11.5t8.5 25.5l283 309q-299 51 -299 324 q0 164 111.5 249t318.5 85h479zM514 506h299v330h-299q-219 0 -219 -166q0 -164 219 -164z" glyph-name="glyph516" horiz-adv-x="1144"/></font>
</defs>
</svg>
