<?xml version="1.0" encoding="utf-8"?>
<!-- Generator: Adobe Illustrator 23.1.1, SVG Export Plug-In . SVG Version: 6.00 Build 0)  -->
<svg version="1.1" id="Layer_1" xmlns="http://www.w3.org/2000/svg" xmlns:xlink="http://www.w3.org/1999/xlink" x="0px" y="0px"
	 viewBox="0 0 747.8 777.9" style="enable-background:new 0 0 747.8 777.9;" xml:space="preserve">
<style type="text/css">
	.st0{opacity:0.2;fill:#EB8A58;enable-background:new    ;}
	.st1{fill:#EB8A58;}
	.st2{fill:#113E68;}
	.st3{fill:#FFFFFF;}
	.st4{fill:#1A2F53;}
	.st5{opacity:0.6;}
	.st6{opacity:0.5;fill:#EE6F4D;enable-background:new    ;}
	.st7{fill:#0D517D;}
	.st8{fill:#EE6F4D;}
	.st9{fill:#EE7453;}
	.st10{fill:#8896A9;}
	.st11{opacity:0.5;fill:#1A2F53;enable-background:new    ;}
	.st12{clip-path:url(#SVGID_4_);}
	.st13{clip-path:url(#SVGID_8_);}
	.st14{clip-path:url(#SVGID_12_);}
	.st15{fill:#0F4E78;}
	.st16{fill:#231F20;}
	.st17{clip-path:url(#SVGID_16_);}
	.st18{clip-path:url(#SVGID_20_);}
	.st19{fill:#E3E8F1;}
	.st20{opacity:0.1;clip-path:url(#SVGID_24_);}
	.st21{clip-path:url(#SVGID_26_);}
	.st22{fill:#4E6380;}
	.st23{clip-path:url(#SVGID_28_);}
	.st24{fill:#E4E1D3;}
	.st25{clip-path:url(#SVGID_30_);}
	.st26{clip-path:url(#SVGID_32_);}
	.st27{opacity:0.5;clip-path:url(#SVGID_34_);fill:#EE6F4D;enable-background:new    ;}
	.st28{opacity:0.1;}
	.st29{clip-path:url(#SVGID_36_);}
	.st30{clip-path:url(#SVGID_38_);}
	.st31{clip-path:url(#SVGID_40_);}
	.st32{fill:#FEF2EE;}
	.st33{clip-path:url(#SVGID_42_);}
	.st34{clip-path:url(#SVGID_44_);}
	.st35{opacity:0.2;clip-path:url(#SVGID_46_);}
	.st36{clip-path:url(#SVGID_48_);}
	.st37{opacity:0.7;}
	.st38{opacity:0.6;fill:#EE6F4D;enable-background:new    ;}
	.st39{display:none;}
</style>
<g id="details">
</g>
<g id="BG">
</g>
<g id="splash">
</g>
<g id="Illo">
</g>
<g id="bottle">
</g>
<g id="Brand">
</g>
<g id="Headline">
	<path class="st0" d="M736,176.3L736,176.3c4.4,30.9,2.8,61.4-4.1,90.3c-18.9,79.8-77.7,147.3-159.1,175.2l-156.3,53.6
		c-63.5,21.8-133,16.5-192.3-14.3c-2.6-1.3-5.1-2.7-7.6-4.1c-33.7-19.1-62.4-45.6-83.8-77.4c-7.1-10.6-13.4-21.8-18.8-33.5
		c-0.1-0.3-0.3-0.6-0.4-0.8c-9.8-21.3-17.7-42.3-23.4-62.7c-12.8-45.4-14.8-88-3-124.3c13.8-42.3,46.4-76.1,102.7-96.1
		c2.3-0.8,4.7-1.6,7.1-2.4c156.6-51.1,175.8,21.8,314.1,9.2c31.6-2.9,69.4-10.2,116.6-24.5c1.1-0.3,2.1-0.6,3.2-0.9
		C697.6,45.1,725.6,104,736,176.3z"/>
	<circle class="st1" cx="236.7" cy="138.5" r="2.4"/>
	<g>
		<g>
			<path class="st2" d="M246,109c-0.6-1.1-0.3-2.4,0.7-3.1c1-0.6,2.4-0.3,3.1,0.7C251.3,109.1,247.6,111.4,246,109
				c-0.4-0.6-1.3,0-0.9,0.5c1,1.5,2.9,2,4.5,1.1c1.5-0.9,2-3,1.1-4.5s-3-2-4.5-1.1c-1.6,1-1.9,2.9-1.1,4.5
				C245.5,110.1,246.3,109.6,246,109z"/>
		</g>
	</g>
	<g>
		<path class="st3" d="M-5.1,22.8c-0.6-1.1-0.3-2.4,0.7-3.1c1-0.6,2.4-0.3,3.1,0.7C0.2,23-3.5,25.2-5.1,22.8c-0.4-0.6-1.3,0-0.9,0.5
			c1,1.5,2.9,2,4.5,1.1c1.5-0.9,2-3,1.1-4.5s-3-2-4.5-1.1c-1.6,1-1.9,2.9-1.1,4.5C-5.6,24-4.8,23.4-5.1,22.8z"/>
	</g>
	<path class="st2" d="M258.3,148.3c1.3,0.3,2.6,0.6,3.9,0.9c-0.3,1.3-0.6,2.6-0.9,3.9c-0.2,0.8,1,1.1,1.2,0.3
		c0.3-1.3,0.6-2.6,0.9-3.9c1.2,0.3,2.4,0.6,3.7,0.9c0.8,0.2,1.1-1,0.3-1.2c-1.2-0.3-2.4-0.6-3.7-0.9c0.3-1.2,0.6-2.4,0.9-3.7
		c0.2-0.8-1-1.1-1.2-0.3c-0.3,1.2-0.6,2.4-0.9,3.7c-1.3-0.3-2.6-0.6-3.9-0.9C257.8,147,257.5,148.2,258.3,148.3z"/>
	<path class="st3" d="M-28.3-0.6c1.3,0.3,2.6,0.6,3.9,0.9c-0.3,1.3-0.6,2.6-0.9,3.9c-0.2,0.8,1,1.1,1.2,0.3c0.3-1.3,0.6-2.6,0.9-3.9
		c1.2,0.3,2.4,0.6,3.7,0.9c0.8,0.2,1.1-1,0.3-1.2c-1.2-0.3-2.4-0.6-3.7-0.9c0.3-1.2,0.6-2.4,0.9-3.7c0.2-0.8-1-1.1-1.2-0.3
		c-0.3,1.2-0.6,2.4-0.9,3.7c-1.3-0.3-2.6-0.6-3.9-0.9C-28.8-2-29-0.8-28.3-0.6z"/>
	<g>
		<g>
			<g>
				<path class="st4" d="M210.2,109.3c2.4,9.4,10.5,16,20.2,16.5c0.6,0,0.6-1,0-1c-9.3-0.5-17-6.8-19.3-15.8
					C211.1,108.4,210.1,108.7,210.2,109.3L210.2,109.3z"/>
			</g>
		</g>
		<g>
			<g>
				<path class="st4" d="M247.1,93.6c2.2,9.5,2.1,20.1-5.1,27.5c-0.5,0.5,0.3,1.2,0.7,0.7c7.5-7.6,7.7-18.6,5.4-28.5
					C247.9,92.7,246.9,93,247.1,93.6L247.1,93.6z"/>
			</g>
		</g>
		<g class="st5">
			<path class="st2" d="M208.7,536.8c12.3,0.1,24.5,0.3,36.8,0.4c3.9,0,8,0.2,11.1,2.4c3.1,2.2,3.9,7.4,0.6,9.3
				c-1.4,0.8-3.1,0.8-4.7,0.9c-49.6,0.5-99.2,0.6-148.8,0.6c-11.8,0-23.7-0.1-35.3-1.9c-4.3-0.7-8.6-1.6-12-4.2
				c-0.9-0.6-1.7-1.5-1.9-2.5c-0.6-3,3.8-4.2,7-4.2c41,0.1,81.9,0.1,122.9,0.2"/>
		</g>
		<g>
			<path class="st1" d="M224.8,167.7c4.6-4.6,11.3-12,15.4-17.1l11.9,13.4c-4.7,5.5-9.8,10.7-15.2,15.6L224.8,167.7z"/>
		</g>
		<g>
			<path class="st1" d="M250.7,124.9c-3.9,1.2-7.5,3.4-10.4,6.4c-1,1.1-1.9,2.2-2.5,3.6c-1.1,2.4-0.9,5.2-0.7,7.9
				c0.3,4,0.5,8,0.8,12c0.1,0.8,0.1,1.6,0.4,2.4c0.5,1.2,1.5,2.1,2.5,2.9c2.8,2.3,5.5,4.6,8.3,6.9c1.1,0.9,2.3,1.8,3.6,2.4
				c4,2,9.2,1.2,12.5-1.8c1.3-1.2,2.2-2.6,3.1-4.1c1.3-2.3,2.3-4.9,2.9-7.4c0.2-0.8,0.4-1.6,0.9-2.1c0.3-0.3,0.7-0.5,1.1-0.7
				c1.4-0.8,2.7-1.8,3.7-3c0.3-0.4,0.6-0.9,0.3-1.3c-0.2-0.2-0.4-0.2-0.6-0.2c-1.3-0.1-2.8,0.2-3.9-0.6c-0.9-0.7-1.2-2-1.3-3.2
				c-0.2-2.9,0.1-5.8,0.3-8.7c0.2-2.9,0.2-5.9-0.7-8.6s-2.7-5.3-5.4-6.5L250.7,124.9z"/>
		</g>
		<ellipse class="st6" cx="256.2" cy="149.8" rx="4.7" ry="4.8"/>
		<g id="XMLID_32_">
			<path class="st4" d="M249.2,141.7c-1-1.7-1.5-4.1-3.4-4.3c-1.8-0.2-3.7,0-5,1.3c-1,1-1.3,2.4-1.3,3.8c-0.1,2.3,1,3.9,2.1,6
				c0.2,0.4,0.5,0.8,0.4,1.3c-0.1,0.4-0.3,0.7-0.6,0.9c-1.3,1.4-3.3,3.5-4.8,4.7c-0.4-1.4-1-2.7-1.5-4c-2.6-6.3-3.3-13.5-1.1-20
				c2.2-6.4,7.7-11.9,14.4-13.2c2.1-0.4,4.2-0.4,6.3-0.4c3.3,0.1,6.5,0,9.6,1.3c3,1.3,5.9,4.5,6.6,7.7c0,0-5.1,6.6-18.1,8.8
				c0,0-1.4,6.6-1.9,6.4S249.2,141.7,249.2,141.7z"/>
		</g>
		<g>
			<g>
				<path class="st7" d="M247.4,119.8c2.5,2.6,6,3.7,9.4,4.5c3.8,0.9,7.9,1.5,11.8,0.5c0.6-0.2,0.4-1.1-0.3-1
					c-3.6,1-7.6,0.4-11.2-0.5c-3.2-0.8-6.6-1.8-8.9-4.3C247.6,118.6,246.9,119.4,247.4,119.8L247.4,119.8z"/>
			</g>
		</g>
		<g>
			<g>
				<path class="st7" d="M243.5,121.4c1.6,6.6,6.6,11.4,13.2,12.6c0.6,0.1,0.9-0.8,0.3-1c-6.3-1.2-11.1-5.7-12.5-11.9
					C244.3,120.5,243.3,120.8,243.5,121.4L243.5,121.4z"/>
			</g>
		</g>
		<g>
			<g>
				<path class="st4" d="M269.8,126.5c-1.3,3.6-3.1,7.1-6.7,8.8c-4.4,2.1-9.4,0.8-13.6-1.1c-0.6-0.3-1.1,0.6-0.5,0.9
					c4.3,2,9.2,3.3,13.9,1.5c4.3-1.7,6.4-5.6,7.9-9.7C271,126.2,270.1,125.9,269.8,126.5L269.8,126.5z"/>
			</g>
		</g>
		<g>
			<g>
				<path class="st4" d="M254,134.8c6.5,2.6,12.4-1.2,14.1-7.6c0.2-0.6-0.8-0.9-1-0.3c-0.8,2.9-2.5,5.9-5.5,7.1
					c-2.4,0.9-5,0.8-7.4-0.2C253.6,133.6,253.4,134.5,254,134.8L254,134.8z"/>
			</g>
		</g>
		<g>
			<path class="st4" d="M222.9,90.4c-4,2.1-7.4,5.6-9.1,9.9c-2.2,5.7-1.4,12.6,2.2,17.5c3.5,4.8,9.3,7.6,15.2,7.9
				c5.4,0.3,10.4-2.5,13.5-6.8c2.5-3.5,3.7-8,3.6-12.3c-0.2-6.2-3.3-12.5-8.6-15.8C234.4,87.4,228.1,87.7,222.9,90.4z"/>
		</g>
		<g>
			<g>
				<path class="st4" d="M266.9,142.7c-0.6,1.1-0.8,2.3-0.5,3.4c0.2,0.8,1.4,1,1.8,0.2c0.6-1,0.9-2.2,0.8-3.3
					c-0.1-0.9-1.3-1.4-1.9-0.5c-0.5,0.9-0.8,1.9-0.8,3c0,0.8,1.1,1.4,1.7,0.7s0.8-1.5,0.7-2.5c-0.2-1.3-2.2-0.7-1.9,0.5
					c0,0.2,0,0.4-0.2,0.5c0.6,0.2,1.1,0.5,1.7,0.7c0-0.7,0.2-1.4,0.6-2c-0.6-0.2-1.2-0.3-1.9-0.5c0.1,0.8-0.1,1.6-0.5,2.3
					c0.6,0.1,1.2,0.2,1.8,0.2c-0.2-0.7-0.1-1.3,0.3-1.9C269.3,142.6,267.6,141.6,266.9,142.7L266.9,142.7z"/>
			</g>
		</g>
		<g>
			<g>
				<path class="st4" d="M269.7,138c-1.8-0.1-3.6-0.6-5.4-1c-1.3-0.2-1.8,1.7-0.5,1.9c1.9,0.4,4,0.9,5.9,1
					C270.9,140,270.9,138,269.7,138L269.7,138z"/>
			</g>
		</g>
		<g>
			<g>
				<path class="st8" d="M267.7,156.1c-0.8,0.2-1.6,0.2-2.4,0.1c-0.7-0.1-1.4-0.2-1.1-1c0.4-1.2-1.5-1.7-1.9-0.5
					c-1.3,3.6,3.7,3.9,6,3.4C269.5,157.8,269,155.9,267.7,156.1L267.7,156.1z"/>
			</g>
		</g>
		<g>
			<path class="st9" d="M249.4,167.1c-0.5-0.4-3.5-3.9-4-5.9l-1,11.3L249.4,167.1z"/>
		</g>
		<g>
			<path class="st2" d="M125.7,540.8c2.1,0.8,4.3,1.7,6.3,2.7c0,0,2.3,0.8,2.8,2.3s-3.7,1.1-3.7,1.1c-21.4,0.7-42.8,0.5-64.1-0.5
				l-0.1-2.2c-0.1-1.7-0.2-3.5-0.3-5.2H68c19.5,1,37.3,1.2,56.8,1.7L125.7,540.8z"/>
		</g>
		<g>
			<path class="st10" d="M66.7,538.5c-0.6-14,0.1-26.9,1-41.1l38.8,0.9c0.9,6.7,1.9,13.5,2.8,20.2c0.8,5.4,1.6,11.1,4.9,15.2
				c2.9,3.6,6.9,5.2,11.2,7l-58.8-0.4L66.7,538.5z"/>
		</g>
		<path class="st11" d="M108.5,512.3c0,0-41.9,3.6-41.9,3.2c0-0.4,0.6-12.3,0.6-12.3l40.4,3L108.5,512.3z"/>
		<g>
			<path class="st10" d="M247.1,532.6c-3.5-1.5-6.9-3.2-10.2-5.1c-2.7-1.5-5.4-3.2-7.4-5.6c-2-2.3-3.3-5.2-4.5-8.1
				c-4-9.6-7.7-19.3-10.9-29.1l-36,10c3.6,12.3,7.2,24.6,10.8,37l19.9,2.5l36.5,0.5L247.1,532.6z"/>
		</g>
		<polygon class="st11" points="183,511.5 218.2,496.5 216.5,491.6 179.8,501.5 		"/>
		<g>
			<path class="st2" d="M188.9,531.6c0.4,1.5,0.9,3,1.3,4.5l0.9,2.5c3.4,0.5,6.2,0.3,9.7,0.2c18.9-0.6,37.9-0.4,56.8,0.5
				c-0.3-1.7-0.7-3.4-2.3-4.3c-1-0.6-3.1-0.6-4.2-1c-1.4-0.5-4.1-1.5-4.1-1.5C228.4,533,188.9,531.6,188.9,531.6z"/>
		</g>
		<g>
			<path class="st2" d="M77,516.1c1.3,0,2.7,0.4,3.7,1.4c1.6,1.6,1.5,4.4,0,6.1c-3.1,3.4-9.2,1.1-9.3-3.5c-0.1-2.8,3.1-3.9,5.5-4
				C76.9,516.1,77,516.1,77,516.1z"/>
		</g>
		<g>
			<path class="st2" d="M192.1,508.5c-1.4,0.1-2.3,1.3-2.6,2.7c-0.6,2.9,1.7,9.1,5.7,6.9c1.2-0.7,1.9-2.1,2-3.5
				c0-1.4-0.5-2.7-1.3-3.9c-0.8-1-1.8-2-3.1-2.2C192.5,508.5,192.3,508.5,192.1,508.5z"/>
		</g>
		<g>
			<g>
				<path id="SVGID_1_" class="st2" d="M61.2,503.3c2.5-43.8,6.6-87.5,10.6-131.2c0.5-5.9,0.4-10.6,1-16.5l0.6-7.6
					c1.9-19,3.4-38.1,9.1-56.4s15.9-35.8,31.6-46.3c6.1-4,12.8-6.9,19.1-10.6l2.4-1.3c18.9,13.6,52.6,48.7,52.6,48.7
					c-2.2,6.1-4.8,12-7.8,17.7l0.4,8.2c1.7,13.2,3.5,26.4,6.7,39.2c1.5,6.1,3.4,12.2,5.1,18.3c4.8,17.2,24.8,106.2,28.5,123.6
					l-44.9,12.2c-6.9-19.9-13.2-40-18.9-60.2c-7.6-27.1-13.8-53.4-20.3-80.8l-2.1-10.6c-6.6,17.4-11.1,30.3-17.7,47.7l-0.2,4.2
					c-3.4,35.6-4.9,68.1-6.8,103.8L61.2,503.3z"/>
			</g>
			<g>
				<g>
					<defs>
						<path id="SVGID_2_" d="M61.2,503.3c2.5-43.8,6.6-87.5,10.6-131.2c0.5-5.9,0.4-10.6,1-16.5l0.6-7.6c1.9-19,3.4-38.1,9.1-56.4
							s15.9-35.8,31.6-46.3c6.1-4,12.8-6.9,19.1-10.6l2.4-1.3c18.9,13.6,52.6,48.7,52.6,48.7c-2.2,6.1-4.8,12-7.8,17.7l0.4,8.2
							c1.7,13.2,3.5,26.4,6.7,39.2c1.5,6.1,3.4,12.2,5.1,18.3c4.8,17.2,24.8,106.2,28.5,123.6l-44.9,12.2
							c-6.9-19.9-13.2-40-18.9-60.2c-7.6-27.1-13.8-53.4-20.3-80.8l-2.1-10.6c-6.6,17.4-11.1,30.3-17.7,47.7l-0.2,4.2
							c-3.4,35.6-4.9,68.1-6.8,103.8L61.2,503.3z"/>
					</defs>
					<clipPath id="SVGID_4_">
						<use xlink:href="#SVGID_2_"  style="overflow:visible;"/>
					</clipPath>
					<g class="st12">
						<path class="st4" d="M144.6,241.3C116,255.8,97.9,285.9,89.9,317s-7.3,63.7-7.4,95.8c-0.1,28.7-0.9,57.4-4.9,85.8
							c-10-0.6-20-2.2-29.8-4.6c-1.5-0.4-3.1-0.8-4.1-2s-1.3-2.8-1.5-4.3c-1.3-9.7-1.4-19.4-1.2-29.2c1.1-55.6,11.4-111,30.4-163.3
							c5.8-15.9,12.6-31.9,24-44.4s28.3-21.1,45.1-18.7"/>
					</g>
				</g>
			</g>
			<g>
				<g>
					<defs>
						<path id="SVGID_6_" d="M61.2,503.3c2.5-43.8,6.6-87.5,10.6-131.2c0.5-5.9,0.4-10.6,1-16.5l0.6-7.6c1.9-19,3.4-38.1,9.1-56.4
							s15.9-35.8,31.6-46.3c6.1-4,12.8-6.9,19.1-10.6l2.4-1.3c18.9,13.6,52.6,48.7,52.6,48.7c-2.2,6.1-4.8,12-7.8,17.7l0.4,8.2
							c1.7,13.2,3.5,26.4,6.7,39.2c1.5,6.1,3.4,12.2,5.1,18.3c4.8,17.2,24.8,106.2,28.5,123.6l-44.9,12.2
							c-6.9-19.9-13.2-40-18.9-60.2c-7.6-27.1-13.8-53.4-20.3-80.8l-2.1-10.6c-6.6,17.4-11.1,30.3-17.7,47.7l-0.2,4.2
							c-3.4,35.6-4.9,68.1-6.8,103.8L61.2,503.3z"/>
					</defs>
					<clipPath id="SVGID_8_">
						<use xlink:href="#SVGID_6_"  style="overflow:visible;"/>
					</clipPath>
					<g class="st13">
						<path class="st4" d="M147.6,318.4c-0.1,30.7,2.8,62,14.3,90.5c3.8,9.4,8.6,19.4,6.2,29.3c-0.5,2.2-1.4,4.3-1.2,6.6
							c0.3,3.4,3.1,5.9,5,8.6c2.2,3.2,3.5,7,4.7,10.7c2.5,7.6,5,15.1,7.5,22.7c0.2,0.7,0.5,1.5,0.2,2.2s-1,1.1-1.7,1.5
							c-4.9,2.6-9.9,4.9-15.1,6.8c-10.6-19.5-10.6-42.8-16.6-64.1c-1.6-5.5-3.5-10.9-5-16.4c-1.5-5.3-2.5-10.6-3.5-16
							c-2.7-15.1-7.7-49.8-7.7-49.8"/>
					</g>
				</g>
			</g>
			<g>
				<g>
					<defs>
						<path id="SVGID_10_" d="M61.2,503.3c2.5-43.8,6.6-87.5,10.6-131.2c0.5-5.9,0.4-10.6,1-16.5l0.6-7.6c1.9-19,3.4-38.1,9.1-56.4
							s15.9-35.8,31.6-46.3c6.1-4,12.8-6.9,19.1-10.6l2.4-1.3c18.9,13.6,52.6,48.7,52.6,48.7c-2.2,6.1-4.8,12-7.8,17.7l0.4,8.2
							c1.7,13.2,3.5,26.4,6.7,39.2c1.5,6.1,3.4,12.2,5.1,18.3c4.8,17.2,24.8,106.2,28.5,123.6l-44.9,12.2
							c-6.9-19.9-13.2-40-18.9-60.2c-7.6-27.1-13.8-53.4-20.3-80.8l-2.1-10.6c-6.6,17.4-11.1,30.3-17.7,47.7l-0.2,4.2
							c-3.4,35.6-4.9,68.1-6.8,103.8L61.2,503.3z"/>
					</defs>
					<clipPath id="SVGID_12_">
						<use xlink:href="#SVGID_10_"  style="overflow:visible;"/>
					</clipPath>
					<g class="st14">
						<path class="st4" d="M161.9,254.8c-0.9,7-1.8,14.2,0.1,20.9c2.7,9.5,10.9,16.7,20,20.5c3.4,1.4,7.8,2.2,10.4-0.5
							c1.1-1.1,1.6-2.7,2-4.2c1.8-7.1,2.1-14.6,0.8-21.9c-0.6-3.3-1.5-6.4-2.2-9.7c-1.5-6.8-2.2-13.8-2-20.8c0.1-3.8,0.4-7.5,0-11.3
							c-0.3-2.9-1.1-5.7-1.9-8.4c-1.3-4.8-2.7-9.6-4-14.4c-0.3-1-0.7-2.2-1.7-2.5c-0.3-0.1-0.3-0.7-0.1-0.4"/>
					</g>
				</g>
			</g>
		</g>
		<g>
			<g>
				<path class="st15" d="M150.2,244c-13.6,10.1-27.3,20.6-36.5,35c-10.2,15.8-13,34.1-16,52.4c-6.4,39.4-10.3,79.1-11.9,119
					c-0.5,11.9-1,23.8-1.6,35.8c-0.1,1.4,2.2,1.4,2.2,0c1.4-27.6,2.2-55.2,4.6-82.7c1.7-19.4,3.9-38.7,6.8-58
					c2.7-18.5,4.6-38.5,12.5-55.7c8.7-18.9,24.8-31.7,41.1-43.9C152.5,245.1,151.3,243.2,150.2,244L150.2,244z"/>
			</g>
		</g>
		<g>
			<g>
				<path class="st16" d="M357.5,188.8c1.6,4.8,0.7,9.9-2.5,13.9c-0.8,1,0.6,2.4,1.4,1.4c3.7-4.5,4.8-10.3,3-15.9
					C359,187.1,357.1,187.6,357.5,188.8L357.5,188.8z"/>
			</g>
		</g>
		<g>
			<g>
				<path id="SVGID_3_" class="st1" d="M326.8,202.8c-10.7,7.6-21.8,14.7-34.4,18.6c-5.3,1.6-11.1,2.7-16.4,1.1
					c-6.1-1.8-10.7-6.7-14.9-11.5c-8.5-9.7-16.7-19.8-24.4-30.2l-6.5,38l1,8c2,2.2,5.5,6.6,7.5,8.8c7.4,8.4,15.4,17.1,26.2,20
					c9.2,2.5,18.6,0.3,27.5-2.2c21.3-6,41.3-18,58.6-31.6c7.1-5.6,14.5-11.1,21.2-17.2c1.1-1,2.2-2,3.3-3.1c3-2.9-0.7-5.1-2.2-5.1
					c1.1-1.7,3.8-5.1,2.3-7s-2.1-2-3.1-2c-0.1-1,2.7-4,1-5.7s-5.1,0.8-6.5,1.8c0.3-1.1,0.4-2.4-0.3-3.4c-0.8-1.2-2.2-1.3-3.3-0.6
					c-2.7,1.6-5.2,3.4-7.7,5.1c-2.7,1.8-5.4,3.7-8.1,5.5c-1.3,0.9-3,1.8-4.4,1.2c-0.9-0.4-1.4-1.3-2.1-1.9s-2-0.9-2.6-0.1
					c-0.2,0.3-0.2,0.7-0.2,1c0.1,1.3,1.1,2.7,0.5,3.9c-0.2,0.5-0.7,0.8-1.1,1.1C334,197.5,330.4,200.1,326.8,202.8z"/>
			</g>
			<g>
				<g>
					<defs>
						<path id="SVGID_14_" d="M326.8,202.8c-10.7,7.6-21.8,14.7-34.4,18.6c-5.3,1.6-11.1,2.7-16.4,1.1c-6.1-1.8-10.7-6.7-14.9-11.5
							c-8.5-9.7-16.7-19.8-24.4-30.2l-6.5,38l1,8c2,2.2,5.5,6.6,7.5,8.8c7.4,8.4,15.4,17.1,26.2,20c9.2,2.5,18.6,0.3,27.5-2.2
							c21.3-6,41.3-18,58.6-31.6c7.1-5.6,14.5-11.1,21.2-17.2c1.1-1,2.2-2,3.3-3.1c3-2.9-0.7-5.1-2.2-5.1c1.1-1.7,3.8-5.1,2.3-7
							s-2.1-2-3.1-2c-0.1-1,2.7-4,1-5.7s-5.1,0.8-6.5,1.8c0.3-1.1,0.4-2.4-0.3-3.4c-0.8-1.2-2.2-1.3-3.3-0.6
							c-2.7,1.6-5.2,3.4-7.7,5.1c-2.7,1.8-5.4,3.7-8.1,5.5c-1.3,0.9-3,1.8-4.4,1.2c-0.9-0.4-1.4-1.3-2.1-1.9s-2-0.9-2.6-0.1
							c-0.2,0.3-0.2,0.7-0.2,1c0.1,1.3,1.1,2.7,0.5,3.9c-0.2,0.5-0.7,0.8-1.1,1.1C334,197.5,330.4,200.1,326.8,202.8z"/>
					</defs>
					<clipPath id="SVGID_16_">
						<use xlink:href="#SVGID_14_"  style="overflow:visible;"/>
					</clipPath>
					<g class="st17">
						<path class="st9" d="M236.2,190.1c-0.7,5.3,0.6,10.6,1.8,15.8c3,12.7,6.4,26.2,15.8,35.3c6.4,6.2,15,9.8,23.8,10.9
							s17.8-0.3,26.3-2.9c-6.7,6.3-15.5,10-24.6,11.5s-18.4,0.9-27.4-0.6c-3.7-0.7-7.5-1.5-10.9-3c-9.6-4.2-16.3-13.4-19.5-23.3
							s-3.2-20.6-2.3-31"/>
					</g>
				</g>
			</g>
		</g>
		<g>
			<g>
				<path id="SVGID_5_" class="st3" d="M237.9,181.1c5.9,7.3,12.7,14.9,19.2,21.6l0.1,0.1l-0.8,0.5c-8.8,9.1-16.2,19.5-21.9,30.8
					l-9-16.8l10.4-33.9L237.9,181.1z"/>
			</g>
			<g>
				<g>
					<defs>
						<path id="SVGID_18_" d="M237.9,181.1c5.9,7.3,12.7,14.9,19.2,21.6l0.1,0.1l-0.8,0.5c-8.8,9.1-16.2,19.5-21.9,30.8l-9-16.8
							l10.4-33.9L237.9,181.1z"/>
					</defs>
					<clipPath id="SVGID_20_">
						<use xlink:href="#SVGID_18_"  style="overflow:visible;"/>
					</clipPath>
					<g class="st18">
						<path class="st19" d="M244.6,221.2c-2.8-11.3-3-23.4-3.3-35.5c-0.1-2.2-0.1-4.5-1.5-6c-1.4-1.6-4.4-2.2-7-0.7
							c-1.2,0.7-9.1,0.9-10.5,0.9c-6.8,0.1-6.9,3.6-7.2,5.7c-1.7,12.1,2.6,25.6,3.2,36.8c0.4,7.1,2.3,13.9,7.2,18.9
							c0.9,1,2,1.9,3.6,2.2c2.2,0.4,4.7-0.5,7.1-1.5c1.7-0.7,3.6-1.7,4.6-3.1"/>
					</g>
				</g>
			</g>
		</g>
		<g>
			<g>
				<path class="st8" d="M279.1,236.2c0.1-1.8-0.4-3.5-1.5-5c-0.8-1-2.5,0-1.7,1c0.9,1.2,1.3,2.5,1.2,4
					C277,237.5,279,237.5,279.1,236.2L279.1,236.2z"/>
			</g>
		</g>
		<g>
			<path class="st19" d="M60.4,484.8c20.2,0.1,32.5,0.8,52.7,1l-1.4,21l-52.1-2.5L60.4,484.8z"/>
		</g>
		<g>
			<path class="st19" d="M169.4,484.1c17.5-4.7,32.9-9,49.9-15l3.2,21.2L175.8,503L169.4,484.1z"/>
		</g>
		<g>
			<g>
				<path class="st15" d="M123.6,240.6c1.1,1.9,2.7,3.7,3.6,5.6c0.8,1.6,1.1-0.6,0.5,0.6c-0.2,0.3-1.1,0.7-1.4,0.9
					c-3.9,2.5-7.9,5-11.8,7.7c-3.9,2.7-7.6,5.5-11.3,8.4c-0.8,0.7-3.5,2.2-2.2,2.6c-1-0.3-2.2-3.7-2.6-4.6c-0.4-0.9-1.7-0.1-1.3,0.8
					c0.8,1.7,1.8,3.3,2.8,4.9c0.3,0.4,0.8,0.5,1.2,0.2c8.8-7.5,18.5-13.7,28.2-19.9c0.4-0.3,0.5-0.8,0.2-1.2
					c-1.7-2.1-3.1-4.3-4.5-6.6C124.4,239,123.1,239.8,123.6,240.6L123.6,240.6z"/>
			</g>
		</g>
		<g>
			<g>
				<path id="SVGID_7_" class="st3" d="M221.7,170.3c-14.2,1-27.1,6.1-38.2,15.1c-7.6,6.1-13.4,14.2-19.4,21.8
					c-3.1,3.8-5.7,7.8-9.2,11.3c-3.5,3.6-7.3,6.9-11.2,10c-2.7,2.2-5.6,4.4-8.9,5.2l49.3,47.6l10-30.1l3.3-6.4
					c6-1.7,12.1-3.4,18.1-5.1c6.7-1.9,14-4.2,17.7-10.1c2.8-4.4,3.1-10,3.2-15.3c0.2-10.3,0.5-20.5,0.7-30.8l3.7-5.5l-13.4-14.1
					L221.7,170.3z"/>
			</g>
			<g>
				<g>
					<defs>
						<path id="SVGID_22_" d="M221.7,170.3c-14.2,1-27.1,6.1-38.2,15.1c-7.6,6.1-13.4,14.2-19.4,21.8c-3.1,3.8-5.7,7.8-9.2,11.3
							c-3.5,3.6-7.3,6.9-11.2,10c-2.7,2.2-5.6,4.4-8.9,5.2l49.3,47.6l10-30.1l3.3-6.4c6-1.7,12.1-3.4,18.1-5.1
							c6.7-1.9,14-4.2,17.7-10.1c2.8-4.4,3.1-10,3.2-15.3c0.2-10.3,0.5-20.5,0.7-30.8l3.7-5.5l-13.4-14.1L221.7,170.3z"/>
					</defs>
					<clipPath id="SVGID_24_">
						<use xlink:href="#SVGID_22_"  style="overflow:visible;"/>
					</clipPath>
					<g class="st20">
						<path class="st2" d="M179.2,199.8c-10.6,17.3-16.8,37.3-17.9,57.6c-0.1,2.3-0.2,4.6,0.4,6.8c0.6,2.3,1.8,4.5,3.2,6.4
							c3.6,5.1,8.2,9.4,13.5,12.7c0.9,0.6,1.9,1.1,3,1.2c2.4,0.1,4.1-2.4,5-4.7c1.6-4.2,2.3-8.7,2.9-13.1c1.5-10.9,3-22,1.5-33
							c-0.5-3.9-1.5-7.8-1.8-11.7c-0.3-3.6-0.2-7.2-0.7-10.8c-0.5-3.6-1.9-7.2-4.6-9.6"/>
					</g>
				</g>
			</g>
		</g>
		<g>
			<g>
				<path class="st8" d="M366.4,182.5c-4.6,3.5-9.2,6.9-13.7,10.4c-1,0.8,0,2.5,1,1.7c4.6-3.5,9.2-6.9,13.7-10.4
					C368.4,183.5,367.4,181.8,366.4,182.5L366.4,182.5z"/>
			</g>
		</g>
		<g>
			<g>
				<path class="st8" d="M371.2,187.2c-4.6,3.7-9.5,7.1-14.1,10.8c-1,0.8,0.4,2.2,1.4,1.4c4.6-3.7,9.5-7.1,14.1-10.8
					C373.6,187.8,372.2,186.4,371.2,187.2L371.2,187.2z"/>
			</g>
		</g>
		<g>
			<g>
				<path class="st8" d="M372.4,195.6c-3.4,2.7-6.9,5.3-10.5,7.8c-1.1,0.7-0.1,2.4,1,1.7c3.8-2.5,7.4-5.2,10.9-8.1
					C374.8,196.2,373.4,194.8,372.4,195.6L372.4,195.6z"/>
			</g>
		</g>
		<g>
			<g>
				<path id="SVGID_9_" class="st1" d="M306.6,303.3c4.1-0.6,2.4-4.6,1.1-5.4c1.9-0.7,3.7-1.7,5.4-2.9c0.3-0.2,0.6-0.5,0.8-0.8
					c0.4-1-0.7-3.5-1.6-4c0.5-0.9,1.6-1.2,2.5-1.7s1.9-1.4,1.6-2.4c-0.2-0.7-0.9-1-1.5-1.3c-1.5-0.7-3.2-1-4.8-1
					c0.9-0.7,1.7-1.8,1.7-2.9c0-1.2-1.1-2.4-2.2-2.2l-2.2-0.4c-5.7-0.1-11.3-0.2-17-0.4c-1.6,0-3.5-0.2-4.3-1.6
					c-0.5-0.8-0.4-1.9-0.6-2.8s-1.1-1.9-2-1.6c-0.3,0.1-0.6,0.4-0.8,0.7c-0.7,1.1-0.7,2.8-1.8,3.4c-0.5,0.2-1,0.2-1.5,0.2
					c-16.8,0-31.8,0.4-48.3-2.5c-6.8-1.2-14.3-3.2-17.8-9.1c-1.6-2.6-2.1-5.7-2.6-8.7c-1.9-13.1-1.8-27.1-1-40.4l-0.2-4.2
					c0.4-4.6-1.2-9.4-4.3-12.8c-3.1-3.4-7.7-5.4-12.4-5.4c-1.7,0-3.4,0.3-5.1,0.7c-1.8,0.4-3.5,0.9-5,1.9c-3.6,2.3-5.1,6.7-5.9,10.9
					c-1,5.3-1.2,10.8-1.3,16.3c-0.2,11,0,22,0.3,32.9c0.2,8.3,0.3,16.6,1.6,24.8c0.6,4,1.4,7.1,3.8,10.4c2.2,2.9,4.9,5.3,8,7.2
					c7.5,4.5,16.5,5.8,25.2,6.7c23.1,2.2,46.4,1.8,69.7,1.4C284,305.9,302.4,303.9,306.6,303.3z"/>
			</g>
			<g>
				<g>
					<defs>
						<path id="SVGID_25_" d="M306.6,303.3c4.1-0.6,2.4-4.6,1.1-5.4c1.9-0.7,3.7-1.7,5.4-2.9c0.3-0.2,0.6-0.5,0.8-0.8
							c0.4-1-0.7-3.5-1.6-4c0.5-0.9,1.6-1.2,2.5-1.7s1.9-1.4,1.6-2.4c-0.2-0.7-0.9-1-1.5-1.3c-1.5-0.7-3.2-1-4.8-1
							c0.9-0.7,1.7-1.8,1.7-2.9c0-1.2-1.1-2.4-2.2-2.2l-2.2-0.4c-5.7-0.1-11.3-0.2-17-0.4c-1.6,0-3.5-0.2-4.3-1.6
							c-0.5-0.8-0.4-1.9-0.6-2.8s-1.1-1.9-2-1.6c-0.3,0.1-0.6,0.4-0.8,0.7c-0.7,1.1-0.7,2.8-1.8,3.4c-0.5,0.2-1,0.2-1.5,0.2
							c-16.8,0-31.8,0.4-48.3-2.5c-6.8-1.2-14.3-3.2-17.8-9.1c-1.6-2.6-2.1-5.7-2.6-8.7c-1.9-13.1-1.8-27.1-1-40.4l-0.2-4.2
							c0.4-4.6-1.2-9.4-4.3-12.8c-3.1-3.4-7.7-5.4-12.4-5.4c-1.7,0-3.4,0.3-5.1,0.7c-1.8,0.4-3.5,0.9-5,1.9
							c-3.6,2.3-5.1,6.7-5.9,10.9c-1,5.3-1.2,10.8-1.3,16.3c-0.2,11,0,22,0.3,32.9c0.2,8.3,0.3,16.6,1.6,24.8
							c0.6,4,1.4,7.1,3.8,10.4c2.2,2.9,4.9,5.3,8,7.2c7.5,4.5,16.5,5.8,25.2,6.7c23.1,2.2,46.4,1.8,69.7,1.4
							C284,305.9,302.4,303.9,306.6,303.3z"/>
					</defs>
					<clipPath id="SVGID_26_">
						<use xlink:href="#SVGID_25_"  style="overflow:visible;"/>
					</clipPath>
					<g class="st21">
						<path class="st9" d="M172.4,228.9c12.2-3.4,25-4.7,37.6-3.6c0.8-2.7,0.9-5.5,0.2-8.2c-12.5-1.2-25.3-2.3-37.3,1.4
							c-0.1,2.6-0.6,5.1-1.3,7.6"/>
					</g>
				</g>
			</g>
		</g>
		<g>
			<g>
				<path class="st8" d="M310.7,282.8c-7.1,0.2-14.1,0.4-21.2,0.6c-1.3,0-1.3,2,0,2c7.1-0.2,14.1-0.4,21.2-0.6
					C312,284.8,312,282.8,310.7,282.8L310.7,282.8z"/>
			</g>
		</g>
		<g>
			<g>
				<path class="st8" d="M312.5,288.9c-7.9,0.5-15.7,0.9-23.6,1.4c-1.3,0.1-1.3,2.1,0,2c7.9-0.5,15.7-0.9,23.6-1.4
					C313.8,290.8,313.8,288.8,312.5,288.9L312.5,288.9z"/>
			</g>
		</g>
		<g>
			<g>
				<path class="st8" d="M308.4,296.6c-6.8,0.4-13.6,0.5-20.4,0.3c-1.3,0-1.3,2,0,2c6.8,0.2,13.6,0.1,20.4-0.3
					C309.7,298.6,309.7,296.6,308.4,296.6L308.4,296.6z"/>
			</g>
		</g>
		<g>
			<path class="st22" d="M259.2,275.5c-0.3,3.1,0.7,24.2,0.1,31.8l9.5-0.4c0.3-10.1,0.3-20.3-0.2-31.1L259.2,275.5z"/>
		</g>
		<g>
			<path class="st2" d="M271.5,285.3c0,3.6,0.1,6.4,0.1,10c0,0.1,0,0.3-0.1,0.4c-0.1,0.2-0.4,0.2-0.6,0.3c-4.5,0.3-9.6,0.4-14.1,0.5
				l-0.2-12.7c5.1-0.3,9.8-0.3,14.8-0.4L271.5,285.3z"/>
		</g>
		<g>
			<g>
				<path class="st22" d="M253.8,114.7c-1.3,17.6-2,35.7-4.6,53.2c-0.2,1.3,1.7,1.8,1.9,0.5c2.6-17.7,3.3-35.9,4.6-53.7
					C255.9,113.5,253.9,113.5,253.8,114.7L253.8,114.7z"/>
			</g>
		</g>
		<g>
			<g>
				<path id="SVGID_11_" class="st1" d="M266.2,111.4c0.6,3.3,2.1,10.4,2.1,10.4c-3.2-1.7-6.7-3.3-11.4-3.7
					c-4.7-0.4-7.4-0.3-10.9,0.8c0,0,2.9-5.1,4.4-7.9c3.1-5.9,6.4-13.3,10.1-19.1c0.4-0.6,1.2-0.4,1.4,0.2
					C262.7,96.2,265.3,106.6,266.2,111.4z"/>
			</g>
			<g>
				<g>
					<defs>
						<path id="SVGID_27_" d="M266.2,111.4c0.6,3.3,2.1,10.4,2.1,10.4c-3.2-1.7-6.7-3.3-11.4-3.7c-4.7-0.4-7.4-0.3-10.9,0.8
							c0,0,2.9-5.1,4.4-7.9c3.1-5.9,6.4-13.3,10.1-19.1c0.4-0.6,1.2-0.4,1.4,0.2C262.7,96.2,265.3,106.6,266.2,111.4z"/>
					</defs>
					<clipPath id="SVGID_28_">
						<use xlink:href="#SVGID_27_"  style="overflow:visible;"/>
					</clipPath>
					<g class="st23">
						<path class="st24" d="M275.8,120.8c-10.1-3.3-20.1-7-30-11l2.9-2.4c8.4,3.1,16.9,6.1,25.4,8.9L275.8,120.8z"/>
					</g>
				</g>
			</g>
			<g>
				<g>
					<defs>
						<path id="SVGID_29_" d="M266.2,111.4c0.6,3.3,2.1,10.4,2.1,10.4c-3.2-1.7-6.7-3.3-11.4-3.7c-4.7-0.4-7.4-0.3-10.9,0.8
							c0,0,2.9-5.1,4.4-7.9c3.1-5.9,6.4-13.3,10.1-19.1c0.4-0.6,1.2-0.4,1.4,0.2C262.7,96.2,265.3,106.6,266.2,111.4z"/>
					</defs>
					<clipPath id="SVGID_30_">
						<use xlink:href="#SVGID_29_"  style="overflow:visible;"/>
					</clipPath>
					<g class="st25">
						<path class="st24" d="M276.1,113.8c-10.1-3.3-20.1-7-30-11l2.9-2.4c8.4,3.1,16.9,6.1,25.4,8.9L276.1,113.8z"/>
					</g>
				</g>
			</g>
			<g>
				<g>
					<defs>
						<path id="SVGID_31_" d="M266.2,111.4c0.6,3.3,2.1,10.4,2.1,10.4c-3.2-1.7-6.7-3.3-11.4-3.7c-4.7-0.4-7.4-0.3-10.9,0.8
							c0,0,2.9-5.1,4.4-7.9c3.1-5.9,6.4-13.3,10.1-19.1c0.4-0.6,1.2-0.4,1.4,0.2C262.7,96.2,265.3,106.6,266.2,111.4z"/>
					</defs>
					<clipPath id="SVGID_32_">
						<use xlink:href="#SVGID_31_"  style="overflow:visible;"/>
					</clipPath>
					<g class="st26">
						<path class="st24" d="M269.7,103.7c-6.8-2.2-13.5-4.6-20-7.2l2.2-2.4c5.5,2.1,11.1,4,16.8,5.8L269.7,103.7z"/>
					</g>
				</g>
			</g>
			<g>
				<g>
					<defs>
						<path id="SVGID_33_" d="M266.2,111.4c0.6,3.3,2.1,10.4,2.1,10.4c-3.2-1.7-6.7-3.3-11.4-3.7c-4.7-0.4-7.4-0.3-10.9,0.8
							c0,0,2.9-5.1,4.4-7.9c3.1-5.9,6.4-13.3,10.1-19.1c0.4-0.6,1.2-0.4,1.4,0.2C262.7,96.2,265.3,106.6,266.2,111.4z"/>
					</defs>
					<clipPath id="SVGID_34_">
						<use xlink:href="#SVGID_33_"  style="overflow:visible;"/>
					</clipPath>
					<polygon class="st27" points="261,90.3 253.9,122.3 240.5,123.9 259,90.1 					"/>
				</g>
			</g>
		</g>
		<g>
			<g>
				<path class="st8" d="M346.4,194.5c0.5,4.8-1.1,9.2-4.5,12.6c-0.9,0.9,0.5,2.3,1.4,1.4c3.7-3.7,5.6-8.8,5.1-14
					C348.3,193.3,346.3,193.3,346.4,194.5L346.4,194.5z"/>
			</g>
		</g>
		<g>
			<g>
				<path class="st19" d="M93.2,518.2c5,0.2,10,0.2,15,0.2c1.3,0,1.3-2,0-2c-5,0-10,0-15-0.2C91.9,516.2,91.9,518.2,93.2,518.2
					L93.2,518.2z"/>
			</g>
		</g>
		<g>
			<g>
				<path class="st19" d="M94.3,524c5,0.2,10,0.2,15,0.2c1.3,0,1.3-2,0-2c-5,0-10,0-15-0.2C93,522,93,524,94.3,524L94.3,524z"/>
			</g>
		</g>
		<g>
			<g>
				<path class="st19" d="M95.4,529.8c5,0.2,10,0.2,15,0.2c1.3,0,1.3-2,0-2c-5,0-10,0-15-0.2C94.1,527.8,94.1,529.8,95.4,529.8
					L95.4,529.8z"/>
			</g>
		</g>
		<g>
			<g>
				<path class="st19" d="M205.4,508.1c5.1-0.6,10.1-1.3,15.1-2c1.3-0.2,0.7-2.1-0.5-1.9c-4.9,0.7-9.7,1.4-14.6,2
					C204.2,506.3,204.1,508.3,205.4,508.1L205.4,508.1z"/>
			</g>
		</g>
		<g>
			<g>
				<path class="st19" d="M207.7,513.8c5.1-0.6,10.1-1.3,15.1-2c1.3-0.2,0.7-2.1-0.5-1.9c-4.9,0.7-9.7,1.4-14.6,2
					C206.4,512,206.4,514,207.7,513.8L207.7,513.8z"/>
			</g>
		</g>
		<g>
			<g>
				<path class="st19" d="M210,519.5c5.1-0.6,10.1-1.3,15.1-2c1.3-0.2,0.7-2.1-0.5-1.9c-4.9,0.7-9.7,1.4-14.6,2
					C208.7,517.8,208.7,519.8,210,519.5L210,519.5z"/>
			</g>
		</g>
		<polygon class="st4" points="259.1,286.2 259.1,294.3 269.5,294 269.3,285.9 		"/>
		<g class="st28">
			<g>
				<path class="st2" d="M221.2,171.5c2.1,1,3.9,3.1,5.5,4.8c1.8,1.9,3.4,4,4.3,6.5c0.5,1.2,2.4,0.7,1.9-0.5c-1-2.6-2.5-4.8-4.3-6.8
					c-1.8-2.1-3.8-4.5-6.4-5.7C221,169.2,220,170.9,221.2,171.5L221.2,171.5z"/>
			</g>
		</g>
		<g>
			<path class="st3" d="M177.1,200.3c-2.2,6.9-4,14.6-4.9,21.8c13.4-1.9,27.3-2,40.5,0.9c2.1-6.4,2.3-13.4,0.7-20
				c-0.6-2.2-1.3-4.3-2.7-6.1c-1.3-1.7-3-2.9-4.9-3.9c-8.5-4.6-19.7-3.6-27.4,2.3"/>
		</g>
		<g>
			<g>
				<path class="st19" d="M173.9,217c13.2-1.1,26.6-1.9,39.6,1.2c1.3,0.3,1.8-1.6,0.5-1.9c-13.2-3.1-26.7-2.4-40.1-1.2
					C172.7,215.1,172.6,217.1,173.9,217L173.9,217z"/>
			</g>
		</g>
		<g>
			<g>
				<path class="st7" d="M233.7,135.3c0.6,5.9,2.8,11.3,6.6,15.9c0.4,0.5,1.1-0.2,0.7-0.7c-3.6-4.3-5.7-9.6-6.3-15.2
					C234.6,134.7,233.6,134.7,233.7,135.3L233.7,135.3z"/>
			</g>
		</g>
		<g>
			<g>
				<path class="st7" d="M236.5,128.7c0.4,3.1,1.2,6,2.5,8.7c0.3,0.6,1.1,0.1,0.9-0.5c-1.2-2.6-2-5.4-2.3-8.2
					C237.4,128,236.4,128,236.5,128.7L236.5,128.7z"/>
			</g>
		</g>
		<g>
			<g>
				<path class="st3" d="M240.7,147c-3.1,2-4.9,5.6-4.9,9.3c0,3.4,2.2,6.2,5.8,5.8c7-0.7,8.2-13,2.4-16c-0.6-0.3-1.1,0.6-0.5,0.9
					c4.8,2.5,4,12.6-1.4,14c-4.4,1.1-5.8-3.4-5.1-6.8c0.5-2.6,1.9-4.9,4.2-6.3C241.8,147.6,241.3,146.7,240.7,147L240.7,147z"/>
			</g>
		</g>
		<g>
			<g>
				<path class="st15" d="M149.1,318.4c11.3,53.4,25.5,106,42.8,157.8c0.5,1.4,2.6,0.8,2.2-0.6c-17.3-51.7-31.5-104.4-42.8-157.8
					C150.9,316.4,148.8,317,149.1,318.4L149.1,318.4z"/>
			</g>
		</g>
		<g>
			<g>
				<path class="st15" d="M132.5,279.9c6.8,0.5,19.6-2.7,19.9-11.2c0-1.4-2.2-1.4-2.2,0c-0.1,4-5.4,6.7-8.7,7.9
					c-2.9,1-5.9,1.3-8.9,1.1C131.1,277.6,131.1,279.8,132.5,279.9L132.5,279.9z"/>
			</g>
		</g>
		<g>
			<g>
				<path class="st15" d="M117.6,243.4c1.2,3,2.9,5.6,4.9,8.1c0.4,0.5,1.1-0.2,0.7-0.7c-1.9-2.4-3.4-4.9-4.6-7.7
					C118.3,242.5,117.3,242.8,117.6,243.4L117.6,243.4z"/>
			</g>
		</g>
		<g>
			<g>
				<path class="st15" d="M163.6,280.5c-4.7,10.7-9.3,21.5-13.7,32.4c-0.4,0.9,1.1,1.3,1.4,0.4c4.4-10.7,8.9-21.4,13.6-32
					C165.3,280.4,164,279.8,163.6,280.5L163.6,280.5z"/>
			</g>
		</g>
		<g>
			<g>
				<path class="st2" d="M168.8,268.9c-1.8,3.9-3.5,7.7-5.2,11.6c-0.4,0.9,0.9,1.6,1.3,0.8c1.7-3.9,3.5-7.8,5.2-11.6
					C170.5,268.8,169.2,268,168.8,268.9L168.8,268.9z"/>
			</g>
		</g>
		<g>
			<g>
				<path class="st15" d="M168.6,287.2c-1.7,3.3-3.4,6.6-5,10c-0.7,1.4-1.4,3.2-2.3,4.5c-1.9,2.6-3.9,2.7-6.8,2.1
					c-0.9-0.2-1.3,1.3-0.4,1.4c3.1,0.5,6.1,0.8,8-2.1c3.2-4.5,5.3-10.3,7.8-15.2C170.3,287.1,169.1,286.3,168.6,287.2L168.6,287.2z"
					/>
			</g>
		</g>
		<g>
			<g>
				<path class="st2" d="M175.1,274.2c-2.2,4.3-4.3,8.7-6.5,13c-0.4,0.9,0.9,1.6,1.3,0.8c2.2-4.3,4.3-8.6,6.5-13
					C176.8,274.1,175.5,273.4,175.1,274.2L175.1,274.2z"/>
			</g>
		</g>
		<g>
			<g>
				<path class="st7" d="M217.6,94.3c-5.7,12.6,4,32.8,19.2,30.9c0.6-0.1,0.6-1.1,0-1c-14.3,1.8-23.7-17.4-18.3-29.4
					C218.7,94.2,217.8,93.7,217.6,94.3L217.6,94.3z"/>
			</g>
		</g>
		<g>
			<g>
				<path class="st7" d="M230.1,88.2c-7.3,3.6-9,12.3-7.8,19.8c1.4,8.5,8,13,16.1,14.2c0.6,0.1,0.9-0.9,0.3-1
					c-7.7-1.1-14-5.2-15.4-13.3c-1.2-7.1,0.3-15.3,7.3-18.8C231.2,88.8,230.7,87.9,230.1,88.2L230.1,88.2z"/>
			</g>
		</g>
		<g>
			<g>
				<path class="st7" d="M241.7,100.1c-4.8,5.6-7.6,16.4-0.2,21.2c0.5,0.4,1-0.5,0.5-0.9c-6.7-4.4-3.9-14.6,0.4-19.6
					C242.8,100.3,242.1,99.6,241.7,100.1L241.7,100.1z"/>
			</g>
		</g>
		<g>
			<g>
				<path class="st4" d="M151.7,307.8c-5.6,14-11.6,27.9-17.5,41.9c-0.5,1.2,1.2,2.2,1.7,1c6-14.1,12-28.1,17.7-42.3
					C154.1,307.1,152.1,306.5,151.7,307.8L151.7,307.8z"/>
			</g>
		</g>
	</g>
	<g>
		<g>
			<g>
				<path class="st1" d="M548,267.5c-3.7-3.1-17.6-15.9-17.6-15.9l19.2-20.5c9.4,7.3,19,14.3,28.9,21c0,0,11.5,24.7-10.4,28.6
					C546.3,284.6,548,267.5,548,267.5z"/>
			</g>
			<g>
				<path class="st1" d="M542.2,251c-2.8,3.6-5.8,7.5-10.2,8.8c-3.6,1.1-7.5,0.1-11-1.2c-7.3-2.9-13.8-8-18.3-14.5
					c-3,0.8-6.2,0.8-9.2,0c1.1-1.8,2.3-3.5,3.4-5.3c0.2-0.3,0.4-0.7,0.4-1.1s-0.3-0.8-0.6-1.2c-4.3-5.1-8.6-10.1-12.9-15.2
					c-1.8-2.1-3.6-4.2-4.7-6.7c-1.2-2.5-1.6-5.4-0.6-8c0.8-2,2.3-3.6,3.9-5c6.9-6.2,15.3-10.7,24.3-12.9c2.8-0.7,5.7-1.2,8.6-1
					c7.1,0.4,13.5,4.7,18.1,10.2c4.5,5.5,7.4,12.2,10.1,18.8c2.7,6.6,5.2,13.4,9.2,19.3L542.2,251z"/>
			</g>
			<ellipse class="st6" cx="518.4" cy="231.4" rx="6.9" ry="7"/>
			<g>
				<g>
					<path id="SVGID_13_" class="st4" d="M484.7,188.6c3.5-5,8.2-9.2,13.8-11.5c2.6-1,5.3-1.6,8.1-2.1c4.5-0.7,9-0.8,13.5-0.2
						c16,2.2,30,14,46.1,14.5c5.4,0.2,10.7-1,16.1-1.5c0.7-0.1,1.4-0.1,2,0.1c1,0.4,1.5,1.6,1.5,2.6c0.2,3.3-2.6,6-5.5,7.7
						c-2.7,1.6-8.7,3.9-10.7,4.6c9.2-2.5,18.2-6.5,27.5-7.7c2.1-0.3,4.8-0.1,5.8,1.9c0.5,1.1,0.3,2.4-0.1,3.6c-1,2.5-3,4.5-5.1,6.2
						c-3.9,3.2-9.1,6.2-13.8,8.1c0,0,10.8-1.5,16.3-2.3c0.7-0.1,1.6-0.2,2.2,0.3c0.6,0.5,0.6,1.5,0.3,2.2s-1,1.2-1.6,1.7
						c-8.7,6.8-16.1,14.4-26.8,17.9c-7.8,2.5-16.3,2.7-24.3,0.8c-8.5-2-15.7-6.6-22.4-12.1c-0.2-0.1-0.3-0.3-0.5-0.4l-0.3-1.3
						c2.4-2.3,3.2-5.8,3.2-9.2c0.1-2.6-0.2-5.4-1.6-7.6c-1.4-2.2-4-3.9-6.6-3.4c-2.7,0.5-4.5,3.2-5,5.9c-0.5,2.7,0.6,7.5,0.8,8.2
						c-10.8,4.8-39.9-8-39.9-8C479.9,202,481.2,193.6,484.7,188.6z"/>
				</g>
				<g>
					<g>
						<defs>
							<path id="SVGID_35_" d="M484.7,188.6c3.5-5,8.2-9.2,13.8-11.5c2.6-1,5.3-1.6,8.1-2.1c4.5-0.7,9-0.8,13.5-0.2
								c16,2.2,30,14,46.1,14.5c5.4,0.2,10.7-1,16.1-1.5c0.7-0.1,1.4-0.1,2,0.1c1,0.4,1.5,1.6,1.5,2.6c0.2,3.3-2.6,6-5.5,7.7
								c-2.7,1.6-8.7,3.9-10.7,4.6c9.2-2.5,18.2-6.5,27.5-7.7c2.1-0.3,4.8-0.1,5.8,1.9c0.5,1.1,0.3,2.4-0.1,3.6
								c-1,2.5-3,4.5-5.1,6.2c-3.9,3.2-9.1,6.2-13.8,8.1c0,0,10.8-1.5,16.3-2.3c0.7-0.1,1.6-0.2,2.2,0.3c0.6,0.5,0.6,1.5,0.3,2.2
								s-1,1.2-1.6,1.7c-8.7,6.8-16.1,14.4-26.8,17.9c-7.8,2.5-16.3,2.7-24.3,0.8c-8.5-2-15.7-6.6-22.4-12.1
								c-0.2-0.1-0.3-0.3-0.5-0.4l-0.3-1.3c2.4-2.3,3.2-5.8,3.2-9.2c0.1-2.6-0.2-5.4-1.6-7.6c-1.4-2.2-4-3.9-6.6-3.4
								c-2.7,0.5-4.5,3.2-5,5.9c-0.5,2.7,0.6,7.5,0.8,8.2c-10.8,4.8-39.9-8-39.9-8C479.9,202,481.2,193.6,484.7,188.6z"/>
						</defs>
						<clipPath id="SVGID_36_">
							<use xlink:href="#SVGID_35_"  style="overflow:visible;"/>
						</clipPath>
						<g class="st29">
							<g>
								<path class="st2" d="M495.9,201.9c4.6-1.1,9,0.6,13,2.7c3.7,1.9,7.2,4,10.7,6.3c7.1,4.6,14.1,9.6,21.8,13.3
									c7.2,3.4,15.2,6.6,23.3,6.2c8.2-0.4,15.9-4,23.2-7.5c1.2-0.6,0.1-2.3-1-1.7c-7.9,3.8-16.3,7.8-25.3,7.2
									c-8.7-0.6-17.4-4.7-24.8-8.9c-7.1-4-13.6-8.9-20.6-13.2c-6.1-3.7-13.4-8.1-20.8-6.3C494.2,200.3,494.7,202.2,495.9,201.9
									L495.9,201.9z"/>
							</g>
						</g>
					</g>
				</g>
			</g>
			<g>
				<g>
					<path class="st2" d="M495.1,185.9c4.5-4.3,13.3-4.2,19.1-3.6c6.7,0.7,13.3,3,19.3,6.1c5.5,2.9,10.6,6.6,16.6,8.3
						c6.1,1.7,12.5,1.8,18.6,0.3c1.2-0.3,0.7-2.2-0.5-1.9c-7.2,1.8-14.8,1.1-21.6-1.8c-6.2-2.6-11.6-6.8-17.8-9.3
						c-5.8-2.4-12-3.8-18.3-4c-5.5-0.1-12.6,0.4-16.8,4.4C492.7,185.4,494.1,186.8,495.1,185.9L495.1,185.9z"/>
				</g>
			</g>
			<g>
				<g>
					<path class="st2" d="M496.9,193.1c16.8-3.9,32,6.3,46.7,12.8c7.4,3.3,14.4,5.3,22.5,4.8c8.4-0.5,16.8-2.4,24.6-5.6
						c1.2-0.5,0.7-2.4-0.5-1.9c-8.2,3.3-17.1,5.3-25.9,5.6c-8.8,0.3-16.6-3.1-24.4-6.8c-13.6-6.5-28-14.4-43.5-10.8
						C495.1,191.5,495.6,193.4,496.9,193.1L496.9,193.1z"/>
				</g>
			</g>
			<g>
				<g>
					<path class="st2" d="M572.9,218c-9.6,3.3-21.6,4.5-28.7-4.3c-0.8-1-2.2,0.4-1.4,1.4c7.6,9.3,20.4,8.3,30.7,4.8
						C574.7,219.5,574.2,217.5,572.9,218L572.9,218z"/>
				</g>
			</g>
			<g>
				<g>
					<path class="st4" d="M497.2,228.1C497.3,228.1,497.3,228,497.2,228.1c-0.1,0-0.2,0.1-0.4,0.2c0.5,0,1.3,0.8,1.6,1
						c0.4,0.4,1.1,1,1.3,1.5c0-0.1,0-0.3,0.1-0.4c0.2-0.1,0.2-0.1,0.1-0.2c-0.1,0-0.1-0.1-0.2-0.1c-0.2-0.1-0.4-0.3-0.5-0.4
						c-0.3-0.2-0.6-0.5-0.8-0.8c-0.5-0.6-0.9-1.3-1.2-2c-0.2,0.2-0.5,0.5-0.7,0.7c0.7,0.3,1.2,0.7,1.7,1.2c0.1,0.1,1.1,1.7,1.2,1.7
						c0.1,0,0.3,0,0.4-0.1c-0.6-0.1-1.2-0.8-1.5-1.2c-0.4-0.5-0.7-1.1-0.9-1.8c-0.1,0.2-0.2,0.4-0.3,0.6c0.7-0.2,1.7,1.1,2.1,1.6
						c0.1,0.2,0.2,0.4,0.3,0.5c0,0.2,0.1,0.3,0.2,0.1c0.1-0.1,0.1-0.1,0-0.1c-0.1-0.1-0.4-0.2-0.5-0.2c-0.2-0.1-0.4-0.3-0.6-0.5
						c-0.3-0.3-0.5-0.6-0.7-0.9c0-0.1-0.2-0.4-0.3-0.3c0,0.1,0.2,0.2,0.3,0.3c0.7,0.5,1.2,1.3,1.5,2.2c0.2-0.2,0.3-0.4,0.5-0.6l0,0
						c-0.5-0.4-1.2,0.3-0.7,0.7c0.2,0.2,0.4,0.3,0.7,0.3s0.6-0.3,0.5-0.6c-0.2-0.8-0.6-1.5-1.2-2.1c-0.4-0.5-1.2-1.2-1.9-1.1
						c-1.8,0.3,0.3,2.7,0.9,3.2c0.5,0.4,1.2,0.9,1.9,0.8c0.8-0.1,0.7-0.8,0.5-1.4c-0.6-1.2-2.1-3.2-3.6-2.8
						c-0.2,0.1-0.4,0.4-0.3,0.6c0.3,1,0.8,1.9,1.6,2.6c0.5,0.5,1.6,1.6,2.3,0.8c0.6-0.7-0.4-1.9-0.8-2.4c-0.6-0.9-1.4-1.5-2.4-2
						c-0.5-0.2-0.9,0.2-0.7,0.7c0.5,1.1,1.2,2.1,2.1,2.9c0.4,0.4,1.9,1.7,2.3,0.5c0.2-0.5-0.3-0.9-0.5-1.3c-0.4-0.5-0.8-0.9-1.3-1.3
						c-0.6-0.5-1.8-1.6-2.4-0.7C496,228.1,496.9,228.6,497.2,228.1L497.2,228.1z"/>
				</g>
			</g>
			<g>
				<g>
					<path class="st4" d="M499.7,220.1c-3.1-1.7-6.5-2.3-9.8-0.8c-0.6,0.3-0.1,1.1,0.5,0.9c3-1.4,6-0.7,8.8,0.8
						C499.7,221.3,500.2,220.4,499.7,220.1L499.7,220.1z"/>
				</g>
			</g>
			<g>
				<g>
					<path class="st4" d="M509.9,238.8c2.5,2.6,2,7.5-0.8,9.7c-0.5,0.4,0.2,1.1,0.7,0.7c3.2-2.6,3.6-8.2,0.8-11.1
						C510.1,237.6,509.4,238.3,509.9,238.8L509.9,238.8z"/>
				</g>
			</g>
			<g>
				<g>
					<path id="SVGID_15_" class="st15" d="M652.7,594.3c-9.8-11.5-20.8-24.5-30.3-36.2c-1.3-1.6-2.6-3.2-3-5.2
						c-0.3-1.9,0.2-3.8,0.7-5.6c6.4-22.4,12.8-44.7,19.3-67.1L568.6,510c-5.4,13.1-10.8,28.3-4.5,41c2.2,4.5,5.7,8.2,9.1,11.8
						c17.7,18.8,36.5,38.6,54.2,57.4L652.7,594.3z"/>
				</g>
				<g>
					<g>
						<defs>
							<path id="SVGID_37_" d="M652.7,594.3c-9.8-11.5-20.8-24.5-30.3-36.2c-1.3-1.6-2.6-3.2-3-5.2c-0.3-1.9,0.2-3.8,0.7-5.6
								c6.4-22.4,12.8-44.7,19.3-67.1L568.6,510c-5.4,13.1-10.8,28.3-4.5,41c2.2,4.5,5.7,8.2,9.1,11.8
								c17.7,18.8,36.5,38.6,54.2,57.4L652.7,594.3z"/>
						</defs>
						<clipPath id="SVGID_38_">
							<use xlink:href="#SVGID_37_"  style="overflow:visible;"/>
						</clipPath>
						<g class="st30">
							<path class="st2" d="M640.6,514.1c-20.6,18.6-47,29-69.8,44.8c-1.9,1.3-4.1,2.7-6.2,1.9c-1.2-0.4-2.1-1.4-2.9-2.4
								c-2.7-3.4-5.2-7-7.3-10.8c-0.7-1.3-1.4-2.6-1.5-4c-0.3-3.3,2.3-6,4.7-8.2c25.8-24.1,52.9-48.3,85.9-60.5
								c0.8,3.8,0.9,7.8,0.5,11.7"/>
						</g>
					</g>
				</g>
			</g>
			<g>
				<g>
					<path id="SVGID_17_" class="st1" d="M639.1,629.6c16.4,18.3,33.3,36.2,50.7,53.5l4.2,4.1c3.1,1.4,7-0.6,8.5-3.7
						c1.5-3.1,1.2-6.8,0.2-10.1c-1.8-6-5.5-11.2-9.1-16.2c-11-15.3-22-30.6-33-46L639.1,629.6z"/>
				</g>
				<g>
					<g>
						<defs>
							<path id="SVGID_39_" d="M639.1,629.6c16.4,18.3,33.3,36.2,50.7,53.5l4.2,4.1c3.1,1.4,7-0.6,8.5-3.7c1.5-3.1,1.2-6.8,0.2-10.1
								c-1.8-6-5.5-11.2-9.1-16.2c-11-15.3-22-30.6-33-46L639.1,629.6z"/>
						</defs>
						<clipPath id="SVGID_40_">
							<use xlink:href="#SVGID_39_"  style="overflow:visible;"/>
						</clipPath>
						<g class="st31">
							<path class="st8" d="M678.8,611.3c-7.2,16.5-14.5,32.9-21.7,49.4c-7.2-10.5-14.4-21-21.6-31.5c-0.3-0.4-0.6-0.8-0.6-1.3
								s0.4-1,0.7-1.4c9.6-11.1,19.3-22.3,28.9-33.4"/>
						</g>
					</g>
				</g>
			</g>
			<g>
				<path class="st32" d="M699.6,665.5c11.4,5.8,23.1,10.8,35.1,15c0,0,3,33,1.4,47.9c-0.1,1.1-0.3,2.2-0.8,3.2
					c-0.7,1.2-2,2-3.2,2.7c-6.8,3.7-14.2,6.6-21.7,8.4l-6.3,1.2c1.8-4.4,3.6-8.8,5.4-13.2c0.6-1.6,1.3-3.2,1.1-4.9
					c-0.1-1.2-0.7-2.4-1.2-3.5c-4.4-9.1-8.8-18.1-13.2-27.2L692,686c0,0,6.6,4.3,10.7-3.2C706.7,675.1,699.6,665.5,699.6,665.5z"/>
			</g>
			<g>
				<g>
					<path class="st22" d="M712.6,705.5c-2.9,1.5-5.7,3.1-8.6,4.7c-1.1,0.6-0.1,2.4,1,1.7c2.8-1.6,5.7-3.3,8.6-4.7
						C714.8,706.8,713.8,705,712.6,705.5L712.6,705.5z"/>
				</g>
			</g>
			<g>
				<g>
					<path class="st22" d="M709.6,700.3c-2.7,1.6-5.3,3.3-8.1,4.7c-1.1,0.6-0.1,2.3,1,1.7c2.8-1.4,5.5-3.1,8.1-4.7
						C711.7,701.5,710.7,699.8,709.6,700.3L709.6,700.3z"/>
				</g>
			</g>
			<g>
				<g>
					<path class="st22" d="M707,694.8c-2.7,1.6-5.5,3.3-8.2,4.9c-1.1,0.7-0.1,2.4,1,1.7c2.7-1.6,5.5-3.3,8.2-4.9
						C709.2,695.8,708.2,694,707,694.8L707,694.8z"/>
				</g>
			</g>
			<g>
				<g>
					<path class="st22" d="M707.8,736.5c7-3,14-6.1,21.1-9.1c0.3-0.1,0.5-0.5,0.5-0.9c-0.4-16.2-1.7-32.4-3.9-48.5
						c-0.2-1.3-2.2-1.3-2,0c1.3,9.6,2.3,19.3,3,29c0.3,4.5,0.6,9.1,0.7,13.6c0,0.7,0.6,5,0.5,5.1c-0.2,0.3-0.9,0.3-1.2,0.5
						c-3,2.2-7.9,3.4-11.4,4.9c-2.8,1.2-5.5,2.4-8.3,3.6C705.6,735.2,706.7,737,707.8,736.5L707.8,736.5z"/>
				</g>
			</g>
			<g>
				<g>
					<path id="SVGID_19_" class="st1" d="M562.8,654.1c13.8,19.6,28.3,38.8,43.3,57.5l3.6,4.4c2.9,1.7,7.2-0.2,9.2-3.2
						s2.2-6.8,1.7-10.3c-0.9-6.2-3.9-11.7-6.8-17c-8.8-16.2-17.7-32.5-26.5-48.7L562.8,654.1z"/>
				</g>
				<g>
					<g>
						<defs>
							<path id="SVGID_41_" d="M562.8,654.1c13.8,19.6,28.3,38.8,43.3,57.5l3.6,4.4c2.9,1.7,7.2-0.2,9.2-3.2s2.2-6.8,1.7-10.3
								c-0.9-6.2-3.9-11.7-6.8-17c-8.8-16.2-17.7-32.5-26.5-48.7L562.8,654.1z"/>
						</defs>
						<clipPath id="SVGID_42_">
							<use xlink:href="#SVGID_41_"  style="overflow:visible;"/>
						</clipPath>
						<g class="st33">
							<path class="st8" d="M614.9,656.1c-12.3,12.5-25.7,24-39.8,34.3c-4.5-7.2-9-14.4-13.5-21.6c12.5-9,24.8-18.4,36.9-28
								c0.8-0.6,1.7-1.7,1.1-2.5"/>
						</g>
					</g>
				</g>
			</g>
			<g>
				<path class="st32" d="M618.8,696.8c11,6.4,21.6,9.9,33.4,14.8c0,0-0.4,33.1-3.6,47.9c-0.2,1.1-0.5,2.2-1.2,3.1
					c-0.8,1.2-2.2,1.9-3.6,2.5c-7.4,3.3-15.2,5.7-23.1,7.1l-6.6,0.8c2.3-4.3,4.6-8.6,7-12.9c0.8-1.5,1.7-3.1,1.7-4.8
					c0-1.2-0.4-2.4-0.9-3.6c-3.6-9.3-7.1-18.6-10.7-27.9l-3.4-9.3c0,0,6.3,4.7,11.3-2.6C624,704.6,618.8,696.8,618.8,696.8z"/>
			</g>
			<g>
				<g>
					<path class="st22" d="M627.1,735.3c-3.2,1.3-6.4,2.8-9.5,4.3c-1.2,0.5-0.2,2.3,1,1.7c3-1.4,6-2.8,9-4.1
						C628.8,736.8,628.3,734.8,627.1,735.3L627.1,735.3z"/>
				</g>
			</g>
			<g>
				<g>
					<path class="st22" d="M624.3,730c-2.8,1.4-5.7,2.9-8.6,4.1c-1.2,0.5-0.7,2.4,0.5,1.9c3.1-1.3,6.1-2.8,9.1-4.3
						C626.5,731.1,625.4,729.5,624.3,730L624.3,730z"/>
				</g>
			</g>
			<g>
				<g>
					<path class="st22" d="M622.2,724.2c-3,1.4-5.9,3-8.9,4.4c-1.2,0.6-0.1,2.3,1,1.7c3-1.4,5.9-3,8.9-4.4
						C624.4,725.5,623.4,723.8,622.2,724.2L622.2,724.2z"/>
				</g>
			</g>
			<g>
				<g>
					<path class="st22" d="M618.6,766c7.5-2.6,15-5.2,22.5-7.8c0.4-0.2,0.7-0.5,0.7-1c1.2-16.2,1.6-32.4,1.1-48.6c0-1.3-2-1.3-2,0
						c0.3,9.7,0.3,19.4,0,29.1c-0.2,5.1-1.1,10.5-0.8,15.6c0,0.3,0.1,3.3,0.2,3c-0.2,0.3-1.2,0.3-1.5,0.5c-3.3,2.2-8.7,3-12.4,4.3
						c-2.8,1-5.6,2-8.5,2.9C616.9,764.5,617.4,766.3,618.6,766L618.6,766z"/>
				</g>
			</g>
			<g>
				<g>
					<path class="st4" d="M602.9,509.3c-3.3,11.3-8.3,23.1-9.4,34.8c-1,10.6,5,18,11.7,25.5c16.5,18.3,33.6,36.2,51.1,53.5
						c0.9,0.9,2.3-0.5,1.4-1.4c-15.7-15.6-31.1-31.6-46-47.9c-7.5-8.2-17.1-16.6-16.3-28.8c0.4-6.2,2.7-12.3,4.4-18.2
						c1.7-5.7,3.3-11.3,5-17C605.2,508.6,603.3,508.1,602.9,509.3L602.9,509.3z"/>
				</g>
			</g>
			<g>
				<path class="st10" d="M623.7,621.5c6,6.4,12.6,13,18.6,19.3l27-30.4c-5.7-6.5-10.4-13.2-16-19.8L623.7,621.5z"/>
			</g>
			<g>
				<path class="st15" d="M590.7,627.8c-13.9-21.9-28.7-44.6-42.3-66.8l-2.4-3.7c33.2-22.4,66.6-46.8,97.3-72.4
					c0,0,26.1-25.2,30.3-40.1c5.1-18,0.1-38-10.2-53.5s-25.6-27.3-41.8-36.6L569.5,366c0.9,17.6,2.5,36.8,3.3,54.4l-0.3,1.7
					c-15.7,30.1-33.5,58.3-51.5,87c-9.1,14.6-19.9,31.2-19.9,49c0,10,6,17.9,11,26.2c11.3,18.5,24.1,36,36,54.2
					c2.6,4,6.4,8.9,9.4,13.1L590.7,627.8z"/>
			</g>
			<g>
				<path class="st10" d="M554,652.5c5,7.1,10.9,15.6,16,22l36.2-26.7c-4.7-7.3-9.6-15.1-14.2-22.4L554,652.5z"/>
			</g>
			<g>
				<g>
					<path class="st4" d="M668,400.2c-4.3,2-10.1,5.9-14.3,1.7c-3.1-3.1-5.4-7.8-7.9-11.4c-2.6-3.7-5.1-7.5-7.7-11.2
						c-1.4-2.1-3.2-3-0.8-5.4c1.8-1.7,5.2-2.3,7.5-2.9c1.2-0.3,0.7-2.3-0.5-1.9c-3.1,0.8-10.8,2.5-10.7,6.6c0.1,1.9,2.9,4.6,3.9,6.2
						c2.4,3.5,4.8,6.9,7.1,10.4c2.7,3.9,5.5,10.6,10,12.8c4.7,2.3,10.2-1.2,14.4-3.2C670.2,401.4,669.2,399.8,668,400.2L668,400.2z"
						/>
				</g>
			</g>
			<g>
				<g>
					<path class="st4" d="M591.8,390.4c-5.4,10.8-11.9,20.8-19.4,30.2c-0.8,1,0.6,2.4,1.4,1.4c7.7-9.5,14.2-19.7,19.7-30.6
						C594.1,390.2,592.4,389.2,591.8,390.4L591.8,390.4z"/>
				</g>
			</g>
			<g>
				<g>
					<path class="st4" d="M608.1,358.1c5.1,11,10.3,21.9,15.4,32.9c2.4,5,4.7,10.1,7.1,15.1c2.9,6.2,6.4,13,5.8,20.1
						c-1,11.1-11.3,21.4-18.6,29c-8.1,8.5-16,17.2-24,25.9c-8,8.6-15.8,17.5-23.9,26c-7.9,8.3-16.4,15.9-24.7,23.8
						c-4.2,4-8.3,7.9-12.3,12c-3,3-7.1,6.3-8.7,10.4c-1.1,2.8-0.5,5.5,0.7,8.1c2.3,5.1,5.6,9.9,8.5,14.7
						c6.7,11.1,13.7,22.1,21.1,32.7c6.6,9.4,13.5,18.4,19,28.5c0.6,1.1,2.3,0.1,1.7-1c-4.8-8.8-10.7-16.9-16.6-25.1
						c-6.7-9.3-12.9-19-19-28.8c-2.9-4.6-5.7-9.3-8.4-14c-1.3-2.2-2.7-4.5-3.9-6.8c-2.5-4.7-1.5-8.4,2-12.3
						c7.7-8.7,16.6-16.5,25.1-24.4c17-16,32.5-33.4,48.3-50.5c7.5-8.1,15.3-16,22.5-24.3c5.6-6.4,12.1-14.5,13.2-23.2
						c1.4-11.2-6.4-22.9-10.9-32.6c-5.8-12.5-11.6-24.9-17.5-37.4C609.3,355.9,607.6,356.9,608.1,358.1L608.1,358.1z"/>
				</g>
			</g>
			<g>
				<g>
					<path id="XMLID_11_" class="st1" d="M553.9,331.9c0.3,1.2-5,6.8-5.7,7.8c-4,5.5-8.1,11-12.1,16.6c-9.4,12.9-18.3,26-27.8,38.8
						c-8.4,11.3-25.4,23.1-36.3,7.8c-16.4-22.9-30.4-47.9-45.1-72c-3.7-6-7.3-12.1-11-18.1c-1-1.6-1.9-4-3.2-5.3
						c-0.3-0.3-0.5-1.2-0.8-1.4c-1.6-0.9-3.6,1.2-5.9,0.4c-4.5-1.6-6.2-8.7-7.9-12.5c-2.7-6.4-5.5-12.7-8.2-19.1
						c-7-0.6-13.9-1.8-20.7-3.7c-1.1-0.3-2.4-0.9-2.3-2.1s1.7-1.6,2.9-1.6c3.7,0,49.2,0.1,49.2,1.3c0.1-3.5-0.9-11.8,1.2-14.7
						c2.7-3.7,5.1,4.2,6.4,6.7c5.2,9.6,10.9,18.2,17.2,27.1c14.2,20.6,28.4,41.1,42.7,61.6c-0.4-0.5,6.5-9.2,7-9.8
						c4.9-6.9,9.8-13.8,14.7-20.7c5.2-7.3,26-39.6,32.3-44.8c1.7,3.3,1.4,8.9,2.3,12.5c1.6,6.5,3.2,13,4.8,19.5
						C549.6,314.5,551.8,323.2,553.9,331.9z"/>
				</g>
				<g>
					<g>
						<defs>
							<path id="SVGID_43_" d="M553.9,331.9c0.3,1.2-5,6.8-5.7,7.8c-4,5.5-8.1,11-12.1,16.6c-9.4,12.9-18.3,26-27.8,38.8
								c-8.4,11.3-25.4,23.1-36.3,7.8c-16.4-22.9-30.4-47.9-45.1-72c-3.7-6-7.3-12.1-11-18.1c-1-1.6-1.9-4-3.2-5.3
								c-0.3-0.3-0.5-1.2-0.8-1.4c-1.6-0.9-3.6,1.2-5.9,0.4c-4.5-1.6-6.2-8.7-7.9-12.5c-2.7-6.4-5.5-12.7-8.2-19.1
								c-7-0.6-13.9-1.8-20.7-3.7c-1.1-0.3-2.4-0.9-2.3-2.1s1.7-1.6,2.9-1.6c3.7,0,49.2,0.1,49.2,1.3c0.1-3.5-0.9-11.8,1.2-14.7
								c2.7-3.7,5.1,4.2,6.4,6.7c5.2,9.6,10.9,18.2,17.2,27.1c14.2,20.6,28.4,41.1,42.7,61.6c-0.4-0.5,6.5-9.2,7-9.8
								c4.9-6.9,9.8-13.8,14.7-20.7c5.2-7.3,26-39.6,32.3-44.8c1.7,3.3,1.4,8.9,2.3,12.5c1.6,6.5,3.2,13,4.8,19.5
								C549.6,314.5,551.8,323.2,553.9,331.9z"/>
						</defs>
						<clipPath id="SVGID_44_">
							<use xlink:href="#SVGID_43_"  style="overflow:visible;"/>
						</clipPath>
						<g class="st34">
							<path class="st8" d="M523,286.8c-0.1,18.8-0.5,37.7-4.9,55.9c-4.5,18.2-13.5,35.8-28.2,47.3c-3.6,2.8-7.9,5.3-12.5,4.9
								c-4.3-0.4-8.6-3.5-12.7-1.9c-3.3,7.8-1.2,17.2,4.1,23.8c5.3,6.5,13.5,10.3,21.7,11.6c8.2,1.3,16.8,0.2,25-1.5
								c12.8-2.8,25.5-7.5,35.7-15.9c13-10.6,21.1-26.5,24.9-42.9c3.8-16.4,3.7-33.5,2.5-50.4c-0.5-7.5-1.3-15.2-4.2-22.2
								c-5.3-12.9-17.1-21.6-28.4-29.7c-3.8-2.7-8-5.6-12.6-5"/>
						</g>
					</g>
				</g>
			</g>
			<g>
				<g>
					<path id="SVGID_21_" class="st32" d="M570.1,366c-6-4.5-10.2-9.6-15.9-14.6c-7.2-6.4-13.9-12.2-16.2-21.6
						c-1.2-4.7,1.1-41.6,1.6-55.7l8.3-6.4c0,1.9,1.3,3.6,2.6,5.1c2.5,2.8,5.6,5.6,9.3,5.4c3.6-0.2,6.5-3.2,8.6-6.2
						c4.2-6,7.2-13.4,5.6-20.6l1.2-2.6c4-1.4,15.3-3.3,19.5-4.3l5.5,0.8c11.7,10.1,16,20.8,27.7,30.9l-1,6.4
						c-1.1,26.3-3.1,47.2-5.1,73.5L570.1,366z"/>
				</g>
				<g>
					<g>
						<defs>
							<path id="SVGID_45_" d="M570.1,366c-6-4.5-10.2-9.6-15.9-14.6c-7.2-6.4-13.9-12.2-16.2-21.6c-1.2-4.7,1.1-41.6,1.6-55.7
								l8.3-6.4c0,1.9,1.3,3.6,2.6,5.1c2.5,2.8,5.6,5.6,9.3,5.4c3.6-0.2,6.5-3.2,8.6-6.2c4.2-6,7.2-13.4,5.6-20.6l1.2-2.6
								c4-1.4,15.3-3.3,19.5-4.3l5.5,0.8c11.7,10.1,16,20.8,27.7,30.9l-1,6.4c-1.1,26.3-3.1,47.2-5.1,73.5L570.1,366z"/>
						</defs>
						<clipPath id="SVGID_46_">
							<use xlink:href="#SVGID_45_"  style="overflow:visible;"/>
						</clipPath>
						<g class="st35">
							<path class="st22" d="M590.1,274.1c4.1,10.6,9.5,20.7,16,30.1c4.5,6.5,9.5,12.6,13.6,19.3c2.7,4.4,5.1,9.1,7.5,13.7
								c1.7-10.1,3.4-20.2,3.5-30.4s-1.2-20.6-5.5-29.9"/>
						</g>
					</g>
				</g>
			</g>
			<g>
				<g>
					<path id="SVGID_23_" class="st1" d="M667.1,142.9c3.5-2.5,9,5,8.1,6.7c1.7,3,13.4,20,13.4,20c6.5,30.7,28.3,68.1,37,98.3l0.2,3
						c0.9,5.3,1.8,10.6,1.1,15.9s-3.2,10.6-7.7,13.4c-4.3,2.7-9.6,2.7-14.6,2.4c-12.6-0.8-25-3.1-37.3-5.4
						c-20.7-3.9-67.5-13.9-72.8-16.3c-13.7-5.7-20.7-30.2-0.2-35.6c4.7-1.2,11.7-1.6,19.4-0.3c5,0.6,39.8,5.5,64.7,9l2-0.1
						c-6-24.5-12.4-50.5-18.3-75l-1.5-4.2c-3-9.4-3.4-21.6,3.7-29.2c0.3-0.3,0.6-0.6,1-0.9C665.8,143.9,666.5,143.4,667.1,142.9z"/>
				</g>
				<g>
					<g>
						<defs>
							<path id="SVGID_47_" d="M667.1,142.9c3.5-2.5,9,5,8.1,6.7c1.7,3,13.4,20,13.4,20c6.5,30.7,28.3,68.1,37,98.3l0.2,3
								c0.9,5.3,1.8,10.6,1.1,15.9s-3.2,10.6-7.7,13.4c-4.3,2.7-9.6,2.7-14.6,2.4c-12.6-0.8-25-3.1-37.3-5.4
								c-20.7-3.9-67.5-13.9-72.8-16.3c-13.7-5.7-20.7-30.2-0.2-35.6c4.7-1.2,11.7-1.6,19.4-0.3c5,0.6,39.8,5.5,64.7,9l2-0.1
								c-6-24.5-12.4-50.5-18.3-75l-1.5-4.2c-3-9.4-3.4-21.6,3.7-29.2c0.3-0.3,0.6-0.6,1-0.9C665.8,143.9,666.5,143.4,667.1,142.9z"
								/>
						</defs>
						<clipPath id="SVGID_48_">
							<use xlink:href="#SVGID_47_"  style="overflow:visible;"/>
						</clipPath>
						<g class="st36">
							<path class="st8" d="M676.4,149.5c0.1,12,7.1,22.7,11.8,33.8c2,4.6,3.5,9.3,5.1,14.1c8.3,24.8,16.3,49.7,24.1,74.6
								c1.4,4.6,2.9,9.3,3.3,14.1c0.4,4.8-0.4,9.9-3,13.9c-0.7,1.1-1.6,2.6-0.8,3.6c0.3,0.4,0.9,0.6,1.4,0.8
								c8.9,2.5,19.2-2,23.5-10.2c3-5.7,3.1-12.4,3-18.8c-0.6-26.2-5.4-52.3-14.1-77c-3.7-10.5-8.2-21-15.3-29.5
								c-3.1-3.8-6.7-7.1-10.4-10.4c-7.6-6.6-15.7-12.7-24.2-18.2"/>
						</g>
					</g>
				</g>
			</g>
			<g>
				<g>
					<path class="st8" d="M493.8,357.1c-2.7-3.7-5.4-7.4-8.1-11.1c-0.8-1-2.5,0-1.7,1c2.7,3.7,5.4,7.4,8.1,11.1
						C492.8,359.1,494.5,358.1,493.8,357.1L493.8,357.1z"/>
				</g>
			</g>
			<g>
				<g>
					<path class="st8" d="M390.2,275.6c4.1,0.1,8.1,0.4,12.2,0.9c2.2,0.3,4.4,0.6,6.6,0.9c3.1,0.5,3.5,2.5,4.2,5.1
						c1.1,4.2,1.9,8.5,2.5,12.8c0.1,0.9,0.3,1.8,0.4,2.8s0.8,3.1,0.6,4.1c-0.7,2.5-3.9,2.5-5.9,2.9c-1.3,0.3-0.7,2.2,0.5,1.9
						c1.9-0.4,4.8-0.5,6.3-1.9c1.3-1.1,1.1-2.8,0.9-4.4c-0.8-6-1.7-12-3.2-17.9c-0.5-1.9-0.8-4.6-2.3-6.1s-4.1-1.5-6-1.8
						c-5.6-0.8-11.2-1.4-16.8-1.5C388.9,273.6,388.9,275.6,390.2,275.6L390.2,275.6z"/>
				</g>
			</g>
			<g>
				<g>
					<path class="st8" d="M417.1,296.8c-2.5-0.1-5-0.3-7.5-0.4c-2.3-0.1-5.4,0.2-7.6-0.5c-1.2-0.4-1.7,1.5-0.5,1.9
						c2.1,0.7,5,0.4,7.2,0.5c2.8,0.2,5.6,0.3,8.5,0.5C418.4,298.9,418.4,296.9,417.1,296.8L417.1,296.8z"/>
				</g>
			</g>
			<g>
				<g>
					<path class="st8" d="M414.1,285.6c-5-0.5-10-0.2-15-0.7c-1.3-0.1-1.3,1.9,0,2c5,0.5,10,0.2,15,0.7
						C415.4,287.8,415.4,285.8,414.1,285.6L414.1,285.6z"/>
				</g>
			</g>
			<g>
				<g>
					<path class="st8" d="M428.7,292.9c-4.5-1.8-8.3-4.8-11.2-8.7c-0.8-1-2.5,0-1.7,1c3.3,4.3,7.4,7.5,12.4,9.6
						C429.3,295.3,429.9,293.4,428.7,292.9L428.7,292.9z"/>
				</g>
			</g>
			<g>
				<g>
					<path class="st8" d="M679.2,252.9c0.7,5.5,1.8,11,3.3,16.4c0.3,1.2,2.3,0.7,1.9-0.5c-1.4-5.2-2.5-10.5-3.2-15.9
						C681.1,251.6,679.1,251.6,679.2,252.9L679.2,252.9z"/>
				</g>
			</g>
			<g>
				<g>
					<path class="st8" d="M678.1,253.8c-0.5,1.9-1.1,3.8-1.6,5.6c-0.4,1.2,1.6,1.8,1.9,0.5c0.5-1.9,1.1-3.8,1.6-5.6
						C680.4,253.1,678.5,252.6,678.1,253.8L678.1,253.8z"/>
				</g>
			</g>
		</g>
		<g>
			<g>
				<path class="st16" d="M702.4,129.8c1.7,5.1,0.8,10.5-2.6,14.8c-0.8,1,0.6,2.4,1.4,1.4c3.8-4.8,5-10.9,3.1-16.7
					C703.9,128.1,702,128.6,702.4,129.8L702.4,129.8z"/>
			</g>
		</g>
		<g id="XMLID_3_">
			<path class="st1" d="M688.5,169.7c7.4-6,17.7-16.9,24.7-23.4c1.2-1.1,2.3-2.1,3.5-3.2c3.2-3.1-0.8-5.4-2.3-5.4
				c1.2-1.8,3.9-5.4,2.4-7.3s-2.1-2.2-3.2-2.1c-0.1-1.1,2.8-4.3,1-6s-5.4,0.9-6.8,1.8c0.4-1.2,0.4-2.6-0.3-3.6
				c-0.9-1.2-2.3-1.3-3.5-0.6c-2.8,1.7-5.4,3.6-8.1,5.4c-2.8,1.9-5.7,3.9-8.5,5.8c-1.4,0.9-3.1,1.9-4.6,1.2
				c-0.9-0.4-1.5-1.4-2.2-2.1s-2.1-1-2.7-0.1c-0.2,0.3-0.3,0.7-0.2,1.1c0.1,1.4,1.1,2.8,0.5,4.1c-0.2,0.5-0.7,0.8-1.1,1.1
				c-3.7,2.7-7.4,5.4-11.2,8.1"/>
		</g>
		<g>
			<g>
				<path class="st8" d="M708.5,123.3c-4.8,3.7-9.6,7.3-14.4,11c-1,0.8,0,2.5,1,1.7c4.8-3.7,9.6-7.3,14.4-11
					C710.5,124.2,709.5,122.5,708.5,123.3L708.5,123.3z"/>
			</g>
		</g>
		<g>
			<g>
				<path class="st8" d="M713.5,128.2c-4.8,3.9-10,7.5-14.8,11.4c-1,0.8,0.4,2.2,1.4,1.4c4.8-3.9,10-7.5,14.8-11.4
					C715.9,128.8,714.5,127.4,713.5,128.2L713.5,128.2z"/>
			</g>
		</g>
		<g>
			<g>
				<path class="st8" d="M714.8,137.1c-3.5,2.9-7.2,5.6-11,8.2c-1.1,0.7-0.1,2.5,1,1.7c3.9-2.7,7.7-5.5,11.4-8.5
					C717.2,137.7,715.8,136.3,714.8,137.1L714.8,137.1z"/>
			</g>
		</g>
		<g>
			<g>
				<path class="st8" d="M685.8,135.9c0.5,5-1.1,9.8-4.7,13.4c-0.9,0.9,0.5,2.3,1.4,1.4c3.9-3.9,5.8-9.3,5.3-14.8
					C687.7,134.6,685.7,134.6,685.8,135.9L685.8,135.9z"/>
			</g>
		</g>
	</g>
	<g class="st37">
		<path class="st38" d="M277.2,364.5c0.6,0.5,1.6,0.2,2.4,0.2c0.9,0,1.9,0,2.8,0c1.8,0,3.6,0,5.4,0c3.5,0,7.1-0.1,10.6-0.1
			c1.2,0,2.4,0,3.5,0c1.2,0,1.3-0.4,1.3-1.6c0-1.3,0-2.6-0.1-3.9c0-0.4,0.2-1.5,0-1.8c-0.3-0.4-1-0.3-1.5-0.3
			c-2.6-0.1-5.1,0.1-7.7,0.1c-5.2,0-10.5,0-15.7,0c-0.3,0-0.7,0-1,0.2c-0.8,0.4-0.6,2.3-0.6,3c0,1.1-0.2,3.1,0.4,4
			C277,364.4,277.1,364.5,277.2,364.5z"/>
		<path class="st38" d="M293.5,379.9c0.4,0.4,1.2,0.3,1.7,0.3c5.1-0.1,10.2-0.1,15.3-0.1c0.4,0,0.9,0.1,1.1-0.3c0.1-0.2,0-0.8,0-1.1
			c0-0.9,0-1.9,0.1-2.8c0-0.8,0.2-1.8,0-2.5c-0.3-1.2-2-0.9-2.9-0.9c-2.8,0.1-5.7-0.1-8.6,0c-1.5,0-3,0-4.4,0.2
			c-1.1,0.1-2.6-0.1-2.6,1.4c0,1.4,0,3.3-0.1,4.7c0,0.3,0,0.6,0.1,0.9C293.3,379.8,293.4,379.8,293.5,379.9z"/>
		<path class="st38" d="M271.4,393.9c0.5,0.4,1.3,0.4,1.9,0.4c0.8,0,1.6,0,2.4,0c0.9,0,1.8,0,2.8,0c2.3,0,4.7-0.1,7-0.1
			c0.8,0,1.6,0,2.3,0c0.4,0,0.6-0.1,0.8-0.5c0.1-0.2,0.1-0.4,0.1-0.6c0-1.1,0-2.2,0-3.4c0-0.5,0-1,0-1.6c0-0.4,0.1-0.9,0-1.2
			c-0.2-0.4-0.7-0.3-1-0.3c-1.1-0.1-2.3,0-3.4,0c-1.2,0-2.5,0-3.7,0c-1.4,0-2.8,0-4.2,0c-0.7,0-1.4,0-2.1,0s-1.4-0.1-2.1,0
			c-0.2,0-0.4,0.1-0.5,0.2c-0.2,0.2-0.2,0.5-0.3,0.8c-0.2,1.6-0.2,3.3-0.2,4.9c0,0.3,0,0.7,0.1,1
			C271.2,393.8,271.3,393.8,271.4,393.9z"/>
	</g>
	<g class="st37">
		<path class="st38" d="M449.4,124c0.6,0.5,1.6,0.2,2.4,0.2c0.9,0,1.9,0,2.8,0c1.8,0,3.6,0,5.4,0c3.5,0,7.1-0.1,10.6-0.1
			c1.2,0,2.4,0,3.5,0c1.2,0,1.3-0.4,1.3-1.6c0-1.3,0-2.6-0.1-3.9c0-0.4,0.2-1.5,0-1.8c-0.3-0.4-1-0.3-1.5-0.3
			c-2.6-0.1-5.1,0.1-7.7,0.1c-5.2,0-10.5,0-15.7,0c-0.3,0-0.7,0-1,0.2c-0.8,0.4-0.6,2.3-0.6,3c0,1.1-0.2,3.1,0.4,4
			C449.2,123.8,449.3,123.9,449.4,124z"/>
		<path class="st38" d="M465.7,139.3c0.4,0.4,1.2,0.3,1.7,0.3c5.1-0.1,10.2-0.1,15.3-0.1c0.4,0,0.9,0.1,1.1-0.3c0.1-0.2,0-0.8,0-1.1
			c0-0.9,0-1.9,0.1-2.8c0-0.8,0.2-1.8,0-2.5c-0.3-1.2-2-0.9-2.9-0.9c-2.8,0.1-5.7-0.1-8.6,0c-1.5,0-3,0-4.4,0.2
			c-1.1,0.1-2.6-0.1-2.6,1.4c0,1.4,0,3.3-0.1,4.7c0,0.3,0,0.6,0.1,0.9C465.5,139.1,465.6,139.2,465.7,139.3z"/>
		<path class="st38" d="M443.6,153.3c0.5,0.4,1.3,0.4,1.9,0.4c0.8,0,1.6,0,2.4,0c0.9,0,1.8,0,2.8,0c2.3,0,4.7-0.1,7-0.1
			c0.8,0,1.6,0,2.3,0c0.4,0,0.6-0.1,0.8-0.5c0.1-0.2,0.1-0.4,0.1-0.6c0-1.1,0-2.2,0-3.4c0-0.5,0-1,0-1.6c0-0.4,0.1-0.9,0-1.2
			c-0.2-0.4-0.7-0.3-1-0.3c-1.1-0.1-2.3,0-3.4,0c-1.2,0-2.5,0-3.7,0c-1.4,0-2.8,0-4.2,0c-0.7,0-1.4,0-2.1,0c-0.7,0-1.4-0.1-2.1,0
			c-0.2,0-0.4,0.1-0.5,0.2c-0.2,0.2-0.2,0.5-0.3,0.8c-0.2,1.6-0.2,3.3-0.2,4.9c0,0.3,0,0.7,0.1,1
			C443.4,153.1,443.5,153.2,443.6,153.3z"/>
	</g>
	<g>
		<path class="st0" d="M104.1,64.1c-7.6,0.1-15.2,0.2-22.7,0.3c-3.8,0.1-7.6,0.1-11.4,0.2c-1.9,0-3.8,0.1-5.7,0.1
			c-1,0-3.9-0.5-4.5,0.6c-0.2,0.4-0.2,0.8-0.2,1.3c0.1,4.4,0.3,8.9,0.4,13.3c0.2,5,0.3,9.9,0.5,14.9c0,0.9-0.2,2,0.5,2.4
			s3-0.1,3.9-0.1c2.5,0,5-0.1,7.5-0.1c10-0.2,19.9-0.4,29.9-0.6c0.8,0,1.6,0,2.4,0C104.5,96.4,104.2,66.7,104.1,64.1L104.1,64.1z"/>
		<path class="st3" d="M98.4,70.1c-0.1-0.1-0.3-0.1-0.7-0.2c-1.4-0.3-3.2,0.1-4.6,0.1c-2.4,0-4.7,0.1-7.1,0.1
			c-5,0.1-9.9,0.2-14.9,0.3c-0.3,0-5,0.1-5,0.1c0,3.7,0,7.4,0.1,11c0,2.5,0,5,0,7.5c0,0.7-0.3,1.8,0,2.5c0.5,1,1.7,0.6,2.7,0.6
			c9.1-0.1,18.2,0,27.3,0c0.6,0,1.2,0,1.7-0.2c1.5-0.7,0.9-3.5,0.9-4.8c0-2.1-0.2-4.2-0.2-6.3c0-2.5,0-5,0-7.5c0-0.8,0.2-1.8,0-2.5
			C98.5,70.3,98.5,70.1,98.4,70.1z"/>
		<path class="st0" d="M129,6.4c-0.6,0.6,0.1,2.3,0.2,3c0.1,1.3,0.3,2.5,0.4,3.8c0.3,2.5,0.5,4.9,0.8,7.4c0.4,3.9,0.8,7.8,1.3,11.6
			c0.1,1,0.3,2,0.3,3c0.1,1.1-0.2,2.3,1.2,2.6c0.5,0.1,0.9,0,1.4,0c6.3-0.7,12.6-1.3,18.8-1.9c0.5,0,1,0,1.5-0.1
			c0.9-0.2,0.7-0.5,0.6-1.6c-0.8-7-1.6-14.1-2.3-21.1c-0.1-0.9-0.2-1.8-0.3-2.7c-0.1-1.4-0.3-2.7-0.4-4.1c0-0.4,0.1-2.1-0.3-2.4
			c-0.4-0.4-2.3,0.2-2.9,0.2c-1.7,0.2-3.4,0.4-5.2,0.6c-4.7,0.5-9.5,1-14.2,1.5C129.6,6.1,129.2,6.2,129,6.4L129,6.4z"/>
		<path class="st3" d="M133.7,10.2c-0.6,0.7,0,3,0.1,3.8c0.2,1.8,0.4,3.7,0.6,5.5c0.4,3.7,0.8,7.4,1.2,11.2c0.1,1.2,0.1,2.5,1.5,2.4
			c1.5-0.1,2.9-0.4,4.4-0.6c1.7-0.2,3.3-0.4,5-0.6c1.3-0.1,3,0,4.2-0.5c0.6-0.3,0.5,0.1,0.7-0.7c0.3-1.2-0.3-2.6-0.4-3.9
			c-0.2-1.8-0.4-3.6-0.6-5.4c-0.4-3.9-0.9-7.7-1.3-11.6c-0.2-1.9-1-1.8-2.6-1.7c-1.7,0.2-3.4,0.6-5.1,0.8c-1.2,0.2-2.4,0.3-3.6,0.5
			c-1,0.1-3,0-3.9,0.5C133.8,10,133.8,10.1,133.7,10.2z"/>
		<path class="st0" d="M6,30.2c-0.8,0.9-0.5,4.6-0.6,5.8c-0.2,2.5-0.3,5-0.5,7.5c-0.3,5-0.7,10-1,14.9c-0.3,4-0.5,8-0.8,12
			c0,0.4-0.2,1.1-0.1,1.4c0.4,1.2,2.9,0.8,4.2,0.9c5,0.3,10,0.7,15,1c2.5,0.2,5,0.3,7.5,0.5c1.2,0.1,6.4,1.1,7.2,0.3
			c0.4-0.4,0.2-2.8,0.3-3.5c0.1-1.3,0.2-2.6,0.3-3.9c0.2-2.5,0.3-5,0.5-7.5c0.3-5,0.6-10,0.9-15c0.2-3,0.3-6,0.5-9
			c0-0.9,0.5-2.7-0.2-3.4c-0.8-0.7-2.9-0.5-3.8-0.6c-6.2-0.5-12.5-0.7-18.8-1.1c-2.2-0.1-4.4-0.3-6.6-0.4c-0.8-0.1-3-0.6-3.8-0.2
			C6.1,30,6.1,30.1,6,30.2z"/>
		<path class="st3" d="M10.4,35.4c-0.4,0.4-0.6,1-0.6,1.9c0,0.4-0.1,0.9-0.1,1.3c-0.1,1.8-0.2,3.5-0.3,5.3c-0.3,5-0.6,10-1,15
			c0,0.6-0.2,9-0.6,9.1c3.4,0.2,6.8,0.4,10.2,0.7c2.7,0.2,5.3,0.3,8,0.5c1.8,0.1,3.9,0.6,5.7,0.4c0.7-0.1,0.7,0.2,1.1-0.6
			c0.5-1.2,0.2-3.5,0.3-4.8c0.2-3.1,0.4-6.2,0.6-9.3c0.2-3.5,0.6-6.9,0.8-10.4c0.1-1.7,0.2-3.4,0.3-5c0-1,0.5-2.5-0.6-3
			c-0.4-0.2-0.7-0.2-1.1-0.2c-6.8-0.5-13.6-0.9-20.4-1.4C11.5,35,10.8,35.1,10.4,35.4z"/>
	</g>
</g>
<g id="Layer_8" class="st39">
</g>
</svg>
