<svg width="583" height="563" viewBox="0 0 583 563" fill="none" xmlns="http://www.w3.org/2000/svg">
<path d="M381.854 195.823C367.333 188.706 352.677 181.455 337.215 178.232C308.307 172.189 280.205 181.455 261.785 198.374C243.365 215.294 233.684 239.061 229.247 263.635C225.213 285.657 225.213 309.29 233.28 332.387C241.348 355.483 258.155 377.908 281.55 391.47C297.416 400.601 315.567 405.436 330.626 415.775C354.963 432.56 366.257 460.088 387.098 480.499C408.745 501.715 440.88 513.935 469.385 511.652C500.444 509.235 525.184 490.973 539.57 467.608C553.957 444.243 559.201 416.312 562.428 388.382C566.193 355.08 565.924 317.481 541.587 287.537C523.974 265.783 496.679 252.087 470.729 239.33C441.014 224.962 411.434 210.325 381.854 195.823Z" fill="#162C48"/>
<path d="M220.238 266.455C221.583 263.769 223.062 261.218 224.675 258.667C224.944 258.129 225.751 257.995 226.154 258.264C226.692 258.532 226.961 259.204 226.558 259.741C224.944 262.292 223.6 264.843 222.255 267.395L222.121 267.798C221.852 268.335 221.18 268.603 220.642 268.335C220.104 268.066 219.835 267.395 220.104 266.858L220.238 266.455ZM216.608 274.915C216.877 274.377 217.415 274.109 217.953 274.377C218.491 274.512 218.894 275.183 218.625 275.854C217.684 278.674 216.877 281.494 216.339 284.314C216.205 284.986 215.667 285.254 214.995 285.254C214.322 285.12 214.053 284.583 214.053 283.911C214.86 280.823 215.533 277.869 216.608 274.915C216.608 275.049 216.608 274.915 216.608 274.915ZM229.65 251.415L229.785 251.281C231.533 248.998 233.549 246.715 235.566 244.567C235.97 244.164 236.642 244.164 237.18 244.567C237.583 244.97 237.583 245.641 237.18 246.178C235.163 248.327 233.281 250.61 231.398 252.758C230.995 253.295 230.323 253.295 229.785 252.892C229.516 252.49 229.381 251.952 229.65 251.415ZM213.247 292.237C213.381 291.834 213.919 291.565 214.322 291.565C214.995 291.565 215.398 292.102 215.398 292.774C215.264 295.594 215.264 298.548 215.398 301.502C215.398 302.174 214.995 302.576 214.322 302.711C213.65 302.711 213.247 302.308 213.112 301.636C212.978 298.682 212.978 295.594 213.112 292.64C213.112 292.505 213.112 292.371 213.247 292.237ZM241.751 238.524C241.751 238.39 241.886 238.256 242.02 238.256C244.172 236.242 246.457 234.362 248.877 232.482C249.415 232.079 250.088 232.213 250.491 232.616C250.894 233.153 250.76 233.825 250.356 234.227C247.936 236.107 245.785 237.987 243.634 239.867C243.23 240.27 242.424 240.27 242.02 239.733C241.617 239.464 241.617 238.927 241.751 238.524ZM214.322 309.828C214.457 309.559 214.726 309.29 215.129 309.29C215.667 309.156 216.339 309.559 216.474 310.23C217.012 313.05 217.684 315.87 218.491 318.69C218.625 319.227 218.356 319.899 217.684 320.033C217.146 320.167 216.474 319.899 216.339 319.227C215.532 316.273 214.726 313.453 214.188 310.499C214.188 310.365 214.188 310.096 214.322 309.828ZM255.6 227.513C255.735 227.379 255.735 227.245 256.004 227.11C258.424 225.365 260.844 223.753 263.399 222.008C263.936 221.605 264.609 221.874 264.878 222.276C265.281 222.813 265.147 223.485 264.609 223.753C262.189 225.365 259.768 227.11 257.348 228.722C256.81 229.125 256.138 228.99 255.735 228.453C255.466 228.319 255.466 227.782 255.6 227.513ZM270.256 217.577C270.39 217.442 270.525 217.308 270.659 217.174L278.189 212.474C278.727 212.205 279.399 212.34 279.668 212.877C280.071 213.414 279.802 214.085 279.264 214.354L271.735 219.054C271.197 219.322 270.525 219.188 270.256 218.651C270.121 218.382 270.121 217.979 270.256 217.577ZM219.297 326.747C219.432 326.478 219.566 326.344 219.835 326.21C220.373 325.941 221.045 326.21 221.314 326.881C222.39 329.567 223.6 332.253 224.944 334.938C225.213 335.475 224.944 336.147 224.407 336.415C223.869 336.684 223.196 336.415 222.928 335.878C221.583 333.193 220.373 330.373 219.297 327.687C219.163 327.418 219.163 327.15 219.297 326.747ZM285.315 208.177C285.449 208.043 285.584 207.774 285.718 207.774C288.273 206.297 290.693 204.686 293.248 203.208C293.786 202.94 294.458 203.074 294.727 203.611C294.996 204.148 294.861 204.82 294.323 205.088C291.769 206.565 289.214 208.177 286.794 209.654C286.256 209.922 285.584 209.788 285.315 209.251C285.18 208.983 285.18 208.58 285.315 208.177ZM227.096 342.726C227.23 342.592 227.365 342.324 227.499 342.189C228.037 341.921 228.709 342.055 228.978 342.592C230.457 345.009 231.936 347.561 233.549 350.112C233.953 350.649 233.684 351.32 233.281 351.589C232.743 351.858 232.071 351.723 231.802 351.32C230.188 348.769 228.575 346.218 227.096 343.801C226.961 343.398 226.961 342.995 227.096 342.726ZM300.508 199.18C300.643 199.046 300.777 198.777 300.912 198.643C303.466 197.166 306.021 195.689 308.71 194.346C309.248 194.077 309.92 194.212 310.189 194.749C310.458 195.286 310.324 195.957 309.786 196.226C307.231 197.569 304.677 199.046 302.122 200.523C301.584 200.791 300.912 200.657 300.643 200.12C300.374 199.851 300.374 199.449 300.508 199.18ZM236.776 357.497C236.911 357.363 236.911 357.229 237.18 357.095C237.718 356.692 238.39 356.826 238.793 357.363C240.541 359.78 242.289 362.063 244.037 364.48C244.44 365.017 244.306 365.689 243.768 366.091C243.23 366.494 242.558 366.36 242.155 365.823C240.407 363.54 238.659 361.123 236.911 358.706C236.642 358.303 236.642 357.9 236.776 357.497ZM247.398 371.597C247.533 371.463 247.533 371.328 247.667 371.194C248.205 370.791 248.877 370.925 249.281 371.328C251.163 373.745 252.911 376.028 254.659 378.311C255.062 378.848 254.928 379.519 254.39 379.922C253.852 380.325 253.18 380.191 252.777 379.654C251.029 377.371 249.281 374.954 247.398 372.671C247.264 372.403 247.264 372 247.398 371.597ZM258.02 385.831C258.155 385.696 258.155 385.562 258.424 385.428C258.962 385.025 259.634 385.159 260.037 385.696C261.92 388.382 263.533 390.799 265.012 393.082C265.281 393.619 265.147 394.29 264.609 394.559C264.071 394.828 263.399 394.693 263.13 394.156C261.651 391.873 260.037 389.456 258.155 386.905C257.886 386.636 257.886 386.099 258.02 385.831ZM267.432 400.87C267.567 400.602 267.701 400.467 267.97 400.333C268.508 400.064 269.18 400.199 269.449 400.736C270.794 403.153 271.869 405.704 272.945 408.121L273.214 408.927C273.483 409.464 273.214 410.136 272.542 410.404C272.004 410.673 271.332 410.404 271.063 409.733L270.794 408.927C269.853 406.644 268.642 404.227 267.432 401.81C267.298 401.542 267.298 401.139 267.432 400.87ZM383.602 170.578C383.736 170.175 384.14 170.041 384.543 169.907C387.501 169.638 390.459 169.504 393.417 169.504C394.09 169.504 394.493 170.041 394.493 170.578C394.493 171.25 393.955 171.652 393.417 171.652C390.459 171.652 387.501 171.787 384.678 172.055C384.005 172.055 383.467 171.652 383.467 170.981C383.467 170.847 383.602 170.712 383.602 170.578ZM274.155 417.252C274.29 416.984 274.558 416.715 274.827 416.715C275.365 416.581 276.037 416.85 276.172 417.521C276.979 420.207 277.651 423.027 278.323 426.115C278.458 426.652 278.054 427.324 277.517 427.458C276.979 427.592 276.306 427.189 276.172 426.652C275.5 423.564 274.827 420.744 274.021 418.192C273.886 417.655 274.021 417.387 274.155 417.252ZM401.35 170.31C401.485 169.907 401.888 169.638 402.426 169.638C405.518 169.772 408.476 170.041 411.3 170.444C411.972 170.578 412.375 171.115 412.241 171.652C412.107 172.324 411.569 172.727 411.031 172.592C408.207 172.19 405.249 171.921 402.291 171.787C401.619 171.787 401.216 171.25 401.216 170.578C401.216 170.578 401.35 170.444 401.35 170.31ZM278.054 434.44C278.189 434.172 278.458 433.903 278.861 433.769C279.399 433.635 280.071 434.038 280.206 434.709C280.743 437.529 281.147 440.483 281.685 443.437C281.819 444.109 281.416 444.646 280.743 444.646C280.071 444.78 279.533 444.377 279.533 443.706C278.996 440.752 278.592 437.797 278.054 434.978C277.92 434.843 277.92 434.709 278.054 434.44ZM280.878 451.897C281.012 451.628 281.281 451.36 281.685 451.226C282.357 451.091 282.895 451.494 283.029 452.166C283.567 454.985 283.97 457.94 284.508 460.894C284.643 461.431 284.239 462.102 283.567 462.237C282.895 462.371 282.357 461.968 282.222 461.297C281.685 458.342 281.147 455.388 280.743 452.568C280.743 452.3 280.743 452.165 280.878 451.897ZM418.964 172.727C419.233 172.324 419.636 172.055 420.174 172.19C423.132 172.861 425.955 173.532 428.779 174.472C429.317 174.607 429.72 175.278 429.451 175.815C429.317 176.352 428.645 176.755 428.107 176.487C425.283 175.681 422.46 174.875 419.636 174.204C419.098 174.069 418.695 173.532 418.829 172.861C418.829 172.861 418.829 172.727 418.964 172.727ZM284.239 469.353C284.374 469.085 284.643 468.816 285.046 468.816C285.584 468.682 286.256 469.085 286.391 469.622C287.063 472.442 287.87 475.396 288.676 478.082C288.811 478.619 288.542 479.29 287.87 479.425C287.332 479.559 286.659 479.29 286.525 478.619C285.718 475.799 284.912 472.845 284.239 470.025C284.105 469.756 284.105 469.488 284.239 469.353ZM435.771 177.829C436.04 177.292 436.577 177.024 437.25 177.292C439.535 178.232 441.821 179.172 444.107 180.381L445.452 181.052C445.989 181.321 446.258 181.992 445.989 182.529C445.72 183.066 445.048 183.335 444.51 183.066L443.166 182.395C441.014 181.321 438.729 180.381 436.443 179.441C435.771 179.172 435.502 178.501 435.771 177.829C435.771 177.964 435.771 177.964 435.771 177.829ZM289.349 486.273C289.483 486.004 289.618 485.87 289.886 485.736C290.424 485.467 291.096 485.87 291.365 486.407C292.441 489.227 293.517 491.913 294.861 494.464C295.13 495.001 294.861 495.673 294.323 495.941C293.786 496.21 293.113 495.941 292.844 495.404C291.634 492.718 290.424 490.033 289.349 487.213C289.214 486.81 289.214 486.541 289.349 486.273ZM451.636 185.886C452.04 185.215 452.712 185.08 453.25 185.483C455.805 187.095 458.225 188.84 460.645 190.586C461.183 190.989 461.183 191.66 460.914 192.197C460.511 192.735 459.838 192.735 459.3 192.466C457.015 190.72 454.595 188.975 452.04 187.498C451.502 187.095 451.368 186.423 451.636 185.886ZM297.013 502.118C297.147 501.984 297.281 501.715 297.416 501.715C297.954 501.447 298.626 501.581 298.895 502.118C300.374 504.669 302.122 507.086 303.735 509.369C304.139 509.906 304.004 510.578 303.466 510.981C302.929 511.383 302.256 511.249 301.853 510.712C300.105 508.429 298.357 505.878 296.878 503.327C296.878 502.924 296.878 502.521 297.013 502.118ZM307.769 516.218C307.769 516.083 307.903 515.949 308.038 515.949C308.441 515.546 309.114 515.546 309.651 515.949C311.668 518.098 313.954 519.977 316.105 521.723C316.643 522.126 316.643 522.797 316.24 523.334C315.836 523.872 315.164 523.872 314.626 523.469C312.34 521.723 310.055 519.709 307.903 517.426C307.635 517.158 307.635 516.62 307.769 516.218ZM465.62 196.629C465.62 196.494 465.754 196.494 465.754 196.36C466.158 195.957 466.83 195.823 467.368 196.36C469.519 198.374 471.67 200.523 473.553 202.806C473.956 203.208 473.956 204.014 473.418 204.417C473.015 204.82 472.208 204.82 471.805 204.283C469.922 202.134 467.906 199.986 465.754 197.971C465.485 197.703 465.485 197.166 465.62 196.629ZM477.318 209.922C477.452 209.788 477.452 209.654 477.721 209.52C478.259 209.117 478.931 209.251 479.334 209.788C481.082 212.205 482.696 214.757 484.04 217.442C484.309 217.979 484.175 218.651 483.637 218.919C483.099 219.188 482.427 219.054 482.158 218.516C480.813 215.965 479.2 213.548 477.586 211.131C477.183 210.728 477.183 210.325 477.318 209.922ZM321.752 526.96C322.021 526.423 322.694 526.154 323.231 526.423C324.173 526.96 324.979 527.363 325.921 527.766C326.458 528.034 327.131 528.303 327.668 528.571C328.744 529.109 329.954 529.511 331.03 529.914C331.568 530.183 331.837 530.72 331.702 531.391C331.433 532.063 330.895 532.197 330.223 532.063C329.013 531.66 327.803 531.123 326.727 530.586C326.055 530.317 325.517 530.048 324.845 529.646C323.904 529.243 322.962 528.706 322.021 528.169C321.752 528.169 321.483 527.497 321.752 526.96ZM485.923 225.499C486.057 225.231 486.192 225.096 486.46 224.962C486.998 224.693 487.671 224.962 487.939 225.499C489.015 228.185 490.091 230.87 491.032 233.825C491.166 234.362 490.898 235.033 490.36 235.167C489.822 235.302 489.15 235.033 489.015 234.496C488.074 231.542 486.998 228.856 485.923 226.305C485.654 226.036 485.654 225.768 485.923 225.499ZM338.29 533.137C338.559 532.734 338.963 532.466 339.501 532.6C342.324 533.137 345.148 533.54 348.106 533.808C348.778 533.808 349.181 534.345 349.181 535.017C349.181 535.688 348.643 536.091 347.971 536.091C344.879 535.957 341.921 535.554 339.097 534.883C338.559 534.748 338.156 534.211 338.29 533.54C338.29 533.271 338.29 533.137 338.29 533.137ZM491.435 242.284C491.57 242.016 491.839 241.747 492.108 241.747C492.645 241.613 493.318 241.881 493.452 242.553C494.259 245.373 494.931 248.327 495.603 251.147C495.738 251.684 495.335 252.355 494.797 252.49C494.259 252.624 493.587 252.221 493.452 251.684C492.78 248.864 491.973 246.044 491.301 243.09C491.301 242.687 491.435 242.419 491.435 242.284ZM355.904 534.211C356.039 533.808 356.442 533.674 356.845 533.54C359.669 533.406 362.627 533.003 365.45 532.466C365.988 532.331 366.661 532.734 366.795 533.406C366.929 533.943 366.526 534.614 365.854 534.748C362.896 535.285 359.803 535.688 356.98 535.957C356.307 535.957 355.904 535.554 355.77 534.883C355.904 534.614 355.904 534.48 355.904 534.211ZM495.738 259.338C495.872 259.069 496.141 258.801 496.41 258.801C496.948 258.667 497.62 259.069 497.755 259.606C498.561 262.964 499.368 265.649 500.175 268.066C500.309 268.603 500.041 269.275 499.503 269.409C498.965 269.543 498.293 269.275 498.158 268.738C497.351 266.321 496.679 263.501 495.738 260.144C495.603 259.875 495.738 259.606 495.738 259.338ZM373.383 530.988C373.518 530.72 373.787 530.451 374.056 530.451C376.745 529.646 379.568 528.571 382.257 527.363C382.795 527.094 383.467 527.363 383.736 527.9C384.005 528.437 383.736 529.109 383.199 529.377C380.509 530.586 377.551 531.66 374.728 532.466C374.19 532.6 373.518 532.331 373.383 531.794C373.249 531.526 373.249 531.257 373.383 530.988ZM501.116 276.257C501.251 275.989 501.385 275.854 501.654 275.72C502.192 275.452 502.864 275.72 503.133 276.257C503.94 278.003 504.612 279.614 505.419 281.226C505.957 282.166 506.494 283.106 507.032 284.046C507.301 284.583 507.167 285.254 506.629 285.523C506.091 285.791 505.419 285.657 505.15 285.12C504.612 284.18 504.074 283.24 503.536 282.166C502.73 280.554 501.923 278.943 501.116 277.063C500.982 276.929 500.982 276.526 501.116 276.257ZM389.652 524.006C389.787 523.872 389.921 523.603 390.056 523.469C390.997 522.932 391.938 522.395 392.879 521.857C394.493 520.917 395.972 519.977 397.451 518.903C397.989 518.5 398.661 518.635 399.064 519.172C399.468 519.709 399.333 520.38 398.795 520.783C397.316 521.857 395.703 522.797 394.09 523.872C393.148 524.409 392.207 525.08 391.131 525.617C390.594 525.886 389.921 525.752 389.652 525.214C389.384 524.677 389.384 524.274 389.652 524.006ZM510.259 291.297C510.394 291.163 510.394 291.028 510.528 290.894C511.066 290.491 511.738 290.625 512.142 291.028C513.755 293.177 515.637 295.325 517.789 297.742C518.192 298.145 518.192 298.951 517.654 299.354C517.251 299.757 516.444 299.757 516.041 299.219C513.755 296.802 511.873 294.52 510.259 292.371C510.125 292.237 510.125 291.7 510.259 291.297ZM404.308 514.069C404.443 513.935 404.443 513.801 404.577 513.666C406.863 511.921 409.014 509.906 411.3 507.892C411.703 507.489 412.51 507.489 412.913 508.026C413.317 508.429 413.317 509.235 412.779 509.638C410.493 511.652 408.207 513.666 406.056 515.412C405.518 515.815 404.846 515.68 404.443 515.278C404.039 514.875 404.039 514.472 404.308 514.069ZM417.35 502.118C417.35 501.984 417.485 501.85 417.619 501.85C419.771 499.701 421.787 497.552 423.67 495.404C424.073 495.001 424.745 494.867 425.283 495.27C425.687 495.673 425.821 496.344 425.418 496.881C423.401 499.03 421.384 501.178 419.367 503.327C418.964 503.729 418.292 503.729 417.754 503.327C417.216 503.058 417.081 502.521 417.35 502.118ZM429.317 489.093C429.317 488.959 429.451 488.958 429.451 488.824C431.468 486.541 433.351 484.259 435.098 482.11C435.502 481.573 436.174 481.573 436.712 481.976C437.115 482.379 437.25 483.05 436.846 483.587C434.964 485.736 433.082 488.019 431.065 490.436C430.661 490.838 429.989 490.973 429.451 490.57C429.182 490.033 429.048 489.496 429.317 489.093ZM522.091 304.591C522.091 304.456 522.226 304.322 522.36 304.322C522.764 303.919 523.57 303.919 523.974 304.322L525.722 306.202C527.201 307.679 528.545 309.156 530.024 310.768C530.427 311.17 530.427 311.976 530.024 312.379C529.621 312.782 528.814 312.782 528.411 312.379C526.932 310.902 525.453 309.29 524.108 307.813L522.36 305.933C521.957 305.396 521.957 304.993 522.091 304.591ZM440.611 475.53C440.611 475.396 440.746 475.396 440.746 475.262C442.628 472.979 444.645 470.696 446.527 468.548C446.931 468.145 447.603 468.011 448.141 468.414C448.544 468.816 448.678 469.488 448.275 470.025C446.393 472.173 444.51 474.456 442.494 476.739C442.09 477.142 441.418 477.276 440.88 476.873C440.611 476.47 440.477 475.933 440.611 475.53ZM452.309 462.102C452.309 461.968 452.443 461.968 452.443 461.834C454.595 459.551 456.611 457.402 458.763 455.523C459.166 455.12 459.973 455.12 460.376 455.523C460.779 455.925 460.779 456.731 460.376 457.134C458.359 459.014 456.342 461.162 454.191 463.445C453.788 463.848 453.116 463.982 452.578 463.445C452.174 463.177 452.174 462.639 452.309 462.102ZM465.082 450.017C465.217 449.883 465.216 449.748 465.351 449.614C467.771 447.6 470.191 445.854 472.612 444.243C473.149 443.84 473.822 443.974 474.091 444.511C474.494 445.049 474.359 445.72 473.822 445.989C471.536 447.6 469.116 449.346 466.83 451.226C466.292 451.628 465.62 451.494 465.217 451.091C464.948 450.823 464.948 450.286 465.082 450.017ZM534.461 317.616C534.461 317.482 534.596 317.482 534.596 317.347C534.999 316.944 535.671 316.81 536.075 317.213L536.209 317.347C538.226 319.764 540.108 321.913 541.722 324.061C542.125 324.599 541.991 325.27 541.453 325.673C540.915 326.076 540.243 325.941 539.839 325.404C538.226 323.256 536.478 321.107 534.596 318.959C534.327 318.69 534.192 318.019 534.461 317.616ZM479.872 440.215C480.007 439.946 480.141 439.812 480.41 439.677C482.696 438.469 485.385 437.126 488.343 435.649C488.881 435.38 489.553 435.649 489.822 436.186C490.091 436.723 489.822 437.395 489.284 437.663C486.326 439.006 483.637 440.349 481.351 441.557C480.813 441.826 480.141 441.692 479.872 441.154C479.738 440.886 479.738 440.483 479.872 440.215ZM544.949 331.581C545.083 331.447 545.218 331.313 545.352 331.178C545.89 330.91 546.562 331.044 546.831 331.581C548.445 334.132 549.924 336.818 551.268 339.369C551.537 339.907 551.268 340.578 550.73 340.847C550.192 341.115 549.52 340.846 549.251 340.309C547.907 337.758 546.562 335.207 544.949 332.79C544.814 332.253 544.814 331.85 544.949 331.581ZM495.872 432.56C496.007 432.292 496.141 432.158 496.41 432.023L497.62 431.486C499.906 430.412 502.192 429.472 504.612 428.398C505.15 428.129 505.822 428.398 506.091 428.935C506.36 429.472 506.091 430.143 505.553 430.412C503.267 431.486 500.847 432.426 498.561 433.5L497.351 434.038C496.814 434.306 496.141 434.038 495.872 433.5C495.738 433.232 495.738 432.829 495.872 432.56ZM512.007 425.175C512.141 424.906 512.276 424.772 512.545 424.638C514.562 423.698 516.579 422.624 518.461 421.549C518.999 421.281 519.671 420.878 520.209 420.475C520.747 420.207 521.419 420.341 521.688 420.878C521.957 421.415 521.822 422.087 521.284 422.355C520.612 422.758 520.074 423.027 519.402 423.429C517.385 424.504 515.368 425.578 513.352 426.652C512.814 426.921 512.142 426.652 511.873 426.115C511.873 425.846 511.873 425.444 512.007 425.175ZM552.882 347.292C553.016 347.023 553.285 346.889 553.554 346.755C554.092 346.486 554.764 346.889 555.033 347.426C556.108 350.246 556.915 353.2 557.453 356.02C557.587 356.557 557.184 357.229 556.646 357.363C556.108 357.497 555.436 357.095 555.302 356.557C554.764 353.737 553.957 351.052 552.882 348.232C552.747 347.963 552.747 347.561 552.882 347.292ZM527.201 416.178C527.335 416.044 527.335 415.91 527.604 415.775C530.024 414.03 532.31 412.284 534.461 410.404C534.865 410.001 535.671 410.001 536.075 410.538C536.478 410.941 536.478 411.747 535.94 412.15C533.654 414.03 531.369 415.91 528.814 417.655C528.276 418.058 527.604 417.924 527.201 417.387C527.066 416.984 527.066 416.581 527.201 416.178ZM556.377 364.614C556.512 364.211 556.915 364.077 557.319 363.943C557.991 363.943 558.394 364.346 558.529 365.017C558.663 367.971 558.529 371.06 558.125 374.014C557.991 374.685 557.453 375.088 556.915 374.954C556.243 374.82 555.84 374.283 555.974 373.745C556.377 370.925 556.512 367.971 556.377 365.151C556.377 364.883 556.377 364.749 556.377 364.614ZM540.646 404.63C540.646 404.496 540.781 404.496 540.781 404.361C542.797 402.213 544.68 399.93 546.293 397.647C546.697 397.11 547.369 396.976 547.907 397.379C548.445 397.782 548.579 398.453 548.176 398.99C546.428 401.407 544.545 403.69 542.528 405.973C542.125 406.376 541.453 406.51 540.915 405.973C540.512 405.57 540.512 405.167 540.646 404.63ZM554.226 382.071C554.495 381.534 555.033 381.399 555.571 381.534C556.108 381.668 556.512 382.339 556.243 382.876C555.436 385.562 554.361 388.113 553.15 390.665L552.882 391.336C552.613 391.873 551.94 392.142 551.403 391.873C550.865 391.605 550.73 390.933 550.865 390.396L551.134 389.859C552.344 387.442 553.285 384.891 554.092 382.474C554.092 382.205 554.092 382.071 554.226 382.071Z" fill="#EB8A58"/>
<path d="M492.78 288.074C500.847 303.113 514.293 314.259 525.453 327.015C536.612 339.772 546.159 356.02 543.739 372.939C541.318 389.725 527.335 402.616 512.545 410.807C497.755 418.998 481.082 424.101 466.83 433.366C451.099 443.571 438.998 458.342 427.031 472.71C415.064 487.078 402.695 501.715 386.56 511.383C370.56 521.051 349.988 525.214 332.912 517.56C313.282 508.832 302.928 487.078 298.223 466.13C293.517 445.183 292.575 423.161 284.374 403.421C276.037 383.145 260.575 366.763 247.802 348.903C235.028 331.044 224.541 309.559 228.306 287.94C230.591 274.243 238.524 262.023 248.339 252.221C258.155 242.418 269.987 234.764 281.684 227.379C301.853 214.622 322.425 202.134 344.879 193.674C367.333 185.349 391.804 181.186 415.333 185.752C438.863 190.317 461.048 204.282 472.208 225.499C482.158 245.104 482.427 268.603 492.78 288.074Z" fill="#EB8A58"/>
<path d="M-0.000183105 544.685C-0.000183105 534.883 7.93271 526.96 17.748 526.96C27.5632 526.96 35.4961 534.883 35.4961 544.685C35.4961 554.488 27.5632 562.41 17.748 562.41C7.93271 562.41 -0.000183105 554.488 -0.000183105 544.685ZM33.3448 544.685C33.3448 536.091 26.3531 528.974 17.6135 528.974C8.87393 528.974 1.88223 535.957 1.88223 544.685C1.88223 553.279 8.87393 560.396 17.6135 560.396C26.3531 560.396 33.3448 553.279 33.3448 544.685Z" fill="#020203"/>
<path d="M154.355 515.009C154.355 508.966 159.195 504.132 165.246 504.132C171.296 504.132 176.137 508.966 176.137 515.009C176.137 521.051 171.296 525.885 165.246 525.885C159.33 525.885 154.355 521.051 154.355 515.009ZM174.12 515.009C174.12 510.174 170.221 506.146 165.246 506.146C160.405 506.146 156.372 510.04 156.372 515.009C156.372 519.843 160.271 523.871 165.246 523.871C170.221 523.737 174.12 519.843 174.12 515.009Z" fill="#EB8A58"/>
<path d="M507.033 173.532C507.033 177.833 510.524 181.32 514.831 181.32C519.138 181.32 522.63 177.833 522.63 173.532C522.63 169.231 519.138 165.744 514.831 165.744C510.524 165.744 507.033 169.231 507.033 173.532Z" fill="#162C48"/>
<path d="M88.6072 492.584C88.6072 496.885 92.0986 500.372 96.4056 500.372C100.713 500.372 104.204 496.885 104.204 492.584C104.204 488.282 100.713 484.795 96.4056 484.795C92.0986 484.795 88.6072 488.282 88.6072 492.584Z" fill="#162C48"/>
<path d="M567.403 8.5007C567.403 12.8021 570.895 16.289 575.202 16.289C579.509 16.289 583 12.8021 583 8.5007C583 4.19934 579.509 0.712402 575.202 0.712402C570.895 0.712402 567.403 4.19934 567.403 8.5007Z" fill="#162C48"/>
<path d="M541.454 96.9918C541.454 99.1425 543.199 100.886 545.353 100.886C547.506 100.886 549.252 99.1425 549.252 96.9918C549.252 94.8411 547.506 93.0977 545.353 93.0977C543.199 93.0977 541.454 94.8411 541.454 96.9918Z" fill="#EB8A58"/>
<path d="M139.565 468.145C139.565 472.446 143.057 475.933 147.364 475.933C151.671 475.933 155.162 472.446 155.162 468.145C155.162 463.843 151.671 460.356 147.364 460.356C143.057 460.356 139.565 463.843 139.565 468.145Z" fill="#EB8A58"/>
<path d="M478.932 126.4C478.932 130.701 482.423 134.188 486.73 134.188C491.037 134.188 494.528 130.701 494.528 126.4C494.528 122.098 491.037 118.611 486.73 118.611C482.423 118.611 478.932 122.098 478.932 126.4Z" fill="#EB8A58"/>
<path d="M58.4887 399.124C58.4887 398.587 59.0266 398.05 59.5644 398.05H89.0103C89.5481 398.05 90.0859 398.587 90.0859 399.124C90.0859 399.661 89.5481 400.198 89.0103 400.198H59.5644C58.8921 400.064 58.4887 399.661 58.4887 399.124Z" fill="#020203"/>
<path d="M73.1445 413.761V384.219C73.1445 383.682 73.6824 383.145 74.2202 383.145C74.758 383.145 75.2959 383.682 75.2959 384.219V413.761C75.2959 414.298 74.758 414.835 74.2202 414.835C73.6824 414.835 73.1445 414.432 73.1445 413.761Z" fill="#020203"/>
<path d="M67.3621 539.582C67.3621 539.045 67.8999 538.508 68.4377 538.508H98.0181C98.5559 538.508 99.0938 539.045 99.0938 539.582C99.0938 540.119 98.5559 540.656 98.0181 540.656H68.4377C67.8999 540.656 67.3621 540.119 67.3621 539.582Z" fill="#D58861"/>
<path d="M82.1526 554.353V524.812C82.1526 524.274 82.6904 523.737 83.2282 523.737C83.766 523.737 84.3037 524.274 84.3037 524.812V554.353C84.3037 554.891 83.766 555.428 83.2282 555.428C82.6904 555.293 82.1526 554.891 82.1526 554.353Z" fill="#D58861"/>
<path d="M527.066 204.551C527.066 204.014 527.604 203.477 528.142 203.477H562.697C563.235 203.477 563.772 204.014 563.772 204.551C563.772 205.088 563.235 205.625 562.697 205.625H528.142C527.469 205.625 527.066 205.088 527.066 204.551Z" fill="#EB8A58"/>
<path d="M544.276 221.739V187.229C544.276 186.691 544.814 186.154 545.352 186.154C545.89 186.154 546.428 186.691 546.428 187.229V221.739C546.428 222.276 545.89 222.813 545.352 222.813C544.814 222.813 544.276 222.41 544.276 221.739Z" fill="#EB8A58"/>
<path d="M537.42 70.8069C537.42 64.7643 542.261 59.9302 548.311 59.9302C554.362 59.9302 559.202 64.7643 559.202 70.8069C559.202 76.8496 554.362 81.6837 548.311 81.6837C542.395 81.818 537.42 76.8496 537.42 70.8069ZM557.185 70.8069C557.185 65.9728 553.286 61.9444 548.311 61.9444C543.471 61.9444 539.437 65.8385 539.437 70.8069C539.437 75.641 543.336 79.6695 548.311 79.6695C553.286 79.6695 557.185 75.7753 557.185 70.8069Z" fill="#162C48"/>
</svg>
