<svg width="375" height="399" viewBox="0 0 375 399" fill="none" xmlns="http://www.w3.org/2000/svg">
<path d="M0.000238338 386.051C0.000238338 379.095 5.64318 373.473 12.6251 373.473C19.6071 373.473 25.25 379.095 25.25 386.051C25.25 393.008 19.6071 398.63 12.6251 398.63C5.64318 398.63 0.000238338 393.008 0.000238338 386.051ZM23.7197 386.051C23.7197 379.953 18.7463 374.902 12.5295 374.902C6.31271 374.902 1.33926 379.857 1.33926 386.051C1.33926 392.15 6.31271 397.201 12.5295 397.201C18.7463 397.201 23.7197 392.15 23.7197 386.051Z" fill="#020203"/>
<path d="M109.797 364.992C109.797 360.704 113.24 357.273 117.544 357.273C121.848 357.273 125.291 360.704 125.291 364.992C125.291 369.28 121.848 372.711 117.544 372.711C113.336 372.711 109.797 369.28 109.797 364.992ZM123.856 364.992C123.856 361.562 121.083 358.703 117.544 358.703C114.101 358.703 111.231 361.466 111.231 364.992C111.231 368.423 114.005 371.282 117.544 371.282C121.083 371.186 123.856 368.423 123.856 364.992Z" fill="#EB8A58"/>
<path d="M320.962 122.66C320.962 125.712 323.446 128.187 326.509 128.187C329.573 128.187 332.057 125.712 332.057 122.66C332.057 119.607 329.573 117.133 326.509 117.133C323.446 117.133 320.962 119.607 320.962 122.66Z" fill="#162C48"/>
<path d="M63.0294 349.077C63.0294 352.13 65.513 354.604 68.5767 354.604C71.6404 354.604 74.124 352.13 74.124 349.077C74.124 346.025 71.6404 343.55 68.5767 343.55C65.513 343.55 63.0294 346.025 63.0294 349.077Z" fill="#162C48"/>
<path d="M363.905 5.5446C363.905 8.59709 366.389 11.0716 369.453 11.0716C372.516 11.0716 375 8.59709 375 5.5446C375 2.49211 372.516 0.0175781 369.453 0.0175781C366.389 0.0175781 363.905 2.49211 363.905 5.5446Z" fill="#162C48"/>
<path d="M345.447 68.3426C345.447 69.8689 346.689 71.1061 348.221 71.1061C349.752 71.1061 350.994 69.8689 350.994 68.3426C350.994 66.8164 349.752 65.5791 348.221 65.5791C346.689 65.5791 345.447 66.8164 345.447 68.3426Z" fill="#EB8A58"/>
<path d="M99.2784 331.735C99.2784 334.787 101.762 337.262 104.826 337.262C107.889 337.262 110.373 334.787 110.373 331.735C110.373 328.682 107.889 326.208 104.826 326.208C101.762 326.208 99.2784 328.682 99.2784 331.735Z" fill="#EB8A58"/>
<path d="M300.971 89.2116C300.971 92.2641 303.454 94.7386 306.518 94.7386C309.582 94.7386 312.065 92.2641 312.065 89.2116C312.065 86.1591 309.582 83.6846 306.518 83.6846C303.454 83.6846 300.971 86.1591 300.971 89.2116Z" fill="#EB8A58"/>
<path d="M52.8597 282.754C52.8597 282.373 53.2423 281.992 53.6249 281.992H74.5708C74.9533 281.992 75.3359 282.373 75.3359 282.754C75.3359 283.135 74.9533 283.516 74.5708 283.516H53.6249C53.1467 283.421 52.8597 283.135 52.8597 282.754Z" fill="#020203"/>
<path d="M63.2851 293.14L63.2851 272.176C63.2851 271.795 63.6677 271.414 64.0502 271.414C64.4328 271.414 64.8154 271.795 64.8154 272.176V293.14C64.8154 293.522 64.4328 293.903 64.0502 293.903C63.6677 293.903 63.2851 293.617 63.2851 293.14Z" fill="#020203"/>
<path d="M47.9164 382.43C47.9164 382.049 48.299 381.667 48.6815 381.667H69.7231C70.1057 381.667 70.4883 382.049 70.4883 382.43C70.4883 382.811 70.1057 383.192 69.7231 383.192H48.6815C48.299 383.192 47.9164 382.811 47.9164 382.43Z" fill="#D58861"/>
<path d="M58.4367 392.913L58.4367 371.948C58.4367 371.567 58.8192 371.186 59.2017 371.186C59.5843 371.186 59.9668 371.567 59.9668 371.948L59.9668 392.913C59.9668 393.294 59.5843 393.675 59.2017 393.675C58.8192 393.58 58.4367 393.294 58.4367 392.913Z" fill="#D58861"/>
<path d="M335.213 144.672C335.213 144.291 335.595 143.91 335.978 143.91H360.558C360.941 143.91 361.323 144.291 361.323 144.672C361.323 145.053 360.941 145.434 360.558 145.434H335.978C335.5 145.434 335.213 145.053 335.213 144.672Z" fill="#EB8A58"/>
<path d="M347.455 156.87V132.38C347.455 131.998 347.838 131.617 348.22 131.617C348.603 131.617 348.985 131.998 348.985 132.38V156.87C348.985 157.251 348.603 157.632 348.22 157.632C347.838 157.632 347.455 157.346 347.455 156.87Z" fill="#EB8A58"/>
<path d="M342.577 49.7603C342.577 45.4721 346.02 42.0415 350.324 42.0415C354.628 42.0415 358.071 45.4721 358.071 49.7603C358.071 54.0485 354.628 57.479 350.324 57.479C346.116 57.5743 342.577 54.0485 342.577 49.7603ZM356.637 49.7603C356.637 46.3297 353.863 43.4709 350.324 43.4709C346.881 43.4709 344.012 46.2344 344.012 49.7603C344.012 53.1908 346.785 56.0496 350.324 56.0496C353.863 56.0496 356.637 53.2861 356.637 49.7603Z" fill="#162C48"/>
</svg>
