<?xml version="1.0" encoding="utf-8"?>
<!-- Generator: Adobe Illustrator 23.1.1, SVG Export Plug-In . SVG Version: 6.00 Build 0)  -->
<svg version="1.1" id="Layer_1" xmlns="http://www.w3.org/2000/svg" xmlns:xlink="http://www.w3.org/1999/xlink" x="0px" y="0px"
	 viewBox="0 0 824 698" style="enable-background:new 0 0 824 698;" xml:space="preserve">
<style type="text/css">
	.st0{opacity:0.1;fill:#0F2A4A;enable-background:new    ;}
	.st1{fill:#E8EAEE;}
	.st2{fill:#F18A68;}
	.st3{opacity:0.5;}
	.st4{opacity:0.6;fill:#0F2A4A;enable-background:new    ;}
	.st5{opacity:0.25;}
	.st6{fill:#A94F34;}
	.st7{fill:none;stroke:#1A2F53;stroke-width:3;stroke-miterlimit:10;}
	.st8{fill:#7CB29E;}
	.st9{fill:#FEF2EE;}
	.st10{clip-path:url(#SVGID_2_);}
	.st11{fill:#5CA083;}
	.st12{clip-path:url(#SVGID_4_);}
	.st13{fill:#7F351D;}
	.st14{fill:#1A2F53;}
	.st15{fill:#EB8A58;}
	.st16{clip-path:url(#SVGID_6_);}
	.st17{fill:#EE6F4D;}
	.st18{clip-path:url(#SVGID_8_);}
	.st19{clip-path:url(#SVGID_10_);}
	.st20{fill:#FFFFFF;}
	.st21{fill:#FCDA7C;}
	.st22{fill:#113E68;}
	.st23{fill:#6D2716;}
	.st24{opacity:0.25;fill:#7F351D;enable-background:new    ;}
	.st25{clip-path:url(#SVGID_12_);}
	.st26{clip-path:url(#SVGID_14_);}
	.st27{fill:#944525;}
	.st28{clip-path:url(#SVGID_16_);}
	.st29{opacity:0.1;}
	.st30{fill:#7D3119;}
	.st31{fill:#E3E8F1;}
	.st32{fill:#4E6380;}
	.st33{clip-path:url(#SVGID_18_);}
	.st34{fill:#E4E1D3;}
	.st35{clip-path:url(#SVGID_20_);}
	.st36{clip-path:url(#SVGID_22_);}
	.st37{opacity:0.5;clip-path:url(#SVGID_24_);fill:#EE6F4D;enable-background:new    ;}
	.st38{fill:#EE7256;}
	.st39{clip-path:url(#SVGID_26_);}
	.st40{clip-path:url(#SVGID_28_);}
	.st41{fill:#0F4E78;}
	.st42{clip-path:url(#SVGID_30_);}
	.st43{clip-path:url(#SVGID_32_);}
	.st44{clip-path:url(#SVGID_34_);}
	.st45{fill:#F8BDA9;}
	.st46{clip-path:url(#SVGID_36_);}
	.st47{fill:#F5A591;}
	.st48{fill:#DD583C;}
	.st49{clip-path:url(#SVGID_38_);}
	.st50{fill:#0D517D;}
	.st51{fill:#FBFBFE;}
	.st52{opacity:0.5;clip-path:url(#SVGID_40_);}
	.st53{fill:#94AECC;}
	.st54{opacity:0.5;clip-path:url(#SVGID_42_);}
	.st55{opacity:0.5;clip-path:url(#SVGID_44_);}
	.st56{clip-path:url(#SVGID_46_);fill:#0F2A4A;}
	.st57{fill:#0F2A4A;}
	.st58{display:none;}
</style>
<g id="details">
</g>
<g id="BG">
</g>
<g id="splash">
</g>
<g id="Illo">
</g>
<g id="bottle">
</g>
<g id="Brand">
</g>
<g id="Headline">
	<path class="st0" d="M611.7,132L611.7,132c3.8,26.6,2.4,52.9-3.5,77.8c-16.3,68.8-66.9,126.9-137.1,150.9l-134.7,46.2
		c-54.7,18.7-114.6,14.2-165.7-12.4c-2.2-1.1-4.4-2.3-6.6-3.6c-29-16.4-53.8-39.3-72.2-66.7c-6.1-9.1-11.6-18.8-16.2-28.9
		c-0.1-0.2-0.2-0.5-0.3-0.7c-8.4-18.3-15.2-36.4-20.2-54c-11-39.1-12.7-75.8-2.5-107.1C64.6,97.1,92.6,68,141.2,50.7
		c2-0.7,4.1-1.4,6.1-2.1c134.9-44,151.4,18.8,270.6,7.9c27.2-2.5,59.8-8.8,100.4-21.1c0.9-0.3,1.8-0.5,2.7-0.8
		C578.7,19,602.8,69.7,611.7,132z"/>
	<g>
		<path class="st1" d="M298.6,112.8c0.3-0.2,33.4-6.6,33.4-6.6l11.1,55.8l-33.4,6.6L298.6,112.8z"/>
		<g>
			<ellipse class="st1" cx="321.7" cy="33.8" rx="19.6" ry="29.6"/>
			<g>
				<path class="st2" d="M344.5,162.9l-35.8,7.1l-11.5-58.2l35.8-7.1L344.5,162.9z M309.7,168.6l33.4-6.6L332,106.1l-33.4,6.6
					L309.7,168.6z"/>
				<path class="st2" d="M338.6,158.7l-24.8,4.9l-9.3-46.9l24.8-4.9L338.6,158.7z M314.8,162.3l22.5-4.5l-8.9-44.6l-22.5,4.5
					L314.8,162.3z"/>
				<path class="st2" d="M321.5,63.5c-10.9,0-19.8-13.3-19.8-29.6s8.9-29.6,19.8-29.6s19.8,13.3,19.8,29.6S332.4,63.5,321.5,63.5z
					 M321.5,5.4c-10.3,0-18.6,12.8-18.6,28.5s8.4,28.5,18.6,28.5c10.3,0,18.6-12.8,18.6-28.5S331.8,5.4,321.5,5.4z"/>
				<path class="st2" d="M321.5,58.8c-7.5,0-13.6-11.2-13.6-24.9S314,9,321.5,9s13.6,11.2,13.6,24.9S329,58.8,321.5,58.8z
					 M321.5,10.1c-6.9,0-12.4,10.6-12.4,23.7c0,13.1,5.6,23.7,12.4,23.7c6.9,0,12.4-10.6,12.4-23.7S328.3,10.1,321.5,10.1z"/>
			</g>
		</g>
	</g>
	<g class="st3">
		<g>
			<path class="st4" d="M10.7,111.5c0.6,0.5,1.6,0.2,2.3,0.2c0.9,0,1.8,0,2.7,0c1.7,0,3.5,0,5.2,0c3.4,0,6.9,0,10.3-0.1
				c1.1,0,2.3,0,3.4,0s1.2-0.4,1.2-1.5c0-1.3,0-2.5-0.1-3.8c0-0.4,0.2-1.5,0-1.8c-0.3-0.4-1-0.3-1.5-0.3c-2.5-0.1-5,0.1-7.5,0.1
				c-5.1,0-10.1,0-15.2,0c-0.3,0-0.7,0-1,0.2c-0.7,0.4-0.6,2.2-0.6,2.9c0,1-0.2,3,0.3,3.9C10.6,111.3,10.7,111.4,10.7,111.5z"/>
			<path class="st4" d="M26.5,126.3c0.4,0.4,1.1,0.3,1.7,0.3c4.9-0.1,9.9-0.1,14.8-0.1c0.4,0,0.9,0.1,1.1-0.2c0.1-0.2,0-0.8,0-1.1
				c0-0.9,0-1.8,0.1-2.7c0-0.8,0.2-1.7,0-2.5c-0.3-1.2-1.9-0.9-2.8-0.9c-2.7,0.1-5.5,0-8.3,0c-1.4,0-2.9,0-4.3,0.2
				c-1.1,0.1-2.5-0.1-2.5,1.3s0,3.2-0.1,4.5c0,0.3,0,0.6,0.1,0.9C26.4,126.1,26.4,126.2,26.5,126.3z"/>
			<path class="st4" d="M5.2,139.9c0.5,0.4,1.3,0.4,1.9,0.3c0.8,0,1.5,0,2.3,0c0.9,0,1.8,0,2.7,0c2.3,0,4.5,0,6.8-0.1
				c0.8,0,1.5,0,2.3,0c0.4,0,0.6-0.1,0.7-0.5c0.1-0.2,0.1-0.4,0.1-0.6c0-1.1,0-2.2,0-3.3c0-0.5,0-1,0-1.5c0-0.4,0.1-0.9,0-1.2
				c-0.2-0.4-0.7-0.3-1-0.3c-1.1-0.1-2.2,0-3.3,0c-1.2,0-2.4,0-3.6,0c-1.4,0-2.7,0-4.1,0c-0.7,0-1.4,0-2,0c-0.7,0-1.4-0.1-2,0
				c-0.2,0-0.3,0.1-0.5,0.2c-0.2,0.2-0.2,0.5-0.3,0.8C5,135.3,5,136.9,5,138.5c0,0.3,0,0.7,0.1,1C5,139.7,5.1,139.8,5.2,139.9z"/>
		</g>
	</g>
	<g class="st3">
		<g>
			<path class="st4" d="M346.3,296.4c0.6,0.5,1.6,0.2,2.3,0.2c0.9,0,1.8,0,2.7,0c1.7,0,3.5,0,5.2,0c3.4,0,6.9,0,10.3-0.1
				c1.1,0,2.3,0,3.4,0s1.2-0.4,1.2-1.5c0-1.3,0-2.5-0.1-3.8c0-0.4,0.2-1.5,0-1.8c-0.3-0.4-1-0.3-1.5-0.3c-2.5-0.1-5,0.1-7.5,0.1
				c-5.1,0-10.1,0-15.2,0c-0.3,0-0.7,0-1,0.2c-0.7,0.4-0.6,2.2-0.6,2.9c0,1-0.2,3,0.3,3.9C346.2,296.3,346.3,296.3,346.3,296.4z"/>
			<path class="st4" d="M362.1,311.3c0.4,0.4,1.1,0.3,1.7,0.3c4.9-0.1,9.9-0.1,14.8-0.1c0.4,0,0.9,0.1,1.1-0.2c0.1-0.2,0-0.8,0-1.1
				c0-0.9,0-1.8,0.1-2.7c0-0.8,0.2-1.7,0-2.5c-0.3-1.2-1.9-0.9-2.8-0.9c-2.7,0.1-5.5,0-8.3,0c-1.4,0-2.9,0-4.3,0.2
				c-1.1,0.1-2.5-0.1-2.5,1.3s0,3.2-0.1,4.5c0,0.3,0,0.6,0.1,0.9C362,311.1,362.1,311.2,362.1,311.3z"/>
			<path class="st4" d="M340.8,324.9c0.5,0.4,1.3,0.4,1.9,0.3c0.8,0,1.5,0,2.3,0c0.9,0,1.8,0,2.7,0c2.3,0,4.5,0,6.8-0.1
				c0.8,0,1.5,0,2.3,0c0.4,0,0.6-0.1,0.7-0.5c0.1-0.2,0.1-0.4,0.1-0.6c0-1.1,0-2.2,0-3.3c0-0.5,0-1,0-1.5c0-0.4,0.1-0.9,0-1.2
				c-0.2-0.4-0.7-0.3-1-0.3c-1.1-0.1-2.2,0-3.3,0c-1.2,0-2.4,0-3.6,0c-1.4,0-2.7,0-4.1,0c-0.7,0-1.4,0-2,0c-0.7,0-1.4-0.1-2,0
				c-0.2,0-0.3,0.1-0.5,0.2c-0.2,0.2-0.2,0.5-0.3,0.8c-0.2,1.6-0.2,3.2-0.2,4.8c0,0.3,0,0.7,0.1,1
				C340.6,324.6,340.7,324.8,340.8,324.9z"/>
		</g>
	</g>
	<g class="st3">
		<g>
			<path class="st4" d="M604.9,345c0.6,0.5,1.6,0.2,2.3,0.2c0.9,0,1.8,0,2.7,0c1.7,0,3.5,0,5.2,0c3.4,0,6.9,0,10.3-0.1
				c1.1,0,2.3,0,3.4,0c1.1,0,1.2-0.4,1.2-1.5c0-1.3,0-2.5-0.1-3.8c0-0.4,0.2-1.5,0-1.8c-0.3-0.4-1-0.3-1.5-0.3
				c-2.5-0.1-5,0.1-7.5,0.1c-5.1,0-10.1,0-15.2,0c-0.3,0-0.7,0-1,0.2c-0.7,0.4-0.6,2.2-0.6,2.9c0,1-0.2,3,0.3,3.9
				C604.7,344.9,604.8,345,604.9,345z"/>
			<path class="st4" d="M620.7,359.9c0.4,0.4,1.1,0.3,1.7,0.3c4.9-0.1,9.9-0.1,14.8-0.1c0.4,0,0.9,0.1,1.1-0.2c0.1-0.2,0-0.8,0-1.1
				c0-0.9,0-1.8,0.1-2.7c0-0.8,0.2-1.7,0-2.5c-0.3-1.2-1.9-0.9-2.8-0.9c-2.7,0.1-5.5,0-8.3,0c-1.4,0-2.9,0-4.3,0.2
				c-1.1,0.1-2.5-0.1-2.5,1.3s0,3.2-0.1,4.5c0,0.3,0,0.6,0.1,0.9C620.5,359.7,620.6,359.8,620.7,359.9z"/>
			<path class="st4" d="M599.3,373.5c0.5,0.4,1.3,0.4,1.9,0.3c0.8,0,1.5,0,2.3,0c0.9,0,1.8,0,2.7,0c2.3,0,4.5,0,6.8-0.1
				c0.8,0,1.5,0,2.3,0c0.4,0,0.6-0.1,0.7-0.5c0.1-0.2,0.1-0.4,0.1-0.6c0-1.1,0-2.2,0-3.3c0-0.5,0-1,0-1.5c0-0.4,0.1-0.9,0-1.2
				c-0.2-0.4-0.7-0.3-1-0.3c-1.1-0.1-2.2,0-3.3,0c-1.2,0-2.4,0-3.6,0c-1.4,0-2.7,0-4.1,0c-0.7,0-1.4,0-2,0c-0.7,0-1.4-0.1-2,0
				c-0.2,0-0.3,0.1-0.5,0.2c-0.2,0.2-0.2,0.5-0.3,0.8c-0.2,1.6-0.2,3.2-0.2,4.8c0,0.3,0,0.7,0.1,1
				C599.1,373.3,599.2,373.4,599.3,373.5z"/>
		</g>
	</g>
	<g>
		<g class="st5">
			<path class="st6" d="M259.6,432c7,0.1,13.9,0.2,20.9,0.3c1.6,0,3.3,0.1,4.6,1.1c3.3,2.5,0.4,7.8-3,10.1c-9.4,6.4-21.6,6.5-33,6.5
				c-62.6-0.3-125.3-0.5-187.9-0.8c-2.9,0-6.8-0.9-6.9-3.8c0-1.1,0.5-2.1,1.2-3c3.9-5.1,10.6-6.9,16.9-8.1c20-3.7,40.6-3.4,60.9-3.2
				c24.7,0.3,49.5,0.6,74.2,0.9H259.6z"/>
		</g>
		<g>
			<path class="st7" d="M254.2,279.4l-36.3,138.9c-0.9,3.5-4.4,5.5-7.9,4.6l0,0"/>
			<path class="st7" d="M303.4,292.3L267,431.2c-0.9,3.5,1.2,7,4.6,7.9l0,0"/>
			<path class="st8" d="M299.4,293.8l-43.3-11.3c-8-2.1-12.7-10.2-10.7-18.2l1.5-5.9l72.2,18.9l-1.5,5.9
				C315.6,291.1,307.4,295.9,299.4,293.8z"/>
			
				<ellipse transform="matrix(0.2532 -0.9674 0.9674 0.2532 -47.8524 474.0274)" class="st9" cx="283.1" cy="268" rx="4.9" ry="37.3"/>
			<line class="st7" x1="230.2" y1="371.3" x2="279.3" y2="384.2"/>
			<line class="st7" x1="244.3" y1="317.2" x2="293.5" y2="330.1"/>
		</g>
		<g>
			<path class="st6" d="M204.3,149.9c6.9-9.3,13.4-18.9,19.4-28.8c0.1-0.1,0.2-0.3,0.3-0.4l2.9-5.7l-0.2-2l-2.4-8.7
				c-0.2-2-0.4-6.1-1.4-5.9c-0.9,0.2-1.2,3-1.7,4.6c-0.4,1.4-1.3,2.6-2.1,3.8c-5.2,7.2-11.1,13.9-17.5,20.1L204.3,149.9z"/>
		</g>
		<g>
			<g>
				<path id="SVGID_134_" class="st8" d="M203.3,124.1c2.9,12,6.7,36.4,6.7,36.4l-30.7,38.2l-12,2.8l3.8-40.3L203.3,124.1z"/>
			</g>
			<g>
				<g>
					<defs>
						<path id="SVGID_1_" d="M203.3,124.1c2.9,12,6.7,36.4,6.7,36.4l-30.7,38.2l-12,2.8l3.8-40.3L203.3,124.1z"/>
					</defs>
					<clipPath id="SVGID_2_">
						<use xlink:href="#SVGID_1_"  style="overflow:visible;"/>
					</clipPath>
					<g class="st10">
						<path class="st11" d="M209.9,145.3c-12.4,19.2-30.1,34.2-46,50.5c-0.8,0.8-1.5,1.6-1.6,2.7c-0.1,0.8,0.3,1.5,0.6,2.1
							c2.9,5,9.8,7.3,15.1,4.9c1.8-0.8,3.3-2,4.8-3.2c15.5-12.9,27.4-30.1,34.1-49.1"/>
					</g>
				</g>
			</g>
		</g>
		<g>
			<g>
				<path id="SVGID_136_" class="st6" d="M240.9,256c-1.8,15.9-4,31.8-6.7,47.6l-15,8.9c1.4-18.1,1.1-34.7,0.3-52.8L240.9,256z"/>
			</g>
			<g>
				<g>
					<defs>
						<path id="SVGID_3_" d="M240.9,256c-1.8,15.9-4,31.8-6.7,47.6l-15,8.9c1.4-18.1,1.1-34.7,0.3-52.8L240.9,256z"/>
					</defs>
					<clipPath id="SVGID_4_">
						<use xlink:href="#SVGID_3_"  style="overflow:visible;"/>
					</clipPath>
					<g class="st12">
						<path class="st13" d="M209.9,280.8c10-1.4,19.9-2.6,29.9-3.5c0.6-5.5,1.2-10.9,1.8-16.4c0-0.2,0-0.5-0.2-0.7
							c-0.1-0.1-0.3-0.1-0.4-0.1c-8.2-0.1-16.4-0.2-24.7-0.3"/>
					</g>
				</g>
			</g>
		</g>
		<g>
			<path class="st14" d="M234.7,299.1c0.3,5.2-0.2,9.3,0.1,14.5c4.9,0,19.6,2,19.6,2c0.9,0.4-26.3,11.2-37.1,13.1
				c0-7.2,0.7-16.9,0.8-24.1C218.1,304.6,229.4,301.2,234.7,299.1z"/>
		</g>
		<g>
			<g>
				<path id="SVGID_138_" class="st15" d="M165.2,193.8c12-1.6,24.1-3,36.1-4.6c11.4-1.5,22.7-3.2,34.1-4.8c2-0.3,4.1-0.6,6.2-0.2
					c4,0.7,6.1,4.6,7.1,8.2c1,3.5,0.7,7.5,0.7,11.2c0,4,0,8-0.1,12.1c-0.1,5.1-0.3,10.2-0.7,15.3c-0.3,4.7-1.1,9.5-1.1,14.1
					c-0.2,2.9-0.5,5.8-0.7,8.7c-0.1,0.8-0.2,8.6-0.6,8.7l-38,10.1c2.8-16,4.2-50.3,4.2-50.3c-16.5,3.1-31.7,6-48.2,9.2L165.2,193.8z
					"/>
			</g>
			<g>
				<g>
					<defs>
						<path id="SVGID_5_" d="M165.2,193.8c12-1.6,24.1-3,36.1-4.6c11.4-1.5,22.7-3.2,34.1-4.8c2-0.3,4.1-0.6,6.2-0.2
							c4,0.7,6.1,4.6,7.1,8.2c1,3.5,0.7,7.5,0.7,11.2c0,4,0,8-0.1,12.1c-0.1,5.1-0.3,10.2-0.7,15.3c-0.3,4.7-1.1,9.5-1.1,14.1
							c-0.2,2.9-0.5,5.8-0.7,8.7c-0.1,0.8-0.2,8.6-0.6,8.7l-38,10.1c2.8-16,4.2-50.3,4.2-50.3c-16.5,3.1-31.7,6-48.2,9.2
							L165.2,193.8z"/>
					</defs>
					<clipPath id="SVGID_6_">
						<use xlink:href="#SVGID_5_"  style="overflow:visible;"/>
					</clipPath>
					<g class="st16">
						<path class="st17" d="M158.6,218.6c20.8-5.2,42-8.7,63.4-10.7c0.7-0.1,1.4-0.1,2,0.2c1,0.4,1.4,1.6,1.5,2.7
							c0.3,5-5.3,9.1-4.4,14c0.4,2,1.7,3.6,2.8,5.3s1.9,3.9,1,5.7c-0.8,1.6-2.7,2.5-3.4,4.1c-0.8,1.8,0.1,3.8,0.9,5.6
							c2.2,5.1,3.5,10.6,3.8,16.2c0.1,2.3,0,4.6-0.9,6.6c-1,2.4-3,4.2-5,5.8c-4.1,3.3-8.6,6.1-13.4,8.4c-0.5,0.2-1.1,0.5-1.7,0.4
							c-0.9-0.1-1.5-1-2-1.8c-2.3-3.7-5-7.1-8-10.2c-3.1-3.1-6.6-5.9-9.5-9.2c-4-4.4-6.9-9.7-8.6-15.5c-0.6-2-1-4.1-2-6
							c-1.6-3.1-4.5-5.3-7.4-7.3c-3.5-2.4-7.1-4.6-10.8-6.6"/>
					</g>
				</g>
			</g>
		</g>
		<g>
			<g>
				<path id="SVGID_140_" class="st6" d="M134.3,384.2c-8.1,11.2-16.7,21.9-25.7,32.2l-6.9-15.5c9.2-13.8,11.8-18,21-31.8
					L134.3,384.2z"/>
			</g>
			<g>
				<g>
					<defs>
						<path id="SVGID_7_" d="M134.3,384.2c-8.1,11.2-16.7,21.9-25.7,32.2l-6.9-15.5c9.2-13.8,11.8-18,21-31.8L134.3,384.2z"/>
					</defs>
					<clipPath id="SVGID_8_">
						<use xlink:href="#SVGID_7_"  style="overflow:visible;"/>
					</clipPath>
					<g class="st18">
						<path class="st13" d="M111,375.3c1.5,4.5,2.8,9.1,3.7,13.7c1.4,6.7,2.1,13.7,5.2,19.9c3-5.7,6-11.4,10-16.4
							c0.8-1,1.6-2,1.8-3.2c0.2-1.4-0.5-2.8-1.3-4c-3.6-5.8-8.4-10.9-11.9-16.9c-0.1-0.1-0.2-0.3-0.4-0.2c-0.1,0,0.1,0.3,0.1,0.2"/>
					</g>
				</g>
			</g>
		</g>
		<g>
			<path class="st14" d="M103.8,393.9c2.5,7.7,5,15.5,7.4,23.2l-0.2,1.5c-0.3,4.8-0.6,9.5-0.9,14.3c0,0.5-0.1,1,0.1,1.4
				c0.1,0.4,0.4,0.8,0.7,1.1c1.2,1.4,2.8,2.6,4,4l-3.2,0.2c-2.8,0.2-5.6,0.1-8.3-0.4c-0.7-0.1-1.5-0.3-2.1-0.8
				c-0.7-0.6-1-1.5-1.3-2.4c-2.2-7.4-3.9-14.9-5.1-22.5c-0.2-1.1-0.3-2.2-0.1-3.3c0.2-1,0.7-2,1.2-2.9c2.2-3.9,4.5-7.8,6.7-11.7
				L103.8,393.9z"/>
		</g>
		<g>
			<g>
				<path id="SVGID_142_" class="st15" d="M171,214.5c-0.1-0.2,6.1,62.1,5.9,93.6l-0.2,2.7c0.3,7.2-3,14.1-6.2,20.5
					c-10.5,20.5-23.5,43.9-35.7,63.3l-24.9-30.7c11.5-14,31.3-54.2,31.3-54.2l-0.8-5.7c-3.3-20.8-6.5-41.6-9.8-62.4l-6.5-24.6
					l29.6-20.3l15.8,1.1L171,214.5z"/>
			</g>
			<g>
				<g>
					<defs>
						<path id="SVGID_9_" d="M171,214.5c-0.1-0.2,6.1,62.1,5.9,93.6l-0.2,2.7c0.3,7.2-3,14.1-6.2,20.5
							c-10.5,20.5-23.5,43.9-35.7,63.3l-24.9-30.7c11.5-14,31.3-54.2,31.3-54.2l-0.8-5.7c-3.3-20.8-6.5-41.6-9.8-62.4l-6.5-24.6
							l29.6-20.3l15.8,1.1L171,214.5z"/>
					</defs>
					<clipPath id="SVGID_10_">
						<use xlink:href="#SVGID_9_"  style="overflow:visible;"/>
					</clipPath>
					<g class="st19">
						<path class="st17" d="M155.4,199.8c-3.3,10.8-4,22.3-4.4,33.6c-0.7,20.5-0.5,41,0.6,61.4c0.4,7.3,0.7,15.4-4,21.1
							c-3.2,3.8-8.7,6.8-8.2,11.8c0.3,3.3,3.4,6.7,1.8,9.6c-0.7,1.2-2,1.9-3.2,2.7c-4.5,3-7.2,7.9-9.8,12.6
							c-4.9,9-9.8,17.9-14.7,26.9c-3.6-2-6.7-4.8-9.2-8.1c-0.6-0.8-1.2-1.7-1.3-2.6c-0.2-1.2,0.2-2.4,0.6-3.5
							c4.5-13.2,9.5-26.2,13.7-39.4c2.4-7.5,4.6-15.2,5.5-23.1c1.5-13.3-0.9-26.7-2.5-40s-2.5-27.1,1.8-39.8
							c4.3-12.7,14.8-24.1,28-25.7"/>
					</g>
				</g>
			</g>
		</g>
		<polygon class="st20" points="140.4,255.3 118.9,284.8 111.9,279.3 116.5,269.6 108.5,276.6 95.5,266.3 96.4,262.5 92.9,264.3 
			85.2,258.1 90.4,249.2 82.2,255.8 78.2,252.6 82,246.9 76.5,251.3 71.4,247.3 97.5,219.3 		"/>
		<g>
			<g>
				<path class="st21" d="M131.2,235.5c-10.2,11.6-20.7,23-31.3,34.2c-0.4,0.5,0.3,1.2,0.7,0.7c10.7-11.2,21.1-22.6,31.3-34.2
					C132.4,235.7,131.7,235,131.2,235.5L131.2,235.5z"/>
			</g>
		</g>
		<g>
			<g>
				<path class="st21" d="M115.4,229.7c-9.5,10-19.2,19.8-29.1,29.5c-0.5,0.5,0.2,1.2,0.7,0.7c9.9-9.7,19.6-19.5,29.1-29.5
					C116.5,229.9,115.8,229.2,115.4,229.7L115.4,229.7z"/>
			</g>
		</g>
		<g>
			<g>
				<path class="st21" d="M116.1,229.7c-9.2,10.3-18.2,20.8-27.1,31.4c-0.4,0.5,0.3,1.2,0.7,0.7c8.8-10.6,17.8-21.1,27.1-31.4
					C117.3,230,116.6,229.3,116.1,229.7L116.1,229.7z"/>
			</g>
		</g>
		<g>
			<g>
				<path class="st21" d="M100.7,230.4c-6.7,8-13.8,15.7-21.3,23.1c-0.5,0.5,0.2,1.2,0.7,0.7c7.5-7.4,14.6-15.1,21.3-23.1
					C101.8,230.6,101.1,229.9,100.7,230.4L100.7,230.4z"/>
			</g>
		</g>
		<g>
			<g>
				<path class="st21" d="M103.1,218.8c-9.9,10-20.2,19.7-30.7,29.1c-0.5,0.4,0.2,1.1,0.7,0.7c10.6-9.4,20.8-19,30.7-29.1
					C104.2,219.1,103.5,218.4,103.1,218.8L103.1,218.8z"/>
			</g>
		</g>
		<g>
			<g>
				<path class="st21" d="M117.9,239.4c-7.1,9.4-14.8,18.3-23,26.7c-0.5,0.5,0.3,1.2,0.7,0.7c8.3-8.5,16-17.4,23.2-26.9
					C119.1,239.4,118.3,238.9,117.9,239.4L117.9,239.4z"/>
			</g>
		</g>
		<g>
			<g>
				<path class="st21" d="M129.8,240.3c-9.1,10.5-18.2,21-27.3,31.5c-0.4,0.5,0.3,1.2,0.7,0.7c9.1-10.5,18.2-21,27.3-31.5
					C130.9,240.5,130.2,239.8,129.8,240.3L129.8,240.3z"/>
			</g>
		</g>
		<g>
			<g>
				<path class="st21" d="M107.4,290.6c0.6,0,0.6-1,0-1C106.7,289.6,106.7,290.6,107.4,290.6L107.4,290.6z"/>
			</g>
		</g>
		<g>
			<g>
				<path class="st21" d="M140.6,243.1c-9.7,12-18.7,24.4-27.3,37.2c-0.4,0.5,0.5,1,0.9,0.5c8.5-12.7,17.6-25.1,27.2-37
					C141.7,243.3,141,242.6,140.6,243.1L140.6,243.1z"/>
			</g>
		</g>
		<g>
			<g>
				<path class="st21" d="M124.7,252.3c-6.5,7.3-12.6,14.8-18.4,22.6c-0.4,0.5,0.5,1,0.9,0.5c5.7-7.7,11.8-15.2,18.3-22.4
					C125.9,252.5,125.2,251.8,124.7,252.3L124.7,252.3z"/>
			</g>
		</g>
		<g>
			<g>
				<path class="st21" d="M140.2,250.3c-9,10-17.3,20.7-24.8,31.9c-0.4,0.5,0.5,1,0.9,0.5C123.8,271.6,132,261,141,251
					C141.4,250.5,140.7,249.8,140.2,250.3L140.2,250.3z"/>
			</g>
		</g>
		<path class="st22" d="M99.3,222.6l41.1,34l3.3-4.6c6.1-8.4,4.4-20.1-3.9-26.3L117,208.5L99.3,222.6z"/>
		<g>
			<path class="st6" d="M122.9,141.2c0,0,2.8-1.1,3.6-2.2c0.4-0.5,0.6-1,0.8-1.6c3.2-9.2,6.2-18.5,8.9-27.9l18.6,8.5
				c-1.1,3.9-3.2,10.1-4.4,14l2.2-1.2c0,0,12.8,19.5-2.5,25.1C132.1,161.9,122.9,141.2,122.9,141.2z"/>
		</g>
		<g>
			<path class="st8" d="M151.9,130.6c1.8,2.4,2.6,5.4,3.2,8.4c0.4,2.3,0.6,4.8,0,7.1c-1.6,6.2-8.5,9.4-14.5,9.2
				c-2.9-0.1-5.8-1.1-8.1-2.9c-2.1-1.7-3.4-4.1-4.8-6.4c-1.2-1.9-2.2-3.8-3.4-5.7c-0.8,0.3-1.7,0.6-2.5,1c0,0,2.6,4.2,2.9,4.6
				c1.1,1.5,2.3,2.9,3.5,4.3c2.4,2.6,5.1,4.9,8.3,6.4c5,2.5,10.6,2.7,15.7,0.5c18.2-7.8,1.7-26.2,1.7-26.2L151.9,130.6z"/>
		</g>
		<g>
			<path class="st6" d="M147.6,121c3.4,1.4,7.2,1.6,10.7,0.6c1.1-0.3,2.3-0.8,3.1-1.6c0.7-0.6,1.2-1.4,1.7-2.2c1.5-2.8,2.3-6,2-9.2
				c-0.1-0.7-0.2-1.5,0-2.2s0.6-1.4,1.3-1.6c0.4-0.1,0.8-0.1,1.2-0.1s0.8-0.4,0.8-0.8c0-0.2-0.1-0.4-0.2-0.5
				c-0.4-0.5-1.1-0.6-1.7-0.9c-1.1-0.7-1.3-2.3-1.2-3.6c0.1-2.6,0.5-5.2,0.5-7.8s-0.6-5.3-2.3-7.3c-2-2.3-5.1-3.3-8.1-3.8
				c-4.8-0.8-10.2-0.7-14.1,2.4c-3.8,3-5.2,8.1-5.7,12.9c-0.6,5.5-0.5,11,0.5,16.5c0.2,1.2,0.5,2.5,1.1,3.5c0.9,1.4,2.4,2.3,4,2.3
				L147.6,121z"/>
		</g>
		<g>
			<path class="st14" d="M63.8,66.7c16-1.2,32.9,2.1,46.6,10.4c4.1,2.5,8.2,5.5,13,5.7l-1.7,3.6c-6.8,1.1-13.7,1.8-20.6,2.1
				c-5.1,0.2-10.4,0.2-14.9-2.2c-4.9-2.6-8-7.6-11.8-11.6C71.4,71.6,63.8,66.7,63.8,66.7z"/>
		</g>
		<g>
			<g>
				<path class="st14" d="M99.4,93.6c7.1-3.5,14.8-5.9,22.7-6.9c0.6-0.1,0.6-1.1,0-1c-8,1-15.9,3.4-23.2,7
					C98.4,93,98.9,93.9,99.4,93.6L99.4,93.6z"/>
			</g>
		</g>
		<g>
			<g>
				<path class="st14" d="M122.5,82.6c-3.4-0.3-7.3-5.3-9.3-7.8c-2.4-3-4.4-6.2-6.1-9.6c-0.3-0.6-1.1-0.1-0.9,0.5
					c1.9,4,4.4,7.7,7.3,11.1c2.2,2.5,5.4,6.5,8.9,6.8C123.1,83.6,123.1,82.6,122.5,82.6L122.5,82.6z"/>
			</g>
		</g>
		<g>
			<path class="st8" d="M128,81.4c-0.9-0.1-2.5-0.3-3.4-0.2s-1.7,0.5-2.3,1.1c-0.5,0.6-0.7,1.4-0.8,2.2c-0.2,1-0.4,2.1,0,3.1
				c0.5,1.2,1.9,1.9,3.2,2.1c0.5,0.1,1.1,0.1,1.6-0.2c0.4-0.3,0.7-0.7,0.9-1.2c0.3-0.7,0.6-1.4,0.8-2.2V81.4z"/>
		</g>
		<g>
			<path class="st14" d="M148.3,94.3c3.9-0.6,7.7-2,11.1-4.1c1.7-1,3.2-2.3,4.4-3.8c0.3-0.3,0.5-0.7,0.6-1.1
				c0.1-0.4-0.1-0.9-0.2-1.3c-1.9-4.8-6.7-7.8-11.5-9.2c-5.5-1.7-12.3-2.3-17.8-0.2c-2.4,0.9-4.7,2.3-6.3,4.3c-2,2.4-2.3,5-3,7.9
				c-0.8,3.3-0.5,7,0.5,10.2c0.9,2.9,2.5,5.5,4.3,7.8c0.9,1.2,1.9,2.4,2.9,3.6c0.3,0.4,2.6,3.2,2.4,3.6c1.8-2.4,3.7-4.7,5.5-7.1
				c0.1-0.2,0.3-0.4,0.3-0.6c0-0.3-0.2-0.5-0.3-0.7c-1-1.2-2-2.3-2.8-3.6s-1.3-2.8-1.2-4.4c0.2-2.1,1.9-4,3.9-4.5
				c2.1-0.5,4.4,0.4,5.6,2.2L148.3,94.3z"/>
		</g>
		<g>
			<path class="st15" d="M160.8,112.1c-0.3,1.1-1.2,2-2.3,2.3c-0.7,0.2-1.6,0.2-2.1-0.4c-0.3-0.4-0.3-0.9-0.3-1.4s0.1-1.1,0.3-1.6
				s0.6-0.9,1.1-1.1L160.8,112.1z"/>
		</g>
		<g>
			<g>
				<path class="st23" d="M155.2,108.2c1.6,3.1,4.7,4.6,7.9,5.5c1.2,0.4,1.8-1.6,0.5-1.9c-2.7-0.8-5.3-2-6.7-4.6
					C156.3,106.1,154.6,107.1,155.2,108.2L155.2,108.2z"/>
			</g>
		</g>
		<g>
			<g>
				<path class="st14" d="M162.1,98.3c-0.3,0.6-0.7,1.3-0.6,1.9c0.1,0.6,0.6,0.8,1.1,0.6c0.5-0.3,0.7-0.9,0.9-1.4
					c0.1-0.4,0.3-1.2-0.2-1.5c-1-0.6-1.8,1.8-1.5,2.5c0.3,0.6,0.9,0.2,1.2-0.2c0.4-0.5,0.7-1.1,0.6-1.8c0-0.2-0.2-0.3-0.3-0.3
					c-1.1-0.2-2.1,2.4-1,2.6c1,0.1,1.9-2.3,1-2.8c-1.1-0.6-2,1.9-1.5,2.6c0.4,0.6,1.1,0.2,1.4-0.3c0.3-0.5,0.7-1.4,0.5-2
					c-0.2-0.7-1.1-0.6-1.5-0.1c-0.4,0.6-0.7,1.5-0.6,2.2c0,0.2,0.2,0.3,0.3,0.3c1,0.3,1.7-1.2,1.8-2c0-0.5-0.2-1-0.7-1
					s-0.9,0.4-1.1,0.8c-0.3,0.4-0.5,1-0.4,1.5c0,0.5,0.4,0.9,0.9,0.8c1.1-0.2,1.3-1.8,1.1-2.7c-0.1-0.6-1.1-0.4-1,0.3
					c0.1,0.4,0,0.9-0.2,1.2c0,0.1-0.1,0.2-0.2,0.2c0.2,0.1,0.3,0.1,0.3,0c0.1-0.1,0.1-0.4,0.2-0.5c0.1-0.1,0.2-0.3,0.3-0.4
					c0.2-0.1,0.2-0.2-0.1-0.3c0,0.1,0,0.2,0,0.3c0,0.2-0.1,0.3-0.2,0.4c0,0.1-0.3,0.4-0.3,0.4c0.1,0.1,0.2,0.2,0.3,0.3
					c0-0.2,0.1-0.5,0.1-0.7c0-0.1,0.1-0.2,0.1-0.4c0.1-0.2,0.2-0.2,0-0.4s-0.2,0-0.2,0.2c0,0.1-0.1,0.2-0.1,0.4
					c-0.1,0.2-0.2,0.5-0.4,0.6c0.1,0,0.3,0,0.4,0.1h-0.1c0.1,0.1,0.2,0.2,0.2,0.3c-0.1-0.2,0-0.5,0.1-0.7c0-0.1,0.1-0.2,0.1-0.3
					s0.1-0.1,0.1-0.2c0.1-0.1,0.1-0.1-0.2-0.1c-0.1-0.1-0.2-0.2-0.2-0.3c0.1,0.4-0.2,1.1-0.6,1.4c0.1,0,0.2-0.1,0.4-0.1h-0.1
					c0.1,0,0.2,0.1,0.4,0.1c0,0,0,0-0.1-0.1c0,0.1,0.1,0.2,0.1,0.4c0-0.4,0.2-0.9,0.5-1.1c-0.1,0-0.3,0-0.4,0.1h0.1
					c-0.1-0.1-0.2-0.2-0.3-0.3c0,0.2-0.1,0.4-0.1,0.5s-0.3,0.4-0.2,0.4c0.1,0.1,0.3,0.2,0.4,0.2v0.1c0-0.1,0-0.2,0-0.3
					s0.1-0.3,0.1-0.4c0.1-0.3,0.2-0.5,0.4-0.7c-0.1,0-0.2,0.1-0.4,0.1h0.1c-0.1,0-0.2-0.1-0.4-0.1c-0.1-0.1,0-0.1-0.1,0.1
					c0,0.1-0.1,0.3-0.1,0.4c-0.1,0.2-0.2,0.4-0.2,0.6l-0.1,0.1c0.1,0,0.2,0,0.3,0.1l0.1-0.3c0.1-0.3,0.2-0.6,0.4-0.8
					C163.3,98.2,162.4,97.7,162.1,98.3L162.1,98.3z"/>
			</g>
		</g>
		<g>
			<g>
				<path class="st14" d="M159.4,95.2c1.3,1.1,2.7,2.1,4.2,3c0.1-0.3,0.3-0.6,0.4-0.9h-0.1c-0.6-0.2-0.9,0.8-0.3,1h0.1
					c0.5,0.2,0.9-0.6,0.4-0.9c-1.4-0.8-2.8-1.8-4-2.8C159.6,94.1,158.9,94.8,159.4,95.2L159.4,95.2z"/>
			</g>
		</g>
		<circle class="st24" cx="151.9" cy="101.6" r="4.6"/>
		<path class="st13" d="M147.5,116.8c0,0,1.8,4.6,6,5.5l-2,6.4C151.5,128.6,145.3,122.9,147.5,116.8z"/>
		<g>
			<path class="st6" d="M137.4,208.7c14.6-4.8,49-14.5,48.8-15.4c-0.3-0.9-7.2-0.1-10.4,0.4c3.3-1,12.8-4.3,12.3-5.4
				c-0.4-1.2-9.5,1.8-13.7,3.5c3.6-1.4,12-5.8,11.7-6.7c-0.3-0.9-9.8,2.4-14.5,4c0.2-2.6,0.2-5.1,0-7.7c0-0.4-0.1-0.7-0.3-1
				s-0.7-0.5-0.9-0.2c-0.2,0.1-0.2,0.3-0.3,0.5c-0.3,1.1-0.3,2.3-0.4,3.4c-0.1,1.1-0.6,2.3-1.6,2.9c-0.6,0.3-1.2,0.4-1.9,0.4
				c-0.8,0-1.6,0-2.4-0.1c-0.7-0.1-1.4-0.2-1.9-0.6c-1-0.8-0.9-2.4-0.4-3.6s1.6-1.8,2.3-2.9c-1.2,0.4-3.5-0.6-4.7-0.1
				s-1.9,1.9-2.2,3.1c-0.4,1.3-0.6,2.6-1.3,3.7c-1,1.6-2.8,2.4-4.5,3.1c-4,1.6-8.1,3-12.2,4.3L137.4,208.7z"/>
		</g>
		<g>
			<g>
				<path class="st14" d="M110.6,201.2c3.1-1.3,6.3-2.3,9.6-3.1c0.6-0.1,0.4-1.1-0.3-1c-3.3,0.8-6.5,1.8-9.6,3.1
					C109.8,200.4,110.1,201.4,110.6,201.2L110.6,201.2z"/>
			</g>
		</g>
		<g>
			<g>
				<path id="SVGID_144_" class="st8" d="M134,159.3l-13.7,39c6.8-1.4,13.6-3.4,20.3-5v26.5c-7.3,2.1-14.6,4-22,5.9
					c-4.3,1.1-8.7,1.9-13,3.1c-2.8,0.8-5.7,1.4-8.6,1.1c-2.4-0.3-5.3-1.4-6.7-3.5c-1.4-2.2-1.5-5.5-1.1-8.1
					c1.5-9.6,4.1-19.2,6.6-28.6c2.6-9.8,5.5-19.6,8.7-29.3c0.4-1.3,1.2-3.2,1.8-4.5L134,159.3z"/>
			</g>
			<g>
				<g>
					<defs>
						<path id="SVGID_11_" d="M134,159.3l-13.7,39c6.8-1.4,13.6-3.4,20.3-5v26.5c-7.3,2.1-14.6,4-22,5.9c-4.3,1.1-8.7,1.9-13,3.1
							c-2.8,0.8-5.7,1.4-8.6,1.1c-2.4-0.3-5.3-1.4-6.7-3.5c-1.4-2.2-1.5-5.5-1.1-8.1c1.5-9.6,4.1-19.2,6.6-28.6
							c2.6-9.8,5.5-19.6,8.7-29.3c0.4-1.3,1.2-3.2,1.8-4.5L134,159.3z"/>
					</defs>
					<clipPath id="SVGID_12_">
						<use xlink:href="#SVGID_11_"  style="overflow:visible;"/>
					</clipPath>
					<g class="st25">
						<path class="st11" d="M90.5,195.2c-1.3,4.2-1.7,8.7-1.1,13c0.3,2.3,1,4.6,2.9,6.1c1.1,0.8,2.5,1.3,3.9,1.6
							c3.4,0.8,6.8,1,10.3,0.8c1.9-0.1,3.7-0.4,5.5-0.6c10.1-1.4,20.2-2.8,29.9-5.6c-0.7,5.4-1.4,10.9-2.1,16.3
							c0,0.2-0.1,0.5-0.2,0.7c-0.2,0.3-0.7,0.4-1.1,0.5c-8.4,1.6-16.9,2.9-25.4,3.8c-5.4,0.6-11,1.1-16.4-0.1
							c-1.8-0.4-3.6-1.1-5.1-2.2s-2.6-2.7-3.5-4.3c-3.3-6-3.8-13.3-1.3-19.6"/>
					</g>
				</g>
			</g>
		</g>
		<g>
			<g>
				<path class="st11" d="M109.1,202.2c10.2-3.2,20.7-5.2,30.8-8.5c0.6-0.2,0.3-1.2-0.3-1c-10.1,3.3-20.7,5.3-30.8,8.5
					C108.2,201.4,108.4,202.4,109.1,202.2L109.1,202.2z"/>
			</g>
		</g>
		<g>
			<g>
				<path class="st11" d="M116.5,198.9c-1.6-1.2-3.4-2-5.3-2.7c-0.6-0.2-0.9,0.8-0.3,1c1.8,0.6,3.5,1.5,5,2.6
					C116.6,200.2,117.1,199.3,116.5,198.9L116.5,198.9z"/>
			</g>
		</g>
		<g>
			<g>
				<path class="st11" d="M129.1,172.2c-3.2,8.8-6.6,17.5-9.4,26.5c-0.2,0.6,0.8,0.9,1,0.3c2.8-8.9,6.2-17.7,9.4-26.5
					C130.3,171.9,129.3,171.6,129.1,172.2L129.1,172.2z"/>
			</g>
		</g>
		<g>
			<g>
				<path class="st11" d="M160.7,150.7c1.6,2.8,3.2,5.7,4.8,8.5c0.8,1.4,1.7,2.8,2.2,4.4c1.1,3.6,0.2,7.9-0.2,11.6
					c-0.1,0.6,0.9,0.6,1,0c0.4-3.6,1.2-7.4,0.4-11c-0.4-1.7-1.2-3.1-2-4.6c-1.7-3.1-3.5-6.2-5.2-9.3
					C161.3,149.7,160.4,150.2,160.7,150.7L160.7,150.7z"/>
			</g>
		</g>
		<g>
			<g>
				<path class="st22" d="M70,70.2c9.2,1.5,17.5,5.8,26.2,9c7.8,2.9,15.7,4.7,24,5.1c1.3,0.1,1.3-1.9,0-2c-8.8-0.4-17-2.5-25.1-5.7
					c-8.1-3.1-15.8-7-24.5-8.4C69.3,68.1,68.8,70,70,70.2L70,70.2z"/>
			</g>
		</g>
		<g>
			<g>
				<path class="st22" d="M78.8,75.7c2.6,4.5,7.4,6.8,12.2,8.1c6.7,1.8,14.2,2.9,21.2,2.2c1.3-0.1,1.3-2.1,0-2
					c-5.9,0.6-11.7-0.3-17.5-1.4c-5.4-1.1-11.3-2.9-14.2-7.9C79.9,73.6,78.2,74.6,78.8,75.7L78.8,75.7z"/>
			</g>
		</g>
		<g>
			<g>
				<path class="st22" d="M118.5,84.5c-9.2,2.5-18.5,4.8-28,6.1c-1.3,0.2-0.7,2.1,0.5,1.9c9.5-1.3,18.8-3.6,28-6.1
					C120.3,86.1,119.8,84.2,118.5,84.5L118.5,84.5z"/>
			</g>
		</g>
		<g>
			<g>
				<path class="st22" d="M118.8,80.7c-6.3-4.8-11.6-10.7-18.9-13.9c-1.2-0.5-2.2,1.2-1,1.7c7.3,3.2,12.7,9.2,18.9,13.9
					C118.8,83.2,119.8,81.5,118.8,80.7L118.8,80.7z"/>
			</g>
		</g>
		<g>
			<g>
				<path class="st22" d="M127.8,93.9c2.4,4.2,5.2,8.2,9.5,10.6c1.1,0.6,2.1-1.1,1-1.7c-4-2.2-6.6-5.9-8.8-9.8
					C128.9,91.8,127.2,92.8,127.8,93.9L127.8,93.9z"/>
			</g>
		</g>
		<g>
			<g>
				<path class="st22" d="M129,88.4c1.4,1.3,2.8,2.4,4.3,3.5c1,0.8,2-1,1-1.7c-1.3-1-2.6-2.1-3.8-3.2
					C129.5,86.1,128.1,87.6,129,88.4L129,88.4z"/>
			</g>
		</g>
		<g>
			<g>
				<path class="st22" d="M131.7,80.5c7.2-3.3,16.8-1.4,24.3-0.3c1.3,0.2,1.8-1.7,0.5-1.9c-8.3-1.2-18-3.1-25.9,0.5
					C129.6,79.3,130.6,81.1,131.7,80.5L131.7,80.5z"/>
			</g>
		</g>
		<g>
			<g>
				<path class="st22" d="M130.6,85.4c9.8-1.1,19.4,0.3,29,1.9c1.3,0.2,1.8-1.7,0.5-1.9c-9.8-1.6-19.6-3.1-29.5-1.9
					C129.4,83.5,129.3,85.5,130.6,85.4L130.6,85.4z"/>
			</g>
		</g>
		<g>
			<g>
				<path class="st22" d="M139.5,88.5c4,0.6,8.1,1.3,12.1,1.9c1.3,0.2,1.8-1.7,0.5-1.9c-4-0.6-8.1-1.3-12.1-1.9
					C138.8,86.4,138.2,88.3,139.5,88.5L139.5,88.5z"/>
			</g>
		</g>
		<g>
			<g>
				<path id="SVGID_146_" class="st8" d="M113.1,205.1l56.4-7.5l4.1-17.8c-1.2-10.5,0.3-21.2-2.2-31.5c-0.5-2.2-1.2-4.3-1.9-6.4
					c-0.5-1.6-1.1-3.2-2-4.6c-0.7-1-1.7-1.9-2.6-2.7c-3.5-2.8-7.9-4.9-12.4-4.4l-0.5,0.7c1.5,4,3.1,8.1,3,12.3s-2.3,8.7-6.2,10.3
					c-2.5,1-5.3,0.7-8,0.2c-2.3-0.4-4.6-1-6.8-2c-4.7-2.2-8.4-6.6-9.7-11.7c-3.5,1.3-6.7,3.3-9.7,5.5c-1.9,1.3-3.8,2.8-5.2,4.6
					c-1.3,1.8-2.2,3.4-3,5.5L113.1,205.1z"/>
			</g>
			<g>
				<g>
					<defs>
						<path id="SVGID_13_" d="M113.1,205.1l56.4-7.5l4.1-17.8c-1.2-10.5,0.3-21.2-2.2-31.5c-0.5-2.2-1.2-4.3-1.9-6.4
							c-0.5-1.6-1.1-3.2-2-4.6c-0.7-1-1.7-1.9-2.6-2.7c-3.5-2.8-7.9-4.9-12.4-4.4l-0.5,0.7c1.5,4,3.1,8.1,3,12.3s-2.3,8.7-6.2,10.3
							c-2.5,1-5.3,0.7-8,0.2c-2.3-0.4-4.6-1-6.8-2c-4.7-2.2-8.4-6.6-9.7-11.7c-3.5,1.3-6.7,3.3-9.7,5.5c-1.9,1.3-3.8,2.8-5.2,4.6
							c-1.3,1.8-2.2,3.4-3,5.5L113.1,205.1z"/>
					</defs>
					<clipPath id="SVGID_14_">
						<use xlink:href="#SVGID_13_"  style="overflow:visible;"/>
					</clipPath>
					<g class="st26">
						<path class="st11" d="M128.4,175.1c1.4,8,2.5,13.9,4.4,21.8c0.1,0.3,0.1,0.6,0,0.9c-0.1,0.2-0.3,0.3-0.5,0.4
							c-4.9,2.4-10.4,3.2-15.9,4"/>
					</g>
				</g>
			</g>
		</g>
		<path class="st22" d="M130.7,220.7c0.7-1.4,97-117.7,105.7-129.2c7.4-9.8,25.5-30,30.7-35.8c0.8-0.9,2.1-0.9,2.9-0.1l0,0
			c0.7,0.7,0.8,1.9,0.1,2.7L134.4,223.5L130.7,220.7z"/>
		<g>
			<path class="st6" d="M224.4,120.4c-2.1-0.2-4.1-0.7-6-1.5c-0.2-0.1-0.4-0.2-0.5-0.4c-0.2-0.5,0.4-0.8,0.9-0.9
				c2.3-0.3,4.6-0.6,6.8-0.6c-2.3-1.2-5.2-1-7.3-2.4c-0.2-0.1-0.3-0.2-0.4-0.4c-0.1-0.5,0.5-0.7,1-0.7c2.2-0.2,4.4-0.4,6.5-0.6
				c-1.3-0.5-2.6-1-3.8-1.5c-0.8-0.3-1.7-0.9-1.6-1.7c2.6-0.5,5.2-0.8,7.9-0.9c-1.7-0.4-3.4-1-4.9-1.8c-0.3-0.1-0.6-0.3-0.6-0.6
				c0-0.5,0.5-0.7,1-0.7c2.3-0.3,4.5-0.6,6.8-0.9l2.3-0.2c0.6,0.1,0.7,1.1,0.4,1.7s-0.7,0.8-1.3,1c0.2,0.8,0.4,1.6,0.3,2.4
				s-0.7,1.6-1.5,1.7c0.3,0.7,0.6,1.4,0.6,2.2c0,0.8-0.3,1.6-0.9,1.9c-0.2,0.1-0.5,0.2-0.7,0.4c-0.4,0.5-0.2,1.2-0.2,1.9
				c0,0.9-0.7,1.8-1.5,2.2c-0.8,0.4-1.8,0.5-2.7,0.4C224.8,120.4,224.6,120.4,224.4,120.4c-0.2,0.1-0.4,0.2-0.5,0.3"/>
		</g>
	</g>
	<g>
		<g>
			<g>
				<g>
					<path id="SVGID_148_" class="st27" d="M604.3,181.4c25.5-4.2,94.2-32.3,116.1-46c9-5.6,18.2-11,26.9-17.3
						c1.4-1,2.8-2.1,4.2-3.1c3.9-3-0.2-6-1.9-6.2c1.5-1.8,5-5.4,3.6-7.8s-2.1-2.7-3.3-2.7c0-1.2,3.6-4.3,1.9-6.5s-6.1,0.3-7.8,1.2
						c0.6-1.3,0.8-2.8,0.1-4c-0.8-1.5-2.4-1.7-3.8-1.1c-3.3,1.5-6.5,3.3-9.7,5c-3.4,1.8-6.8,3.6-10.1,5.4c-1.6,0.9-3.7,1.7-5.3,0.8
						c-1-0.6-1.5-1.7-2.2-2.5c-0.8-0.8-2.2-1.3-3-0.5c-0.3,0.3-0.4,0.8-0.4,1.2c-0.1,1.6,0.9,3.3,0.1,4.6c-0.3,0.5-0.9,0.8-1.4,1.1
						c-4.5,2.5-8.9,5.1-13.4,7.5c-13.4,7.4-27.2,14.3-42.3,17.2c-6.4,1.2-55.9,21.3-56.4,21.1C596,148.5,593.6,183.1,604.3,181.4z"
						/>
				</g>
				<g>
					<g>
						<defs>
							<path id="SVGID_15_" d="M604.3,181.4c25.5-4.2,94.2-32.3,116.1-46c9-5.6,18.2-11,26.9-17.3c1.4-1,2.8-2.1,4.2-3.1
								c3.9-3-0.2-6-1.9-6.2c1.5-1.8,5-5.4,3.6-7.8s-2.1-2.7-3.3-2.7c0-1.2,3.6-4.3,1.9-6.5s-6.1,0.3-7.8,1.2c0.6-1.3,0.8-2.8,0.1-4
								c-0.8-1.5-2.4-1.7-3.8-1.1c-3.3,1.5-6.5,3.3-9.7,5c-3.4,1.8-6.8,3.6-10.1,5.4c-1.6,0.9-3.7,1.7-5.3,0.8
								c-1-0.6-1.5-1.7-2.2-2.5c-0.8-0.8-2.2-1.3-3-0.5c-0.3,0.3-0.4,0.8-0.4,1.2c-0.1,1.6,0.9,3.3,0.1,4.6
								c-0.3,0.5-0.9,0.8-1.4,1.1c-4.5,2.5-8.9,5.1-13.4,7.5c-13.4,7.4-27.2,14.3-42.3,17.2c-6.4,1.2-55.9,21.3-56.4,21.1
								C596,148.5,593.6,183.1,604.3,181.4z"/>
						</defs>
						<clipPath id="SVGID_16_">
							<use xlink:href="#SVGID_15_"  style="overflow:visible;"/>
						</clipPath>
						<g class="st28">
							<path class="st13" d="M638.9,124.3c-4,7.4-7.4,15.1-9.9,23.1c-0.4,1.1-0.7,2.4-0.3,3.5c0.3,0.9,1,1.6,1.7,2.2
								c6.5,5.4,15.2,7.2,23.6,7.4c8.4,0.1,16.8-1.2,25.2-1.4c3.5-0.1,7.1,0.1,10.6-0.6c-14.6,12.3-33.6,17.8-52.3,21.3
								c-10.2,1.9-20.9,3.3-30.9,0.6c-10-2.7-19.4-10.6-20.9-20.9c-0.8-5.4,0.6-11,3.2-15.9c2.6-4.8,6.3-9,10.3-12.8
								c9-8.6,19.4-15.5,30.8-20.4"/>
						</g>
					</g>
				</g>
			</g>
			<g>
				<g>
					<g>
						<path class="st23" d="M745.2,91c-6.1,3.5-12.2,7-18.3,10.5c-1.2,0.7-0.1,2.5,1.1,1.8c6.1-3.5,12.2-7,18.3-10.5
							C747.4,92.1,746.4,90.3,745.2,91L745.2,91z"/>
					</g>
				</g>
				<g>
					<g>
						<path class="st23" d="M750.3,96.9c-6.6,4-13.1,8-19.7,12c-1.1,0.7-0.1,2.5,1.1,1.8c6.6-4,13.1-8,19.7-12
							C752.5,98,751.4,96.2,750.3,96.9L750.3,96.9z"/>
					</g>
				</g>
				<g>
					<g>
						<path class="st23" d="M750.4,106.9c-5.3,3.2-10.6,6.4-15.9,9.6c-1.1,0.7-0.1,2.5,1.1,1.8c5.3-3.2,10.6-6.4,15.9-9.6
							C752.6,108,751.5,106.2,750.4,106.9L750.4,106.9z"/>
					</g>
				</g>
				<g>
					<g>
						<path class="st23" d="M719.2,102.5c2.4,6.5-0.1,12.6-3.9,17.9c-0.7,1,1,2,1.7,1c4.1-5.8,6.6-12.5,4.1-19.5
							C720.7,100.8,718.8,101.3,719.2,102.5L719.2,102.5z"/>
					</g>
				</g>
			</g>
		</g>
		<g class="st29">
			<path class="st22" d="M446.5,651.8c-23.7,0.2-47.5,0-71.2-2c-23.5-1.9-47.4-1.7-71-2.6c-21.1-0.8-42.4-1.5-63.1,2.2
				c-0.7,3.9,1.8,7.9,5.2,10.1c3.4,2.2,7.4,3,11.4,3.6c33.6,5.5,67.7,5.8,101.7,6c11.9,0.1,23.8,0.2,35.6,0.2
				c13.6,0,27.1,0.2,40.7,0.3c47.6,0.3,95.2,1.2,142.8,1.3c2.6,0,5.5-0.1,7.4-1.8c1.9-1.8,2.2-4.9,1.2-7.3c-1-2.4-3.2-4.2-5.5-5.5
				c-5.3-3-11.6-3.5-17.6-3.9c-38.9-2.5-77.8-1-116.7-0.6C447,651.8,446.8,651.8,446.5,651.8z"/>
		</g>
		<g>
			<path class="st27" d="M542.5,77.8c-0.6,16.3-0.8,32.6-0.6,48.8c0,0-7.3,14.3-23.1,8.5s-17.2-13.6-17.2-13.6l1.2-2.2
				c6.8-12.4,9.4-26.6,14.6-39.7"/>
		</g>
		<g>
			<path class="st27" d="M521.6,99c-2.8-0.4-5.5-0.9-8.3-1.3c-2.1-0.3-4.4-0.8-5.4-2.7c-0.4-0.8-0.5-1.7-0.5-2.6
				c-0.2-6,2-11.9,2.2-17.9c0-0.4,0-0.9-0.2-1.2c-0.4-0.6-1.4-0.5-2.1-0.7c-1.2-0.2-2.3-1.3-2.4-2.6c-0.1-1.3,0.7-2.6,1.9-3
				s2.7,0,3.7-0.7c0.5-0.3,0.8-0.8,1.2-1.4c2.7-4.4,5.1-9,7.2-13.7c1.1-2.6,2.3-5.4,4.8-6.7c1.3-0.7,2.9-0.8,4.3-0.9
				c3-0.2,6.1-0.1,9.1,0.3c2.5,0.3,5,0.8,7.2,1.9c0.4,0.2,0.8,0.5,1,0.8c0.4,0.5,0.5,1.1,0.5,1.6c0.1,1.4,0,2.7-0.1,4.1
				c-0.7,6.4,0.2,12.8-0.6,19.2c-0.7,5.7-3,11.5-3.8,17.2c-0.3,2.1-0.6,4.3-1.3,6.3c-0.3,0.9-0.7,1.7-1.4,2.3s-1.7,0.7-2.6,0.8
				c-2,0.2-4,0.1-6-0.3L521.6,99z"/>
		</g>
		<g>
			<g>
				<path class="st23" d="M515.6,73.1c-0.5,2.5-1.9,4.5-4.1,5.8c-1.2,0.7-0.1,2.5,1.1,1.8c2.6-1.5,4.5-4.1,5.1-7.1
					C517.8,72.3,515.8,71.8,515.6,73.1L515.6,73.1z"/>
			</g>
		</g>
		<g>
			<g>
				<path class="st14" d="M518.7,58.7c0.1,0.9-0.2,1.7-0.8,2.4c0.6,0.2,1.1,0.5,1.7,0.7c-0.1-1.1,0.1-2,0.7-2.9
					c-0.6-0.2-1.2-0.3-1.9-0.5c0.1,0.9-0.1,1.8-0.4,2.6c0.6,0.1,1.2,0.2,1.8,0.2c-0.1-0.4,0-0.7,0.3-1.1c0.3-0.4,0.1-1.1-0.4-1.4
					c-0.5-0.3-1-0.1-1.4,0.4c-0.6,0.8-0.7,1.7-0.5,2.6c0.2,0.8,1.5,1,1.8,0.2c0.5-1.2,0.8-2.3,0.7-3.6c-0.1-1-1.3-1.4-1.9-0.5
					c-0.7,1.2-1.1,2.6-1,3.9c0.1,0.8,1.1,1.4,1.7,0.7c0.9-1.1,1.4-2.4,1.3-3.8C520.6,57.5,518.6,57.4,518.7,58.7L518.7,58.7z"/>
			</g>
		</g>
		<g>
			<g>
				<path class="st14" d="M528.2,58.1c-0.9-2.7-2.4-5.1-4.5-6.9c-1-0.9-2.4,0.6-1.4,1.4c1.9,1.7,3.2,3.7,4,6.1
					C526.7,59.8,528.6,59.3,528.2,58.1L528.2,58.1z"/>
			</g>
		</g>
		<g>
			<path class="st30" d="M511.3,97.4c4.4,1.3,6.3,1.3,10.9,1.8l-15.6,12.2L511.3,97.4z"/>
		</g>
		<g>
			<path class="st14" d="M541.8,95.8c-2.1-5.9-3.3-12.1-3.6-18.3c2.5-0.2,4.5-2.5,5.2-4.9s0.2-5.1-0.2-7.6c-0.1-0.9-0.4-1.9-1.2-2.3
				c-1-0.5-2.2,0.2-2.8,1.1c-0.6,0.9-0.9,2.1-1.6,2.9c-0.7,0.9-1.9,1.4-3,1.2s-2-1.2-2-2.3c0-0.7,0.4-1.3,0.8-1.9
				c2.1-3.5,4.2-7,6.3-10.4c0.6-1,1.2-2.2,0.8-3.2s-1.7-1.4-2.8-1.6c-4.9-0.9-10-0.9-14.8-2.3s-9.4-4.9-10.2-9.8
				c-0.3-1.7,0-3.5,0.3-5.2c0.2-0.8,0.4-1.6,0.9-2.2c0.5-0.6,1.3-0.8,2.1-0.9c2.8-0.3,5.5,1.2,7.8,2.9c-0.4-1.5,1.1-3,2.7-3.1
				s3,0.9,4,2.1c1,1.2,1.6,2.7,2.4,4c3,5.1,8.5,8.5,14.3,9c1.9,0.2,3.8,0,5.6,0.7c0.3,0.1,0.6,0.2,0.8,0.5c0.3,0.4,0.2,1,0.1,1.5
				c-3.2,16.8-9,34.7-11.6,51.6L541.8,95.8z"/>
		</g>
		<g>
			<path class="st20" d="M543.5,123.4c-5.1,5.5-12.6,8.8-20.1,8.7c-7.5,0-15-3.4-20-9c-9.7,9.8-15.5,23-19,36.4s-4.9,27.3-7,40.9
				c-2.7,17-6.6,33.9-11.7,50.4c-0.2,0.6-0.4,1.3-0.1,1.9c0.3,0.7,1.2,1,2,1.2c26.1,6.3,52.6,10.4,79.4,12.3
				c0.9,0.1,1.9,0.1,2.8-0.3c1.5-0.7,2-2.6,2.4-4.2c4-19.2,5.7-38.9,5.2-58.5c-0.2-6.6-0.7-13.2-2.1-19.6c-1.2-5.5-3.1-10.9-5-16.2
				c-3.3-9.4-6.6-18.8-10-28.2L543.5,123.4z"/>
		</g>
		<g>
			<path class="st31" d="M526.2,146.2c-1.8,35.9-6.5,108.7-6.5,108.7l30.8,4.3L532,151.8L526.2,146.2z"/>
		</g>
		<g>
			<g>
				<path class="st32" d="M546.1,50.2c-11.1,15.8-19,33.9-31.5,48.7c-0.8,1,0.6,2.4,1.4,1.4c12.6-15,20.6-33.1,31.8-49.1
					C548.5,50.1,546.8,49.1,546.1,50.2L546.1,50.2z"/>
			</g>
		</g>
		<g>
			<g>
				<path id="SVGID_150_" class="st2" d="M547.5,34.3c-3.9,1.4-11.9,3.5-11.9,3.5c3.8,2.4,7.5,7.5,9.4,11.6
					c1.8,4.1,4.3,10.6,4.9,15.1c0,0,5.7-10.2,7.8-13.5c4.5-6.9,10.2-14.9,14.2-22.4c0.4-0.7-0.3-1.5-1.1-1.3
					C565.9,28.7,553.3,32.3,547.5,34.3z"/>
			</g>
			<g>
				<g>
					<defs>
						<path id="SVGID_17_" d="M547.5,34.3c-3.9,1.4-11.9,3.5-11.9,3.5c3.8,2.4,7.5,7.5,9.4,11.6c1.8,4.1,4.3,10.6,4.9,15.1
							c0,0,5.7-10.2,7.8-13.5c4.5-6.9,10.2-14.9,14.2-22.4c0.4-0.7-0.3-1.5-1.1-1.3C565.9,28.7,553.3,32.3,547.5,34.3z"/>
					</defs>
					<clipPath id="SVGID_18_">
						<use xlink:href="#SVGID_17_"  style="overflow:visible;"/>
					</clipPath>
					<g class="st33">
						<path class="st34" d="M556.5,66.2c-5.1-12.2-9.8-24.5-14.1-37l4.3,0.6c3.9,10.4,8,20.8,12.3,31L556.5,66.2z"/>
					</g>
				</g>
			</g>
			<g>
				<g>
					<defs>
						<path id="SVGID_19_" d="M547.5,34.3c-3.9,1.4-11.9,3.5-11.9,3.5c3.8,2.4,7.5,7.5,9.4,11.6c1.8,4.1,4.3,10.6,4.9,15.1
							c0,0,5.7-10.2,7.8-13.5c4.5-6.9,10.2-14.9,14.2-22.4c0.4-0.7-0.3-1.5-1.1-1.3C565.9,28.7,553.3,32.3,547.5,34.3z"/>
					</defs>
					<clipPath id="SVGID_20_">
						<use xlink:href="#SVGID_19_"  style="overflow:visible;"/>
					</clipPath>
					<g class="st35">
						<path class="st34" d="M562.7,60.5c-5.1-12.2-9.8-24.5-14.1-37l4.3,0.6c3.9,10.4,8,20.8,12.3,31L562.7,60.5z"/>
					</g>
				</g>
			</g>
			<g>
				<g>
					<defs>
						<path id="SVGID_21_" d="M547.5,34.3c-3.9,1.4-11.9,3.5-11.9,3.5c3.8,2.4,7.5,7.5,9.4,11.6c1.8,4.1,4.3,10.6,4.9,15.1
							c0,0,5.7-10.2,7.8-13.5c4.5-6.9,10.2-14.9,14.2-22.4c0.4-0.7-0.3-1.5-1.1-1.3C565.9,28.7,553.3,32.3,547.5,34.3z"/>
					</defs>
					<clipPath id="SVGID_22_">
						<use xlink:href="#SVGID_21_"  style="overflow:visible;"/>
					</clipPath>
					<g class="st36">
						<path class="st34" d="M566.2,46c-3.5-8.1-6.7-16.3-9.6-24.5h3.7c2.6,6.8,5.4,13.6,8.3,20.4L566.2,46z"/>
					</g>
				</g>
			</g>
			<g>
				<g>
					<defs>
						<path id="SVGID_23_" d="M547.5,34.3c-3.9,1.4-11.9,3.5-11.9,3.5c3.8,2.4,7.5,7.5,9.4,11.6c1.8,4.1,4.3,10.6,4.9,15.1
							c0,0,5.7-10.2,7.8-13.5c4.5-6.9,10.2-14.9,14.2-22.4c0.4-0.7-0.3-1.5-1.1-1.3C565.9,28.7,553.3,32.3,547.5,34.3z"/>
					</defs>
					<clipPath id="SVGID_24_">
						<use xlink:href="#SVGID_23_"  style="overflow:visible;"/>
					</clipPath>
					<path class="st37" d="M573.6,26.5l-28.8,28.3c0,0,4,18.4,4.8,18.1c0.8-0.3,27.5-46.7,27.5-46.7L573.6,26.5z"/>
				</g>
			</g>
		</g>
		<path class="st2" d="M315,634.7c-3.3,6.1-11.9,17.9-13.6,20.6c-2.4,3.9-5,1.9-7.3-0.6c-11.1-11.8-22.2-23.5-33.3-35.4
			c-4.3-4.6-8-9.6-11.8-14.6c0.1-1.3,1.5-2.1,2.7-2s2.3,0.9,3.2,1.7c1.8,1.5,3.6,2.9,5.4,4.4c1.6,1.3,3.3,2.7,5.4,3
			c2.6,0.4,5.4-3,5.4-3s4.4-4.7,6.5-7.1L315,634.7z"/>
		<g>
			<g>
				<path class="st31" d="M283.7,614.5c-2.6-1.8-5-3.8-7.2-5.9c-0.9-0.9-2.4,0.5-1.4,1.4c2.4,2.3,5,4.3,7.7,6.2
					C283.7,617,284.7,615.2,283.7,614.5L283.7,614.5z"/>
			</g>
		</g>
		<g>
			<g>
				<path class="st31" d="M279.7,617.5c-2.5-1.7-5-3.5-7.4-5.4c-1-0.8-2,1-1,1.7c2.4,1.9,4.9,3.6,7.4,5.4
					C279.8,619.9,280.8,618.2,279.7,617.5L279.7,617.5z"/>
			</g>
		</g>
		<g class="st3">
			<path class="st22" d="M276.4,602.8c-0.9,1.2-4.4,5-4.4,5l34.6,39.8l6.7-9.8"/>
		</g>
		<g>
			<path class="st2" d="M584.6,646l-0.6-3.1c0,0-2.6-4.6-3.6-6.1c-1.4-2.3-2.9-4.5-4.4-6.8l27.8-38.4c4.9,6.5,9.8,13,14.8,19.6
				l-0.9,2.5c-6.2,11.8-12.4,23.6-18.6,35.5c-3.3,6.3-7.9,12.3-12.2,18l-1.8-1.7L584.6,646z"/>
		</g>
		<g>
			<g>
				<path class="st31" d="M589.4,628.5c-2.2,2.8-4.4,5.5-6.6,8.3c-0.8,1,0.6,2.4,1.4,1.4c2.3-2.7,4.5-5.5,6.6-8.3
					C591.6,628.9,590.2,627.5,589.4,628.5L589.4,628.5z"/>
			</g>
		</g>
		<g>
			<g>
				<path class="st31" d="M586.4,625.4c-2,2.7-4.1,5.3-6.1,8c-0.8,1,1,2,1.7,1c2-2.7,4.1-5.3,6.1-8
					C588.9,625.4,587.1,624.4,586.4,625.4L586.4,625.4z"/>
			</g>
		</g>
		<g class="st3">
			<path class="st22" d="M574,626.7c3,5.6,6.6,10.6,10,16c1.6-1.2,4-3.4,5-5.1c8-12.9,12.9-27.4,17.7-41.8l-2.9-3.7"/>
		</g>
		<g>
			<g>
				<path class="st38" d="M613.3,606.6c-8.8,16.9-16.5,35.4-28.3,50.5c-0.8,1,0.6,2.4,1.4,1.4c11.9-15.3,19.7-33.9,28.6-51
					C615.6,606.5,613.9,605.5,613.3,606.6L613.3,606.6z"/>
			</g>
		</g>
		<g>
			<g>
				<path class="st38" d="M302.1,652.8c-13.9-14-26.3-29.7-40.8-43.1c-0.9-0.9-2.4,0.5-1.4,1.4c14.5,13.4,26.9,29.1,40.8,43.1
					C301.6,655.1,303,653.7,302.1,652.8L302.1,652.8z"/>
			</g>
		</g>
		<g>
			<g>
				<path id="SVGID_152_" class="st22" d="M275.2,603c31.1-47.3,91.6-175.1,121.5-223.2l3.1-5.8c20.5-40.5,43.1-84.9,59.9-127.1
					l102,13.5c-0.3,12.7-2.1,29.7-4.4,42.2c-1.3,7-2.6,14.1-3.9,21.1c-1.4,7.4-2.7,14.8-4.2,22.2c-7.4,37.3-17.2,74.2-29.4,110.2
					l0.4,3.5c27.1,44.6,57.4,87.1,90.8,127.3l-35.6,49c-15.2-20.5-29.1-39.8-44.3-60.2c-24.5-33-49.1-66.2-69.5-102l-1.1-4.8
					c5-35.4,11.7-79.1,18.6-114.2l-7.2,13.6c-6.2,11.6-14.6,21.7-20.6,33.5C422.1,458.7,388.5,513,358,569.1
					c-10.1,18.5-20.5,37-31.8,54.8c-3.8,6-7.7,12.1-12.6,17.3L275.2,603z"/>
			</g>
			<g>
				<g>
					<defs>
						<path id="SVGID_25_" d="M275.2,603c31.1-47.3,91.6-175.1,121.5-223.2l3.1-5.8c20.5-40.5,43.1-84.9,59.9-127.1l102,13.5
							c-0.3,12.7-2.1,29.7-4.4,42.2c-1.3,7-2.6,14.1-3.9,21.1c-1.4,7.4-2.7,14.8-4.2,22.2c-7.4,37.3-17.2,74.2-29.4,110.2l0.4,3.5
							c27.1,44.6,57.4,87.1,90.8,127.3l-35.6,49c-15.2-20.5-29.1-39.8-44.3-60.2c-24.5-33-49.1-66.2-69.5-102l-1.1-4.8
							c5-35.4,11.7-79.1,18.6-114.2l-7.2,13.6c-6.2,11.6-14.6,21.7-20.6,33.5C422.1,458.7,388.5,513,358,569.1
							c-10.1,18.5-20.5,37-31.8,54.8c-3.8,6-7.7,12.1-12.6,17.3L275.2,603z"/>
					</defs>
					<clipPath id="SVGID_26_">
						<use xlink:href="#SVGID_25_"  style="overflow:visible;"/>
					</clipPath>
					<g class="st39">
						<path class="st14" d="M522.8,252.7c0,0,1.9,19.4,3.3,35.6c-7.8,52.8-18.3,105.3-31.5,157c-1.3,5-2.6,10.2-2.2,15.3
							c0.3,4.3,1.8,8.4,3.7,12.2c9.4,19.2,28.9,31.9,38.7,51c4.6,8.9,7.8,19.9,17.1,23.7c3.7,1.5,8,1.6,11.1,4
							c4.3,3.3,4.7,9.5,6.2,14.7c4.7,16.1,21.9,25.7,27.7,41.4c0.4,1,0.7,2.1,1.6,2.7c1.3,1,3.2,0.5,4.8-0.1
							c10.9-4.5,18.6-14.8,22.5-25.9c3.9-11.1,4.5-23.1,4.5-34.8c-0.2-84.6-28.7-166.4-38.6-250.4c-1.2-10.2-2.2-20.5-5.9-30
							s-10.9-18.2-20.7-21.2"/>
					</g>
				</g>
			</g>
			<g>
				<g>
					<defs>
						<path id="SVGID_27_" d="M275.2,603c31.1-47.3,91.6-175.1,121.5-223.2l3.1-5.8c20.5-40.5,43.1-84.9,59.9-127.1l102,13.5
							c-0.3,12.7-2.1,29.7-4.4,42.2c-1.3,7-2.6,14.1-3.9,21.1c-1.4,7.4-2.7,14.8-4.2,22.2c-7.4,37.3-17.2,74.2-29.4,110.2l0.4,3.5
							c27.1,44.6,57.4,87.1,90.8,127.3l-35.6,49c-15.2-20.5-29.1-39.8-44.3-60.2c-24.5-33-49.1-66.2-69.5-102l-1.1-4.8
							c5-35.4,11.7-79.1,18.6-114.2l-7.2,13.6c-6.2,11.6-14.6,21.7-20.6,33.5C422.1,458.7,388.5,513,358,569.1
							c-10.1,18.5-20.5,37-31.8,54.8c-3.8,6-7.7,12.1-12.6,17.3L275.2,603z"/>
					</defs>
					<clipPath id="SVGID_28_">
						<use xlink:href="#SVGID_27_"  style="overflow:visible;"/>
					</clipPath>
					<g class="st40">
						<path class="st14" d="M478.5,356.9c-3.7,18.8-11.8,36.4-19.8,53.8c-20.4,44.4-40.8,88.8-63.2,132.2
							c-20.7,40.3-43.5,80.2-74.9,112.8c-1.3,1.3-3,2.8-4.8,2.2c-1-0.3-1.7-1.2-2.3-2c-5.5-7.6-11-15.2-16.5-22.8
							c-1.9-2.7-4-5.6-4.2-8.9c-0.2-3.4,1.5-6.6,3.2-9.5c21.4-37,52.5-68.1,70.7-106.7c2.9-6.1,5.5-12.5,10.6-17
							c5.7-5.1,14.8-8.4,15.2-16c0.1-2.7-1-5.3-1.3-8.1c-0.6-5.8,2.7-11.1,5.9-16c30.7-46.9,59.6-93.7,90.3-140.6L478.5,356.9z"/>
					</g>
				</g>
			</g>
		</g>
		<g>
			<g>
				<path class="st14" d="M462,258.5c31.9,3.8,63.8,8,95.6,12.5c1.3,0.2,1.8-1.7,0.5-1.9c-32-4.6-64-8.7-96.1-12.6
					C460.8,256.4,460.8,258.4,462,258.5L462,258.5z"/>
			</g>
		</g>
		<g>
			<g>
				<path class="st41" d="M490.1,302.1c1.1-8.5,3.8-16.9,5.8-25.2c1.8-7.9,3.7-15.7,5.5-23.6c0.2-0.9-1.2-1.3-1.4-0.4
					c-1.9,8.2-3.8,16.4-5.8,24.6c-1.9,8.1-4.5,16.4-5.6,24.6C488.6,303,490,303,490.1,302.1L490.1,302.1z"/>
			</g>
		</g>
		<g>
			<g>
				<path class="st41" d="M489.2,251.6c-2.6,9.2-4.4,18.7-6,28.1c-0.5,3.1-2.2,7.9-1.6,11.1c0.5,3,4.5,3.2,7.1,3.6
					c0.8,0.1,1.2-1.1,0.3-1.3c-2.3-0.3-5.5-0.4-6-3.5c-0.3-1.6,0.6-4.4,0.9-6.1c0.6-3.6,1.2-7.2,1.8-10.7c1.3-7,2.8-14,4.7-20.9
					C490.7,251.1,489.4,250.8,489.2,251.6L489.2,251.6z"/>
			</g>
		</g>
		<g>
			<g>
				<path class="st14" d="M479.1,355.1c3.9-17.7,8.5-35.2,11.3-53.1c0.1-0.9-1.3-1.4-1.4-0.4c-2.8,17.9-7.4,35.4-11.3,53.1
					C477.4,355.6,478.9,356,479.1,355.1L479.1,355.1z"/>
			</g>
		</g>
		<g>
			<g>
				<path class="st22" d="M437,414.2c8.1-13.3,16.4-26.2,24-39.7c10.5-18.6,21-37.2,31.1-56c0.6-1.1-1.1-2.2-1.7-1
					c-10.1,18.8-20.6,37.4-31.1,56c-7.6,13.5-15.9,26.5-24,39.7C434.6,414.3,436.4,415.3,437,414.2L437,414.2z"/>
			</g>
		</g>
		<g>
			<g>
				<path class="st22" d="M356.9,554.4c24.9-43.7,48.9-87.9,74.7-131.2c0.7-1.1-1.1-2.1-1.7-1c-25.8,43.2-49.8,87.5-74.7,131.2
					C354.5,554.5,356.2,555.6,356.9,554.4L356.9,554.4z"/>
			</g>
		</g>
		<g>
			<g>
				<path class="st22" d="M308.5,634.1c15.1-21.7,28.3-44.7,41.4-67.5c0.6-1.1-1.1-2.1-1.7-1c-13.2,22.8-26.4,45.8-41.4,67.5
					C306,634.2,307.7,635.2,308.5,634.1L308.5,634.1z"/>
			</g>
		</g>
		<g>
			<g>
				<path class="st22" d="M564.8,547.4c12.9,16.1,25.9,32.2,39.1,48.1c0.8,1,2.2-0.4,1.4-1.4c-13.2-15.9-26.2-32-39.1-48.1
					C565.4,544.9,564,546.4,564.8,547.4L564.8,547.4z"/>
			</g>
		</g>
		<g>
			<g>
				<path class="st22" d="M532.1,506c8.5,10.9,17.1,21.8,25.7,32.6c0.8,1,2.2-0.4,1.4-1.4c-8.6-10.8-17.2-21.7-25.7-32.6
					C532.8,503.6,531.3,505,532.1,506L532.1,506z"/>
			</g>
		</g>
		<g>
			<g>
				<path class="st22" d="M521.6,386.4c-6.4,20.4-12,41.1-17.6,61.8c-1.2,4.3-3.2,9-3.5,13.4c-0.2,3.4,1.6,5.1,3.6,7.8
					c7.2,9.7,14.5,19.3,21.9,28.8c0.8,1,2.5,0,1.7-1c-6.6-8.6-13.2-17.2-19.7-25.9c-2.5-3.4-5.9-6.3-5.3-10.7
					c0.7-5.5,3-11.2,4.4-16.5c5.2-19.1,10.5-38.3,16.4-57.2C523.9,385.7,522,385.1,521.6,386.4L521.6,386.4z"/>
			</g>
		</g>
		<g>
			<g>
				<path class="st22" d="M546.5,293.1c-6,24.7-12.6,49.3-19,73.9c-0.3,1.2,1.6,1.8,1.9,0.5c6.4-24.6,13-49.2,19-73.9
					C548.7,292.4,546.8,291.8,546.5,293.1L546.5,293.1z"/>
			</g>
		</g>
		<g>
			<g>
				<path class="st41" d="M579.5,583.4c-7.2,8.9-14.5,17.8-21.7,26.8c-0.6,0.7,0.5,1.8,1.1,1.1c7.2-9,14.4-17.9,21.7-26.8
					C581.1,583.8,580.1,582.7,579.5,583.4L579.5,583.4z"/>
			</g>
		</g>
		<g>
			<g>
				<path class="st22" d="M593.1,566.1c-4.6,5.7-9.2,11.5-13.9,17.2c-0.8,1,0.6,2.4,1.4,1.4c4.6-5.7,9.3-11.4,13.9-17.2
					C595.4,566.5,594,565.1,593.1,566.1L593.1,566.1z"/>
			</g>
		</g>
		<g>
			<g>
				<path class="st41" d="M305.6,599.9c-5.6-5.8-11.2-11.7-16.5-17.8c-0.6-0.7-1.7,0.3-1.1,1.1c5.4,6.1,10.9,12,16.5,17.8
					C305.2,601.6,306.2,600.6,305.6,599.9L305.6,599.9z"/>
			</g>
		</g>
		<g>
			<g>
				<path class="st22" d="M327.5,621c-7.5-6.8-14.7-14-21.8-21.3c-0.9-0.9-2.3,0.5-1.4,1.4c7.1,7.3,14.2,14.5,21.8,21.3
					C327.1,623.2,328.5,621.8,327.5,621L327.5,621z"/>
			</g>
		</g>
		<g>
			<g>
				<path id="SVGID_154_" class="st27" d="M472.6,197.6l-29-15.6l-20.7,51.8c1.8,4.9,3.5,9.1,6.4,13.5c3,4.5,7.1,8.4,12.2,10.1
					s11.3,0.7,15-3.2c2.2-2.3,3.4-5.3,5.3-7.8L472.6,197.6z"/>
			</g>
			<g>
				<g>
					<defs>
						<path id="SVGID_29_" d="M472.6,197.6l-29-15.6l-20.7,51.8c1.8,4.9,3.5,9.1,6.4,13.5c3,4.5,7.1,8.4,12.2,10.1s11.3,0.7,15-3.2
							c2.2-2.3,3.4-5.3,5.3-7.8L472.6,197.6z"/>
					</defs>
					<clipPath id="SVGID_30_">
						<use xlink:href="#SVGID_29_"  style="overflow:visible;"/>
					</clipPath>
					<g class="st42">
						<path class="st13" d="M453.4,198.3c4.7,7,9.6,13.9,14.7,20.7c0.2,0.2,0.3,0.4,0.6,0.5c0.7,0.3,1.3-0.5,1.6-1.2
							c3.5-7.4,7.2-15.1,6.9-23.3c0-0.6-0.1-1.3-0.4-1.8c-0.5-0.9-1.6-1.3-2.6-1.6c-5.4-1.8-25.8-9.5-30.8-12.3l-0.5,3.2
							L453.4,198.3c-3.5-5.1-6.9-10.2-10.2-15.4"/>
					</g>
				</g>
			</g>
			<g>
				<g>
					<defs>
						<path id="SVGID_31_" d="M472.6,197.6l-29-15.6l-20.7,51.8c1.8,4.9,3.5,9.1,6.4,13.5c3,4.5,7.1,8.4,12.2,10.1s11.3,0.7,15-3.2
							c2.2-2.3,3.4-5.3,5.3-7.8L472.6,197.6z"/>
					</defs>
					<clipPath id="SVGID_32_">
						<use xlink:href="#SVGID_31_"  style="overflow:visible;"/>
					</clipPath>
					<g class="st43">
						<path class="st13" d="M473.9,209.3c-0.2-1.2-0.9-2.8-2.1-2.5l-9.8-6.1c-1.4,5.1-2.7,10.3-4.3,15.4c-0.8,2.5-1.6,5-2.5,7.4
							c-0.8,2.1-1.8,4.8-3.5,6.4c-0.7,0.7-1.7,1.1-2.7,0.8c-0.7-0.2-1.2-0.8-1.7-1.4c-3.3-3.8-5.7-8.3-8.2-12.6
							c-2.5-4.4-4.9-9-7.2-13.5c-5.3-10.4-10.4-21-15.1-31.7c-2.3-5.2-4.5-10.4-6.6-15.7c-1.8-4.6-3.6-9.3-5.8-13.7
							c-2.6-5.2-6.8-10.5-12.6-10.5c-0.4,0-0.9,0.1-1.1,0.4s0.2,0.9,0.5,0.6l-0.2,1c-0.5,6.4-1,12.7-1.5,19.1c0,0.6-0.1,1.2,0,1.8
							c0.2,0.9,0.6,1.6,1,2.4c1.5,2.8,2.2,6,2.9,9c6,24.5,15.3,48.1,24.8,71.5c1.8,4.5,3.7,9,7.1,12.5c1,1,2.1,1.9,3.3,2.6
							c0.6,1.4,1.2,2.7,2,4c2.4,4,5.9,7.4,10.4,8.7c5.4,1.6,11.3-0.3,15.8-3.7c4.4-3.4,7.5-8.3,10-13.3
							C472.9,236.4,475.9,222.6,473.9,209.3z"/>
					</g>
				</g>
			</g>
		</g>
		<g>
			<g>
				<path id="SVGID_156_" class="st2" d="M543.6,124c5.2,0,13,0.3,18,1.7c11.4,3.2,40.4,11.9,61,12.4l1.5,50.4c0,0-34.3-4.2-50-6.9
					l5.5,29.9c6.2,23.4,6.3,45.7,10.7,69.6l-2,1c-13.8,5.1-27.5,10.6-41,16.4l-2.9,0.7c-7.2-46.1-13-106.4-18.4-152.8L543.6,124z"/>
			</g>
			<g>
				<g>
					<defs>
						<path id="SVGID_33_" d="M543.6,124c5.2,0,13,0.3,18,1.7c11.4,3.2,40.4,11.9,61,12.4l1.5,50.4c0,0-34.3-4.2-50-6.9l5.5,29.9
							c6.2,23.4,6.3,45.7,10.7,69.6l-2,1c-13.8,5.1-27.5,10.6-41,16.4l-2.9,0.7c-7.2-46.1-13-106.4-18.4-152.8L543.6,124z"/>
					</defs>
					<clipPath id="SVGID_34_">
						<use xlink:href="#SVGID_33_"  style="overflow:visible;"/>
					</clipPath>
					<g class="st44">
						<path class="st17" d="M572.3,169.8c17.8,3.9,36.9,7.2,55,9.2c-1.1,5.8-2.2,11.6-3.3,17.3c-0.1,0.5-0.2,1.1-0.7,1.4
							c-0.4,0.3-0.9,0.2-1.4,0.1c-14.4-2.7-31.7-6.3-46.1-9"/>
					</g>
				</g>
			</g>
		</g>
		<g>
			<g>
				<path class="st45" d="M614.5,137.8c0.2,16.4-0.2,32.7-0.9,49.1c0,0.6,1,0.6,1,0c0.7-16.4,1.1-32.7,0.9-49.1
					C615.5,137.2,614.5,137.2,614.5,137.8L614.5,137.8z"/>
			</g>
		</g>
		<g>
			<g>
				<path id="SVGID_158_" class="st2" d="M451,264.2c6.6-22.2,11.2-42.4,14.8-62.8l0.3-2.1c-6.8-4.6-13.5-9.3-20.3-13.9l-2.8-2.3
					c2.5-10.6,7.6-20.7,12.3-30.5c2.6-5.3,5.2-10.8,9.4-15c7.4-7.4,23-12,33.3-14.1l4.9-2c-1.4,8.2-2.5,15.5-4.1,23.7
					c-8.7,44.7-20.1,90.1-33.9,135.6L451,264.2z"/>
			</g>
			<g>
				<g>
					<defs>
						<path id="SVGID_35_" d="M451,264.2c6.6-22.2,11.2-42.4,14.8-62.8l0.3-2.1c-6.8-4.6-13.5-9.3-20.3-13.9l-2.8-2.3
							c2.5-10.6,7.6-20.7,12.3-30.5c2.6-5.3,5.2-10.8,9.4-15c7.4-7.4,23-12,33.3-14.1l4.9-2c-1.4,8.2-2.5,15.5-4.1,23.7
							c-8.7,44.7-20.1,90.1-33.9,135.6L451,264.2z"/>
					</defs>
					<clipPath id="SVGID_36_">
						<use xlink:href="#SVGID_35_"  style="overflow:visible;"/>
					</clipPath>
					<g class="st46">
						<path class="st17" d="M473.8,162.7l-17.7,31.4c0,0,6.4,3,10,5"/>
					</g>
				</g>
			</g>
		</g>
		<g>
			<path class="st45" d="M499,145.4c-3.9,0.7-10.5,1.6-14.3,2.8l15.1-30.1c0,0,3.7-3,5.2-3.3L499,145.4z"/>
		</g>
		<g>
			<path class="st45" d="M526.2,146.2c1.7-5.3,16-27.4,16-27.4l3,5.1l-1.9,26.9C537.8,149.4,526.2,146.2,526.2,146.2z"/>
		</g>
		<g>
			<path class="st45" d="M473.2,144.5c1.1-3.5,4-6.1,7.2-6.4c1-0.1,2.1,0.1,2.9,0.8c1.2,1.1,1.3,3.4,0.5,4.9s-2.2,2.5-3.7,2.9
				s-3,0.3-4.5,0.2c1.5,0.6,2.9,1.3,4,2.6c1.1,1.3,1.7,3.3,1.2,5.1c-0.4,1.4-1.5,2.5-2.7,2.9c-1.3,0.5-2.7,0.3-3.7-0.6
				c-1.8-1.6-1.8-4.8-1.6-7.5c-0.8,3.3-3.6,5.9-6.5,5.8c-0.6,0-1.2-0.1-1.8-0.5c-1.1-0.7-1.7-2.5-1.4-4s1.2-2.8,2.3-3.7
				c1.1-0.8,2.4-1.2,3.7-1.5c-1.6-1.1-2.1-3.8-1.7-6.1c0.2-1.3,0.8-2.6,1.7-3.5c0.9-0.8,2.2-1.2,3.2-0.5c1.3,0.8,1.7,2.8,1.8,4.5
				c0,1.5-0.1,3.1-0.4,4.6"/>
		</g>
		<g>
			<path class="st45" d="M563.1,196.3c1.6-1.8,4.6-1.9,6.4-0.4c1.8,1.5,2.3,4.3,1.3,6.5c-0.3,0.6-0.7,1.2-1.3,1.6
				c-1,0.7-2.4,0.7-3.5,0.4c-1.2-0.3-2.2-1-3.3-1.7c0.8,1.6,1.5,3.3,1.4,5c-0.1,1.8-1,3.6-2.7,4.2c-1.1,0.4-2.4,0.2-3.5,0
				c-1.7-0.4-3.6-1.1-4.4-2.7c-0.6-1.2-0.4-2.7,0.3-3.9s1.6-2.2,2.6-3.1c-0.4,0.4-1.4,0.7-1.9,0.8c-0.7,0.2-1.5,0.3-2.2,0.3
				c-1.5-0.1-2.8-0.7-3.9-1.8c-0.9-1-1.6-2.3-2.2-3.5c-0.5-1.1-0.9-2.4-0.8-3.6c0.1-1.3,1.2-2.1,2.4-2.5c1.6-0.4,3.3-0.2,4.9,0.3
				c1.4,0.4,2.8,1.2,3.9,2.3c-0.5-2,0-4.3,1.3-5.9c1.4-1.6,3.6-2.4,5.6-2.2c1.5,0.2,3.1,1.1,3.3,2.6c0.1,0.8-0.2,1.6-0.5,2.4
				c-0.7,1.6-1.5,3.2-2.3,4.7"/>
		</g>
		<g>
			<path class="st45" d="M575.2,264.2c0.1-1,1.1-1.8,2-2.2c1.9-0.8,4.1-0.9,6-0.1c1.2,0.5,2.3,1.3,2.5,2.6c0.3,1.7-1.1,3.2-2.7,3.9
				s-3.3,0.7-4.9,1.3c0.9,1.3,1.4,2.9,1.6,4.5c0.1,0.6,0.1,1.3-0.2,1.9c-0.5,1.3-1.9,2.1-3.2,2.6c-1.1,0.4-2.4,0.8-3.4,0.2
				c-1.1-0.6-1.4-2-1.3-3.2c0.1-1.2,0.5-2.4,0.7-3.6c-1.4,1.4-3.4,2.1-5.3,1.9c-1.9-0.2-3.7-1.3-4.8-3c-0.6-0.9-0.9-2-0.5-3
				c0.5-1.1,1.8-1.5,3-1.7c1.4-0.2,2.9-0.1,4.3,0.3c-0.9-2.4-0.9-5.1,0-7.5c0.5-1.3,1.4-2.6,2.8-2.6c0.8,0,1.5,0.5,2,1
				c1.5,1.6,1.8,4.1,1.9,6.3"/>
		</g>
		<g>
			<path class="st45" d="M451.5,160.6c0.1-0.2,1.2,0,1.4,0c0.6,0.1,1.1,0.1,1.7,0.2c2.9,0.4,6.3,1.4,7.5,4.3
				c0.2,0.4,0.3,0.8,0.2,1.3c-0.2,0.7-1,1-1.7,1.1c-1.2,0.1-2.5,0-3.7-0.1c-0.6-0.1-1.2-0.2-1.8-0.3c-0.4-0.1-1.1-0.1-1.5-0.4
				c1.4,1,2.8,2.2,3.4,3.7c0.7,1.6,0.5,3.7-0.9,4.7c-0.8,0.6-1.9,0.7-2.9,0.6c-2.3-0.3-5.3-2.4-6.4-4.4c0,0,1.7-4.2,2.3-5.5
				C449.6,164.5,451.5,160.6,451.5,160.6z"/>
		</g>
		<g>
			<path class="st45" d="M584.2,234.4c-1.3,1.1-5.1,2.5-6.8,2.7s-3.4-0.2-4.6-1.3c-0.3-0.3-0.5-0.6-0.6-1c-0.1-0.6,0.5-1.1,1-1.5
				c1.9-1.4,4-2.4,6.3-3c-1.7-0.1-3.5-0.4-4.9-1.4s-2.3-2.9-1.7-4.4c0.4-0.9,1.2-1.6,2.2-2c2.1-1,4.9-0.9,6.9,0.3l1.3,6.2
				L584.2,234.4z"/>
		</g>
		<g>
			<path class="st47" d="M472.9,143.5c1-0.5,2.2-0.3,2.9,0.5c0.8,0.8,1.1,2.2,0.8,3.5c-0.4,1.5-1.8,2.6-3.1,2.6s-2.6-0.8-3.5-2
				c-0.3-0.4-0.5-0.8-0.6-1.2c-0.2-0.7-0.1-1.5,0.2-2.1c0.3-0.7,0.9-1.1,1.5-1.4s1.3-0.4,1.9-0.4"/>
		</g>
		<g>
			<g>
				<path class="st45" d="M593.2,146.1c1.4-4.2,4.8-7.2,8.5-7.6c1.2-0.1,2.5,0.1,3.5,1c1.4,1.4,1.5,4,0.6,5.9s-2.6,3-4.4,3.5
					c-1.7,0.5-3.5,0.3-5.3,0.2c1.7,0.7,3.5,1.6,4.8,3.1s2.1,3.9,1.5,6c-0.5,1.7-1.7,2.9-3.1,3.5c-1.5,0.6-3.2,0.4-4.4-0.7
					c-2.1-1.9-2.1-5.7-1.9-8.9c-1,4-4.3,6.9-7.7,6.9c-0.7,0-1.5-0.1-2.1-0.6c-1.3-0.9-2-3-1.6-4.8s1.4-3.4,2.7-4.3
					c1.3-1,2.9-1.4,4.4-1.8c-1.9-1.3-2.5-4.5-2-7.2c0.3-1.6,0.9-3.1,2-4.1c1-1,2.6-1.4,3.7-0.6c1.5,0.9,2,3.3,2.1,5.3
					c0.1,1.8-0.1,3.7-0.5,5.4"/>
			</g>
			<g>
				<path class="st47" d="M593.4,144.2c0.4,0,0.9,0,1.3,0.2c2.1,0.7,3.1,3.3,2.6,5.3c-0.5,1.8-2.1,3.2-4,3.1
					c-0.7-0.1-1.5-0.4-2.1-0.8c-1.1-0.7-2.1-1.8-2.3-3c-0.3-1.2,0.1-2.5,0.8-3.4c0.6-0.7,1.4-1.1,2.3-1.3
					C592.4,144.3,592.9,144.2,593.4,144.2z"/>
			</g>
		</g>
		<g>
			<path class="st47" d="M562.4,201.4c-0.3,0.4-0.6,0.7-0.9,1c-0.6,0.4-1.3,0.4-1.9,0.4c-1.1-0.1-2.2-0.5-3-1.2
				c-1.3-1.1-1.9-3.1-1.2-4.8c0.5-1.2,1.6-2.2,2.9-2.4c1.3-0.2,2.5,0.3,3.4,1.2c0.9,0.9,1.7,1.8,1.8,3.2c0,0.7-0.1,1.3-0.5,1.9
				C562.7,201,562.5,201.2,562.4,201.4z"/>
		</g>
		<g>
			<path class="st47" d="M577,265.7c0.4,0.4,0.9,0.9,1.1,1.4c0.4,1.1-0.1,2.4-1,3s-2,0.7-3,0.6c-0.8-0.1-1.5-0.3-2.2-0.8
				c-1-0.8-1.4-2.3-1.1-3.6c0.3-1.2,1.4-2.2,2.6-2.2c0.9,0,1.8,0.3,2.6,0.8C576.3,265.2,576.6,265.4,577,265.7z"/>
		</g>
		<g>
			<path class="st45" d="M490.3,179.6c-0.5,0.2-1.1,0.6-1.4,1c-0.1-1.9-0.5-3.9-1.9-5.3c-0.5-0.6-1.2-1-2-1c-1.4,0-2.3,1.3-2.8,2.6
				c-0.9,2.4-0.9,5.1,0,7.5c-1.4-0.4-2.8-0.5-4.3-0.3c-1.2,0.1-2.5,0.6-3,1.7c-0.4,1-0.1,2.1,0.5,3c1,1.6,2.9,2.8,4.8,3
				s3.9-0.5,5.3-1.9c-0.2,1.2-0.6,2.4-0.7,3.6c-0.1,1.2,0.3,2.6,1.3,3.2c0.5,0.3,1.1,0.4,1.7,0.3l4-17.6
				C491.3,179.3,490.8,179.4,490.3,179.6z"/>
		</g>
		<g>
			<path class="st47" d="M489.6,188.7c-0.6,0.1-1.2,0.1-1.8,0.1c-0.8-0.1-1.5-0.3-2.2-0.8c-1-0.8-1.4-2.3-1.1-3.6
				c0.3-1.2,1.4-2.2,2.6-2.2c0.9,0,1.8,0.3,2.6,0.8c0.3,0.2,0.6,0.4,1,0.7"/>
		</g>
		<g>
			<g>
				<path class="st48" d="M575.5,181c-1.4-6-2.5-11.9-3.6-18c-0.2-1.3-2.1-0.7-1.9,0.5c1,6.1,2.2,12,3.6,18
					C573.9,182.8,575.8,182.3,575.5,181L575.5,181z"/>
			</g>
		</g>
		<g>
			<g>
				<path class="st48" d="M473.3,162c-2.7,11.9-5.4,23.8-8.3,35.7c-0.3,1.3,1.6,1.8,1.9,0.5c2.9-11.9,5.6-23.8,8.3-35.7
					C475.5,161.3,473.6,160.7,473.3,162L473.3,162z"/>
			</g>
		</g>
		<g>
			<g>
				<path id="SVGID_160_" class="st27" d="M372.2,129c-0.8-0.2-1.7-0.3-2.5-0.4c-5.7-0.6-11.5-1.2-17.2-1.8c-2.1-0.2-4.8-1-5-3.1
					c-0.1-1.3,0.9-2.4,2.1-2.9s2.5-0.5,3.8-0.4c14.5,0.3,28.9,0.7,43.4,1c0.7,0,1.4,0,1.9-0.4c0.8-0.5,0.9-1.6,1-2.5
					c0.5-4,2.5-7.9,5.4-10.7c0.4-0.4,0.8-0.7,1.3-0.8c1.1-0.2,2,1,2.1,2.2c0,1.1-0.5,2.2-0.8,3.3c-0.9,3.5,0.9,7,2.6,10.1
					c11,20.3,22.2,41.3,33.2,61.6c0,0,10.9,22.1,11.2,23c0.4,1-25.9,22.3-25.9,22.3l-5.7,4.6c0-0.1-0.5-1.4-0.5-1.5
					c-9.4-25.2-18.8-50.4-28.1-75.6c-1-2.6-4.4-1.8-6.6-1.8c-3-0.1-6.2-0.4-9.2-0.9c-1.9-0.3-4-1.3-4.5-3.2
					c-0.4-1.8,0.7-3.8-0.1-5.4c-0.5-1.1-1.7-1.9-1.9-3.1c-0.3-2.2,2.5-3.6,1.2-5.9c-0.3-0.5-0.7-0.9-1-1.4c-1.2-2.1-0.4-4.6,1.3-6.2
					C373.3,129,372.8,129,372.2,129z"/>
			</g>
			<g>
				<g>
					<defs>
						<path id="SVGID_37_" d="M372.2,129c-0.8-0.2-1.7-0.3-2.5-0.4c-5.7-0.6-11.5-1.2-17.2-1.8c-2.1-0.2-4.8-1-5-3.1
							c-0.1-1.3,0.9-2.4,2.1-2.9s2.5-0.5,3.8-0.4c14.5,0.3,28.9,0.7,43.4,1c0.7,0,1.4,0,1.9-0.4c0.8-0.5,0.9-1.6,1-2.5
							c0.5-4,2.5-7.9,5.4-10.7c0.4-0.4,0.8-0.7,1.3-0.8c1.1-0.2,2,1,2.1,2.2c0,1.1-0.5,2.2-0.8,3.3c-0.9,3.5,0.9,7,2.6,10.1
							c11,20.3,22.2,41.3,33.2,61.6c0,0,10.9,22.1,11.2,23c0.4,1-25.9,22.3-25.9,22.3l-5.7,4.6c0-0.1-0.5-1.4-0.5-1.5
							c-9.4-25.2-18.8-50.4-28.1-75.6c-1-2.6-4.4-1.8-6.6-1.8c-3-0.1-6.2-0.4-9.2-0.9c-1.9-0.3-4-1.3-4.5-3.2
							c-0.4-1.8,0.7-3.8-0.1-5.4c-0.5-1.1-1.7-1.9-1.9-3.1c-0.3-2.2,2.5-3.6,1.2-5.9c-0.3-0.5-0.7-0.9-1-1.4
							c-1.2-2.1-0.4-4.6,1.3-6.2C373.3,129,372.8,129,372.2,129z"/>
					</defs>
					<clipPath id="SVGID_38_">
						<use xlink:href="#SVGID_37_"  style="overflow:visible;"/>
					</clipPath>
					<g class="st49">
						<path class="st13" d="M391,133.7c-0.5,6.4-1,12.7-1.5,19.1c0,0.6-0.1,1.2,0,1.8c0.2,0.9,0.6,1.6,1,2.4c1.5,2.8,2.2,6,2.9,9
							c6,24.5,15.3,48.1,24.8,71.5c1.8,4.5,3.7,9,7.1,12.5c2.2,2.2,5,3.9,8.1,4.6c6.7,1.6,14.2-1.6,17.6-7.5
							c0.7-1.3,1.3-2.6,1.4-4.1c0.2-2.7-1.2-5.3-2.5-7.7c-14.5-25.9-28.9-52-39.9-79.6c-1.8-4.6-3.6-9.3-5.8-13.7
							c-2.6-5.2-6.8-10.5-12.6-10.5c-0.4,0-0.9,0.1-1.1,0.4s0.2,0.9,0.5,0.6"/>
					</g>
				</g>
			</g>
		</g>
		<g>
			<g>
				<path class="st23" d="M373.9,130c2.7,0.3,5.4,0.6,8,0.9c4,0.6,7.6,1,7.3,5.9c-0.3,5.7-1,11.3-1.5,17c-0.1,1.3,2,1.3,2.1,0
					c0.4-4.2,0.7-8.3,1.1-12.5c0.2-2.5,1.7-8.1-0.1-10.3c-1.3-1.6-4.2-1.5-6-1.8c-3.6-0.6-7.2-1-10.9-1.3
					C372.6,127.8,372.6,129.9,373.9,130L373.9,130z"/>
			</g>
		</g>
		<g>
			<g>
				<path class="st23" d="M390.1,137.9c-4.6-0.6-9.2-1.1-13.9-1.4c-1.3-0.1-1.3,1.9,0,2c4.5,0.3,8.9,0.7,13.4,1.3
					C390.9,140,391.4,138.1,390.1,137.9L390.1,137.9z"/>
			</g>
		</g>
		<g>
			<g>
				<path class="st23" d="M389.2,146.6c-4.3-0.5-8.7-1.3-13-1.2c-1.3,0-1.3,2,0,2c4.4-0.2,8.7,0.6,13,1.2
					C390.5,148.8,390.5,146.8,389.2,146.6L389.2,146.6z"/>
			</g>
		</g>
		<g>
			<g>
				<path class="st23" d="M392,133.7c1.4,6.3,6.4,10.2,11.4,13.7c1.1,0.7,2.1-1,1-1.7c-4.6-3.2-9.2-6.8-10.5-12.6
					C393.6,131.9,391.7,132.5,392,133.7L392,133.7z"/>
			</g>
		</g>
		<g>
			<g>
				<path class="st14" d="M520.3,255.8c-0.4,2.8-0.9,5.5-1.4,8.3c-0.2,1.3,1.7,1.8,1.9,0.5c0.5-2.8,0.9-5.5,1.4-8.3
					C522.5,255.1,520.5,254.6,520.3,255.8L520.3,255.8z"/>
			</g>
		</g>
		<g>
			<g>
				<path class="st23" d="M442.3,184c6,9.5,12.4,18.6,19,27.6c0.7,1,2.5,0,1.7-1c-6.6-9.1-13-18.2-19-27.6
					C443.3,181.9,441.6,183,442.3,184L442.3,184z"/>
			</g>
		</g>
		<g>
			<g>
				<g>
					<path class="st17" d="M534,163.2c0.4-0.7,0.4-1.4,0-2.2c-0.3-0.6-1-1.1-1.7-1.1c-1.3-0.2-2.4,0.7-2.7,1.9
						c-0.2,0.8-0.2,1.9,0.3,2.7c0.7,1.1,2.2,1.6,3.4,0.9c1-0.6,1.5-1.6,1.5-2.7c0-1-0.3-2.1-1.3-2.7c-1.2-0.6-2.6-0.1-3.3,1
						c-0.6,1-0.3,2.3,0.3,3.2c0.3,0.4,0.6,0.8,1.2,0.9c0.5,0.1,1.1,0.1,1.5-0.2c0.8-0.5,1.4-1.8,0.7-2.7l-0.3-0.4
						c0,0.1,0.1,0.1,0.1,0.2c0.1,1.3-0.4,1.5-1.6,0.6c-1.3-0.4-1.5-0.9-1.4-0.1c0,0.2,0,0.2,0,0.1c0-0.2,0-0.1,0,0
						c0.1-0.2,0.2-0.3,0.3-0.5c1.1-0.5,1.9-0.4,2.2,0.3c0.2,0.3,0.2,0.4,0.2,0.2c0,0.1,0,0.2,0,0.3v-0.4c0.1,0.2-0.2,0.6-0.3,0.8
						c-0.3,0.2-0.6,0.3-0.9,0.5c-0.1,0-0.2,0-0.3,0.1c-0.3-0.1-0.7-0.2-1-0.3c-0.2-0.2-0.3-0.4-0.5-0.5c-0.1-0.3-0.2-0.7-0.3-1v0.1
						c0.1-0.3,0.2-0.7,0.3-1v0.1c-0.5,0.9-0.3,2.2,0.7,2.7C532.2,164.4,533.5,164.2,534,163.2L534,163.2z"/>
				</g>
			</g>
			<g>
				<g>
					<path class="st17" d="M550,270.2c0.4-0.7,0.4-1.4,0-2.2c-0.3-0.6-1-1.1-1.7-1.1c-1.3-0.2-2.4,0.7-2.7,1.9
						c-0.2,0.8-0.2,1.9,0.3,2.7c0.7,1.1,2.2,1.6,3.4,0.9c1-0.6,1.5-1.6,1.5-2.7c0-1-0.3-2.1-1.3-2.7c-1.2-0.6-2.6-0.1-3.3,1
						c-0.6,1-0.3,2.3,0.3,3.2c0.3,0.4,0.6,0.8,1.2,0.9c0.5,0.1,1.1,0.1,1.5-0.2c0.8-0.5,1.4-1.8,0.7-2.7l-0.3-0.4
						c0,0.1,0.1,0.1,0.1,0.2c0.1,1.3-0.4,1.5-1.6,0.6c-1.3-0.4-1.5-0.9-1.4-0.1c0,0.2,0,0.2,0,0.1c0-0.2,0-0.1,0,0
						c0.1-0.2,0.2-0.3,0.3-0.5c1.1-0.5,1.9-0.4,2.2,0.3c0.2,0.3,0.2,0.4,0.2,0.2c0,0.1,0,0.2,0,0.3v-0.4c0.1,0.2-0.2,0.6-0.3,0.8
						c-0.3,0.2-0.6,0.3-0.9,0.5c-0.1,0-0.2,0-0.3,0.1c-0.3-0.1-0.7-0.2-1-0.3c-0.2-0.2-0.3-0.4-0.5-0.5c-0.1-0.3-0.2-0.7-0.3-1v0.1
						c0.1-0.3,0.2-0.7,0.3-1v0.1c-0.5,0.9-0.3,2.2,0.7,2.7C548.2,271.4,549.5,271.2,550,270.2L550,270.2z"/>
				</g>
			</g>
			<g>
				<g>
					<path class="st17" d="M534,183.5c-0.9,1.2-0.9,3.4,0.6,4.3c0.8,0.5,1.9,0.4,2.7-0.2c0.7-0.5,1-1.4,1-2.3c0-0.7-0.2-1.4-0.7-1.9
						c-0.6-0.7-1.7-0.9-2.5-0.5c-0.9,0.4-1.5,1.3-1.5,2.2c0,1,0.6,1.7,1.4,2.2c0.8,0.6,2.3,0.2,2.7-0.7c0.6-1.1,0.2-2.1-0.7-2.7
						c0.6,0.3,0.8,1,0.5,1.9c-0.2,0.2-0.5,0.5-0.7,0.7c-0.1,0-0.2,0.1-0.3,0.1c-0.4,0-0.7,0-1.1,0c-0.4-0.4-0.7-0.7-1.1-1.1
						c0-0.3,0-0.4,0-0.3c-0.1,1,0.8-1.1,1.4-1.1c0.3,0.1,0.7,0.2,1,0.3c0,0-0.1,0-0.1-0.1c0.2,0.2,0.5,0.5,0.7,0.7
						c0.1,0.1,0.1,0.3,0.1,0.4c0-0.2,0-0.2,0,0c0,0.1,0,0.2-0.1,0.3c0-0.1,0.1-0.2,0.2-0.3c0.6-0.8,0.2-2.3-0.7-2.7
						C535.7,182.3,534.7,182.6,534,183.5L534,183.5z"/>
				</g>
			</g>
			<g>
				<g>
					<path class="st17" d="M541.8,228.9c-0.9,1.2-0.9,3.4,0.6,4.3c0.8,0.5,1.9,0.4,2.7-0.2c0.7-0.5,1-1.4,1-2.3
						c0-0.7-0.2-1.4-0.7-1.9c-0.6-0.7-1.7-0.9-2.5-0.5c-0.9,0.4-1.5,1.3-1.5,2.2c0,1,0.6,1.7,1.4,2.2c0.8,0.6,2.3,0.2,2.7-0.7
						c0.6-1.1,0.2-2.1-0.7-2.7c0.6,0.3,0.8,1,0.5,1.9c-0.2,0.2-0.5,0.5-0.7,0.7c-0.1,0-0.2,0.1-0.3,0.1c-0.4,0-0.7,0-1.1,0
						c-0.4-0.4-0.7-0.7-1.1-1.1c0-0.3,0-0.4,0-0.3c-0.1,1,0.8-1.1,1.4-1.1c0.3,0.1,0.7,0.2,1,0.3c0,0-0.1,0-0.1-0.1
						c0.2,0.2,0.5,0.5,0.7,0.7c0.1,0.1,0.1,0.3,0.1,0.4c0-0.2,0-0.2,0,0c0,0.1,0,0.2-0.1,0.3c0-0.1,0.1-0.2,0.2-0.3
						c0.6-0.8,0.2-2.3-0.7-2.7C543.5,227.6,542.5,228,541.8,228.9L541.8,228.9z"/>
				</g>
			</g>
			<g>
				<g>
					<path class="st17" d="M541.6,206.6c-0.8-0.7-1.8-0.9-2.7-0.3c-0.6,0.4-1,1-1.1,1.7c-0.4,1.6,0.8,3.2,2.5,3.1
						c1.7,0,2.9-1.7,2.2-3.3c-0.6-1.5-2.7-2-3.9-0.8c-0.7,0.8-0.8,2.1,0,2.8c0.8,0.7,2.1,0.8,2.8,0c-1.9-2.8-1.9-3.5,0.1-2
						c0.4,0.9,0.1,1.6-0.9,2c-0.6-0.2-1.3-0.3-1.9-0.5c0,0,0,0,0.1,0.1c0.8,0.7,2,0.8,2.8,0C542.3,208.7,542.5,207.3,541.6,206.6
						L541.6,206.6z"/>
				</g>
			</g>
			<g>
				<g>
					<path class="st17" d="M547.9,250.4c-0.8-0.7-1.8-0.9-2.7-0.3c-0.6,0.4-1,1-1.1,1.7c-0.4,1.6,0.8,3.2,2.5,3.1
						c1.7,0,2.9-1.7,2.2-3.3c-0.6-1.5-2.7-2-3.9-0.8c-0.7,0.8-0.8,2.1,0,2.8c0.8,0.7,2.1,0.8,2.8,0c-1.9-2.8-1.9-3.5,0.1-2
						c0.4,0.9,0.1,1.6-0.9,2c-0.6-0.2-1.3-0.3-1.9-0.5c0,0,0,0,0.1,0.1c0.8,0.7,2,0.8,2.8,0C548.6,252.5,548.7,251.1,547.9,250.4
						L547.9,250.4z"/>
				</g>
			</g>
		</g>
		<g>
			<path class="st45" d="M480.5,225.9c0.3-0.5-0.2-1-0.6-1.3c-0.9-0.6-1.9-1.1-2.9-1.5c-1.8-0.7-4.1-0.9-5.4,0.5
				c-0.9,1-1,2.4-0.8,3.7c0.5,3,2.7,5.7,5.6,6.8c-1.9-1.1-4.1-1.7-6.3-1.5c-0.3,0-0.7,0.1-1,0.3c-0.5,0.4-0.4,1.1-0.2,1.7
				c1,3.1,5.1,4.9,8.2,4.2L480.5,225.9z"/>
		</g>
		<g>
			<g>
				<path class="st14" d="M537,40.5c-1.3-3.6-2.6-8.3,1-11.1c0.5-0.4,0-1.3-0.5-0.9c-4,3.1-2.9,8.1-1.5,12.2
					C536.3,41.4,537.3,41.2,537,40.5L537,40.5z"/>
			</g>
		</g>
		<g>
			<g>
				<path class="st14" d="M536.2,40.1c-1.3-3.6-1.9-7.2-1.8-11c0-0.6-1-0.6-1,0c-0.1,3.9,0.5,7.6,1.8,11.3
					C535.4,40.9,536.4,40.7,536.2,40.1L536.2,40.1z"/>
			</g>
		</g>
		<g>
			<g>
				<path class="st14" d="M509.9,38.5c4.3,5.6,10.8,8.1,17.7,8.8c0.6,0.1,0.6-0.9,0-1c-6.5-0.7-12.8-3-16.9-8.3
					C510.4,37.5,509.5,38,509.9,38.5L509.9,38.5z"/>
			</g>
		</g>
		<g>
			<g>
				<path class="st50" d="M524.3,25.6c-3.7,7.9,2.2,18.4,11,19.2c0.6,0.1,0.6-0.9,0-1c-8-0.8-13.5-10.5-10.1-17.7
					C525.4,25.5,524.5,25,524.3,25.6L524.3,25.6z"/>
			</g>
		</g>
		<g>
			<g>
				<path class="st50" d="M516.5,35.4c2.6,7.8,11,9.8,18.3,9.7c0.6,0,0.6-1,0-1c-6.8,0.1-14.9-1.6-17.4-8.9
					C517.3,34.5,516.3,34.8,516.5,35.4L516.5,35.4z"/>
			</g>
		</g>
		<g>
			<g>
				<path class="st22" d="M543.9,47.6c0-0.9,1-1.9,1.5-2.5c0.6-0.7,1.3-1.4,2.1-1.9c0.5-0.4,0-1.3-0.5-0.9c-1,0.8-1.9,1.6-2.7,2.6
					c-0.6,0.8-1.4,1.7-1.4,2.7C542.9,48.2,543.9,48.2,543.9,47.6L543.9,47.6z"/>
			</g>
		</g>
		<g>
			<g>
				<path class="st22" d="M544,48.6c1.9-1.3,4-2,6.3-2.2c0.6,0,0.6-1,0-1c-2.5,0.1-4.8,0.9-6.9,2.3C542.9,48.1,543.4,49,544,48.6
					L544,48.6z"/>
			</g>
		</g>
		<g>
			<g>
				<path class="st45" d="M445.2,176.6c7.4,4.1,14.6,8.6,22.1,12.5c0.6,0.3,1.1-0.6,0.5-0.9c-7.5-3.9-14.7-8.4-22.1-12.5
					C445.1,175.4,444.6,176.3,445.2,176.6L445.2,176.6z"/>
			</g>
		</g>
		<g>
			<path class="st47" d="M563.7,140.1c-0.5-1-1.2-1.8-2.1-2.3c-0.3-0.2-0.6-0.3-1-0.4c-0.6-0.1-1.3,0.3-1.6,0.9
				c-0.2,0.6,0,1.4,0.5,1.7c0.2,0.1,0.4,0.2,0.6,0.3c0.8,0.3,1.7,0.4,2.6,0.4c-0.7,0.3-1.4,0.7-2,1.2c-0.4,0.3-0.7,0.7-0.9,1.2
				c-0.2,0.7,0.2,1.5,0.9,1.8s1.5,0.1,2-0.5c0.2-0.3,0.4-0.6,0.5-0.9c0.2-0.6,0.4-1.3,0.4-1.9c0,0.5,0,1,0,1.5c0,0.2,0,0.5,0,0.7
				c0.1,0.6,0.6,1.2,1.2,1.3c0.6,0.1,1.3-0.2,1.6-0.8c0.2-0.6,0-1.2-0.4-1.7s-0.9-0.8-1.3-1.3c0.5,0.1,0.9,0.1,1.4,0.2
				c0.3,0,0.7,0.1,1,0s0.6-0.2,0.8-0.5c0.1-0.2,0.2-0.4,0.2-0.7c0.1-0.6-0.1-1.2-0.4-1.7c-0.1-0.2-0.3-0.4-0.5-0.4
				c-0.2-0.1-0.5,0-0.8,0.1c-0.8,0.3-1.5,0.9-2,1.6c0.2-0.6,0.4-1.2,0.3-1.8c0-0.6-0.3-1.3-0.9-1.5c-0.2-0.1-0.5-0.2-0.8-0.2
				c-0.1,0-0.3,0-0.4,0.1c-0.2,0.2-0.2,0.5-0.2,0.7c0,0.3,0.2,0.7,0.3,1c0.2,0.4,0.3,0.9,0.5,1.3"/>
		</g>
		<g>
			<path class="st47" d="M476.4,206.8c-0.5-1-1.2-1.8-2.1-2.3c-0.3-0.2-0.6-0.3-1-0.4c-0.6-0.1-1.3,0.3-1.6,0.9s0,1.4,0.5,1.7
				c0.2,0.1,0.4,0.2,0.6,0.3c0.8,0.3,1.7,0.4,2.6,0.4c-0.7,0.3-1.4,0.7-2,1.2c-0.4,0.3-0.7,0.7-0.9,1.2c-0.2,0.7,0.2,1.5,0.9,1.8
				s1.5,0.1,2-0.5c0.2-0.3,0.4-0.6,0.5-0.9c0.2-0.6,0.4-1.3,0.4-1.9c0,0.5,0,1,0,1.5c0,0.2,0,0.5,0,0.7c0.1,0.6,0.6,1.2,1.2,1.3
				c0.6,0.1,1.3-0.2,1.6-0.8c0.2-0.6,0-1.2-0.4-1.7s-0.9-0.8-1.3-1.3c0.5,0.1,0.9,0.1,1.4,0.2c0.3,0,0.7,0.1,1,0
				c0.3,0,0.6-0.2,0.8-0.5c0.1-0.2,0.2-0.4,0.2-0.7c0.1-0.6-0.1-1.2-0.4-1.7c-0.1-0.2-0.3-0.4-0.5-0.4c-0.2-0.1-0.5,0-0.8,0.1
				c-0.8,0.3-1.5,0.9-2,1.6c0.2-0.6,0.4-1.2,0.3-1.8c0-0.6-0.3-1.3-0.9-1.5c-0.2-0.1-0.5-0.2-0.8-0.2c-0.1,0-0.3,0-0.4,0.1
				c-0.2,0.2-0.2,0.5-0.2,0.7c0,0.3,0.2,0.7,0.3,1c0.2,0.4,0.3,0.9,0.5,1.3"/>
		</g>
		<g>
			<path class="st47" d="M564.1,244.3c-0.5-1-1.2-1.8-2.1-2.3c-0.3-0.2-0.6-0.3-1-0.4c-0.6-0.1-1.3,0.3-1.6,0.9
				c-0.2,0.6,0,1.4,0.5,1.7c0.2,0.1,0.4,0.2,0.6,0.3c0.8,0.3,1.7,0.4,2.6,0.4c-0.7,0.3-1.4,0.7-2,1.2c-0.4,0.3-0.7,0.7-0.9,1.2
				c-0.2,0.7,0.2,1.5,0.9,1.8s1.5,0.1,2-0.5c0.2-0.3,0.4-0.6,0.5-0.9c0.2-0.6,0.4-1.3,0.4-1.9c0,0.5,0,1,0,1.5c0,0.2,0,0.5,0,0.7
				c0.1,0.6,0.6,1.2,1.2,1.3c0.6,0.1,1.3-0.2,1.6-0.8c0.2-0.6,0-1.2-0.4-1.7s-0.9-0.8-1.3-1.3c0.5,0.1,0.9,0.1,1.4,0.2
				c0.3,0,0.7,0.1,1,0c0.3,0,0.6-0.2,0.8-0.5c0.1-0.2,0.2-0.4,0.2-0.7c0.1-0.6-0.1-1.2-0.4-1.7c-0.1-0.2-0.3-0.4-0.5-0.4
				c-0.2-0.1-0.5,0-0.8,0.1c-0.8,0.3-1.5,0.9-2,1.6c0.2-0.6,0.4-1.2,0.3-1.8c0-0.6-0.3-1.3-0.9-1.5c-0.2-0.1-0.5-0.2-0.8-0.2
				c-0.1,0-0.3,0-0.4,0.1c-0.2,0.2-0.2,0.5-0.2,0.7c0,0.3,0.2,0.7,0.3,1c0.2,0.4,0.3,0.9,0.5,1.3"/>
		</g>
		<g>
			<path class="st47" d="M551.1,170.3c-0.5-1-1.2-1.8-2.1-2.3c-0.3-0.2-0.6-0.3-1-0.4c-0.6-0.1-1.3,0.3-1.6,0.9
				c-0.2,0.6,0,1.4,0.5,1.7c0.2,0.1,0.4,0.2,0.6,0.3c0.8,0.3,1.7,0.4,2.6,0.4c-0.7,0.3-1.4,0.7-2,1.2c-0.4,0.3-0.7,0.7-0.9,1.2
				c-0.2,0.7,0.2,1.5,0.9,1.8s1.5,0.1,2-0.5c0.2-0.3,0.4-0.6,0.5-0.9c0.2-0.6,0.4-1.3,0.4-1.9c0,0.5,0,1,0,1.5c0,0.2,0,0.5,0,0.7
				c0.1,0.6,0.6,1.2,1.2,1.3c0.6,0.1,1.3-0.2,1.6-0.8c0.2-0.6,0-1.2-0.4-1.7s-0.9-0.8-1.3-1.3c0.5,0.1,0.9,0.1,1.4,0.2
				c0.3,0,0.7,0.1,1,0c0.3,0,0.6-0.2,0.8-0.5c0.1-0.2,0.2-0.4,0.2-0.7c0.1-0.6-0.1-1.2-0.4-1.7c-0.1-0.2-0.3-0.4-0.5-0.4
				c-0.2-0.1-0.5,0-0.8,0.1c-0.8,0.3-1.5,0.9-2,1.6c0.2-0.6,0.4-1.2,0.3-1.8c0-0.6-0.3-1.3-0.9-1.5c-0.2-0.1-0.5-0.2-0.8-0.2
				c-0.1,0-0.3,0-0.4,0.1c-0.2,0.2-0.2,0.5-0.2,0.7c0,0.3,0.2,0.7,0.3,1c0.2,0.4,0.3,0.9,0.5,1.3"/>
		</g>
		<g>
			<path class="st47" d="M463.1,256c-0.5-1-1.2-1.8-2.1-2.3c-0.3-0.2-0.6-0.3-1-0.4c-0.6-0.1-1.3,0.3-1.6,0.9
				c-0.2,0.6,0,1.4,0.5,1.7c0.2,0.1,0.4,0.2,0.6,0.3c0.8,0.3,1.7,0.4,2.6,0.4c-0.7,0.3-1.4,0.7-2,1.2c-0.4,0.3-0.7,0.7-0.9,1.2
				c-0.2,0.7,0.2,1.5,0.9,1.8s1.5,0.1,2-0.5c0.2-0.3,0.4-0.6,0.5-0.9c0.2-0.6,0.4-1.3,0.4-1.9c0,0.5,0,1,0,1.5c0,0.2,0,0.5,0,0.7
				c0.1,0.6,0.6,1.2,1.2,1.3c0.6,0.1,1.3-0.2,1.6-0.8c0.2-0.6,0-1.2-0.4-1.7s-0.9-0.8-1.3-1.3c0.5,0.1,0.9,0.1,1.4,0.2
				c0.3,0,0.7,0.1,1,0s0.6-0.2,0.8-0.5c0.1-0.2,0.2-0.4,0.2-0.7c0.1-0.6-0.1-1.2-0.4-1.7c-0.1-0.2-0.3-0.4-0.5-0.4
				c-0.2-0.1-0.5,0-0.8,0.1c-0.8,0.3-1.5,0.9-2,1.6c0.2-0.6,0.4-1.2,0.3-1.8c0-0.6-0.3-1.3-0.9-1.5c-0.2-0.1-0.5-0.2-0.8-0.2
				c-0.1,0-0.3,0-0.4,0.1c-0.2,0.2-0.2,0.5-0.2,0.7c0,0.3,0.2,0.7,0.3,1c0.2,0.4,0.3,0.9,0.5,1.3"/>
		</g>
		<g>
			<path class="st51" d="M494.7,254.4c0.7,0.3,1.1,1,0.9,1.9c-0.3,1.6-3,2.1-3.5,0.4c-0.2-0.6,0-1.3,0.5-1.7
				C493.1,254.4,494,254.1,494.7,254.4z"/>
		</g>
	</g>
	<g>
		<g class="st29">
			<path class="st22" d="M670.9,665.8c-2.6,0-5.3-0.1-7.9-0.1c-2.3-0.1-5.6,0.2-7.4-1.1c-1.1-0.8-1-2.1-0.2-3c2.3-2.6,7.3-3,11-3.4
				c10.9-1.3,22.3-0.7,32.6,2.2c1,0.3,2.2,0.7,2.3,1.6c0.1,0.8-1,1.4-2,1.8c-4,1.4-8.3,1.5-12.7,1.6c-4.6,0.2-9.2,0.4-13.7,0.4
				C672.3,665.8,671.6,665.8,670.9,665.8z"/>
		</g>
		<g>
			<g class="st29">
				<path class="st22" d="M715.9,659.9c-10.4-0.9-20.9,0-31.1,2.5c-2.9,0.7-5.9,1.7-7.8,3.9c-0.9,1-1.5,2.5-1,3.7
					c0.3,0.8,0.9,1.4,1.5,1.9c3.7,2.9,8.8,3.1,13.5,3.1c15.3,0.1,30.6-0.3,45.9-1.2c10.8-0.6,22.1-1.5,32.2,2.6
					c7.9,3.1,15.4,9.2,23.8,7.7c-4.7-11.4-16-19.1-27.9-22.5s-24.5-3.1-36.8-2.8"/>
			</g>
			<g>
				<path class="st15" d="M732.6,483.2c0.4-4.1,0.7-8.2,0.9-12.3c0.1-2.9,0.2-5.9-0.3-8.8c-0.1-0.4-0.2-0.9-0.6-1
					c-0.2-0.1-0.5-0.1-0.7,0c-1.3,0.4-2,1.7-2.5,2.9c-2.3,5-5,10.8-7.2,15.8L732.6,483.2z"/>
			</g>
			<g>
				<path class="st15" d="M752.3,636.2L752.3,636.2c4.4,0.8,8.8,1.6,12.9,3.3c2.2,0.9,4.3,2,6.4,3.1c3.7,2,7.5,4,10.8,6.7
					c13.2,10.4,18.2,28.3,30.4,39.9c0,0,3.1,2.1,2.9,3.4c-0.3,2-3.9,1.1-3.9,1.1c-9.9-1.7-19-7-26.6-13.7c-3-2.6-5.8-5.5-8.9-7.9
					c-6.1-4.8-12.4-7.5-19.9-8.8L752.3,636.2z"/>
			</g>
			<g>
				<path class="st15" d="M742,505.4L742,505.4l-0.2,1.5c0.2,13.4,0.4,26.9,0.5,40.3c0.3,22.2,1.7,43.4,3.2,65.6l0.9,0.5
					c1.9,1.6,3.9,3.3,5.3,5.3c1.2,1.8,1.9,3.9,2.5,6c3.4,12.2,2.3,38.7,2.3,38.7c-13.1,0.8-26.4,1.4-39.6,1.4
					c-2.5,0-5.2-0.1-7.3-1.4c-1.3-0.8-2.3-2.4-2.5-3.9h-0.9c0,0-11.8,3.9-12.7-15.1c-0.8-19.1-0.9-61.4-0.9-61.4
					c-3.8,3.4-13.5,13.3-17.4,16.6l-2.3,3.1c0,0-0.5,8.6-0.8,12.1c-0.2,3.5-1,7.1-3.3,9.8c-2.3,2.6-6.6,3.8-9.4,1.7
					c-3-2.2-3.1-6.5-2.9-10.2c0.2-4.7,0.4-9.4,0.7-14c0.1-1.8,0.2-3.7,1.1-5.2c0.7-1.2,1.7-2,2.7-2.9c10.7-9.2,31.7-31.6,31.7-31.6
					c4.5-18.2,7.8-30.1,13.5-48l0.2-1.2c0,0-18.2-13.1-20.4-16.6c-0.7-1.1-1.3-2.2-1.4-3.5c-0.1-1.2,0.3-2.4,0.7-3.6
					c0.8-2.2,1.7-4.4,2.8-6.4c0.2-0.4,0.5-0.9,0.9-1.2c0.5-0.3,1.2-0.2,1.8-0.1c4.6,0.7,9.1,1.9,13.5,3.4c0.9,0.3,1.8,0.6,2.7,0.6
					c2.5,0,4.3-2.4,6.3-3.9c3.4-2.6,8.1-3,12.2-2c4.1,1,7.9,3.2,11.4,5.5l1.4,0.9"/>
			</g>
			<g>
				<path class="st38" d="M726.6,539.7c0.3-0.2,0.7-0.3,1-0.4c1.3-0.3,2.3,0.6,3.1,1.6c2.2,2.9,2.2,6.9,1.7,10.6
					c-0.3,1.9-0.6,3.9-1.5,5.6s-2.3,3.3-4.2,3.9c-1.9,0.6-4.1,0.2-5.4-1.3c-1.1-1.3-1.3-3.1-1.3-4.7c0.1-5,2.1-10.7,5.5-14.4
					C725.9,540.2,726.2,539.9,726.6,539.7z"/>
			</g>
			<g>
				<path class="st38" d="M733.1,567.7C733.1,567.7,733.2,567.7,733.1,567.7c1.6,0.1,2.5,1.8,2.3,3.3c-0.3,1.9-1.3,3.3-3.4,3.3
					c-1.8,0-2.6-1.5-2.4-3.2c0.1-0.9,0.5-1.8,1.2-2.5C731.5,568,732.3,567.6,733.1,567.7z"/>
			</g>
			<g>
				<path class="st38" d="M785.3,651.7c-0.9,1.6-2.5,2.6-4.3,3.1s-3.7,0.5-5.6,0c-1.3-0.3-2.5-0.8-3.5-1.6c-1.3-1.1-2.1-2.9-2-4.6
					s1-3.4,2.4-4.4c0.5-0.3,1.2-0.7,1.7-0.4c0,0,3,1.6,5,2.8C780.9,647.9,785.3,651.7,785.3,651.7z"/>
			</g>
			<g>
				<path class="st38" d="M782.2,659.4c0.1,0,0.2,0,0.3,0.1c1.2,0.4,1.5,1.8,1.3,2.9c-0.1,1-0.5,2-1.2,2.6c-1.4,1.4-3.8,0.5-4.1-1.4
					c-0.2-1.5,0.7-3,1.9-3.8C780.9,659.5,781.6,659.3,782.2,659.4z"/>
			</g>
			<path class="st38" d="M736.4,484.4c-3.7,12-12.9,36.6-29.6,28.1c-0.9-0.5-1.7,0.9-0.8,1.4c18,9.1,27.9-15.9,31.9-29.1
				C738.2,483.9,736.7,483.5,736.4,484.4L736.4,484.4z"/>
			<g>
				<g>
					<path id="SVGID_162_" class="st22" d="M731.4,473.6c-2.4,2.1-6.7,5.8-6.7,5.8c7.2,1.5,11.6,6.4,12.7,7.3
						c1.5,1.2,3.6,2.4,4.6,4.1c0,0,0.9-5.5,1.4-8.4c1.1-6.1,2.8-13.5,3.5-19.8c0.1-0.6-0.6-1-1.1-0.6
						C742.7,464.4,734.9,470.6,731.4,473.6z"/>
				</g>
				<g>
					<g>
						<defs>
							<path id="SVGID_39_" d="M731.4,473.6c-2.4,2.1-6.7,5.8-6.7,5.8c7.2,1.5,11.6,6.4,12.7,7.3c1.5,1.2,3.6,2.4,4.6,4.1
								c0,0,0.9-5.5,1.4-8.4c1.1-6.1,2.8-13.5,3.5-19.8c0.1-0.6-0.6-1-1.1-0.6C742.7,464.4,734.9,470.6,731.4,473.6z"/>
						</defs>
						<clipPath id="SVGID_40_">
							<use xlink:href="#SVGID_39_"  style="overflow:visible;"/>
						</clipPath>
						<g class="st52">
							<path class="st53" d="M719,475.1c9.4,3.3,18.9,6.3,28.4,9l-0.7-3.4c-8-2.5-16-5.1-23.9-8L719,475.1z"/>
						</g>
					</g>
				</g>
				<g>
					<g>
						<defs>
							<path id="SVGID_41_" d="M731.4,473.6c-2.4,2.1-6.7,5.8-6.7,5.8c7.2,1.5,11.6,6.4,12.7,7.3c1.5,1.2,3.6,2.4,4.6,4.1
								c0,0,0.9-5.5,1.4-8.4c1.1-6.1,2.8-13.5,3.5-19.8c0.1-0.6-0.6-1-1.1-0.6C742.7,464.4,734.9,470.6,731.4,473.6z"/>
						</defs>
						<clipPath id="SVGID_42_">
							<use xlink:href="#SVGID_41_"  style="overflow:visible;"/>
						</clipPath>
						<g class="st54">
							<path class="st53" d="M722.8,469.7c9.4,3.3,18.9,6.3,28.4,9l-0.7-3.4c-8-2.5-16-5.1-23.9-8L722.8,469.7z"/>
						</g>
					</g>
				</g>
				<g>
					<g>
						<defs>
							<path id="SVGID_43_" d="M731.4,473.6c-2.4,2.1-6.7,5.8-6.7,5.8c7.2,1.5,11.6,6.4,12.7,7.3c1.5,1.2,3.6,2.4,4.6,4.1
								c0,0,0.9-5.5,1.4-8.4c1.1-6.1,2.8-13.5,3.5-19.8c0.1-0.6-0.6-1-1.1-0.6C742.7,464.4,734.9,470.6,731.4,473.6z"/>
						</defs>
						<clipPath id="SVGID_44_">
							<use xlink:href="#SVGID_43_"  style="overflow:visible;"/>
						</clipPath>
						<g class="st55">
							<path class="st53" d="M733.3,465.9c6.2,2.3,12.5,4.4,18.8,6.2l-0.2-3c-5.3-1.7-10.5-3.5-15.7-5.4L733.3,465.9z"/>
						</g>
					</g>
				</g>
				<g>
					<g>
						<defs>
							<path id="SVGID_45_" d="M731.4,473.6c-2.4,2.1-6.7,5.8-6.7,5.8c7.2,1.5,11.6,6.4,12.7,7.3c1.5,1.2,3.6,2.4,4.6,4.1
								c0,0,0.9-5.5,1.4-8.4c1.1-6.1,2.8-13.5,3.5-19.8c0.1-0.6-0.6-1-1.1-0.6C742.7,464.4,734.9,470.6,731.4,473.6z"/>
						</defs>
						<clipPath id="SVGID_46_">
							<use xlink:href="#SVGID_45_"  style="overflow:visible;"/>
						</clipPath>
						<path class="st56" d="M747.8,459.2l-15,30c0,0,8.1,13.4,8.7,12.9s9-44.1,9-44.1L747.8,459.2z"/>
					</g>
				</g>
			</g>
			<g>
				<path class="st15" d="M742,505.4c2.5-4.4,4.6-9.4,7.1-13.8c3.1-5.5,6.2-11.1,8-17.1c0.1-0.5,0.2-1.1-0.2-1.3
					c-0.3-0.2-0.6-0.1-0.9,0c-4.5,1.5-8.2,4.8-11.7,7.9c-2.1,1.9-3.6,3-5.7,4.9l-1.1,0.7L742,505.4z"/>
			</g>
			<g>
				<path class="st15" d="M713.9,574.9c-1.4,11.3-2.8,22.6-4.2,33.9c-2.3,18.7-4.6,37.5-9.2,55.7l-10,0.1c-3.5,0.1-7.1,0-10.6-0.3
					c-0.3,0-0.7-0.1-1-0.3c-0.2-0.2-0.4-0.5-0.4-0.7c-0.5-1.7,0-3.7,1.2-4.9c1.3-1.2,3.2-1.7,4.6-2.9l1-1.2
					c6.9-23.8,12.6-46.4,17.3-70.4"/>
			</g>
			<g>
				<path class="st38" d="M734.4,607.5c-10,1.1-18.3,6.4-22.1,15.9c-4.1,10.1-2.4,21,0.5,31.1c0.3,1,1.8,0.6,1.6-0.4
					c-2.5-8.9-4.1-18.2-1.5-27.3c3-10.2,11.1-16.5,21.6-17.7C735.4,609,735.4,607.4,734.4,607.5L734.4,607.5z"/>
				<path class="st38" d="M707.9,659.4c-0.1-4.7,5.4-4,8.7-4.1c2.3-0.1,4.6-0.1,6.9-0.2c1,0,1-1.6,0-1.6c-3.5,0.1-7,0.3-10.5,0.2
					c-3.7,0-6.9,1.3-6.8,5.6C706.3,660.4,707.9,660.4,707.9,659.4L707.9,659.4z"/>
				<path class="st38" d="M685.3,591.1c4.7-4.3,9.5-8.6,14.2-12.9c0.8-0.7-0.4-1.8-1.1-1.1c-4.7,4.3-9.5,8.6-14.2,12.9
					C683.3,590.6,684.5,591.8,685.3,591.1L685.3,591.1z"/>
				<path class="st38" d="M658.7,618.5c0.1,2.4,0.2,4.7,0.4,7.1c0.1,1,1.7,1,1.6,0c-0.2-2.3-0.3-4.7-0.4-7.1
					C660.2,617.5,658.6,617.4,658.7,618.5L658.7,618.5z"/>
				<path class="st38" d="M662.4,618.8c0,2.6-0.2,5.2-0.1,7.8c0,1,1.6,1,1.6,0c-0.1-2.6,0.1-5.2,0.1-7.8
					C664,617.7,662.4,617.7,662.4,618.8L662.4,618.8z"/>
				<path class="st38" d="M666,618.6c0,2.2,0,4.3,0,6.5c0,1,1.6,1,1.6,0c0-0.1,0-0.2,0-0.2c0-1-1.6-1-1.6,0c0,0.1,0,0.2,0,0.2
					c0.5,0,1.1,0,1.6,0c0-2.2,0-4.3,0-6.5C667.6,617.6,666,617.6,666,618.6L666,618.6z"/>
				<path class="st38" d="M713,574.9c-1.8,14.6-3.6,29.2-5.4,43.7c-1,7.8-2,15.5-3.3,23.2c-0.6,3.5-1.2,7-1.9,10.5
					c-0.7,3.3-1,7.3-2.3,10.4c-1.5,3.5,0.9,0.3,0.1,0.9c-0.1,0.1-0.5,0-0.6,0c-0.5,0.2-1.6,0-2.2,0c-1.8,0-3.7,0-5.5,0.1
					c-3.1,0-6.4,0.4-9.5,0.1c-2.1-0.2-3.8-0.8-2.8-3.3c0.9-2.3,2.3-2.4,4.1-3.7c0.9-0.6,1.7-1.3,2.2-2.3c1.6-3,2.1-7.3,3-10.6
					c1-3.7,2-7.5,3-11.2c4.3-16.1,8-32.3,11.3-48.6c0.2-1-1.4-1.4-1.6-0.4c-2.6,13.1-5.5,26.1-8.8,39c-1.6,6.5-3.3,12.9-5.1,19.4
					c-0.8,3-1.7,6-2.5,9c-1,3.5-1.7,3.8-4.7,5.7c-2.1,1.3-4.3,4.5-2.9,7.1c1.2,2.2,4.8,1.6,6.8,1.6c5.3-0.1,10.6-0.1,15.9-0.2
					c0.3,0,0.7-0.2,0.8-0.6c7.2-29.4,9.7-59.9,13.4-89.8C714.8,573.9,713.2,573.9,713,574.9L713,574.9z"/>
			</g>
			<path class="st57" d="M722.2,487.7c-0.5,0.5-0.9,1-1.2,1.6c-0.2,0.5-0.5,1.3-0.2,1.9c0.8,1.3,2.5-0.1,3.1-0.9
				c0.6-0.8,1.4-2.8,0.2-3.4c-1.2-0.7-2.5,1.3-2.9,2.1c-0.3,0.6-0.6,1.3-0.3,1.9c0.3,0.6,0.9,0.8,1.5,0.6c1.1-0.4,2.2-2,2.4-3.2
				c0.1-0.6-0.2-1.3-0.8-1.5C723.3,486.8,722.7,487.2,722.2,487.7c-0.7,0.7-1.8,2.5-1,3.4c1.2,1.4,2.7-0.9,3.1-1.8
				c0.2-0.6,0.4-1.5-0.4-1.8c-0.7-0.2-1.5,0.3-1.9,0.7c-0.7,0.8,0.4,1.9,1.1,1.1c0.1-0.1,0.4-0.3,0.3-0.3c-0.2-0.1-0.3-0.2-0.5-0.4
				c-0.2-0.4-0.2,0.1-0.2,0.2c-0.1,0.2-0.2,0.4-0.3,0.6c-0.1,0.1-0.4,0.4-0.4,0.5c0.3,0.5,0.5,0.5,0.6,0.3c0-0.1,0-0.2,0.1-0.3
				c0.1-0.3,0.3-0.7,0.6-1c0.1-0.1,0.3-0.2,0.4-0.4c0.2-0.1,0.2-0.2-0.2-0.2c-0.2-0.3-0.3-0.2-0.3,0c-0.1,0.1-0.2,0.4-0.3,0.6
				c-0.1,0.2-0.2,0.4-0.4,0.5c-0.1,0.1-0.4,0.3-0.4,0.5L722,490c0.3,0.5,0.5,0.6,0.5,0.2c0.2-0.3,0.3-0.7,0.5-1
				c0.1-0.1,0.6-0.8,0.8-0.8c-0.2-0.1-0.4-0.2-0.6-0.2c-0.1-0.2-0.1-0.2-0.1,0.1c0,0.1,0,0.2-0.1,0.3c0,0.2-0.1,0.3-0.2,0.5
				c-0.2,0.3-0.4,0.6-0.8,0.9c-0.1,0.1-0.2,0.1-0.2,0.1c-0.3,0.1-0.2,0.3,0.5,0.5c0.1-0.1,0.1-0.5,0.2-0.6c0.2-0.4,0.5-0.8,0.9-1.1
				C724.1,488.2,723,487.1,722.2,487.7L722.2,487.7z"/>
			<path class="st57" d="M715,484.1c-0.5,0.5-0.9,1-1.2,1.6c-0.2,0.5-0.5,1.3-0.2,1.9c0.8,1.3,2.5-0.1,3.1-0.9
				c0.6-0.8,1.4-2.8,0.2-3.4c-1.2-0.7-2.5,1.3-2.9,2.1c-0.3,0.6-0.6,1.3-0.3,1.9c0.3,0.6,0.9,0.8,1.5,0.6c1.1-0.4,2.2-2,2.4-3.2
				c0.1-0.6-0.2-1.3-0.8-1.5C716.1,483.1,715.5,483.6,715,484.1c-0.7,0.7-1.8,2.5-1,3.4c1.2,1.4,2.7-0.9,3.1-1.8
				c0.2-0.6,0.4-1.5-0.4-1.8c-0.7-0.2-1.5,0.3-1.9,0.7c-0.7,0.8,0.4,1.9,1.1,1.1c0.1-0.1,0.4-0.3,0.3-0.3c-0.2-0.1-0.3-0.2-0.5-0.4
				c-0.2-0.4-0.2,0.1-0.2,0.2c-0.1,0.2-0.2,0.4-0.3,0.6c-0.1,0.1-0.4,0.4-0.4,0.5c0.3,0.5,0.5,0.5,0.6,0.3c0-0.1,0-0.2,0.1-0.3
				c0.1-0.3,0.3-0.7,0.6-1c0.1-0.1,0.3-0.2,0.4-0.4c0.2-0.1,0.2-0.2-0.2-0.2c-0.2-0.3-0.3-0.2-0.3,0c-0.1,0.1-0.2,0.4-0.3,0.6
				c-0.1,0.2-0.2,0.4-0.4,0.5c-0.1,0.1-0.4,0.3-0.4,0.5l-0.1,0.1c0.3,0.5,0.5,0.6,0.5,0.2c0.2-0.3,0.3-0.7,0.5-1
				c0.1-0.1,0.6-0.8,0.8-0.8c-0.2-0.1-0.4-0.2-0.6-0.2c-0.1-0.2-0.1-0.2-0.1,0.1c0,0.1,0,0.2-0.1,0.3c0,0.2-0.1,0.3-0.2,0.5
				c-0.2,0.3-0.4,0.6-0.8,0.9c-0.1,0.1-0.2,0.1-0.2,0.1c-0.3,0.1-0.2,0.3,0.5,0.5c0.1-0.1,0.1-0.5,0.2-0.6c0.2-0.4,0.5-0.8,0.9-1.1
				C716.9,484.6,715.8,483.4,715,484.1L715,484.1z"/>
			<path class="st57" d="M709.8,508.4c1.1,0.3,2.1,0.7,3.1,1.2c0.9,0.5,1.7-0.9,0.8-1.4c-1.1-0.5-2.3-1-3.5-1.3
				C709.2,506.6,708.8,508.1,709.8,508.4L709.8,508.4z"/>
			<g>
				<path class="st57" d="M692.3,492.1c0.5,0,0.9,0.1,1.3-0.1c0.8-0.3,1.4-1.1,1.8-1.8c1.1-2,3.2-7.1,2.9-7.1c0,0-5.9-2.8-8.3-2.2
					c-2.4,0.6-5.1,7.7-4.6,8.2C685.9,489.5,689.8,491.9,692.3,492.1z"/>
			</g>
		</g>
	</g>
</g>
<g id="Layer_8" class="st58">
</g>
</svg>
