<svg width="400" height="350" viewBox="0 0 400 350" fill="none" xmlns="http://www.w3.org/2000/svg">
<g clip-path="url(#clip0)">
<path d="M-131 0H828.37V350H-131V0Z" fill="#C8EAFB"/>
<path d="M298.016 308.738C302.062 308.738 302.062 313.298 306.111 313.298C310.158 313.298 310.158 308.738 314.206 308.738C318.258 308.738 318.258 313.298 322.31 313.298C326.363 313.298 326.363 308.738 330.417 308.738C334.472 308.738 334.472 313.298 338.527 313.298" stroke="#A4BBD6"/>
<path d="M71.5615 333.568C75.61 333.568 75.61 338.128 79.6568 338.128C83.7037 338.128 83.7037 333.568 87.7521 333.568C91.8039 333.568 91.8039 338.128 95.8557 338.128C99.9091 338.128 99.9091 333.568 103.964 333.568C108.018 333.568 108.018 338.128 112.073 338.128" stroke="#A4BBD6"/>
<path fill-rule="evenodd" clip-rule="evenodd" d="M-66.8906 311.018H9.0051V152.375H-66.8906V311.018Z" fill="#E3EAED"/>
<path fill-rule="evenodd" clip-rule="evenodd" d="M-58.1387 155.54H0.447174V141.227H-58.1387V155.54Z" fill="#E3EAED"/>
<path fill-rule="evenodd" clip-rule="evenodd" d="M190.968 99.2637V300.149H206.842V114.725L190.968 99.2637Z" fill="#0B2146"/>
<path fill-rule="evenodd" clip-rule="evenodd" d="M-58.1387 304.859H0.447174V155.539H-58.1387V304.859Z" fill="#C8EAFB"/>
<path fill-rule="evenodd" clip-rule="evenodd" d="M-66.8906 161.613H9.0051V152.375H-66.8906V161.613Z" fill="#A4BBD6"/>
<path fill-rule="evenodd" clip-rule="evenodd" d="M-66.8906 175.448H9.0051V166.208H-66.8906V175.448Z" fill="#A4BBD6"/>
<path fill-rule="evenodd" clip-rule="evenodd" d="M-66.8906 189.284H9.0051V180.044H-66.8906V189.284Z" fill="#A4BBD6"/>
<path fill-rule="evenodd" clip-rule="evenodd" d="M-66.8906 203.141H9.0051V193.901H-66.8906V203.141Z" fill="#A4BBD6"/>
<path fill-rule="evenodd" clip-rule="evenodd" d="M-66.8906 217.019H9.0051V207.779H-66.8906V217.019Z" fill="#A4BBD6"/>
<path fill-rule="evenodd" clip-rule="evenodd" d="M-66.8906 230.877H9.0051V221.638H-66.8906V230.877Z" fill="#A4BBD6"/>
<path fill-rule="evenodd" clip-rule="evenodd" d="M-66.8906 244.712H9.0051V235.473H-66.8906V244.712Z" fill="#A4BBD6"/>
<path fill-rule="evenodd" clip-rule="evenodd" d="M-66.8906 258.571H9.0051V249.331H-66.8906V258.571Z" fill="#A4BBD6"/>
<path fill-rule="evenodd" clip-rule="evenodd" d="M-66.8906 272.447H9.0051V263.207H-66.8906V272.447Z" fill="#A4BBD6"/>
<path fill-rule="evenodd" clip-rule="evenodd" d="M452.448 250.234V286.888C419.661 255.58 391.951 229.216 350.527 208.089C304.306 184.537 262.321 202.55 214.732 237.053C213.99 236.86 213.232 236.698 212.473 236.539C209.259 235.865 205.946 235.527 202.534 235.527C200.556 235.527 198.61 235.638 196.698 235.881C252.876 200.527 299.46 178.404 352.456 200.351C381.847 212.537 429.238 249.222 452.448 250.234Z" fill="#A4BBD6"/>
<path fill-rule="evenodd" clip-rule="evenodd" d="M511.843 215.972V287.755H194.345V259.418H252.451V274.027H264.6V264.01H301.359V274.027H304.854V266.722H318.272V274.027H398.779V270.898L414.406 262.485V274.027H477.046V191.12H481.875V198.859L511.843 215.972Z" fill="#A4BBD6"/>
<path fill-rule="evenodd" clip-rule="evenodd" d="M452.447 235.383V250.234C429.237 249.222 381.846 212.536 352.455 200.351C299.459 178.403 252.875 200.527 196.697 235.88C194.752 236.104 192.84 236.441 190.961 236.906V224.562C253.271 190.876 298.75 171.675 352.455 193.912C381.846 206.082 429.237 234.387 452.447 235.383Z" fill="#E3EAED"/>
<path fill-rule="evenodd" clip-rule="evenodd" d="M60.698 300.143H16.056L14.8955 202.217L60.4227 185.113L60.698 300.143Z" fill="#A4BBD6"/>
<path fill-rule="evenodd" clip-rule="evenodd" d="M55.3047 300.143H119.119V144.46H55.3047V300.143Z" fill="#A4BBD6"/>
<path fill-rule="evenodd" clip-rule="evenodd" d="M190.96 136.328V274.175C190.96 274.175 190.977 274.175 190.96 274.193V300.149H136.382V136.328H190.96Z" fill="#E3EAED"/>
<path fill-rule="evenodd" clip-rule="evenodd" d="M149.027 138.517H190.968V109.664H149.027V138.517Z" fill="#E3EAED"/>
<path fill-rule="evenodd" clip-rule="evenodd" d="M157.077 110.724H190.968V99.2627H157.077V110.724Z" fill="#E3EAED"/>
<path fill-rule="evenodd" clip-rule="evenodd" d="M26.8574 300.142H37.4517V92.9033H26.8574V300.142Z" fill="#0B2146"/>
<path fill-rule="evenodd" clip-rule="evenodd" d="M47.0879 98.8115L44.7472 115.621H19.5596L17.2354 98.8115H47.0879Z" fill="#A4BBD6"/>
<path fill-rule="evenodd" clip-rule="evenodd" d="M49.413 82.001L47.0888 98.8122H17.2362L14.8955 82.001H49.413Z" fill="#E3EAED"/>
<path fill-rule="evenodd" clip-rule="evenodd" d="M24.6543 61.9619H39.6564L42.4405 81.997H21.8701L24.6543 61.9619Z" fill="#A4BBD6"/>
<path d="M32.1553 34.1338V61.962" stroke="#A4BBD6"/>
<path fill-rule="evenodd" clip-rule="evenodd" d="M205.883 259.422H588.813V250.233H205.883V259.422Z" fill="#0B2146"/>
<path d="M398.779 215.973V250.234V259.418" stroke="#0B2146"/>
<path d="M385.36 209.39V250.234V259.417" stroke="#0B2146"/>
<path d="M371.942 202.808V250.234V259.418" stroke="#0B2146"/>
<path d="M358.525 196.529V250.233V259.417" stroke="#0B2146"/>
<path d="M345.106 191.119V250.234V259.417" stroke="#0B2146"/>
<path d="M331.689 187.233V250.233V259.417" stroke="#0B2146"/>
<path d="M318.271 185.003V250.235V259.418" stroke="#0B2146"/>
<path d="M304.854 179.793V250.234V259.418" stroke="#0B2146"/>
<path d="M291.436 185.258V250.234V259.416" stroke="#0B2146"/>
<path d="M278.017 187.571V250.234V259.418" stroke="#0B2146"/>
<path d="M264.599 191.104V250.234V259.418" stroke="#0B2146"/>
<path d="M251.181 195.711V250.234V259.417" stroke="#0B2146"/>
<path d="M237.763 201.202V250.234V259.418" stroke="#0B2146"/>
<path d="M224.345 207.352V250.235V259.418" stroke="#0B2146"/>
<path d="M210.927 214.03V250.234V259.418" stroke="#0B2146"/>
<path d="M190.961 224.562C190.4 224.867 189.84 225.172 189.263 225.477" stroke="#BEE0F1"/>
<path d="M196.697 235.88C195.411 236.683 194.126 237.501 192.84 238.322" stroke="#BEE0F1"/>
<path d="M214.731 237.053C214.385 237.292 214.055 237.55 213.709 237.791" stroke="#BEE0F1"/>
<path fill-rule="evenodd" clip-rule="evenodd" d="M96.6348 153.7H111.892V151.5H96.6348V153.7Z" fill="#C8EAFB"/>
<path fill-rule="evenodd" clip-rule="evenodd" d="M79.583 153.7H94.8406V151.5H79.583V153.7Z" fill="#C8EAFB"/>
<path fill-rule="evenodd" clip-rule="evenodd" d="M62.5049 153.7H77.7625V151.5H62.5049V153.7Z" fill="#C8EAFB"/>
<path fill-rule="evenodd" clip-rule="evenodd" d="M96.6348 158.097H111.892V155.897H96.6348V158.097Z" fill="#C8EAFB"/>
<path fill-rule="evenodd" clip-rule="evenodd" d="M79.583 158.097H94.8406V155.897H79.583V158.097Z" fill="white"/>
<path fill-rule="evenodd" clip-rule="evenodd" d="M62.5049 158.097H77.7625V155.897H62.5049V158.097Z" fill="#C8EAFB"/>
<path fill-rule="evenodd" clip-rule="evenodd" d="M96.6348 162.494H111.892V160.296H96.6348V162.494Z" fill="#C8EAFB"/>
<path fill-rule="evenodd" clip-rule="evenodd" d="M79.583 162.494H94.8406V160.296H79.583V162.494Z" fill="white"/>
<path fill-rule="evenodd" clip-rule="evenodd" d="M62.5049 162.494H77.7625V160.296H62.5049V162.494Z" fill="#C8EAFB"/>
<path fill-rule="evenodd" clip-rule="evenodd" d="M96.6348 166.893H111.892V164.693H96.6348V166.893Z" fill="#C8EAFB"/>
<path fill-rule="evenodd" clip-rule="evenodd" d="M79.583 166.893H94.8406V164.693H79.583V166.893Z" fill="#C8EAFB"/>
<path fill-rule="evenodd" clip-rule="evenodd" d="M62.5049 166.893H77.7625V164.693H62.5049V166.893Z" fill="#C8EAFB"/>
<path fill-rule="evenodd" clip-rule="evenodd" d="M96.6348 171.354H111.892V169.154H96.6348V171.354Z" fill="#C8EAFB"/>
<path fill-rule="evenodd" clip-rule="evenodd" d="M79.583 171.354H94.8406V169.154H79.583V171.354Z" fill="#C8EAFB"/>
<path fill-rule="evenodd" clip-rule="evenodd" d="M62.5049 171.354H77.7625V169.154H62.5049V171.354Z" fill="white"/>
<path fill-rule="evenodd" clip-rule="evenodd" d="M96.6348 175.751H111.892V173.552H96.6348V175.751Z" fill="#C8EAFB"/>
<path fill-rule="evenodd" clip-rule="evenodd" d="M79.583 175.751H94.8406V173.552H79.583V175.751Z" fill="#C8EAFB"/>
<path fill-rule="evenodd" clip-rule="evenodd" d="M62.5049 175.751H77.7625V173.552H62.5049V175.751Z" fill="#C8EAFB"/>
<path fill-rule="evenodd" clip-rule="evenodd" d="M96.6348 180.149H111.892V177.949H96.6348V180.149Z" fill="white"/>
<path fill-rule="evenodd" clip-rule="evenodd" d="M79.583 180.149H94.8406V177.949H79.583V180.149Z" fill="#C8EAFB"/>
<path fill-rule="evenodd" clip-rule="evenodd" d="M62.5049 180.149H77.7625V177.949H62.5049V180.149Z" fill="#C8EAFB"/>
<path fill-rule="evenodd" clip-rule="evenodd" d="M96.6348 184.546H111.892V182.348H96.6348V184.546Z" fill="#C8EAFB"/>
<path fill-rule="evenodd" clip-rule="evenodd" d="M79.583 184.546H94.8406V182.348H79.583V184.546Z" fill="#C8EAFB"/>
<path fill-rule="evenodd" clip-rule="evenodd" d="M62.5049 184.546H77.7625V182.348H62.5049V184.546Z" fill="white"/>
<path fill-rule="evenodd" clip-rule="evenodd" d="M96.6348 188.947H111.892V186.747H96.6348V188.947Z" fill="#C8EAFB"/>
<path fill-rule="evenodd" clip-rule="evenodd" d="M79.583 188.947H94.8406V186.747H79.583V188.947Z" fill="#C8EAFB"/>
<path fill-rule="evenodd" clip-rule="evenodd" d="M62.5049 188.947H77.7625V186.747H62.5049V188.947Z" fill="#C8EAFB"/>
<path fill-rule="evenodd" clip-rule="evenodd" d="M96.6348 193.344H111.892V191.145H96.6348V193.344Z" fill="white"/>
<path fill-rule="evenodd" clip-rule="evenodd" d="M79.583 193.344H94.8406V191.145H79.583V193.344Z" fill="#C8EAFB"/>
<path fill-rule="evenodd" clip-rule="evenodd" d="M62.5049 193.344H77.7625V191.145H62.5049V193.344Z" fill="#C8EAFB"/>
<path fill-rule="evenodd" clip-rule="evenodd" d="M96.6348 197.742H111.892V195.542H96.6348V197.742Z" fill="#C8EAFB"/>
<path fill-rule="evenodd" clip-rule="evenodd" d="M79.3115 197.742H94.5692V195.542H79.3115V197.742Z" fill="#C8EAFB"/>
<path fill-rule="evenodd" clip-rule="evenodd" d="M62.5049 197.742H77.7625V195.542H62.5049V197.742Z" fill="#C8EAFB"/>
<path fill-rule="evenodd" clip-rule="evenodd" d="M96.6348 202.139H111.892V199.941H96.6348V202.139Z" fill="#C8EAFB"/>
<path fill-rule="evenodd" clip-rule="evenodd" d="M96.6348 206.539H111.892V204.34H96.6348V206.539Z" fill="#C8EAFB"/>
<path fill-rule="evenodd" clip-rule="evenodd" d="M96.6348 210.937H111.892V208.737H96.6348V210.937Z" fill="#C8EAFB"/>
<path fill-rule="evenodd" clip-rule="evenodd" d="M79.3115 202.139H94.5692V199.941H79.3115V202.139Z" fill="#C8EAFB"/>
<path fill-rule="evenodd" clip-rule="evenodd" d="M62.5049 202.139H77.7625V199.941H62.5049V202.139Z" fill="#C8EAFB"/>
<path fill-rule="evenodd" clip-rule="evenodd" d="M151.578 205.186C149.084 205.186 147.062 203.216 147.062 200.787C147.062 198.358 149.084 196.39 151.578 196.39C154.072 196.39 156.095 198.358 156.095 200.787C156.095 203.216 154.072 205.186 151.578 205.186Z" fill="#C8EAFB"/>
<path fill-rule="evenodd" clip-rule="evenodd" d="M164.223 205.186C161.729 205.186 159.708 203.216 159.708 200.787C159.708 198.358 161.729 196.39 164.223 196.39C166.717 196.39 168.74 198.358 168.74 200.787C168.74 203.216 166.717 205.186 164.223 205.186Z" fill="#C8EAFB"/>
<path fill-rule="evenodd" clip-rule="evenodd" d="M176.869 205.186C174.375 205.186 172.353 203.216 172.353 200.787C172.353 198.358 174.375 196.39 176.869 196.39C179.363 196.39 181.386 198.358 181.386 200.787C181.386 203.216 179.363 205.186 176.869 205.186Z" fill="#C8EAFB"/>
<path fill-rule="evenodd" clip-rule="evenodd" d="M164.223 192.87C161.729 192.87 159.708 190.898 159.708 188.471C159.708 186.042 161.729 184.073 164.223 184.073C166.717 184.073 168.74 186.042 168.74 188.471C168.74 190.898 166.717 192.87 164.223 192.87Z" fill="#C8EAFB"/>
<path fill-rule="evenodd" clip-rule="evenodd" d="M151.578 192.87C149.084 192.87 147.062 190.898 147.062 188.471C147.062 186.042 149.084 184.073 151.578 184.073C154.072 184.073 156.095 186.042 156.095 188.471C156.095 190.898 154.072 192.87 151.578 192.87Z" fill="#C8EAFB"/>
<path fill-rule="evenodd" clip-rule="evenodd" d="M164.223 180.426C161.729 180.426 159.708 178.456 159.708 176.027C159.708 173.598 161.729 171.63 164.223 171.63C166.717 171.63 168.74 173.598 168.74 176.027C168.74 178.456 166.717 180.426 164.223 180.426Z" fill="#C8EAFB"/>
<path fill-rule="evenodd" clip-rule="evenodd" d="M151.578 180.426C149.084 180.426 147.062 178.456 147.062 176.027C147.062 173.598 149.084 171.63 151.578 171.63C154.072 171.63 156.095 173.598 156.095 176.027C156.095 178.456 154.072 180.426 151.578 180.426Z" fill="#C8EAFB"/>
<path fill-rule="evenodd" clip-rule="evenodd" d="M176.869 192.87C174.375 192.87 172.353 190.898 172.353 188.471C172.353 186.042 174.375 184.073 176.869 184.073C179.363 184.073 181.386 186.042 181.386 188.471C181.386 190.898 179.363 192.87 176.869 192.87Z" fill="#C8EAFB"/>
<path fill-rule="evenodd" clip-rule="evenodd" d="M176.869 180.426C174.375 180.426 172.353 178.456 172.353 176.027C172.353 173.598 174.375 171.63 176.869 171.63C179.363 171.63 181.386 173.598 181.386 176.027C181.386 178.456 179.363 180.426 176.869 180.426Z" fill="#C8EAFB"/>
<path fill-rule="evenodd" clip-rule="evenodd" d="M151.578 167.982C149.084 167.982 147.062 166.012 147.062 163.585C147.062 161.154 149.084 159.186 151.578 159.186C154.072 159.186 156.095 161.154 156.095 163.585C156.095 166.012 154.072 167.982 151.578 167.982Z" fill="#C8EAFB"/>
<path fill-rule="evenodd" clip-rule="evenodd" d="M164.223 167.982C161.729 167.982 159.708 166.012 159.708 163.585C159.708 161.154 161.729 159.186 164.223 159.186C166.717 159.186 168.74 161.154 168.74 163.585C168.74 166.012 166.717 167.982 164.223 167.982Z" fill="#C8EAFB"/>
<path fill-rule="evenodd" clip-rule="evenodd" d="M176.869 167.982C174.375 167.982 172.353 166.012 172.353 163.585C172.353 161.154 174.375 159.186 176.869 159.186C179.363 159.186 181.386 161.154 181.386 163.585C181.386 166.012 179.363 167.982 176.869 167.982Z" fill="#C8EAFB"/>
<path fill-rule="evenodd" clip-rule="evenodd" d="M164.223 155.666C161.729 155.666 159.708 153.696 159.708 151.268C159.708 148.837 161.729 146.869 164.223 146.869C166.717 146.869 168.74 148.837 168.74 151.268C168.74 153.696 166.717 155.666 164.223 155.666Z" fill="#C8EAFB"/>
<path fill-rule="evenodd" clip-rule="evenodd" d="M176.869 155.666C174.375 155.666 172.353 153.696 172.353 151.268C172.353 148.837 174.375 146.869 176.869 146.869C179.363 146.869 181.386 148.837 181.386 151.268C181.386 153.696 179.363 155.666 176.869 155.666Z" fill="#C8EAFB"/>
<path fill-rule="evenodd" clip-rule="evenodd" d="M164.223 143.222C161.729 143.222 159.708 141.252 159.708 138.825C159.708 136.394 161.729 134.426 164.223 134.426C166.717 134.426 168.74 136.394 168.74 138.825C168.74 141.252 166.717 143.222 164.223 143.222Z" fill="#C8EAFB"/>
<path fill-rule="evenodd" clip-rule="evenodd" d="M176.869 143.222C174.375 143.222 172.353 141.252 172.353 138.825C172.353 136.394 174.375 134.426 176.869 134.426C179.363 134.426 181.386 136.394 181.386 138.825C181.386 141.252 179.363 143.222 176.869 143.222Z" fill="#C8EAFB"/>
<path fill-rule="evenodd" clip-rule="evenodd" d="M164.223 130.779C161.729 130.779 159.708 128.809 159.708 126.38C159.708 123.951 161.729 121.982 164.223 121.982C166.717 121.982 168.74 123.951 168.74 126.38C168.74 128.809 166.717 130.779 164.223 130.779Z" fill="#C8EAFB"/>
<path fill-rule="evenodd" clip-rule="evenodd" d="M176.869 130.779C174.375 130.779 172.353 128.809 172.353 126.38C172.353 123.951 174.375 121.982 176.869 121.982C179.363 121.982 181.386 123.951 181.386 126.38C181.386 128.809 179.363 130.779 176.869 130.779Z" fill="#C8EAFB"/>
<path fill-rule="evenodd" clip-rule="evenodd" d="M176.869 118.462C174.375 118.462 172.353 116.492 172.353 114.064C172.353 111.633 174.375 109.665 176.869 109.665C179.363 109.665 181.386 111.633 181.386 114.064C181.386 116.492 179.363 118.462 176.869 118.462Z" fill="#C8EAFB"/>
<path fill-rule="evenodd" clip-rule="evenodd" d="M151.578 155.539C149.084 155.539 147.062 153.569 147.062 151.14C147.062 148.711 149.084 146.742 151.578 146.742C154.072 146.742 156.095 148.711 156.095 151.14C156.095 153.569 154.072 155.539 151.578 155.539Z" fill="#C8EAFB"/>
<path fill-rule="evenodd" clip-rule="evenodd" d="M151.578 267.013C149.084 267.013 147.062 265.043 147.062 262.614C147.062 260.185 149.084 258.217 151.578 258.217C154.072 258.217 156.095 260.185 156.095 262.614C156.095 265.043 154.072 267.013 151.578 267.013Z" fill="#C8EAFB"/>
<path fill-rule="evenodd" clip-rule="evenodd" d="M164.223 267.013C161.729 267.013 159.708 265.043 159.708 262.614C159.708 260.185 161.729 258.217 164.223 258.217C166.717 258.217 168.74 260.185 168.74 262.614C168.74 265.043 166.717 267.013 164.223 267.013Z" fill="#C8EAFB"/>
<path fill-rule="evenodd" clip-rule="evenodd" d="M176.869 267.013C174.375 267.013 172.353 265.043 172.353 262.614C172.353 260.185 174.375 258.217 176.869 258.217C179.363 258.217 181.386 260.185 181.386 262.614C181.386 265.043 179.363 267.013 176.869 267.013Z" fill="#C8EAFB"/>
<path fill-rule="evenodd" clip-rule="evenodd" d="M164.223 254.696C161.729 254.696 159.708 252.726 159.708 250.298C159.708 247.869 161.729 245.899 164.223 245.899C166.717 245.899 168.74 247.869 168.74 250.298C168.74 252.726 166.717 254.696 164.223 254.696Z" fill="#C8EAFB"/>
<path fill-rule="evenodd" clip-rule="evenodd" d="M151.578 254.696C149.084 254.696 147.062 252.726 147.062 250.298C147.062 247.869 149.084 245.899 151.578 245.899C154.072 245.899 156.095 247.869 156.095 250.298C156.095 252.726 154.072 254.696 151.578 254.696Z" fill="#C8EAFB"/>
<path fill-rule="evenodd" clip-rule="evenodd" d="M164.223 242.254C161.729 242.254 159.708 240.284 159.708 237.854C159.708 235.425 161.729 233.457 164.223 233.457C166.717 233.457 168.74 235.425 168.74 237.854C168.74 240.284 166.717 242.254 164.223 242.254Z" fill="#C8EAFB"/>
<path fill-rule="evenodd" clip-rule="evenodd" d="M151.578 242.254C149.084 242.254 147.062 240.284 147.062 237.854C147.062 235.425 149.084 233.457 151.578 233.457C154.072 233.457 156.095 235.425 156.095 237.854C156.095 240.284 154.072 242.254 151.578 242.254Z" fill="#C8EAFB"/>
<path fill-rule="evenodd" clip-rule="evenodd" d="M176.869 254.696C174.375 254.696 172.353 252.726 172.353 250.298C172.353 247.869 174.375 245.899 176.869 245.899C179.363 245.899 181.386 247.869 181.386 250.298C181.386 252.726 179.363 254.696 176.869 254.696Z" fill="#C8EAFB"/>
<path fill-rule="evenodd" clip-rule="evenodd" d="M176.869 242.254C174.375 242.254 172.353 240.284 172.353 237.854C172.353 235.425 174.375 233.457 176.869 233.457C179.363 233.457 181.386 235.425 181.386 237.854C181.386 240.284 179.363 242.254 176.869 242.254Z" fill="#C8EAFB"/>
<path fill-rule="evenodd" clip-rule="evenodd" d="M151.578 229.809C149.084 229.809 147.062 227.839 147.062 225.412C147.062 222.981 149.084 221.013 151.578 221.013C154.072 221.013 156.095 222.981 156.095 225.412C156.095 227.839 154.072 229.809 151.578 229.809Z" fill="#C8EAFB"/>
<path fill-rule="evenodd" clip-rule="evenodd" d="M164.223 229.809C161.729 229.809 159.708 227.839 159.708 225.412C159.708 222.981 161.729 221.013 164.223 221.013C166.717 221.013 168.74 222.981 168.74 225.412C168.74 227.839 166.717 229.809 164.223 229.809Z" fill="#C8EAFB"/>
<path fill-rule="evenodd" clip-rule="evenodd" d="M176.869 229.809C174.375 229.809 172.353 227.839 172.353 225.412C172.353 222.981 174.375 221.013 176.869 221.013C179.363 221.013 181.386 222.981 181.386 225.412C181.386 227.839 179.363 229.809 176.869 229.809Z" fill="#C8EAFB"/>
<path fill-rule="evenodd" clip-rule="evenodd" d="M164.223 217.494C161.729 217.494 159.708 215.524 159.708 213.095C159.708 210.666 161.729 208.697 164.223 208.697C166.717 208.697 168.74 210.666 168.74 213.095C168.74 215.524 166.717 217.494 164.223 217.494Z" fill="#C8EAFB"/>
<path fill-rule="evenodd" clip-rule="evenodd" d="M176.869 217.494C174.375 217.494 172.353 215.524 172.353 213.095C172.353 210.666 174.375 208.697 176.869 208.697C179.363 208.697 181.386 210.666 181.386 213.095C181.386 215.524 179.363 217.494 176.869 217.494Z" fill="#C8EAFB"/>
<path fill-rule="evenodd" clip-rule="evenodd" d="M151.578 217.367C149.084 217.367 147.062 215.397 147.062 212.968C147.062 210.539 149.084 208.57 151.578 208.57C154.072 208.57 156.095 210.539 156.095 212.968C156.095 215.397 154.072 217.367 151.578 217.367Z" fill="#C8EAFB"/>
<path fill-rule="evenodd" clip-rule="evenodd" d="M119.119 144.461V292.586L136.383 293.925V161.261L119.119 144.461Z" fill="#0B2146"/>
<path fill-rule="evenodd" clip-rule="evenodd" d="M55.3047 301.006H96.8312V195.312H55.3047V301.006Z" fill="#E3EAED"/>
<path fill-rule="evenodd" clip-rule="evenodd" d="M77.8633 276.248H86.8949V267.451H77.8633V276.248Z" fill="#0B2146"/>
<path fill-rule="evenodd" clip-rule="evenodd" d="M77.8633 263.931H86.8949V255.135H77.8633V263.931Z" fill="#0B2146"/>
<path fill-rule="evenodd" clip-rule="evenodd" d="M77.8633 251.616H86.8949V242.819H77.8633V251.616Z" fill="#0B2146"/>
<path fill-rule="evenodd" clip-rule="evenodd" d="M77.8633 239.298H86.8949V230.502H77.8633V239.298Z" fill="#0B2146"/>
<path fill-rule="evenodd" clip-rule="evenodd" d="M65.2197 276.248H74.2513V267.451H65.2197V276.248Z" fill="#0B2146"/>
<path fill-rule="evenodd" clip-rule="evenodd" d="M77.8633 288.563H86.8949V279.767H77.8633V288.563Z" fill="#0B2146"/>
<path fill-rule="evenodd" clip-rule="evenodd" d="M65.2197 288.563H74.2513V279.767H65.2197V288.563Z" fill="#0B2146"/>
<path fill-rule="evenodd" clip-rule="evenodd" d="M77.8633 226.982H86.8949V218.186H77.8633V226.982Z" fill="#0B2146"/>
<path fill-rule="evenodd" clip-rule="evenodd" d="M65.2197 226.982H74.2513V218.186H65.2197V226.982Z" fill="#0B2146"/>
<path fill-rule="evenodd" clip-rule="evenodd" d="M77.8633 214.667H86.8949V205.87H77.8633V214.667Z" fill="#0B2146"/>
<path fill-rule="evenodd" clip-rule="evenodd" d="M77.8633 199.712H86.8949V190.915H77.8633V199.712Z" fill="#E3EAED"/>
<path fill-rule="evenodd" clip-rule="evenodd" d="M65.2197 214.667H74.2513V205.87H65.2197V214.667Z" fill="#0B2146"/>
<path fill-rule="evenodd" clip-rule="evenodd" d="M65.2197 263.931H74.2513V255.135H65.2197V263.931Z" fill="#0B2146"/>
<path fill-rule="evenodd" clip-rule="evenodd" d="M65.2197 251.616H74.2513V242.819H65.2197V251.616Z" fill="#0B2146"/>
<path fill-rule="evenodd" clip-rule="evenodd" d="M65.2197 239.298H74.2513V230.502H65.2197V239.298Z" fill="#0B2146"/>
<path fill-rule="evenodd" clip-rule="evenodd" d="M96.8311 195.337V300.136H112.705V210.798L96.8311 195.337Z" fill="#0B2146"/>
<path fill-rule="evenodd" clip-rule="evenodd" d="M-155.894 313.33L-1.32948 313.261C17.4013 312.839 31.3649 305.564 43.0917 297.349C16.0447 279.928 -5.12245 254.503 -32.0376 254.503C-66.8403 254.503 -95.501 313.33 -155.894 313.33Z" fill="#E3EAED"/>
<path fill-rule="evenodd" clip-rule="evenodd" d="M-69.749 313.33L25.1791 313.288C36.6833 313.03 45.26 308.56 52.4618 303.515C35.8509 292.816 22.8499 277.201 6.31976 277.201C-15.0551 277.201 -32.6583 313.33 -69.749 313.33Z" fill="#A4BBD6"/>
<path d="M1.75391 287.802V301.001" stroke="#C57153" stroke-linecap="round" stroke-linejoin="round"/>
<path fill-rule="evenodd" clip-rule="evenodd" d="M1.7536 272.229L-8.64453 289.77L12.1517 288.494L1.7536 272.229Z" fill="#0B2146"/>
<path fill-rule="evenodd" clip-rule="evenodd" d="M-16.293 263.067H9.00668V258.472H-16.293V263.067Z" fill="#E3EAED"/>
<path fill-rule="evenodd" clip-rule="evenodd" d="M-16.293 166.209H9.00668V161.614H-16.293V166.209Z" fill="#E3EAED"/>
<path fill-rule="evenodd" clip-rule="evenodd" d="M-16.293 180.044H9.00668V175.449H-16.293V180.044Z" fill="#E3EAED"/>
<path fill-rule="evenodd" clip-rule="evenodd" d="M-16.293 193.903H9.00668V189.308H-16.293V193.903Z" fill="#E3EAED"/>
<path fill-rule="evenodd" clip-rule="evenodd" d="M-16.293 207.76H9.00668V203.165H-16.293V207.76Z" fill="#E3EAED"/>
<path fill-rule="evenodd" clip-rule="evenodd" d="M-16.293 221.614H9.00668V217.019H-16.293V221.614Z" fill="#E3EAED"/>
<path fill-rule="evenodd" clip-rule="evenodd" d="M-16.293 235.473H9.00668V230.878H-16.293V235.473Z" fill="#E3EAED"/>
<path fill-rule="evenodd" clip-rule="evenodd" d="M-16.293 249.307H9.00668V244.712H-16.293V249.307Z" fill="#E3EAED"/>
<path fill-rule="evenodd" clip-rule="evenodd" d="M157.885 289.308V301.315H43.3213L50.0468 294.765L54.2832 290.656V290.64L55.6513 289.308H157.885Z" fill="#0B2146"/>
<path d="M119.528 263.522L119.428 263.441L119.346 263.522" stroke="#BEE0F1" stroke-width="0.412"/>
<path d="M65.476 271.086L65.3105 270.795" stroke="#BEE0F1" stroke-width="0.412"/>
<path d="M119.46 263.603L119.427 263.441" stroke="#BEE0F1" stroke-width="0.412"/>
<path fill-rule="evenodd" clip-rule="evenodd" d="M212.464 257.421C212.448 257.421 212.448 257.421 212.43 257.437L212.448 257.389C212.464 257.389 212.48 257.405 212.464 257.421Z" fill="#C8EAFB"/>
<path fill-rule="evenodd" clip-rule="evenodd" d="M182.233 224.332L176.331 243.085L172.54 255.11L163.507 283.799L162.65 284.635L157.886 289.307H151.16L139.803 280.042L119.527 263.521C125.033 247.257 137.742 234.205 154.012 227.945H154.028C160.721 225.39 168.023 223.978 175.655 223.978C177.881 223.978 180.073 224.092 182.233 224.332Z" fill="white"/>
<path fill-rule="evenodd" clip-rule="evenodd" d="M139.803 280.042L135.616 282.548L124.374 289.307L119.479 263.684C119.479 263.668 119.479 263.65 119.495 263.634C119.495 263.602 119.511 263.554 119.528 263.521L139.803 280.042Z" fill="#A4BBD6"/>
<path fill-rule="evenodd" clip-rule="evenodd" d="M65.6906 271.471L65.4756 271.084C65.6079 271.166 65.7237 271.261 65.8395 271.358C65.7899 271.39 65.7403 271.422 65.6906 271.471Z" stroke="#BEE0F1" stroke-width="0.231"/>
<path fill-rule="evenodd" clip-rule="evenodd" d="M124.372 289.306L116.806 286.335L114.96 285.63L102.646 280.797L108.465 274.793L119.345 263.521C119.378 263.538 119.427 263.57 119.46 263.601L119.477 263.683L124.372 289.306Z" fill="#CDE1EC"/>
<path fill-rule="evenodd" clip-rule="evenodd" d="M119.494 263.635C119.477 263.651 119.477 263.668 119.477 263.683L119.461 263.601C119.461 263.618 119.477 263.618 119.494 263.635Z" stroke="#BEE0F1" stroke-width="0.231"/>
<path fill-rule="evenodd" clip-rule="evenodd" d="M151.16 289.306H124.373L135.615 282.547L139.802 280.041L151.16 289.306Z" fill="#CDE1EC"/>
<path fill-rule="evenodd" clip-rule="evenodd" d="M65.6906 271.471L65.4756 271.084C65.6079 271.166 65.7237 271.261 65.8395 271.358C65.7899 271.39 65.7403 271.422 65.6906 271.471Z" stroke="#BEE0F1" stroke-width="0.231"/>
<path fill-rule="evenodd" clip-rule="evenodd" d="M212.464 257.421C212.448 257.421 212.448 257.421 212.43 257.437L212.448 257.389C212.464 257.389 212.48 257.405 212.464 257.421Z" fill="#C8EAFB"/>
<path fill-rule="evenodd" clip-rule="evenodd" d="M124.373 289.307H94.4219L102.647 280.798L114.961 285.63L116.807 286.335L124.373 289.307Z" fill="#CDE1EC"/>
<path fill-rule="evenodd" clip-rule="evenodd" d="M65.6903 271.469C60.0363 275.868 55.9977 282.146 54.5306 289.306H48.0689C45.382 283.398 41.0961 278.34 35.7553 274.632C31.997 271.999 27.7111 270.056 23.0791 268.964C28.7661 265.464 35.5081 263.441 42.7281 263.441C44.0962 263.441 45.4314 263.506 46.7502 263.668C53.7723 264.389 60.2011 267.054 65.476 271.084L65.6903 271.469Z" fill="white"/>
<path fill-rule="evenodd" clip-rule="evenodd" d="M55.6514 289.307L54.2832 290.639C55.503 282.917 59.69 276.142 65.6901 271.47L75.8772 289.307H55.6514Z" fill="#A4BBD6"/>
<path fill-rule="evenodd" clip-rule="evenodd" d="M89.2301 289.307H80.4111L87.6312 280.766C88.373 283.543 88.9169 286.399 89.2301 289.307Z" fill="#A4BBD6"/>
<path fill-rule="evenodd" clip-rule="evenodd" d="M87.6297 280.764L80.4097 289.306H75.8766L73.4369 285.035L65.6895 271.469C65.7389 271.42 65.7884 271.388 65.8378 271.356C68.6566 269.173 71.8874 267.455 75.3985 266.331C77.1129 265.769 78.9096 265.352 80.7394 265.095C83.7889 269.895 86.1461 275.161 87.6297 280.764Z" fill="white"/>
<path fill-rule="evenodd" clip-rule="evenodd" d="M65.6906 271.471L65.4756 271.084C65.6079 271.166 65.7237 271.261 65.8395 271.358C65.7899 271.39 65.7403 271.422 65.6906 271.471Z" stroke="#BEE0F1" stroke-width="0.145"/>
<path fill-rule="evenodd" clip-rule="evenodd" d="M244.065 257.179L243.62 257.886L234.043 272.688L226.855 283.799H220.015C220.509 281.745 220.756 279.594 220.756 277.376C220.756 269.622 217.624 262.59 212.481 257.42C216.784 254.933 221.745 253.406 227.07 253.183C227.531 253.165 228.009 253.149 228.487 253.149C233.597 253.149 238.427 254.337 242.68 256.442C243.158 256.667 243.62 256.906 244.065 257.179Z" fill="white"/>
<path fill-rule="evenodd" clip-rule="evenodd" d="M220.756 277.376C220.756 279.594 220.509 281.745 220.014 283.798H201.98L212.415 257.436H212.431C212.448 257.42 212.448 257.42 212.464 257.42H212.481C217.624 262.59 220.756 269.622 220.756 277.376Z" fill="#A4BBD6"/>
<path fill-rule="evenodd" clip-rule="evenodd" d="M219.859 238.673L218.54 241.964L212.441 257.393L212.424 257.442H212.408L205.616 274.604L205.583 274.685L201.973 283.802H191.374C191.407 283.049 191.424 282.279 191.424 281.508C191.424 280.93 191.407 280.336 191.391 279.758C191.374 279.178 191.358 278.602 191.308 278.024C191.275 277.478 191.242 276.948 191.176 276.403C191.193 276.322 191.176 276.258 191.16 276.194C191.127 275.664 191.061 275.134 190.995 274.604C190.995 274.524 190.979 274.444 190.962 274.362C190.979 274.347 190.962 274.347 190.962 274.347C190.896 273.866 190.83 273.4 190.764 272.935C190.665 272.18 190.533 271.442 190.369 270.703C190.253 270.077 190.138 269.467 189.989 268.857C189.841 268.182 189.66 267.508 189.478 266.834C189.297 266.159 189.116 265.485 188.902 264.811C188.704 264.169 188.489 263.525 188.259 262.884C188.061 262.29 187.847 261.712 187.599 261.134C187.484 260.781 187.336 260.412 187.171 260.058C186.989 259.593 186.792 259.127 186.577 258.662C185.77 256.831 184.846 255.033 183.841 253.315C183.561 252.802 183.264 252.32 182.951 251.822C182.588 251.244 182.225 250.666 181.846 250.104C180.198 247.632 178.352 245.288 176.324 243.088C180.758 240.279 185.687 238.159 190.962 236.905C192.841 236.44 194.753 236.103 196.698 235.88C198.611 235.637 200.556 235.526 202.534 235.526C205.946 235.526 209.259 235.864 212.474 236.538C213.232 236.698 213.99 236.859 214.732 237.052C216.479 237.485 218.194 238.031 219.859 238.673Z" fill="white"/>
<path fill-rule="evenodd" clip-rule="evenodd" d="M212.464 257.421C212.448 257.421 212.448 257.421 212.43 257.437L212.448 257.389C212.464 257.389 212.48 257.405 212.464 257.421Z" fill="#C8EAFB"/>
<path fill-rule="evenodd" clip-rule="evenodd" d="M191.431 281.504C191.431 282.274 191.414 283.045 191.381 283.8H163.507L172.54 255.111L176.331 243.084C178.359 245.284 180.205 247.628 181.854 250.1C187.92 259.125 191.431 269.912 191.431 281.504Z" fill="#A4BBD6"/>
<path d="M182.232 224.331L176.331 243.085" stroke="#BEE0F1" stroke-width="0.231"/>
<path fill-rule="evenodd" clip-rule="evenodd" d="M164.689 280.042H170.391L175.976 274.601H191.065L201.244 284.515L205.621 274.601H216.685L220.135 283.241H226.854L232.803 274.601H246.081L241.409 283.798H163.506L164.689 280.042Z" fill="#CDE1EC"/>
<path fill-rule="evenodd" clip-rule="evenodd" d="M241.409 283.799V301.315H157.885V289.307L162.649 284.635L163.506 283.799H241.409Z" fill="#0B2146"/>
<path fill-rule="evenodd" clip-rule="evenodd" d="M216.686 301.315H251.851V287.433L216.686 301.315Z" fill="#A4BBD6"/>
<path fill-rule="evenodd" clip-rule="evenodd" d="M102.532 301.316H95.9385C95.9385 299.549 97.422 298.104 99.2353 298.104C101.049 298.104 102.532 299.549 102.532 301.316Z" fill="#A4BBD6"/>
<path fill-rule="evenodd" clip-rule="evenodd" d="M112.67 301.316H106.076C106.076 299.549 107.543 298.104 109.373 298.104C111.186 298.104 112.67 299.549 112.67 301.316Z" fill="#A4BBD6"/>
<path fill-rule="evenodd" clip-rule="evenodd" d="M122.807 301.316H116.214C116.214 299.549 117.681 298.104 119.511 298.104C121.324 298.104 122.807 299.549 122.807 301.316Z" fill="#A4BBD6"/>
<path fill-rule="evenodd" clip-rule="evenodd" d="M132.945 301.316H126.352C126.352 299.549 127.819 298.104 129.648 298.104C131.462 298.104 132.945 299.549 132.945 301.316Z" fill="#A4BBD6"/>
<path d="M91.8164 289.307V301.314" stroke="#BEE0F1"/>
<path fill-rule="evenodd" clip-rule="evenodd" d="M119.346 263.522L108.466 274.794L102.647 280.798L94.4218 289.308H89.2293C88.2897 280.492 85.3061 272.272 80.74 265.095C79.718 263.475 78.6136 261.916 77.4103 260.409V260.391C75.2838 257.663 72.8937 255.141 70.3057 252.813C74.0805 251.994 78.0037 251.529 82.0093 251.464C82.3884 251.448 82.7676 251.448 83.1467 251.448C96.779 251.448 109.356 255.96 119.346 263.522Z" fill="white"/>
<path fill-rule="evenodd" clip-rule="evenodd" d="M275.722 301.32V313.329H-16.7871L-4.45706 301.32H275.722Z" fill="#E3EAED"/>
</g>
<defs>
<clipPath id="clip0">
<rect width="400" height="350" fill="white"/>
</clipPath>
</defs>
</svg>
