<svg width="400" height="350" viewBox="0 0 400 350" fill="none" xmlns="http://www.w3.org/2000/svg">
<g clip-path="url(#clip0)">
<rect width="400" height="350" fill="#FBE8DE"/>
<path fill-rule="evenodd" clip-rule="evenodd" d="M360.203 326.563H294.657L286.477 101.382L360.203 120.147V326.563Z" fill="#3C4D6B" fill-opacity="0.745766"/>
<path fill-rule="evenodd" clip-rule="evenodd" d="M263.806 236.72L247.616 229.261C249.918 224.214 251.29 218.663 251.516 212.822L269.307 213.399C269.01 221.568 267.128 229.461 263.806 236.72ZM251.244 254.732C250.837 255.137 250.426 255.536 250.011 255.931L237.827 242.953C241.774 239.212 245.025 234.749 247.374 229.778L263.565 237.239C260.556 243.658 256.415 249.572 251.244 254.732ZM238.338 264.627L229.83 248.973C232.558 247.368 235.097 245.477 237.409 243.343L249.593 256.322C246.127 259.539 242.354 262.315 238.338 264.627ZM268.943 323.324H146.133L176.915 266.697C178.931 267.806 181.006 268.804 183.127 269.685L180.956 274.963C180.464 274.805 179.94 274.721 179.394 274.721C176.546 274.721 174.239 277.025 174.239 279.867C174.239 282.708 176.546 285.013 179.394 285.013C182.242 285.013 184.55 282.708 184.55 279.867C184.55 277.769 183.293 275.969 181.491 275.166L183.657 269.902C190.436 272.644 197.697 274.203 205.188 274.475L205.012 279.871C202.22 279.934 199.974 282.21 199.974 285.013C199.974 287.856 202.284 290.159 205.132 290.159C207.978 290.159 210.288 287.856 210.288 285.013C210.288 282.323 208.22 280.117 205.584 279.888L205.761 274.49C206.351 274.508 206.944 274.516 207.539 274.516C214.749 274.516 221.777 273.325 228.397 271.035L230.249 276.28C228.495 277.104 227.279 278.882 227.279 280.942C227.279 283.785 229.587 286.088 232.435 286.088C235.283 286.088 237.591 283.785 237.591 280.942C237.591 278.101 235.283 275.796 232.435 275.796C231.857 275.796 231.301 275.894 230.78 276.068L228.937 270.845C232.118 269.714 235.199 268.328 238.161 266.697L268.943 323.324ZM163.831 254.732C163.425 254.326 163.025 253.915 162.631 253.5L175.633 241.339C178.456 244.308 181.692 246.88 185.246 248.973L176.737 264.627C172.076 261.941 167.739 258.632 163.831 254.732ZM149.604 232.702L166.334 226.555C168.361 231.918 171.41 236.787 175.243 240.922L162.238 253.084C156.659 247.094 152.398 240.182 149.604 232.702ZM145.727 211.109C145.727 210.534 145.737 209.962 145.751 209.389L163.54 209.968C163.529 210.347 163.524 210.727 163.524 211.109C163.524 216.34 164.447 221.361 166.135 226.018L149.406 232.167C146.989 225.504 145.727 218.404 145.727 211.109ZM151.27 185.498L167.461 192.959C165.156 198.002 163.787 203.555 163.56 209.396L145.77 208.818C146.066 200.65 147.949 192.759 151.27 185.498ZM163.831 167.486C164.239 167.081 164.651 166.68 165.066 166.288L177.249 179.265C173.302 183.006 170.05 187.471 167.703 192.44L151.51 184.981C154.521 178.562 158.662 172.647 163.831 167.486ZM186.71 152.99L192.638 169.773C187.034 171.792 181.958 174.913 177.668 178.875L165.484 165.896C171.698 160.126 178.906 155.771 186.71 152.99ZM207.539 149.417C208.114 149.417 208.688 149.425 209.261 149.441L208.681 167.194C208.302 167.183 207.92 167.178 207.539 167.178C202.512 167.178 197.68 168.025 193.178 169.583L187.252 152.802C193.689 150.575 200.525 149.417 207.539 149.417ZM230.765 153.902L223.992 170.366C219.409 168.516 214.445 167.416 209.254 167.216L209.833 149.459C217.115 149.721 224.176 151.239 230.765 153.902ZM251.244 167.486C251.652 167.892 252.051 168.304 252.446 168.718L239.444 180.877C235.267 176.491 230.194 172.961 224.522 170.584L231.296 154.119C238.664 157.181 245.431 161.683 251.244 167.486ZM265.473 189.514L248.74 195.663C246.715 190.298 243.667 185.429 239.833 181.296L252.838 169.134C258.417 175.124 262.678 182.034 265.473 189.514ZM222.439 252.444C224.659 251.646 226.797 250.671 228.836 249.541L237.34 265.188C234.46 266.774 231.459 268.126 228.366 269.228L222.439 252.444ZM206.394 255.023C206.774 255.033 207.155 255.038 207.539 255.038C212.565 255.038 217.396 254.191 221.899 252.635L227.824 269.416C221.386 271.641 214.552 272.801 207.539 272.801C206.963 272.801 206.389 272.793 205.816 272.776L206.394 255.023ZM191.084 251.852C195.667 253.702 200.629 254.802 205.823 255.002L205.243 272.76C197.961 272.495 190.901 270.981 184.31 268.314L191.084 251.852ZM190.555 251.634L183.78 268.097C181.716 267.24 179.698 266.269 177.735 265.188L186.241 249.541C187.635 250.313 189.073 251.015 190.555 251.634ZM210.795 212.295C210.886 212.045 210.949 211.78 210.98 211.508L250.657 212.795C250.434 218.517 249.092 223.957 246.836 228.901L210.795 212.295ZM211.063 214.444L210.349 213.133C210.423 213.029 210.492 212.925 210.553 212.813L246.594 229.418C244.293 234.287 241.105 238.661 237.239 242.327L211.063 214.444ZM212.141 216.431L236.821 242.717C234.563 244.803 232.083 246.649 229.421 248.219L212.141 216.431ZM208.957 214.266C209.146 214.181 209.327 214.08 209.497 213.963L228.426 248.788C226.427 249.896 224.332 250.852 222.154 251.636L208.957 214.266ZM207.539 254.181C207.165 254.181 206.793 254.176 206.423 254.167L207.712 214.564C207.954 214.552 208.189 214.514 208.417 214.456L221.612 251.826C217.199 253.351 212.465 254.181 207.539 254.181ZM206.49 214.408C206.699 214.473 206.915 214.52 207.14 214.545L205.85 254.146C200.763 253.948 195.901 252.87 191.41 251.058L206.49 214.408ZM205.579 213.963C205.701 214.047 205.83 214.123 205.962 214.189L190.88 250.842C189.428 250.231 188.017 249.545 186.65 248.788L205.579 213.963ZM203.625 215.16L185.654 248.219C182.184 246.17 179.021 243.655 176.26 240.752L203.625 215.16ZM204.396 212.569C204.487 212.767 204.6 212.955 204.727 213.133L204.491 213.566L175.869 240.335C172.114 236.284 169.127 231.515 167.142 226.259L204.396 212.569ZM204.281 209.923C204.189 210.173 204.127 210.438 204.094 210.712L164.419 209.425C164.642 203.701 165.985 198.259 168.239 193.318L204.281 209.923ZM204.967 208.788C204.796 208.977 204.648 209.182 204.521 209.405L168.483 192.8C170.784 187.929 173.969 183.557 177.836 179.89L204.967 208.788ZM206.119 207.952C205.855 208.071 205.61 208.222 205.386 208.398L178.256 179.5C182.458 175.62 187.434 172.56 192.922 170.582L206.119 207.952ZM207.364 207.654C207.121 207.664 206.886 207.702 206.66 207.762L193.464 170.39C197.876 168.867 202.611 168.036 207.539 168.036C207.911 168.036 208.283 168.041 208.654 168.051L207.364 207.654ZM208.585 207.81C208.378 207.745 208.16 207.698 207.937 207.673L209.226 168.073C214.312 168.268 219.176 169.348 223.665 171.159L208.585 207.81ZM209.862 208.542C209.638 208.34 209.387 208.167 209.115 208.027L224.195 171.376C229.755 173.707 234.724 177.165 238.816 181.464L209.862 208.542ZM210.255 208.96L239.207 181.882C242.962 185.932 245.949 190.702 247.935 195.961L210.68 209.649C210.565 209.403 210.421 209.172 210.255 208.96ZM164.397 209.995L204.076 211.284C204.089 211.54 204.131 211.792 204.197 212.031L166.941 225.722C165.288 221.156 164.383 216.236 164.383 211.109C164.383 210.736 164.388 210.366 164.397 209.995ZM250.678 212.223L211.001 210.936C210.987 210.676 210.944 210.426 210.879 210.185L248.133 196.494C249.788 201.06 250.693 205.98 250.693 211.109C250.693 211.482 250.688 211.853 250.678 212.223ZM269.348 211.109C269.348 211.682 269.339 212.256 269.324 212.827L251.537 212.25C251.547 211.871 251.552 211.491 251.552 211.109C251.552 205.878 250.628 200.857 248.941 196.198L265.67 190.051C268.088 196.712 269.348 203.814 269.348 211.109ZM282.216 208.366C279.515 208.366 277.3 210.44 277.079 213.08L271.042 212.882C271.057 212.293 271.066 211.701 271.066 211.109C271.066 203.608 269.77 196.308 267.284 189.459L272.328 187.604C273.12 189.429 274.941 190.707 277.06 190.707C279.908 190.707 282.216 188.403 282.216 185.561C282.216 182.719 279.908 180.415 277.06 180.415C274.212 180.415 271.904 182.719 271.904 185.561C271.904 186.085 271.983 186.591 272.129 187.067L267.086 188.92C264.213 181.228 259.832 174.121 254.092 167.962L258.039 164.271C258.964 165.154 260.218 165.694 261.598 165.694C264.446 165.694 266.754 163.391 266.754 160.549C266.754 157.708 264.446 155.403 261.598 155.403C258.75 155.403 256.442 157.708 256.442 160.549C256.442 161.808 256.895 162.958 257.646 163.853L253.699 167.544C253.293 167.117 252.879 166.692 252.459 166.273C246.482 160.309 239.525 155.678 231.948 152.533L234.12 147.257C234.612 147.411 235.137 147.497 235.682 147.497C238.528 147.497 240.838 145.193 240.838 142.351C240.838 139.508 238.528 137.206 235.682 137.206C232.834 137.206 230.525 139.508 230.525 142.351C230.525 144.447 231.783 146.251 233.585 147.053L231.418 152.317C224.64 149.574 217.377 148.013 209.888 147.745L210.123 140.532C210.178 140.533 210.231 140.537 210.288 140.537C213.134 140.537 215.442 138.232 215.442 135.391C215.442 132.548 213.134 130.243 210.288 130.243C207.44 130.243 205.132 132.548 205.132 135.391C205.132 137.983 207.052 140.128 209.552 140.484L209.315 147.726C208.726 147.71 208.132 147.7 207.539 147.7C200.328 147.7 193.298 148.893 186.68 151.183L184.601 145.296C186.475 144.526 187.796 142.686 187.796 140.537C187.796 137.694 185.488 135.391 182.642 135.391C179.794 135.391 177.486 137.694 177.486 140.537C177.486 143.377 179.794 145.683 182.642 145.683C183.134 145.683 183.609 145.612 184.06 145.484L186.139 151.371C178.112 154.23 170.7 158.711 164.308 164.645L160.541 160.631C161.384 159.715 161.899 158.493 161.899 157.153C161.899 154.311 159.591 152.006 156.743 152.006C153.895 152.006 151.587 154.311 151.587 157.153C151.587 159.994 153.895 162.299 156.743 162.299C158.039 162.299 159.224 161.818 160.129 161.031L163.891 165.036C163.462 165.443 163.037 165.854 162.615 166.273C157.3 171.58 153.043 177.66 149.95 184.26L145.161 182.055C145.334 181.539 145.43 180.988 145.43 180.415C145.43 177.573 143.122 175.269 140.275 175.269C137.428 175.269 135.119 177.573 135.119 180.415C135.119 183.258 137.428 185.561 140.275 185.561C142.344 185.561 144.129 184.344 144.948 182.585L149.708 184.779C146.291 192.245 144.357 200.36 144.052 208.763L137.907 208.564C137.83 205.789 135.554 203.56 132.754 203.56C129.906 203.56 127.599 205.866 127.599 208.706C127.599 211.549 129.906 213.854 132.754 213.854C135.457 213.854 137.672 211.776 137.891 209.136L144.035 209.334C144.017 209.925 144.009 210.515 144.009 211.109C144.009 218.61 145.307 225.912 147.793 232.76L142.749 234.614C141.956 232.788 140.136 231.511 138.016 231.511C135.168 231.511 132.859 233.815 132.859 236.657C132.859 239.499 135.168 241.803 138.016 241.803C140.863 241.803 143.172 239.499 143.172 236.657C143.172 236.132 143.093 235.625 142.946 235.149L147.99 233.296C150.862 240.99 155.244 248.097 160.985 254.256L157.038 257.947C156.112 257.066 154.859 256.522 153.478 256.522C150.631 256.522 148.323 258.827 148.323 261.668C148.323 264.51 150.631 266.814 153.478 266.814C156.325 266.814 158.634 264.51 158.634 261.668C158.634 260.41 158.182 259.258 157.431 258.363L161.378 254.672C161.784 255.101 162.197 255.526 162.615 255.943C166.641 259.962 171.113 263.372 175.917 266.132L144.83 323.324H139.249V324.958H136.518V328.206H278.559V324.958H275.826V323.324H270.246L239.159 266.132C243.3 263.754 247.194 260.891 250.769 257.574L255.804 262.939C254.724 263.882 254.04 265.268 254.04 266.814C254.04 269.656 256.348 271.961 259.196 271.961C262.042 271.961 264.352 269.656 264.352 266.814C264.352 263.973 262.042 261.668 259.196 261.668C258.104 261.668 257.092 262.007 256.259 262.585L251.185 257.181C251.614 256.777 252.039 256.364 252.459 255.943C257.775 250.638 262.032 244.558 265.127 237.958L270.737 240.542C270.636 240.946 270.581 241.368 270.581 241.803C270.581 244.645 272.888 246.949 275.736 246.949C278.584 246.949 280.892 244.645 280.892 241.803C280.892 238.962 278.584 236.657 275.736 236.657C273.526 236.657 271.644 238.043 270.91 239.992L265.367 237.439C268.784 229.974 270.72 221.856 271.023 213.453L277.064 213.652C277.137 216.429 279.416 218.656 282.216 218.656C285.064 218.656 287.372 216.354 287.372 213.51C287.372 210.669 285.064 208.366 282.216 208.366Z" fill="#081837"/>
<path fill-rule="evenodd" clip-rule="evenodd" d="M71.9824 273.45H109.148V224.214H71.9824V273.45Z" fill="#081837"/>
<path fill-rule="evenodd" clip-rule="evenodd" d="M371.368 326.272H418.229V137.252H371.368V326.272Z" fill="#B0C4DA"/>
<path fill-rule="evenodd" clip-rule="evenodd" d="M431.429 325.563H376.347V195.504H418.109L431.429 325.563Z" fill="#B0C4DA"/>
<path fill-rule="evenodd" clip-rule="evenodd" d="M57.6499 168.791V128.44H44.6674V113.077H37.7207V100.172H35.2841V78.0498H34.6533V100.172H32.2151V113.077H25.2701V128.44H12.3865V168.791H9.70707V242.051L-24.4348 241.686L-26.6641 325.341L9.70707 325.563H29.6842H60.2288V168.791H57.6499Z" fill="#081837" fill-opacity="0.723995"/>
<path fill-rule="evenodd" clip-rule="evenodd" d="M19.2422 146.895H22.5211V133.781H19.2422V146.895Z" fill="white"/>
<path fill-rule="evenodd" clip-rule="evenodd" d="M19.2422 163.286H22.5211V150.173H19.2422V163.286Z" fill="white"/>
<path fill-rule="evenodd" clip-rule="evenodd" d="M19.2422 179.678H22.5211V166.564H19.2422V179.678Z" fill="white"/>
<path fill-rule="evenodd" clip-rule="evenodd" d="M30.7178 146.895H33.9967V133.781H30.7178V146.895Z" fill="white"/>
<path fill-rule="evenodd" clip-rule="evenodd" d="M30.7178 163.286H33.9967V150.173H30.7178V163.286Z" fill="white"/>
<path fill-rule="evenodd" clip-rule="evenodd" d="M71.7959 326.395H127.974V145.666H71.7959V326.395Z" fill="#B0C4DA"/>
<path fill-rule="evenodd" clip-rule="evenodd" d="M67.6006 148.568H132.172V146.737H67.6006V148.568Z" fill="#B0C4DA"/>
<path fill-rule="evenodd" clip-rule="evenodd" d="M75.3418 144.24H94.4489V134.854H75.3418V144.24Z" fill="#B0C4DA"/>
<path fill-rule="evenodd" clip-rule="evenodd" d="M74.0459 136.19H95.7456V134.587H74.0459V136.19Z" fill="#B0C4DA"/>
<path fill-rule="evenodd" clip-rule="evenodd" d="M-27.3965 326.186H25.0666V259.641H-27.3965V326.186Z" fill="#B0C4DA"/>
<path fill-rule="evenodd" clip-rule="evenodd" d="M13.7314 273.456H16.7125V266.508H13.7314V273.456Z" fill="white"/>
<path fill-rule="evenodd" clip-rule="evenodd" d="M13.7314 284.671H16.7125V277.725H13.7314V284.671Z" fill="white"/>
<path fill-rule="evenodd" clip-rule="evenodd" d="M-2.66406 273.456H0.316833V266.508H-2.66406V273.456Z" fill="white"/>
<path fill-rule="evenodd" clip-rule="evenodd" d="M-2.66406 284.671H0.316833V277.725H-2.66406V284.671Z" fill="white"/>
<path fill-rule="evenodd" clip-rule="evenodd" d="M5.53418 273.456H8.5152V266.508H5.53418V273.456Z" fill="white"/>
<path fill-rule="evenodd" clip-rule="evenodd" d="M5.53418 284.671H8.5152V277.725H5.53418V284.671Z" fill="white"/>
<path fill-rule="evenodd" clip-rule="evenodd" d="M299.651 326.395H341.101V211.611H299.651V326.395Z" fill="#B0C4DA"/>
<path fill-rule="evenodd" clip-rule="evenodd" d="M297.53 213.273H342.999V209.512H297.53V213.273Z" fill="#030B20"/>
<path fill-rule="evenodd" clip-rule="evenodd" d="M334.638 211.784H335.547V188.652H334.638V211.784Z" fill="#030B20"/>
<path fill-rule="evenodd" clip-rule="evenodd" d="M328.58 211.69H329.489V193.133H328.58V211.69Z" fill="#030B20"/>
<path fill-rule="evenodd" clip-rule="evenodd" d="M303.918 225.921H306.899V218.973H303.918V225.921Z" fill="white"/>
<path fill-rule="evenodd" clip-rule="evenodd" d="M303.918 237.136H306.899V230.189H303.918V237.136Z" fill="white"/>
<path fill-rule="evenodd" clip-rule="evenodd" d="M311.564 225.921H314.545V218.973H311.564V225.921Z" fill="white"/>
<path fill-rule="evenodd" clip-rule="evenodd" d="M395.09 326.634H352.464V252.872H395.09V326.634Z" fill="#3C4D6B"/>
<path fill-rule="evenodd" clip-rule="evenodd" d="M351.982 256.163H397.451V252.401H351.982V256.163Z" fill="#030B20"/>
<path fill-rule="evenodd" clip-rule="evenodd" d="M385.811 256.057H386.719V232.926H385.811V256.057Z" fill="#030B20"/>
<path fill-rule="evenodd" clip-rule="evenodd" d="M383.032 256.049H383.941V237.491H383.032V256.049Z" fill="#030B20"/>
<path fill-rule="evenodd" clip-rule="evenodd" d="M358.37 268.811H361.351V261.863H358.37V268.811Z" fill="white"/>
<path fill-rule="evenodd" clip-rule="evenodd" d="M358.37 280.025H361.351V273.079H358.37V280.025Z" fill="white"/>
<path fill-rule="evenodd" clip-rule="evenodd" d="M366.017 268.811H368.998V261.863H366.017V268.811Z" fill="white"/>
<path fill-rule="evenodd" clip-rule="evenodd" d="M69.3438 173.948H130.422V172.122H69.3438V173.948Z" fill="#030B20"/>
<path fill-rule="evenodd" clip-rule="evenodd" d="M69.3438 198.534H130.422V196.71H69.3438V198.534Z" fill="#030B20"/>
<path fill-rule="evenodd" clip-rule="evenodd" d="M69.3438 223.121H130.422V221.295H69.3438V223.121Z" fill="#030B20"/>
<path fill-rule="evenodd" clip-rule="evenodd" d="M69.3438 247.705H130.422V245.881H69.3438V247.705Z" fill="#030B20"/>
<path fill-rule="evenodd" clip-rule="evenodd" d="M69.3438 272.292H130.422V270.466H69.3438V272.292Z" fill="#030B20"/>
<path fill-rule="evenodd" clip-rule="evenodd" d="M69.3438 296.876H130.422V295.052H69.3438V296.876Z" fill="#030B20"/>
<path fill-rule="evenodd" clip-rule="evenodd" d="M65.4639 146.737H134.306V141.743H65.4639V146.737Z" fill="#030B20"/>
<path fill-rule="evenodd" clip-rule="evenodd" d="M76.8525 168.942H82.689V154.504H76.8525V168.942Z" fill="#030B20"/>
<path fill-rule="evenodd" clip-rule="evenodd" d="M89.9092 168.942H95.7456V154.504H89.9092V168.942Z" fill="#030B20"/>
<path fill-rule="evenodd" clip-rule="evenodd" d="M102.963 168.942H108.799V154.504H102.963V168.942Z" fill="#030B20"/>
<path fill-rule="evenodd" clip-rule="evenodd" d="M116.021 168.942H121.857V154.504H116.021V168.942Z" fill="#030B20"/>
<path fill-rule="evenodd" clip-rule="evenodd" d="M76.8525 192.547H82.689V178.108H76.8525V192.547Z" fill="#030B20"/>
<path fill-rule="evenodd" clip-rule="evenodd" d="M89.9092 192.547H95.7456V178.108H89.9092V192.547Z" fill="#030B20"/>
<path fill-rule="evenodd" clip-rule="evenodd" d="M102.963 192.547H108.799V178.108H102.963V192.547Z" fill="#030B20"/>
<path fill-rule="evenodd" clip-rule="evenodd" d="M116.021 192.547H121.857V178.108H116.021V192.547Z" fill="#030B20"/>
<path fill-rule="evenodd" clip-rule="evenodd" d="M76.8525 217.133H82.689V202.694H76.8525V217.133Z" fill="#030B20"/>
<path fill-rule="evenodd" clip-rule="evenodd" d="M89.9092 217.133H95.7456V202.694H89.9092V217.133Z" fill="#030B20"/>
<path fill-rule="evenodd" clip-rule="evenodd" d="M102.963 217.133H108.799V202.694H102.963V217.133Z" fill="#030B20"/>
<path fill-rule="evenodd" clip-rule="evenodd" d="M116.021 217.133H121.857V202.694H116.021V217.133Z" fill="#030B20"/>
<path fill-rule="evenodd" clip-rule="evenodd" d="M76.8525 241.72H82.689V227.281H76.8525V241.72Z" fill="#030B20"/>
<path fill-rule="evenodd" clip-rule="evenodd" d="M89.9092 241.72H95.7456V227.281H89.9092V241.72Z" fill="#030B20"/>
<path fill-rule="evenodd" clip-rule="evenodd" d="M102.963 241.72H108.799V227.281H102.963V241.72Z" fill="#030B20"/>
<path fill-rule="evenodd" clip-rule="evenodd" d="M116.021 241.72H121.857V227.281H116.021V241.72Z" fill="#030B20"/>
<path fill-rule="evenodd" clip-rule="evenodd" d="M76.8525 266.303H82.689V251.865H76.8525V266.303Z" fill="#030B20"/>
<path fill-rule="evenodd" clip-rule="evenodd" d="M89.9092 266.303H95.7456V251.865H89.9092V266.303Z" fill="#030B20"/>
<path fill-rule="evenodd" clip-rule="evenodd" d="M102.963 266.303H108.799V251.865H102.963V266.303Z" fill="#030B20"/>
<path fill-rule="evenodd" clip-rule="evenodd" d="M116.021 266.303H121.857V251.865H116.021V266.303Z" fill="#030B20"/>
<path fill-rule="evenodd" clip-rule="evenodd" d="M76.8525 290.89H82.689V276.452H76.8525V290.89Z" fill="#030B20"/>
<path fill-rule="evenodd" clip-rule="evenodd" d="M89.9092 290.89H95.7456V276.452H89.9092V290.89Z" fill="#030B20"/>
<path fill-rule="evenodd" clip-rule="evenodd" d="M102.963 290.89H108.799V276.452H102.963V290.89Z" fill="#030B20"/>
<path fill-rule="evenodd" clip-rule="evenodd" d="M116.021 290.89H121.857V276.452H116.021V290.89Z" fill="#030B20"/>
<path fill-rule="evenodd" clip-rule="evenodd" d="M76.8525 315.476H82.689V301.036H76.8525V315.476Z" fill="#030B20"/>
<path fill-rule="evenodd" clip-rule="evenodd" d="M89.9092 315.476H95.7456V301.036H89.9092V315.476Z" fill="#030B20"/>
<path fill-rule="evenodd" clip-rule="evenodd" d="M102.963 315.476H108.799V301.036H102.963V315.476Z" fill="#030B20"/>
<path fill-rule="evenodd" clip-rule="evenodd" d="M116.021 315.476H121.857V301.036H116.021V315.476Z" fill="#030B20"/>
<path fill-rule="evenodd" clip-rule="evenodd" d="M-30.6758 262.304H28.3452V259.025H-30.6758V262.304Z" fill="#081837"/>
<path fill-rule="evenodd" clip-rule="evenodd" d="M225.635 314.16C225.635 312.329 227.112 310.844 228.951 310.844C229.495 310.844 230.01 310.977 230.457 311.205C231.534 311.759 232.268 312.874 232.268 314.16C232.268 315.99 230.781 317.475 228.951 317.475C227.112 317.475 225.635 315.99 225.635 314.16ZM210.243 314.16C210.243 324.231 218.41 332.388 228.475 332.388C238.548 332.388 246.707 324.231 246.707 314.16C246.707 307.233 242.847 301.21 237.148 298.122C234.566 296.722 231.611 295.931 228.475 295.931C218.41 295.931 210.243 304.096 210.243 314.16Z" fill="#212121"/>
<path fill-rule="evenodd" clip-rule="evenodd" d="M225.635 314.16C225.635 315.99 227.112 317.475 228.951 317.475C230.781 317.475 232.268 315.99 232.268 314.16C232.268 312.874 231.534 311.76 230.457 311.206C230.011 310.978 229.495 310.845 228.951 310.845C227.112 310.845 225.635 312.33 225.635 314.16Z" fill="#F57153"/>
<path fill-rule="evenodd" clip-rule="evenodd" d="M225.635 314.16C225.635 315.99 227.112 317.475 228.951 317.475C230.781 317.475 232.268 315.99 232.268 314.16C232.268 312.874 231.534 311.76 230.457 311.206C230.011 310.978 229.495 310.845 228.951 310.845C227.112 310.845 225.635 312.33 225.635 314.16Z" fill="#F57153"/>
<path fill-rule="evenodd" clip-rule="evenodd" d="M237.943 314.399C237.943 319.432 233.861 323.513 228.829 323.513C223.793 323.513 219.713 319.432 219.713 314.399C219.713 309.365 223.793 305.284 228.829 305.284C233.861 305.284 237.943 309.365 237.943 314.399Z" fill="white"/>
<path fill-rule="evenodd" clip-rule="evenodd" d="M227.474 323.418C227.922 323.475 228.37 323.513 228.827 323.513C233.86 323.513 237.948 319.435 237.948 314.403C237.948 309.362 233.86 305.284 228.827 305.284C228.37 305.284 227.922 305.323 227.474 305.381C231.867 306.028 235.241 309.82 235.241 314.403C235.241 318.976 231.867 322.77 227.474 323.418Z" fill="#BDBDBD"/>
<path fill-rule="evenodd" clip-rule="evenodd" d="M232.27 314.399C232.27 316.232 230.785 317.717 228.951 317.717C227.117 317.717 225.632 316.232 225.632 314.399C225.632 312.565 227.117 311.08 228.951 311.08C230.785 311.08 232.27 312.565 232.27 314.399Z" fill="#212121"/>
<path d="M228.951 314.398L257.292 248.155H266.89" stroke="#212121" stroke-width="2" stroke-linecap="round" stroke-linejoin="round"/>
<path fill-rule="evenodd" clip-rule="evenodd" d="M227.482 287.276L240.034 288.772L255.321 309.125C257.876 312.452 261.841 314.396 266.033 314.396H315.214L329.518 290.935H345.721V280.232H295.447L300.211 287.239C300.421 287.542 300.431 287.942 300.24 288.266L288.193 308.364H268.302C264.176 308.364 260.306 306.373 257.915 303.018L251.662 294.252C249.698 291.506 248.908 288.096 249.46 284.768L253.253 261.681C253.529 260.013 251.461 259.003 250.318 260.25L226.9 285.685C226.367 286.255 226.709 287.179 227.482 287.276Z" fill="white"/>
<path fill-rule="evenodd" clip-rule="evenodd" d="M235.507 258.516C235.507 260.813 236.441 262.899 237.947 264.405V252.627C236.441 254.133 235.507 256.209 235.507 258.516Z" fill="#FFD249"/>
<path fill-rule="evenodd" clip-rule="evenodd" d="M324.115 285.225H299.018L295.448 280.518H324.115V285.225Z" fill="#BDBDBD"/>
<path fill-rule="evenodd" clip-rule="evenodd" d="M341.354 278.436L337.581 267.745C337.372 267.154 336.784 266.783 336.163 266.851L291.095 271.69C290.407 271.764 289.889 272.342 289.889 273.032V278.886C289.889 279.632 290.492 280.236 291.239 280.236H340.081C341.012 280.236 341.664 279.314 341.354 278.436Z" fill="#212121"/>
<path fill-rule="evenodd" clip-rule="evenodd" d="M257.001 259.243L257.009 259.234L257.001 259.243Z" fill="#F57153"/>
<path fill-rule="evenodd" clip-rule="evenodd" d="M237.946 250.94V266.093C238.995 266.578 240.157 266.845 241.396 266.845C241.807 266.845 242.216 266.817 242.616 266.76C246.629 266.169 249.717 262.699 249.717 258.517C249.717 254.333 246.629 250.865 242.616 250.274C242.216 250.218 241.807 250.188 241.396 250.188C240.157 250.188 238.995 250.454 237.946 250.94Z" fill="white"/>
<path fill-rule="evenodd" clip-rule="evenodd" d="M328.414 314.16C328.414 312.825 329.204 311.673 330.349 311.149C330.768 310.949 331.234 310.844 331.73 310.844C333.561 310.844 335.048 312.329 335.048 314.16C335.048 315.99 333.561 317.475 331.73 317.475C329.901 317.475 328.414 315.99 328.414 314.16ZM313.498 314.16C313.498 324.231 321.657 332.388 331.73 332.388C338.698 332.388 344.759 328.482 347.828 322.727C349.19 320.172 349.962 317.257 349.962 314.16C349.962 304.096 341.795 295.931 331.73 295.931C329.005 295.931 326.431 296.521 324.115 297.599C317.843 300.476 313.498 306.813 313.498 314.16Z" fill="#212121"/>
<path fill-rule="evenodd" clip-rule="evenodd" d="M328.414 314.16C328.414 312.825 329.204 311.673 330.349 311.149C330.768 310.949 331.234 310.844 331.73 310.844C333.561 310.844 335.048 312.329 335.048 314.16C335.048 315.99 333.561 317.475 331.73 317.475C329.901 317.475 328.414 315.99 328.414 314.16ZM313.498 314.16C313.498 324.231 321.657 332.388 331.73 332.388C338.698 332.388 344.759 328.482 347.828 322.727C349.19 320.172 349.962 317.257 349.962 314.16C349.962 304.096 341.795 295.931 331.73 295.931C329.005 295.931 326.431 296.521 324.115 297.599C317.843 300.476 313.498 306.813 313.498 314.16Z" stroke="#231F20" stroke-width="0.047" stroke-linecap="round" stroke-linejoin="round"/>
<path fill-rule="evenodd" clip-rule="evenodd" d="M328.414 314.16C328.414 315.99 329.901 317.475 331.73 317.475C333.561 317.475 335.048 315.99 335.048 314.16C335.048 312.33 333.561 310.845 331.73 310.845C331.234 310.845 330.768 310.949 330.349 311.15C329.204 311.673 328.414 312.826 328.414 314.16Z" fill="#F57153"/>
<path fill-rule="evenodd" clip-rule="evenodd" d="M328.414 314.16C328.414 315.99 329.901 317.475 331.73 317.475C333.561 317.475 335.048 315.99 335.048 314.16C335.048 312.33 333.561 310.845 331.73 310.845C331.234 310.845 330.768 310.949 330.349 311.15C329.204 311.673 328.414 312.826 328.414 314.16Z" fill="#F57153"/>
<path fill-rule="evenodd" clip-rule="evenodd" d="M324.115 297.599L330.349 311.149L331.73 314.16" fill="#F57153"/>
<path fill-rule="evenodd" clip-rule="evenodd" d="M340.844 314.399C340.844 319.432 336.762 323.513 331.728 323.513C326.694 323.513 322.612 319.432 322.612 314.399C322.612 309.365 326.694 305.284 331.728 305.284C336.762 305.284 340.844 309.365 340.844 314.399Z" fill="white"/>
<path fill-rule="evenodd" clip-rule="evenodd" d="M330.371 323.418C330.819 323.475 331.267 323.513 331.725 323.513C336.757 323.513 340.846 319.435 340.846 314.403C340.846 309.362 336.757 305.284 331.725 305.284C331.267 305.284 330.819 305.323 330.371 305.381C334.765 306.028 338.138 309.82 338.138 314.403C338.138 318.976 334.765 322.77 330.371 323.418Z" fill="#BDBDBD"/>
<path fill-rule="evenodd" clip-rule="evenodd" d="M350.879 287.05L361.081 305.259C361.392 305.937 360.536 306.547 359.998 306.028L340.157 287.05" fill="#212121"/>
<path d="M331.73 314.398L320.721 287.05" stroke="#212121" stroke-width="2" stroke-linecap="round" stroke-linejoin="round"/>
<path fill-rule="evenodd" clip-rule="evenodd" d="M335.049 314.399C335.049 316.232 333.562 317.717 331.73 317.717C329.896 317.717 328.409 316.232 328.409 314.399C328.409 312.565 329.896 311.08 331.73 311.08C333.562 311.08 335.049 312.565 335.049 314.399Z" fill="#212121"/>
<path fill-rule="evenodd" clip-rule="evenodd" d="M312.126 293.859C312.126 294.278 312.184 294.706 312.307 295.135L313.24 298.394C313.947 300.844 316.51 302.262 318.96 301.549L328.987 298.633L364.86 288.178C366.833 287.607 368.187 285.805 368.187 283.757V253.721C368.187 251.215 366.185 249.166 363.688 249.109L323.525 248.156C320.942 248.099 318.808 250.176 318.808 252.767V284.995C318.808 287.055 317.444 288.866 315.463 289.428C313.441 290.009 312.126 291.847 312.126 293.859Z" fill="#F57153"/>
<path fill-rule="evenodd" clip-rule="evenodd" d="M343.498 284.386L342.413 283.115C336.919 276.673 333.643 270.86 333.643 267.562C333.643 262.128 338.063 257.708 343.498 257.708C348.932 257.708 353.353 262.128 353.353 267.562C353.353 270.86 350.075 276.673 344.582 283.113L343.498 284.386ZM343.498 256.28C337.268 256.28 332.216 261.331 332.216 267.562C332.216 273.758 341.099 283.858 343.101 286.053C343.313 286.287 343.681 286.287 343.895 286.053C345.896 283.858 354.78 273.758 354.78 267.562C354.78 261.331 349.729 256.28 343.498 256.28Z" fill="white"/>
<path fill-rule="evenodd" clip-rule="evenodd" d="M351.666 269.216C350.816 272.3 347.921 276.951 343.746 281.894C343.616 282.047 343.378 282.047 343.248 281.894C342.762 281.318 342.293 280.746 341.843 280.18C340.592 278.611 339.488 277.089 338.55 275.657C338.42 275.458 338.539 275.193 338.773 275.159C341.103 274.825 343.349 273.761 345.143 271.969C346.882 270.232 349.045 269.18 351.298 268.813C351.531 268.776 351.729 268.988 351.666 269.216Z" fill="white"/>
</g>
<defs>
<clipPath id="clip0">
<rect width="400" height="350" fill="white"/>
</clipPath>
</defs>
</svg>
