<svg width="400" height="350" viewBox="0 0 400 350" fill="none" xmlns="http://www.w3.org/2000/svg">
<g clip-path="url(#clip0)">
<rect width="400" height="350" fill="#FEF6DF"/>
<path fill-rule="evenodd" clip-rule="evenodd" d="M93.1221 332.135H127.741V248.853H93.1221V332.135Z" fill="#A4BBD6"/>
<path fill-rule="evenodd" clip-rule="evenodd" d="M286.157 225.844V149.728H272.866V129.341H268.116V99.4367H241.954V77.4611H239.625V99.4367H234.5V71.9277H232.172V99.4367H215.633V149.728H207.089V225.844H199.765V332.095H291.306V225.844H286.157Z" fill="#3C4D6B"/>
<path fill-rule="evenodd" clip-rule="evenodd" d="M220.334 117.676H223.965V108.392H220.334V117.676Z" fill="white"/>
<path fill-rule="evenodd" clip-rule="evenodd" d="M229.293 117.676H232.923V108.392H229.293V117.676Z" fill="white"/>
<path fill-rule="evenodd" clip-rule="evenodd" d="M238.251 117.676H241.881V108.392H238.251V117.676Z" fill="white"/>
<path fill-rule="evenodd" clip-rule="evenodd" d="M247.208 117.676H250.84V108.392H247.208V117.676Z" fill="white"/>
<path fill-rule="evenodd" clip-rule="evenodd" d="M220.334 133.142H223.965V123.857H220.334V133.142Z" fill="white"/>
<path fill-rule="evenodd" clip-rule="evenodd" d="M229.293 133.142H232.923V123.857H229.293V133.142Z" fill="white"/>
<path fill-rule="evenodd" clip-rule="evenodd" d="M238.251 133.142H241.881V123.857H238.251V133.142Z" fill="white"/>
<path fill-rule="evenodd" clip-rule="evenodd" d="M247.208 133.142H250.84V123.857H247.208V133.142Z" fill="white"/>
<path fill-rule="evenodd" clip-rule="evenodd" d="M220.334 148.608H223.965V139.323H220.334V148.608Z" fill="white"/>
<path fill-rule="evenodd" clip-rule="evenodd" d="M229.293 148.608H232.923V139.323H229.293V148.608Z" fill="white"/>
<path fill-rule="evenodd" clip-rule="evenodd" d="M257.371 117.676H261.003V108.392H257.371V117.676Z" fill="white"/>
<path fill-rule="evenodd" clip-rule="evenodd" d="M49.9814 331.911H104.848V123.136H49.9814V331.911Z" fill="#081837"/>
<path fill-rule="evenodd" clip-rule="evenodd" d="M58.5547 197.111H96.2754V108.341H58.5547V197.111Z" fill="#081837"/>
<path fill-rule="evenodd" clip-rule="evenodd" d="M67.127 147.794H87.7019V98.4775H67.127V147.794Z" fill="#081837"/>
<path fill-rule="evenodd" clip-rule="evenodd" d="M84.2733 123.136H70.5566V90.2578H75.5068H80.4071H84.2733V123.136Z" fill="#081837"/>
<path fill-rule="evenodd" clip-rule="evenodd" d="M75.1327 67.1992H74.6578H74.1777V100.077H75.5065V67.1992H75.1327Z" fill="#3C4D6B"/>
<path fill-rule="evenodd" clip-rule="evenodd" d="M78.5615 65.5996H78.0865H77.6064V98.4776H78.937V65.5996H78.5615Z" fill="#3C4D6B"/>
<path fill-rule="evenodd" clip-rule="evenodd" d="M48.2666 124.78H106.562V123.136H48.2666V124.78Z" fill="#3C4D6B"/>
<path fill-rule="evenodd" clip-rule="evenodd" d="M56.8398 109.985H96.2752V108.341H56.8398V109.985Z" fill="#3C4D6B"/>
<path fill-rule="evenodd" clip-rule="evenodd" d="M65.4121 100.021H87.7016V98.5781H65.4121V100.021Z" fill="#3C4D6B"/>
<path fill-rule="evenodd" clip-rule="evenodd" d="M62.0869 121.492H63.594V111.629H62.0869V121.492Z" fill="#3C4D6B"/>
<path fill-rule="evenodd" clip-rule="evenodd" d="M67.2305 121.492H68.7376V111.629H67.2305V121.492Z" fill="#3C4D6B"/>
<path fill-rule="evenodd" clip-rule="evenodd" d="M72.375 121.492H73.8821V111.629H72.375V121.492Z" fill="#3C4D6B"/>
<path fill-rule="evenodd" clip-rule="evenodd" d="M75.8037 121.492H77.3108V111.629H75.8037V121.492Z" fill="#3C4D6B"/>
<path fill-rule="evenodd" clip-rule="evenodd" d="M80.9473 121.492H82.4544V111.629H80.9473V121.492Z" fill="#3C4D6B"/>
<path fill-rule="evenodd" clip-rule="evenodd" d="M86.0918 121.492H87.5989V111.629H86.0918V121.492Z" fill="#3C4D6B"/>
<path fill-rule="evenodd" clip-rule="evenodd" d="M91.2344 121.492H92.7415V111.629H91.2344V121.492Z" fill="#3C4D6B"/>
<path fill-rule="evenodd" clip-rule="evenodd" d="M55.125 142.863H58.5542V131.355H55.125V142.863Z" fill="#3C4D6B"/>
<path fill-rule="evenodd" clip-rule="evenodd" d="M63.6973 142.863H67.1264V131.355H63.6973V142.863Z" fill="#3C4D6B"/>
<path fill-rule="evenodd" clip-rule="evenodd" d="M72.2705 142.863H75.6997V131.355H72.2705V142.863Z" fill="#3C4D6B"/>
<path fill-rule="evenodd" clip-rule="evenodd" d="M79.1289 142.863H82.5581V131.355H79.1289V142.863Z" fill="#3C4D6B"/>
<path fill-rule="evenodd" clip-rule="evenodd" d="M87.7021 142.863H91.1313V131.355H87.7021V142.863Z" fill="#3C4D6B"/>
<path fill-rule="evenodd" clip-rule="evenodd" d="M96.2754 142.863H99.7046V131.355H96.2754V142.863Z" fill="#3C4D6B"/>
<path fill-rule="evenodd" clip-rule="evenodd" d="M55.125 159.302H58.5542V147.795H55.125V159.302Z" fill="#3C4D6B"/>
<path fill-rule="evenodd" clip-rule="evenodd" d="M63.6973 159.302H67.1264V147.795H63.6973V159.302Z" fill="#3C4D6B"/>
<path fill-rule="evenodd" clip-rule="evenodd" d="M72.2705 159.302H75.6997V147.795H72.2705V159.302Z" fill="#3C4D6B"/>
<path fill-rule="evenodd" clip-rule="evenodd" d="M79.1289 159.302H82.5581V147.795H79.1289V159.302Z" fill="#3C4D6B"/>
<path fill-rule="evenodd" clip-rule="evenodd" d="M87.7021 159.302H91.1313V147.795H87.7021V159.302Z" fill="#3C4D6B"/>
<path fill-rule="evenodd" clip-rule="evenodd" d="M96.2754 159.302H99.7046V147.795H96.2754V159.302Z" fill="#3C4D6B"/>
<path fill-rule="evenodd" clip-rule="evenodd" d="M55.125 177.384H58.5542V165.877H55.125V177.384Z" fill="#3C4D6B"/>
<path fill-rule="evenodd" clip-rule="evenodd" d="M63.6973 177.384H67.1264V165.877H63.6973V177.384Z" fill="#3C4D6B"/>
<path fill-rule="evenodd" clip-rule="evenodd" d="M72.2705 177.384H75.6997V165.877H72.2705V177.384Z" fill="#3C4D6B"/>
<path fill-rule="evenodd" clip-rule="evenodd" d="M79.1289 177.384H82.5581V165.877H79.1289V177.384Z" fill="#3C4D6B"/>
<path fill-rule="evenodd" clip-rule="evenodd" d="M87.7021 177.384H91.1313V165.877H87.7021V177.384Z" fill="#3C4D6B"/>
<path fill-rule="evenodd" clip-rule="evenodd" d="M96.2754 177.384H99.7046V165.877H96.2754V177.384Z" fill="#3C4D6B"/>
<path fill-rule="evenodd" clip-rule="evenodd" d="M55.125 193.824H58.5542V182.316H55.125V193.824Z" fill="#3C4D6B"/>
<path fill-rule="evenodd" clip-rule="evenodd" d="M63.6973 193.824H67.1264V182.316H63.6973V193.824Z" fill="#3C4D6B"/>
<path fill-rule="evenodd" clip-rule="evenodd" d="M72.2705 193.824H75.6997V182.316H72.2705V193.824Z" fill="#3C4D6B"/>
<path fill-rule="evenodd" clip-rule="evenodd" d="M79.1289 193.824H82.5581V182.316H79.1289V193.824Z" fill="#3C4D6B"/>
<path fill-rule="evenodd" clip-rule="evenodd" d="M87.7021 193.824H91.1313V182.316H87.7021V193.824Z" fill="#3C4D6B"/>
<path fill-rule="evenodd" clip-rule="evenodd" d="M96.2754 193.824H99.7046V182.316H96.2754V193.824Z" fill="#3C4D6B"/>
<path fill-rule="evenodd" clip-rule="evenodd" d="M55.125 211.907H58.5542V200.399H55.125V211.907Z" fill="#3C4D6B"/>
<path fill-rule="evenodd" clip-rule="evenodd" d="M63.6973 211.907H67.1264V200.399H63.6973V211.907Z" fill="#3C4D6B"/>
<path fill-rule="evenodd" clip-rule="evenodd" d="M72.2705 211.907H75.6997V200.399H72.2705V211.907Z" fill="#3C4D6B"/>
<path fill-rule="evenodd" clip-rule="evenodd" d="M79.1289 211.907H82.5581V200.399H79.1289V211.907Z" fill="#3C4D6B"/>
<path fill-rule="evenodd" clip-rule="evenodd" d="M87.7021 211.907H91.1313V200.399H87.7021V211.907Z" fill="#3C4D6B"/>
<path fill-rule="evenodd" clip-rule="evenodd" d="M96.2754 211.907H99.7046V200.399H96.2754V211.907Z" fill="#3C4D6B"/>
<path fill-rule="evenodd" clip-rule="evenodd" d="M55.125 228.346H58.5542V216.839H55.125V228.346Z" fill="#3C4D6B"/>
<path fill-rule="evenodd" clip-rule="evenodd" d="M63.6973 228.346H67.1264V216.839H63.6973V228.346Z" fill="#3C4D6B"/>
<path fill-rule="evenodd" clip-rule="evenodd" d="M72.2705 228.346H75.6997V216.839H72.2705V228.346Z" fill="#3C4D6B"/>
<path fill-rule="evenodd" clip-rule="evenodd" d="M79.1289 228.346H82.5581V216.839H79.1289V228.346Z" fill="#3C4D6B"/>
<path fill-rule="evenodd" clip-rule="evenodd" d="M87.7021 228.346H91.1313V216.839H87.7021V228.346Z" fill="#3C4D6B"/>
<path fill-rule="evenodd" clip-rule="evenodd" d="M96.2754 228.346H99.7046V216.839H96.2754V228.346Z" fill="#3C4D6B"/>
<path fill-rule="evenodd" clip-rule="evenodd" d="M55.125 244.785H58.5542V233.277H55.125V244.785Z" fill="#3C4D6B"/>
<path fill-rule="evenodd" clip-rule="evenodd" d="M63.6973 244.785H67.1264V233.277H63.6973V244.785Z" fill="#3C4D6B"/>
<path fill-rule="evenodd" clip-rule="evenodd" d="M72.2705 244.785H75.6997V233.277H72.2705V244.785Z" fill="#3C4D6B"/>
<path fill-rule="evenodd" clip-rule="evenodd" d="M79.1289 244.785H82.5581V233.277H79.1289V244.785Z" fill="#3C4D6B"/>
<path fill-rule="evenodd" clip-rule="evenodd" d="M87.7021 244.785H91.1313V233.277H87.7021V244.785Z" fill="#3C4D6B"/>
<path fill-rule="evenodd" clip-rule="evenodd" d="M96.2754 244.785H99.7046V233.277H96.2754V244.785Z" fill="#3C4D6B"/>
<path fill-rule="evenodd" clip-rule="evenodd" d="M55.125 262.868H58.5542V251.36H55.125V262.868Z" fill="#3C4D6B"/>
<path fill-rule="evenodd" clip-rule="evenodd" d="M63.6973 262.868H67.1264V251.36H63.6973V262.868Z" fill="#3C4D6B"/>
<path fill-rule="evenodd" clip-rule="evenodd" d="M72.2705 262.868H75.6997V251.36H72.2705V262.868Z" fill="#3C4D6B"/>
<path fill-rule="evenodd" clip-rule="evenodd" d="M79.1289 262.868H82.5581V251.36H79.1289V262.868Z" fill="#3C4D6B"/>
<path fill-rule="evenodd" clip-rule="evenodd" d="M87.7021 262.868H91.1313V251.36H87.7021V262.868Z" fill="#3C4D6B"/>
<path fill-rule="evenodd" clip-rule="evenodd" d="M96.2754 262.868H99.7046V251.36H96.2754V262.868Z" fill="#3C4D6B"/>
<path fill-rule="evenodd" clip-rule="evenodd" d="M55.125 279.306H58.5542V267.799H55.125V279.306Z" fill="#3C4D6B"/>
<path fill-rule="evenodd" clip-rule="evenodd" d="M63.6973 279.306H67.1264V267.799H63.6973V279.306Z" fill="#3C4D6B"/>
<path fill-rule="evenodd" clip-rule="evenodd" d="M72.2705 279.306H75.6997V267.799H72.2705V279.306Z" fill="#3C4D6B"/>
<path fill-rule="evenodd" clip-rule="evenodd" d="M79.1289 279.306H82.5581V267.799H79.1289V279.306Z" fill="#3C4D6B"/>
<path fill-rule="evenodd" clip-rule="evenodd" d="M87.7021 279.306H91.1313V267.799H87.7021V279.306Z" fill="#3C4D6B"/>
<path fill-rule="evenodd" clip-rule="evenodd" d="M96.2754 279.306H99.7046V267.799H96.2754V279.306Z" fill="#3C4D6B"/>
<path fill-rule="evenodd" clip-rule="evenodd" d="M55.125 295.746H58.5542V284.238H55.125V295.746Z" fill="#3C4D6B"/>
<path fill-rule="evenodd" clip-rule="evenodd" d="M63.6973 295.746H67.1264V284.238H63.6973V295.746Z" fill="#3C4D6B"/>
<path fill-rule="evenodd" clip-rule="evenodd" d="M72.2705 295.746H75.6997V284.238H72.2705V295.746Z" fill="#3C4D6B"/>
<path fill-rule="evenodd" clip-rule="evenodd" d="M79.1289 295.746H82.5581V284.238H79.1289V295.746Z" fill="#3C4D6B"/>
<path fill-rule="evenodd" clip-rule="evenodd" d="M96.2754 295.746H99.7046V284.238H96.2754V295.746Z" fill="#3C4D6B"/>
<path fill-rule="evenodd" clip-rule="evenodd" d="M55.125 313.828H58.5542V302.32H55.125V313.828Z" fill="#3C4D6B"/>
<path fill-rule="evenodd" clip-rule="evenodd" d="M87.7021 295.746H91.1313V284.238H87.7021V295.746Z" fill="#3C4D6B"/>
<path fill-rule="evenodd" clip-rule="evenodd" d="M63.6973 313.828H67.1264V302.32H63.6973V313.828Z" fill="#3C4D6B"/>
<path fill-rule="evenodd" clip-rule="evenodd" d="M72.2705 313.828H75.6997V302.32H72.2705V313.828Z" fill="#3C4D6B"/>
<path fill-rule="evenodd" clip-rule="evenodd" d="M79.1289 313.828H82.5581V302.32H79.1289V313.828Z" fill="#3C4D6B"/>
<path fill-rule="evenodd" clip-rule="evenodd" d="M87.7021 313.828H91.1313V302.32H87.7021V313.828Z" fill="#3C4D6B"/>
<path fill-rule="evenodd" clip-rule="evenodd" d="M96.2754 313.828H99.7046V302.32H96.2754V313.828Z" fill="#3C4D6B"/>
<path fill-rule="evenodd" clip-rule="evenodd" d="M106.559 331.744H154.95V235.305H106.559V331.744Z" fill="#3C4D6B"/>
<path fill-rule="evenodd" clip-rule="evenodd" d="M108.186 243.114H153.324V230.158H108.186V243.114Z" fill="#3C4D6B"/>
<path fill-rule="evenodd" clip-rule="evenodd" d="M111.639 239.012H129.513V224.856H111.639V239.012Z" fill="#3C4D6B"/>
<path fill-rule="evenodd" clip-rule="evenodd" d="M105.183 236.373H156.324V233.646H105.183V236.373Z" fill="#081837"/>
<path fill-rule="evenodd" clip-rule="evenodd" d="M121.984 228.846H111.64V221.395H119.059L121.984 228.846Z" fill="#3C4D6B"/>
<path fill-rule="evenodd" clip-rule="evenodd" d="M126.532 248.915H128.246V242.31H126.532V248.915Z" fill="white"/>
<path fill-rule="evenodd" clip-rule="evenodd" d="M133.39 248.915H135.104V242.31H133.39V248.915Z" fill="white"/>
<path fill-rule="evenodd" clip-rule="evenodd" d="M140.246 248.915H141.96V242.31H140.246V248.915Z" fill="white"/>
<path fill-rule="evenodd" clip-rule="evenodd" d="M145.389 248.915H147.103V242.31H145.389V248.915Z" fill="white"/>
<path fill-rule="evenodd" clip-rule="evenodd" d="M114.533 248.914H116.247V242.31H114.533V248.914Z" fill="white"/>
<path fill-rule="evenodd" clip-rule="evenodd" d="M119.676 248.915H121.39V242.31H119.676V248.915Z" fill="white"/>
<path fill-rule="evenodd" clip-rule="evenodd" d="M126.532 258.822H128.246V252.217H126.532V258.822Z" fill="white"/>
<path fill-rule="evenodd" clip-rule="evenodd" d="M133.39 258.822H135.104V252.217H133.39V258.822Z" fill="white"/>
<path fill-rule="evenodd" clip-rule="evenodd" d="M140.246 258.822H141.96V252.217H140.246V258.822Z" fill="white"/>
<path fill-rule="evenodd" clip-rule="evenodd" d="M145.389 258.822H147.103V252.217H145.389V258.822Z" fill="white"/>
<path fill-rule="evenodd" clip-rule="evenodd" d="M114.533 258.822H116.247V252.217H114.533V258.822Z" fill="white"/>
<path fill-rule="evenodd" clip-rule="evenodd" d="M119.676 258.822H121.39V252.217H119.676V258.822Z" fill="white"/>
<path fill-rule="evenodd" clip-rule="evenodd" d="M126.532 268.73H128.246V262.125H126.532V268.73Z" fill="white"/>
<path fill-rule="evenodd" clip-rule="evenodd" d="M133.39 268.73H135.104V262.125H133.39V268.73Z" fill="white"/>
<path fill-rule="evenodd" clip-rule="evenodd" d="M140.246 268.73H141.96V262.125H140.246V268.73Z" fill="white"/>
<path fill-rule="evenodd" clip-rule="evenodd" d="M145.389 268.73H147.103V262.125H145.389V268.73Z" fill="white"/>
<path fill-rule="evenodd" clip-rule="evenodd" d="M114.533 268.73H116.247V262.125H114.533V268.73Z" fill="white"/>
<path fill-rule="evenodd" clip-rule="evenodd" d="M119.676 268.73H121.39V262.125H119.676V268.73Z" fill="white"/>
<path fill-rule="evenodd" clip-rule="evenodd" d="M181.084 267.311H204.413V154.603H181.084V267.311Z" fill="#081837"/>
<path fill-rule="evenodd" clip-rule="evenodd" d="M186.234 185.83H187.447V124.537H186.234V185.83Z" fill="#081837"/>
<path fill-rule="evenodd" clip-rule="evenodd" d="M190.172 190.477H191.384V129.185H190.172V190.477Z" fill="#081837"/>
<path fill-rule="evenodd" clip-rule="evenodd" d="M182.884 162.735H197.142V147.631H182.884V162.735Z" fill="#081837"/>
<path fill-rule="evenodd" clip-rule="evenodd" d="M168.634 331.081H204.41V222.036H168.634V331.081Z" fill="#081837"/>
<path fill-rule="evenodd" clip-rule="evenodd" d="M173.09 235.855H175.798V233.248H173.09V235.855Z" fill="white"/>
<path fill-rule="evenodd" clip-rule="evenodd" d="M178.529 235.855H181.238V233.248H178.529V235.855Z" fill="white"/>
<path fill-rule="evenodd" clip-rule="evenodd" d="M173.09 241.983H175.798V239.374H173.09V241.983Z" fill="white"/>
<path fill-rule="evenodd" clip-rule="evenodd" d="M178.529 241.983H181.238V239.374H178.529V241.983Z" fill="white"/>
<path fill-rule="evenodd" clip-rule="evenodd" d="M173.09 247.906H175.798V245.299H173.09V247.906Z" fill="white"/>
<path fill-rule="evenodd" clip-rule="evenodd" d="M184.577 235.855H187.284V233.248H184.577V235.855Z" fill="white"/>
<path fill-rule="evenodd" clip-rule="evenodd" d="M260.003 222.739H304.758V204.575H260.003V222.739Z" fill="#081837"/>
<path fill-rule="evenodd" clip-rule="evenodd" d="M260.003 331.72H304.758V216.134H260.003V331.72Z" fill="#081837"/>
<path fill-rule="evenodd" clip-rule="evenodd" d="M261.724 221.087H263.445V214.482H261.724V221.087Z" fill="white"/>
<path fill-rule="evenodd" clip-rule="evenodd" d="M266.888 221.087H268.609V214.482H266.888V221.087Z" fill="white"/>
<path fill-rule="evenodd" clip-rule="evenodd" d="M270.331 221.087H272.052V214.482H270.331V221.087Z" fill="white"/>
<path fill-rule="evenodd" clip-rule="evenodd" d="M273.773 221.087H275.495V214.482H273.773V221.087Z" fill="white"/>
<path fill-rule="evenodd" clip-rule="evenodd" d="M278.938 221.087H280.659V214.482H278.938V221.087Z" fill="white"/>
<path fill-rule="evenodd" clip-rule="evenodd" d="M282.38 221.087H284.101V214.482H282.38V221.087Z" fill="white"/>
<path fill-rule="evenodd" clip-rule="evenodd" d="M287.544 221.087H289.265V214.482H287.544V221.087Z" fill="white"/>
<path fill-rule="evenodd" clip-rule="evenodd" d="M290.987 221.087H292.709V214.482H290.987V221.087Z" fill="white"/>
<path fill-rule="evenodd" clip-rule="evenodd" d="M296.151 221.087H297.873V214.482H296.151V221.087Z" fill="white"/>
<path fill-rule="evenodd" clip-rule="evenodd" d="M299.594 221.087H301.315V214.482H299.594V221.087Z" fill="white"/>
<path fill-rule="evenodd" clip-rule="evenodd" d="M261.724 229.344H263.445V222.739H261.724V229.344Z" fill="white"/>
<path fill-rule="evenodd" clip-rule="evenodd" d="M266.888 229.344H268.609V222.739H266.888V229.344Z" fill="white"/>
<path fill-rule="evenodd" clip-rule="evenodd" d="M270.331 229.344H272.052V222.739H270.331V229.344Z" fill="white"/>
<path fill-rule="evenodd" clip-rule="evenodd" d="M273.773 229.344H275.495V222.739H273.773V229.344Z" fill="white"/>
<path fill-rule="evenodd" clip-rule="evenodd" d="M278.938 229.344H280.659V222.739H278.938V229.344Z" fill="white"/>
<path fill-rule="evenodd" clip-rule="evenodd" d="M282.38 229.344H284.101V222.739H282.38V229.344Z" fill="white"/>
<path fill-rule="evenodd" clip-rule="evenodd" d="M287.544 229.344H289.265V222.739H287.544V229.344Z" fill="white"/>
<path fill-rule="evenodd" clip-rule="evenodd" d="M290.987 229.344H292.709V222.739H290.987V229.344Z" fill="white"/>
<path fill-rule="evenodd" clip-rule="evenodd" d="M296.151 229.344H297.873V222.739H296.151V229.344Z" fill="white"/>
<path fill-rule="evenodd" clip-rule="evenodd" d="M299.594 229.344H301.315V222.739H299.594V229.344Z" fill="white"/>
<path fill-rule="evenodd" clip-rule="evenodd" d="M261.724 239.251H263.445V232.646H261.724V239.251Z" fill="white"/>
<path fill-rule="evenodd" clip-rule="evenodd" d="M266.888 239.251H268.609V232.646H266.888V239.251Z" fill="white"/>
<path fill-rule="evenodd" clip-rule="evenodd" d="M270.331 239.251H272.052V232.646H270.331V239.251Z" fill="white"/>
<path fill-rule="evenodd" clip-rule="evenodd" d="M273.773 239.251H275.495V232.646H273.773V239.251Z" fill="white"/>
<path fill-rule="evenodd" clip-rule="evenodd" d="M278.938 239.251H280.659V232.646H278.938V239.251Z" fill="white"/>
<path fill-rule="evenodd" clip-rule="evenodd" d="M282.38 239.251H284.101V232.646H282.38V239.251Z" fill="white"/>
<path fill-rule="evenodd" clip-rule="evenodd" d="M287.544 239.251H289.265V232.646H287.544V239.251Z" fill="white"/>
<path fill-rule="evenodd" clip-rule="evenodd" d="M290.987 239.251H292.709V232.646H290.987V239.251Z" fill="white"/>
<path fill-rule="evenodd" clip-rule="evenodd" d="M296.151 239.251H297.873V232.646H296.151V239.251Z" fill="white"/>
<path fill-rule="evenodd" clip-rule="evenodd" d="M299.594 239.251H301.315V232.646H299.594V239.251Z" fill="white"/>
<path fill-rule="evenodd" clip-rule="evenodd" d="M273.773 247.507H275.495V240.902H273.773V247.507Z" fill="white"/>
<path fill-rule="evenodd" clip-rule="evenodd" d="M278.938 247.507H280.659V240.902H278.938V247.507Z" fill="white"/>
<path fill-rule="evenodd" clip-rule="evenodd" d="M282.38 247.507H284.101V240.902H282.38V247.507Z" fill="white"/>
<path fill-rule="evenodd" clip-rule="evenodd" d="M287.544 247.507H289.265V240.902H287.544V247.507Z" fill="white"/>
<path fill-rule="evenodd" clip-rule="evenodd" d="M290.987 247.507H292.709V240.902H290.987V247.507Z" fill="white"/>
<path fill-rule="evenodd" clip-rule="evenodd" d="M296.151 247.507H297.873V240.902H296.151V247.507Z" fill="white"/>
<path fill-rule="evenodd" clip-rule="evenodd" d="M299.594 247.507H301.315V240.902H299.594V247.507Z" fill="white"/>
<path fill-rule="evenodd" clip-rule="evenodd" d="M278.938 257.415H280.659V250.81H278.938V257.415Z" fill="white"/>
<path fill-rule="evenodd" clip-rule="evenodd" d="M282.38 257.415H284.101V250.81H282.38V257.415Z" fill="white"/>
<path fill-rule="evenodd" clip-rule="evenodd" d="M287.544 257.415H289.265V250.81H287.544V257.415Z" fill="white"/>
<path fill-rule="evenodd" clip-rule="evenodd" d="M290.987 257.415H292.709V250.81H290.987V257.415Z" fill="white"/>
<path fill-rule="evenodd" clip-rule="evenodd" d="M296.151 257.415H297.873V250.81H296.151V257.415Z" fill="white"/>
<path fill-rule="evenodd" clip-rule="evenodd" d="M299.594 257.415H301.315V250.81H299.594V257.415Z" fill="white"/>
<path fill-rule="evenodd" clip-rule="evenodd" d="M44.708 333.731H2.08175V262.874H44.708V333.731Z" fill="#B0C4DA"/>
<path fill-rule="evenodd" clip-rule="evenodd" d="M1.59961 266.035H47.0685V262.422H1.59961V266.035Z" fill="#030B20"/>
<path fill-rule="evenodd" clip-rule="evenodd" d="M35.4277 265.933H36.3365V243.713H35.4277V265.933Z" fill="#030B20"/>
<path fill-rule="evenodd" clip-rule="evenodd" d="M32.6494 265.925H33.5581V248.099H32.6494V265.925Z" fill="#030B20"/>
<path fill-rule="evenodd" clip-rule="evenodd" d="M7.9873 278.184H10.9683V271.51H7.9873V278.184Z" fill="white"/>
<path fill-rule="evenodd" clip-rule="evenodd" d="M7.9873 288.958H10.9683V282.285H7.9873V288.958Z" fill="white"/>
<path fill-rule="evenodd" clip-rule="evenodd" d="M15.6338 278.184H18.6148V271.51H15.6338V278.184Z" fill="white"/>
<path fill-rule="evenodd" clip-rule="evenodd" d="M390.93 331.824H316.096V166.869L390.93 149.318V331.824Z" fill="#B0C4DA"/>
<path fill-rule="evenodd" clip-rule="evenodd" d="M312.81 331.824H319.385V163.967H312.81V331.824Z" fill="#3C4D6B"/>
<path fill-rule="evenodd" clip-rule="evenodd" d="M331.52 331.823H338.093V159.235H331.52V331.823Z" fill="#3C4D6B"/>
<path fill-rule="evenodd" clip-rule="evenodd" d="M350.225 331.824H356.8V154.322H350.225V331.824Z" fill="#3C4D6B"/>
<path fill-rule="evenodd" clip-rule="evenodd" d="M368.935 331.824H375.51V150.319H368.935V331.824Z" fill="#3C4D6B"/>
<path fill-rule="evenodd" clip-rule="evenodd" d="M387.643 331.824H394.218V146.062H387.643V331.824Z" fill="#3C4D6B"/>
<path fill-rule="evenodd" clip-rule="evenodd" d="M321.088 190.8H329.815V178.052H321.088V190.8Z" fill="#030B20"/>
<path fill-rule="evenodd" clip-rule="evenodd" d="M339.795 190.8H348.522V178.052H339.795V190.8Z" fill="#030B20"/>
<path fill-rule="evenodd" clip-rule="evenodd" d="M358.505 190.8H367.232V178.052H358.505V190.8Z" fill="#030B20"/>
<path fill-rule="evenodd" clip-rule="evenodd" d="M377.213 190.8H385.94V178.052H377.213V190.8Z" fill="#030B20"/>
<path fill-rule="evenodd" clip-rule="evenodd" d="M321.088 212.998H329.815V200.25H321.088V212.998Z" fill="#030B20"/>
<path fill-rule="evenodd" clip-rule="evenodd" d="M339.795 212.998H348.522V200.25H339.795V212.998Z" fill="#030B20"/>
<path fill-rule="evenodd" clip-rule="evenodd" d="M358.505 212.998H367.232V200.25H358.505V212.998Z" fill="#030B20"/>
<path fill-rule="evenodd" clip-rule="evenodd" d="M377.213 212.998H385.94V200.25H377.213V212.998Z" fill="#030B20"/>
<path fill-rule="evenodd" clip-rule="evenodd" d="M321.088 235.195H329.815V222.446H321.088V235.195Z" fill="#030B20"/>
<path fill-rule="evenodd" clip-rule="evenodd" d="M339.795 235.195H348.522V222.446H339.795V235.195Z" fill="#030B20"/>
<path fill-rule="evenodd" clip-rule="evenodd" d="M358.505 235.195H367.232V222.446H358.505V235.195Z" fill="#030B20"/>
<path fill-rule="evenodd" clip-rule="evenodd" d="M377.213 235.195H385.94V222.446H377.213V235.195Z" fill="#030B20"/>
<path fill-rule="evenodd" clip-rule="evenodd" d="M321.088 257.393H329.815V244.645H321.088V257.393Z" fill="#030B20"/>
<path fill-rule="evenodd" clip-rule="evenodd" d="M339.795 257.393H348.522V244.645H339.795V257.393Z" fill="#030B20"/>
<path fill-rule="evenodd" clip-rule="evenodd" d="M358.505 257.393H367.232V244.645H358.505V257.393Z" fill="#030B20"/>
<path fill-rule="evenodd" clip-rule="evenodd" d="M377.213 257.393H385.94V244.645H377.213V257.393Z" fill="#030B20"/>
<path fill-rule="evenodd" clip-rule="evenodd" d="M321.088 279.59H329.815V266.842H321.088V279.59Z" fill="#030B20"/>
<path fill-rule="evenodd" clip-rule="evenodd" d="M339.795 279.59H348.522V266.842H339.795V279.59Z" fill="#030B20"/>
<path fill-rule="evenodd" clip-rule="evenodd" d="M358.505 279.59H367.232V266.842H358.505V279.59Z" fill="#030B20"/>
<path fill-rule="evenodd" clip-rule="evenodd" d="M377.213 279.59H385.94V266.842H377.213V279.59Z" fill="#030B20"/>
<path fill-rule="evenodd" clip-rule="evenodd" d="M321.088 301.787H329.815V289.039H321.088V301.787Z" fill="#030B20"/>
<path fill-rule="evenodd" clip-rule="evenodd" d="M339.795 301.787H348.522V289.039H339.795V301.787Z" fill="#030B20"/>
<path fill-rule="evenodd" clip-rule="evenodd" d="M358.505 301.787H367.232V289.039H358.505V301.787Z" fill="#030B20"/>
<path fill-rule="evenodd" clip-rule="evenodd" d="M377.213 301.787H385.94V289.039H377.213V301.787Z" fill="#030B20"/>
<path fill-rule="evenodd" clip-rule="evenodd" d="M321.088 323.984H329.815V311.237H321.088V323.984Z" fill="#030B20"/>
<path fill-rule="evenodd" clip-rule="evenodd" d="M339.795 323.984H348.522V311.237H339.795V323.984Z" fill="#030B20"/>
<path fill-rule="evenodd" clip-rule="evenodd" d="M358.505 323.984H367.232V311.237H358.505V323.984Z" fill="#030B20"/>
<path fill-rule="evenodd" clip-rule="evenodd" d="M377.213 323.984H385.94V311.237H377.213V323.984Z" fill="#030B20"/>
<path fill-rule="evenodd" clip-rule="evenodd" d="M322.637 211.766H327V201.156H322.637V211.766Z" fill="white"/>
<path fill-rule="evenodd" clip-rule="evenodd" d="M323.27 190.19H327.633V179.58H323.27V190.19Z" fill="white"/>
<path fill-rule="evenodd" clip-rule="evenodd" d="M323.27 234.071H327.633V223.46H323.27V234.071Z" fill="white"/>
<path fill-rule="evenodd" clip-rule="evenodd" d="M322.637 256.152H327V245.542H322.637V256.152Z" fill="white"/>
<path fill-rule="evenodd" clip-rule="evenodd" d="M322.637 278.757H327V268.146H322.637V278.757Z" fill="white"/>
<path fill-rule="evenodd" clip-rule="evenodd" d="M323.27 300.374H327.633V289.763H323.27V300.374Z" fill="white"/>
<path fill-rule="evenodd" clip-rule="evenodd" d="M341.979 190.19H346.342V179.58H341.979V190.19Z" fill="white"/>
<path fill-rule="evenodd" clip-rule="evenodd" d="M341.498 211.766H345.862V201.156H341.498V211.766Z" fill="white"/>
<path fill-rule="evenodd" clip-rule="evenodd" d="M341.979 234.071H346.342V223.46H341.979V234.071Z" fill="white"/>
<path fill-rule="evenodd" clip-rule="evenodd" d="M341.346 256.152H345.709V245.542H341.346V256.152Z" fill="white"/>
<path fill-rule="evenodd" clip-rule="evenodd" d="M341.346 278.757H345.709V268.146H341.346V278.757Z" fill="white"/>
<path fill-rule="evenodd" clip-rule="evenodd" d="M341.979 300.374H346.342V289.763H341.979V300.374Z" fill="white"/>
<path fill-rule="evenodd" clip-rule="evenodd" d="M360.686 190.19H365.049V179.58H360.686V190.19Z" fill="white"/>
<path fill-rule="evenodd" clip-rule="evenodd" d="M360.358 212.131H364.722V201.521H360.358V212.131Z" fill="white"/>
<path fill-rule="evenodd" clip-rule="evenodd" d="M360.686 234.071H365.049V223.46H360.686V234.071Z" fill="white"/>
<path fill-rule="evenodd" clip-rule="evenodd" d="M360.053 256.152H364.416V245.542H360.053V256.152Z" fill="white"/>
<path fill-rule="evenodd" clip-rule="evenodd" d="M360.053 278.757H364.416V268.146H360.053V278.757Z" fill="white"/>
<path fill-rule="evenodd" clip-rule="evenodd" d="M360.686 300.374H365.049V289.763H360.686V300.374Z" fill="white"/>
<path fill-rule="evenodd" clip-rule="evenodd" d="M379.396 190.19H383.759V179.58H379.396V190.19Z" fill="white"/>
<path fill-rule="evenodd" clip-rule="evenodd" d="M379.219 212.131H383.582V201.521H379.219V212.131Z" fill="white"/>
<path fill-rule="evenodd" clip-rule="evenodd" d="M378.763 256.152H383.126V245.542H378.763V256.152Z" fill="white"/>
<path fill-rule="evenodd" clip-rule="evenodd" d="M378.763 278.757H383.126V268.146H378.763V278.757Z" fill="white"/>
<path fill-rule="evenodd" clip-rule="evenodd" d="M379.396 300.374H383.759V289.763H379.396V300.374Z" fill="white"/>
<path fill-rule="evenodd" clip-rule="evenodd" d="M379.396 234.071H383.759V223.46H379.396V234.071Z" fill="#FFD249"/>
<path fill-rule="evenodd" clip-rule="evenodd" d="M234.096 323.387C234.116 321.545 235.641 320.046 237.518 320.042C238.074 320.041 238.599 320.174 239.052 320.402C240.147 320.957 240.884 322.077 240.87 323.371C240.85 325.213 239.316 326.712 237.447 326.716C235.569 326.721 234.076 325.229 234.096 323.387ZM218.378 323.424C218.269 333.561 226.522 341.753 236.8 341.729C247.087 341.705 255.507 333.474 255.616 323.337C255.69 316.365 251.813 310.311 246.027 307.217C243.405 305.814 240.396 305.024 237.194 305.032C226.915 305.056 218.487 313.294 218.378 323.424Z" fill="#212121"/>
<path fill-rule="evenodd" clip-rule="evenodd" d="M234.099 323.388C234.079 325.23 235.572 326.722 237.449 326.717C239.319 326.713 240.853 325.214 240.873 323.372C240.887 322.078 240.15 320.958 239.055 320.403C238.602 320.174 238.077 320.042 237.521 320.043C235.643 320.047 234.119 321.546 234.099 323.388Z" fill="#F57153"/>
<path fill-rule="evenodd" clip-rule="evenodd" d="M234.099 323.388C234.079 325.23 235.572 326.722 237.449 326.717C239.319 326.713 240.853 325.214 240.873 323.372C240.887 322.078 240.15 320.958 239.055 320.403C238.602 320.174 238.077 320.042 237.521 320.043C235.643 320.047 234.119 321.546 234.099 323.388Z" fill="#F57153"/>
<path fill-rule="evenodd" clip-rule="evenodd" d="M246.666 323.598C246.612 328.664 242.399 332.781 237.26 332.794C232.117 332.806 227.995 328.707 228.049 323.641C228.103 318.575 232.314 314.457 237.457 314.445C242.596 314.433 246.72 318.531 246.666 323.598Z" fill="white"/>
<path fill-rule="evenodd" clip-rule="evenodd" d="M235.912 332.7C236.367 332.756 236.823 332.793 237.289 332.792C242.414 332.781 246.621 328.671 246.675 323.612C246.729 318.544 242.609 314.453 237.484 314.465C237.018 314.466 236.561 314.505 236.104 314.565C240.572 315.205 243.967 319.01 243.918 323.619C243.869 328.216 240.393 332.038 235.912 332.7Z" fill="#BDBDBD"/>
<path fill-rule="evenodd" clip-rule="evenodd" d="M240.872 323.612C240.852 325.457 239.319 326.956 237.447 326.96C235.574 326.964 234.073 325.473 234.093 323.627C234.113 321.782 235.646 320.284 237.518 320.279C239.391 320.275 240.892 321.766 240.872 323.612Z" fill="#212121"/>
<path d="M237.498 323.732L267.067 257.065L276.841 257.043" stroke="#212121" stroke-width="2" stroke-linecap="round" stroke-linejoin="round"/>
<path fill-rule="evenodd" clip-rule="evenodd" d="M236.305 296.539L249.137 298.021L264.566 318.525C267.146 321.876 271.183 323.829 275.474 323.82L325.813 323.71L340.704 300.003L357.288 299.967L357.403 289.167L305.945 289.279L310.747 296.339C310.959 296.645 310.964 297.048 310.765 297.376L298.22 317.683L277.861 317.728C273.637 317.737 269.697 315.737 267.286 312.356L260.979 303.524C258.998 300.758 258.226 297.319 258.827 293.959L262.956 270.653C263.256 268.969 261.15 267.955 259.967 269.216L235.727 294.935C235.175 295.511 235.515 296.443 236.305 296.539Z" fill="white"/>
<path fill-rule="evenodd" clip-rule="evenodd" d="M244.608 267.553C244.585 269.86 245.507 271.953 247.012 273.463L247.131 261.634C245.595 263.149 244.631 265.236 244.608 267.553Z" fill="#FFD249"/>
<path fill-rule="evenodd" clip-rule="evenodd" d="M335.301 294.35L309.576 294.392L305.965 289.623L335.348 289.576L335.301 294.35Z" fill="#BDBDBD"/>
<path fill-rule="evenodd" clip-rule="evenodd" d="M353 287.528L349.245 276.718C349.037 276.121 348.439 275.747 347.801 275.816L301.579 280.8C300.874 280.876 300.336 281.462 300.329 282.16L300.268 288.083C300.26 288.838 300.873 289.448 301.638 289.446L351.676 289.351C352.631 289.349 353.308 288.416 353 287.528Z" fill="#212121"/>
<path fill-rule="evenodd" clip-rule="evenodd" d="M266.637 268.28L266.646 268.27L266.637 268.28Z" fill="#F57153"/>
<path fill-rule="evenodd" clip-rule="evenodd" d="M247.211 259.944L247.048 275.184C248.112 275.67 249.294 275.935 250.556 275.932C250.976 275.931 251.393 275.903 251.802 275.844C255.899 275.24 259.085 271.743 259.13 267.536C259.175 263.328 256.064 259.848 251.979 259.263C251.572 259.207 251.155 259.177 250.735 259.178C249.473 259.181 248.285 259.452 247.211 259.944Z" fill="white"/>
<path fill-rule="evenodd" clip-rule="evenodd" d="M339.555 323.388C339.569 322.045 340.389 320.883 341.564 320.353C341.994 320.15 342.47 320.044 342.977 320.043C344.847 320.039 346.349 321.53 346.329 323.372C346.309 325.215 344.775 326.713 342.905 326.717C341.038 326.722 339.535 325.23 339.555 323.388ZM324.323 323.424C324.214 333.561 332.458 341.753 342.744 341.729C349.86 341.712 356.092 337.766 359.288 331.965C360.706 329.391 361.527 326.454 361.56 323.337C361.669 313.207 353.417 305.008 343.138 305.032C340.355 305.038 337.72 305.639 335.344 306.729C328.908 309.64 324.402 316.029 324.323 323.424Z" fill="#212121"/>
<path fill-rule="evenodd" clip-rule="evenodd" d="M339.555 323.388C339.569 322.045 340.389 320.883 341.564 320.353C341.994 320.15 342.47 320.044 342.977 320.043C344.847 320.039 346.349 321.53 346.329 323.372C346.309 325.215 344.775 326.713 342.905 326.717C341.038 326.722 339.535 325.23 339.555 323.388ZM324.323 323.424C324.214 333.561 332.458 341.753 342.744 341.729C349.86 341.712 356.092 337.766 359.288 331.965C360.706 329.391 361.527 326.454 361.56 323.337C361.669 313.207 353.417 305.008 343.138 305.032C340.355 305.038 337.72 305.639 335.344 306.729C328.908 309.64 324.402 316.029 324.323 323.424Z" stroke="#231F20" stroke-width="0.047" stroke-linecap="round" stroke-linejoin="round"/>
<path fill-rule="evenodd" clip-rule="evenodd" d="M339.555 323.388C339.535 325.23 341.038 326.722 342.905 326.717C344.775 326.713 346.309 325.214 346.329 323.372C346.349 321.53 344.846 320.039 342.977 320.043C342.47 320.044 341.994 320.15 341.564 320.353C340.389 320.883 339.569 322.045 339.555 323.388Z" fill="#F57153"/>
<path fill-rule="evenodd" clip-rule="evenodd" d="M339.555 323.388C339.535 325.23 341.038 326.722 342.905 326.717C344.775 326.713 346.309 325.214 346.329 323.372C346.349 321.53 344.846 320.039 342.977 320.043C342.47 320.044 341.994 320.15 341.564 320.353C340.389 320.883 339.569 322.045 339.555 323.388Z" fill="#F57153"/>
<path fill-rule="evenodd" clip-rule="evenodd" d="M335.307 306.757L341.502 320.362L342.874 323.385" fill="#F57153"/>
<path fill-rule="evenodd" clip-rule="evenodd" d="M352.248 323.598C352.193 328.664 347.981 332.782 342.84 332.794C337.699 332.806 333.575 328.707 333.629 323.641C333.683 318.575 337.896 314.457 343.037 314.445C348.178 314.433 352.302 318.531 352.248 323.598Z" fill="white"/>
<path fill-rule="evenodd" clip-rule="evenodd" d="M341.488 332.7C341.944 332.756 342.399 332.793 342.865 332.792C347.99 332.781 352.197 328.671 352.251 323.612C352.305 318.544 348.185 314.453 343.06 314.465C342.594 314.466 342.137 314.505 341.681 314.565C346.148 315.205 349.543 319.01 349.494 323.619C349.445 328.216 345.969 332.038 341.488 332.7Z" fill="#BDBDBD"/>
<path fill-rule="evenodd" clip-rule="evenodd" d="M362.81 296.145L373.035 314.454C373.346 315.136 372.465 315.752 371.921 315.231L351.857 296.171" fill="#212121"/>
<path d="M342.832 323.629L331.936 296.17" stroke="#212121" stroke-width="2" stroke-linecap="round" stroke-linejoin="round"/>
<path fill-rule="evenodd" clip-rule="evenodd" d="M346.329 323.612C346.309 325.457 344.775 326.956 342.903 326.96C341.031 326.964 339.528 325.473 339.548 323.627C339.568 321.782 341.102 320.284 342.975 320.279C344.846 320.275 346.349 321.766 346.329 323.612Z" fill="#212121"/>
<path fill-rule="evenodd" clip-rule="evenodd" d="M323.018 303.141C323.013 303.563 323.068 303.995 323.189 304.426L324.107 307.705C324.802 310.169 327.405 311.59 329.915 310.867L340.188 307.908L376.941 297.297C378.963 296.717 380.365 294.901 380.387 292.838L380.712 262.602C380.739 260.079 378.716 258.022 376.166 257.969L335.155 257.107C332.517 257.055 330.314 259.151 330.286 261.76L329.938 294.202C329.916 296.276 328.504 298.102 326.474 298.673C324.403 299.263 323.04 301.116 323.018 303.141Z" fill="#F57153"/>
<path fill-rule="evenodd" clip-rule="evenodd" d="M355.164 293.541L354.071 292.264C348.537 285.798 345.259 279.957 345.294 276.64C345.353 271.173 349.908 266.717 355.451 266.704C360.994 266.691 365.455 271.127 365.396 276.594C365.361 279.911 361.956 285.767 356.284 292.257L355.164 293.541ZM355.467 265.268C349.112 265.283 343.906 270.376 343.839 276.644C343.772 282.876 352.723 293.015 354.742 295.218C354.956 295.453 355.331 295.452 355.551 295.216C357.615 293.004 366.786 282.823 366.852 276.59C366.919 270.322 361.821 265.254 355.467 265.268Z" fill="white"/>
<path fill-rule="evenodd" clip-rule="evenodd" d="M363.694 278.25C362.793 281.356 359.786 286.045 355.469 291.03C355.334 291.184 355.092 291.185 354.961 291.031C354.47 290.452 353.997 289.878 353.544 289.309C352.284 287.733 351.172 286.204 350.23 284.764C350.099 284.564 350.223 284.297 350.463 284.263C352.846 283.921 355.152 282.844 357.003 281.037C358.798 279.284 361.018 278.22 363.322 277.845C363.561 277.807 363.76 278.02 363.694 278.25Z" fill="white"/>
</g>
<defs>
<clipPath id="clip0">
<rect width="400" height="350" fill="white"/>
</clipPath>
</defs>
</svg>
