<svg width="7766" height="732" viewBox="0 0 7766 732" fill="none" xmlns="http://www.w3.org/2000/svg">
<path d="M7.32611e-05 0.998047H3883V640.79C3883 640.79 3722.16 635.788 3594.93 665.801C3361.92 720.766 3331.23 728.097 3078.19 731.831C2796.25 735.993 2678.69 628 2339 628C1999.31 628 1874.93 731.831 1606 731.831C1268.5 731.831 1292 628 957.247 640.79C773.535 647.809 691.5 718.325 460.319 718.325C229.137 718.325 128.519 641.597 0 640.79L7.32611e-05 0.998047Z" fill="#FAF7F2"/>
<path d="M3883 0.998047H7766V640.79C7766 640.79 7605.16 635.788 7477.93 665.801C7244.92 720.766 7214.23 728.097 6961.19 731.831C6679.25 735.993 6557.69 628 6218 628C5878.31 628 5757.88 736.794 5489 731.831C5247.9 727.382 5081.34 636.419 4840.25 640.79C4656.43 644.122 4574.5 718.325 4343.32 718.325C4112.14 718.325 4011.52 641.597 3883 640.79V0.998047Z" fill="#FAF7F2"/>
</svg>
