<svg width="7766" height="450" viewBox="0 0 7766 450" fill="none" xmlns="http://www.w3.org/2000/svg">
<path d="M7.32611e-05 449.971H3883V95C3883 95 3697.23 98.447 3570 79.9707C3337 46.1349 3285.54 10.6854 3032.5 8.38647C2750.56 5.82494 2677.19 85.4707 2337.5 85.4707C1997.81 85.4707 1874.93 0.0721436 1606 0.0721436C1268.5 0.0721436 1295.25 85.8442 960.5 77.9707C776.788 73.6498 691.5 8.38647 460.319 8.38647C229.137 8.38647 128.519 55.6201 0 56.117L7.32611e-05 449.971Z" fill="#FAF7F2"/>
<path d="M3883 449.971H7766V56.117C7766 56.117 7605.16 59.1964 7477.93 40.7201C7244.92 6.88427 7214.23 2.37104 6961.19 0.0721436C6679.25 -2.48939 6558.69 91.9707 6219 91.9707C5879.31 91.9707 5757.88 -2.98254 5489 0.0721436C5247.9 2.81116 5096.61 79.9707 4855.5 79.9707C4637.5 79.9707 4574.5 8.38647 4343.32 8.38647C4112.14 8.38647 4011.52 94.5032 3883 95V449.971Z" fill="#FAF7F2"/>
</svg>
