<svg width="179" height="34" viewBox="0 0 179 34" fill="none" xmlns="http://www.w3.org/2000/svg">
<g clip-path="url(#clip0)">
<path fill-rule="evenodd" clip-rule="evenodd" d="M13.3073 31.9077L12.0747 30.4636C5.84038 23.153 2.12072 16.5525 2.12072 12.8071C2.12072 6.63705 7.13729 1.62047 13.3073 1.62047C19.4755 1.62047 24.4921 6.63705 24.4921 12.8071C24.4921 16.5525 20.7724 23.153 14.538 30.4618L13.3073 31.9077ZM13.3073 -0.000244141C6.23403 -0.000244141 0.5 5.73378 0.5 12.8071C0.5 19.8417 10.5847 31.308 12.8566 33.8007C13.0977 34.0655 13.5152 34.0655 13.7562 33.8007C16.0281 31.308 26.1128 19.8417 26.1128 12.8071C26.1128 5.73378 20.3788 -0.000244141 13.3073 -0.000244141Z" fill="#F57153"/>
<path fill-rule="evenodd" clip-rule="evenodd" d="M22.5791 14.685C21.6146 18.1855 18.3284 23.4667 13.5894 29.079C13.4425 29.2528 13.172 29.2529 13.0251 29.0791C12.4717 28.4243 11.9389 27.7741 11.4291 27.1321C10.0104 25.3513 8.75529 23.6234 7.69116 21.9966C7.54388 21.7715 7.67857 21.4701 7.94497 21.432C10.5895 21.0533 13.1398 19.8457 15.1763 17.8109C17.1491 15.8381 19.6041 14.6441 22.1617 14.2274C22.4254 14.1845 22.65 14.4275 22.5791 14.685Z" fill="#F57153"/>
</g>
<path d="M57.2573 11.9758C55.1453 11.9758 53.7293 13.0318 52.9133 14.3758C52.2893 12.7678 50.9453 11.9758 49.1693 11.9758C47.3693 11.9758 46.0493 12.9838 45.1853 14.2558L45.0893 12.5998C45.0653 12.3838 44.9453 12.2398 44.7293 12.2398H43.7453C43.5293 12.2398 43.3853 12.3838 43.3853 12.5998V23.6398C43.3853 23.8558 43.5293 23.9998 43.7453 23.9998H44.8253C45.0413 23.9998 45.1853 23.8558 45.1853 23.6398V16.3678C45.1853 15.8878 46.4573 13.5838 48.7853 13.5838C50.4653 13.5838 51.4973 14.6878 51.4973 16.7758V23.6398C51.4973 23.8558 51.6413 23.9998 51.8573 23.9998H52.9373C53.1533 23.9998 53.2973 23.8558 53.2973 23.6398V16.7278C53.2973 15.6238 54.3293 13.5838 56.8973 13.5838C58.5773 13.5838 59.6093 14.6878 59.6093 16.7758V23.6398C59.6093 23.8558 59.7533 23.9998 59.9693 23.9998H61.0493C61.2653 23.9998 61.4093 23.8558 61.4093 23.6398V16.6558C61.4093 13.5118 59.7533 11.9758 57.2573 11.9758ZM74.1019 12.2398H73.1179C72.9019 12.2398 72.7819 12.3838 72.7579 12.5998L72.6619 14.1598C71.7499 12.8638 70.3339 11.9998 68.4859 11.9998C65.1259 11.9998 62.7259 14.7118 62.7259 18.1438C62.7259 21.4558 65.1259 24.1678 68.4859 24.1678C70.3099 24.1678 71.7259 23.3518 72.6379 22.1278L72.7579 23.6398C72.7819 23.8558 72.9019 23.9998 73.1179 23.9998H74.1019C74.3179 23.9998 74.4619 23.8558 74.4619 23.6398V12.5998C74.4619 12.3838 74.3179 12.2398 74.1019 12.2398ZM68.6299 22.5358C66.2299 22.5358 64.4539 20.5918 64.4539 18.1198C64.4539 15.5518 66.2299 13.6318 68.6299 13.6318C71.0299 13.6318 72.7819 15.6718 72.7819 18.1198C72.7819 20.5918 71.0299 22.5358 68.6299 22.5358ZM83.1863 12.3598C82.8503 12.1198 82.3463 11.9758 81.7703 11.9758C80.4983 11.9758 79.5143 12.6478 78.8663 13.6318L78.7703 12.5998C78.7463 12.3838 78.6263 12.2398 78.4103 12.2398H77.4503C77.2343 12.2398 77.0903 12.3838 77.0903 12.5998V23.6398C77.0903 23.8558 77.2343 23.9998 77.4503 23.9998H78.5303C78.7463 23.9998 78.8903 23.8558 78.8903 23.6398V16.2478C78.8903 14.7358 80.0423 13.6318 81.5063 13.6318C81.9863 13.6318 82.2263 13.7038 82.4423 13.7518C82.6583 13.7998 82.7783 13.7758 82.8743 13.5838L83.2583 12.7438C83.3543 12.5518 83.3303 12.4558 83.1863 12.3598ZM94.9883 23.5678L89.9723 17.2078L94.3163 12.6718C94.5323 12.4318 94.4363 12.2398 94.1243 12.2398H92.9003C92.7323 12.2398 92.5643 12.2878 92.4443 12.4318L86.6603 18.5278V6.83976C86.6603 6.62375 86.5163 6.47976 86.3003 6.47976H85.2203C85.0043 6.47976 84.8603 6.62375 84.8603 6.83976V23.6398C84.8603 23.8558 85.0043 23.9998 85.2203 23.9998H86.3003C86.5163 23.9998 86.6603 23.8558 86.6603 23.6398V20.6398L88.8683 18.3358L93.1403 23.7838C93.2603 23.9518 93.3803 23.9998 93.5723 23.9998H94.7723C95.0603 23.9998 95.1803 23.8078 94.9883 23.5678ZM101.101 11.9998C97.7166 11.9998 95.3406 14.6878 95.3406 18.0718C95.3406 21.4558 97.7886 24.1678 101.293 24.1678C103.045 24.1678 104.581 23.5198 105.685 22.3678C105.877 22.1758 105.853 22.0078 105.661 21.8158L105.205 21.3838C105.013 21.2158 104.869 21.2878 104.701 21.4318C103.933 22.0798 102.949 22.5598 101.485 22.5598C99.0126 22.5598 97.4046 20.9758 97.1166 18.8158H105.925C106.525 18.8158 106.621 18.4318 106.621 17.6158C106.621 14.6878 104.485 11.9998 101.101 11.9998ZM101.101 13.6078C103.333 13.6078 104.917 15.2878 105.037 17.4238H97.0926C97.3326 15.2158 98.8926 13.6078 101.101 13.6078ZM114.074 12.2398H112.154V8.99976C112.154 8.78376 112.01 8.63975 111.794 8.63975H110.714C110.498 8.63975 110.354 8.78376 110.354 8.99976V12.2398H108.434C108.218 12.2398 108.074 12.3838 108.074 12.5998V13.4158C108.074 13.6318 108.218 13.7758 108.434 13.7758H110.354V23.6398C110.354 23.8558 110.498 23.9998 110.714 23.9998H111.794C112.01 23.9998 112.154 23.8558 112.154 23.6398V13.7758H114.074C114.29 13.7758 114.434 13.6318 114.434 13.4158V12.5998C114.434 12.3838 114.29 12.2398 114.074 12.2398ZM122.443 11.9998C120.595 11.9998 119.179 12.8638 118.267 14.1598L118.171 12.5998C118.147 12.3838 118.027 12.2398 117.811 12.2398H116.827C116.611 12.2398 116.467 12.3838 116.467 12.5998V28.1998C116.467 28.4158 116.611 28.5598 116.827 28.5598H117.907C118.123 28.5598 118.267 28.4158 118.267 28.1998V22.3438L118.291 22.1278C119.203 23.3518 120.619 24.1678 122.443 24.1678C125.803 24.1678 128.203 21.4558 128.203 18.1438C128.203 14.7118 125.803 11.9998 122.443 11.9998ZM122.299 22.5358C119.899 22.5358 118.147 20.5918 118.147 18.1198C118.147 15.6718 119.899 13.6318 122.299 13.6318C124.699 13.6318 126.475 15.5518 126.475 18.1198C126.475 20.5918 124.699 22.5358 122.299 22.5358ZM130.472 6.83976V23.6398C130.472 23.8558 130.616 23.9998 130.832 23.9998H131.912C132.128 23.9998 132.272 23.8558 132.272 23.6398V6.83976C132.272 6.62375 132.128 6.47976 131.912 6.47976H130.832C130.616 6.47976 130.472 6.62375 130.472 6.83976ZM145.929 12.2398H144.945C144.729 12.2398 144.609 12.3838 144.585 12.5998L144.489 14.1598C143.577 12.8638 142.161 11.9998 140.313 11.9998C136.953 11.9998 134.553 14.7118 134.553 18.1438C134.553 21.4558 136.953 24.1678 140.313 24.1678C142.137 24.1678 143.553 23.3518 144.465 22.1278L144.585 23.6398C144.609 23.8558 144.729 23.9998 144.945 23.9998H145.929C146.145 23.9998 146.289 23.8558 146.289 23.6398V12.5998C146.289 12.3838 146.145 12.2398 145.929 12.2398ZM140.457 22.5358C138.057 22.5358 136.281 20.5918 136.281 18.1198C136.281 15.5518 138.057 13.6318 140.457 13.6318C142.857 13.6318 144.609 15.6718 144.609 18.1198C144.609 20.5918 142.857 22.5358 140.457 22.5358ZM154.462 22.5358C152.014 22.5358 150.286 20.5918 150.286 18.1438C150.286 15.5758 152.014 13.6318 154.462 13.6318C156.31 13.6318 157.102 14.5198 157.798 15.1438C157.99 15.3118 158.158 15.3118 158.326 15.1438L158.926 14.5918C159.07 14.4478 159.094 14.2558 158.95 14.0878C157.846 12.8158 156.31 11.9998 154.462 11.9998C151.078 11.9998 148.558 14.7118 148.558 18.1438C148.558 21.4558 151.078 24.1678 154.462 24.1678C156.358 24.1678 157.918 23.3518 159.022 22.0798C159.166 21.9118 159.142 21.7198 158.998 21.5758L158.398 21.0238C158.23 20.8558 158.062 20.8318 157.87 21.0238C157.198 21.6958 156.358 22.5358 154.462 22.5358ZM166.447 11.9998C163.063 11.9998 160.687 14.6878 160.687 18.0718C160.687 21.4558 163.135 24.1678 166.639 24.1678C168.391 24.1678 169.927 23.5198 171.031 22.3678C171.223 22.1758 171.199 22.0078 171.007 21.8158L170.551 21.3838C170.359 21.2158 170.215 21.2878 170.047 21.4318C169.279 22.0798 168.295 22.5598 166.831 22.5598C164.359 22.5598 162.751 20.9758 162.463 18.8158H171.271C171.871 18.8158 171.967 18.4318 171.967 17.6158C171.967 14.6878 169.831 11.9998 166.447 11.9998ZM166.447 13.6078C168.679 13.6078 170.263 15.2878 170.383 17.4238H162.439C162.679 15.2158 164.239 13.6078 166.447 13.6078Z" fill="#545454"/>
<line x1="34.75" y1="5.99976" x2="34.75" y2="27.9998" stroke="black" stroke-opacity="0.2" stroke-width="0.5"/>
<defs>
<clipPath id="clip0">
<rect x="0.5" y="-0.000244141" width="26" height="34" fill="white"/>
</clipPath>
</defs>
</svg>
