<svg width="32" height="32" viewBox="0 0 32 32" fill="none" xmlns="http://www.w3.org/2000/svg">
<rect width="32" height="32" fill="white"/>
<path d="M24.2743 13.4056C24.2743 19.4307 19.3978 24.3111 13.3871 24.3111C7.37644 24.3111 2.5 19.4307 2.5 13.4056C2.5 7.38048 7.37644 2.5 13.3871 2.5C19.3978 2.5 24.2743 7.38048 24.2743 13.4056Z" stroke="#BC9B5D" stroke-width="3"/>
<path d="M27.7806 30.3542C28.4093 30.8936 29.3556 30.8205 29.8941 30.1909C30.4326 29.5613 30.3595 28.6137 29.7308 28.0743L27.7806 30.3542ZM23.0437 22.3371L21.9053 21.3604L19.9552 23.6403L21.0935 24.617L23.0437 22.3371ZM29.7308 28.0743L23.0437 22.3371L21.0935 24.617L27.7806 30.3542L29.7308 28.0743Z" fill="#BC9B5D"/>
</svg>
