<svg width="145" height="145" viewBox="0 0 145 145" fill="none" xmlns="http://www.w3.org/2000/svg">
<g clip-path="url(#clip0)">
<path d="M72.5 145C112.541 145 145 112.541 145 72.5C145 32.4594 112.541 0 72.5 0C32.4594 0 0 32.4594 0 72.5C0 112.541 32.4594 145 72.5 145Z" fill="#C8EBFB"/>
<path d="M48.5723 63.4875C60.2169 58.4628 71.7818 53.2785 83.267 48.0942L89.8071 112.698L68.432 119.717C68.3522 119.079 68.113 118.521 67.7939 118.042L65.5607 112.22C63.2477 105.759 61.0145 99.2989 58.7015 92.7587C57.9039 90.5255 57.1064 88.2923 56.4683 85.9793C55.8302 83.8258 55.3517 81.6723 54.7934 79.5189C53.5173 74.5739 51.7626 69.7884 49.6091 65.1624L48.5723 63.4875Z" fill="#FFD249"/>
<path d="M53.3582 72.5799C63.8065 67.3159 74.5739 62.6899 84.9424 57.2664C86.6173 56.389 85.1019 53.8368 83.5068 54.7141C73.1382 60.1377 62.3709 64.7636 51.9226 70.0276C50.1679 70.905 51.6833 73.3775 53.3582 72.5799Z" fill="white"/>
<path d="M85.2614 69.0703C91.5623 67.5549 89.7279 70.1869 96.0288 68.5917C96.5073 68.512 96.9859 68.3525 97.3049 68.0334C97.6239 67.7144 97.7834 67.1561 97.4644 66.7573C97.0656 66.3585 96.3478 66.3585 96.1085 65.88C98.0227 65.8002 100.017 65.7205 101.771 64.8431C103.526 63.9658 104.882 62.0516 104.483 60.1374C104.244 59.0208 103.526 58.1434 102.728 57.3459C100.655 55.1924 98.0227 53.5175 95.2312 52.5604C99.2191 48.8915 101.612 43.2287 100.655 37.8052C99.9369 33.6577 97.3049 30.0686 94.2741 27.1973C92.2801 25.2832 89.9672 23.6082 87.3351 22.8107C84.7031 22.0131 81.5926 22.1726 79.3593 23.7677C77.1261 25.3629 75.9298 28.5532 77.0464 31.1055C74.7334 28.7925 71.7823 27.1176 68.592 26.7188C65.4017 26.2402 61.9721 27.1973 59.5794 29.3508C57.6652 31.1055 56.5486 33.578 55.9903 36.1302C55.432 38.6825 55.432 41.3145 55.3522 43.8668C53.5178 42.8299 50.9655 42.9894 49.2906 44.2656C47.0574 46.0202 46.5788 49.3701 47.2966 52.0818C48.2537 55.6709 50.9655 58.7017 54.4749 59.9779L83.2675 48.0939L85.2614 69.0703Z" fill="white"/>
<path d="M69.7886 9.57081C70.3469 9.81008 70.8255 10.2089 71.0647 10.7672C72.0218 12.8409 69.2303 14.3563 67.4756 13.5587C66.2793 13.0004 65.6412 11.485 66.1995 10.2886C66.8376 9.0125 68.5125 8.93274 69.7886 9.57081Z" fill="white"/>
<mask id="mask0" mask-type="alpha" maskUnits="userSpaceOnUse" x="0" y="0" width="145" height="145">
<path d="M72.5 145C112.541 145 145 112.541 145 72.5C145 32.4594 112.541 0 72.5 0C32.4594 0 0 32.4594 0 72.5C0 112.541 32.4594 145 72.5 145Z" fill="#C8EBFB"/>
</mask>
<g mask="url(#mask0)">
<path d="M18.7437 114.054C28.4741 108.471 38.0451 102.649 47.4565 96.587C50.1683 94.8324 52.8801 93.0777 55.3526 90.9242C57.6656 88.9303 59.7393 86.6173 62.2915 84.8626C64.8438 83.1079 70.1876 81.2735 70.9851 82.6294C71.7827 84.065 67.8746 87.8934 66.5187 90.3659C65.3223 92.5194 65.3223 94.4336 65.4021 96.9061C65.6414 101.692 65.8009 106.477 66.0402 111.263L66.2794 115.091C60.2178 120.275 53.4384 124.742 46.8185 129.208C32.3025 139.098 18.1854 149.626 4.467 160.633L-17.8652 126.417L1.59571 114.931C2.15402 117.563 14.9951 112.858 15.5534 115.49L18.7437 114.054Z" fill="#EA8958"/>
</g>
<path d="M87.2553 73.6166C87.8934 73.5368 88.5314 74.0154 88.7707 74.6535C89.01 75.2915 89.01 75.9296 89.01 76.6474C88.9302 79.1997 88.7707 81.8317 88.6909 84.3839C88.6909 84.6232 88.6909 84.7827 88.7707 84.9422C88.9302 85.1815 89.329 85.1815 89.648 85.2613C90.4456 85.5803 90.5254 86.6969 90.3659 87.4945C90.1266 89.0896 89.7278 90.6051 89.1695 92.0407C89.7278 91.8014 90.3659 92.2002 90.6849 92.7585C91.0039 93.3168 90.9242 93.9549 90.8444 94.5929C90.6051 97.0654 90.1266 99.4582 89.5683 101.851C89.2493 103.207 88.7707 104.642 87.6541 105.6C87.3351 105.839 86.9363 106.078 86.6172 105.919C86.2184 105.759 86.1387 105.281 86.0589 104.802C85.7399 101.372 86.1387 97.863 87.1755 94.5929C86.2185 96.0286 84.9423 97.3047 83.5067 98.2618C83.2674 98.4213 83.0281 98.5808 82.7889 98.5011C82.1508 98.4213 82.071 97.4642 82.3103 96.8262C83.3472 93.0775 84.703 89.4087 86.378 85.8993C85.5804 87.7338 83.8257 89.1694 81.8318 89.648C81.5127 89.7277 81.2735 89.7277 80.9544 89.648C80.2366 89.3289 80.3164 88.2921 80.5556 87.5743C81.9115 83.4268 83.5864 79.3592 85.7399 75.6106L87.2553 73.6166Z" fill="#EA8958"/>
</g>
<defs>
<clipPath id="clip0">
<rect width="145" height="145" fill="white"/>
</clipPath>
</defs>
</svg>
