<svg width="119" height="38" viewBox="0 0 119 38" fill="none" xmlns="http://www.w3.org/2000/svg">
<path d="M4.23861 6.13274V17H7.17015V6.13274H11.166V3.668H0.24274V6.13274H4.23861ZM11.6763 3.668V17H14.3278V11.9398C14.3278 10.9564 14.4896 10.2531 14.8132 9.82985C15.1369 9.39416 15.6597 9.17632 16.3817 9.17632C17.0166 9.17632 17.4585 9.37549 17.7074 9.77383C17.9564 10.1597 18.0809 10.751 18.0809 11.5477V17H20.7323V11.0622C20.7323 10.4647 20.6763 9.92321 20.5643 9.43773C20.4647 8.9398 20.2842 8.52279 20.0228 8.18669C19.7614 7.83814 19.4004 7.5705 18.9398 7.38378C18.4917 7.18461 17.9128 7.08502 17.2033 7.08502C16.7054 7.08502 16.195 7.21573 15.6722 7.47714C15.1493 7.72611 14.7199 8.13067 14.3838 8.69084H14.3278V3.668H11.6763ZM28.4958 11.1369H24.1825C24.1949 10.9502 24.2323 10.7386 24.2945 10.502C24.3692 10.2655 24.4875 10.0415 24.6493 9.82985C24.8236 9.61823 25.0476 9.44395 25.3215 9.30702C25.6078 9.15765 25.9626 9.08296 26.3858 9.08296C27.0331 9.08296 27.5124 9.25723 27.8236 9.60578C28.1472 9.95433 28.3713 10.4647 28.4958 11.1369ZM24.1825 12.8174H31.1472C31.197 12.0705 31.1348 11.3548 30.9605 10.6701C30.7862 9.98545 30.4999 9.37549 30.1016 8.84022C29.7157 8.30495 29.2178 7.88171 28.6078 7.5705C27.9979 7.24685 27.2821 7.08502 26.4605 7.08502C25.7261 7.08502 25.0539 7.21573 24.4439 7.47714C23.8464 7.73855 23.3298 8.09955 22.8941 8.56013C22.4584 9.00827 22.1223 9.54354 21.8858 10.1659C21.6493 10.7884 21.531 11.4606 21.531 12.1826C21.531 12.9294 21.6431 13.6141 21.8671 14.2365C22.1036 14.8589 22.4335 15.3942 22.8568 15.8423C23.28 16.2905 23.7966 16.639 24.4066 16.888C25.0165 17.1245 25.7012 17.2427 26.4605 17.2427C27.5559 17.2427 28.4896 16.9938 29.2613 16.4958C30.0331 15.9979 30.6057 15.1701 30.9792 14.0124H28.6452C28.558 14.3112 28.3215 14.5975 27.9356 14.8714C27.5497 15.1328 27.0891 15.2635 26.5539 15.2635C25.807 15.2635 25.2344 15.0705 24.836 14.6846C24.4377 14.2987 24.2198 13.6763 24.1825 12.8174ZM39.6345 9.69914V5.94602H42.8461C43.5184 5.94602 44.0225 6.09539 44.3586 6.39415C44.6947 6.68046 44.8628 7.14727 44.8628 7.79457C44.8628 8.46677 44.6947 8.95225 44.3586 9.25101C44.0225 9.54976 43.5184 9.69914 42.8461 9.69914H39.6345ZM36.703 3.668V17H39.6345V11.7904H42.5661C43.3005 11.7904 43.8296 11.9523 44.1532 12.2759C44.4769 12.5996 44.6885 13.1099 44.7881 13.807C44.8628 14.3423 44.9188 14.9025 44.9561 15.4875C44.9935 16.0726 45.093 16.5768 45.2549 17H48.1864C48.0495 16.8133 47.9437 16.5892 47.869 16.3278C47.8067 16.0539 47.757 15.7676 47.7196 15.4689C47.6947 15.1701 47.676 14.8776 47.6636 14.5913C47.6511 14.305 47.6387 14.056 47.6263 13.8444C47.6014 13.5083 47.5516 13.1722 47.4769 12.8361C47.4146 12.5 47.3088 12.195 47.1594 11.9211C47.0101 11.6348 46.8171 11.3921 46.5806 11.1929C46.3441 10.9813 46.0453 10.8257 45.6843 10.7261V10.6888C46.4312 10.39 46.9665 9.95433 47.2901 9.38171C47.6263 8.8091 47.7943 8.13067 47.7943 7.34644C47.7943 6.83606 47.7009 6.36303 47.5142 5.92734C47.3399 5.47921 47.0785 5.08709 46.73 4.75099C46.3939 4.41489 45.9831 4.15348 45.4976 3.96676C45.0246 3.76758 44.4893 3.668 43.8918 3.668H36.703ZM49.0394 10.3153C49.0767 9.69292 49.2323 9.17632 49.5062 8.76553C49.78 8.35474 50.1286 8.02486 50.5518 7.7759C50.9751 7.52694 51.4481 7.35266 51.9709 7.25307C52.5062 7.14104 53.0415 7.08502 53.5767 7.08502C54.0622 7.08502 54.5539 7.12237 55.0518 7.19706C55.5498 7.2593 56.0041 7.39 56.4149 7.58918C56.8257 7.78835 57.1618 8.06843 57.4232 8.42943C57.6846 8.77798 57.8153 9.24478 57.8153 9.82985V14.8527C57.8153 15.2884 57.8402 15.7054 57.89 16.1037C57.9398 16.5021 58.0269 16.8008 58.1514 17H55.4626C55.4128 16.8506 55.3693 16.7012 55.3319 16.5519C55.307 16.39 55.2883 16.2282 55.2759 16.0664C54.8527 16.5021 54.3547 16.8071 53.7821 16.9813C53.2095 17.1556 52.6244 17.2427 52.0269 17.2427C51.5663 17.2427 51.1369 17.1867 50.7385 17.0747C50.3402 16.9627 49.9916 16.7884 49.6929 16.5519C49.3941 16.3154 49.1576 16.0166 48.9833 15.6556C48.8215 15.2946 48.7406 14.8651 48.7406 14.3672C48.7406 13.8195 48.834 13.3714 49.0207 13.0228C49.2199 12.6618 49.4688 12.3755 49.7676 12.1639C50.0788 11.9523 50.4273 11.7967 50.8132 11.6971C51.2116 11.585 51.6099 11.4979 52.0083 11.4357C52.4066 11.3734 52.7987 11.3236 53.1846 11.2863C53.5705 11.2489 53.9128 11.1929 54.2116 11.1182C54.5103 11.0435 54.7469 10.9377 54.9211 10.8008C55.0954 10.6514 55.1763 10.4398 55.1639 10.1659C55.1639 9.87964 55.1141 9.65557 55.0145 9.49375C54.9274 9.31947 54.8029 9.18877 54.641 9.10163C54.4917 9.00204 54.3112 8.9398 54.0995 8.91491C53.9004 8.87756 53.6825 8.85889 53.446 8.85889C52.9232 8.85889 52.5124 8.97092 52.2136 9.19499C51.9149 9.41906 51.7406 9.7925 51.6908 10.3153H49.0394ZM55.1639 12.2759C55.0518 12.3755 54.9087 12.4564 54.7344 12.5187C54.5726 12.5684 54.3921 12.612 54.1929 12.6494C54.0062 12.6867 53.807 12.7178 53.5954 12.7427C53.3838 12.7676 53.1722 12.7987 52.9605 12.8361C52.7614 12.8734 52.5622 12.9232 52.363 12.9855C52.1763 13.0477 52.0083 13.1348 51.8589 13.2469C51.7219 13.3465 51.6099 13.4772 51.5228 13.639C51.4356 13.8008 51.3921 14.0062 51.3921 14.2552C51.3921 14.4917 51.4356 14.6909 51.5228 14.8527C51.6099 15.0145 51.7282 15.1452 51.8775 15.2448C52.0269 15.3319 52.2012 15.3942 52.4004 15.4315C52.5995 15.4689 52.8049 15.4875 53.0166 15.4875C53.5394 15.4875 53.9439 15.4004 54.2303 15.2261C54.5166 15.0519 54.7282 14.8465 54.8651 14.6099C55.002 14.361 55.083 14.112 55.1079 13.8631C55.1452 13.6141 55.1639 13.4149 55.1639 13.2655V12.2759ZM61.8526 5.85265V3.668H59.2012V5.85265H61.8526ZM59.2012 7.34644V17H61.8526V7.34644H59.2012ZM63.2682 3.668V17H65.9197V3.668H63.2682ZM78.2959 17L81.3395 7.34644H78.6133L76.8395 13.8817H76.8021L75.1589 7.34644H72.5822L70.9764 13.9004H70.939L69.1651 7.34644H66.3643L69.4266 17H72.1714L73.8145 10.5207H73.8519L75.5697 17H78.2959ZM81.6093 10.3153C81.6467 9.69292 81.8023 9.17632 82.0761 8.76553C82.35 8.35474 82.6986 8.02486 83.1218 7.7759C83.545 7.52694 84.0181 7.35266 84.5409 7.25307C85.0762 7.14104 85.6114 7.08502 86.1467 7.08502C86.6322 7.08502 87.1239 7.12237 87.6218 7.19706C88.1197 7.2593 88.5741 7.39 88.9849 7.58918C89.3957 7.78835 89.7318 8.06843 89.9932 8.42943C90.2546 8.77798 90.3853 9.24478 90.3853 9.82985V14.8527C90.3853 15.2884 90.4102 15.7054 90.46 16.1037C90.5098 16.5021 90.5969 16.8008 90.7214 17H88.0326C87.9828 16.8506 87.9392 16.7012 87.9019 16.5519C87.877 16.39 87.8583 16.2282 87.8459 16.0664C87.4226 16.5021 86.9247 16.8071 86.3521 16.9813C85.7795 17.1556 85.1944 17.2427 84.5969 17.2427C84.1363 17.2427 83.7069 17.1867 83.3085 17.0747C82.9102 16.9627 82.5616 16.7884 82.2629 16.5519C81.9641 16.3154 81.7276 16.0166 81.5533 15.6556C81.3915 15.2946 81.3106 14.8651 81.3106 14.3672C81.3106 13.8195 81.4039 13.3714 81.5907 13.0228C81.7898 12.6618 82.0388 12.3755 82.3376 12.1639C82.6488 11.9523 82.9973 11.7967 83.3832 11.6971C83.7816 11.585 84.1799 11.4979 84.5782 11.4357C84.9766 11.3734 85.3687 11.3236 85.7546 11.2863C86.1405 11.2489 86.4828 11.1929 86.7816 11.1182C87.0803 11.0435 87.3168 10.9377 87.4911 10.8008C87.6654 10.6514 87.7463 10.4398 87.7338 10.1659C87.7338 9.87964 87.6841 9.65557 87.5845 9.49375C87.4973 9.31947 87.3729 9.18877 87.211 9.10163C87.0616 9.00204 86.8811 8.9398 86.6695 8.91491C86.4704 8.87756 86.2525 8.85889 86.016 8.85889C85.4932 8.85889 85.0824 8.97092 84.7836 9.19499C84.4849 9.41906 84.3106 9.7925 84.2608 10.3153H81.6093ZM87.7338 12.2759C87.6218 12.3755 87.4787 12.4564 87.3044 12.5187C87.1426 12.5684 86.9621 12.612 86.7629 12.6494C86.5762 12.6867 86.377 12.7178 86.1654 12.7427C85.9538 12.7676 85.7421 12.7987 85.5305 12.8361C85.3313 12.8734 85.1322 12.9232 84.933 12.9855C84.7463 13.0477 84.5782 13.1348 84.4289 13.2469C84.2919 13.3465 84.1799 13.4772 84.0928 13.639C84.0056 13.8008 83.962 14.0062 83.962 14.2552C83.962 14.4917 84.0056 14.6909 84.0928 14.8527C84.1799 15.0145 84.2981 15.1452 84.4475 15.2448C84.5969 15.3319 84.7712 15.3942 84.9704 15.4315C85.1695 15.4689 85.3749 15.4875 85.5865 15.4875C86.1094 15.4875 86.5139 15.4004 86.8002 15.2261C87.0865 15.0519 87.2982 14.8465 87.4351 14.6099C87.572 14.361 87.6529 14.112 87.6778 13.8631C87.7152 13.6141 87.7338 13.4149 87.7338 13.2655V12.2759ZM96.4579 18.195L100.491 7.34644H97.7463L95.6363 13.9564H95.599L93.4143 7.34644H90.5948L93.9745 16.4025C94.0492 16.5892 94.0865 16.7884 94.0865 17C94.0865 17.2863 93.9994 17.5477 93.8251 17.7842C93.6633 18.0208 93.4081 18.1577 93.0595 18.195C92.7981 18.2075 92.5367 18.2012 92.2753 18.1764C92.0139 18.1515 91.7587 18.1266 91.5097 18.1017V20.2863C91.7836 20.3112 92.0512 20.3299 92.3126 20.3423C92.5865 20.3672 92.8604 20.3797 93.1342 20.3797C94.0429 20.3797 94.7525 20.2116 95.2629 19.8755C95.7732 19.5394 96.1716 18.9793 96.4579 18.195Z" fill="black"/>
<path d="M2.30668 21.2789L4.83218 32.1741L7.85913 21.2789H9.82847L12.8554 32.1741L15.3809 21.2789H17.3685L13.8492 34.6722H11.9437L8.85292 23.5673L5.74391 34.6722H3.83839L0.337341 21.2789H2.30668ZM18.8364 24.9532H20.5049V34.6722H18.8364V24.9532ZM18.8364 21.2789H20.5049V23.1388H18.8364V21.2789ZM22.9939 24.9076H24.5529V26.2934C25.0149 25.7221 25.5042 25.3118 26.0208 25.0626C26.5375 24.8134 27.1119 24.6888 27.744 24.6888C29.1298 24.6888 30.0659 25.172 30.5521 26.1384C30.8196 26.6672 30.9533 27.424 30.9533 28.4086V34.6722H29.2848V28.5181C29.2848 27.9224 29.1967 27.4422 29.0204 27.0775C28.7287 26.4697 28.1999 26.1658 27.434 26.1658C27.045 26.1658 26.7259 26.2053 26.4767 26.2843C26.0269 26.418 25.6318 26.6855 25.2914 27.0866C25.0179 27.4088 24.8386 27.7431 24.7535 28.0895C24.6745 28.4299 24.635 28.9192 24.635 29.5574V34.6722H22.9939V24.9076ZM34.427 29.9039C34.427 30.9493 34.6489 31.8246 35.0926 32.5297C35.5363 33.2347 36.2474 33.5873 37.226 33.5873C37.9858 33.5873 38.6088 33.2621 39.0951 32.6117C39.5874 31.9553 39.8336 31.0162 39.8336 29.7945C39.8336 28.5606 39.5813 27.6489 39.0768 27.0593C38.5723 26.4636 37.9493 26.1658 37.2078 26.1658C36.3811 26.1658 35.7095 26.4818 35.1929 27.114C34.6823 27.7461 34.427 28.6761 34.427 29.9039ZM36.8978 24.7344C37.6454 24.7344 38.2715 24.8924 38.776 25.2085C39.0677 25.3908 39.399 25.7099 39.7697 26.1658V21.2333H41.347V34.6722H39.87V33.3138C39.4871 33.9155 39.0343 34.3501 38.5116 34.6175C37.9888 34.885 37.3901 35.0187 36.7154 35.0187C35.6274 35.0187 34.6853 34.5628 33.8891 33.6511C33.0928 32.7333 32.6947 31.5146 32.6947 29.9951C32.6947 28.5728 33.0564 27.3419 33.7797 26.3025C34.5091 25.2571 35.5484 24.7344 36.8978 24.7344ZM44.7569 31.6088C44.8055 32.1559 44.9423 32.5753 45.1672 32.867C45.5805 33.3958 46.2977 33.6602 47.3189 33.6602C47.9267 33.6602 48.4616 33.5295 48.9235 33.2682C49.3855 33.0007 49.6165 32.5905 49.6165 32.0373C49.6165 31.6179 49.4311 31.2988 49.0603 31.08C48.8232 30.9463 48.3552 30.7913 47.6562 30.615L46.3525 30.2868C45.5197 30.0802 44.9058 29.8492 44.5108 29.5939C43.8057 29.1502 43.4531 28.5363 43.4531 27.7522C43.4531 26.8283 43.7844 26.0807 44.4469 25.5093C45.1155 24.938 46.0121 24.6523 47.1365 24.6523C48.6075 24.6523 49.6681 25.0839 50.3185 25.947C50.7257 26.494 50.9233 27.0836 50.9111 27.7157H49.3612C49.3308 27.345 49.2001 27.0076 48.9691 26.7037C48.5923 26.2722 47.9389 26.0564 47.0089 26.0564C46.3889 26.0564 45.9179 26.1749 45.5957 26.4119C45.2796 26.649 45.1216 26.962 45.1216 27.351C45.1216 27.7765 45.3313 28.1169 45.7507 28.3722C45.9938 28.5241 46.3525 28.6578 46.8266 28.7733L47.9115 29.0377C49.0907 29.3234 49.8809 29.6 50.282 29.8674C50.9202 30.2868 51.2393 30.9463 51.2393 31.8459C51.2393 32.7151 50.9081 33.4657 50.2455 34.0979C49.5891 34.73 48.5862 35.0461 47.2368 35.0461C45.7841 35.0461 44.7539 34.7178 44.1461 34.0614C43.5443 33.3989 43.2222 32.5813 43.1796 31.6088H44.7569ZM56.9924 33.6146C58.0804 33.6146 58.8249 33.2044 59.2261 32.3838C59.6333 31.5572 59.837 30.6393 59.837 29.6304C59.837 28.7186 59.6911 27.9771 59.3993 27.4057C58.9374 26.5062 58.1411 26.0564 57.0106 26.0564C56.0077 26.0564 55.2783 26.4393 54.8224 27.2052C54.3666 27.971 54.1386 28.8949 54.1386 29.9768C54.1386 31.0162 54.3666 31.8823 54.8224 32.5753C55.2783 33.2682 56.0016 33.6146 56.9924 33.6146ZM57.0562 24.625C58.3144 24.625 59.3781 25.0444 60.2472 25.8831C61.1164 26.7219 61.551 27.9558 61.551 29.5848C61.551 31.159 61.1681 32.4598 60.4022 33.487C59.6364 34.5142 58.4481 35.0278 56.8374 35.0278C55.4941 35.0278 54.4274 34.575 53.6372 33.6693C52.847 32.7576 52.4519 31.5359 52.4519 30.0042C52.4519 28.3631 52.8683 27.0562 53.701 26.0837C54.5337 25.1112 55.6521 24.625 57.0562 24.625ZM63.5568 24.9076H65.1159V26.5943C65.2435 26.2661 65.5566 25.8679 66.055 25.3999C66.5534 24.9258 67.1278 24.6888 67.7781 24.6888C67.8085 24.6888 67.8602 24.6918 67.9331 24.6979C68.0061 24.704 68.1307 24.7161 68.307 24.7344V26.4667C68.2097 26.4484 68.1185 26.4363 68.0334 26.4302C67.9544 26.4241 67.8663 26.4211 67.769 26.4211C66.9424 26.4211 66.3072 26.6885 65.8635 27.2234C65.4198 27.7522 65.1979 28.3631 65.1979 29.056V34.6722H63.5568V24.9076Z" fill="black"/>
</svg>
