<svg width="12" height="20" viewBox="0 0 12 20" fill="none" xmlns="http://www.w3.org/2000/svg">
<path d="M6.875 11.7505V18.5013L6.01504 19.7913C5.82949 20.0696 5.42055 20.0696 5.235 19.7913L4.375 18.5013V11.7505C5.20007 11.9165 6.04994 11.9165 6.875 11.7505ZM5.625 0C8.73161 0 11.25 2.5184 11.25 5.625C11.25 8.73161 8.73161 11.25 5.625 11.25C2.5184 11.25 0 8.73161 0 5.625C0 2.5184 2.5184 0 5.625 0ZM2.5 5.3125C2.5 3.76168 3.76168 2.5 5.3125 2.5C5.39538 2.5 5.47487 2.46708 5.53347 2.40847C5.59208 2.34987 5.625 2.27038 5.625 2.1875C5.625 2.10462 5.59208 2.02514 5.53347 1.96653C5.47487 1.90793 5.39538 1.875 5.3125 1.875C3.41707 1.875 1.875 3.41707 1.875 5.3125C1.875 5.39538 1.90793 5.47487 1.96653 5.53347C2.02514 5.59208 2.10462 5.625 2.1875 5.625C2.27038 5.625 2.34987 5.59208 2.40847 5.53347C2.46708 5.47487 2.5 5.39538 2.5 5.3125Z" fill="#378067"/>
</svg>
