<?xml version="1.0" encoding="utf-8"?>
<svg version="1.1" id="Layer_1" xmlns="http://www.w3.org/2000/svg" xmlns:xlink="http://www.w3.org/1999/xlink" x="0px" y="0px"
	 viewBox="0 0 150.9 146.8" style="enable-background:new 0 0 150.9 146.8;" xml:space="preserve">
  <style type="text/css">
    .st0{fill:#FFFFFF;}
    .st1{fill:#008265;}
    .st2{fill:#00795D;}
    .st3{fill:#F58426;}
    .st4{fill:#EE3224;}
  </style>
  <title>7-Eleven_Keystone_Logo_RGB</title>
  <polygon class="st0" points="3.3,3.3 147.6,3.3 147.6,143.5 3.3,143.5 "/>
  <path class="st0" d="M3.3,3.3h144.2v140.1H3.4L3.3,3.3 M0,0v146.8h150.9V0H0z"/>
  <polygon class="st0" points="3.3,3.3 147.6,3.3 147.6,143.5 3.3,143.5 "/>
  <path class="st1" d="M3.4,3.3h144.2v140.1H3.4V3.3z M117.6,134.2c2.6,0,4.6-2.7,4.6-6l10.8-110.7c0.1-3.2-2.5-5.9-5.7-6c0,0,0,0,0,0
    H21.6c-3.2,0.1-5.7,2.7-5.7,5.9c0,0,0,0,0,0.1l10.9,110.8c0,3.3,2.1,6,4.6,6h26.2v5.6h34.6v-5.6L117.6,134.2z"/>
  <path class="st2" d="M3.4,143.5"/>
  <path class="st3" d="M35.2,27.7H106c-7,2.6-28.2,17-33.5,26.6H35.2L35.2,27.7z"/>
  <path class="st4" d="M59.9,137.8h30.7c0-12.3,0-24.1,1-33.7H61.4C60.3,115.3,59.8,126.6,59.9,137.8z"/>
  <path class="st4" d="M115.6,26.3C87.8,38.8,69.7,57.7,65.8,79l28.7,0.1c0.6-7.6,11.1-20.1,21.2-23.3V26.3z"/>
  <polygon class="st1" points="38.6,93.9 43.5,93.9 43.5,90.1 38.6,90.1 38.6,86.4 43.5,86.4 43.5,82 32.3,82 32.3,101.9 43.5,101.9
    43.5,97.6 38.6,97.6 "/>
  <polygon class="st1" points="70.2,82 59,81.9 59,101.9 70.2,101.9 70.2,97.6 65.3,97.6 65.3,93.9 70.2,93.9 70.2,90.1 65.3,90.1
    65.3,86.4 70.2,86.4 "/>
  <polygon class="st1" points="51.9,82 45.6,82 45.6,101.9 56.8,101.9 56.8,97.6 51.9,97.6 "/>
  <polygon class="st1" points="79.7,95.4 77.3,82 71.8,82 74.9,101.9 83.1,101.9 86.9,82 82.2,82 "/>
  <path class="st1" d="M107.7,83.1L107.7,83.1v-1.2h-6.1v19.9h6.1v-14c0.3-2.2,3.4-1.6,3.4-0.4v14.4h6.1V85
    C117.2,81.4,112.2,80,107.7,83.1z"/>
  <path class="st1" d="M97.7,105.1c-2,0-3.5,1.6-3.5,3.6c0,2,1.6,3.5,3.6,3.5c2,0,3.5-1.6,3.5-3.5C101.2,106.7,99.6,105.1,97.7,105.1z
    M97.7,111.6c-1.6,0-3-1.2-3-2.8c0-1.6,1.2-3,2.8-3c1.6,0,3,1.2,3,2.8c0,0,0,0,0,0c0.1,1.6-1.2,2.9-2.7,3
    C97.7,111.6,97.7,111.6,97.7,111.6z"/>
  <path class="st1" d="M99.3,107.8c0-0.8-0.5-1.2-1.4-1.2h-1.5v4.1h0.6V109h0.7l1.1,1.8h0.7l-1.2-1.8C98.8,109,99.3,108.5,99.3,107.8
    C99.3,107.9,99.3,107.8,99.3,107.8z M96.9,108.4v-1.2h0.8c0.4,0,0.9,0.1,0.9,0.6s-0.5,0.6-1,0.6H96.9z"/>
  <polygon class="st1" points="99.8,97.5 94.8,97.5 94.8,93.8 99.8,93.8 99.8,90 94.8,90.1 94.8,86.3 99.7,86.3 99.8,81.9 88.5,81.9
    88.5,101.8 99.7,101.8 "/>
  <path class="st2" d="M3.4,143.5"/>
</svg>
