<?xml version="1.0" encoding="utf-8"?>
<!-- Generator: Adobe Illustrator 22.1.0, SVG Export Plug-In . SVG Version: 6.00 Build 0)  -->
<svg version="1.1" id="Layer_1" xmlns="http://www.w3.org/2000/svg" xmlns:xlink="http://www.w3.org/1999/xlink" x="0px" y="0px"
	 viewBox="0 0 1204 447" style="enable-background:new 0 0 1204 447;" xml:space="preserve">
<style type="text/css">
	.st0{fill:#FFFFFF;}
</style>
<path class="st0" d="M168.9,2C76.7,2,2,76.7,2,168.9C2,260.6,133.4,410,163,442.4c3.1,3.5,8.6,3.5,11.7,0
	c29.6-32.5,161-181.9,161-273.5C335.7,76.7,261,2,168.9,2z M168.9,417.7l-16.1-18.8c-81.2-95.2-129.7-181.2-129.7-230
	c0-80.4,65.4-145.8,145.8-145.8s145.7,65.4,145.7,145.8c0,48.8-48.5,134.8-129.7,230L168.9,417.7z"/>
<path class="st0" d="M289.7,193.3c-12.6,45.6-55.4,114.4-117.1,187.5c-1.9,2.3-5.4,2.3-7.4,0c-7.2-8.5-14.2-17-20.8-25.4
	c-18.5-23.2-34.8-45.7-48.7-66.9c-1.9-2.9-0.2-6.9,3.3-7.4c34.5-4.9,67.7-20.7,94.2-47.2c25.7-25.7,57.7-41.3,91-46.7
	C287.7,186.8,290.6,190,289.7,193.3z"/>
<g>
	<path class="st0" d="M482.2,179.8v72.3c0,9.3,4.8,13.8,12.5,13.8c2.2,0,7.4,0,11.2-0.6c3.5-0.6,5.8,1.3,5.8,4.5v25
		c0,7.4-16,9.3-27.8,9.3c-23,0-43.8-11.5-43.8-44.5v-79.7H419c-2.9,0-4.8-1.9-4.8-4.8v-25c0-2.9,1.9-4.8,4.8-4.8h21v-36.8
		c0-2.9,1.9-4.8,4.8-4.8h32.6c2.9,0,4.8,1.9,4.8,4.8v36.8h24.6c2.9,0,4.8,1.9,4.8,4.8v25c0,2.9-1.9,4.8-4.8,4.8L482.2,179.8
		L482.2,179.8z"/>
	<path class="st0" d="M548.1,145.2h32.6c2.9,0,4.8,1.9,4.8,4.8v147.2c0,2.9-1.9,4.8-4.8,4.8h-32.6c-2.9,0-4.8-1.9-4.8-4.8V150
		C543.3,147.1,545.2,145.2,548.1,145.2z"/>
	<path class="st0" d="M780,223.9c0,44.8-32,80.3-76.1,80.3c-19.5,0-34.2-7.7-44.5-18.9v72.6c0,2.9-1.9,4.8-4.8,4.8H622
		c-2.9,0-4.8-1.9-4.8-4.8V150c0-2.9,1.9-4.8,4.8-4.8h27.8c2.9,0,4.5,1.9,4.8,4.8l1.6,16c10.9-14.4,26.6-24,47.7-24
		C748.1,142,780,178.2,780,223.9z M739.4,223.6c0-25.3-17-43.2-40.3-43.2c-23.7,0-40,19.5-40,43.2c0,24,16.3,42.2,40,42.2
		C722.5,265.8,739.4,247.9,739.4,223.6z"/>
	<path class="st0" d="M964,223.9c0,44.8-32,80.3-76.1,80.3c-19.5,0-34.2-7.7-44.5-18.9v72.6c0,2.9-1.9,4.8-4.8,4.8H806
		c-2.9,0-4.8-1.9-4.8-4.8V150c0-2.9,1.9-4.8,4.8-4.8h27.8c2.9,0,4.5,1.9,4.8,4.8l1.6,16c10.9-14.4,26.6-24,47.7-24
		C932,142,964,178.2,964,223.9z M923.4,223.6c0-25.3-17-43.2-40.3-43.2c-23.7,0-40,19.5-40,43.2c0,24,16.3,42.2,40,42.2
		C906.4,265.8,923.4,247.9,923.4,223.6z"/>
	<path class="st0" d="M989.9,68.4h32.6c2.9,0,4.8,1.9,4.8,4.8v223.9c0,2.9-1.9,4.8-4.8,4.8h-32.6c-2.9,0-4.8-1.9-4.8-4.8V73.2
		C985.1,70.3,987,68.4,989.9,68.4z"/>
	<path class="st0" d="M1190.8,238.3h-100.5c4.5,20.2,20.5,31.7,44.8,31.7c12.5,0,22.4-3.2,33.3-10.9c2.9-1.9,4.8-1.9,7,0.3
		l14.1,13.8c2.2,2.2,2.2,4.5-0.3,7c-15,15-35.5,24-58.2,24c-48.9,0-82.5-36.2-82.5-81.3s33.6-80.9,79-80.9s74.5,35.8,74.5,77.4
		C1202,231.9,1200.4,238.3,1190.8,238.3z M1089.7,210.8h74.9c-3.2-21.1-18.2-32.6-36.8-32.6C1108.6,178.2,1093.6,189.7,1089.7,210.8
		z"/>
	<path class="st0" d="M537.8,88.9c0-14.8,11.5-26.7,26.7-26.7s27,11.8,27,26.7s-11.8,27-27,27S537.8,103.7,537.8,88.9z"/>
</g>
</svg>
