<svg width="116" height="117" viewBox="0 0 116 117" fill="none" xmlns="http://www.w3.org/2000/svg">
<path fill-rule="evenodd" clip-rule="evenodd" d="M0.000355385 58.7349C-0.0298054 49.7575 1.46675 40.8378 4.42969 32.342C9.33584 18.6127 18.6484 9.19942 32.4986 4.78702C48.9916 -0.594197 66.8145 -0.644114 83.3375 4.64641C99.7917 9.81319 109.599 21.5016 113.528 38.1036C116.932 52.0994 116.819 66.6949 113.199 80.6387C108.476 98.7776 96.7203 109.994 78.5729 114.265C64.3104 117.745 49.3657 117.513 35.2232 113.592C10.4468 106.688 0.00969087 82.5313 0.000355385 58.7349Z" fill="#EEEEEE"/>
<path fill-rule="evenodd" clip-rule="evenodd" d="M36.7677 99H81.7677V21H36.7677V99Z" fill="white"/>
<path fill-rule="evenodd" clip-rule="evenodd" d="M26.7677 102H89.7677V99H26.7677V102Z" fill="#0B2146"/>
<path fill-rule="evenodd" clip-rule="evenodd" d="M74.6855 65.7834C73.7172 65.7834 72.9325 65.0003 72.9325 64.0345V57.3499C72.9325 56.3841 73.7172 55.601 74.6855 55.601C75.6533 55.601 76.438 56.3841 76.438 57.3499V64.0345C76.438 65.0003 75.6533 65.7834 74.6855 65.7834Z" fill="#0B2146"/>
<path fill-rule="evenodd" clip-rule="evenodd" d="M80.2253 60.288H74.9673C74.6214 60.288 74.3411 60.0083 74.3411 59.6631C74.3411 59.3186 74.6214 59.0388 74.9673 59.0388H80.2253C80.5711 59.0388 80.8509 59.3186 80.8509 59.6631C80.8509 60.0083 80.5711 60.288 80.2253 60.288Z" fill="#0B2146"/>
<path fill-rule="evenodd" clip-rule="evenodd" d="M33.2635 99.8864H36.7691V20.8864H33.2635V99.8864Z" fill="#0B2146"/>
<path fill-rule="evenodd" clip-rule="evenodd" d="M33.2868 21.074H84.989V17.5756H33.2868V21.074Z" fill="#0B2146"/>
<path fill-rule="evenodd" clip-rule="evenodd" d="M81.481 99.8864H84.9866V20.8864H81.481V99.8864Z" fill="#0B2146"/>
<path fill-rule="evenodd" clip-rule="evenodd" d="M64.2839 70.0513H63.5849V64.1229C63.5849 61.233 61.2295 58.8812 58.333 58.8812C55.4378 58.8812 53.0818 61.233 53.0818 64.1229V70.0513H52.3828V64.1229C52.3828 60.8493 55.0521 58.1842 58.333 58.1842C61.6139 58.1842 64.2839 60.8493 64.2839 64.1229V70.0513Z" fill="#0B2146"/>
<path fill-rule="evenodd" clip-rule="evenodd" d="M67.3931 70.0513H66.6941V64.1229C66.6941 61.233 64.3387 58.8812 61.4422 58.8812C58.5464 58.8812 56.1904 61.233 56.1904 64.1229V70.0513H55.4919V64.1229C55.4919 60.8493 58.1613 58.1842 61.4422 58.1842C64.7231 58.1842 67.3931 60.8493 67.3931 64.1229V70.0513Z" fill="#0B2146"/>
<path fill-rule="evenodd" clip-rule="evenodd" d="M53.4857 98.6212H70.9118V70.0514H53.4857V98.6212Z" fill="#004a9d"/>
<path fill-rule="evenodd" clip-rule="evenodd" d="M48.5074 98.6212H53.4863V70.0514H48.5074V98.6212Z" fill="#0B2146"/>
<path opacity="0.24" fill-rule="evenodd" clip-rule="evenodd" d="M50.9966 94.3184L53.486 98.6212H48.5071L50.9966 94.3184Z" fill="white"/>
<path fill-rule="evenodd" clip-rule="evenodd" d="M62.1992 88.823L61.8271 88.3881C59.9454 86.1859 58.8222 84.1976 58.8222 83.0693C58.8222 81.2111 60.3366 79.6992 62.1992 79.6992C64.0613 79.6992 65.575 81.2111 65.575 83.0693C65.575 84.1976 64.4524 86.1859 62.5708 88.3875L62.1992 88.823ZM62.1992 79.2118C60.0642 79.2118 58.3332 80.9387 58.3332 83.0693C58.3332 85.1884 61.3772 88.6428 62.0633 89.3936C62.1356 89.473 62.2623 89.473 62.3345 89.3936C63.0207 88.6428 66.0647 85.1884 66.0647 83.0693C66.0647 80.9387 64.3336 79.2118 62.1992 79.2118Z" fill="white"/>
<path fill-rule="evenodd" clip-rule="evenodd" d="M64.9978 83.6352C64.7064 84.6895 63.7148 86.2808 62.2843 87.971C62.2396 88.0236 62.1582 88.0236 62.1141 87.971C61.947 87.7737 61.786 87.5783 61.6324 87.3846C61.2039 86.8483 60.825 86.3278 60.5037 85.8373C60.4596 85.7701 60.5 85.6791 60.5808 85.6675C61.379 85.5533 62.1484 85.1898 62.7636 84.5765C63.3586 83.9821 64.0998 83.6223 64.8717 83.4971C64.9513 83.4843 65.0192 83.5576 64.9978 83.6352Z" fill="white"/>
</svg>
