<svg width="26" height="25" viewBox="0 0 26 25" fill="none" xmlns="http://www.w3.org/2000/svg">
<g clip-path="url(#clip0)">
<path fill-rule="evenodd" clip-rule="evenodd" d="M18.7008 9.69459L20.0559 14.0524C18.0198 15.9406 17.3388 16.8206 16.4294 19.8673L12.2136 19.9205L10.6287 16.2544C11.1647 15.9884 12.3093 15.1493 12.5103 14.7591C11.765 13.362 10.0379 13.7713 8.19736 13.7699C6.4224 13.7686 4.64335 13.7617 2.86839 13.7727C2.0616 14.9146 1.61991 16.0539 1.81135 17.9026C2.28449 17.6461 4.27003 14.654 7.52867 16.2885C9.17235 17.1126 10.1145 19.3993 11.348 20.9274L17.5781 20.9342L17.7517 20.1088C18.084 16.732 20.4456 15.1889 23.0698 15.7974C24.2184 16.0648 24.5958 16.867 25.5134 15.9666C24.4318 13.8313 22.2958 13.774 21.7721 13.4766C21.2976 13.2065 21.344 12.7412 21.0432 12.1859C21.5683 11.7138 22.4257 11.576 22.1864 10.4914C21.9758 9.53496 20.9338 9.46674 20.2624 9.87469L19.859 9.24708L18.7008 9.69459ZM9.5566 12.4028L14.9225 14.3634C14.2634 19.0637 12.9903 19.9 15.9071 19.2983C16.1217 18.5739 17.0899 14.6213 17.0434 13.8996C16.9518 12.4997 14.3208 11.7711 13.0669 11.2841L13.499 8.14604C14.0596 8.39026 13.7396 8.19789 14.2046 8.60447C14.8486 9.16522 15.1809 9.93335 16.4335 9.69595C16.9203 9.60318 19.3571 8.67132 19.7387 8.37389C19.8453 5.99308 17.7203 7.70535 16.0889 8.03416C15.356 7.15415 13.7998 5.02438 12.632 4.80609C10.0899 4.33265 10.3825 5.04485 9.9012 8.3275C9.70429 9.67003 9.2667 11.1968 9.5566 12.4028ZM0.0199884 7.33834C0.0199884 9.26072 -0.0812031 10.7438 0.171776 12.5802C1.24249 12.9581 7.27022 13.0141 8.20283 12.5352C8.50913 11.4996 8.37786 8.65495 8.37786 7.33834C8.37786 6.24276 8.05241 6.01627 6.98716 6.01627H1.45308C0.320828 6.01627 0.0199884 6.14998 0.0199884 7.33834ZM24.1364 20.6258C23.3337 23.154 19.1958 22.2549 20.0696 19.3597C20.8545 16.7565 24.9596 18.0349 24.1364 20.6258ZM21.0309 16.6187C16.3898 18.0527 18.6734 24.9904 23.2968 23.4323C24.7996 22.9248 26.2286 21.0474 25.512 18.8754C24.9897 17.2982 23.2065 15.9461 21.0309 16.6187ZM5.13153 17.9954C7.88558 17.2654 8.83322 21.4213 6.1831 22.0734C3.41264 22.7543 2.33098 18.7389 5.13153 17.9954ZM4.65292 16.5519C0.112975 17.8576 1.91254 24.7176 6.58786 23.5101C8.20693 23.0912 9.60583 21.2753 9.13816 19.1633C8.76895 17.4919 6.74102 15.9515 4.65292 16.5519ZM12.5281 0.395107C10.0967 1.67078 12.029 4.90841 14.1895 3.83057C16.4773 2.6886 14.7871 -0.789158 12.5281 0.395107Z" fill="#004a9d"/>
</g>
<defs>
<clipPath id="clip0">
<rect y="0.152588" width="25.704" height="23.9345" fill="white"/>
</clipPath>
</defs>
</svg>
