<svg width="116" height="117" viewBox="0 0 116 117" fill="none" xmlns="http://www.w3.org/2000/svg">
<path fill-rule="evenodd" clip-rule="evenodd" d="M0.000355385 58.7349C-0.0298054 49.7575 1.46675 40.8378 4.42969 32.342C9.33584 18.6127 18.6484 9.19942 32.4986 4.78702C48.9916 -0.594197 66.8145 -0.644114 83.3375 4.64641C99.7917 9.81319 109.599 21.5016 113.528 38.1036C116.932 52.0994 116.819 66.6949 113.199 80.6387C108.476 98.7776 96.7203 109.994 78.5729 114.265C64.3104 117.745 49.3657 117.513 35.2232 113.592C10.4468 106.688 0.00969087 82.5313 0.000355385 58.7349Z" fill="#EEEEEE"/>
<path fill-rule="evenodd" clip-rule="evenodd" d="M81.1004 71.0914L80.6108 70.561V70.5539H80.6122V70.561C80.6122 70.8541 80.8317 71.0914 81.1011 71.0914H81.1004Z" fill="#0B2146"/>
<path fill-rule="evenodd" clip-rule="evenodd" d="M84.1329 34.9327H78.8022C78.3704 34.9327 78.0202 34.5832 78.0202 34.1515V33.3738C78.0202 32.5104 78.7207 31.8099 79.5841 31.8099H83.351C84.2144 31.8099 84.9149 32.5104 84.9149 33.3738V34.1515C84.9149 34.5832 84.5646 34.9327 84.1329 34.9327Z" fill="#0B2146"/>
<path fill-rule="evenodd" clip-rule="evenodd" d="M88.3902 61.3351V84.7953H74.5465V61.2494C74.5465 60.5053 74.7273 59.7727 75.0733 59.1136L76.6265 56.1531C76.9388 55.5562 77.1175 54.8979 77.1476 54.2246L78.4813 34.9344H84.4554L85.7898 54.2461C85.8198 54.9058 85.9914 55.5512 86.2923 56.1381L87.8827 59.2352C88.2158 59.8849 88.3902 60.6047 88.3902 61.3351Z" fill="#0B2146"/>
<path fill-rule="evenodd" clip-rule="evenodd" d="M74.4261 78.1449H86.4392V66.1325H74.4261V78.1449Z" fill="white"/>
<path fill-rule="evenodd" clip-rule="evenodd" d="M83.1926 48.3018H77.24L77.8132 40.6031H82.6201L83.1926 48.3018Z" fill="white"/>
<path fill-rule="evenodd" clip-rule="evenodd" d="M78.7834 72.1387L58.3981 71.4869C58.3939 68.9401 59.436 65.911 60.0829 62.9883H77.1265C77.8291 66.164 78.9992 69.4676 78.7834 72.1387Z" fill="white"/>
<path fill-rule="evenodd" clip-rule="evenodd" d="M78.7833 72.1387C78.6504 73.8413 77.9571 75.2866 76.2366 76.278C73.0516 78.1135 68.6043 78.077 68.6043 81.2849C68.6043 78.077 64.1577 78.1135 60.9734 76.278C59.0364 75.1586 58.3981 73.4696 58.3981 71.4869L78.7833 72.1387Z" fill="#0B2146"/>
<path d="M68.5 94.1423V75.186" stroke="#0B2146" stroke-linecap="round" stroke-linejoin="round"/>
<path fill-rule="evenodd" clip-rule="evenodd" d="M75.4272 95.8151H61.7787C61.7787 94.8916 64.8344 94.1426 68.6033 94.1426C72.3723 94.1426 75.4272 94.8916 75.4272 95.8151Z" fill="#0B2146"/>
<path fill-rule="evenodd" clip-rule="evenodd" d="M36.2169 20.927H40.1638L40.5369 15.7942L35.8438 16.7155L36.2169 20.927Z" fill="white"/>
<path fill-rule="evenodd" clip-rule="evenodd" d="M41.2831 20.927C41.2831 28.2969 40.3617 40.1414 42.9942 47.3798C45.626 54.6183 49.3106 62.1191 49.3106 73.4375V95.6789H27.0699V73.4375C27.0699 62.1191 30.7545 54.6183 33.387 47.3798C36.0188 40.1414 35.0975 28.2969 35.0975 20.927H41.2831Z" fill="#0B2146"/>
<path fill-rule="evenodd" clip-rule="evenodd" d="M27 89.1646H42.7264V73.4375H27V89.1646Z" fill="white"/>
<path fill-rule="evenodd" clip-rule="evenodd" d="M64.7679 80.946L44.6078 80.2941C44.2083 76.9905 45.4705 72.7819 46.2139 68.7485H63.2626C64.056 73.0528 65.4419 77.5594 64.7679 80.946Z" fill="white"/>
<path fill-rule="evenodd" clip-rule="evenodd" d="M64.7679 80.946C64.4648 82.4699 63.7486 83.7729 62.372 84.7228C61.9731 84.998 61.555 85.2367 61.1283 85.4576C59.0454 86.5169 56.8926 87.0501 54.7361 87.0451C52.5839 87.0451 50.431 86.5169 48.3475 85.4526C47.9208 85.2367 47.5033 84.998 47.1045 84.7228C45.5392 83.64 44.8237 82.1025 44.6078 80.2941L64.7679 80.946Z" fill="#EF7153"/>
<path fill-rule="evenodd" clip-rule="evenodd" d="M61.5626 101.567H47.9141C47.9141 100.643 50.9697 99.8942 54.7387 99.8942C58.5077 99.8942 61.5626 100.643 61.5626 101.567Z" fill="#EF7153"/>
<path d="M54.5 99.9799V86.4114" stroke="#EF7153" stroke-linecap="round" stroke-linejoin="round"/>
</svg>
