<svg width="116" height="117" viewBox="0 0 116 117" fill="none" xmlns="http://www.w3.org/2000/svg">
<path fill-rule="evenodd" clip-rule="evenodd" d="M0.000359199 58.7349C-0.0298016 49.7575 1.46675 40.8378 4.42969 32.342C9.33585 18.6127 18.6484 9.19942 32.4986 4.78702C48.9916 -0.594197 66.8145 -0.644114 83.3376 4.64641C99.7917 9.81319 109.599 21.5016 113.528 38.1036C116.932 52.0994 116.819 66.6949 113.199 80.6387C108.476 98.7776 96.7203 109.994 78.5729 114.265C64.3104 117.745 49.3657 117.513 35.2232 113.592C10.4468 106.688 0.00969469 82.5313 0.000359199 58.7349Z" fill="#EEEEEE"/>
<path fill-rule="evenodd" clip-rule="evenodd" d="M19.0663 98H97.0663V48H19.0663V98Z" fill="#004a9d"/>
<path fill-rule="evenodd" clip-rule="evenodd" d="M48.0663 98H68.0663V60H48.0663V98Z" fill="white"/>
<path fill-rule="evenodd" clip-rule="evenodd" d="M48.0663 85L68.0663 65.0576V63L48.0663 82.9424V85Z" fill="#C8EAFB"/>
<path fill-rule="evenodd" clip-rule="evenodd" d="M48.0663 91L68.0663 71.1051V67L48.0663 86.8949V91Z" fill="#C8EAFB"/>
<path fill-rule="evenodd" clip-rule="evenodd" d="M48.0663 96L68.0663 76.0568V74L48.0663 93.9425V96Z" fill="#C8EAFB"/>
<path fill-rule="evenodd" clip-rule="evenodd" d="M74.0663 89H92.0663V61H74.0663V89Z" fill="white"/>
<path fill-rule="evenodd" clip-rule="evenodd" d="M74.0663 79L92.0663 61.2516V60H91.2821L74.0663 76.9753V79Z" fill="#C8EAFB"/>
<path fill-rule="evenodd" clip-rule="evenodd" d="M74.0663 86L92.0663 68.0879V64L74.0663 81.9121V86Z" fill="#C8EAFB"/>
<path fill-rule="evenodd" clip-rule="evenodd" d="M74.8504 89L92.0663 72.0253V70L74.0663 87.7484V89H74.8504Z" fill="#C8EAFB"/>
<path fill-rule="evenodd" clip-rule="evenodd" d="M23.0663 89H41.0663V61H23.0663V89Z" fill="white"/>
<path fill-rule="evenodd" clip-rule="evenodd" d="M23.0663 79L41.0663 61.2516V60H40.2821L23.0663 76.9753V79Z" fill="#C8EAFB"/>
<path fill-rule="evenodd" clip-rule="evenodd" d="M23.0663 86L41.0663 68.0879V64L23.0663 81.9121V86Z" fill="#C8EAFB"/>
<path fill-rule="evenodd" clip-rule="evenodd" d="M23.8504 89L41.0663 72.0253V70L23.0663 87.7484V89H23.8504Z" fill="#C8EAFB"/>
<path fill-rule="evenodd" clip-rule="evenodd" d="M37.0663 50H40.0663V32H37.0663V50Z" fill="#004a9d"/>
<path fill-rule="evenodd" clip-rule="evenodd" d="M76.0663 50H79.0663V32H76.0663V50Z" fill="#004a9d"/>
<path fill-rule="evenodd" clip-rule="evenodd" d="M15.0663 53H101.066V47H15.0663V53Z" fill="#0B2146"/>
<path fill-rule="evenodd" clip-rule="evenodd" d="M15.0663 42H101.066V20H15.0663V42Z" fill="#004a9d"/>
<path fill-rule="evenodd" clip-rule="evenodd" d="M17.0663 40H99.0663V22H17.0663V40Z" fill="white"/>
<path fill-rule="evenodd" clip-rule="evenodd" d="M48.5104 36.4409V37.4888C48.5104 37.6267 48.4161 37.7198 48.2747 37.7198H46.7818C46.6404 37.7198 46.5461 37.6267 46.5461 37.4888V36.4101C45.3197 36.1483 44.2668 35.4861 43.7326 34.8085C43.654 34.7161 43.654 34.5929 43.7326 34.4851L44.9426 33.1453C45.0368 33.0375 45.1626 33.0067 45.304 33.1145C46.1218 33.7613 46.8133 34.0385 47.6776 34.0385C48.3061 34.0385 48.919 33.7613 48.919 33.16C48.919 31.6662 44.0468 32.159 44.0468 28.6016C44.0468 26.9685 45.1783 25.9213 46.5461 25.5671V24.3967C46.5461 24.2581 46.6404 24.1657 46.7818 24.1657H48.2747C48.4161 24.1657 48.5104 24.2581 48.5104 24.3967V25.5055C49.5476 25.6749 50.3804 26.1831 51.1197 26.8453C51.2297 26.9531 51.2297 27.0455 51.1511 27.1687L50.0033 28.5708C49.909 28.694 49.799 28.7094 49.6733 28.6324C48.8718 28.1242 48.4004 27.9086 47.7247 27.9086C46.9861 27.9086 46.6718 28.2929 46.6718 28.6632C46.6718 30.1878 51.544 29.4024 51.544 33.1908C51.544 35.0857 50.0818 36.1483 48.5104 36.4409Z" fill="#004a9d"/>
<path fill-rule="evenodd" clip-rule="evenodd" d="M59.1394 36.4409V37.4888C59.1394 37.6267 59.0451 37.7198 58.9037 37.7198H57.4108C57.2694 37.7198 57.1751 37.6267 57.1751 37.4888V36.4101C55.9487 36.1483 54.8958 35.4861 54.3616 34.8085C54.283 34.7161 54.283 34.5929 54.3616 34.4851L55.5716 33.1453C55.6658 33.0375 55.7916 33.0067 55.933 33.1145C56.7508 33.7613 57.4423 34.0385 58.3066 34.0385C58.9351 34.0385 59.548 33.7613 59.548 33.16C59.548 31.6662 54.6758 32.159 54.6758 28.6016C54.6758 26.9685 55.8073 25.9213 57.1751 25.5671V24.3967C57.1751 24.2581 57.2694 24.1657 57.4108 24.1657H58.9037C59.0451 24.1657 59.1394 24.2581 59.1394 24.3967V25.5055C60.1766 25.6749 61.0094 26.1831 61.7487 26.8453C61.858 26.9531 61.858 27.0455 61.7801 27.1687L60.6323 28.5708C60.538 28.694 60.428 28.7094 60.3023 28.6324C59.5008 28.1242 59.0294 27.9086 58.3537 27.9086C57.6151 27.9086 57.3008 28.2929 57.3008 28.6632C57.3008 30.1878 62.173 29.4024 62.173 33.1908C62.173 35.0857 60.7108 36.1483 59.1394 36.4409Z" fill="#004a9d"/>
<path fill-rule="evenodd" clip-rule="evenodd" d="M69.7685 36.4409V37.4888C69.7685 37.6267 69.6742 37.7198 69.5328 37.7198H68.0399C67.8985 37.7198 67.8042 37.6267 67.8042 37.4888V36.4101C66.5778 36.1483 65.5249 35.4861 64.9906 34.8085C64.9121 34.7161 64.9121 34.5929 64.9906 34.4851L66.2006 33.1453C66.2949 33.0375 66.4206 33.0067 66.5621 33.1145C67.3799 33.7613 68.0713 34.0385 68.9356 34.0385C69.5642 34.0385 70.1771 33.7613 70.1771 33.16C70.1771 31.6662 65.3049 32.159 65.3049 28.6016C65.3049 26.9685 66.4363 25.9213 67.8042 25.5671V24.3967C67.8042 24.2581 67.8985 24.1657 68.0399 24.1657H69.5328C69.6742 24.1657 69.7685 24.2581 69.7685 24.3967V25.5055C70.8056 25.6749 71.6385 26.1831 72.3778 26.8453C72.4878 26.9531 72.4878 27.0455 72.4092 27.1687L71.2613 28.5708C71.1671 28.694 71.0571 28.7094 70.9313 28.6324C70.1299 28.1242 69.6585 27.9086 68.9828 27.9086C68.2442 27.9086 67.9299 28.2929 67.9299 28.6632C67.9299 30.1878 72.8021 29.4024 72.8021 33.1908C72.8021 35.0857 71.3399 36.1483 69.7685 36.4409Z" fill="#004a9d"/>
</svg>
