
<svg width="20" height="21" viewBox="0 0 20 21" xmlns="http://www.w3.org/2000/svg">
<path fill-rule="evenodd" clip-rule="evenodd" d="M17.3524 5.87125C14.2427 6.14778 11.2941 6.4266 8.34235 6.66181C7.4949 6.72941 6.65503 6.98527 6.62526 7.90159C6.60549 8.51382 7.06032 9.3508 7.55347 9.73983C10.8922 12.3722 14.2986 14.9114 17.681 17.4839C18.0332 17.752 18.3711 18.0405 18.8733 18.4471C18.1029 19.2081 17.4244 19.9361 16.6789 20.579C16.4622 20.766 16.0042 20.8491 15.7412 20.7456C11.7555 19.1764 7.71915 17.7206 3.83355 15.9122C1.55231 14.8507 0.856158 12.4084 0.694624 9.95283C0.296158 3.89016 4.57949 -0.126116 10.4452 0.656527C13.3182 1.03994 15.656 2.21237 17.0393 5.0103C17.1459 5.22611 17.2069 5.46692 17.3524 5.87125Z" fill="#004a9d"/>
<path fill-rule="evenodd" clip-rule="evenodd" d="M19.1122 15.9768C15.7971 13.4868 12.7516 11.1991 9.41602 8.69349C10.891 8.54426 12.0601 8.4162 13.2308 8.31008C14.5224 8.19299 15.8242 8.15753 17.106 7.97003C18.09 7.8259 18.4146 8.29452 18.4941 9.18685C18.6849 11.332 18.8838 13.4766 19.1122 15.9768Z" fill="#004a9d"/>
</svg>
