<?xml version="1.0" encoding="UTF-8"?>
<svg width="657px" height="218px" viewBox="0 0 657 218" version="1.1" xmlns="http://www.w3.org/2000/svg" xmlns:xlink="http://www.w3.org/1999/xlink">
    <!-- Generator: Sketch 53.2 (72643) - https://sketchapp.com -->
    <title>svgArtboard</title>
    <desc>Created with Sketch.</desc>
    <g id="Artboard" stroke="none" stroke-width="1" fill="none" fill-rule="evenodd">
        <polygon id="Fill-48" fill="#A4BBD6" points="91.5771604 185.968 113.13584 185.968 113.13584 131.968 91.5771604 131.968"></polygon>
        <g id="Group-500" transform="translate(-103.000000, -4.000000)">
            <g id="Group-4">
                <g id="Group-14" transform="translate(260.988050, 21.251017)">
                    <polygon id="Fill-123" fill="#3C4D6B" points="53.8008009 99.7987611 53.8008009 50.4456522 45.5235903 50.4456522 45.5235903 37.226412 42.5659183 37.226412 42.5659183 17.8367009 26.2730964 17.8367009 26.2730964 3.58780538 24.8230897 3.58780538 24.8230897 17.8367009 21.6315801 17.8367009 21.6315801 0 20.1815734 0 20.1815734 17.8367009 9.88204124 17.8367009 9.88204124 50.4456522 4.56143492 50.4456522 4.56143492 99.7987611 0 99.7987611 0 168.691086 57.007259 168.691086 57.007259 99.7987611"></polygon>
                    <polygon id="Fill-365" fill="#FFFFFF" points="12.8094959 29.6633786 15.0709938 29.6633786 15.0709938 23.6431989 12.8094959 23.6431989"></polygon>
                    <polygon id="Fill-366" fill="#FFFFFF" points="18.3884981 29.6633786 20.6489283 29.6633786 20.6489283 23.6431989 18.3884981 23.6431989"></polygon>
                    <polygon id="Fill-367" fill="#FFFFFF" points="23.9675003 29.6633786 26.2279305 29.6633786 26.2279305 23.6431989 23.9675003 23.6431989"></polygon>
                    <polygon id="Fill-368" fill="#FFFFFF" points="29.5454348 29.6633786 31.8069327 29.6633786 31.8069327 23.6431989 29.5454348 23.6431989"></polygon>
                    <polygon id="Fill-369" fill="#FFFFFF" points="12.8094959 39.6913266 15.0709938 39.6913266 15.0709938 33.6711469 12.8094959 33.6711469"></polygon>
                    <polygon id="Fill-370" fill="#FFFFFF" points="18.3884981 39.6913266 20.6489283 39.6913266 20.6489283 33.6711469 18.3884981 33.6711469"></polygon>
                    <polygon id="Fill-371" fill="#FFFFFF" points="23.9675003 39.6913266 26.2279305 39.6913266 26.2279305 33.6711469 23.9675003 33.6711469"></polygon>
                    <polygon id="Fill-372" fill="#FFFFFF" points="29.5454348 39.6913266 31.8069327 39.6913266 31.8069327 33.6711469 29.5454348 33.6711469"></polygon>
                    <polygon id="Fill-373" fill="#FFFFFF" points="12.8094959 49.7192746 15.0709938 49.7192746 15.0709938 43.699095 12.8094959 43.699095"></polygon>
                    <polygon id="Fill-374" fill="#FFFFFF" points="18.3884981 49.7192746 20.6489283 49.7192746 20.6489283 43.699095 18.3884981 43.699095"></polygon>
                    <polygon id="Fill-375" fill="#FFFFFF" points="35.8739986 29.6633786 38.1354965 29.6633786 38.1354965 23.6431989 35.8739986 23.6431989"></polygon>
                </g>
                <g id="Group-3" transform="translate(166.554114, 17.147599)">
                    <g id="Group-6">
                        <polygon id="Fill-4" fill="#081837" points="1.15673092 172.675125 35.3247828 172.675125 35.3247828 37.3063542 1.15673092 37.3063542"></polygon>
                        <polygon id="Fill-5" fill="#081837" points="6.49548902 85.2716668 29.9860247 85.2716668 29.9860247 27.7132917 6.49548902 27.7132917"></polygon>
                        <polygon id="Fill-6" fill="#081837" points="11.8342471 53.2947918 24.6472666 53.2947918 24.6472666 21.3179167 11.8342471 21.3179167"></polygon>
                        <polygon id="Fill-7" fill="#081837" points="22.5117633 37.3063542 13.9697504 37.3063542 13.9697504 15.9884375 17.0524743 15.9884375 20.104132 15.9884375 22.5117633 15.9884375"></polygon>
                        <polygon id="Fill-8" fill="#3C4D6B" points="16.8201133 1.03734505 16.5243461 1.03734505 16.2253757 1.03734505 16.2253757 22.3552618 17.0528832 22.3552618 17.0528832 1.03734505"></polygon>
                        <polygon id="Fill-9" fill="#3C4D6B" points="18.9550827 0 18.6593155 0 18.360345 0 18.360345 21.3179167 19.1889203 21.3179167 19.1889203 0"></polygon>
                        <polygon id="Fill-10" fill="#3C4D6B" points="0.0889793017 38.3722501 36.3925344 38.3722501 36.3925344 37.3063542 0.0889793017 37.3063542"></polygon>
                        <polygon id="Fill-11" fill="#3C4D6B" points="5.4277374 28.7791875 29.9860247 28.7791875 29.9860247 27.7132917 5.4277374 27.7132917"></polygon>
                        <polygon id="Fill-12" fill="#3C4D6B" points="10.7664955 22.3187929 24.6472666 22.3187929 24.6472666 21.3829363 10.7664955 21.3829363"></polygon>
                        <polygon id="Fill-13" fill="#3C4D6B" points="8.69559124 36.2404584 9.63414491 36.2404584 9.63414491 29.8450834 8.69559124 29.8450834"></polygon>
                        <polygon id="Fill-15" fill="#3C4D6B" points="11.8988461 36.2404584 12.8373998 36.2404584 12.8373998 29.8450834 11.8988461 29.8450834"></polygon>
                        <polygon id="Fill-17" fill="#3C4D6B" points="15.102101 36.2404584 16.0406546 36.2404584 16.0406546 29.8450834 15.102101 29.8450834"></polygon>
                        <polygon id="Fill-19" fill="#3C4D6B" points="17.2376042 36.2404584 18.1761579 36.2404584 18.1761579 29.8450834 17.2376042 29.8450834"></polygon>
                        <polygon id="Fill-21" fill="#3C4D6B" points="20.4408591 36.2404584 21.3794127 36.2404584 21.3794127 29.8450834 20.4408591 29.8450834"></polygon>
                        <polygon id="Fill-23" fill="#3C4D6B" points="23.6441139 36.2404584 24.5826676 36.2404584 24.5826676 29.8450834 23.6441139 29.8450834"></polygon>
                        <polygon id="Fill-25" fill="#3C4D6B" points="26.8473688 36.2404584 27.7859225 36.2404584 27.7859225 29.8450834 26.8473688 29.8450834"></polygon>
                        <polygon id="Fill-28" fill="#3C4D6B" points="4.35998578 50.0971042 6.49548902 50.0971042 6.49548902 42.6358334 4.35998578 42.6358334"></polygon>
                        <polygon id="Fill-29" fill="#3C4D6B" points="9.69874388 50.0971042 11.8342471 50.0971042 11.8342471 42.6358334 9.69874388 42.6358334"></polygon>
                        <polygon id="Fill-31" fill="#3C4D6B" points="15.037502 50.0971042 17.1730052 50.0971042 17.1730052 42.6358334 15.037502 42.6358334"></polygon>
                        <polygon id="Fill-32" fill="#3C4D6B" points="19.3085085 50.0971042 21.4440117 50.0971042 21.4440117 42.6358334 19.3085085 42.6358334"></polygon>
                        <polygon id="Fill-33" fill="#3C4D6B" points="24.6472666 50.0971042 26.7827698 50.0971042 26.7827698 42.6358334 24.6472666 42.6358334"></polygon>
                        <polygon id="Fill-34" fill="#3C4D6B" points="29.9860247 50.0971042 32.1215279 50.0971042 32.1215279 42.6358334 29.9860247 42.6358334"></polygon>
                        <polygon id="Fill-35" fill="#3C4D6B" points="4.35998578 60.7560626 6.49548902 60.7560626 6.49548902 53.2947918 4.35998578 53.2947918"></polygon>
                        <polygon id="Fill-36" fill="#3C4D6B" points="9.69874388 60.7560626 11.8342471 60.7560626 11.8342471 53.2947918 9.69874388 53.2947918"></polygon>
                        <polygon id="Fill-37" fill="#3C4D6B" points="15.037502 60.7560626 17.1730052 60.7560626 17.1730052 53.2947918 15.037502 53.2947918"></polygon>
                        <polygon id="Fill-38" fill="#3C4D6B" points="19.3085085 60.7560626 21.4440117 60.7560626 21.4440117 53.2947918 19.3085085 53.2947918"></polygon>
                        <polygon id="Fill-40" fill="#3C4D6B" points="24.6472666 60.7560626 26.7827698 60.7560626 26.7827698 53.2947918 24.6472666 53.2947918"></polygon>
                        <polygon id="Fill-41" fill="#3C4D6B" points="29.9860247 60.7560626 32.1215279 60.7560626 32.1215279 53.2947918 29.9860247 53.2947918"></polygon>
                        <polygon id="Fill-42" fill="#3C4D6B" points="4.35998578 72.4809168 6.49548902 72.4809168 6.49548902 65.0196459 4.35998578 65.0196459"></polygon>
                        <polygon id="Fill-43" fill="#3C4D6B" points="9.69874388 72.4809168 11.8342471 72.4809168 11.8342471 65.0196459 9.69874388 65.0196459"></polygon>
                        <polygon id="Fill-44" fill="#3C4D6B" points="15.037502 72.4809168 17.1730052 72.4809168 17.1730052 65.0196459 15.037502 65.0196459"></polygon>
                        <polygon id="Fill-45" fill="#3C4D6B" points="19.3085085 72.4809168 21.4440117 72.4809168 21.4440117 65.0196459 19.3085085 65.0196459"></polygon>
                        <polygon id="Fill-46" fill="#3C4D6B" points="24.6472666 72.4809168 26.7827698 72.4809168 26.7827698 65.0196459 24.6472666 65.0196459"></polygon>
                        <polygon id="Fill-48" fill="#3C4D6B" points="29.9860247 72.4809168 32.1215279 72.4809168 32.1215279 65.0196459 29.9860247 65.0196459"></polygon>
                        <polygon id="Fill-50" fill="#3C4D6B" points="4.35998578 83.1398751 6.49548902 83.1398751 6.49548902 75.6786043 4.35998578 75.6786043"></polygon>
                        <polygon id="Fill-53" fill="#3C4D6B" points="9.69874388 83.1398751 11.8342471 83.1398751 11.8342471 75.6786043 9.69874388 75.6786043"></polygon>
                        <polygon id="Fill-54" fill="#3C4D6B" points="15.037502 83.1398751 17.1730052 83.1398751 17.1730052 75.6786043 15.037502 75.6786043"></polygon>
                        <polygon id="Fill-55" fill="#3C4D6B" points="19.3085085 83.1398751 21.4440117 83.1398751 21.4440117 75.6786043 19.3085085 75.6786043"></polygon>
                        <polygon id="Fill-56" fill="#3C4D6B" points="24.6472666 83.1398751 26.7827698 83.1398751 26.7827698 75.6786043 24.6472666 75.6786043"></polygon>
                        <polygon id="Fill-57" fill="#3C4D6B" points="29.9860247 83.1398751 32.1215279 83.1398751 32.1215279 75.6786043 29.9860247 75.6786043"></polygon>
                        <polygon id="Fill-58" fill="#3C4D6B" points="4.35998578 94.8647293 6.49548902 94.8647293 6.49548902 87.4034585 4.35998578 87.4034585"></polygon>
                        <polygon id="Fill-59" fill="#3C4D6B" points="9.69874388 94.8647293 11.8342471 94.8647293 11.8342471 87.4034585 9.69874388 87.4034585"></polygon>
                        <polygon id="Fill-61" fill="#3C4D6B" points="15.037502 94.8647293 17.1730052 94.8647293 17.1730052 87.4034585 15.037502 87.4034585"></polygon>
                        <polygon id="Fill-62" fill="#3C4D6B" points="19.3085085 94.8647293 21.4440117 94.8647293 21.4440117 87.4034585 19.3085085 87.4034585"></polygon>
                        <polygon id="Fill-64" fill="#3C4D6B" points="24.6472666 94.8647293 26.7827698 94.8647293 26.7827698 87.4034585 24.6472666 87.4034585"></polygon>
                        <polygon id="Fill-65" fill="#3C4D6B" points="29.9860247 94.8647293 32.1215279 94.8647293 32.1215279 87.4034585 29.9860247 87.4034585"></polygon>
                        <polygon id="Fill-66" fill="#3C4D6B" points="4.35998578 105.523688 6.49548902 105.523688 6.49548902 98.0624168 4.35998578 98.0624168"></polygon>
                        <polygon id="Fill-67" fill="#3C4D6B" points="9.69874388 105.523688 11.8342471 105.523688 11.8342471 98.0624168 9.69874388 98.0624168"></polygon>
                        <polygon id="Fill-68" fill="#3C4D6B" points="15.037502 105.523688 17.1730052 105.523688 17.1730052 98.0624168 15.037502 98.0624168"></polygon>
                        <polygon id="Fill-69" fill="#3C4D6B" points="19.3085085 105.523688 21.4440117 105.523688 21.4440117 98.0624168 19.3085085 98.0624168"></polygon>
                        <polygon id="Fill-70" fill="#3C4D6B" points="24.6472666 105.523688 26.7827698 105.523688 26.7827698 98.0624168 24.6472666 98.0624168"></polygon>
                        <polygon id="Fill-71" fill="#3C4D6B" points="29.9860247 105.523688 32.1215279 105.523688 32.1215279 98.0624168 29.9860247 98.0624168"></polygon>
                        <polygon id="Fill-73" fill="#3C4D6B" points="4.35998578 116.182646 6.49548902 116.182646 6.49548902 108.721375 4.35998578 108.721375"></polygon>
                        <polygon id="Fill-74" fill="#3C4D6B" points="9.69874388 116.182646 11.8342471 116.182646 11.8342471 108.721375 9.69874388 108.721375"></polygon>
                        <polygon id="Fill-76" fill="#3C4D6B" points="15.037502 116.182646 17.1730052 116.182646 17.1730052 108.721375 15.037502 108.721375"></polygon>
                        <polygon id="Fill-79" fill="#3C4D6B" points="19.3085085 116.182646 21.4440117 116.182646 21.4440117 108.721375 19.3085085 108.721375"></polygon>
                        <polygon id="Fill-80" fill="#3C4D6B" points="24.6472666 116.182646 26.7827698 116.182646 26.7827698 108.721375 24.6472666 108.721375"></polygon>
                        <polygon id="Fill-81" fill="#3C4D6B" points="29.9860247 116.182646 32.1215279 116.182646 32.1215279 108.721375 29.9860247 108.721375"></polygon>
                        <polygon id="Fill-82" fill="#3C4D6B" points="4.35998578 127.9075 6.49548902 127.9075 6.49548902 120.446229 4.35998578 120.446229"></polygon>
                        <polygon id="Fill-83" fill="#3C4D6B" points="9.69874388 127.9075 11.8342471 127.9075 11.8342471 120.446229 9.69874388 120.446229"></polygon>
                        <polygon id="Fill-84" fill="#3C4D6B" points="15.037502 127.9075 17.1730052 127.9075 17.1730052 120.446229 15.037502 120.446229"></polygon>
                        <polygon id="Fill-85" fill="#3C4D6B" points="19.3085085 127.9075 21.4440117 127.9075 21.4440117 120.446229 19.3085085 120.446229"></polygon>
                        <polygon id="Fill-86" fill="#3C4D6B" points="24.6472666 127.9075 26.7827698 127.9075 26.7827698 120.446229 24.6472666 120.446229"></polygon>
                        <polygon id="Fill-88" fill="#3C4D6B" points="29.9860247 127.9075 32.1215279 127.9075 32.1215279 120.446229 29.9860247 120.446229"></polygon>
                        <polygon id="Fill-89" fill="#3C4D6B" points="4.35998578 138.566459 6.49548902 138.566459 6.49548902 131.105188 4.35998578 131.105188"></polygon>
                        <polygon id="Fill-90" fill="#3C4D6B" points="9.69874388 138.566459 11.8342471 138.566459 11.8342471 131.105188 9.69874388 131.105188"></polygon>
                        <polygon id="Fill-92" fill="#3C4D6B" points="15.037502 138.566459 17.1730052 138.566459 17.1730052 131.105188 15.037502 131.105188"></polygon>
                        <polygon id="Fill-93" fill="#3C4D6B" points="19.3085085 138.566459 21.4440117 138.566459 21.4440117 131.105188 19.3085085 131.105188"></polygon>
                        <polygon id="Fill-94" fill="#3C4D6B" points="24.6472666 138.566459 26.7827698 138.566459 26.7827698 131.105188 24.6472666 131.105188"></polygon>
                        <polygon id="Fill-95" fill="#3C4D6B" points="29.9860247 138.566459 32.1215279 138.566459 32.1215279 131.105188 29.9860247 131.105188"></polygon>
                        <polygon id="Fill-96" fill="#3C4D6B" points="4.35998578 149.225417 6.49548902 149.225417 6.49548902 141.764146 4.35998578 141.764146"></polygon>
                        <polygon id="Fill-97" fill="#3C4D6B" points="9.69874388 149.225417 11.8342471 149.225417 11.8342471 141.764146 9.69874388 141.764146"></polygon>
                        <polygon id="Fill-98" fill="#3C4D6B" points="15.037502 149.225417 17.1730052 149.225417 17.1730052 141.764146 15.037502 141.764146"></polygon>
                        <polygon id="Fill-99" fill="#3C4D6B" points="19.3085085 149.225417 21.4440117 149.225417 21.4440117 141.764146 19.3085085 141.764146"></polygon>
                        <polygon id="Fill-102" fill="#3C4D6B" points="29.9860247 149.225417 32.1215279 149.225417 32.1215279 141.764146 29.9860247 141.764146"></polygon>
                        <polygon id="Fill-104" fill="#3C4D6B" points="4.35998578 160.950271 6.49548902 160.950271 6.49548902 153.489 4.35998578 153.489"></polygon>
                        <polygon id="Fill-101" fill="#3C4D6B" points="24.6472666 149.225417 26.7827698 149.225417 26.7827698 141.764146 24.6472666 141.764146"></polygon>
                        <polygon id="Fill-107" fill="#3C4D6B" points="9.69874388 160.950271 11.8342471 160.950271 11.8342471 153.489 9.69874388 153.489"></polygon>
                        <polygon id="Fill-108" fill="#3C4D6B" points="15.037502 160.950271 17.1730052 160.950271 17.1730052 153.489 15.037502 153.489"></polygon>
                        <polygon id="Fill-110" fill="#3C4D6B" points="19.3085085 160.950271 21.4440117 160.950271 21.4440117 153.489 19.3085085 153.489"></polygon>
                        <polygon id="Fill-111" fill="#3C4D6B" points="24.6472666 160.950271 26.7827698 160.950271 26.7827698 153.489 24.6472666 153.489"></polygon>
                        <polygon id="Fill-112" fill="#3C4D6B" points="29.9860247 160.950271 32.1215279 160.950271 32.1215279 153.489 29.9860247 153.489"></polygon>
                    </g>
                </g>
                <g id="Group-11" transform="translate(0.908309, 0.030873)">
                    <g id="Group-5" transform="translate(0.000000, 0.067151)">
                        <g id="Group-9" transform="translate(201.039768, 116.839941)">
                            <g id="Group-18" transform="translate(0.139872, 0.278557)">
                                <g id="Group-17">
                                    <g id="Group">
                                        <polygon id="Fill-113" fill="#3C4D6B" points="0.856870675 72.4982188 30.9928255 72.4982188 30.9928255 9.96711244 0.856870675 9.96711244"></polygon>
                                        <polygon id="Fill-115" fill="#3C4D6B" points="1.86990002 15.0302766 29.9797961 15.0302766 29.9797961 6.62995153 1.86990002 6.62995153"></polygon>
                                        <polygon id="Fill-116" fill="#3C4D6B" points="4.02075219 12.3709039 15.1520628 12.3709039 15.1520628 3.19254966 4.02075219 3.19254966"></polygon>
                                        <polygon id="Fill-114" fill="#081837" points="0 10.6595053 31.8483614 10.6595053 31.8483614 8.89167964 0 8.89167964"></polygon>
                                        <polygon id="Fill-117" fill="#3C4D6B" points="10.4630316 5.77916469 4.0211526 5.77916469 4.0211526 0.94768327 8.64184774 0.94768327"></polygon>
                                    </g>
                                    <g id="Buildings" transform="translate(5.822824, 14.473957)" fill="#FFFFFF">
                                        <g id="Windows">
                                            <g id="Group-7" transform="translate(0.000000, 0.035332)">
                                                <polygon id="Fill-376" points="7.47259044 4.28261719 8.54010336 4.28261719 8.54010336 -1.77635684e-14 7.47259044 -1.77635684e-14"></polygon>
                                                <polygon id="Fill-377" points="11.7426421 4.28261719 12.810155 4.28261719 12.810155 -1.77635684e-14 11.7426421 -1.77635684e-14"></polygon>
                                                <polygon id="Fill-378" points="16.0126938 4.28261719 17.0802067 4.28261719 17.0802067 -1.77635684e-14 16.0126938 -1.77635684e-14"></polygon>
                                                <polygon id="Fill-379" points="19.2152326 4.28261719 20.2827455 4.28261719 20.2827455 -1.77635684e-14 19.2152326 -1.77635684e-14"></polygon>
                                                <polygon id="Fill-380" points="2.69229083e-14 4.28261719 1.06751292 4.28261719 1.06751292 -1.77635684e-14 2.69229083e-14 -1.77635684e-14"></polygon>
                                                <polygon id="Fill-381" points="3.20253876 4.28261719 4.27005168 4.28261719 4.27005168 -1.77635684e-14 3.20253876 -1.77635684e-14"></polygon>
                                                <polygon id="Fill-382" points="7.47259044 10.706543 8.54010336 10.706543 8.54010336 6.42392579 7.47259044 6.42392579"></polygon>
                                                <polygon id="Fill-383" points="11.7426421 10.706543 12.810155 10.706543 12.810155 6.42392579 11.7426421 6.42392579"></polygon>
                                                <polygon id="Fill-384" points="16.0126938 10.706543 17.0802067 10.706543 17.0802067 6.42392579 16.0126938 6.42392579"></polygon>
                                                <polygon id="Fill-385" points="19.2152326 10.706543 20.2827455 10.706543 20.2827455 6.42392579 19.2152326 6.42392579"></polygon>
                                                <polygon id="Fill-386" points="2.69229083e-14 10.706543 1.06751292 10.706543 1.06751292 6.42392579 2.69229083e-14 6.42392579"></polygon>
                                                <polygon id="Fill-387" points="3.20253876 10.706543 4.27005168 10.706543 4.27005168 6.42392579 3.20253876 6.42392579"></polygon>
                                                <polygon id="Fill-388" points="7.47259044 17.1304688 8.54010336 17.1304688 8.54010336 12.8478516 7.47259044 12.8478516"></polygon>
                                                <polygon id="Fill-389" points="11.7426421 17.1304688 12.810155 17.1304688 12.810155 12.8478516 11.7426421 12.8478516"></polygon>
                                                <polygon id="Fill-390" points="16.0126938 17.1304688 17.0802067 17.1304688 17.0802067 12.8478516 16.0126938 12.8478516"></polygon>
                                                <polygon id="Fill-391" points="19.2152326 17.1304688 20.2827455 17.1304688 20.2827455 12.8478516 19.2152326 12.8478516"></polygon>
                                                <polygon id="Fill-392" points="2.69229083e-14 17.1304688 1.06751292 17.1304688 1.06751292 12.8478516 2.69229083e-14 12.8478516"></polygon>
                                                <polygon id="Fill-393" points="3.20253876 17.1304688 4.27005168 17.1304688 4.27005168 12.8478516 3.20253876 12.8478516"></polygon>
                                            </g>
                                        </g>
                                    </g>
                                </g>
                            </g>
                        </g>
                        <polygon id="Fill-121" fill-opacity="0.745765953" fill="#3C4D6B" points="628.441067 190.362334 587.621979 190.362334 582.527747 50.1066212 628.441067 61.7945129"></polygon>
                        <g id="Group-8" transform="translate(270.289531, 0.733763)"></g>
                        <g id="Group-16" transform="translate(239.765424, 55.222236)">
                            <polygon id="Fill-133" fill="#081837" points="8.68078419 92.6162982 23.2086127 92.6162982 23.2086127 19.5363479 8.68078419 19.5363479"></polygon>
                            <polygon id="Fill-134" fill="#081837" points="11.8883101 39.7841052 12.6432105 39.7841052 12.6432105 0.0421790209 11.8883101 0.0421790209"></polygon>
                            <polygon id="Fill-135" fill="#081837" points="14.3409355 42.7973928 15.0958359 42.7973928 15.0958359 3.05546655 14.3409355 3.05546655"></polygon>
                            <polygon id="Fill-136" fill="#081837" points="9.80192339 24.8093346 18.6813459 24.8093346 18.6813459 15.0158837 9.80192339 15.0158837"></polygon>
                            <polygon id="Fill-241" fill="#081837" points="0.927839678 133.964111 23.207545 133.964111 23.207545 63.2600423 0.927839678 63.2600423"></polygon>
                            <polygon id="Fill-287" fill="#FFFFFF" points="3.70313495 72.2203624 5.38980537 72.2203624 5.38980537 70.5297992 3.70313495 70.5297992"></polygon>
                            <polygon id="Fill-288" fill="#FFFFFF" points="7.09035345 72.2203624 8.77702386 72.2203624 8.77702386 70.5297992 7.09035345 70.5297992"></polygon>
                            <polygon id="Fill-289" fill="#FFFFFF" points="3.70313495 76.1935605 5.38980537 76.1935605 5.38980537 74.5019267 3.70313495 74.5019267"></polygon>
                            <polygon id="Fill-290" fill="#FFFFFF" points="7.09035345 76.1935605 8.77702386 76.1935605 8.77702386 74.5019267 7.09035345 74.5019267"></polygon>
                            <polygon id="Fill-291" fill="#FFFFFF" points="3.70313495 80.0339974 5.38980537 80.0339974 5.38980537 78.3434343 3.70313495 78.3434343"></polygon>
                            <polygon id="Fill-292" fill="#FFFFFF" points="10.856539 72.2203624 12.5421419 72.2203624 12.5421419 70.5297992 10.856539 70.5297992"></polygon>
                        </g>
                        <g id="Group-15" transform="translate(297.217566, 107.156021)">
                            <polygon id="Fill-139" fill="#081837" points="0.376064884 11.7819557 28.247048 11.7819557 28.247048 0.00475846355 0.376064884 0.00475846355"></polygon>
                            <polygon id="Fill-138" fill="#081837" points="0.376064884 82.4451395 28.247048 82.4451395 28.247048 7.49933855 0.376064884 7.49933855"></polygon>
                            <polygon id="Fill-293" fill="#FFFFFF" points="1.44802577 10.7113014 2.51998666 10.7113014 2.51998666 6.42868426 1.44802577 6.42868426"></polygon>
                            <polygon id="Fill-294" fill="#FFFFFF" points="4.66390845 10.7113014 5.73586934 10.7113014 5.73586934 6.42868426 4.66390845 6.42868426"></polygon>
                            <polygon id="Fill-295" fill="#FFFFFF" points="6.80783023 10.7113014 7.87979112 10.7113014 7.87979112 6.42868426 6.80783023 6.42868426"></polygon>
                            <polygon id="Fill-296" fill="#FFFFFF" points="8.95175201 10.7113014 10.0237129 10.7113014 10.0237129 6.42868426 8.95175201 6.42868426"></polygon>
                            <polygon id="Fill-297" fill="#FFFFFF" points="12.1676347 10.7113014 13.2395956 10.7113014 13.2395956 6.42868426 12.1676347 6.42868426"></polygon>
                            <polygon id="Fill-298" fill="#FFFFFF" points="14.3115565 10.7113014 15.3835174 10.7113014 15.3835174 6.42868426 14.3115565 6.42868426"></polygon>
                            <polygon id="Fill-299" fill="#FFFFFF" points="17.5274391 10.7113014 18.5994 10.7113014 18.5994 6.42868426 17.5274391 6.42868426"></polygon>
                            <polygon id="Fill-300" fill="#FFFFFF" points="19.6713609 10.7113014 20.7433218 10.7113014 20.7433218 6.42868426 19.6713609 6.42868426"></polygon>
                            <polygon id="Fill-301" fill="#FFFFFF" points="22.8872436 10.7113014 23.9592045 10.7113014 23.9592045 6.42868426 22.8872436 6.42868426"></polygon>
                            <polygon id="Fill-302" fill="#FFFFFF" points="25.0311654 10.7113014 26.1031263 10.7113014 26.1031263 6.42868426 25.0311654 6.42868426"></polygon>
                            <polygon id="Fill-304" fill="#FFFFFF" points="1.44802577 16.0645729 2.51998666 16.0645729 2.51998666 11.7819557 1.44802577 11.7819557"></polygon>
                            <polygon id="Fill-305" fill="#FFFFFF" points="4.66390845 16.0645729 5.73586934 16.0645729 5.73586934 11.7819557 4.66390845 11.7819557"></polygon>
                            <polygon id="Fill-306" fill="#FFFFFF" points="6.80783023 16.0645729 7.87979112 16.0645729 7.87979112 11.7819557 6.80783023 11.7819557"></polygon>
                            <polygon id="Fill-307" fill="#FFFFFF" points="8.95175201 16.0645729 10.0237129 16.0645729 10.0237129 11.7819557 8.95175201 11.7819557"></polygon>
                            <polygon id="Fill-308" fill="#FFFFFF" points="12.1676347 16.0645729 13.2395956 16.0645729 13.2395956 11.7819557 12.1676347 11.7819557"></polygon>
                            <polygon id="Fill-309" fill="#FFFFFF" points="14.3115565 16.0645729 15.3835174 16.0645729 15.3835174 11.7819557 14.3115565 11.7819557"></polygon>
                            <polygon id="Fill-310" fill="#FFFFFF" points="17.5274391 16.0645729 18.5994 16.0645729 18.5994 11.7819557 17.5274391 11.7819557"></polygon>
                            <polygon id="Fill-311" fill="#FFFFFF" points="19.6713609 16.0645729 20.7433218 16.0645729 20.7433218 11.7819557 19.6713609 11.7819557"></polygon>
                            <polygon id="Fill-312" fill="#FFFFFF" points="22.8872436 16.0645729 23.9592045 16.0645729 23.9592045 11.7819557 22.8872436 11.7819557"></polygon>
                            <polygon id="Fill-313" fill="#FFFFFF" points="25.0311654 16.0645729 26.1031263 16.0645729 26.1031263 11.7819557 25.0311654 11.7819557"></polygon>
                            <polygon id="Fill-315" fill="#FFFFFF" points="1.44802577 22.4884987 2.51998666 22.4884987 2.51998666 18.2058815 1.44802577 18.2058815"></polygon>
                            <polygon id="Fill-316" fill="#FFFFFF" points="4.66390845 22.4884987 5.73586934 22.4884987 5.73586934 18.2058815 4.66390845 18.2058815"></polygon>
                            <polygon id="Fill-317" fill="#FFFFFF" points="6.80783023 22.4884987 7.87979112 22.4884987 7.87979112 18.2058815 6.80783023 18.2058815"></polygon>
                            <polygon id="Fill-318" fill="#FFFFFF" points="8.95175201 22.4884987 10.0237129 22.4884987 10.0237129 18.2058815 8.95175201 18.2058815"></polygon>
                            <polygon id="Fill-319" fill="#FFFFFF" points="12.1676347 22.4884987 13.2395956 22.4884987 13.2395956 18.2058815 12.1676347 18.2058815"></polygon>
                            <polygon id="Fill-320" fill="#FFFFFF" points="14.3115565 22.4884987 15.3835174 22.4884987 15.3835174 18.2058815 14.3115565 18.2058815"></polygon>
                            <polygon id="Fill-321" fill="#FFFFFF" points="17.5274391 22.4884987 18.5994 22.4884987 18.5994 18.2058815 17.5274391 18.2058815"></polygon>
                            <polygon id="Fill-322" fill="#FFFFFF" points="19.6713609 22.4884987 20.7433218 22.4884987 20.7433218 18.2058815 19.6713609 18.2058815"></polygon>
                            <polygon id="Fill-323" fill="#FFFFFF" points="22.8872436 22.4884987 23.9592045 22.4884987 23.9592045 18.2058815 22.8872436 18.2058815"></polygon>
                            <polygon id="Fill-324" fill="#FFFFFF" points="25.0311654 22.4884987 26.1031263 22.4884987 26.1031263 18.2058815 25.0311654 18.2058815"></polygon>
                            <polygon id="Fill-326" fill="#FFFFFF" points="8.95175201 27.8417702 10.0237129 27.8417702 10.0237129 23.559153 8.95175201 23.559153"></polygon>
                            <polygon id="Fill-327" fill="#FFFFFF" points="12.1676347 27.8417702 13.2395956 27.8417702 13.2395956 23.559153 12.1676347 23.559153"></polygon>
                            <polygon id="Fill-328" fill="#FFFFFF" points="14.3115565 27.8417702 15.3835174 27.8417702 15.3835174 23.559153 14.3115565 23.559153"></polygon>
                            <polygon id="Fill-329" fill="#FFFFFF" points="17.5274391 27.8417702 18.5994 27.8417702 18.5994 23.559153 17.5274391 23.559153"></polygon>
                            <polygon id="Fill-330" fill="#FFFFFF" points="19.6713609 27.8417702 20.7433218 27.8417702 20.7433218 23.559153 19.6713609 23.559153"></polygon>
                            <polygon id="Fill-331" fill="#FFFFFF" points="22.8872436 27.8417702 23.9592045 27.8417702 23.9592045 23.559153 22.8872436 23.559153"></polygon>
                            <polygon id="Fill-332" fill="#FFFFFF" points="25.0311654 27.8417702 26.1031263 27.8417702 26.1031263 23.559153 25.0311654 23.559153"></polygon>
                            <polygon id="Fill-334" fill="#FFFFFF" points="12.1676347 34.265696 13.2395956 34.265696 13.2395956 29.9830788 12.1676347 29.9830788"></polygon>
                            <polygon id="Fill-335" fill="#FFFFFF" points="14.3115565 34.265696 15.3835174 34.265696 15.3835174 29.9830788 14.3115565 29.9830788"></polygon>
                            <polygon id="Fill-336" fill="#FFFFFF" points="17.5274391 34.265696 18.5994 34.265696 18.5994 29.9830788 17.5274391 29.9830788"></polygon>
                            <polygon id="Fill-337" fill="#FFFFFF" points="19.6713609 34.265696 20.7433218 34.265696 20.7433218 29.9830788 19.6713609 29.9830788"></polygon>
                            <polygon id="Fill-338" fill="#FFFFFF" points="22.8872436 34.265696 23.9592045 34.265696 23.9592045 29.9830788 22.8872436 29.9830788"></polygon>
                            <polygon id="Fill-339" fill="#FFFFFF" points="25.0311654 34.265696 26.1031263 34.265696 26.1031263 29.9830788 25.0311654 29.9830788"></polygon>
                        </g>
                        <path d="M568.410498,134.402993 L558.327719,129.756753 C559.76171,126.613427 560.615911,123.15566 560.756854,119.517758 L571.835845,119.876965 C571.651124,124.965552 570.478733,129.881463 568.410498,134.402993 L568.410498,134.402993 Z M560.587082,145.621547 C560.334025,145.874164 560.077764,146.122518 559.819368,146.36874 L552.231925,138.284986 C554.689889,135.954938 556.714347,133.175081 558.177166,130.078654 L568.259945,134.72596 C566.386041,138.724135 563.807421,142.407871 560.587082,145.621547 L560.587082,145.621547 Z M552.550115,151.784557 L547.251932,142.034807 C548.950725,141.034997 550.532065,139.857182 551.971394,138.52801 L559.558837,146.611764 C557.400911,148.615648 555.05079,150.344531 552.550115,151.784557 L552.550115,151.784557 Z M571.609482,188.344784 L495.129636,188.344784 L514.298981,153.074291 C515.554657,153.764991 516.846637,154.386408 518.167445,154.935345 L516.815672,158.222568 C516.509227,158.124505 516.182495,158.072276 515.84295,158.072276 C514.069415,158.072276 512.632221,159.506972 512.632221,161.277425 C512.632221,163.046812 514.069415,164.482574 515.84295,164.482574 C517.616485,164.482574 519.053679,163.046812 519.053679,161.277425 C519.053679,159.970637 518.271017,158.849314 517.14881,158.349409 L518.497381,155.070714 C522.71927,156.778279 527.241199,157.74931 531.906205,157.918787 L531.796227,161.279557 C530.057927,161.318995 528.659173,162.736636 528.659173,164.482574 C528.659173,166.253027 530.097434,167.687723 531.87097,167.687723 C533.643437,167.687723 535.081699,166.253027 535.081699,164.482574 C535.081699,162.806986 533.79399,161.433046 532.152856,161.290216 L532.262834,157.92838 C532.630141,157.939039 532.999583,157.944369 533.370093,157.944369 C537.859988,157.944369 542.236702,157.202505 546.359291,155.776337 L547.512463,159.043307 C546.420153,159.556003 545.663117,160.663469 545.663117,161.946808 C545.663117,163.717261 547.100311,165.151956 548.873846,165.151956 C550.647382,165.151956 552.084576,163.717261 552.084576,161.946808 C552.084576,160.17742 550.647382,158.741659 548.873846,158.741659 C548.514014,158.741659 548.168063,158.802415 547.843466,158.911136 L546.695633,155.658022 C548.676312,154.953465 550.595062,154.090089 552.440137,153.074291 L571.609482,188.344784 Z M506.150969,145.621547 C505.897911,145.36893 505.649125,145.113115 505.403542,144.854102 L513.500303,137.279846 C515.25889,139.129175 517.273737,140.731217 519.487186,142.034807 L514.187935,151.784557 C511.285786,150.112166 508.584375,148.050724 506.150969,145.621547 L506.150969,145.621547 Z M497.290766,131.90027 L507.709886,128.071572 C508.971968,131.41209 510.870431,134.444563 513.257923,137.019768 L505.159027,144.595089 C501.684564,140.864454 499.031201,136.559301 497.290766,131.90027 L497.290766,131.90027 Z M494.876579,118.450796 C494.876579,118.092655 494.882986,117.736646 494.891528,117.379571 L505.969451,117.739844 C505.963044,117.976473 505.959841,118.213101 505.959841,118.450796 C505.959841,121.70924 506.534291,124.836578 507.586027,127.736881 L497.167974,131.566644 C495.662444,127.417112 494.876579,122.99471 494.876579,118.450796 L494.876579,118.450796 Z M498.32862,102.498599 L508.411399,107.145905 C506.976341,110.2871 506.123207,113.745932 505.982264,117.383834 L494.903273,117.023562 C495.087994,111.936041 496.260385,107.021195 498.32862,102.498599 L498.32862,102.498599 Z M506.150969,91.2800455 C506.405093,91.0274282 506.661354,90.7780086 506.91975,90.5339184 L514.507193,98.6166065 C512.049229,100.946655 510.023704,103.727577 508.561952,106.822939 L498.478105,102.176699 C500.353077,98.1785233 502.931697,94.4947873 506.150969,91.2800455 L506.150969,91.2800455 Z M520.399046,82.2508419 L524.090264,92.7040823 C520.600851,93.9618394 517.439239,95.9060334 514.767724,98.3735823 L507.180281,90.2898283 C511.049813,86.6956275 515.538641,83.9829226 520.399046,82.2508419 L520.399046,82.2508419 Z M533.370093,80.0252514 C533.72779,80.0252514 534.085486,80.0305808 534.442115,80.0401739 L534.081215,91.0977773 C533.845242,91.0913819 533.607134,91.0881842 533.370093,91.0881842 C530.239445,91.0881842 527.230521,91.6158027 524.426605,92.5857679 L520.736456,82.1335933 C524.744795,80.7468628 529.001921,80.0252514 533.370093,80.0252514 L533.370093,80.0252514 Z M547.833856,82.8189644 L543.616237,93.0739482 C540.762137,91.9217148 537.670996,91.2363438 534.437844,91.1116339 L534.798745,80.0518988 C539.333486,80.2149808 543.730487,81.1604304 547.833856,82.8189644 L547.833856,82.8189644 Z M560.587082,91.2800455 C560.841207,91.5326628 561.089993,91.7895437 561.335576,92.0474905 L553.238815,99.6206804 C550.637772,96.8887894 547.478295,94.6898463 543.946173,93.209317 L548.164859,82.9543331 C552.752988,84.8612208 556.967404,87.6655927 560.587082,91.2800455 L560.587082,91.2800455 Z M569.448352,105.000257 L559.028164,108.83002 C557.76715,105.488437 555.868687,102.455963 553.481195,99.8818249 L561.580091,92.3065032 C565.054554,96.0371386 567.707917,100.341226 569.448352,105.000257 L569.448352,105.000257 Z M542.648854,144.196444 C544.031593,143.699737 545.363079,143.092176 546.632636,142.388685 L551.928684,152.134171 C550.134861,153.122256 548.266296,153.964314 546.340072,154.650751 L542.648854,144.196444 Z M532.656835,145.802749 C532.893876,145.809145 533.130917,145.812342 533.370093,145.812342 C536.499673,145.812342 539.508597,145.284724 542.312513,144.315825 L546.002662,154.767999 C541.993255,156.153664 537.737197,156.876341 533.370093,156.876341 C533.011328,156.876341 532.653632,156.871012 532.297002,156.860353 L532.656835,145.802749 Z M523.122881,143.827644 C525.976981,144.979878 529.067054,145.665249 532.301274,145.789958 L531.940373,156.85076 C527.405632,156.685546 523.008631,155.742228 518.904194,154.081562 L523.122881,143.827644 Z M522.792945,143.692275 L518.574259,153.946193 C517.288686,153.41218 516.031942,152.807817 514.809366,152.134171 L520.106482,142.388685 C520.974564,142.869404 521.870408,143.306421 522.792945,143.692275 L522.792945,143.692275 Z M535.397753,119.189462 C535.454344,119.033841 535.493851,118.868627 535.51307,118.69915 L560.221911,119.500704 C560.083103,123.065059 559.247053,126.453542 557.841892,129.532915 L535.397753,119.189462 Z M535.564322,120.528227 L535.120138,119.711751 C535.166051,119.646731 535.208761,119.581712 535.2472,119.512428 L557.691339,129.854816 C556.258417,132.887289 554.273466,135.611719 551.865686,137.894868 L535.564322,120.528227 Z M536.235938,121.765732 L551.605155,138.137892 C550.198926,139.437219 548.654957,140.587321 546.996739,141.564747 L536.235938,121.765732 Z M534.253123,120.417374 C534.370576,120.364079 534.483758,120.301191 534.589465,120.22871 L546.377443,141.919691 C545.132445,142.609325 543.827652,143.205161 542.471608,143.693341 L534.253123,120.417374 Z M533.370093,145.278328 C533.137323,145.278328 532.905621,145.275131 532.674987,145.269801 L533.477936,120.60284 C533.628489,120.595379 533.774771,120.571929 533.916782,120.535688 L542.134198,143.811656 C539.385806,144.761369 536.437743,145.278328 533.370093,145.278328 L533.370093,145.278328 Z M532.716629,120.505843 C532.846895,120.546347 532.981431,120.575127 533.121307,120.591115 L532.318358,145.257011 C529.150338,145.133367 526.122195,144.461852 523.325753,143.333069 L532.716629,120.505843 Z M532.149653,120.22871 C532.225463,120.280939 532.305545,120.327839 532.387761,120.369409 L522.995818,143.198766 C522.091433,142.818241 521.212673,142.390817 520.361675,141.919691 L532.149653,120.22871 Z M530.932416,120.973772 L519.741311,141.564747 C517.580182,140.28887 515.61018,138.722003 513.8911,136.914244 L530.932416,120.973772 Z M531.412904,119.360005 C531.469495,119.483649 531.539967,119.600898 531.61898,119.711751 L531.47163,119.981423 L513.647653,136.654165 C511.309277,134.13119 509.449253,131.160538 508.212797,127.887172 L531.412904,119.360005 Z M531.341365,117.71213 C531.283706,117.867751 531.245267,118.032965 531.22498,118.203508 L506.517207,117.401955 C506.656015,113.836533 507.492065,110.446984 508.896158,107.369743 L531.341365,117.71213 Z M531.768465,117.005441 C531.66169,117.12269 531.569864,117.250598 531.49085,117.389164 L509.047779,107.046777 C510.480701,104.013237 512.464584,101.289873 514.872364,99.0056585 L531.768465,117.005441 Z M532.485995,116.484218 C532.321561,116.558831 532.168872,116.65263 532.028997,116.762417 L515.133963,98.7626343 C517.751022,96.3462484 520.849637,94.4404266 524.26751,93.2082511 L532.485995,116.484218 Z M533.261182,116.298753 C533.109561,116.305148 532.96328,116.328598 532.822336,116.365904 L524.60492,93.0888707 C527.352245,92.1402234 530.301375,91.6221981 533.370093,91.6221981 C533.601795,91.6221981 533.833497,91.6253957 534.064131,91.6317911 L533.261182,116.298753 Z M534.021421,116.395749 C533.892223,116.355245 533.756619,116.326466 533.617811,116.310477 L534.42076,91.6456478 C537.587712,91.7671599 540.616923,92.4397402 543.412297,93.567458 L534.021421,116.395749 Z M534.816896,116.851952 C534.677021,116.726177 534.521129,116.618521 534.351357,116.531118 L543.742232,93.7028267 C547.204951,95.1545769 550.299295,97.3087523 552.848018,99.9862827 L534.816896,116.851952 Z M535.061411,117.112031 L553.091465,100.246361 C555.429841,102.769337 557.289865,105.739988 558.526321,109.015486 L535.326214,117.541587 C535.254674,117.388098 535.164983,117.244202 535.061411,117.112031 L535.061411,117.112031 Z M506.503327,117.756898 L531.213235,118.559518 C531.221777,118.719402 531.247403,118.876089 531.289045,119.025314 L508.08787,127.552481 C507.058557,124.708671 506.494785,121.64422 506.494785,118.450796 C506.494785,118.218431 506.497988,117.988197 506.503327,117.756898 L506.503327,117.756898 Z M560.234724,119.144694 L535.525883,118.343141 C535.517341,118.181125 535.490648,118.025504 535.450073,117.875212 L558.65018,109.348046 C559.680561,112.191856 560.244333,115.256306 560.244333,118.450796 C560.244333,118.683162 560.24113,118.914461 560.234724,119.144694 L560.234724,119.144694 Z M571.861471,118.450796 C571.861471,118.807871 571.856132,119.164946 571.846523,119.520956 L560.769667,119.161749 C560.776074,118.92512 560.779277,118.688491 560.779277,118.450796 C560.779277,115.192353 560.203759,112.065014 559.153091,109.163646 L569.571144,105.334948 C571.076674,109.483415 571.861471,113.906882 571.861471,118.450796 L571.861471,118.450796 Z M579.874947,116.742165 C578.193238,116.742165 576.813703,118.034031 576.675963,119.678708 L572.91641,119.555064 C572.926019,119.188396 572.931358,118.819596 572.931358,118.450796 C572.931358,113.778975 572.124138,109.231863 570.575898,104.966148 L573.717223,103.810717 C574.210525,104.946962 575.344477,105.743186 576.664218,105.743186 C578.437753,105.743186 579.874947,104.30849 579.874947,102.538037 C579.874947,100.767584 578.437753,99.3328885 576.664218,99.3328885 C574.890682,99.3328885 573.453489,100.767584 573.453489,102.538037 C573.453489,102.864201 573.502605,103.179707 573.593364,103.476026 L570.453107,104.630391 C568.663555,99.839189 565.93545,95.4125236 562.360617,91.5763645 L564.818581,89.2772272 C565.395167,89.8272295 566.175694,90.1640526 567.035234,90.1640526 C568.808769,90.1640526 570.245963,88.7293568 570.245963,86.9589038 C570.245963,85.1895167 568.808769,83.753755 567.035234,83.753755 C565.261698,83.753755 563.824505,85.1895167 563.824505,86.9589038 C563.824505,87.7434031 564.106391,88.4596851 564.574066,89.0171486 L562.116102,91.316286 C561.863045,91.049812 561.605717,90.7854698 561.344118,90.5243253 C557.621935,86.8096784 553.288999,83.9253642 548.570605,81.9662477 L549.923446,78.6800908 C550.229891,78.7760215 550.556623,78.8293162 550.896168,78.8293162 C552.668636,78.8293162 554.106897,77.3946204 554.106897,75.6241675 C554.106897,73.8537145 552.668636,72.4200846 550.896168,72.4200846 C549.122633,72.4200846 547.684371,73.8537145 547.684371,75.6241675 C547.684371,76.9298899 548.468101,78.0533441 549.590308,78.5532492 L548.24067,81.8319448 C544.019848,80.1233138 539.496852,79.1512168 534.832913,78.9838711 L534.979195,74.4911202 C535.013363,74.4921861 535.046463,74.4943179 535.081699,74.4943179 C536.854166,74.4943179 538.29136,73.0585562 538.29136,71.2891691 C538.29136,69.5187161 536.854166,68.0829544 535.081699,68.0829544 C533.308163,68.0829544 531.87097,69.5187161 531.87097,71.2891691 C531.87097,72.9040013 533.066851,74.2395688 534.623633,74.4612751 L534.476284,78.9721463 C534.108977,78.9625532 533.739535,78.9561578 533.370093,78.9561578 C528.87913,78.9561578 524.501348,79.6990872 520.379827,81.1252559 L519.085712,77.4585742 C520.252764,76.9789211 521.074933,75.833083 521.074933,74.4943179 C521.074933,72.7238649 519.637739,71.2891691 517.865272,71.2891691 C516.091736,71.2891691 514.654542,72.7238649 514.654542,74.4943179 C514.654542,76.263705 516.091736,77.6994667 517.865272,77.6994667 C518.171716,77.6994667 518.467484,77.6557649 518.748302,77.5758227 L520.043485,81.2425044 C515.044272,83.0236164 510.428382,85.8141316 506.447804,89.5106584 L504.101953,87.0100668 C504.627287,86.4398125 504.947612,85.6787629 504.947612,84.8441664 C504.947612,83.0737135 503.510419,81.6379518 501.736883,81.6379518 C499.963348,81.6379518 498.526154,83.0737135 498.526154,84.8441664 C498.526154,86.6135535 499.963348,88.0493152 501.736883,88.0493152 C502.544104,88.0493152 503.28192,87.7497985 503.845693,87.2594864 L506.18834,89.7536827 C505.921402,90.0073659 505.6566,90.2631809 505.393933,90.5243253 C502.083903,93.8296683 499.432675,97.6167962 497.506451,101.727956 L494.524221,100.354017 C494.632064,100.033182 494.691858,99.6899636 494.691858,99.3328885 C494.691858,97.5624355 493.254665,96.1277397 491.481129,96.1277397 C489.708661,96.1277397 488.2704,97.5624355 488.2704,99.3328885 C488.2704,101.103342 489.708661,102.538037 491.481129,102.538037 C492.769905,102.538037 493.881435,101.780185 494.39182,100.684444 L497.355898,102.050923 C495.227869,106.701426 494.023446,111.755904 493.833386,116.989453 L490.006564,116.865809 C489.958515,115.136926 488.541609,113.74913 486.79797,113.74913 C485.024435,113.74913 483.587241,115.184891 483.587241,116.954278 C483.587241,118.724731 485.024435,120.160493 486.79797,120.160493 C488.480747,120.160493 489.860282,118.866496 489.996954,117.221818 L493.822708,117.345462 C493.812031,117.713196 493.806692,118.08093 493.806692,118.450796 C493.806692,123.122618 494.61498,127.670795 496.16322,131.93651 L493.021895,133.090876 C492.528593,131.953565 491.394641,131.158406 490.0749,131.158406 C488.301365,131.158406 486.863103,132.593102 486.863103,134.363555 C486.863103,136.134008 488.301365,137.568704 490.0749,137.568704 C491.847368,137.568704 493.285629,136.134008 493.285629,134.363555 C493.285629,134.036325 493.236513,133.72082 493.144686,133.424501 L496.286011,132.270136 C498.074495,137.062403 500.803668,141.489069 504.378501,145.325228 L501.920537,147.624365 C501.343951,147.075429 500.563424,146.736474 499.703884,146.736474 C497.930349,146.736474 496.493155,148.172236 496.493155,149.941623 C496.493155,151.712076 497.930349,153.146772 499.703884,153.146772 C501.476352,153.146772 502.914613,151.712076 502.914613,149.941623 C502.914613,149.158189 502.632727,148.440841 502.165052,147.883378 L504.623016,145.584241 C504.876073,145.85178 505.133401,146.116123 505.393933,146.376201 C507.901013,148.878925 510.68571,151.003255 513.67755,152.722545 L494.318145,188.344784 L490.842614,188.344784 L490.842614,189.362714 L489.141685,189.362714 L489.141685,191.385785 L577.597433,191.385785 L577.597433,189.362714 L575.895437,189.362714 L575.895437,188.344784 L572.420973,188.344784 L553.061568,152.722545 C555.640188,151.24095 558.065052,149.457706 560.291314,147.392 L563.427301,150.733583 C562.754617,151.320892 562.328585,152.184268 562.328585,153.146772 C562.328585,154.917225 563.765778,156.352986 565.539314,156.352986 C567.311781,156.352986 568.750043,154.917225 568.750043,153.146772 C568.750043,151.377384 567.311781,149.941623 565.539314,149.941623 C564.859156,149.941623 564.229182,150.15267 563.710255,150.512943 L560.550778,147.146844 C560.817716,146.895292 561.082518,146.638412 561.344118,146.376201 C564.654148,143.071924 567.305375,139.284796 569.232667,135.173636 L572.72635,136.783139 C572.663352,137.03469 572.629184,137.297966 572.629184,137.568704 C572.629184,139.339157 574.066378,140.773853 575.839914,140.773853 C577.613449,140.773853 579.050643,139.339157 579.050643,137.568704 C579.050643,135.799317 577.613449,134.363555 575.839914,134.363555 C574.463582,134.363555 573.29119,135.226931 572.834193,136.440986 L569.382152,134.85067 C571.510181,130.201232 572.715672,125.144622 572.904664,119.911074 L576.666353,120.034717 C576.712267,121.764666 578.131309,123.151397 579.874947,123.151397 C581.648482,123.151397 583.085676,121.717767 583.085676,119.946248 C583.085676,118.176861 581.648482,116.742165 579.874947,116.742165 L579.874947,116.742165 Z" id="Fill-152" fill="#081837"></path>
                        <polygon id="Fill-155" fill="#081837" points="448.95202 157.280316 472.096604 157.280316 472.096604 126.613427 448.95202 126.613427"></polygon>
                        <g id="Group-19" transform="translate(634.444095, 47.851186)">
                            <g id="Group-10" transform="translate(0.935796, -0.000000)">
                                <polygon id="Fill-159" fill="#081837" points="21.6497318 31.9949953 22.6555539 31.9949953 22.6555539 0 21.6497318 0"></polygon>
                                <polygon id="Fill-160" fill="#081837" points="25.045182 38.8604304 26.051004 38.8604304 26.051004 6.86650097 25.045182 6.86650097"></polygon>
                                <polygon id="Fill-161" fill="#081837" points="18.5682007 43.2764368 19.5740227 43.2764368 19.5740227 11.2825074 18.5682007 11.2825074"></polygon>
                                <polygon id="Fill-156" fill="#B0C4DA" points="0.0138807711 142.330137 29.1966003 142.330137 29.1966003 24.5976782 0.0138807711 24.5976782"></polygon>
                            </g>
                            <polygon id="Fill-157" fill="#B0C4DA" points="38.3523556 141.88779 4.04960712 141.88779 4.04960712 60.8797065 30.0573862 60.8797065"></polygon>
                        </g>
                        <g id="Light-Navy" transform="translate(386.916740, 33.790872)">
                            <g id="Group-2" transform="translate(0.602932, 0.853996)">
                                <polygon id="Fill-129" fill-opacity="0.723994755" fill="#081837" points="52.5064371 57.4478915 52.5064371 32.3145121 44.421565 32.3145121 44.421565 22.7461316 40.0955758 22.7461316 40.0955758 14.7080421 38.5781579 14.7080421 38.5781579 0.928924365 38.1853238 0.928924365 38.1853238 14.7080421 36.666943 14.7080421 36.666943 22.7461316 32.3419167 22.7461316 32.3419167 32.3145121 24.3186656 32.3145121 24.3186656 57.4478915 22.6500836 57.4478915 22.6500836 103.078291 1.3882421 102.850937 -5.68434189e-14 154.956294 22.6500836 155.094108 35.0907925 155.094108 54.1124353 155.094108 54.1124353 57.4478915"></polygon>
                                <polygon id="Fill-394" fill="#FFFFFF" points="28.5879598 43.8093067 30.6299178 43.8093067 30.6299178 35.6416148 28.5879598 35.6416148"></polygon>
                                <polygon id="Fill-394-Copy" fill="#FFFFFF" points="28.5879598 54.0189215 30.6299178 54.0189215 30.6299178 45.8512296 28.5879598 45.8512296"></polygon>
                                <polygon id="Fill-394-Copy-2" fill="#FFFFFF" points="28.5879598 64.2285363 30.6299178 64.2285363 30.6299178 56.0608445 28.5879598 56.0608445"></polygon>
                                <polygon id="Fill-395" fill="#FFFFFF" points="35.7348129 43.8093067 37.776771 43.8093067 37.776771 35.6416148 35.7348129 35.6416148"></polygon>
                                <polygon id="Fill-395-Copy" fill="#FFFFFF" points="35.7348129 54.0189215 37.776771 54.0189215 37.776771 45.8512296 35.7348129 45.8512296"></polygon>
                            </g>
                        </g>
                        <g id="Navy" transform="translate(386.487620, 70.754622)">
                            <polygon id="Fill-166" fill="#B0C4DA" points="62.3480147 119.502379 97.3328965 119.502379 97.3328965 6.93418535 62.3480147 6.93418535"></polygon>
                            <polygon id="Fill-167" fill="#B0C4DA" points="59.7352264 8.74194469 99.9467525 8.74194469 99.9467525 7.60143615 59.7352264 7.60143615"></polygon>
                            <polygon id="Fill-203" fill="#B0C4DA" points="64.556125 6.04629412 76.4551491 6.04629412 76.4551491 0.199855469 64.556125 0.199855469"></polygon>
                            <polygon id="Fill-204" fill="#B0C4DA" points="63.7489048 1.03232012 77.2623693 1.03232012 77.2623693 0.0335757188 63.7489048 0.0335757188"></polygon>
                            <polygon id="Fill-277-Copy" fill="#B0C4DA" points="0.576099136 119.372756 33.2474278 119.372756 33.2474278 77.9243302 0.576099136 77.9243302"></polygon>
                            <polygon id="Fill-441" fill="#FFFFFF" points="26.1883583 86.5292616 28.0447633 86.5292616 28.0447633 82.2016769 26.1883583 82.2016769"></polygon>
                            <polygon id="Fill-442" fill="#FFFFFF" points="26.1883583 93.5142103 28.0447633 93.5142103 28.0447633 89.1876962 26.1883583 89.1876962"></polygon>
                            <polygon id="Fill-441" fill="#FFFFFF" points="5.76877792 86.5292616 7.62518289 86.5292616 7.62518289 82.2016769 5.76877792 82.2016769"></polygon>
                            <polygon id="Fill-442" fill="#FFFFFF" points="5.76877792 93.5142103 7.62518289 93.5142103 7.62518289 89.1876962 5.76877792 89.1876962"></polygon>
                            <polygon id="Fill-441" fill="#FFFFFF" points="15.9785681 86.5292616 17.8349731 86.5292616 17.8349731 82.2016769 15.9785681 82.2016769"></polygon>
                            <polygon id="Fill-442" fill="#FFFFFF" points="15.9785681 93.5142103 17.8349731 93.5142103 17.8349731 89.1876962 15.9785681 89.1876962"></polygon>
                            <polygon id="Fill-441" fill="#FFFFFF" points="10.873673 86.5292616 12.730078 86.5292616 12.730078 82.2016769 10.873673 82.2016769"></polygon>
                            <polygon id="Fill-442" fill="#FFFFFF" points="10.873673 93.5142103 12.730078 93.5142103 12.730078 89.1876962 10.873673 89.1876962"></polygon>
                            <polygon id="Fill-441" fill="#FFFFFF" points="21.0834632 86.5292616 22.9398682 86.5292616 22.9398682 82.2016769 21.0834632 82.2016769"></polygon>
                            <polygon id="Fill-442" fill="#FFFFFF" points="21.0834632 93.5142103 22.9398682 93.5142103 22.9398682 89.1876962 21.0834632 89.1876962"></polygon>
                            <g id="Group-13" transform="translate(202.101026, 33.327670)">
                                <polygon id="Fill-281" fill="#B0C4DA" points="2.14392178 86.174709 27.9568172 86.174709 27.9568172 14.6808117 2.14392178 14.6808117"></polygon>
                                <polygon id="Fill-283" fill="#030B20" points="0.823113027 15.7157966 29.1388182 15.7157966 29.1388182 13.3729576 0.823113027 13.3729576"></polygon>
                                <polygon id="Fill-284" fill="#030B20" points="23.9313936 14.788353 24.4973019 14.788353 24.4973019 0.380639016 23.9313936 0.380639016"></polygon>
                                <polygon id="Fill-285" fill="#030B20" points="20.1590271 14.7297668 20.7249355 14.7297668 20.7249355 3.17119238 20.1590271 3.17119238"></polygon>
                                <polygon id="Fill-441" fill="#FFFFFF" points="4.80061865 23.593709 6.65702362 23.593709 6.65702362 19.2661243 4.80061865 19.2661243"></polygon>
                                <polygon id="Fill-442" fill="#FFFFFF" points="4.80061865 30.5786576 6.65702362 30.5786576 6.65702362 26.2521436 4.80061865 26.2521436"></polygon>
                                <polygon id="Fill-443" fill="#FFFFFF" points="9.56279379 23.593709 11.4191988 23.593709 11.4191988 19.2661243 9.56279379 19.2661243"></polygon>
                            </g>
                        </g>
                        <g id="Navy-Copy" transform="translate(0.112670, 72.443331)">
                            <g id="Group-13" transform="translate(135.737390, 59.713398)">
                                <polygon id="Fill-281" fill="#B0C4DA" transform="translate(14.395670, 35.776270) scale(-1, 1) translate(-14.395670, -35.776270) " points="1.12294276 58.7479036 27.6683973 58.7479036 27.6683973 12.8046369 1.12294276 12.8046369"></polygon>
                                <polygon id="Fill-283" fill="#030B20" points="0.823113027 14.8541051 29.1388182 14.8541051 29.1388182 12.5112661 0.823113027 12.5112661"></polygon>
                                <polygon id="Fill-284" fill="#030B20" points="21.8894355 14.788353 22.4553439 14.788353 22.4553439 0.380639016 21.8894355 0.380639016"></polygon>
                                <polygon id="Fill-285" fill="#030B20" points="20.1590271 14.7828568 20.7249355 14.7828568 20.7249355 3.22428238 20.1590271 3.22428238"></polygon>
                                <polygon id="Fill-441" fill="#FFFFFF" points="4.80061865 22.7320175 6.65702362 22.7320175 6.65702362 18.4044328 4.80061865 18.4044328"></polygon>
                                <polygon id="Fill-442" fill="#FFFFFF" points="4.80061865 29.7169661 6.65702362 29.7169661 6.65702362 25.3904521 4.80061865 25.3904521"></polygon>
                                <polygon id="Fill-443" fill="#FFFFFF" points="9.56279379 22.7320175 11.4191988 22.7320175 11.4191988 18.4044328 9.56279379 18.4044328"></polygon>
                            </g>
                            <g id="Group-13-Copy" transform="translate(622.385427, 59.215766)">
                                <polygon id="Fill-281" fill="#3C4D6B" transform="translate(14.395670, 35.776270) scale(-1, 1) translate(-14.395670, -35.776270) " points="1.12294276 58.7479036 27.6683973 58.7479036 27.6683973 12.8046369 1.12294276 12.8046369"></polygon>
                                <polygon id="Fill-283" fill="#030B20" points="0.823113027 14.8541051 29.1388182 14.8541051 29.1388182 12.5112661 0.823113027 12.5112661"></polygon>
                                <polygon id="Fill-284" fill="#030B20" points="21.8894355 14.788353 22.4553439 14.788353 22.4553439 0.380639016 21.8894355 0.380639016"></polygon>
                                <polygon id="Fill-285" fill="#030B20" points="20.1590271 14.7828568 20.7249355 14.7828568 20.7249355 3.22428238 20.1590271 3.22428238"></polygon>
                                <polygon id="Fill-441" fill="#FFFFFF" points="4.80061865 22.7320175 6.65702362 22.7320175 6.65702362 18.4044328 4.80061865 18.4044328"></polygon>
                                <polygon id="Fill-442" fill="#FFFFFF" points="4.80061865 29.7169661 6.65702362 29.7169661 6.65702362 25.3904521 4.80061865 25.3904521"></polygon>
                                <polygon id="Fill-443" fill="#FFFFFF" points="9.56279379 22.7320175 11.4191988 22.7320175 11.4191988 18.4044328 9.56279379 18.4044328"></polygon>
                            </g>
                        </g>
                        <polygon id="Fill-168" fill="#030B20" points="447.30875 95.3048682 485.345266 95.3048682 485.345266 94.1675573 447.30875 94.1675573"></polygon>
                        <polygon id="Fill-169" fill="#030B20" points="447.30875 110.618594 485.345266 110.618594 485.345266 109.482349 447.30875 109.482349"></polygon>
                        <polygon id="Fill-170" fill="#030B20" points="447.30875 125.932319 485.345266 125.932319 485.345266 124.795008 447.30875 124.795008"></polygon>
                        <polygon id="Fill-171" fill="#030B20" points="447.30875 141.244979 485.345266 141.244979 485.345266 140.108734 447.30875 140.108734"></polygon>
                        <polygon id="Fill-172" fill="#030B20" points="447.30875 156.558704 485.345266 156.558704 485.345266 155.421393 447.30875 155.421393"></polygon>
                        <polygon id="Fill-173" fill="#030B20" points="447.30875 171.871364 485.345266 171.871364 485.345266 170.735119 447.30875 170.735119"></polygon>
                        <polygon id="Fill-174" fill="#030B20" points="444.892428 78.3560585 487.763723 78.3560585 487.763723 75.2457744 444.892428 75.2457744"></polygon>
                        <polygon id="Fill-175" fill="#030B20" points="451.984434 92.1871228 455.619061 92.1871228 455.619061 83.1941597 451.984434 83.1941597"></polygon>
                        <polygon id="Fill-176" fill="#030B20" points="460.115363 92.1871228 463.74999 92.1871228 463.74999 83.1941597 460.115363 83.1941597"></polygon>
                        <polygon id="Fill-177" fill="#030B20" points="468.245224 92.1871228 471.87985 92.1871228 471.87985 83.1941597 468.245224 83.1941597"></polygon>
                        <polygon id="Fill-178" fill="#030B20" points="476.376152 92.1871228 480.010779 92.1871228 480.010779 83.1941597 476.376152 83.1941597"></polygon>
                        <polygon id="Fill-179" fill="#030B20" points="451.984434 106.889024 455.619061 106.889024 455.619061 97.8960609 451.984434 97.8960609"></polygon>
                        <polygon id="Fill-180" fill="#030B20" points="460.115363 106.889024 463.74999 106.889024 463.74999 97.8960609 460.115363 97.8960609"></polygon>
                        <polygon id="Fill-181" fill="#030B20" points="468.245224 106.889024 471.87985 106.889024 471.87985 97.8960609 468.245224 97.8960609"></polygon>
                        <polygon id="Fill-182" fill="#030B20" points="476.376152 106.889024 480.010779 106.889024 480.010779 97.8960609 476.376152 97.8960609"></polygon>
                        <polygon id="Fill-183" fill="#030B20" points="451.984434 122.20275 455.619061 122.20275 455.619061 113.209786 451.984434 113.209786"></polygon>
                        <polygon id="Fill-184" fill="#030B20" points="460.115363 122.20275 463.74999 122.20275 463.74999 113.209786 460.115363 113.209786"></polygon>
                        <polygon id="Fill-185" fill="#030B20" points="468.245224 122.20275 471.87985 122.20275 471.87985 113.209786 468.245224 113.209786"></polygon>
                        <polygon id="Fill-186" fill="#030B20" points="476.376152 122.20275 480.010779 122.20275 480.010779 113.209786 476.376152 113.209786"></polygon>
                        <polygon id="Fill-187" fill="#030B20" points="451.984434 137.516475 455.619061 137.516475 455.619061 128.523512 451.984434 128.523512"></polygon>
                        <polygon id="Fill-188" fill="#030B20" points="460.115363 137.516475 463.74999 137.516475 463.74999 128.523512 460.115363 128.523512"></polygon>
                        <polygon id="Fill-189" fill="#030B20" points="468.245224 137.516475 471.87985 137.516475 471.87985 128.523512 468.245224 128.523512"></polygon>
                        <polygon id="Fill-190" fill="#030B20" points="476.376152 137.516475 480.010779 137.516475 480.010779 128.523512 476.376152 128.523512"></polygon>
                        <polygon id="Fill-191" fill="#030B20" points="451.984434 152.829135 455.619061 152.829135 455.619061 143.836171 451.984434 143.836171"></polygon>
                        <polygon id="Fill-192" fill="#030B20" points="460.115363 152.829135 463.74999 152.829135 463.74999 143.836171 460.115363 143.836171"></polygon>
                        <polygon id="Fill-193" fill="#030B20" points="468.245224 152.829135 471.87985 152.829135 471.87985 143.836171 468.245224 143.836171"></polygon>
                        <polygon id="Fill-194" fill="#030B20" points="476.376152 152.829135 480.010779 152.829135 480.010779 143.836171 476.376152 143.836171"></polygon>
                        <polygon id="Fill-195" fill="#030B20" points="451.984434 168.14286 455.619061 168.14286 455.619061 159.149897 451.984434 159.149897"></polygon>
                        <polygon id="Fill-196" fill="#030B20" points="460.115363 168.14286 463.74999 168.14286 463.74999 159.149897 460.115363 159.149897"></polygon>
                        <polygon id="Fill-197" fill="#030B20" points="468.245224 168.14286 471.87985 168.14286 471.87985 159.149897 468.245224 159.149897"></polygon>
                        <polygon id="Fill-198" fill="#030B20" points="476.376152 168.14286 480.010779 168.14286 480.010779 159.149897 476.376152 159.149897"></polygon>
                        <polygon id="Fill-199" fill="#030B20" points="451.984434 183.456586 455.619061 183.456586 455.619061 174.462556 451.984434 174.462556"></polygon>
                        <polygon id="Fill-200" fill="#030B20" points="460.115363 183.456586 463.74999 183.456586 463.74999 174.462556 460.115363 174.462556"></polygon>
                        <polygon id="Fill-201" fill="#030B20" points="468.245224 183.456586 471.87985 183.456586 471.87985 174.462556 468.245224 174.462556"></polygon>
                        <polygon id="Fill-202" fill="#030B20" points="476.376152 183.456586 480.010779 183.456586 480.010779 174.462556 476.376152 174.462556"></polygon>
                        <polygon id="Fill-283-Copy-2" fill="#081837" points="385.021761 150.33732 421.777006 150.33732 421.777006 148.295397 385.021761 148.295397"></polygon>
                    </g>
                    <g id="Group-12" transform="translate(330.479035, 69.287988)">
                        <polygon id="Fill-205" fill="#B0C4DA" points="48.6496467 120.447615 2.04655953 120.447615 2.04655953 13.4913634 48.6496467 2.11185942"></polygon>
                        <polygon id="Fill-206" fill="#3C4D6B" points="-2.22044605e-16 120.447295 4.09482746 120.447295 4.09482746 11.6097374 -2.22044605e-16 11.6097374"></polygon>
                        <polygon id="Fill-207" fill="#3C4D6B" points="11.6513057 120.447295 15.7450654 120.447295 15.7450654 8.54208922 11.6513057 8.54208922"></polygon>
                        <polygon id="Fill-208" fill="#3C4D6B" points="23.3004759 120.447295 27.3953033 120.447295 27.3953033 5.35612657 23.3004759 5.35612657"></polygon>
                        <polygon id="Fill-209" fill="#3C4D6B" points="34.9517815 120.447295 39.046609 120.447295 39.046609 2.76067021 34.9517815 2.76067021"></polygon>
                        <polygon id="Fill-210" fill="#3C4D6B" points="46.6020195 120.447295 50.6968469 120.447295 50.6968469 -1.42108547e-14 46.6020195 -1.42108547e-14"></polygon>
                        <polygon id="Fill-211" fill="#030B20" points="5.15510482 29.0083552 10.5899606 29.0083552 10.5899606 20.742333 5.15510482 20.742333"></polygon>
                        <polygon id="Fill-212" fill="#030B20" points="16.8053427 29.0083552 22.2401985 29.0083552 22.2401985 20.742333 16.8053427 20.742333"></polygon>
                        <polygon id="Fill-213" fill="#030B20" points="28.4566484 29.0083552 33.8915042 29.0083552 33.8915042 20.742333 28.4566484 20.742333"></polygon>
                        <polygon id="Fill-214" fill="#030B20" points="40.1068864 29.0083552 45.5417421 29.0083552 45.5417421 20.742333 40.1068864 20.742333"></polygon>
                        <polygon id="Fill-215" fill="#030B20" points="5.15510482 43.4011466 10.5899606 43.4011466 10.5899606 35.1351244 5.15510482 35.1351244"></polygon>
                        <polygon id="Fill-216" fill="#030B20" points="16.8053427 43.4011466 22.2401985 43.4011466 22.2401985 35.1351244 16.8053427 35.1351244"></polygon>
                        <polygon id="Fill-217" fill="#030B20" points="28.4566484 43.4011466 33.8915042 43.4011466 33.8915042 35.1351244 28.4566484 35.1351244"></polygon>
                        <polygon id="Fill-218" fill="#030B20" points="40.1068864 43.4011466 45.5417421 43.4011466 45.5417421 35.1351244 40.1068864 35.1351244"></polygon>
                        <polygon id="Fill-219" fill="#030B20" points="5.15510482 57.7939381 10.5899606 57.7939381 10.5899606 49.5279159 5.15510482 49.5279159"></polygon>
                        <polygon id="Fill-220" fill="#030B20" points="16.8053427 57.7939381 22.2401985 57.7939381 22.2401985 49.5279159 16.8053427 49.5279159"></polygon>
                        <polygon id="Fill-221" fill="#030B20" points="28.4566484 57.7939381 33.8915042 57.7939381 33.8915042 49.5279159 28.4566484 49.5279159"></polygon>
                        <polygon id="Fill-222" fill="#030B20" points="40.1068864 57.7939381 45.5417421 57.7939381 45.5417421 49.5279159 40.1068864 49.5279159"></polygon>
                        <polygon id="Fill-223" fill="#030B20" points="5.15510482 72.1867295 10.5899606 72.1867295 10.5899606 63.9207073 5.15510482 63.9207073"></polygon>
                        <polygon id="Fill-224" fill="#030B20" points="16.8053427 72.1867295 22.2401985 72.1867295 22.2401985 63.9207073 16.8053427 63.9207073"></polygon>
                        <polygon id="Fill-225" fill="#030B20" points="28.4566484 72.1867295 33.8915042 72.1867295 33.8915042 63.9207073 28.4566484 63.9207073"></polygon>
                        <polygon id="Fill-226" fill="#030B20" points="40.1068864 72.1867295 45.5417421 72.1867295 45.5417421 63.9207073 40.1068864 63.9207073"></polygon>
                        <polygon id="Fill-227" fill="#030B20" points="5.15510482 86.579521 10.5899606 86.579521 10.5899606 78.3134988 5.15510482 78.3134988"></polygon>
                        <polygon id="Fill-228" fill="#030B20" points="16.8053427 86.579521 22.2401985 86.579521 22.2401985 78.3134988 16.8053427 78.3134988"></polygon>
                        <polygon id="Fill-229" fill="#030B20" points="28.4566484 86.579521 33.8915042 86.579521 33.8915042 78.3134988 28.4566484 78.3134988"></polygon>
                        <polygon id="Fill-230" fill="#030B20" points="40.1068864 86.579521 45.5417421 86.579521 45.5417421 78.3134988 40.1068864 78.3134988"></polygon>
                        <polygon id="Fill-231" fill="#030B20" points="5.15510482 100.972312 10.5899606 100.972312 10.5899606 92.7062903 5.15510482 92.7062903"></polygon>
                        <polygon id="Fill-232" fill="#030B20" points="16.8053427 100.972312 22.2401985 100.972312 22.2401985 92.7062903 16.8053427 92.7062903"></polygon>
                        <polygon id="Fill-233" fill="#030B20" points="28.4566484 100.972312 33.8915042 100.972312 33.8915042 92.7062903 28.4566484 92.7062903"></polygon>
                        <polygon id="Fill-234" fill="#030B20" points="40.1068864 100.972312 45.5417421 100.972312 45.5417421 92.7062903 40.1068864 92.7062903"></polygon>
                        <polygon id="Fill-235" fill="#030B20" points="5.15510482 115.364038 10.5899606 115.364038 10.5899606 107.099082 5.15510482 107.099082"></polygon>
                        <polygon id="Fill-236" fill="#030B20" points="16.8053427 115.364038 22.2401985 115.364038 22.2401985 107.099082 16.8053427 107.099082"></polygon>
                        <polygon id="Fill-237" fill="#030B20" points="28.4566484 115.364038 33.8915042 115.364038 33.8915042 107.099082 28.4566484 107.099082"></polygon>
                        <polygon id="Fill-238" fill="#030B20" points="40.1068864 115.364038 45.5417421 115.364038 45.5417421 107.099082 40.1068864 107.099082"></polygon>
                        <polygon id="Fill-342" fill="#FFFFFF" points="6.12035229 42.6027906 8.83778016 42.6027906 8.83778016 35.7234989 6.12035229 35.7234989"></polygon>
                        <polygon id="Fill-341" fill="#FFFFFF" points="6.51435263 28.6129078 9.23178051 28.6129078 9.23178051 21.7336161 6.51435263 21.7336161"></polygon>
                        <polygon id="Fill-343" fill="#FFFFFF" points="6.51435263 57.0648653 9.23178051 57.0648653 9.23178051 50.1845077 6.51435263 50.1845077"></polygon>
                        <polygon id="Fill-344" fill="#FFFFFF" points="6.12035229 71.3819782 8.83778016 71.3819782 8.83778016 64.5026865 6.12035229 64.5026865"></polygon>
                        <polygon id="Fill-345" fill="#FFFFFF" points="6.12035229 86.0391118 8.83778016 86.0391118 8.83778016 79.1587542 6.12035229 79.1587542"></polygon>
                        <polygon id="Fill-346" fill="#FFFFFF" points="6.51435263 100.055642 9.23178051 100.055642 9.23178051 93.1752844 6.51435263 93.1752844"></polygon>
                        <polygon id="Fill-347" fill="#FFFFFF" points="18.1645906 28.6129078 20.8820184 28.6129078 20.8820184 21.7336161 18.1645906 21.7336161"></polygon>
                        <polygon id="Fill-348" fill="#FFFFFF" points="17.8656201 42.6027906 20.583048 42.6027906 20.583048 35.7234989 17.8656201 35.7234989"></polygon>
                        <polygon id="Fill-349" fill="#FFFFFF" points="18.1645906 57.0648653 20.8820184 57.0648653 20.8820184 50.1845077 18.1645906 50.1845077"></polygon>
                        <polygon id="Fill-350" fill="#FFFFFF" points="17.7705902 71.3819782 20.4880181 71.3819782 20.4880181 64.5026865 17.7705902 64.5026865"></polygon>
                        <polygon id="Fill-351" fill="#FFFFFF" points="17.7705902 86.0391118 20.4880181 86.0391118 20.4880181 79.1587542 17.7705902 79.1587542"></polygon>
                        <polygon id="Fill-352" fill="#FFFFFF" points="18.1645906 100.055642 20.8820184 100.055642 20.8820184 93.1752844 18.1645906 93.1752844"></polygon>
                        <polygon id="Fill-353" fill="#FFFFFF" points="29.8148285 28.6129078 32.5322564 28.6129078 32.5322564 21.7336161 29.8148285 21.7336161"></polygon>
                        <polygon id="Fill-354" fill="#FFFFFF" points="29.6108879 42.8394195 32.3283158 42.8394195 32.3283158 35.9601278 29.6108879 35.9601278"></polygon>
                        <polygon id="Fill-355" fill="#FFFFFF" points="29.8148285 57.0648653 32.5322564 57.0648653 32.5322564 50.1845077 29.8148285 50.1845077"></polygon>
                        <polygon id="Fill-356" fill="#FFFFFF" points="29.4208281 71.3819782 32.138256 71.3819782 32.138256 64.5026865 29.4208281 64.5026865"></polygon>
                        <polygon id="Fill-357" fill="#FFFFFF" points="29.4208281 86.0391118 32.138256 86.0391118 32.138256 79.1587542 29.4208281 79.1587542"></polygon>
                        <polygon id="Fill-358" fill="#FFFFFF" points="29.8148285 100.055642 32.5322564 100.055642 32.5322564 93.1752844 29.8148285 93.1752844"></polygon>
                        <polygon id="Fill-359" fill="#FFFFFF" points="41.4661342 28.6129078 44.183562 28.6129078 44.183562 21.7336161 41.4661342 21.7336161"></polygon>
                        <polygon id="Fill-360" fill="#FFFFFF" points="41.3561558 42.8394195 44.0735836 42.8394195 44.0735836 35.9601278 41.3561558 35.9601278"></polygon>
                        <polygon id="Fill-362" fill="#FFFFFF" points="41.0721338 71.3819782 43.7895617 71.3819782 43.7895617 64.5026865 41.0721338 64.5026865"></polygon>
                        <polygon id="Fill-363" fill="#FFFFFF" points="41.0721338 86.0391118 43.7895617 86.0391118 43.7895617 79.1587542 41.0721338 79.1587542"></polygon>
                        <polygon id="Fill-364" fill="#FFFFFF" points="41.4661342 100.055642 44.183562 100.055642 44.183562 93.1752844 41.4661342 93.1752844"></polygon>
                        <polygon id="Fill-445" fill="#FFD249" points="41.4661342 57.0648653 44.183562 57.0648653 44.183562 50.1845077 41.4661342 50.1845077"></polygon>
                    </g>
                </g>
            </g>
        </g>
        <g id="Group-496" transform="translate(526.000000, 137.000000)">
            <path d="M9.9591,41.7353 C9.9591,40.5953 10.8791,39.6703 12.0241,39.6703 C12.3631,39.6703 12.6841,39.7533 12.9621,39.8953 C13.6331,40.2403 14.0901,40.9343 14.0901,41.7353 C14.0901,42.8753 13.1641,43.8003 12.0241,43.8003 C10.8791,43.8003 9.9591,42.8753 9.9591,41.7353 M0.3741,41.7353 C0.3741,48.0083 5.4601,53.0893 11.7281,53.0893 C18.0011,53.0893 23.0821,48.0083 23.0821,41.7353 C23.0821,37.4213 20.6781,33.6693 17.1291,31.7463 C15.5211,30.8743 13.6811,30.3813 11.7281,30.3813 C5.4601,30.3813 0.3741,35.4673 0.3741,41.7353" id="Fill-444" fill="#212121"></path>
            <path d="M9.9591,41.7353 C9.9591,42.8753 10.8791,43.8003 12.0241,43.8003 C13.1641,43.8003 14.0901,42.8753 14.0901,41.7353 C14.0901,40.9343 13.6331,40.2403 12.9621,39.8953 C12.6841,39.7533 12.3631,39.6703 12.0241,39.6703 C10.8791,39.6703 9.9591,40.5953 9.9591,41.7353" id="Fill-446" fill="#F57153"></path>
            <path d="M9.9591,41.7353 C9.9591,42.8753 10.8791,43.8003 12.0241,43.8003 C13.1641,43.8003 14.0901,42.8753 14.0901,41.7353 C14.0901,40.9343 13.6331,40.2403 12.9621,39.8953 C12.6841,39.7533 12.3631,39.6703 12.0241,39.6703 C10.8791,39.6703 9.9591,40.5953 9.9591,41.7353" id="Fill-448" fill="#F57153"></path>
            <path d="M17.6246,41.8838 C17.6246,45.0188 15.0826,47.5608 11.9486,47.5608 C8.8126,47.5608 6.2716,45.0188 6.2716,41.8838 C6.2716,38.7488 8.8126,36.2068 11.9486,36.2068 C15.0826,36.2068 17.6246,38.7488 17.6246,41.8838" id="Fill-450" fill="#FFFFFF"></path>
            <path d="M11.1046,47.5019 C11.3836,47.5369 11.6626,47.5609 11.9476,47.5609 C15.0816,47.5609 17.6276,45.0209 17.6276,41.8869 C17.6276,38.7469 15.0816,36.2069 11.9476,36.2069 C11.6626,36.2069 11.3836,36.2309 11.1046,36.2669 C13.8406,36.6699 15.9416,39.0319 15.9416,41.8869 C15.9416,44.7349 13.8406,47.0979 11.1046,47.5019" id="Fill-452" fill="#BDBDBD"></path>
            <path d="M14.0909,41.8838 C14.0909,43.0258 13.1659,43.9508 12.0239,43.9508 C10.8819,43.9508 9.9569,43.0258 9.9569,41.8838 C9.9569,40.7418 10.8819,39.8168 12.0239,39.8168 C13.1659,39.8168 14.0909,40.7418 14.0909,41.8838" id="Fill-454" fill="#212121"></path>
            <polyline id="Stroke-456" stroke="#212121" stroke-width="2" stroke-linecap="round" stroke-linejoin="round" points="12.024 41.8838 29.673 0.6238 35.65 0.6238"></polyline>
            <path d="M11.109,24.9902 L18.926,25.9222 L28.446,38.5992 C30.037,40.6712 32.506,41.8822 35.117,41.8822 L65.744,41.8822 L74.652,27.2692 L84.742,27.2692 L84.742,20.6032 L53.434,20.6032 L56.401,24.9672 C56.532,25.1562 56.538,25.4052 56.419,25.6072 L48.917,38.1252 L36.53,38.1252 C33.96,38.1252 31.55,36.8852 30.061,34.7952 L26.167,29.3352 C24.944,27.6252 24.452,25.5012 24.796,23.4282 L27.158,9.0482 C27.33,8.0092 26.042,7.3802 25.33,8.1572 L10.747,23.9992 C10.415,24.3542 10.628,24.9302 11.109,24.9902" id="Fill-458" fill="#FFFFFF"></path>
            <path d="M16.1066,7.0771 C16.1066,8.5081 16.6886,9.8071 17.6266,10.7451 L17.6266,3.4091 C16.6886,4.3471 16.1066,5.6401 16.1066,7.0771" id="Fill-460" fill="#FFD249"></path>
            <polygon id="Fill-462" fill="#BDBDBD" points="71.2877 23.7129 55.6587 23.7129 53.4357 20.7809 71.2877 20.7809"></polygon>
            <path d="M82.0231,19.4843 L79.6731,12.8253 C79.5431,12.4573 79.1771,12.2263 78.7901,12.2683 L50.7241,15.2823 C50.2961,15.3283 49.9731,15.6883 49.9731,16.1183 L49.9731,19.7643 C49.9731,20.2293 50.3491,20.6053 50.8141,20.6053 L81.2301,20.6053 C81.8101,20.6053 82.2161,20.0313 82.0231,19.4843" id="Fill-464" fill="#212121"></path>
            <path d="M29.4923,7.5302 L29.4983,7.5242" id="Fill-466" fill="#F57153"></path>
            <path d="M17.6261,2.3584 L17.6261,11.7964 C18.2791,12.0984 19.0031,12.2644 19.7741,12.2644 C20.0301,12.2644 20.2851,12.2474 20.5341,12.2114 C23.0331,11.8434 24.9561,9.6824 24.9561,7.0774 C24.9561,4.4714 23.0331,2.3114 20.5341,1.9434 C20.2851,1.9084 20.0301,1.8894 19.7741,1.8894 C19.0031,1.8894 18.2791,2.0554 17.6261,2.3584" id="Fill-468" fill="#FFFFFF"></path>
            <path d="M73.965,41.7353 C73.965,40.9043 74.457,40.1863 75.17,39.8603 C75.431,39.7353 75.721,39.6703 76.03,39.6703 C77.17,39.6703 78.096,40.5953 78.096,41.7353 C78.096,42.8753 77.17,43.8003 76.03,43.8003 C74.891,43.8003 73.965,42.8753 73.965,41.7353 M64.676,41.7353 C64.676,48.0083 69.757,53.0893 76.03,53.0893 C80.369,53.0893 84.144,50.6563 86.055,47.0713 C86.903,45.4803 87.384,43.6643 87.384,41.7353 C87.384,35.4673 82.298,30.3813 76.03,30.3813 C74.333,30.3813 72.73,30.7493 71.288,31.4203 C67.382,33.2123 64.676,37.1593 64.676,41.7353" id="Fill-470" fill="#212121"></path>
            <path d="M73.965,41.7353 C73.965,40.9043 74.457,40.1863 75.17,39.8603 C75.431,39.7353 75.721,39.6703 76.03,39.6703 C77.17,39.6703 78.096,40.5953 78.096,41.7353 C78.096,42.8753 77.17,43.8003 76.03,43.8003 C74.891,43.8003 73.965,42.8753 73.965,41.7353 Z M64.676,41.7353 C64.676,48.0083 69.757,53.0893 76.03,53.0893 C80.369,53.0893 84.144,50.6563 86.055,47.0713 C86.903,45.4803 87.384,43.6643 87.384,41.7353 C87.384,35.4673 82.298,30.3813 76.03,30.3813 C74.333,30.3813 72.73,30.7493 71.288,31.4203 C67.382,33.2123 64.676,37.1593 64.676,41.7353 Z" id="Stroke-472" stroke="#231F20" stroke-width="0.047" stroke-linecap="round" stroke-linejoin="round"></path>
            <path d="M73.965,41.7353 C73.965,42.8753 74.891,43.8003 76.03,43.8003 C77.17,43.8003 78.096,42.8753 78.096,41.7353 C78.096,40.5953 77.17,39.6703 76.03,39.6703 C75.721,39.6703 75.431,39.7353 75.17,39.8603 C74.457,40.1863 73.965,40.9043 73.965,41.7353" id="Fill-474" fill="#F57153"></path>
            <path d="M73.965,41.7353 C73.965,42.8753 74.891,43.8003 76.03,43.8003 C77.17,43.8003 78.096,42.8753 78.096,41.7353 C78.096,40.5953 77.17,39.6703 76.03,39.6703 C75.721,39.6703 75.431,39.7353 75.17,39.8603 C74.457,40.1863 73.965,40.9043 73.965,41.7353" id="Fill-476" fill="#F57153"></path>
            <polyline id="Fill-478" fill="#F57153" points="71.2877 31.4199 75.1697 39.8599 76.0297 41.7349"></polyline>
            <path d="M81.7062,41.8838 C81.7062,45.0188 79.1642,47.5608 76.0292,47.5608 C72.8942,47.5608 70.3522,45.0188 70.3522,41.8838 C70.3522,38.7488 72.8942,36.2068 76.0292,36.2068 C79.1642,36.2068 81.7062,38.7488 81.7062,41.8838" id="Fill-480" fill="#FFFFFF"></path>
            <path d="M75.1832,47.5019 C75.4622,47.5369 75.7412,47.5609 76.0262,47.5609 C79.1602,47.5609 81.7062,45.0209 81.7062,41.8869 C81.7062,38.7469 79.1602,36.2069 76.0262,36.2069 C75.7412,36.2069 75.4622,36.2309 75.1832,36.2669 C77.9192,36.6699 80.0202,39.0319 80.0202,41.8869 C80.0202,44.7349 77.9192,47.0979 75.1832,47.5019" id="Fill-482" fill="#BDBDBD"></path>
            <path d="M87.9547,24.8496 L94.3077,36.1916 C94.5017,36.6136 93.9687,36.9936 93.6337,36.6706 L81.2777,24.8496" id="Fill-484" fill="#212121"></path>
            <path d="M76.0294,41.8838 L69.1734,24.8498" id="Stroke-486" stroke="#212121" stroke-width="2" stroke-linecap="round" stroke-linejoin="round"></path>
            <path d="M78.0968,41.8838 C78.0968,43.0258 77.1708,43.9508 76.0298,43.9508 C74.8878,43.9508 73.9618,43.0258 73.9618,41.8838 C73.9618,40.7418 74.8878,39.8168 76.0298,39.8168 C77.1708,39.8168 78.0968,40.7418 78.0968,41.8838" id="Fill-488" fill="#212121"></path>
            <path d="M63.8214,29.0908 C63.8214,29.3518 63.8574,29.6188 63.9344,29.8858 L64.5154,31.9158 C64.9554,33.4418 66.5514,34.3248 68.0774,33.8808 L74.3214,32.0648 L96.6614,25.5528 C97.8904,25.1968 98.7334,24.0748 98.7334,22.7988 L98.7334,4.0908 C98.7334,2.5298 97.4864,1.2538 95.9314,1.2178 L70.9204,0.6248 C69.3114,0.5888 67.9824,1.8828 67.9824,3.4968 L67.9824,23.5698 C67.9824,24.8528 67.1334,25.9808 65.8994,26.3308 C64.6404,26.6928 63.8214,27.8378 63.8214,29.0908" id="Fill-490" fill="#F57153"></path>
            <path d="M83.358,23.1904 L82.682,22.3984 C79.261,18.3864 77.221,14.7654 77.221,12.7114 C77.221,9.3264 79.973,6.5734 83.358,6.5734 C86.742,6.5734 89.495,9.3264 89.495,12.7114 C89.495,14.7654 87.454,18.3864 84.033,22.3974 L83.358,23.1904 Z M83.358,5.6844 C79.478,5.6844 76.332,8.8304 76.332,12.7114 C76.332,16.5704 81.864,22.8614 83.111,24.2284 C83.243,24.3744 83.472,24.3744 83.605,24.2284 C84.851,22.8614 90.384,16.5704 90.384,12.7114 C90.384,8.8304 87.238,5.6844 83.358,5.6844 L83.358,5.6844 Z" id="Fill-492" fill="#FFFFFF"></path>
            <path d="M88.4449,13.7412 C87.9159,15.6622 86.1129,18.5592 83.5129,21.6382 C83.4319,21.7332 83.2839,21.7332 83.2029,21.6382 C82.8999,21.2792 82.6079,20.9232 82.3279,20.5702 C81.5489,19.5932 80.8609,18.6452 80.2769,17.7532 C80.1959,17.6292 80.2699,17.4642 80.4159,17.4432 C81.8669,17.2352 83.2659,16.5722 84.3829,15.4562 C85.4659,14.3742 86.8129,13.7192 88.2159,13.4902 C88.3609,13.4672 88.4839,13.5992 88.4449,13.7412" id="Fill-494" fill="#FFFFFF"></path>
        </g>
    </g>
</svg>