<?xml version="1.0" encoding="UTF-8"?>
<svg width="657px" height="218px" viewBox="0 0 657 218" version="1.1" xmlns="http://www.w3.org/2000/svg" xmlns:xlink="http://www.w3.org/1999/xlink">
    <!-- Generator: Sketch 53.2 (72643) - https://sketchapp.com -->
    <title>svgArtboard Copy 2</title>
    <desc>Created with Sketch.</desc>
    <g id="Artboard-Copy-2" stroke="none" stroke-width="1" fill="none" fill-rule="evenodd">
        <g id="Group-497" transform="translate(0.000000, -120.000000)">
            <g id="Group-11" transform="translate(165.000000, 301.789000)" stroke="#A4BBD6">
                <path d="M226.4279,15.4306 C229.1569,15.4306 229.1569,19.4306 231.8849,19.4306 C234.6149,19.4306 234.6149,15.4306 237.3449,15.4306 C240.0739,15.4306 240.0739,19.4306 242.8039,19.4306 C245.5339,19.4306 245.5339,15.4306 248.2639,15.4306 C250.9939,15.4306 250.9939,19.4306 253.7249,19.4306 C256.4539,19.4306 256.4539,15.4306 259.1829,15.4306 C261.9149,15.4306 261.9149,19.4306 264.6459,19.4306 C267.3789,19.4306 267.3789,15.4306 270.1129,15.4306 C272.8459,15.4306 272.8459,19.4306 275.5789,19.4306" id="Stroke-3"></path>
                <path d="M137.7272,0.5449 C140.1822,0.5449 140.1822,3.3849 142.6382,3.3849 C145.0932,3.3849 145.0932,0.5449 147.5492,0.5449 C150.0072,0.5449 150.0072,3.3849 152.4652,3.3849 C154.9242,3.3849 154.9242,0.5449 157.3832,0.5449 C159.8432,0.5449 159.8432,3.3849 162.3032,3.3849" id="Stroke-5"></path>
                <path d="M0.3492,16.0107 C2.8052,16.0107 2.8052,18.8507 5.2602,18.8507 C7.7152,18.8507 7.7152,16.0107 10.1712,16.0107 C12.6292,16.0107 12.6292,18.8507 15.0872,18.8507 C17.5462,18.8507 17.5462,16.0107 20.0062,16.0107 C22.4652,16.0107 22.4652,18.8507 24.9252,18.8507" id="Stroke-7"></path>
                <path d="M332.2448,0.5449 C334.6998,0.5449 334.6998,3.3849 337.1558,3.3849 C339.6108,3.3849 339.6108,0.5449 342.0668,0.5449 C344.5248,0.5449 344.5248,3.3849 346.9818,3.3849 C349.4418,3.3849 349.4418,0.5449 351.9008,0.5449 C354.3608,0.5449 354.3608,3.3849 356.8198,3.3849" id="Stroke-9"></path>
            </g>
            <g id="Group-376" transform="translate(27.000000, 130.789000)">
                <path d="M603.0226,158.4756 L551.1626,158.4546 L551.1626,133.3346 C564.6526,144.0756 580.0526,158.4756 603.0226,158.4756" id="Fill-12" fill="#E3EAED"></path>
                <polygon id="Fill-14" fill="#A4BBD6" points="422.335 158.476 477.835 158.476 477.835 81.356 422.335 81.356"></polygon>
                <polygon id="Fill-16" fill="#E3EAED" points="54.357 172.965 100.399 172.965 100.399 74.153 54.357 74.153"></polygon>
                <polygon id="Fill-18" fill="#E3EAED" points="59.667 76.124 95.208 76.124 95.208 67.209 59.667 67.209"></polygon>
                <polygon id="Fill-19" fill="#0B2146" points="210.7867 41.0722 210.7867 166.1952 220.4167 166.1952 220.4167 50.7022"></polygon>
                <polygon id="Fill-20" fill="#C8EAFB" points="59.667 169.129 95.208 169.129 95.208 76.124 59.667 76.124"></polygon>
                <polygon id="Fill-21" fill="#E3EAED" points="90.6305 67.209 64.2445 67.209 77.4375 54.017"></polygon>
                <polygon id="Fill-22" fill="#A4BBD6" points="54.357 79.907 100.399 79.907 100.399 74.153 54.357 74.153"></polygon>
                <polygon id="Fill-23" fill="#A4BBD6" points="54.357 88.524 100.399 88.524 100.399 82.769 54.357 82.769"></polygon>
                <polygon id="Fill-24" fill="#A4BBD6" points="54.357 97.142 100.399 97.142 100.399 91.387 54.357 91.387"></polygon>
                <polygon id="Fill-25" fill="#A4BBD6" points="54.357 105.773 100.399 105.773 100.399 100.018 54.357 100.018"></polygon>
                <polygon id="Fill-26" fill="#A4BBD6" points="54.357 114.417 100.399 114.417 100.399 108.662 54.357 108.662"></polygon>
                <polygon id="Fill-27" fill="#A4BBD6" points="54.357 123.049 100.399 123.049 100.399 117.294 54.357 117.294"></polygon>
                <polygon id="Fill-28" fill="#A4BBD6" points="54.357 131.666 100.399 131.666 100.399 125.911 54.357 125.911"></polygon>
                <polygon id="Fill-29" fill="#A4BBD6" points="54.357 140.298 100.399 140.298 100.399 134.543 54.357 134.543"></polygon>
                <polygon id="Fill-30" fill="#A4BBD6" points="54.357 148.941 100.399 148.941 100.399 143.186 54.357 143.186"></polygon>
                <polygon id="Fill-31" fill="#E3EAED" points="411.251 158.205 436.036 158.205 436.036 99.521 411.251 99.521"></polygon>
                <polygon id="Fill-32" fill="#0B2146" points="445.0494 155.4804 436.0364 155.4804 436.0364 99.5214 445.0494 108.5354"></polygon>
                <path d="M419.8082,133.9912 L419.8082,133.9912 C418.2952,133.9912 417.0682,132.7632 417.0682,131.2512 C417.0682,129.7382 418.2952,128.5112 419.8082,128.5112 C421.3212,128.5112 422.5482,129.7382 422.5482,131.2512 C422.5482,132.7632 421.3212,133.9912 419.8082,133.9912" id="Fill-33" fill="#C8EAFB"></path>
                <path d="M427.4796,133.9912 L427.4796,133.9912 C425.9666,133.9912 424.7396,132.7632 424.7396,131.2512 C424.7396,129.7382 425.9666,128.5112 427.4796,128.5112 C428.9926,128.5112 430.2196,129.7382 430.2196,131.2512 C430.2196,132.7632 428.9926,133.9912 427.4796,133.9912" id="Fill-34" fill="#C8EAFB"></path>
                <path d="M427.4796,126.3193 L427.4796,126.3193 C425.9666,126.3193 424.7396,125.0923 424.7396,123.5803 C424.7396,122.0663 425.9666,120.8403 427.4796,120.8403 C428.9926,120.8403 430.2196,122.0663 430.2196,123.5803 C430.2196,125.0923 428.9926,126.3193 427.4796,126.3193" id="Fill-35" fill="#C8EAFB"></path>
                <path d="M419.8082,126.3193 L419.8082,126.3193 C418.2952,126.3193 417.0682,125.0923 417.0682,123.5803 C417.0682,122.0663 418.2952,120.8403 419.8082,120.8403 C421.3212,120.8403 422.5482,122.0663 422.5482,123.5803 C422.5482,125.0923 421.3212,126.3193 419.8082,126.3193" id="Fill-36" fill="#C8EAFB"></path>
                <path d="M427.4796,118.5683 L427.4796,118.5683 C425.9666,118.5683 424.7396,117.3413 424.7396,115.8293 C424.7396,114.3163 425.9666,113.0893 427.4796,113.0893 C428.9926,113.0893 430.2196,114.3163 430.2196,115.8293 C430.2196,117.3413 428.9926,118.5683 427.4796,118.5683" id="Fill-37" fill="#C8EAFB"></path>
                <path d="M419.8082,118.5683 L419.8082,118.5683 C418.2952,118.5683 417.0682,117.3413 417.0682,115.8293 C417.0682,114.3163 418.2952,113.0893 419.8082,113.0893 C421.3212,113.0893 422.5482,114.3163 422.5482,115.8293 C422.5482,117.3413 421.3212,118.5683 419.8082,118.5683" id="Fill-38" fill="#C8EAFB"></path>
                <path d="M419.8082,110.8183 L419.8082,110.8183 C418.2952,110.8183 417.0682,109.5913 417.0682,108.0783 C417.0682,106.5653 418.2952,105.3393 419.8082,105.3393 C421.3212,105.3393 422.5482,106.5653 422.5482,108.0783 C422.5482,109.5913 421.3212,110.8183 419.8082,110.8183" id="Fill-39" fill="#C8EAFB"></path>
                <path d="M427.4796,110.8183 L427.4796,110.8183 C425.9666,110.8183 424.7396,109.5913 424.7396,108.0783 C424.7396,106.5653 425.9666,105.3393 427.4796,105.3393 C428.9926,105.3393 430.2196,106.5653 430.2196,108.0783 C430.2196,109.5913 428.9926,110.8183 427.4796,110.8183" id="Fill-40" fill="#C8EAFB"></path>
                <path d="M427.4796,141.6562 L427.4796,141.6562 C425.9666,141.6562 424.7396,140.4292 424.7396,138.9172 C424.7396,137.4042 425.9666,136.1772 427.4796,136.1772 C428.9926,136.1772 430.2196,137.4042 430.2196,138.9172 C430.2196,140.4292 428.9926,141.6562 427.4796,141.6562" id="Fill-41" fill="#C8EAFB"></path>
                <path d="M419.8082,141.5771 L419.8082,141.5771 C418.2952,141.5771 417.0682,140.3501 417.0682,138.8381 C417.0682,137.3241 418.2952,136.0981 419.8082,136.0981 C421.3212,136.0981 422.5482,137.3241 422.5482,138.8381 C422.5482,140.3501 421.3212,141.5771 419.8082,141.5771" id="Fill-42" fill="#C8EAFB"></path>
                <path d="M369.4127,135.1054 L369.4127,157.9354 C349.5227,138.4354 332.7127,122.0144 307.5827,108.8554 C279.5427,94.1854 254.0727,105.4054 225.2027,126.8954 C224.7527,126.7754 224.2927,126.6744 223.8327,126.5754 C221.8827,126.1554 219.8727,125.9454 217.8027,125.9454 C216.6027,125.9454 215.4227,126.0144 214.2627,126.1654 C248.3427,104.1454 276.6027,90.3654 308.7527,104.0354 C326.5827,111.6254 355.3327,134.4754 369.4127,135.1054" id="Fill-43" fill="#A4BBD6"></path>
                <polygon id="Fill-44" fill="#A4BBD6" points="405.4449 113.7646 405.4449 158.4756 212.8349 158.4756 212.8349 140.8256 248.0849 140.8256 248.0849 149.9246 255.4549 149.9246 255.4549 143.6856 277.7549 143.6856 277.7549 149.9246 279.8749 149.9246 279.8749 145.3746 288.0149 145.3746 288.0149 149.9246 336.8549 149.9246 336.8549 147.9756 346.3349 142.7356 346.3349 149.9246 384.3349 149.9246 384.3349 98.2856 387.2649 98.2856 387.2649 103.1056"></polygon>
                <path d="M369.4127,125.8554 L369.4127,135.1054 C355.3327,134.4754 326.5827,111.6254 308.7527,104.0354 C276.6027,90.3654 248.3427,104.1454 214.2627,126.1654 C213.0827,126.3044 211.9227,126.5144 210.7827,126.8044 L210.7827,119.1154 C248.5827,98.1344 276.1727,86.1744 308.7527,100.0254 C326.5827,107.6054 355.3327,125.2354 369.4127,125.8554" id="Fill-45" fill="#E3EAED"></path>
                <path d="M551.1627,119.2148 L551.1627,158.4758 L503.4927,158.4758 L503.4927,72.0258 L530.8327,72.0258 L530.8327,104.6058 L536.5527,104.6058 C544.6227,104.6058 551.1627,111.1458 551.1627,119.2148" id="Fill-46" fill="#A4BBD6"></path>
                <polygon id="Fill-47" fill="#A4BBD6" points="131.7589 166.1914 104.6769 166.1914 103.9729 105.1974 131.5919 94.5444"></polygon>
                <polygon id="Fill-48" fill="#A4BBD6" points="128.487 166.191 167.2 166.191 167.2 69.223 128.487 69.223"></polygon>
                <path d="M210.7823,64.1582 L210.7823,150.0172 C210.7823,150.0172 210.7923,150.0172 210.7823,150.0282 L210.7823,166.1952 L177.6723,166.1952 L177.6723,64.1582 L210.7823,64.1582 Z" id="Fill-49" fill="#E3EAED"></path>
                <polygon id="Fill-50" fill="#E3EAED" points="185.344 65.521 210.787 65.521 210.787 47.55 185.344 47.55"></polygon>
                <polygon id="Fill-51" fill="#E3EAED" points="190.227 48.211 210.787 48.211 210.787 41.072 190.227 41.072"></polygon>
                <polygon id="Fill-52" fill="#0B2146" points="111.229 166.191 117.656 166.191 117.656 37.111 111.229 37.111"></polygon>
                <polygon id="Fill-53" fill="#A4BBD6" points="123.5025 40.791 122.0825 51.261 106.8025 51.261 105.3925 40.791"></polygon>
                <polygon id="Fill-54" fill="#E3EAED" points="124.9127 30.3203 123.5027 40.7913 105.3927 40.7913 103.9727 30.3203"></polygon>
                <polygon id="Fill-55" fill="#A4BBD6" points="109.8927 17.8388 118.9937 17.8388 120.6827 30.3178 108.2037 30.3178"></polygon>
                <path d="M114.443,0.5058 L114.443,17.8388" id="Stroke-56" stroke="#A4BBD6"></path>
                <path d="M48.9425,85.8554 L48.9425,158.4754 L25.0325,158.4754 C29.4825,117.1154 36.5025,103.3654 41.6925,91.8554 L37.7125,90.0044 L37.7125,85.8554 L48.9425,85.8554 Z" id="Fill-57" fill="#A4BBD6"></path>
                <polygon id="Fill-58" fill="#0B2146" points="219.835 140.828 452.139 140.828 452.139 135.105 219.835 135.105"></polygon>
                <polygon id="Fill-59" fill="#A4BBD6" points="381.253 146.551 452.139 146.551 452.139 140.828 381.253 140.828"></polygon>
                <polyline id="Stroke-60" stroke="#0B2146" points="361.275 124.2549 361.275 135.1059 361.275 149.9249"></polyline>
                <polyline id="Stroke-61" stroke="#0B2146" points="353.1349 121.2949 353.1349 135.1059 353.1349 140.8249"></polyline>
                <polyline id="Stroke-62" stroke="#0B2146" points="344.9948 117.705 344.9948 135.105 344.9948 140.825"></polyline>
                <polyline id="Stroke-63" stroke="#0B2146" points="336.8551 113.7656 336.8551 135.1056 336.8551 140.8256"></polyline>
                <polyline id="Stroke-64" stroke="#0B2146" points="328.715 109.665 328.715 135.105 328.715 140.825"></polyline>
                <polyline id="Stroke-65" stroke="#0B2146" points="320.5748 105.5654 320.5748 135.1054 320.5748 140.8254"></polyline>
                <polyline id="Stroke-66" stroke="#0B2146" points="312.4352 101.6552 312.4352 135.1052 312.4352 140.8252"></polyline>
                <polyline id="Stroke-67" stroke="#0B2146" points="304.295 98.2851 304.295 135.1051 304.295 140.8251"></polyline>
                <polyline id="Stroke-68" stroke="#0B2146" points="296.1549 95.8652 296.1549 135.1052 296.1549 140.8252"></polyline>
                <polyline id="Stroke-69" stroke="#0B2146" points="288.0148 94.4756 288.0148 135.1056 288.0148 140.8256"></polyline>
                <polyline id="Stroke-70" stroke="#0B2146" points="279.8751 91.2304 279.8751 135.1054 279.8751 140.8254"></polyline>
                <polyline id="Stroke-71" stroke="#0B2146" points="271.735 94.6347 271.735 135.1057 271.735 140.8247"></polyline>
                <polyline id="Stroke-72" stroke="#0B2146" points="263.5948 96.0752 263.5948 135.1052 263.5948 140.8252"></polyline>
                <polyline id="Stroke-73" stroke="#0B2146" points="255.4547 98.2754 255.4547 135.1054 255.4547 140.8254"></polyline>
                <polyline id="Stroke-74" stroke="#0B2146" points="247.3151 101.1455 247.3151 135.1055 247.3151 140.8255"></polyline>
                <polyline id="Stroke-75" stroke="#0B2146" points="239.1749 104.5654 239.1749 135.1054 239.1749 140.8254"></polyline>
                <polyline id="Stroke-76" stroke="#0B2146" points="231.0348 108.3955 231.0348 135.1055 231.0348 140.8255"></polyline>
                <polyline id="Stroke-77" stroke="#0B2146" points="222.8951 112.5556 222.8951 135.1056 222.8951 140.8256"></polyline>
                <path d="M210.7823,119.1152 C210.4423,119.3052 210.1023,119.4952 209.7523,119.6852" id="Stroke-78" stroke="#BEE0F1"></path>
                <path d="M214.2623,126.165 C213.4823,126.665 212.7023,127.175 211.9223,127.686" id="Stroke-79" stroke="#BEE0F1"></path>
                <path d="M369.9625,158.4756 C369.7725,158.2946 369.5925,158.1156 369.4125,157.9356" id="Stroke-80" stroke="#BEE0F1"></path>
                <path d="M225.2027,126.8955 C224.9927,127.0445 224.7927,127.2055 224.5827,127.3555" id="Stroke-81" stroke="#BEE0F1"></path>
                <path d="M389.0035,141.3896 C391.7845,141.3896 391.7845,145.9896 394.5655,145.9896 C397.3485,145.9896 397.3485,141.3896 400.1305,141.3896 C402.9135,141.3896 402.9135,145.9896 405.6955,145.9896 C408.4785,145.9896 408.4785,141.3896 411.2605,141.3896 C414.0445,141.3896 414.0445,145.9896 416.8275,145.9896 C419.6095,145.9896 419.6095,141.3896 422.3915,141.3896 C425.1755,141.3896 425.1755,145.9896 427.9595,145.9896 C430.7455,145.9896 430.7455,141.3896 433.5315,141.3896 C436.3175,141.3896 436.3175,145.9896 439.1035,145.9896" id="Stroke-82" stroke="#0B2146"></path>
                <polygon id="Fill-83" fill="#A4BBD6" points="373.502 158.48 389.004 158.48 389.004 120.73 373.502 120.73"></polygon>
                <path d="M440.0597,130.874 L440.0597,139.095" id="Stroke-84" stroke="#C57153" stroke-linecap="round" stroke-linejoin="round"></path>
                <polygon id="Fill-85" fill="#CDE1EC" points="440.0597 121.1738 433.7517 132.0998 446.3677 131.3048"></polygon>
                <path d="M403.2906,147.1826 L403.2906,157.0786" id="Stroke-86" stroke="#C57153" stroke-linecap="round"></path>
                <polygon id="Fill-87" fill="#FFFFFF" points="403.2906 126.5293 397.6416 150.0823 408.9386 150.0823"></polygon>
                <polygon id="Fill-88" fill="#FFFFFF" points="375.242 120.73 387.262 120.73 387.262 113.765 375.242 113.765"></polygon>
                <polygon id="Fill-89" fill="#FFFFFF" points="377.211 113.766 385.294 113.766 385.294 110.741 377.211 110.741"></polygon>
                <path d="M373.5026,158.4756 L450.7516,158.4756 L450.9676,139.2306 C445.8836,138.7306 435.7516,137.5216 425.8356,145.1056 C415.9186,152.6886 396.3356,156.4386 373.5016,158.4806" id="Fill-90" fill="#0B2146"></path>
                <polygon id="Fill-91" fill="#FFFFFF" points="369.413 158.476 373.503 158.476 373.503 122.606 369.413 122.606"></polygon>
                <polyline id="Stroke-92" stroke="#0B2146" stroke-width="1.14" points="369.4127 125.1318 369.4127 139.2248 369.4127 158.4758"></polyline>
                <polygon id="Fill-93" fill="#E3EAED" points="450.751 158.48 482.532 158.48 482.532 60.861 450.751 60.861"></polygon>
                <polygon id="Fill-94" fill="#0B2146" points="491.0934 158.4756 482.5324 158.4756 482.5324 60.8616 491.0934 69.4226"></polygon>
                <polygon id="Fill-95" fill="#0B2146" points="524.3463 158.4804 516.3083 158.4804 516.3083 75.7854 524.3463 83.8234"></polygon>
                <polygon id="Fill-96" fill="#A4BBD6" points="471.574 67.711 477.053 67.711 477.053 66.341 471.574 66.341"></polygon>
                <polygon id="Fill-97" fill="#A4BBD6" points="471.574 70.45 477.053 70.45 477.053 69.081 471.574 69.081"></polygon>
                <polygon id="Fill-98" fill="#A4BBD6" points="463.903 70.45 469.382 70.45 469.382 69.081 463.903 69.081"></polygon>
                <polygon id="Fill-99" fill="#A4BBD6" points="456.232 70.45 461.711 70.45 461.711 69.081 456.232 69.081"></polygon>
                <polygon id="Fill-100" fill="#A4BBD6" points="463.903 67.711 469.382 67.711 469.382 66.341 463.903 66.341"></polygon>
                <polygon id="Fill-101" fill="#A4BBD6" points="456.232 67.711 461.711 67.711 461.711 66.341 456.232 66.341"></polygon>
                <polygon id="Fill-102" fill="#A4BBD6" points="471.574 73.19 477.053 73.19 477.053 71.82 471.574 71.82"></polygon>
                <polygon id="Fill-103" fill="#A4BBD6" points="471.574 75.93 477.053 75.93 477.053 74.56 471.574 74.56"></polygon>
                <polygon id="Fill-104" fill="#A4BBD6" points="463.903 75.93 469.382 75.93 469.382 74.56 463.903 74.56"></polygon>
                <polygon id="Fill-105" fill="#0B2146" points="456.232 75.93 461.711 75.93 461.711 74.56 456.232 74.56"></polygon>
                <polygon id="Fill-106" fill="#0B2146" points="463.903 73.19 469.382 73.19 469.382 71.82 463.903 71.82"></polygon>
                <polygon id="Fill-107" fill="#A4BBD6" points="456.232 73.19 461.711 73.19 461.711 71.82 456.232 71.82"></polygon>
                <polygon id="Fill-108" fill="#A4BBD6" points="471.574 78.669 477.053 78.669 477.053 77.299 471.574 77.299"></polygon>
                <polygon id="Fill-109" fill="#A4BBD6" points="471.574 81.408 477.053 81.408 477.053 80.039 471.574 80.039"></polygon>
                <polygon id="Fill-110" fill="#0B2146" points="463.903 81.408 469.382 81.408 469.382 80.039 463.903 80.039"></polygon>
                <polygon id="Fill-111" fill="#A4BBD6" points="456.232 81.408 461.711 81.408 461.711 80.039 456.232 80.039"></polygon>
                <polygon id="Fill-112" fill="#0B2146" points="463.903 78.669 469.382 78.669 469.382 77.299 463.903 77.299"></polygon>
                <polygon id="Fill-113" fill="#A4BBD6" points="456.232 78.669 461.711 78.669 461.711 77.299 456.232 77.299"></polygon>
                <polygon id="Fill-114" fill="#A4BBD6" points="471.574 84.148 477.053 84.148 477.053 82.778 471.574 82.778"></polygon>
                <polygon id="Fill-115" fill="#0B2146" points="471.574 86.888 477.053 86.888 477.053 85.518 471.574 85.518"></polygon>
                <polygon id="Fill-116" fill="#A4BBD6" points="463.903 86.888 469.382 86.888 469.382 85.518 463.903 85.518"></polygon>
                <polygon id="Fill-117" fill="#A4BBD6" points="456.232 86.888 461.711 86.888 461.711 85.518 456.232 85.518"></polygon>
                <polygon id="Fill-118" fill="#A4BBD6" points="463.903 84.148 469.382 84.148 469.382 82.778 463.903 82.778"></polygon>
                <polygon id="Fill-119" fill="#A4BBD6" points="456.232 84.148 461.711 84.148 461.711 82.778 456.232 82.778"></polygon>
                <polygon id="Fill-120" fill="#A4BBD6" points="471.574 89.627 477.053 89.627 477.053 88.257 471.574 88.257"></polygon>
                <polygon id="Fill-121" fill="#A4BBD6" points="471.574 92.366 477.053 92.366 477.053 90.997 471.574 90.997"></polygon>
                <polygon id="Fill-122" fill="#A4BBD6" points="463.903 92.366 469.382 92.366 469.382 90.997 463.903 90.997"></polygon>
                <polygon id="Fill-123" fill="#A4BBD6" points="456.232 92.366 461.711 92.366 461.711 90.997 456.232 90.997"></polygon>
                <polygon id="Fill-124" fill="#A4BBD6" points="463.903 89.627 469.382 89.627 469.382 88.257 463.903 88.257"></polygon>
                <polygon id="Fill-125" fill="#A4BBD6" points="456.232 89.627 461.711 89.627 461.711 88.257 456.232 88.257"></polygon>
                <polygon id="Fill-126" fill="#A4BBD6" points="471.574 95.106 477.053 95.106 477.053 93.736 471.574 93.736"></polygon>
                <polygon id="Fill-127" fill="#0B2146" points="471.574 97.846 477.053 97.846 477.053 96.476 471.574 96.476"></polygon>
                <polygon id="Fill-128" fill="#A4BBD6" points="463.903 97.846 469.382 97.846 469.382 96.476 463.903 96.476"></polygon>
                <polygon id="Fill-129" fill="#A4BBD6" points="456.232 97.846 461.711 97.846 461.711 96.476 456.232 96.476"></polygon>
                <polygon id="Fill-130" fill="#A4BBD6" points="463.903 95.106 469.382 95.106 469.382 93.736 463.903 93.736"></polygon>
                <polygon id="Fill-131" fill="#0B2146" points="456.232 95.106 461.711 95.106 461.711 93.736 456.232 93.736"></polygon>
                <polygon id="Fill-132" fill="#A4BBD6" points="471.574 100.585 477.053 100.585 477.053 99.215 471.574 99.215"></polygon>
                <polygon id="Fill-133" fill="#A4BBD6" points="471.574 103.324 477.053 103.324 477.053 101.955 471.574 101.955"></polygon>
                <polygon id="Fill-134" fill="#0B2146" points="463.903 103.324 469.382 103.324 469.382 101.955 463.903 101.955"></polygon>
                <polygon id="Fill-135" fill="#A4BBD6" points="456.232 103.324 461.711 103.324 461.711 101.955 456.232 101.955"></polygon>
                <polygon id="Fill-136" fill="#A4BBD6" points="463.903 100.585 469.382 100.585 469.382 99.215 463.903 99.215"></polygon>
                <polygon id="Fill-137" fill="#A4BBD6" points="456.232 100.585 461.711 100.585 461.711 99.215 456.232 99.215"></polygon>
                <polygon id="Fill-138" fill="#A4BBD6" points="471.574 106.064 477.053 106.064 477.053 104.694 471.574 104.694"></polygon>
                <polygon id="Fill-139" fill="#0B2146" points="471.574 108.804 477.053 108.804 477.053 107.434 471.574 107.434"></polygon>
                <polygon id="Fill-140" fill="#A4BBD6" points="463.903 108.804 469.382 108.804 469.382 107.434 463.903 107.434"></polygon>
                <polygon id="Fill-141" fill="#A4BBD6" points="456.232 108.804 461.711 108.804 461.711 107.434 456.232 107.434"></polygon>
                <polygon id="Fill-142" fill="#0B2146" points="463.903 106.064 469.382 106.064 469.382 104.694 463.903 104.694"></polygon>
                <polygon id="Fill-143" fill="#A4BBD6" points="456.232 106.064 461.711 106.064 461.711 104.694 456.232 104.694"></polygon>
                <polygon id="Fill-144" fill="#A4BBD6" points="471.574 111.543 477.053 111.543 477.053 110.173 471.574 110.173"></polygon>
                <polygon id="Fill-145" fill="#A4BBD6" points="471.574 114.282 477.053 114.282 477.053 112.913 471.574 112.913"></polygon>
                <polygon id="Fill-146" fill="#A4BBD6" points="463.903 114.282 469.382 114.282 469.382 112.913 463.903 112.913"></polygon>
                <polygon id="Fill-147" fill="#A4BBD6" points="456.232 114.282 461.711 114.282 461.711 112.913 456.232 112.913"></polygon>
                <polygon id="Fill-148" fill="#A4BBD6" points="463.903 111.543 469.382 111.543 469.382 110.173 463.903 110.173"></polygon>
                <polygon id="Fill-149" fill="#A4BBD6" points="456.232 111.543 461.711 111.543 461.711 110.173 456.232 110.173"></polygon>
                <polygon id="Fill-150" fill="#A4BBD6" points="471.574 117.022 477.053 117.022 477.053 115.652 471.574 115.652"></polygon>
                <polygon id="Fill-151" fill="#A4BBD6" points="471.574 119.762 477.053 119.762 477.053 118.392 471.574 118.392"></polygon>
                <polygon id="Fill-152" fill="#0B2146" points="463.903 119.762 469.382 119.762 469.382 118.392 463.903 118.392"></polygon>
                <polygon id="Fill-153" fill="#A4BBD6" points="456.232 119.762 461.711 119.762 461.711 118.392 456.232 118.392"></polygon>
                <polygon id="Fill-154" fill="#A4BBD6" points="463.903 117.022 469.382 117.022 469.382 115.652 463.903 115.652"></polygon>
                <polygon id="Fill-155" fill="#A4BBD6" points="456.232 117.022 461.711 117.022 461.711 115.652 456.232 115.652"></polygon>
                <polygon id="Fill-156" fill="#A4BBD6" points="471.574 122.501 477.053 122.501 477.053 121.131 471.574 121.131"></polygon>
                <polygon id="Fill-157" fill="#0B2146" points="471.574 125.24 477.053 125.24 477.053 123.871 471.574 123.871"></polygon>
                <polygon id="Fill-158" fill="#A4BBD6" points="463.903 125.24 469.382 125.24 469.382 123.871 463.903 123.871"></polygon>
                <polygon id="Fill-159" fill="#0B2146" points="456.232 125.24 461.711 125.24 461.711 123.871 456.232 123.871"></polygon>
                <polygon id="Fill-160" fill="#A4BBD6" points="463.903 122.501 469.382 122.501 469.382 121.131 463.903 121.131"></polygon>
                <polygon id="Fill-161" fill="#0B2146" points="456.232 122.501 461.711 122.501 461.711 121.131 456.232 121.131"></polygon>
                <polygon id="Fill-162" fill="#A4BBD6" points="471.574 127.98 477.053 127.98 477.053 126.61 471.574 126.61"></polygon>
                <polygon id="Fill-163" fill="#A4BBD6" points="471.574 130.72 477.053 130.72 477.053 129.35 471.574 129.35"></polygon>
                <polygon id="Fill-164" fill="#0B2146" points="463.903 130.72 469.382 130.72 469.382 129.35 463.903 129.35"></polygon>
                <polygon id="Fill-165" fill="#A4BBD6" points="456.232 130.72 461.711 130.72 461.711 129.35 456.232 129.35"></polygon>
                <polygon id="Fill-166" fill="#A4BBD6" points="463.903 127.98 469.382 127.98 469.382 126.61 463.903 126.61"></polygon>
                <polygon id="Fill-167" fill="#A4BBD6" points="456.232 127.98 461.711 127.98 461.711 126.61 456.232 126.61"></polygon>
                <polygon id="Fill-168" fill="#C8EAFB" points="153.56 74.978 162.816 74.978 162.816 73.608 153.56 73.608"></polygon>
                <polygon id="Fill-169" fill="#C8EAFB" points="143.215 74.978 152.471 74.978 152.471 73.608 143.215 73.608"></polygon>
                <polygon id="Fill-170" fill="#C8EAFB" points="132.855 74.978 142.111 74.978 142.111 73.608 132.855 73.608"></polygon>
                <polygon id="Fill-171" fill="#C8EAFB" points="153.56 77.717 162.816 77.717 162.816 76.347 153.56 76.347"></polygon>
                <polygon id="Fill-172" fill="#FFFFFF" points="143.215 77.717 152.471 77.717 152.471 76.347 143.215 76.347"></polygon>
                <polygon id="Fill-173" fill="#C8EAFB" points="132.855 77.717 142.111 77.717 142.111 76.347 132.855 76.347"></polygon>
                <polygon id="Fill-174" fill="#C8EAFB" points="153.56 80.456 162.816 80.456 162.816 79.087 153.56 79.087"></polygon>
                <polygon id="Fill-175" fill="#FFFFFF" points="143.215 80.456 152.471 80.456 152.471 79.087 143.215 79.087"></polygon>
                <polygon id="Fill-176" fill="#C8EAFB" points="132.855 80.456 142.111 80.456 142.111 79.087 132.855 79.087"></polygon>
                <polygon id="Fill-177" fill="#C8EAFB" points="153.56 83.196 162.816 83.196 162.816 81.826 153.56 81.826"></polygon>
                <polygon id="Fill-178" fill="#C8EAFB" points="143.215 83.196 152.471 83.196 152.471 81.826 143.215 81.826"></polygon>
                <polygon id="Fill-179" fill="#C8EAFB" points="132.855 83.196 142.111 83.196 142.111 81.826 132.855 81.826"></polygon>
                <polygon id="Fill-180" fill="#C8EAFB" points="153.56 85.974 162.816 85.974 162.816 84.604 153.56 84.604"></polygon>
                <polygon id="Fill-181" fill="#C8EAFB" points="143.215 85.974 152.471 85.974 152.471 84.604 143.215 84.604"></polygon>
                <polygon id="Fill-182" fill="#FFFFFF" points="132.855 85.974 142.111 85.974 142.111 84.604 132.855 84.604"></polygon>
                <polygon id="Fill-183" fill="#C8EAFB" points="153.56 88.713 162.816 88.713 162.816 87.343 153.56 87.343"></polygon>
                <polygon id="Fill-184" fill="#C8EAFB" points="143.215 88.713 152.471 88.713 152.471 87.343 143.215 87.343"></polygon>
                <polygon id="Fill-185" fill="#C8EAFB" points="132.855 88.713 142.111 88.713 142.111 87.343 132.855 87.343"></polygon>
                <polygon id="Fill-186" fill="#FFFFFF" points="153.56 91.452 162.816 91.452 162.816 90.082 153.56 90.082"></polygon>
                <polygon id="Fill-187" fill="#C8EAFB" points="143.215 91.452 152.471 91.452 152.471 90.082 143.215 90.082"></polygon>
                <polygon id="Fill-188" fill="#C8EAFB" points="132.855 91.452 142.111 91.452 142.111 90.082 132.855 90.082"></polygon>
                <polygon id="Fill-189" fill="#C8EAFB" points="153.56 94.191 162.816 94.191 162.816 92.822 153.56 92.822"></polygon>
                <polygon id="Fill-190" fill="#C8EAFB" points="143.215 94.191 152.471 94.191 152.471 92.822 143.215 92.822"></polygon>
                <polygon id="Fill-191" fill="#FFFFFF" points="132.855 94.191 142.111 94.191 142.111 92.822 132.855 92.822"></polygon>
                <polygon id="Fill-192" fill="#C8EAFB" points="153.56 96.932 162.816 96.932 162.816 95.562 153.56 95.562"></polygon>
                <polygon id="Fill-193" fill="#C8EAFB" points="143.215 96.932 152.471 96.932 152.471 95.562 143.215 95.562"></polygon>
                <polygon id="Fill-194" fill="#C8EAFB" points="132.855 96.932 142.111 96.932 142.111 95.562 132.855 95.562"></polygon>
                <polygon id="Fill-195" fill="#FFFFFF" points="153.56 99.671 162.816 99.671 162.816 98.301 153.56 98.301"></polygon>
                <polygon id="Fill-196" fill="#C8EAFB" points="143.215 99.671 152.471 99.671 152.471 98.301 143.215 98.301"></polygon>
                <polygon id="Fill-197" fill="#C8EAFB" points="132.855 99.671 142.111 99.671 142.111 98.301 132.855 98.301"></polygon>
                <polygon id="Fill-198" fill="#C8EAFB" points="153.56 102.41 162.816 102.41 162.816 101.04 153.56 101.04"></polygon>
                <polygon id="Fill-199" fill="#C8EAFB" points="143.051 102.41 152.307 102.41 152.307 101.04 143.051 101.04"></polygon>
                <polygon id="Fill-200" fill="#C8EAFB" points="132.855 102.41 142.111 102.41 142.111 101.04 132.855 101.04"></polygon>
                <polygon id="Fill-201" fill="#C8EAFB" points="153.56 105.149 162.816 105.149 162.816 103.78 153.56 103.78"></polygon>
                <polygon id="Fill-202" fill="#C8EAFB" points="153.56 107.89 162.816 107.89 162.816 106.52 153.56 106.52"></polygon>
                <polygon id="Fill-203" fill="#C8EAFB" points="153.56 110.629 162.816 110.629 162.816 109.259 153.56 109.259"></polygon>
                <polygon id="Fill-204" fill="#C8EAFB" points="143.051 105.149 152.307 105.149 152.307 103.78 143.051 103.78"></polygon>
                <polygon id="Fill-205" fill="#C8EAFB" points="132.855 105.149 142.111 105.149 142.111 103.78 132.855 103.78"></polygon>
                <polygon id="Fill-206" fill="#A4BBD6" points="471.574 133.459 477.053 133.459 477.053 132.089 471.574 132.089"></polygon>
                <polygon id="Fill-207" fill="#0B2146" points="471.574 136.198 477.053 136.198 477.053 134.829 471.574 134.829"></polygon>
                <polygon id="Fill-208" fill="#A4BBD6" points="463.903 136.198 469.382 136.198 469.382 134.829 463.903 134.829"></polygon>
                <polygon id="Fill-209" fill="#0B2146" points="456.232 136.198 461.711 136.198 461.711 134.829 456.232 134.829"></polygon>
                <polygon id="Fill-210" fill="#A4BBD6" points="463.903 133.459 469.382 133.459 469.382 132.089 463.903 132.089"></polygon>
                <polygon id="Fill-211" fill="#A4BBD6" points="456.232 133.459 461.711 133.459 461.711 132.089 456.232 132.089"></polygon>
                <polygon id="Fill-212" fill="#A4BBD6" points="471.574 138.938 477.053 138.938 477.053 137.568 471.574 137.568"></polygon>
                <polygon id="Fill-213" fill="#A4BBD6" points="471.574 141.678 477.053 141.678 477.053 140.308 471.574 140.308"></polygon>
                <polygon id="Fill-214" fill="#0B2146" points="463.903 141.678 469.382 141.678 469.382 140.308 463.903 140.308"></polygon>
                <polygon id="Fill-215" fill="#A4BBD6" points="456.232 141.678 461.711 141.678 461.711 140.308 456.232 140.308"></polygon>
                <polygon id="Fill-216" fill="#A4BBD6" points="463.903 138.938 469.382 138.938 469.382 137.568 463.903 137.568"></polygon>
                <polygon id="Fill-217" fill="#0B2146" points="456.232 138.938 461.711 138.938 461.711 137.568 456.232 137.568"></polygon>
                <polygon id="Fill-218" fill="#0B2146" points="471.574 144.417 477.053 144.417 477.053 143.047 471.574 143.047"></polygon>
                <polygon id="Fill-219" fill="#0B2146" points="471.574 147.156 477.053 147.156 477.053 145.787 471.574 145.787"></polygon>
                <polygon id="Fill-220" fill="#0B2146" points="463.903 147.156 469.382 147.156 469.382 145.787 463.903 145.787"></polygon>
                <polygon id="Fill-221" fill="#0B2146" points="456.232 147.156 461.711 147.156 461.711 145.787 456.232 145.787"></polygon>
                <polygon id="Fill-222" fill="#A4BBD6" points="463.903 144.417 469.382 144.417 469.382 143.047 463.903 143.047"></polygon>
                <polygon id="Fill-223" fill="#0B2146" points="456.232 144.417 461.711 144.417 461.711 143.047 456.232 143.047"></polygon>
                <polygon id="Fill-224" fill="#A4BBD6" points="471.574 149.896 477.053 149.896 477.053 148.526 471.574 148.526"></polygon>
                <polygon id="Fill-225" fill="#0B2146" points="471.574 152.636 477.053 152.636 477.053 151.266 471.574 151.266"></polygon>
                <polygon id="Fill-226" fill="#0B2146" points="463.903 152.636 469.382 152.636 469.382 151.266 463.903 151.266"></polygon>
                <polygon id="Fill-227" fill="#A4BBD6" points="456.232 152.636 461.711 152.636 461.711 151.266 456.232 151.266"></polygon>
                <polygon id="Fill-228" fill="#A4BBD6" points="463.903 149.896 469.382 149.896 469.382 148.526 463.903 148.526"></polygon>
                <polygon id="Fill-229" fill="#A4BBD6" points="456.232 149.896 461.711 149.896 461.711 148.526 456.232 148.526"></polygon>
                <path d="M186.8912,107.0468 L186.8912,107.0468 C185.3782,107.0468 184.1512,105.8198 184.1512,104.3068 C184.1512,102.7938 185.3782,101.5678 186.8912,101.5678 C188.4042,101.5678 189.6312,102.7938 189.6312,104.3068 C189.6312,105.8198 188.4042,107.0468 186.8912,107.0468" id="Fill-230" fill="#C8EAFB"></path>
                <path d="M194.5621,107.0468 L194.5621,107.0468 C193.0491,107.0468 191.8231,105.8198 191.8231,104.3068 C191.8231,102.7938 193.0491,101.5678 194.5621,101.5678 C196.0751,101.5678 197.3021,102.7938 197.3021,104.3068 C197.3021,105.8198 196.0751,107.0468 194.5621,107.0468" id="Fill-231" fill="#C8EAFB"></path>
                <path d="M202.2335,107.0468 L202.2335,107.0468 C200.7205,107.0468 199.4935,105.8198 199.4935,104.3068 C199.4935,102.7938 200.7205,101.5678 202.2335,101.5678 C203.7465,101.5678 204.9735,102.7938 204.9735,104.3068 C204.9735,105.8198 203.7465,107.0468 202.2335,107.0468" id="Fill-232" fill="#C8EAFB"></path>
                <path d="M194.5621,99.3759 L194.5621,99.3759 C193.0491,99.3759 191.8231,98.1479 191.8231,96.6359 C191.8231,95.1229 193.0491,93.8969 194.5621,93.8969 C196.0751,93.8969 197.3021,95.1229 197.3021,96.6359 C197.3021,98.1479 196.0751,99.3759 194.5621,99.3759" id="Fill-233" fill="#C8EAFB"></path>
                <path d="M186.8912,99.3759 L186.8912,99.3759 C185.3782,99.3759 184.1512,98.1479 184.1512,96.6359 C184.1512,95.1229 185.3782,93.8969 186.8912,93.8969 C188.4042,93.8969 189.6312,95.1229 189.6312,96.6359 C189.6312,98.1479 188.4042,99.3759 186.8912,99.3759" id="Fill-234" fill="#C8EAFB"></path>
                <path d="M194.5621,91.625 L194.5621,91.625 C193.0491,91.625 191.8231,90.398 191.8231,88.885 C191.8231,87.372 193.0491,86.146 194.5621,86.146 C196.0751,86.146 197.3021,87.372 197.3021,88.885 C197.3021,90.398 196.0751,91.625 194.5621,91.625" id="Fill-235" fill="#C8EAFB"></path>
                <path d="M186.8912,91.625 L186.8912,91.625 C185.3782,91.625 184.1512,90.398 184.1512,88.885 C184.1512,87.372 185.3782,86.146 186.8912,86.146 C188.4042,86.146 189.6312,87.372 189.6312,88.885 C189.6312,90.398 188.4042,91.625 186.8912,91.625" id="Fill-236" fill="#C8EAFB"></path>
                <path d="M202.2335,99.3759 L202.2335,99.3759 C200.7205,99.3759 199.4935,98.1479 199.4935,96.6359 C199.4935,95.1229 200.7205,93.8969 202.2335,93.8969 C203.7465,93.8969 204.9735,95.1229 204.9735,96.6359 C204.9735,98.1479 203.7465,99.3759 202.2335,99.3759" id="Fill-237" fill="#C8EAFB"></path>
                <path d="M202.2335,91.625 L202.2335,91.625 C200.7205,91.625 199.4935,90.398 199.4935,88.885 C199.4935,87.372 200.7205,86.146 202.2335,86.146 C203.7465,86.146 204.9735,87.372 204.9735,88.885 C204.9735,90.398 203.7465,91.625 202.2335,91.625" id="Fill-238" fill="#C8EAFB"></path>
                <path d="M186.8912,83.874 L186.8912,83.874 C185.3782,83.874 184.1512,82.647 184.1512,81.135 C184.1512,79.621 185.3782,78.395 186.8912,78.395 C188.4042,78.395 189.6312,79.621 189.6312,81.135 C189.6312,82.647 188.4042,83.874 186.8912,83.874" id="Fill-239" fill="#C8EAFB"></path>
                <path d="M194.5621,83.874 L194.5621,83.874 C193.0491,83.874 191.8231,82.647 191.8231,81.135 C191.8231,79.621 193.0491,78.395 194.5621,78.395 C196.0751,78.395 197.3021,79.621 197.3021,81.135 C197.3021,82.647 196.0751,83.874 194.5621,83.874" id="Fill-240" fill="#C8EAFB"></path>
                <path d="M202.2335,83.874 L202.2335,83.874 C200.7205,83.874 199.4935,82.647 199.4935,81.135 C199.4935,79.621 200.7205,78.395 202.2335,78.395 C203.7465,78.395 204.9735,79.621 204.9735,81.135 C204.9735,82.647 203.7465,83.874 202.2335,83.874" id="Fill-241" fill="#C8EAFB"></path>
                <path d="M194.5621,76.2031 L194.5621,76.2031 C193.0491,76.2031 191.8231,74.9761 191.8231,73.4641 C191.8231,71.9501 193.0491,70.7241 194.5621,70.7241 C196.0751,70.7241 197.3021,71.9501 197.3021,73.4641 C197.3021,74.9761 196.0751,76.2031 194.5621,76.2031" id="Fill-242" fill="#C8EAFB"></path>
                <path d="M202.2335,76.2031 L202.2335,76.2031 C200.7205,76.2031 199.4935,74.9761 199.4935,73.4641 C199.4935,71.9501 200.7205,70.7241 202.2335,70.7241 C203.7465,70.7241 204.9735,71.9501 204.9735,73.4641 C204.9735,74.9761 203.7465,76.2031 202.2335,76.2031" id="Fill-243" fill="#C8EAFB"></path>
                <path d="M194.5621,68.4521 L194.5621,68.4521 C193.0491,68.4521 191.8231,67.2251 191.8231,65.7131 C191.8231,64.1991 193.0491,62.9731 194.5621,62.9731 C196.0751,62.9731 197.3021,64.1991 197.3021,65.7131 C197.3021,67.2251 196.0751,68.4521 194.5621,68.4521" id="Fill-244" fill="#C8EAFB"></path>
                <path d="M202.2335,68.4521 L202.2335,68.4521 C200.7205,68.4521 199.4935,67.2251 199.4935,65.7131 C199.4935,64.1991 200.7205,62.9731 202.2335,62.9731 C203.7465,62.9731 204.9735,64.1991 204.9735,65.7131 C204.9735,67.2251 203.7465,68.4521 202.2335,68.4521" id="Fill-245" fill="#C8EAFB"></path>
                <path d="M194.5621,60.7021 L194.5621,60.7021 C193.0491,60.7021 191.8231,59.4751 191.8231,57.9621 C191.8231,56.4491 193.0491,55.2231 194.5621,55.2231 C196.0751,55.2231 197.3021,56.4491 197.3021,57.9621 C197.3021,59.4751 196.0751,60.7021 194.5621,60.7021" id="Fill-246" fill="#C8EAFB"></path>
                <path d="M202.2335,60.7021 L202.2335,60.7021 C200.7205,60.7021 199.4935,59.4751 199.4935,57.9621 C199.4935,56.4491 200.7205,55.2231 202.2335,55.2231 C203.7465,55.2231 204.9735,56.4491 204.9735,57.9621 C204.9735,59.4751 203.7465,60.7021 202.2335,60.7021" id="Fill-247" fill="#C8EAFB"></path>
                <path d="M202.2335,53.0302 L202.2335,53.0302 C200.7205,53.0302 199.4935,51.8032 199.4935,50.2912 C199.4935,48.7772 200.7205,47.5512 202.2335,47.5512 C203.7465,47.5512 204.9735,48.7772 204.9735,50.2912 C204.9735,51.8032 203.7465,53.0302 202.2335,53.0302" id="Fill-248" fill="#C8EAFB"></path>
                <path d="M186.8912,76.124 L186.8912,76.124 C185.3782,76.124 184.1512,74.897 184.1512,73.384 C184.1512,71.871 185.3782,70.645 186.8912,70.645 C188.4042,70.645 189.6312,71.871 189.6312,73.384 C189.6312,74.897 188.4042,76.124 186.8912,76.124" id="Fill-249" fill="#C8EAFB"></path>
                <path d="M186.8912,145.5566 L186.8912,145.5566 C185.3782,145.5566 184.1512,144.3296 184.1512,142.8166 C184.1512,141.3036 185.3782,140.0776 186.8912,140.0776 C188.4042,140.0776 189.6312,141.3036 189.6312,142.8166 C189.6312,144.3296 188.4042,145.5566 186.8912,145.5566" id="Fill-250" fill="#C8EAFB"></path>
                <path d="M194.5621,145.5566 L194.5621,145.5566 C193.0491,145.5566 191.8231,144.3296 191.8231,142.8166 C191.8231,141.3036 193.0491,140.0776 194.5621,140.0776 C196.0751,140.0776 197.3021,141.3036 197.3021,142.8166 C197.3021,144.3296 196.0751,145.5566 194.5621,145.5566" id="Fill-251" fill="#C8EAFB"></path>
                <path d="M202.2335,145.5566 L202.2335,145.5566 C200.7205,145.5566 199.4935,144.3296 199.4935,142.8166 C199.4935,141.3036 200.7205,140.0776 202.2335,140.0776 C203.7465,140.0776 204.9735,141.3036 204.9735,142.8166 C204.9735,144.3296 203.7465,145.5566 202.2335,145.5566" id="Fill-252" fill="#C8EAFB"></path>
                <path d="M194.5621,137.8847 L194.5621,137.8847 C193.0491,137.8847 191.8231,136.6577 191.8231,135.1457 C191.8231,133.6327 193.0491,132.4057 194.5621,132.4057 C196.0751,132.4057 197.3021,133.6327 197.3021,135.1457 C197.3021,136.6577 196.0751,137.8847 194.5621,137.8847" id="Fill-253" fill="#C8EAFB"></path>
                <path d="M186.8912,137.8847 L186.8912,137.8847 C185.3782,137.8847 184.1512,136.6577 184.1512,135.1457 C184.1512,133.6327 185.3782,132.4057 186.8912,132.4057 C188.4042,132.4057 189.6312,133.6327 189.6312,135.1457 C189.6312,136.6577 188.4042,137.8847 186.8912,137.8847" id="Fill-254" fill="#C8EAFB"></path>
                <path d="M194.5621,130.1347 L194.5621,130.1347 C193.0491,130.1347 191.8231,128.9077 191.8231,127.3947 C191.8231,125.8817 193.0491,124.6557 194.5621,124.6557 C196.0751,124.6557 197.3021,125.8817 197.3021,127.3947 C197.3021,128.9077 196.0751,130.1347 194.5621,130.1347" id="Fill-255" fill="#C8EAFB"></path>
                <path d="M186.8912,130.1347 L186.8912,130.1347 C185.3782,130.1347 184.1512,128.9077 184.1512,127.3947 C184.1512,125.8817 185.3782,124.6557 186.8912,124.6557 C188.4042,124.6557 189.6312,125.8817 189.6312,127.3947 C189.6312,128.9077 188.4042,130.1347 186.8912,130.1347" id="Fill-256" fill="#C8EAFB"></path>
                <path d="M202.2335,137.8847 L202.2335,137.8847 C200.7205,137.8847 199.4935,136.6577 199.4935,135.1457 C199.4935,133.6327 200.7205,132.4057 202.2335,132.4057 C203.7465,132.4057 204.9735,133.6327 204.9735,135.1457 C204.9735,136.6577 203.7465,137.8847 202.2335,137.8847" id="Fill-257" fill="#C8EAFB"></path>
                <path d="M202.2335,130.1347 L202.2335,130.1347 C200.7205,130.1347 199.4935,128.9077 199.4935,127.3947 C199.4935,125.8817 200.7205,124.6557 202.2335,124.6557 C203.7465,124.6557 204.9735,125.8817 204.9735,127.3947 C204.9735,128.9077 203.7465,130.1347 202.2335,130.1347" id="Fill-258" fill="#C8EAFB"></path>
                <path d="M186.8912,122.3838 L186.8912,122.3838 C185.3782,122.3838 184.1512,121.1568 184.1512,119.6448 C184.1512,118.1308 185.3782,116.9048 186.8912,116.9048 C188.4042,116.9048 189.6312,118.1308 189.6312,119.6448 C189.6312,121.1568 188.4042,122.3838 186.8912,122.3838" id="Fill-259" fill="#C8EAFB"></path>
                <path d="M194.5621,122.3838 L194.5621,122.3838 C193.0491,122.3838 191.8231,121.1568 191.8231,119.6448 C191.8231,118.1308 193.0491,116.9048 194.5621,116.9048 C196.0751,116.9048 197.3021,118.1308 197.3021,119.6448 C197.3021,121.1568 196.0751,122.3838 194.5621,122.3838" id="Fill-260" fill="#C8EAFB"></path>
                <path d="M202.2335,122.3838 L202.2335,122.3838 C200.7205,122.3838 199.4935,121.1568 199.4935,119.6448 C199.4935,118.1308 200.7205,116.9048 202.2335,116.9048 C203.7465,116.9048 204.9735,118.1308 204.9735,119.6448 C204.9735,121.1568 203.7465,122.3838 202.2335,122.3838" id="Fill-261" fill="#C8EAFB"></path>
                <path d="M194.5621,114.7129 L194.5621,114.7129 C193.0491,114.7129 191.8231,113.4859 191.8231,111.9729 C191.8231,110.4599 193.0491,109.2339 194.5621,109.2339 C196.0751,109.2339 197.3021,110.4599 197.3021,111.9729 C197.3021,113.4859 196.0751,114.7129 194.5621,114.7129" id="Fill-262" fill="#C8EAFB"></path>
                <path d="M202.2335,114.7129 L202.2335,114.7129 C200.7205,114.7129 199.4935,113.4859 199.4935,111.9729 C199.4935,110.4599 200.7205,109.2339 202.2335,109.2339 C203.7465,109.2339 204.9735,110.4599 204.9735,111.9729 C204.9735,113.4859 203.7465,114.7129 202.2335,114.7129" id="Fill-263" fill="#C8EAFB"></path>
                <path d="M186.8912,114.6338 L186.8912,114.6338 C185.3782,114.6338 184.1512,113.4068 184.1512,111.8938 C184.1512,110.3808 185.3782,109.1548 186.8912,109.1548 C188.4042,109.1548 189.6312,110.3808 189.6312,111.8938 C189.6312,113.4068 188.4042,114.6338 186.8912,114.6338" id="Fill-264" fill="#C8EAFB"></path>
                <polygon id="Fill-265" fill="#0B2146" points="167.1998 69.2236 167.1998 161.4846 177.6728 162.3186 177.6728 79.6876"></polygon>
                <polygon id="Fill-266" fill="#E3EAED" points="128.487 166.729 153.679 166.729 153.679 100.897 128.487 100.897"></polygon>
                <polygon id="Fill-267" fill="#0B2146" points="142.172 151.308 147.651 151.308 147.651 145.829 142.172 145.829"></polygon>
                <polygon id="Fill-268" fill="#0B2146" points="142.172 143.637 147.651 143.637 147.651 138.158 142.172 138.158"></polygon>
                <polygon id="Fill-269" fill="#0B2146" points="142.172 135.966 147.651 135.966 147.651 130.487 142.172 130.487"></polygon>
                <polygon id="Fill-270" fill="#0B2146" points="142.172 128.294 147.651 128.294 147.651 122.815 142.172 122.815"></polygon>
                <polygon id="Fill-271" fill="#0B2146" points="134.502 151.308 139.981 151.308 139.981 145.829 134.502 145.829"></polygon>
                <polygon id="Fill-272" fill="#0B2146" points="142.172 158.979 147.651 158.979 147.651 153.5 142.172 153.5"></polygon>
                <polygon id="Fill-273" fill="#0B2146" points="134.502 158.979 139.981 158.979 139.981 153.5 134.502 153.5"></polygon>
                <polygon id="Fill-274" fill="#0B2146" points="142.172 120.623 147.651 120.623 147.651 115.144 142.172 115.144"></polygon>
                <polygon id="Fill-275" fill="#0B2146" points="134.502 120.623 139.981 120.623 139.981 115.144 134.502 115.144"></polygon>
                <polygon id="Fill-276" fill="#0B2146" points="142.172 112.952 147.651 112.952 147.651 107.473 142.172 107.473"></polygon>
                <polygon id="Fill-277" fill="#E3EAED" points="142.172 103.637 147.651 103.637 147.651 98.158 142.172 98.158"></polygon>
                <polygon id="Fill-278" fill="#0B2146" points="134.502 112.952 139.981 112.952 139.981 107.473 134.502 107.473"></polygon>
                <polygon id="Fill-279" fill="#0B2146" points="134.502 143.637 139.981 143.637 139.981 138.158 134.502 138.158"></polygon>
                <polygon id="Fill-280" fill="#0B2146" points="134.502 135.966 139.981 135.966 139.981 130.487 134.502 130.487"></polygon>
                <polygon id="Fill-281" fill="#0B2146" points="134.502 128.294 139.981 128.294 139.981 122.815 134.502 122.815"></polygon>
                <polygon id="Fill-282" fill="#A4BBD6" points="491.115 158.476 516.308 158.476 516.308 75.786 491.115 75.786"></polygon>
                <polygon id="Fill-283" fill="#CDE1EC" points="504.802 143.054 510.281 143.054 510.281 137.575 504.802 137.575"></polygon>
                <polygon id="Fill-284" fill="#CDE1EC" points="504.802 135.382 510.281 135.382 510.281 129.903 504.802 129.903"></polygon>
                <polygon id="Fill-285" fill="#CDE1EC" points="504.802 127.711 510.281 127.711 510.281 122.232 504.802 122.232"></polygon>
                <polygon id="Fill-286" fill="#CDE1EC" points="504.802 120.04 510.281 120.04 510.281 114.561 504.802 114.561"></polygon>
                <polygon id="Fill-287" fill="#CDE1EC" points="497.13 143.054 502.609 143.054 502.609 137.575 497.13 137.575"></polygon>
                <polygon id="Fill-288" fill="#CDE1EC" points="504.802 150.725 510.281 150.725 510.281 145.246 504.802 145.246"></polygon>
                <polygon id="Fill-289" fill="#CDE1EC" points="497.13 150.725 502.609 150.725 502.609 145.246 497.13 145.246"></polygon>
                <polygon id="Fill-290" fill="#CDE1EC" points="504.802 112.368 510.281 112.368 510.281 106.889 504.802 106.889"></polygon>
                <polygon id="Fill-291" fill="#CDE1EC" points="497.13 112.368 502.609 112.368 502.609 106.889 497.13 106.889"></polygon>
                <polygon id="Fill-292" fill="#CDE1EC" points="504.802 104.697 510.281 104.697 510.281 99.218 504.802 99.218"></polygon>
                <polygon id="Fill-293" fill="#CDE1EC" points="497.13 104.697 502.609 104.697 502.609 99.218 497.13 99.218"></polygon>
                <polygon id="Fill-294" fill="#CDE1EC" points="497.13 135.382 502.609 135.382 502.609 129.903 497.13 129.903"></polygon>
                <polygon id="Fill-295" fill="#CDE1EC" points="497.13 127.711 502.609 127.711 502.609 122.232 497.13 122.232"></polygon>
                <polygon id="Fill-296" fill="#CDE1EC" points="497.13 120.04 502.609 120.04 502.609 114.561 497.13 114.561"></polygon>
                <polygon id="Fill-297" fill="#CDE1EC" points="504.802 97.026 510.281 97.026 510.281 91.547 504.802 91.547"></polygon>
                <polygon id="Fill-298" fill="#CDE1EC" points="497.13 97.026 502.609 97.026 502.609 91.547 497.13 91.547"></polygon>
                <polygon id="Fill-299" fill="#CDE1EC" points="504.802 89.354 510.281 89.354 510.281 83.875 504.802 83.875"></polygon>
                <polygon id="Fill-300" fill="#CDE1EC" points="497.13 89.354 502.609 89.354 502.609 83.875 497.13 83.875"></polygon>
                <polygon id="Fill-301" fill="#0B2146" points="153.6788 100.9121 153.6788 166.1871 163.3088 166.1871 163.3088 110.5421"></polygon>
                <path d="M0.3639,174.4052 L94.1299,174.3622 C105.4929,174.0992 113.9639,169.5682 121.0779,164.4512 C104.6699,153.6002 91.8289,137.7642 75.5009,137.7642 C54.3879,137.7642 37.0009,174.4052 0.3639,174.4052" id="Fill-302" fill="#E3EAED"></path>
                <path d="M52.6236,174.4052 L110.2116,174.3792 C117.1906,174.2182 122.3936,171.4342 126.7626,168.2922 C116.6856,161.6282 108.7986,151.9022 98.7706,151.9022 C85.8036,151.9022 75.1246,174.4052 52.6236,174.4052" id="Fill-303" fill="#A4BBD6"></path>
                <polygon id="Fill-304" fill="#0B2146" points="66.9352 150.583 61.2872 167.409 72.5832 167.409"></polygon>
                <path d="M66.9352,165.4453 L69.7162,163.3583" id="Stroke-305" stroke="#C57153" stroke-linecap="round"></path>
                <path d="M66.9352,161.1465 L68.7232,159.8045" id="Stroke-306" stroke="#C57153" stroke-linecap="round"></path>
                <path d="M66.9352,165.4453 L64.3702,163.5753" id="Stroke-307" stroke="#C57153" stroke-linecap="round"></path>
                <path d="M66.9352,161.1465 L65.4952,160.1535" id="Stroke-308" stroke="#C57153" stroke-linecap="round"></path>
                <path d="M66.9352,156.4843 L66.9352,174.4053" id="Stroke-309" stroke="#C57153" stroke-linecap="round"></path>
                <path d="M96.0006,158.5049 L96.0006,166.7259" id="Stroke-310" stroke="#C57153" stroke-linecap="round" stroke-linejoin="round"></path>
                <polygon id="Fill-311" fill="#0B2146" points="96.0006 148.8047 89.6926 159.7307 102.3086 158.9357"></polygon>
                <polygon id="Fill-312" fill="#A4BBD6" points="471.574 67.711 477.053 67.711 477.053 66.341 471.574 66.341"></polygon>
                <polygon id="Fill-313" fill="#A4BBD6" points="471.574 70.45 477.053 70.45 477.053 69.081 471.574 69.081"></polygon>
                <polygon id="Fill-314" fill="#A4BBD6" points="463.903 70.45 469.382 70.45 469.382 69.081 463.903 69.081"></polygon>
                <polygon id="Fill-315" fill="#A4BBD6" points="456.232 70.45 461.711 70.45 461.711 69.081 456.232 69.081"></polygon>
                <polygon id="Fill-316" fill="#A4BBD6" points="463.903 67.711 469.382 67.711 469.382 66.341 463.903 66.341"></polygon>
                <polygon id="Fill-317" fill="#A4BBD6" points="456.232 67.711 461.711 67.711 461.711 66.341 456.232 66.341"></polygon>
                <polygon id="Fill-318" fill="#A4BBD6" points="471.574 73.19 477.053 73.19 477.053 71.82 471.574 71.82"></polygon>
                <polygon id="Fill-319" fill="#A4BBD6" points="471.574 75.93 477.053 75.93 477.053 74.56 471.574 74.56"></polygon>
                <polygon id="Fill-320" fill="#A4BBD6" points="463.903 75.93 469.382 75.93 469.382 74.56 463.903 74.56"></polygon>
                <polygon id="Fill-321" fill="#0B2146" points="456.232 75.93 461.711 75.93 461.711 74.56 456.232 74.56"></polygon>
                <polygon id="Fill-322" fill="#0B2146" points="463.903 73.19 469.382 73.19 469.382 71.82 463.903 71.82"></polygon>
                <polygon id="Fill-323" fill="#A4BBD6" points="456.232 73.19 461.711 73.19 461.711 71.82 456.232 71.82"></polygon>
                <polygon id="Fill-324" fill="#A4BBD6" points="471.574 78.669 477.053 78.669 477.053 77.299 471.574 77.299"></polygon>
                <polygon id="Fill-325" fill="#A4BBD6" points="471.574 81.408 477.053 81.408 477.053 80.039 471.574 80.039"></polygon>
                <polygon id="Fill-326" fill="#0B2146" points="463.903 81.408 469.382 81.408 469.382 80.039 463.903 80.039"></polygon>
                <polygon id="Fill-327" fill="#A4BBD6" points="456.232 81.408 461.711 81.408 461.711 80.039 456.232 80.039"></polygon>
                <polygon id="Fill-328" fill="#0B2146" points="463.903 78.669 469.382 78.669 469.382 77.299 463.903 77.299"></polygon>
                <polygon id="Fill-329" fill="#A4BBD6" points="456.232 78.669 461.711 78.669 461.711 77.299 456.232 77.299"></polygon>
                <polygon id="Fill-330" fill="#A4BBD6" points="471.574 84.148 477.053 84.148 477.053 82.778 471.574 82.778"></polygon>
                <polygon id="Fill-331" fill="#0B2146" points="471.574 86.888 477.053 86.888 477.053 85.518 471.574 85.518"></polygon>
                <polygon id="Fill-332" fill="#A4BBD6" points="463.903 86.888 469.382 86.888 469.382 85.518 463.903 85.518"></polygon>
                <polygon id="Fill-333" fill="#A4BBD6" points="456.232 86.888 461.711 86.888 461.711 85.518 456.232 85.518"></polygon>
                <polygon id="Fill-334" fill="#A4BBD6" points="463.903 84.148 469.382 84.148 469.382 82.778 463.903 82.778"></polygon>
                <polygon id="Fill-335" fill="#A4BBD6" points="456.232 84.148 461.711 84.148 461.711 82.778 456.232 82.778"></polygon>
                <polygon id="Fill-336" fill="#A4BBD6" points="471.574 67.711 477.053 67.711 477.053 66.341 471.574 66.341"></polygon>
                <polygon id="Fill-337" fill="#A4BBD6" points="471.574 70.45 477.053 70.45 477.053 69.081 471.574 69.081"></polygon>
                <polygon id="Fill-338" fill="#A4BBD6" points="463.903 70.45 469.382 70.45 469.382 69.081 463.903 69.081"></polygon>
                <polygon id="Fill-339" fill="#A4BBD6" points="456.232 70.45 461.711 70.45 461.711 69.081 456.232 69.081"></polygon>
                <polygon id="Fill-340" fill="#A4BBD6" points="463.903 67.711 469.382 67.711 469.382 66.341 463.903 66.341"></polygon>
                <polygon id="Fill-341" fill="#A4BBD6" points="456.232 67.711 461.711 67.711 461.711 66.341 456.232 66.341"></polygon>
                <polygon id="Fill-342" fill="#A4BBD6" points="471.574 73.19 477.053 73.19 477.053 71.82 471.574 71.82"></polygon>
                <polygon id="Fill-343" fill="#A4BBD6" points="471.574 75.93 477.053 75.93 477.053 74.56 471.574 74.56"></polygon>
                <polygon id="Fill-344" fill="#A4BBD6" points="463.903 75.93 469.382 75.93 469.382 74.56 463.903 74.56"></polygon>
                <polygon id="Fill-345" fill="#0B2146" points="456.232 75.93 461.711 75.93 461.711 74.56 456.232 74.56"></polygon>
                <polygon id="Fill-346" fill="#0B2146" points="463.903 73.19 469.382 73.19 469.382 71.82 463.903 71.82"></polygon>
                <polygon id="Fill-347" fill="#A4BBD6" points="456.232 73.19 461.711 73.19 461.711 71.82 456.232 71.82"></polygon>
                <polygon id="Fill-348" fill="#A4BBD6" points="471.574 78.669 477.053 78.669 477.053 77.299 471.574 77.299"></polygon>
                <polygon id="Fill-349" fill="#A4BBD6" points="471.574 81.408 477.053 81.408 477.053 80.039 471.574 80.039"></polygon>
                <polygon id="Fill-350" fill="#0B2146" points="463.903 81.408 469.382 81.408 469.382 80.039 463.903 80.039"></polygon>
                <polygon id="Fill-351" fill="#A4BBD6" points="456.232 81.408 461.711 81.408 461.711 80.039 456.232 80.039"></polygon>
                <polygon id="Fill-352" fill="#0B2146" points="463.903 78.669 469.382 78.669 469.382 77.299 463.903 77.299"></polygon>
                <polygon id="Fill-353" fill="#A4BBD6" points="456.232 78.669 461.711 78.669 461.711 77.299 456.232 77.299"></polygon>
                <polygon id="Fill-354" fill="#A4BBD6" points="471.574 84.148 477.053 84.148 477.053 82.778 471.574 82.778"></polygon>
                <polygon id="Fill-355" fill="#0B2146" points="471.574 86.888 477.053 86.888 477.053 85.518 471.574 85.518"></polygon>
                <polygon id="Fill-356" fill="#A4BBD6" points="463.903 86.888 469.382 86.888 469.382 85.518 463.903 85.518"></polygon>
                <polygon id="Fill-357" fill="#A4BBD6" points="456.232 86.888 461.711 86.888 461.711 85.518 456.232 85.518"></polygon>
                <polygon id="Fill-358" fill="#A4BBD6" points="463.903 84.148 469.382 84.148 469.382 82.778 463.903 82.778"></polygon>
                <polygon id="Fill-359" fill="#A4BBD6" points="456.232 84.148 461.711 84.148 461.711 82.778 456.232 82.778"></polygon>
                <polygon id="Fill-360" fill="#E3EAED" points="85.052 143.098 100.4 143.098 100.4 140.236 85.052 140.236"></polygon>
                <polygon id="Fill-361" fill="#E3EAED" points="54.358 143.098 69.705 143.098 69.705 140.236 54.358 140.236"></polygon>
                <polygon id="Fill-362" fill="#E3EAED" points="85.052 82.77 100.4 82.77 100.4 79.908 85.052 79.908"></polygon>
                <polygon id="Fill-363" fill="#E3EAED" points="54.358 82.77 69.705 82.77 69.705 79.908 54.358 79.908"></polygon>
                <polygon id="Fill-364" fill="#E3EAED" points="85.052 91.387 100.4 91.387 100.4 88.525 85.052 88.525"></polygon>
                <polygon id="Fill-365" fill="#E3EAED" points="54.358 91.387 69.705 91.387 69.705 88.525 54.358 88.525"></polygon>
                <polygon id="Fill-366" fill="#E3EAED" points="85.052 100.019 100.4 100.019 100.4 97.157 85.052 97.157"></polygon>
                <polygon id="Fill-367" fill="#E3EAED" points="54.358 100.019 69.705 100.019 69.705 97.157 54.358 97.157"></polygon>
                <polygon id="Fill-368" fill="#E3EAED" points="85.052 108.65 100.4 108.65 100.4 105.788 85.052 105.788"></polygon>
                <polygon id="Fill-369" fill="#E3EAED" points="54.358 108.65 69.705 108.65 69.705 105.788 54.358 105.788"></polygon>
                <polygon id="Fill-370" fill="#E3EAED" points="85.052 117.279 100.4 117.279 100.4 114.417 85.052 114.417"></polygon>
                <polygon id="Fill-371" fill="#E3EAED" points="54.358 117.279 69.705 117.279 69.705 114.417 54.358 114.417"></polygon>
                <polygon id="Fill-372" fill="#E3EAED" points="85.052 125.911 100.4 125.911 100.4 123.049 85.052 123.049"></polygon>
                <polygon id="Fill-373" fill="#E3EAED" points="54.358 125.911 69.705 125.911 69.705 123.049 54.358 123.049"></polygon>
                <polygon id="Fill-374" fill="#E3EAED" points="85.052 134.528 100.4 134.528 100.4 131.666 85.052 131.666"></polygon>
                <polygon id="Fill-375" fill="#E3EAED" points="54.358 134.528 69.705 134.528 69.705 131.666 54.358 131.666"></polygon>
            </g>
            <polygon id="Fill-377" fill="#0B2146" points="217.7169 290.2314 217.7169 297.7104 148.2169 297.7104 152.2969 293.6304 154.8669 291.0714 154.8669 291.0614 155.6969 290.2314"></polygon>
            <polyline id="Stroke-378" stroke="#BEE0F1" stroke-width="0.412" points="194.4469 274.1708 194.3869 274.1208 194.3369 274.1708"></polyline>
            <path d="M161.6568,278.8808 L161.5568,278.7008" id="Stroke-379" stroke="#BEE0F1" stroke-width="0.412"></path>
            <path d="M194.4068,274.2206 L194.3868,274.1206" id="Stroke-380" stroke="#BEE0F1" stroke-width="0.412"></path>
            <g id="Group-443" transform="translate(111.000000, 248.789000)">
                <path d="M139.8273,21.582 C139.8173,21.582 139.8173,21.582 139.8063,21.592 L139.8173,21.562 C139.8273,21.562 139.8373,21.572 139.8273,21.582" id="Fill-381" fill="#C8EAFB"></path>
                <path d="M121.4869,0.9726 L117.9069,12.6526 L115.6069,20.1426 L110.1269,38.0116 L109.6069,38.5326 L106.7169,41.4426 L102.6369,41.4426 L95.7469,35.6716 L83.4469,25.3816 C86.7869,15.2516 94.4969,7.1216 104.3669,3.2226 L104.3769,3.2226 C108.4369,1.6316 112.8669,0.7516 117.4969,0.7516 C118.8469,0.7516 120.1769,0.8226 121.4869,0.9726" id="Fill-383" fill="#FFFFFF"></path>
                <path d="M95.7472,35.6718 L93.2072,37.2328 L86.3872,41.4428 L83.4172,25.4828 C83.4172,25.4728 83.4172,25.4618 83.4272,25.4518 C83.4272,25.4318 83.4372,25.4018 83.4472,25.3818 L95.7472,35.6718 Z" id="Fill-385" fill="#A4BBD6"></path>
                <path d="M50.7872,30.332 L50.6572,30.092 C50.7372,30.143 50.8072,30.202 50.8772,30.262 C50.8472,30.282 50.8172,30.302 50.7872,30.332 Z" id="Stroke-387" stroke="#BEE0F1" stroke-width="0.231"></path>
                <path d="M86.3868,41.4424 L81.7968,39.5914 L80.6768,39.1524 L73.2068,36.1424 L76.7368,32.4024 L83.3368,25.3814 C83.3568,25.3924 83.3868,25.4124 83.4068,25.4314 L83.4168,25.4824 L86.3868,41.4424 Z" id="Fill-389" fill="#CDE1EC"></path>
                <path d="M83.4269,25.4521 C83.4169,25.4621 83.4169,25.4731 83.4169,25.4821 L83.4069,25.4311 C83.4069,25.4421 83.4169,25.4421 83.4269,25.4521 Z" id="Stroke-391" stroke="#BEE0F1" stroke-width="0.231"></path>
                <polygon id="Fill-393" fill="#CDE1EC" points="102.6368 41.4424 86.3868 41.4424 93.2068 37.2324 95.7468 35.6714"></polygon>
                <path d="M50.7872,30.332 L50.6572,30.092 C50.7372,30.143 50.8072,30.202 50.8772,30.262 C50.8472,30.282 50.8172,30.302 50.7872,30.332 Z" id="Stroke-395" stroke="#BEE0F1" stroke-width="0.231"></path>
                <path d="M139.8273,21.582 C139.8173,21.582 139.8173,21.582 139.8063,21.592 L139.8173,21.562 C139.8273,21.562 139.8373,21.572 139.8273,21.582" id="Fill-397" fill="#C8EAFB"></path>
                <polygon id="Fill-399" fill="#CDE1EC" points="86.3868 41.4424 68.2168 41.4424 73.2068 36.1424 80.6768 39.1524 81.7968 39.5914"></polygon>
                <path d="M50.7872,30.332 C47.3572,33.072 44.9072,36.982 44.0172,41.442 L40.0972,41.442 C38.4672,37.762 35.8672,34.612 32.6272,32.302 C30.3472,30.662 27.7472,29.452 24.9372,28.772 C28.3872,26.592 32.4772,25.332 36.8572,25.332 C37.6872,25.332 38.4972,25.372 39.2972,25.473 C43.5572,25.922 47.4572,27.582 50.6572,30.092 L50.7872,30.332 Z" id="Fill-401" fill="#FFFFFF"></path>
                <path d="M44.6969,41.4424 L43.8669,42.2724 C44.6069,37.4624 47.1469,33.2424 50.7869,30.3324 L56.9669,41.4424 L44.6969,41.4424 Z" id="Fill-403" fill="#A4BBD6"></path>
                <path d="M65.067,41.4424 L59.717,41.4424 L64.097,36.1224 C64.547,37.8524 64.877,39.6314 65.067,41.4424" id="Fill-405" fill="#A4BBD6"></path>
                <path d="M64.0968,36.122 L59.7168,41.442 L56.9668,41.442 L55.4868,38.782 L50.7868,30.332 C50.8168,30.302 50.8468,30.282 50.8768,30.262 C52.5868,28.902 54.5468,27.832 56.6768,27.132 C57.7168,26.782 58.8068,26.522 59.9168,26.362 C61.7668,29.352 63.1968,32.632 64.0968,36.122" id="Fill-407" fill="#FFFFFF"></path>
                <path d="M50.7872,30.332 L50.6572,30.092 C50.7372,30.143 50.8072,30.202 50.8772,30.262 C50.8472,30.282 50.8172,30.302 50.7872,30.332 Z" id="Stroke-409" stroke="#BEE0F1" stroke-width="0.145"></path>
                <path d="M158.9972,21.4316 L158.7272,21.8716 L152.9172,31.0916 L148.5572,38.0116 L144.4072,38.0116 C144.7072,36.7326 144.8572,35.3926 144.8572,34.0116 C144.8572,29.1816 142.9572,24.8016 139.8372,21.5816 C142.4472,20.0326 145.4572,19.0816 148.6872,18.9426 C148.9672,18.9316 149.2572,18.9216 149.5472,18.9216 C152.6472,18.9216 155.5772,19.6616 158.1572,20.9726 C158.4472,21.1126 158.7272,21.2616 158.9972,21.4316" id="Fill-411" fill="#FFFFFF"></path>
                <path d="M144.857,34.0117 C144.857,35.3927 144.707,36.7327 144.407,38.0117 L133.467,38.0117 L139.797,21.5917 L139.807,21.5917 C139.817,21.5817 139.817,21.5817 139.827,21.5817 L139.837,21.5817 C142.957,24.8017 144.857,29.1817 144.857,34.0117" id="Fill-413" fill="#A4BBD6"></path>
                <path d="M144.3126,9.9052 L143.5126,11.9552 L139.8126,21.5652 L139.8026,21.5952 L139.7926,21.5952 L135.6726,32.2852 L135.6526,32.3352 L133.4626,38.0142 L127.0326,38.0142 C127.0526,37.5452 127.0626,37.0652 127.0626,36.5852 C127.0626,36.2252 127.0526,35.8552 127.0426,35.4952 C127.0326,35.1342 127.0226,34.7752 126.9926,34.4152 C126.9726,34.0752 126.9526,33.7452 126.9126,33.4052 C126.9226,33.3552 126.9126,33.3152 126.9026,33.2752 C126.8826,32.9452 126.8426,32.6152 126.8026,32.2852 C126.8026,32.2352 126.7926,32.1852 126.7826,32.1342 C126.7926,32.1252 126.7826,32.1252 126.7826,32.1252 C126.7426,31.8252 126.7026,31.5352 126.6626,31.2452 C126.6026,30.7752 126.5226,30.3152 126.4226,29.8552 C126.3526,29.4652 126.2826,29.0852 126.1926,28.7052 C126.1026,28.2852 125.9926,27.8652 125.8826,27.4452 C125.7726,27.0252 125.6626,26.6052 125.5326,26.1852 C125.4126,25.7852 125.2826,25.3842 125.1426,24.9852 C125.0226,24.6152 124.8926,24.2552 124.7426,23.8952 C124.6726,23.6752 124.5826,23.4452 124.4826,23.2252 C124.3726,22.9352 124.2526,22.6452 124.1226,22.3552 C123.6326,21.2152 123.0726,20.0952 122.4626,19.0252 C122.2926,18.7052 122.1126,18.4052 121.9226,18.0952 C121.7026,17.7352 121.4826,17.3752 121.2526,17.0252 C120.2526,15.4852 119.1326,14.0252 117.9026,12.6552 C120.5926,10.9052 123.5826,9.5852 126.7826,8.8042 C127.9226,8.5142 129.0826,8.3042 130.2626,8.1652 C131.4226,8.0142 132.6026,7.9452 133.8026,7.9452 C135.8726,7.9452 137.8826,8.1552 139.8326,8.5752 C140.2926,8.6752 140.7526,8.7752 141.2026,8.8952 C142.2626,9.1652 143.3026,9.5052 144.3126,9.9052" id="Fill-415" fill="#FFFFFF"></path>
                <path d="M139.8273,21.582 C139.8173,21.582 139.8173,21.582 139.8063,21.592 L139.8173,21.562 C139.8273,21.562 139.8373,21.572 139.8273,21.582" id="Fill-417" fill="#C8EAFB"></path>
                <path d="M127.067,36.582 C127.067,37.062 127.057,37.542 127.037,38.012 L110.127,38.012 L115.607,20.143 L117.907,12.652 C119.137,14.022 120.257,15.482 121.257,17.022 C124.937,22.643 127.067,29.362 127.067,36.582" id="Fill-419" fill="#A4BBD6"></path>
                <path d="M121.4869,0.9716 L117.9069,12.6526" id="Stroke-421" stroke="#BEE0F1" stroke-width="0.231"></path>
                <polygon id="Fill-423" fill="#CDE1EC" points="110.8448 35.6718 114.3038 35.6718 117.6918 32.2828 126.8458 32.2828 133.0208 38.4578 135.6758 32.2828 142.3878 32.2828 144.4808 37.6648 148.5568 37.6648 152.1658 32.2828 160.2208 32.2828 157.3868 38.0118 110.1268 38.0118"></polygon>
                <polygon id="Fill-425" fill="#0B2146" points="157.3868 38.0117 157.3868 48.9217 106.7168 48.9217 106.7168 41.4427 109.6068 38.5327 110.1268 38.0117"></polygon>
                <polygon id="Fill-427" fill="#A4BBD6" points="142.3883 48.9218 163.7213 48.9218 163.7213 40.2748"></polygon>
                <path d="M73.1368,48.9218 L69.1368,48.9218 C69.1368,47.8218 70.0368,46.9218 71.1368,46.9218 C72.2368,46.9218 73.1368,47.8218 73.1368,48.9218" id="Fill-429" fill="#A4BBD6"></path>
                <path d="M79.2872,48.9218 L75.2872,48.9218 C75.2872,47.8218 76.1772,46.9218 77.2872,46.9218 C78.3872,46.9218 79.2872,47.8218 79.2872,48.9218" id="Fill-431" fill="#A4BBD6"></path>
                <path d="M85.4371,48.9218 L81.4371,48.9218 C81.4371,47.8218 82.3271,46.9218 83.4371,46.9218 C84.5371,46.9218 85.4371,47.8218 85.4371,48.9218" id="Fill-433" fill="#A4BBD6"></path>
                <path d="M91.587,48.9218 L87.587,48.9218 C87.587,47.8218 88.477,46.9218 89.587,46.9218 C90.687,46.9218 91.587,47.8218 91.587,48.9218" id="Fill-435" fill="#A4BBD6"></path>
                <path d="M66.6368,41.4424 L66.6368,48.9214" id="Stroke-437" stroke="#BEE0F1"></path>
                <path d="M83.337,25.3818 L76.737,32.4028 L73.207,36.1428 L68.217,41.4428 L65.067,41.4428 C64.497,35.9518 62.687,30.8318 59.917,26.3618 C59.297,25.3528 58.627,24.3818 57.897,23.4428 L57.897,23.4318 C56.607,21.7328 55.157,20.1618 53.587,18.7118 C55.877,18.2018 58.257,17.9118 60.687,17.8718 C60.917,17.8618 61.147,17.8618 61.377,17.8618 C69.647,17.8618 77.277,20.6718 83.337,25.3818" id="Fill-439" fill="#FFFFFF"></path>
                <polygon id="Fill-441" fill="#E3EAED" points="178.2023 48.9248 178.2023 56.4048 0.7523 56.4048 8.2323 48.9248"></polygon>
            </g>
            <g id="Group-496" transform="translate(506.000000, 244.000000)">
                <path d="M9.9591,41.7353 C9.9591,40.5953 10.8791,39.6703 12.0241,39.6703 C12.3631,39.6703 12.6841,39.7533 12.9621,39.8953 C13.6331,40.2403 14.0901,40.9343 14.0901,41.7353 C14.0901,42.8753 13.1641,43.8003 12.0241,43.8003 C10.8791,43.8003 9.9591,42.8753 9.9591,41.7353 M0.3741,41.7353 C0.3741,48.0083 5.4601,53.0893 11.7281,53.0893 C18.0011,53.0893 23.0821,48.0083 23.0821,41.7353 C23.0821,37.4213 20.6781,33.6693 17.1291,31.7463 C15.5211,30.8743 13.6811,30.3813 11.7281,30.3813 C5.4601,30.3813 0.3741,35.4673 0.3741,41.7353" id="Fill-444" fill="#212121"></path>
                <path d="M9.9591,41.7353 C9.9591,42.8753 10.8791,43.8003 12.0241,43.8003 C13.1641,43.8003 14.0901,42.8753 14.0901,41.7353 C14.0901,40.9343 13.6331,40.2403 12.9621,39.8953 C12.6841,39.7533 12.3631,39.6703 12.0241,39.6703 C10.8791,39.6703 9.9591,40.5953 9.9591,41.7353" id="Fill-446" fill="#F57153"></path>
                <path d="M9.9591,41.7353 C9.9591,42.8753 10.8791,43.8003 12.0241,43.8003 C13.1641,43.8003 14.0901,42.8753 14.0901,41.7353 C14.0901,40.9343 13.6331,40.2403 12.9621,39.8953 C12.6841,39.7533 12.3631,39.6703 12.0241,39.6703 C10.8791,39.6703 9.9591,40.5953 9.9591,41.7353" id="Fill-448" fill="#F57153"></path>
                <path d="M17.6246,41.8838 C17.6246,45.0188 15.0826,47.5608 11.9486,47.5608 C8.8126,47.5608 6.2716,45.0188 6.2716,41.8838 C6.2716,38.7488 8.8126,36.2068 11.9486,36.2068 C15.0826,36.2068 17.6246,38.7488 17.6246,41.8838" id="Fill-450" fill="#FFFFFF"></path>
                <path d="M11.1046,47.5019 C11.3836,47.5369 11.6626,47.5609 11.9476,47.5609 C15.0816,47.5609 17.6276,45.0209 17.6276,41.8869 C17.6276,38.7469 15.0816,36.2069 11.9476,36.2069 C11.6626,36.2069 11.3836,36.2309 11.1046,36.2669 C13.8406,36.6699 15.9416,39.0319 15.9416,41.8869 C15.9416,44.7349 13.8406,47.0979 11.1046,47.5019" id="Fill-452" fill="#BDBDBD"></path>
                <path d="M14.0909,41.8838 C14.0909,43.0258 13.1659,43.9508 12.0239,43.9508 C10.8819,43.9508 9.9569,43.0258 9.9569,41.8838 C9.9569,40.7418 10.8819,39.8168 12.0239,39.8168 C13.1659,39.8168 14.0909,40.7418 14.0909,41.8838" id="Fill-454" fill="#212121"></path>
                <polyline id="Stroke-456" stroke="#212121" stroke-width="2" stroke-linecap="round" stroke-linejoin="round" points="12.024 41.8838 29.673 0.6238 35.65 0.6238"></polyline>
                <path d="M11.109,24.9902 L18.926,25.9222 L28.446,38.5992 C30.037,40.6712 32.506,41.8822 35.117,41.8822 L65.744,41.8822 L74.652,27.2692 L84.742,27.2692 L84.742,20.6032 L53.434,20.6032 L56.401,24.9672 C56.532,25.1562 56.538,25.4052 56.419,25.6072 L48.917,38.1252 L36.53,38.1252 C33.96,38.1252 31.55,36.8852 30.061,34.7952 L26.167,29.3352 C24.944,27.6252 24.452,25.5012 24.796,23.4282 L27.158,9.0482 C27.33,8.0092 26.042,7.3802 25.33,8.1572 L10.747,23.9992 C10.415,24.3542 10.628,24.9302 11.109,24.9902" id="Fill-458" fill="#FFFFFF"></path>
                <path d="M16.1066,7.0771 C16.1066,8.5081 16.6886,9.8071 17.6266,10.7451 L17.6266,3.4091 C16.6886,4.3471 16.1066,5.6401 16.1066,7.0771" id="Fill-460" fill="#FFD249"></path>
                <polygon id="Fill-462" fill="#BDBDBD" points="71.2877 23.7129 55.6587 23.7129 53.4357 20.7809 71.2877 20.7809"></polygon>
                <path d="M82.0231,19.4843 L79.6731,12.8253 C79.5431,12.4573 79.1771,12.2263 78.7901,12.2683 L50.7241,15.2823 C50.2961,15.3283 49.9731,15.6883 49.9731,16.1183 L49.9731,19.7643 C49.9731,20.2293 50.3491,20.6053 50.8141,20.6053 L81.2301,20.6053 C81.8101,20.6053 82.2161,20.0313 82.0231,19.4843" id="Fill-464" fill="#212121"></path>
                <path d="M29.4923,7.5302 L29.4983,7.5242" id="Fill-466" fill="#F57153"></path>
                <path d="M17.6261,2.3584 L17.6261,11.7964 C18.2791,12.0984 19.0031,12.2644 19.7741,12.2644 C20.0301,12.2644 20.2851,12.2474 20.5341,12.2114 C23.0331,11.8434 24.9561,9.6824 24.9561,7.0774 C24.9561,4.4714 23.0331,2.3114 20.5341,1.9434 C20.2851,1.9084 20.0301,1.8894 19.7741,1.8894 C19.0031,1.8894 18.2791,2.0554 17.6261,2.3584" id="Fill-468" fill="#FFFFFF"></path>
                <path d="M73.965,41.7353 C73.965,40.9043 74.457,40.1863 75.17,39.8603 C75.431,39.7353 75.721,39.6703 76.03,39.6703 C77.17,39.6703 78.096,40.5953 78.096,41.7353 C78.096,42.8753 77.17,43.8003 76.03,43.8003 C74.891,43.8003 73.965,42.8753 73.965,41.7353 M64.676,41.7353 C64.676,48.0083 69.757,53.0893 76.03,53.0893 C80.369,53.0893 84.144,50.6563 86.055,47.0713 C86.903,45.4803 87.384,43.6643 87.384,41.7353 C87.384,35.4673 82.298,30.3813 76.03,30.3813 C74.333,30.3813 72.73,30.7493 71.288,31.4203 C67.382,33.2123 64.676,37.1593 64.676,41.7353" id="Fill-470" fill="#212121"></path>
                <path d="M73.965,41.7353 C73.965,40.9043 74.457,40.1863 75.17,39.8603 C75.431,39.7353 75.721,39.6703 76.03,39.6703 C77.17,39.6703 78.096,40.5953 78.096,41.7353 C78.096,42.8753 77.17,43.8003 76.03,43.8003 C74.891,43.8003 73.965,42.8753 73.965,41.7353 Z M64.676,41.7353 C64.676,48.0083 69.757,53.0893 76.03,53.0893 C80.369,53.0893 84.144,50.6563 86.055,47.0713 C86.903,45.4803 87.384,43.6643 87.384,41.7353 C87.384,35.4673 82.298,30.3813 76.03,30.3813 C74.333,30.3813 72.73,30.7493 71.288,31.4203 C67.382,33.2123 64.676,37.1593 64.676,41.7353 Z" id="Stroke-472" stroke="#231F20" stroke-width="0.047" stroke-linecap="round" stroke-linejoin="round"></path>
                <path d="M73.965,41.7353 C73.965,42.8753 74.891,43.8003 76.03,43.8003 C77.17,43.8003 78.096,42.8753 78.096,41.7353 C78.096,40.5953 77.17,39.6703 76.03,39.6703 C75.721,39.6703 75.431,39.7353 75.17,39.8603 C74.457,40.1863 73.965,40.9043 73.965,41.7353" id="Fill-474" fill="#F57153"></path>
                <path d="M73.965,41.7353 C73.965,42.8753 74.891,43.8003 76.03,43.8003 C77.17,43.8003 78.096,42.8753 78.096,41.7353 C78.096,40.5953 77.17,39.6703 76.03,39.6703 C75.721,39.6703 75.431,39.7353 75.17,39.8603 C74.457,40.1863 73.965,40.9043 73.965,41.7353" id="Fill-476" fill="#F57153"></path>
                <polyline id="Fill-478" fill="#F57153" points="71.2877 31.4199 75.1697 39.8599 76.0297 41.7349"></polyline>
                <path d="M81.7062,41.8838 C81.7062,45.0188 79.1642,47.5608 76.0292,47.5608 C72.8942,47.5608 70.3522,45.0188 70.3522,41.8838 C70.3522,38.7488 72.8942,36.2068 76.0292,36.2068 C79.1642,36.2068 81.7062,38.7488 81.7062,41.8838" id="Fill-480" fill="#FFFFFF"></path>
                <path d="M75.1832,47.5019 C75.4622,47.5369 75.7412,47.5609 76.0262,47.5609 C79.1602,47.5609 81.7062,45.0209 81.7062,41.8869 C81.7062,38.7469 79.1602,36.2069 76.0262,36.2069 C75.7412,36.2069 75.4622,36.2309 75.1832,36.2669 C77.9192,36.6699 80.0202,39.0319 80.0202,41.8869 C80.0202,44.7349 77.9192,47.0979 75.1832,47.5019" id="Fill-482" fill="#BDBDBD"></path>
                <path d="M87.9547,24.8496 L94.3077,36.1916 C94.5017,36.6136 93.9687,36.9936 93.6337,36.6706 L81.2777,24.8496" id="Fill-484" fill="#212121"></path>
                <path d="M76.0294,41.8838 L69.1734,24.8498" id="Stroke-486" stroke="#212121" stroke-width="2" stroke-linecap="round" stroke-linejoin="round"></path>
                <path d="M78.0968,41.8838 C78.0968,43.0258 77.1708,43.9508 76.0298,43.9508 C74.8878,43.9508 73.9618,43.0258 73.9618,41.8838 C73.9618,40.7418 74.8878,39.8168 76.0298,39.8168 C77.1708,39.8168 78.0968,40.7418 78.0968,41.8838" id="Fill-488" fill="#212121"></path>
                <path d="M63.8214,29.0908 C63.8214,29.3518 63.8574,29.6188 63.9344,29.8858 L64.5154,31.9158 C64.9554,33.4418 66.5514,34.3248 68.0774,33.8808 L74.3214,32.0648 L96.6614,25.5528 C97.8904,25.1968 98.7334,24.0748 98.7334,22.7988 L98.7334,4.0908 C98.7334,2.5298 97.4864,1.2538 95.9314,1.2178 L70.9204,0.6248 C69.3114,0.5888 67.9824,1.8828 67.9824,3.4968 L67.9824,23.5698 C67.9824,24.8528 67.1334,25.9808 65.8994,26.3308 C64.6404,26.6928 63.8214,27.8378 63.8214,29.0908" id="Fill-490" fill="#F57153"></path>
                <path d="M83.358,23.1904 L82.682,22.3984 C79.261,18.3864 77.221,14.7654 77.221,12.7114 C77.221,9.3264 79.973,6.5734 83.358,6.5734 C86.742,6.5734 89.495,9.3264 89.495,12.7114 C89.495,14.7654 87.454,18.3864 84.033,22.3974 L83.358,23.1904 Z M83.358,5.6844 C79.478,5.6844 76.332,8.8304 76.332,12.7114 C76.332,16.5704 81.864,22.8614 83.111,24.2284 C83.243,24.3744 83.472,24.3744 83.605,24.2284 C84.851,22.8614 90.384,16.5704 90.384,12.7114 C90.384,8.8304 87.238,5.6844 83.358,5.6844 L83.358,5.6844 Z" id="Fill-492" fill="#FFFFFF"></path>
                <path d="M88.4449,13.7412 C87.9159,15.6622 86.1129,18.5592 83.5129,21.6382 C83.4319,21.7332 83.2839,21.7332 83.2029,21.6382 C82.8999,21.2792 82.6079,20.9232 82.3279,20.5702 C81.5489,19.5932 80.8609,18.6452 80.2769,17.7532 C80.1959,17.6292 80.2699,17.4642 80.4159,17.4432 C81.8669,17.2352 83.2659,16.5722 84.3829,15.4562 C85.4659,14.3742 86.8129,13.7192 88.2159,13.4902 C88.3609,13.4672 88.4839,13.5992 88.4449,13.7412" id="Fill-494" fill="#FFFFFF"></path>
            </g>
        </g>
    </g>
</svg>