<?xml version="1.0" encoding="utf-8"?>
<!-- Generator: Adobe Illustrator 23.1.1, SVG Export Plug-In . SVG Version: 6.00 Build 0)  -->
<svg version="1.1" id="Artwork" xmlns="http://www.w3.org/2000/svg" xmlns:xlink="http://www.w3.org/1999/xlink" x="0px" y="0px"
	 viewBox="0 0 3006 1162.6" style="enable-background:new 0 0 3006 1162.6;" xml:space="preserve">
<style type="text/css">
	.st0{fill:transparent;}
	.st1{fill:#8795A8;}
	.st2{fill:#0D4D78;}
	.st3{fill:#657B93;}
	.st4{fill:#3D5572;}
	.st5{fill:#1B2F52;}
	.st6{opacity:0.2;}
</style>
<rect x="-8.5" y="-10.6" class="st0" width="3028" height="1178.5"/>
<path class="st1" d="M1943.7,364h-7.8v108.8h-0.7v-2h-99.9v-17h99.9v-7.5h-99.9v-19h99.9v-7.5h-99.9v-18.3h99.9v-7.5h-99.9v-15.7
	h99.9v0v-7.5h-99.9V364h-7.8v106.8h-26.8V364h-7.8v6.9h-99.9V364h-7.8v108.8v555.7v2v0.8v2.5v10.4v0v116.9h7.8h99.9h7.8h26.8h7.8
	h100.6h7.1h0.7h0L1943.7,364L1943.7,364z M1692.9,378.4h99.9v15.7h-99.9V378.4z M1692.9,401.5h99.9v18.3h-99.9V401.5z M1692.9,427.3
	h99.9v19h-99.9V427.3z M1692.9,453.8h99.9v17h-99.9V453.8z"/>
<rect x="783.2" y="657.3" class="st1" width="144.1" height="506.9"/>
<polygon class="st1" points="360.9,753.4 254.9,753.4 254.9,739.3 247.4,739.3 247.4,753.4 229,753.4 229,759.4 218.1,759.4 
	218.1,1166.3 350,1166.3 350,1155 360.9,1155 "/>
<polygon class="st1" points="2780.8,1114 2780.8,1094.2 2760.9,1094.2 2760.9,704.4 2738.9,704.4 2738.9,642.6 2632.1,642.6 
	2632.1,704.4 2623.1,704.4 2623.1,1094.2 2591,1094.2 2591,1114 2583.1,1114 2583.1,1167.6 2792.6,1167.6 2792.6,1114 "/>
<polygon class="st2" points="2658.7,1115.2 2658.7,1097.8 2633.5,1097.8 2633.5,754.3 2605.6,754.3 2605.6,699.8 2470.3,699.8 
	2470.3,754.3 2467.5,754.3 2467.5,1097.8 2418.3,1097.8 2418.3,1115.2 2408.1,1115.2 2408.1,1162.4 2673.6,1162.4 2673.6,1115.2 "/>
<path class="st3" d="M2705.2,1154.5v-38.1h1.2v-2.1h-1.2v-4.5h1.2v-2.1h-5.5v-2.9v-0.5v-9.5v-0.5v-8.3v0v-0.5v-8.7v-0.5v-8.1l0,0
	v-0.5v-8.5v-0.5v-8.3v-0.5v-8.4v-0.5v-8.1v-0.5v0v-8.2v-2.6h0.7h0v-2.1h0h-2v-8.6v-2.6h0.8h0v-2.1h0h-1.9v-7.3v-0.6v-8.3v-0.5v-7.8
	v-0.5v-8.6v-0.5V964v-0.5v-8.7v-0.5v-7.2v-0.5v-8.5v-0.5v-8.3v-0.5v-8.4v-0.5v-8.1v-0.4v-0.1v-2.5h1.2v-2.1h-0.7v-1.7h-0.5v-0.2
	v-2.6v-0.2h1.2v-2.1h-1.2v-6.8v0v-1.1h0.8v0v-1.7h0.4v0v-1.7v-0.4v0v-1.7h-2.2v-5.7c0-1.1-0.3-2.1-0.8-3.1c-0.2-0.3-0.4-0.6-0.6-0.9
	c-0.4-0.6-0.8-1.2-1.4-1.7c-0.3-0.3-0.7-0.5-1.1-0.8c-0.6-0.4-1.2-0.7-1.9-1c-0.5-0.2-1-0.3-1.5-0.5c-0.4-0.1-0.7-0.3-1.1-0.3h0
	v-2.1h-121.8v2.1c-0.4,0.1-0.7,0.2-1.1,0.3c-0.6,0.1-1.1,0.3-1.6,0.5c-0.6,0.3-1.2,0.6-1.7,1c-0.4,0.3-0.9,0.5-1.2,0.8
	c-0.6,0.5-1,1-1.4,1.6c-0.2,0.3-0.5,0.6-0.7,0.9c-0.5,1-0.8,2-0.8,3.1v5.7h-2.2v1.7v0v0.4v1.7v0h0.4v1.7v0h0.8v1.1v6.8h-1.2v2.1h1.2
	v0.2v2.6v0.2h-0.5v1.7h-0.7v2.1h1.2v2.5v0.1v0.4v8.1v0.5v8.4v0.5v8.3v0.5v8.5v0.5v7.2v0.5v8.7v0.5v8.3v0.5v8.6v0.5v7.8v0.5v8.3v0.6
	v7.3h-1.9v2.1h0.8v2.6v8.6h-2v2.1h0.7v2.6v8.2v0v0.5v8.1v0.5v8.4v0.5v8.3v0.5v8.5v0.5l0,0v8.1v0.5v8.7v0.5v0v8.3v0.5v9.5v0.5v2.9
	h-5.5v2.1h1.2v4.5h-1.2v2.1h1.2v38.1h-1.4v16.8h157.1v-16.8H2705.2z"/>
<polygon class="st1" points="1765.9,1093.2 1643.1,1093.2 1643.1,1091.4 1643.1,1089.6 1643.1,1078.9 1643.1,1077.1 1643.1,1075.3 
	1643.1,1064.7 1643.1,1062.9 1643.1,1061.1 1643.1,1050.4 1643.1,1048.6 1643.1,1046.9 1643.1,1036.2 1643.1,1034.4 1643.1,1032.6 
	1643.1,1021.9 1643.1,1020.1 1643.1,1018.4 1643.1,1007.7 1643.1,1005.9 1643.1,1004.1 1643.1,993.4 1643.1,991.6 1643.1,989.8 
	1643.1,979.2 1643.1,977.4 1643.1,975.6 1643.1,964.9 1643.1,963.1 1643.1,961.3 1643.1,950.7 1643.1,948.9 1643.1,947.1 
	1643.1,936.4 1643.1,934.6 1643.1,932.9 1643.1,922.2 1643.1,920.4 1643.1,918.6 1643.1,907.9 1643.1,906.1 1643.1,904.4 
	1643.1,893.7 1643.1,891.9 1643.1,890.1 1643.1,879.4 1643.1,877.6 1643.1,875.9 1643.1,865.2 1643.1,863.4 1643.1,861.6 
	1643.1,850.9 1643.1,849.1 1643.1,847.4 1643.1,836.7 1643.1,834.9 1643.1,833.1 1643.1,822.4 1643.1,820.6 1643.1,818.9 
	1643.1,808.2 1643.1,806.4 1643.1,804.6 1643.1,793.9 1643.1,792.2 1643.1,790.4 1643.1,779.7 1643.1,777.9 1643.1,776.1 
	1643.1,765.4 1643.1,763.7 1643.1,761.9 1643.1,751.2 1643.1,749.4 1643.1,747.6 1643.1,736.9 1643.1,735.1 1643.1,733.4 
	1643.1,722.7 1643.1,720.9 1643.1,719.1 1643.1,708.4 1643.1,706.7 1643.1,704.9 1643.1,694.2 1643.1,692.4 1643.1,690.6 
	1643.1,679.9 1643.1,678.2 1643.1,676.4 1643.1,665.7 1643.1,663.9 1643.1,662.1 1643.1,651.4 1643.1,649.7 1643.1,647.9 
	1643.1,634.3 1643.1,612.2 1643.1,597.1 1643.1,595.8 1643,595.8 1634.3,595.8 1634.2,595.8 1626.3,595.8 1626.2,595.8 1622,595.8 
	1622,586.7 1621.9,586.7 1621.2,586.7 1621.1,586.7 1621.1,595.8 1618.3,595.8 1618.3,575.4 1618.2,575.4 1617.5,575.4 
	1617.4,575.4 1617.4,595.8 1608.9,595.8 1608.9,583.9 1608.1,583.9 1608.1,583.9 1608,583.9 1608,595.8 1599.8,595.8 1599.7,595.8 
	1595.9,595.8 1595.9,594.3 1595.9,594.3 1593.7,594.3 1593.7,592.7 1593.7,592.7 1591.1,592.7 1591.1,588.9 1591,588.9 
	1530.5,588.9 1530.4,588.9 1530.4,592.7 1527.9,592.7 1527.8,592.7 1527.8,594.3 1525.7,594.3 1525.6,594.3 1525.6,595.8 
	1521.9,595.8 1521.8,595.8 1501,595.8 1501,586.1 1500.2,586.1 1500.2,586.1 1500.1,586.1 1500.1,595.8 1495.4,595.8 1495.3,595.8 
	1487.3,595.8 1487.2,595.8 1478.5,595.8 1478.4,595.8 1478.4,597.1 1478.4,634.3 1478.4,647.9 1478.4,649.7 1478.4,651.4 
	1478.4,662.1 1478.4,663.9 1478.4,665.7 1478.4,676.4 1478.4,678.2 1478.4,679.9 1478.4,690.6 1478.4,692.4 1478.4,694.2 
	1478.4,704.9 1478.4,706.7 1478.4,708.4 1478.4,719.1 1478.4,720.9 1478.4,722.7 1478.4,733.4 1478.4,735.2 1478.4,736.9 
	1478.4,747.6 1478.4,749.4 1478.4,751.2 1478.4,761.9 1478.4,763.7 1478.4,765.4 1478.4,776.1 1478.4,777.9 1478.4,779.7 
	1478.4,790.4 1478.4,792.2 1478.4,793.9 1478.4,804.6 1478.4,806.4 1478.4,808.2 1478.4,818.9 1478.4,820.6 1478.4,822.4 
	1478.4,833.1 1478.4,834.9 1478.4,836.7 1478.4,847.4 1478.4,849.1 1478.4,850.9 1478.4,861.6 1478.4,863.4 1478.4,865.2 
	1478.4,875.9 1478.4,877.6 1478.4,879.4 1478.4,890.1 1478.4,891.9 1478.4,893.7 1478.4,904.4 1478.4,906.1 1478.4,907.9 
	1478.4,918.6 1478.4,920.4 1478.4,922.2 1478.4,932.9 1478.4,934.6 1478.4,936.4 1478.4,947.1 1478.4,948.9 1478.4,950.7 
	1478.4,961.3 1478.4,963.1 1478.4,964.9 1478.4,975.6 1478.4,977.4 1478.4,979.2 1478.4,989.8 1478.4,991.6 1478.4,993.4 
	1478.4,1004.1 1478.4,1005.9 1478.4,1007.7 1478.4,1018.4 1478.4,1020.1 1478.4,1021.9 1478.4,1032.6 1478.4,1034.4 1478.4,1036.2 
	1478.4,1046.9 1478.4,1048.6 1478.4,1050.4 1478.4,1061.1 1478.4,1062.9 1478.4,1064.7 1478.4,1075.3 1478.4,1077.1 1478.4,1078.9 
	1478.4,1089.6 1478.4,1091.4 1478.4,1093.2 1355.7,1093.2 1355.6,1093.2 1355.6,1162.6 1355.7,1162.6 1368,1162.6 1368.1,1162.6 
	1370.1,1162.6 1370.2,1162.6 1372.8,1162.6 1372.8,1162.6 1385.8,1162.6 1385.9,1162.6 1388.5,1162.6 1388.6,1162.6 1401.5,1162.6 
	1401.6,1162.6 1404.2,1162.6 1404.3,1162.6 1417.2,1162.6 1417.3,1162.6 1419.9,1162.6 1420,1162.6 1432.9,1162.6 1433,1162.6 
	1435.6,1162.6 1435.7,1162.6 1437.7,1162.6 1437.7,1162.6 1765.9,1162.6 1765.9,1162.6 1765.9,1093.2 "/>
<polygon class="st2" points="1505.2,999.9 1499,999.9 1499,757.8 1440.3,757.8 1440.3,701.7 1421.2,701.7 1421.2,698.8 
	1414.9,698.8 1414.9,679.1 1412.9,679.1 1412.9,698.8 1406.5,698.8 1406.5,701.7 1387.5,701.7 1387.5,757.8 1342.7,757.8 
	1342.7,1168 1505.2,1168 1499,1167 1505.2,1167 "/>
<polygon class="st1" points="2237.7,685.6 2221.7,685.6 2221.7,656.5 2206.4,656.5 2206.4,619.5 2191.9,619.5 2191.9,587.8 
	2178.5,587.8 2178.5,567.5 2161,567.5 2161,555.5 2126.2,529.6 2073.9,529.6 2039,555.5 2039,567.5 2021.5,567.5 2021.5,587.8 
	2008.1,587.8 2008.1,619.5 2008.1,656.5 2008.1,685.6 2008.1,999.4 1932.5,999.4 1932.5,1141.5 1939,1141.5 1939,1166.2 
	1944.8,1166.2 1944.8,1141.5 1969.5,1141.5 1969.5,1166.2 2232.4,1166.2 2232.4,1141.5 2237.7,1141.5 "/>
<path class="st2" d="M2404.2,1105.3v-7h-0.5v-4.2h-0.7v-1.3h-0.9v1.3h-0.7v4.2h-0.5v7h-1.3v-65.4h-0.6v-5.1h-0.2v-4.2h-0.4v-1.3
	h-0.5v1.3h-0.4v4.2h-0.2v5.1h-0.4v-66.6h-0.3v-5.2h-0.2v-4.2h-0.4v-1.3h0h-0.5v1.3h-0.4v4.2h-0.3v5.2h-0.3v-64.7h-0.5v-6.5h-0.2V898
	h-0.4v-1.3h-0.5l0,0v1.3h-0.4v4.2h-0.3v6.5h-0.4v-16.7V859v-22.2V831h-3v-16.2h-0.9V809h-1.3v-1.8h-1.6v1.8h-1.3v5.8h-0.9v2h-10.8
	V815h-41.5v1.8h-10.8v-2h-0.9V809h-1.3v-1.8h-1.6v1.8h-1.3v5.8h-0.9V831h-2.6v5.7V859v32.9v16.7h-2.5v19.8l-9.4-8.5v-9.3v0
	l-3.4-14.5v-4.6h-2v4.6l-3.4,14.5v0v1.3l-26.3-23.7v-18.6h15.4v-10h-15.4v-16.3h-9.5v16.3h-15.4v10h15.4v18.6l-26.7,24v-1.7v0
	l-3.4-14.5v-4.6h-2v4.6l-3.4,14.5v0v9.6l-5.4,4.8l-4.1,3.6v-20.1h-0.5v-6.5h-0.2V898h-0.4v-1.3h-0.5v1.3h-0.4v4.2h-0.2v6.5h-0.4
	v-16.7V859v-22.2V831h-3v-16.2h-0.9V809h-1.3v-1.8h-1.6v1.8h-1.3v5.8h-0.9v2h-10.8V815h-20.7h-20.7v1.8H2136v-2h-0.9V809h-1.3v-1.8
	h-1.6v1.8h-1.3v5.8h-0.9V831h-2.6v5.7V859v32.9v16.7h-2.5v64.7h-2.3v66.6h-2.6v65.4h-5.9v58.9h5.9h2.6h2.3h2.5h11.5h20h2h5.2h8.1h2
	h20.2h11.5h0.5h2h0.1h2.2h2.6h2.3h2.2h1.4h25.4h27.8h24.2h1.4h2.2h2.3h2.6h2.2h0.1h2h0.5h0.4h11.1h20h2h5.2h8.1h2h20.2h11.5h2.5h2.3
	h2.6h5.9v-58.9H2404.2z M2197.4,831h-1.5v0h-3.2v-3.9h4.7V831z M2143.8,827.1h3v3.9h-3V827.1z M2191.3,831h-3v-3.9h3V831z
	 M2137.7,827.1h4.7v3.9h-3.2v0h-1.5V827.1z M2381.8,831h-1.5v0h-3.2v-3.9h4.7V831z M2328.2,827.1h3v3.9h-3V827.1z M2375.7,831h-3
	v-3.9h3V831z M2322.1,827.1h4.7v3.9h-3.2v0h-1.5V827.1z"/>
<polygon class="st4" points="2444.8,497.5 2437.1,489.9 2432.4,489.9 2432.4,489.8 2432.4,477 2432.4,477 2432.4,473.1 
	2343.6,401.1 2343.6,364.8 2343.6,359.4 2344.4,359.4 2344.4,359.4 2344.4,353.9 2344.4,353.9 2340.6,353.9 2340.6,345.8 
	2340.6,336.9 2340.6,330 2340.6,321.1 2340.6,321.1 2340.6,313 2339.5,313 2339.5,310.4 2339.5,301.5 2339.5,294.5 2339.5,285.6 
	2339.5,282.4 2339.5,279.5 2340.6,279.5 2340.6,276.5 2339.5,276.5 2339.5,276.5 2337,276.5 2335.9,276.5 2335.9,279.5 2337,279.5 
	2337,282.4 2337,285.6 2337,294.5 2337,301.5 2337,310.4 2337,313 2335.9,313 2335.9,321.1 2335.9,321.1 2335.9,330 2335.9,336.9 
	2335.9,345.8 2335.9,353.9 2332.1,353.9 2332.1,359.4 2332.9,359.4 2332.9,364.8 2332.9,392.5 2297.6,363.9 2297.6,367.9 
	2297.6,367.9 2297.6,383.5 2297.6,383.5 2297.6,384.8 2297.6,436.6 2297.6,438 2297.6,438 2297.6,489.8 2297.6,491.2 2297.6,554.8 
	2297.6,556.1 2297.6,619.8 2297.6,621.1 2297.6,684.7 2297.6,686.1 2297.6,749.7 2297.6,751.1 2297.6,814.7 2297.6,816.1 
	2297.6,879.7 2297.6,881 2297.6,944.7 2297.6,946 2297.6,1009.6 2297.6,1011 2297.6,1074.6 2297.6,1074.6 2297.6,1076 
	2297.6,1139.6 2297.6,1140.9 2297.6,1162 2363.1,1162 2365.6,1162 2368.3,1162 2368.3,1162 2381,1162 2383.7,1162 2383.7,1162 
	2387.5,1162 2396.4,1162 2396.4,1162 2400.3,1162 2400.3,1162 2402.9,1162 2402.9,1162 2415.7,1162 2415.7,1162 2418.3,1162 
	2418.3,1162 2420.9,1162 2420.9,1162 2432.4,1162 2444.8,1162 2444.8,1162 2444.8,1155.5 2444.8,1153.1 2444.8,1143.7 
	2444.8,1141.3 2444.8,1131.8 2444.8,1129.5 2444.8,1120 2444.8,1117.7 2444.8,1108.2 2444.8,1105.9 2444.8,1096.4 2444.8,1094.1 
	2444.8,1084.6 2444.8,1082.3 2444.8,1072.8 2444.8,1070.4 2444.8,1061 2444.8,1058.6 2444.8,1049.1 2444.8,1046.8 2444.8,1037.3 
	2444.8,1035 2444.8,1025.5 2444.8,1023.2 2444.8,1013.7 2444.8,1011.4 2444.8,1001.9 2444.8,999.6 2444.8,990.1 2444.8,987.7 
	2444.8,978.3 2444.8,975.9 2444.8,966.4 2444.8,964.1 2444.8,954.6 2444.8,952.3 2444.8,942.8 2444.8,940.5 2444.8,931 
	2444.8,928.7 2444.8,919.2 2444.8,916.9 2444.8,907.4 2444.8,905 2444.8,895.6 2444.8,893.2 2444.8,883.7 2444.8,881.4 
	2444.8,871.9 2444.8,869.6 2444.8,860.1 2444.8,857.8 2444.8,848.3 2444.8,846 2444.8,836.5 2444.8,834.2 2444.8,824.7 
	2444.8,822.3 2444.8,812.9 2444.8,810.5 2444.8,801 2444.8,798.7 2444.8,789.2 2444.8,786.9 2444.8,777.4 2444.8,775.1 
	2444.8,765.6 2444.8,763.3 2444.8,753.8 2444.8,751.5 2444.8,742 2444.8,739.6 2444.8,730.2 2444.8,727.8 2444.8,718.3 2444.8,716 
	2444.8,706.5 2444.8,704.2 2444.8,694.7 2444.8,692.4 2444.8,682.9 2444.8,680.6 2444.8,671.1 2444.8,668.8 2444.8,659.3 
	2444.8,656.9 2444.8,647.5 2444.8,645.1 2444.8,635.6 2444.8,633.3 2444.8,623.8 2444.8,621.5 2444.8,612 2444.8,609.7 
	2444.8,600.2 2444.8,597.9 2444.8,588.4 2444.8,586.1 2444.8,576.6 2444.8,574.2 2444.8,564.8 2444.8,562.4 2444.8,552.9 
	2444.8,550.6 2444.8,541.1 2444.8,538.8 2444.8,529.3 2444.8,527 2444.8,517.5 2444.8,515.2 2444.8,505.7 2444.8,503.4 
	2444.8,497.5 "/>
<path class="st4" d="M2776.8,1159.7c-2.3-48.7-42.5-87.5-91.9-87.5c-49.4,0-89.5,38.8-91.9,87.5H2776.8z"/>
<path class="st5" d="M2683.8,1015.1v6.8h40.5v-20.3h-13.5h-6.7h0h-2.2h-1h-5.3h0h-0.6h-1.9h-0.6h-5.1h-1.2h-2.2v0.3v0.6v2.5v0.6h0
	v-5.1h1c1,0,1.8-0.7,1.9-1.6c0-0.1,0-0.3,0-0.4c0-1.1-0.9-2-2-2h-4.3c-1.1,0-2,0.9-2,2c0,0.1,0,0.3,0,0.4c0.2,0.9,1,1.6,1.9,1.6h1
	v38.3h-1h0v67h-9.3h0l-0.7,2.5l-0.6,1.9h-2.3v8.5h-57v-17h-13.5v-15.2h-4.1v-48.5h-4.9l0-0.4l-0.5-6h0.1l-0.5-5.2h-0.1l-1-12.1
	l-0.1-0.6v-14.7h-1.3l-0.7-7.8h0.1l-0.5-5.2h-0.1l-1.3-15h0.1l-0.5-5.2h-0.1l-0.5-5.9l-0.8-9.1h0.1l-0.5-5.2h0h-0.1l-0.6-6.4
	l-0.7-8.6h0.1l-0.5-5.2h-0.1l-0.1-1.3l0-0.2v-0.9l-1.5-17.8h-0.1l-0.7-7.6l-0.6-7.4h0.1l-2.3-26.3h-0.1l-1.3-15h0.1l-0.5-5.2h-0.1
	l-1.3-15h0.1l-0.5-5.2h-0.1l-1.3-14.5l0-0.5h0.1l-0.5-5.2h-0.1l-0.7-7.6l-17.2-27.6l-17.2,27.6l-0.7,7.6h-0.1l-0.5,5.2h0.1l-0.5,5.6
	l-0.8,9.4h-0.1l-0.5,5.2h0.1l-1.3,15h-0.1l-0.5,5.2h0h0.1l-1.3,15h-0.1l-2.3,26.3h0.1l-1.3,15h-0.1l-1.5,17.8v0.9l-0.1,1.5h-0.1
	l-0.5,5.2h0.1l-0.6,6.7l-0.7,8.3h-0.1l-0.5,5.2h0.1l-0.5,5.4l-0.8,9.6h-0.1l-0.5,5.2h0.1l-1,11.8l-0.3,3.2h-0.1l-0.5,5.2h0.1
	l-0.1,1.6l-0.5,6.2h-1.9v21.5l-0.4,4.8l-0.1,1.1h-0.1l-0.5,5.2h0.1l-0.4,4.1l-0.2,2.3h-5.5v48.5h-4.1v15.2h-13.5v17h-57v-8.5h-2.3
	l-1.3-4.4h-9.3v-67h-1v-27.6v-3h0v0.6v1.8v0.6l0,0l0,1.4v0.6v0v2.4v6.8h40.5v-20.3h-13.5h-6.7h-2.2h-1h-5.3h-0.6h-1.9h-0.6h-5.1
	h-1.2h-2.2v0.3v0.6v2.5v0.6h0v-5.8h1c1,0,1.8-0.7,1.9-1.6c0-0.1,0-0.3,0-0.4c0-1.1-0.9-2-2-2h-4.3c-1.1,0-2,0.9-2,2
	c0,0.1,0,0.3,0,0.4c0.2,0.9,1,1.6,1.9,1.6h1v38.3h-1v67h-9.3l-1.3,4.4h-2.3v31.7h-7.2v17.4h7.2h26.2v0.4v0v0.1h243.6v-0.1v0v-0.4
	h26.2h7.2V1142h-7.2v-31.7h-2.3l-1.3-4.4h-9.3v-67h-1v-28.3v-3h0v0.6v1.8v0.6l0,0l0,1.4v0.6V1015.1z"/>
<polygon class="st1" points="1170.5,419.6 1170.5,384.8 1033.5,384.8 1033.5,419.6 1004.6,419.6 1004.6,1170 1181.8,1170 
	1181.8,419.6 "/>
<polygon class="st1" points="447.7,507.3 447.7,500.1 400.3,500.1 400.3,507.3 393.8,507.3 393.8,1170.6 588.5,1170.6 588.5,507.3 
	"/>
<polygon class="st2" points="294.8,1163.5 269.1,1059.6 294.4,956.9 333.9,904.1 428.6,969.5 453.2,969.5 453.2,957.5 576,956.3 
	631.6,969.5 734.3,970.1 862.7,912.2 901.7,961.5 910.3,966.6 1023.5,955.5 1028.6,965.4 1064.3,956.3 1085.4,1065.6 1068.6,1165.7 
	"/>
<polygon class="st2" points="2115.9,1112.9 2039.2,1112.9 2039.2,1111.6 2039.2,1110.2 2039.2,1102.1 2039.2,1100.8 2039.2,1099.4 
	2039.2,1091.3 2039.2,1090 2039.2,1088.6 2039.2,1080.5 2039.2,1079.2 2039.2,1077.8 2039.2,1069.7 2039.2,1068.4 2039.2,1067 
	2039.2,1058.9 2039.2,1057.5 2039.2,1056.2 2039.2,1048.1 2039.2,1046.7 2039.2,1045.4 2039.2,1037.3 2039.2,1035.9 2039.2,1034.6 
	2039.2,1026.5 2039.2,1025.1 2039.2,1023.8 2039.2,1015.7 2039.2,1014.3 2039.2,1013 2039.2,1004.8 2039.2,1003.5 2039.2,1002.2 
	2039.2,994 2039.2,992.7 2039.2,991.3 2039.2,983.2 2039.2,981.9 2039.2,980.5 2039.2,972.4 2039.2,971.1 2039.2,969.7 
	2039.2,961.6 2039.2,960.3 2039.2,958.9 2039.2,950.8 2039.2,949.5 2039.2,948.1 2039.2,940 2039.2,938.6 2039.2,937.3 
	2039.2,929.2 2039.2,927.8 2039.2,926.5 2039.2,918.4 2039.2,917 2039.2,915.7 2039.2,907.6 2039.2,906.2 2039.2,904.9 
	2039.2,896.8 2039.2,895.4 2039.2,894.1 2039.2,886 2039.2,884.6 2039.2,883.2 2039.2,875.1 2039.2,873.8 2039.2,872.4 
	2039.2,864.3 2039.2,863 2039.2,861.6 2039.2,853.5 2039.2,852.2 2039.2,850.8 2039.2,842.7 2039.2,841.4 2039.2,840 2039.2,831.9 
	2039.2,830.6 2039.2,829.2 2039.2,821.1 2039.2,819.7 2039.2,818.4 2039.2,810.3 2039.2,808.9 2039.2,807.6 2039.2,799.5 
	2039.2,798.1 2039.2,796.8 2039.2,788.7 2039.2,787.3 2039.2,786 2039.2,777.9 2039.2,776.5 2039.2,775.2 2039.2,764.9 
	2039.2,748.1 2039.2,736.6 2039.2,735.7 2039.2,735.7 2033.7,735.7 2033.7,735.7 2028.7,735.7 2028.6,735.7 2026,735.7 2026,728.8 
	2025.9,728.8 2025.5,728.8 2025.5,728.8 2025.5,735.7 2023.7,735.7 2023.7,720.1 2023.6,720.1 2023.2,720.1 2023.2,720.1 
	2023.2,735.7 2017.8,735.7 2017.8,726.6 2017.3,726.6 2017.3,726.6 2017.3,726.6 2017.3,735.7 2012.1,735.7 2012.1,735.7 
	2009.7,735.7 2009.7,734.5 2009.7,734.5 2008.4,734.5 2008.4,733.3 2008.3,725.9 2006.7,725.9 2006.7,723 2006.7,723 1968.8,723 
	1968.8,723 1968.8,725.9 1967.2,725.9 1967.2,733.3 1967.2,734.5 1965.8,734.5 1965.8,734.5 1965.8,735.7 1963.4,735.7 
	1963.4,735.7 1950.4,735.7 1950.4,728.3 1949.9,728.3 1949.9,728.3 1949.9,728.3 1949.9,735.7 1946.9,735.7 1946.8,735.7 
	1941.8,735.7 1941.8,735.7 1936.3,735.7 1936.3,735.7 1936.3,736.6 1936.3,764.9 1936.3,775.2 1936.3,776.5 1936.3,777.9 
	1936.3,786 1936.3,787.3 1936.3,788.7 1936.3,796.8 1936.3,798.1 1936.3,799.5 1936.3,807.6 1936.3,808.9 1936.3,810.3 
	1936.3,818.4 1936.3,819.7 1936.3,821.1 1936.3,829.2 1936.3,830.6 1936.3,831.9 1936.3,840 1936.3,841.4 1936.3,842.7 
	1936.3,850.8 1936.3,852.2 1936.3,853.5 1936.3,861.6 1936.3,863 1936.3,864.3 1936.3,872.4 1936.3,873.8 1936.3,875.1 
	1936.3,883.2 1936.3,884.6 1936.3,886 1936.3,894.1 1936.3,895.4 1936.3,896.8 1936.3,904.9 1936.3,906.2 1936.3,907.6 
	1936.3,915.7 1936.3,917 1936.3,918.4 1936.3,926.5 1936.3,927.8 1936.3,929.2 1936.3,937.3 1936.3,938.6 1936.3,940 1936.3,948.1 
	1936.3,949.5 1936.3,950.8 1936.3,958.9 1936.3,960.3 1936.3,961.6 1936.3,969.7 1936.3,971.1 1936.3,972.4 1936.3,980.5 
	1936.3,981.9 1936.3,983.2 1936.3,991.3 1936.3,992.7 1936.3,994 1936.3,1002.2 1936.3,1003.5 1936.3,1004.8 1936.3,1013 
	1936.3,1014.3 1936.3,1015.7 1936.3,1023.8 1936.3,1025.1 1936.3,1026.5 1936.3,1034.6 1936.3,1035.9 1936.3,1037.3 1936.3,1045.4 
	1936.3,1046.7 1936.3,1048.1 1936.3,1056.2 1936.3,1057.5 1936.3,1058.9 1936.3,1067 1936.3,1068.4 1936.3,1069.7 1936.3,1077.8 
	1936.3,1079.2 1936.3,1080.5 1936.3,1088.6 1936.3,1090 1936.3,1091.3 1936.3,1099.4 1936.3,1100.8 1936.3,1102.1 1936.3,1110.2 
	1936.3,1111.6 1936.3,1112.9 1859.6,1112.9 1859.6,1112.9 1859.6,1165.7 1859.6,1165.7 1867.3,1165.7 1867.4,1165.7 1868.6,1165.7 
	1868.6,1165.7 1870.3,1165.7 1870.3,1165.7 1878.4,1165.7 1878.4,1165.7 1880.1,1165.7 1880.1,1165.7 1888.2,1165.7 1888.3,1165.7 
	1889.9,1165.7 1890,1165.7 1898,1165.7 1898.1,1165.7 1899.7,1165.7 1899.8,1165.7 1907.9,1165.7 1907.9,1165.7 1909.6,1165.7 
	1909.6,1165.7 1910.8,1165.7 1910.9,1165.7 2115.9,1165.7 2116,1165.7 2116,1112.9 "/>
<polygon class="st4" points="821.1,457.1 815,457.1 815,457.1 813.3,457.1 813.3,457.1 805.4,457.1 805.4,457.1 803.6,457.1 
	803.6,457.1 803.6,457.1 803.6,457.1 801.9,457.1 801.9,457.1 795.7,457.1 795.7,457.1 793.9,457.1 793.9,457.1 793.9,457.1 
	793.9,457.1 792.2,457.1 792.2,457.1 786,457.1 786,457.1 784.3,457.1 784.3,457.1 784.3,457.1 784.3,457.1 782.5,457.1 
	782.5,457.1 776.4,457.1 776.4,457.1 774.6,457.1 774.6,457.1 774.6,457.1 774.6,457.1 772.9,457.1 772.9,457.1 766.7,457.1 
	766.7,457.1 765,457.1 765,457.1 765,457.1 765,457.1 763.2,457.1 763.2,457.1 757.1,457.1 757.1,457.1 755.3,457.1 755.3,457.1 
	747.4,457.1 747.4,457.1 745.6,457.1 745.6,457.1 737.7,457.1 737.7,457.1 736,457.1 736,457.1 728.1,457.1 728.1,457.1 
	726.3,457.1 726.3,457.1 726.3,457.1 726.3,457.1 724.6,457.1 724.6,457.1 718.4,457.1 718.4,457.1 716.6,457.1 716.6,457.1 
	708.7,457.1 708.7,457.1 707,457.1 707,457.1 699.1,457.1 699.1,457.1 697.3,457.1 697.3,457.1 689.4,457.1 689.4,457.1 
	687.7,457.1 687.7,457.1 687.7,457.1 687.7,457.1 685.9,457.1 685.9,457.1 679.8,457.1 679.8,457.1 678,457.1 678,457.1 678,457.1 
	678,457.1 676.2,457.1 676.2,457.1 670.1,457.1 670.1,457.1 668.3,457.1 668.3,457.1 660.4,457.1 660.4,457.1 658.7,457.1 
	658.7,457.1 658.7,457.1 658.7,457.1 656.9,457.1 656.9,457.1 650.8,457.1 650.8,457.1 649,457.1 649,457.1 649,457.1 649,457.1 
	647.3,457.1 647.3,457.1 641.1,457.1 641.1,457.1 639.5,457.1 639.3,457.1 637.7,457.1 637.7,457.1 631.4,457.1 631.4,457.1 
	629.7,457.1 629.7,457.1 623.6,457.1 623.6,457.2 623.6,457.2 623.6,460.4 623.6,463.6 623.6,466.2 623.6,469.3 623.6,477.9 
	623.6,481.1 623.6,483.6 623.6,486.8 623.6,495.4 623.6,498.5 623.6,501.1 623.6,504.3 623.6,512.9 623.6,516 623.6,518.6 
	623.6,521.8 623.6,530.3 623.6,533.5 623.6,536.1 623.6,539.3 623.6,547.8 623.6,551 623.6,553.6 623.6,556.8 623.6,565.3 
	623.6,568.5 623.6,571.1 623.6,574.2 623.6,582.8 623.6,586 623.6,588.5 623.6,591.7 623.6,600.3 623.6,603.4 623.6,606 
	623.6,609.2 623.6,617.7 623.6,620.9 623.6,623.5 623.6,626.7 623.6,635.2 623.6,638.4 623.6,641 623.6,644.2 623.6,652.7 
	623.6,655.9 623.6,658.5 623.6,661.6 623.6,670.2 623.6,673.4 623.6,676 623.6,679.1 623.6,687.7 623.6,690.9 623.6,693.4 
	623.6,696.6 623.6,705.2 623.6,708.3 623.6,710.9 623.6,714.1 623.6,722.6 623.6,725.8 623.6,728.4 623.6,731.6 623.6,740.1 
	623.6,743.3 623.6,745.9 623.6,749.1 623.6,757.6 623.6,760.8 623.6,763.4 623.6,766.5 623.6,775.1 623.6,778.3 623.6,780.8 
	623.6,784 623.6,792.6 623.6,795.7 623.6,798.3 623.6,801.5 623.6,811.6 623.6,814.8 623.6,817.4 623.6,820.6 623.6,829.1 
	623.6,832.3 623.6,834.9 623.6,838.1 623.6,846.6 623.6,849.8 623.6,852.4 623.6,855.5 623.6,864.1 623.6,867.3 623.6,869.8 
	623.6,873 623.6,881.6 623.6,884.8 623.6,887.3 623.6,890.5 623.6,899.1 623.6,902.2 623.6,904.8 623.6,908 623.6,916.5 
	623.6,919.7 623.6,922.3 623.6,925.5 623.6,934 623.6,937.2 623.6,939.8 623.6,943 623.6,951.5 623.6,954.7 623.6,957.3 
	623.6,960.4 623.6,969 623.6,972.2 623.6,974.7 623.6,977.9 623.6,986.5 623.6,989.6 623.6,992.2 623.6,995.4 623.6,1004 
	623.6,1007.1 623.6,1009.7 623.6,1012.9 623.6,1021.4 623.6,1024.6 623.6,1027.2 623.6,1030.4 623.6,1038.9 623.6,1042.1 
	623.6,1044.7 623.6,1047.9 623.6,1056.4 623.6,1059.6 623.6,1062.2 623.6,1065.3 623.6,1073.9 623.6,1077.1 623.6,1079.6 
	623.6,1082.8 623.6,1091.4 623.6,1094.5 623.6,1097.1 623.6,1100.3 623.6,1108.8 623.6,1112 623.6,1114.6 623.6,1117.8 
	623.6,1126.3 623.6,1129.5 623.6,1132.1 623.6,1135.3 623.6,1143.8 623.6,1147 623.6,1149.6 623.6,1152.7 623.6,1162.3 
	666.6,1162.3 668.3,1162.3 695.6,1162.3 695.6,1162.7 697.3,1162.7 697.3,1162.3 705.2,1162.3 707,1162.3 714.9,1162.3 
	716.6,1162.3 753.5,1162.3 755.3,1162.3 821.1,1162.3 821.1,1162.3 821.1,1162.3 "/>
<polygon class="st3" points="377.5,1043 377.5,1037.6 375.7,1037.6 375.7,1026.4 350.1,1026.4 350.1,1015.5 351.9,1015.5 
	353.1,1008.5 346.1,1008.5 346.1,1004 347.7,1004 349,997.1 346.1,997.1 305.7,976.7 265.2,997.1 262.4,997.1 263.6,1004 
	265.2,1004 265.2,1008.5 258.2,1008.5 259.4,1015.5 261.2,1015.5 261.2,1026.4 235.6,1026.4 235.6,1037.6 233.8,1037.6 233.8,1043 
	235.6,1043 235.6,1050.7 233.8,1050.7 233.8,1056.1 235.6,1056.1 235.6,1162.7 375.7,1162.7 375.7,1056.1 377.5,1056.1 
	377.5,1050.7 375.7,1050.7 375.7,1043 "/>
<path class="st4" d="M480.6,1165.1c-2.8-59.1-51.6-106.2-111.5-106.2c-59.9,0-108.7,47.1-111.5,106.2H480.6z"/>
<path class="st5" d="M712.5,882.6h1.1V880h-1v-2h-0.8v-1.3h0.6v-2.6h-1L711,872l-3.9-14.4h0v-0.2h0.2v-0.9h-0.2v-1.8h-0.3v-1.9
	c0.1,0,0.2-0.1,0.2-0.1c0,0,0,0,0,0c0.1,0,0.1-0.1,0.2-0.1c0,0,0-0.1,0.1-0.1c0,0,0.1-0.1,0.1-0.1c0-0.1,0.1-0.2,0.1-0.3
	c0-0.1,0-0.2-0.1-0.3c-0.1-0.3-0.4-0.5-0.7-0.5c0,0,0,0,0,0l0,0c-0.3,0-0.6,0.2-0.7,0.5c0,0.1-0.1,0.2-0.1,0.3c0,0.1,0,0.2,0.1,0.3
	c0,0,0,0.1,0.1,0.1c0,0,0,0.1,0.1,0.1c0,0.1,0.1,0.1,0.2,0.1c0,0,0,0,0,0c0.1,0,0.1,0.1,0.2,0.1v1.9h-0.3v1.8h-0.2v0.9h0.2v0.2h0
	l-0.4,1.6l-16.4-62.5h0v-4.1h0V791h-0.8v-1.2h-1.5v-6.7h1.5v0v-1.8h-1.5v-6.2h-1.8v6.2h-2.4v-3.5H682v-32v-2h0v0.4v1.2v0.4l0,0
	l0,0.9v0.4v1.6v4.5h27.2v-13.6h-9.1h-4.5h-1.5h-0.7h-3.6h-0.4h-1.3h-0.4h-3.4h-0.8H682v0.2v0.4v1.7v0.4h0v-3.9h0.2
	c0.8,0,1.4-0.6,1.4-1.4c0-0.8-0.6-1.4-1.4-1.4h-3c-0.8,0-1.4,0.6-1.4,1.4c0,0.8,0.6,1.4,1.4,1.4h0.2v39.3h-0.7v3.5h-2.4v-6.2h-1.8
	v6.2h-1.5v1.8v0h1.5v6.7h-1.5v1.2h-0.8v1.8h0v4.1h0L660,843l-4.5,17l-0.2-0.7l-0.5-1.8h0v-0.2h0.2v-0.9h-0.2v-1.8h-0.3v-1.9
	c0.1,0,0.2-0.1,0.2-0.1c0,0,0,0,0,0c0.1,0,0.1-0.1,0.2-0.1c0,0,0-0.1,0.1-0.1c0,0,0.1-0.1,0.1-0.1c0-0.1,0-0.2,0.1-0.2c0,0,0,0,0,0
	c0-0.4-0.3-0.8-0.8-0.8c-0.4,0-0.8,0.3-0.8,0.8c0,0.1,0,0.2,0.1,0.3c0,0,0,0.1,0.1,0.1c0,0,0,0.1,0.1,0.1c0,0.1,0.1,0.1,0.2,0.1
	c0,0,0,0,0,0c0.1,0,0.1,0.1,0.2,0.1v1.9h-0.3v1.8h-0.2v0.9h0.2v0.2h0l-1.7,6.4l-2.7,10.1h-1v2.6h0.6v1.3h-0.8v2h-1v2.6h1.1v1.8v0.9
	h-1.1v1.8h0.9v1.8v57.7h-0.9v1.8h0.9v2.6h1.1v2.6h1.8v2.8h1v24.9H418.2h-4.3v-7.8l-3.9-5.6c0,0,0,0,0,0c0,0,0.1-0.1,0.1-0.2
	c0-0.1,0-0.1,0-0.2c0-0.1,0-0.2-0.1-0.3c0,0,0,0,0-0.1c-0.1-0.1-0.1-0.1-0.2-0.2c0,0,0,0,0,0c0.1,0,0.1-0.1,0.1-0.1c0,0,0,0,0,0
	c0-0.1,0.1-0.1,0.1-0.2c0-0.1,0-0.2-0.1-0.2c0,0,0,0,0,0c0-0.1-0.1-0.1-0.2-0.1v-1.2h-0.3v1.2c-0.1,0-0.1,0.1-0.2,0.1c0,0,0,0,0,0
	c0,0.1-0.1,0.1-0.1,0.2c0,0.1,0,0.1,0.1,0.2c0,0,0,0,0,0c0,0.1,0.1,0.1,0.1,0.1c0,0,0,0,0,0c-0.1,0-0.2,0.1-0.2,0.2c0,0,0,0,0,0.1
	c0,0.1-0.1,0.2-0.1,0.3c0,0.1,0,0.1,0,0.2c0,0.1,0.1,0.1,0.1,0.2c0,0,0,0,0,0l-3.9,5.6v7.8H401v2.6h0l-13.2,32.3l-1.8-6.7l-1.2-4.6
	h0v-0.2h0.2v-0.8h-0.2v-1.5h-0.3v-1.6c0,0,0,0,0,0c0.1,0,0.1,0,0.2-0.1c0,0,0,0,0,0c0,0,0.1-0.1,0.1-0.1c0,0,0-0.1,0.1-0.1
	c0,0,0-0.1,0.1-0.1c0-0.1,0-0.2,0-0.2c0-0.4-0.3-0.7-0.7-0.7c-0.4,0-0.7,0.3-0.7,0.7c0,0.1,0,0.2,0,0.2c0,0,0,0.1,0.1,0.1
	c0,0,0,0.1,0.1,0.1c0,0,0.1,0.1,0.1,0.1c0,0,0,0,0,0c0.1,0,0.1,0.1,0.2,0.1c0,0,0,0,0,0l0,1.6h-0.3v1.5h-0.2v0.8h0.2v0.2h0
	l-3.8,14.2h-0.8v2.2h0.5v1.1h-0.7v1.7h-0.8v2.2h1v1.6v0.8h-1v1.6h0.8v1.6v12.3h-0.8v2.2h3.6v47.8h-1.7v1.9h0.6v1.4h1v2.1h0.1v64.6
	h18.2h0.2h5.8h14.3h18.2h0.6h7.8h5.1h12.6h8.9h5.1h12.6h8.9h5.1h12.6h10.5h5.6h30h11.8h0h5.1h12.6h8.2h5.1h12.6h8.2h0h5.1h12.6h6.9
	h18.1h0.3h5.7h14.4h18.8v-66.8h0.6v-1.4h0.6v-1.9h-1.3v-84.2h0.6v-1.4h0.6v-1.9h-1.3v-50.6h0.6v-2.8h1.8v-2.6h1.1v-2.6h0.9v-1.8
	h-0.9V889v-1.8h0.9v-1.8h-1.1v-0.9V882.6z M678,783.1h0.6v6.7H678V783.1z M683.3,789.8h-0.7v-6.7h0.7V789.8z M684,789.8v-6.7h1.1
	v6.7H684z M676.2,783.1h1.1v6.7h-1.1V783.1z M418.2,984.1L418.2,984.1L418.2,984.1L418.2,984.1L418.2,984.1z"/>
<path class="st3" d="M1587.4,1041.6v-2.6h-2.1v-2.7h0.7v-2.7h-1.8v-5.3l-42.1-13.2h0l0,0l-10.9,3.5v-0.3h-18.1v-0.4h0.7v-1.2h2.7
	v-1.4h1.4v-3.7h-8.2v-1.5l-31.9-14.8v-37.4v-0.6v-2.3v-1.6v-2.1v-1.9h1.1h0v-2.8h1.5v-2h1.2h0.5v-3h-0.5h-3.8V937h-0.7v-6h0.7v-1.7
	h-0.7v-0.8h-0.8v-0.7v-1.3h0.8l-1.9-12.1h0.1v-1.9l-1.6-0.9l-1.5,0.9v1.9l-1.9,12.1h0.8v1.3v0.7h-0.8v0.8h-11.9v-0.7v-1.3v-4.6v-1.3
	v-4.6v-1.3v-4.6v-1.3v-2.3v-3.5h1.6v0h0v-3.9h-0.9v-2.1h-0.6V895h0.5v0h0v-2.1h-11.8v0h0v-2.3h-0.3v-1h-0.1V836h0v0h0h0v-0.8h0h0
	V832h0v0h0h0v-0.8h0h0v-2.4c0,0,0,0,0,0c0,0,0,0,0,0c0,0,0-0.1,0.1-0.1c0-0.1,0-0.1,0.1-0.2c0.1-0.1,0.1-0.2,0.1-0.3v0v-0.4v-0.1
	h0.3v0h0v0v-2.2h0.9h0.3v0h0v-1.3h-0.3v-2.4v-0.7v-3.5h0.6h0l0,0l0,0h0l0.8-1.9h0.4v0h0v-2.4v0h-1.1c0-0.9-0.4-1.6-0.8-2.2
	c-0.4-0.6-0.8-0.9-0.8-0.9s-0.1,0.1-0.3,0.3c0,0,0,0,0,0c-0.1,0.1-0.1,0.1-0.2,0.2c0,0,0,0,0,0v-1.7h-2.7v-0.8V806h-3.2v-0.8V803h-2
	v-0.8v-1v-0.8h0.5h0v0h0v-1.9h-2v-4.1c0.4,0.3,0.9,0.4,1.4,0.4c2.4,0,4.4-3.5,4.4-7.8c0-4.3-2-7.8-4.4-7.8c-0.5,0-1,0.2-1.4,0.4v-2
	v-0.4V776v-0.6h1.5v0h0v-0.6v-0.8h0.5h0v0h0V772h-2.6l-4.4-14.4c0,0,0,0,0,0c-0.1-0.2-0.2-0.5-0.3-0.7c-0.1-0.2-0.3-0.4-0.5-0.6h1.4
	v0h0v-1.4h-0.4V753h0.4v0h0v-1.4h-1.2c-0.7-0.4-1.3-1-1.9-1.6c-0.1-0.2-0.2-0.4-0.3-0.6c-0.3-0.5-0.7-1.1-0.8-1.7
	c0-0.1-0.1-0.2-0.1-0.3c0,0,0,0,0,0c0,0,0,0,0,0l0.7,0v0h0v-0.6h0.6v0h0v0v-1.4h-0.7v-4.8h0.6v0h0v-1.4h-0.7V739h0h-1.7
	c0-0.1,0-0.1-0.1-0.1c-0.1-0.7-0.3-1.4-0.8-2c-0.1-0.1-0.1-0.1-0.1-0.2c-0.5-0.5-1.1-0.9-1.8-1.1c-0.1,0-0.1-0.1-0.1-0.1V734
	c0,0,0.1-0.1,0.1-0.1c0.2-0.2,0.2-0.5,0.3-0.7c0,0,0,0,0,0v0l0,0v-0.3c0.1,0,0.2,0.1,0.3,0.1c0.3,0,0.6-0.1,0.7-0.3
	c0.2-0.2,0.3-0.5,0.3-0.8v0v-7.7v0c0-0.6-0.5-1.1-1.1-1.1c-0.3,0-0.6,0.1-0.8,0.3c-0.2,0.2-0.3,0.5-0.3,0.8v6.3
	c-0.1,0-0.1,0-0.2-0.1l0,0c0,0,0,0,0,0c0,0,0,0-0.1,0c-0.1,0-0.2-0.1-0.3-0.1l0,0l0,0c-0.1,0-0.1,0-0.2,0c0,0,0,0,0,0
	c-0.1,0-0.1,0-0.2,0.1c0,0,0,0,0,0c-0.1,0-0.1,0-0.2,0.1c0,0,0,0,0,0c0,0,0,0,0,0v-6.3v0c0-0.6-0.5-1.1-1.1-1.1
	c-0.3,0-0.6,0.1-0.8,0.3c-0.2,0.2-0.3,0.5-0.3,0.8v7.7c0,0.6,0.5,1.1,1.1,1.1c0.1,0,0.2,0,0.3-0.1v0.3c0,0.2,0,0.4,0.1,0.5
	c0,0,0,0,0,0c0,0.1,0.1,0.2,0.2,0.3l0,0v1.5c0,0-0.1,0.1-0.1,0.1c-0.7,0.2-1.3,0.6-1.7,1.2c0,0-0.1,0-0.1,0.1c0,0,0,0,0,0
	c0,0,0,0,0,0c0,0,0,0,0,0c-0.1,0.1-0.2,0.3-0.3,0.5c0,0,0,0,0,0.1c0,0,0,0.1,0,0.1c-0.2,0.3-0.3,0.7-0.3,1c0,0.1-0.1,0.2-0.1,0.3
	c0,0.1,0,0.1,0,0.2h-1.7v0h0v0.2h-0.6v0h0v1.4h0.7v4.8h-0.6v0h0v1.4h0.7v0.6h0.6c0,0,0,0,0,0c0,0,0,0,0,0c0,0.1-0.1,0.2-0.1,0.3
	c-0.2,0.6-0.5,1.1-0.8,1.6c-0.1,0.2-0.3,0.5-0.4,0.7c-0.5,0.6-1.1,1.2-1.8,1.6h-1.2v0h0h0v1.4h0h0.4v1.9h-0.4v0h0h0v1.4h0h1.4
	c-0.2,0.2-0.4,0.4-0.5,0.6c0,0,0,0,0,0c-0.1,0.2-0.2,0.4-0.3,0.6c0,0,0,0,0,0.1l-0.1,0.2l-0.1,0.3l0,0.1l-3.6,11.7l-0.2,0.6h0
	l-0.5,1.5h-2.5v0h0v1.9h0.5v0.8v0.6h1.5v2.2v0.8v0.2c-0.3-0.2-0.6-0.2-0.9-0.2c-2.1,0-3.7,3.5-3.7,7.8c0,4.3,1.7,7.8,3.7,7.8l0,0
	c0.3,0,0.6-0.1,0.9-0.2v1.4v0.9v1.1v1.3h-2v0h0v1.9h0.5v0.8v1v0.8h-2v0h0v2.1v0.8h-3.2v0h0v2.1v0v0.8h-2.7h0v0h0v1.2l0,0
	c0,0-0.1,0.1-0.2,0.2c0,0-0.1,0.1-0.1,0.1c-0.1,0.1-0.1,0.1-0.1,0.2c0,0,0,0.1-0.1,0.1c-0.2,0.2-0.3,0.4-0.4,0.7
	c-0.1,0.1-0.1,0.2-0.2,0.4c-0.2,0.4-0.3,0.9-0.3,1.4l0,0h-1.5v0v0h0v2.4h0.4l0.8,2h0.6v3.5v0.7v2.4h-0.3v0h0v1.3h0.3h0.8v2.2h0.2
	v0.5c0,0.3,0.2,0.6,0.4,0.7v1.5h-0.2v0h0v0.8h-0.1v0h0v0.8h0.1v0.8h0.2v2.5h-0.2v0h0v0.8h0.1v0.8h0.2v1.2v51.5h-0.3v0h0h0v1h-0.2v0
	h0v2.3h-11.7v0h0v2.1h0.6v2.8h-0.6v0h0v2.1h-0.9v0h0v3.9h1.6v3.5v2.3v1.3v4.6v0v1.3v0v4.6v1.3v4.6v1.3v0.7h-12.6v-0.8h-0.8v-0.7
	v-1.3h0.8l-1.9-12.1h0.1v-1.9l-1.6-0.9l-1.5,0.9v1.9l-1.9,12.1h0.8v1.3v0.7h-0.8v0.8h-1v1.7h1v6h-2.6v4.5h-1.2h-0.5v3h0.5h0h1.2v2
	h1.6v2.8h1v1.9v2.1v1.6v2.3v0.6v37.4l-31.8,14.7v1.5h-8.3v3.7h1.4v1.4h0h2.7v1.2h0.7v0.4h-8.5v0.5l-11.4-3.6l-41.6,13.2v5.3h-1.8
	v2.7h0.7v2.7h-2.1v2.6h-1.2v1.1v0.8v4.5v0.8v0.8h1.2v1.1h0v114h2.1h4.8h9.6h56.4h7.2h7.2h2.6v-0.1h-24.5h2.5v-0.3h11.5H1485
	l24.8,0.1v0.2v0h2.5h0h-15h0h2h4.8h9.6h56.4h7.2h7.2h2.6v-114h0v0v-1.1h1.2v-0.8v-0.8v-4.5v-0.8v-1.1H1587.4z M1469.2,930.9h1.2v6
	h-1.2V930.9z M1464.4,930.9h3.2v6h-3.2V930.9z M1459.5,930.9h3.2v6h-3.2V930.9z M1423.8,734.5c0.1,0,0.2,0,0.3,0c0.1,0,0.2,0,0.3,0
	v0.8c-0.1,0-0.2,0-0.2,0c-0.1,0-0.2,0-0.3,0V734.5z M1389.4,930.9h0.3v2.2v1.3v0v2.6h-0.3V930.9z M1384.6,930.9h3.2v6h-3.2V930.9z
	 M1379.7,930.9h3.2v6h-3.2V930.9z M1377.1,930.9h0.9v6h-0.9V930.9z"/>
<rect x="1101.2" y="922.5" class="st2" width="144.1" height="241.6"/>
<path class="st3" d="M1450.2,939.4l-81-114V363.9v-11.4v0V321h-10.1v-2.5v-3.8v-0.3h-0.1l-50.4-80.5l0,0v0h-6.4v-4.1h-1v-6.6h2.2
	v4.5h0h1.9v-6.5h4.6v-1.3v0h-4.6v-5h4.6v-1.3h-4.6V125h-1.9h0v3.9h-2.2v-20h-0.6V93v0h-1.1v0v15.9h-0.6v20h-2.2V125h-1.9v88.6h-4.6
	v1.3h4.6v5h-4.6v0v1.3h4.6v6.5h1.9v-4.5h2.2v6.6h-1v4.1h-6.3l-50.4,80.5h-0.2v0.3v3.8v2.5h-10.1v31.6v0v11.4v325.4l-0.1-0.1
	l-70.1,98.8h-18.2v334h4.3v3.2h0h5.5v0.7v2.8v32.7h0h0h6.3h6.3h58.5h6.3h0h6.3h209.8v-0.2h2.3v0v-36h4.3v-3.2h3.2V939.4H1450.2z
	 M1301.2,221.9v-0.7h2.2v0.7H1301.2z M1296.7,202.5h2.2v9h-2.2V202.5z M1296.7,192.2h2.2v9h-2.2V192.2z M1296.7,181.9h2.2v9h-2.2
	V181.9z M1296.7,171.5h2.2v9h-2.2V171.5z M1296.7,161.2h2.2v9h-2.2V161.2z M1296.7,150.9h2.2v9h-2.2V150.9z M1296.7,140.6h2.2v9
	h-2.2V140.6z M1303.4,219.9h-2.2v-5h2.2V219.9z M1303.4,159.9h-2.2v-9h2.2V159.9z M1303.4,170.3h-2.2v-9h2.2V170.3z M1303.4,180.6
	h-2.2v-9h2.2V180.6z M1303.4,190.9h-2.2v-9h2.2V190.9z M1303.4,201.3h-2.2v-9h2.2V201.3z M1303.4,211.6h-2.2v-9h2.2V211.6z
	 M1301.2,213.6v-0.7h2.2v0.7H1301.2z M1303.4,149.6h-2.2v-9h2.2V149.6z M1303.4,130.2v9h-2.2v-9H1303.4z M1298.9,130.2v9h-2.2v-9
	H1298.9z M1296.7,212.9h2.2v0.7h-2.2V212.9z M1298.9,214.9v5h-2.2v-5H1298.9z M1296.7,221.9v-0.7h2.2v0.7H1296.7z M1282.1,256.3
	l11.8-18.8h3.9v6.4h-6.3v0.9h0.6v0.9h-0.6v0.9h0.6v0.5h-0.3l-6.3,9.4h-2.5v3.7h-2.6v2.1h2.6v2.1h-2.6v2.1h2.6v2.1h-2.6v2.1h2.6v4.6
	h-2v-1.5h-4.5v1.5h-3.1v31.9h-2.9v7.2h-24.8L1282.1,256.3z M1354.4,314.4h-24.8v-7.2h-2.9v-31.9h-3.1v-1.5h-4.5v1.5h-2v-4.6h2.6
	v-2.1h-2.6v-2.1h2.6v-2.1h-2.6v-2.1h2.6v-2.1h-2.6v-3.7h-2.5l-6.3-9.4h-0.3v-0.5h0.6v-0.9h-0.6v-0.9h0.6v-0.9h-6.4v-6.4h4
	L1354.4,314.4z M1192.1,751.1l38.7-54.5v27.6l-37.9,40.2v-1.6v0h-0.8V751.1z M1393.7,895.5l22.4,23.7v20.1h-46.9v-69.8L1393.7,895.5
	z M1192.9,770.5l37.9-40.2V788h-37.9V770.5z M1187.1,788h-10.7l10.7-11.3V788z M1435.1,939.4H1422v-13.9l8.6,9.2L1435.1,939.4z
	 M1445,939.4h-4l-18.2-19.3l-0.8-0.9v-7.8h-0.8v-5.7l22.3,31.4L1445,939.4z M1416.9,899.9v11.7h-0.8v1.6l-29.1-30.8l-17.8-18.8
	v-30.7L1416.9,899.9z M1292.9,246.5h3.5v0.5h-3.5V246.5z M1292.9,244.8h3.5v0.9h-3.5V244.8z M1307.2,245.7h-3.5v-0.9h3.5V245.7z
	 M1307.2,247h-3.5v-0.5h3.5V247z M1297.2,246.5h0.7v0.5h-0.7V246.5z M1302.2,246.5h0.7v0.5h-0.7V246.5z M1302.9,245.7h-0.7v-0.9h0.7
	V245.7z M1297.9,245.7h-0.7v-0.9h0.7V245.7z M1187.9,757.1v5.7h-0.8v0v7.8l-10.4,11l-6.2,6.5h-4.6L1187.9,757.1z M1355.9,321h-26.4
	v-2.5h26.4V321z M1244.1,318.5h26.4v2.5h-26.4V318.5z"/>
<path class="st2" d="M295.1,1142.7c-5.2,0-9.8,2.1-13.3,5.4c-3.4-3.3-8.1-5.4-13.3-5.4c-5.1,0-9.7,2-13.1,5.2
	c-3.4-3.3-8-5.2-13.1-5.2c-10.3,0-18.6,8.1-19.1,18.2h26.2h12H276h11.6h26.5C313.7,1150.7,305.4,1142.7,295.1,1142.7z"/>
<path class="st2" d="M1528.3,1164.4c-2.6-53.9-47-96.7-101.6-96.7c-54.6,0-99,42.9-101.6,96.7H1528.3z"/>
<path class="st5" d="M2361.7,1164.4c-2.6-53.9-47-96.7-101.6-96.7c-54.6,0-99,42.9-101.6,96.7H2361.7z"/>
<polygon class="st6" points="1089.4,1057 1021.4,1161.4 1044.7,972.4 1054.4,968.4 "/>
<path class="st3" d="M851,1067.9h0.6v1.4h1.5v90.3h251.6v-90.3h1.5v-1.4h0.6v-2.9h-2.2l-9.6-7.9h0.6v-2.8h-7.8v-13.9h0.6v-1.4h0.6
	v-2.9h-2.2l-9.6-7.9h0.7v-2.8h-146v-71.6h1.5v-1.6h1.1v-5.4h-1.1h-3.6v-29.9h1.1v-1.6h1v-5.4h-1h-1.1l-3.8-3.3l-0.5-1.8v-12.2h-3.6
	l-10.7-35.9l-10.7,35.9h-3.6V905l-0.5,1.8l-3.8,3.3h-1.1h-1v5.4h1v1.6h1.1v29.9h-3.6h-1.1v5.4h1.1v1.6h1.5v71.6h-10v2.8h0.7
	l-9.6,7.9h-2.2v2.9h0.6v1.4v13.9h-7.2v2.8h0.7l-9.6,7.9H851V1067.9z M914,944.7v-20.5c0-2.7,2.2-5,5-5c2.7,0,5,2.2,5,5h0v20.5H914z
	 M897.7,944.7v-20.5c0-2.7,2.2-5,5-5c2.7,0,5,2.2,5,5h0v20.5H897.7z"/>
<rect x="1847" y="980.5" class="st3" width="144.1" height="183.7"/>
<path class="st5" d="M1217.6,968.7h-37.3H1143v0v14.7v0h4v7.8c-2.6-0.6-12.1-3-16.9-7.7c-5.4-5.1-5.6-13.8-5.6-13.8
	c0-0.2,0-0.3-0.1-0.5c-1.2-14.2-13.2-25.2-27.4-25.2c-14.9,0-27,11.7-27.5,26.5c-0.2,2.1-1.1,8.8-5.5,13c-0.6,0.6-1.3,1.2-2.1,1.7
	l-1.6,0.9c-1.4,0.8-2.8,1.5-4.3,2.2c-2.6,1.1-5.2,1.9-7,2.4l-0.9,0.2v-7.5h4v0v-14.7v0h-37.3h-37.3h-37.3v0v14.7v0h4v11.7v0v66.7
	H942v0v5v0h2.2v5v0v76.3h-4v0v14.7v0h4h33.3h1.3h34.7h1.3h32.8h0.5h4h9.8h3.3h3.4h0.7h0.1h11.2v0v-48.5h44v48.5v0h1.7h2.4h14.3h4
	h1.1h32.2h1.3h34.7h1.3h33.3h4v0v-14.7v0h-4v-76.3v0v-5h2.2v0v-5v0h-2.2v-66.7v0v-11.7h4v0v-14.7v0H1217.6z"/>
<path class="st4" d="M1612.1,853L1612.1,853c-0.5-1.7-0.9-3.4-1.4-5h0c-3.1-10.6-6.5-21.3-10.2-32h0.1c-0.6-1.7-1.2-3.4-1.8-5h-0.1
	c-3.8-10.6-8-21.3-12.6-32h0.1c-0.7-1.7-1.4-3.4-2.2-5h-0.1c-5.1-11.7-10.8-23.3-16.9-34.9l-1.2-29.1h0.4v-2.1h-0.5l-0.5-10.7
	l-0.2-4h0V691h-0.1l-0.6-14.7h0.7v-2.1h-0.8l-1.3-31.5h0.4v-2.1h-0.5l-0.6-14.7h0.3v-2.1h-0.4l-0.1-1.9l-0.5-12.8h1v-2.1h-1.1
	l-0.6-14.7h0.5v-2.1h-0.6l-0.6-14.7h0.6v-2.1h-0.7l-0.7-16.1l-0.1-2h1.4v-2.1h-1.5l-0.4-8.9l-0.2-5.8h0.9v-2.1h0.8h0.5v-2.6h-0.6
	l-4.4-76.6l-1.9-33.6l3.4,3.4l1.1-1.1l-4.4-4.4h6.2v-1.6h-6.2l4.4-4.4l0,0l0,0l-1.1-1.1l-4.4,4.4v-16.3h0v0h-0.3v-16.4h-1v16.4h-0.3
	v0v16.3l-4.4-4.4l0,0l0,0l-0.6,0.6l-0.5,0.5l0,0l0,0l4.4,4.4h-6.2h0v1.6h0h6.2l-4.4,4.4l1.1,1.1l0,0l0,0l2.8-2.8l0.6-0.6l-5.8,100.9
	l-0.5,9.3h-0.6v2.6h0.4h0.8v2.1h0.9l-0.2,4l-0.5,10.7h-1.5v2.1h1.4l-0.2,5.9l-0.5,12.2h-0.7v2.1h0.6l-0.1,2.7l-0.5,12h-0.5h0v2.1h0
	h0.4l-0.3,6.9l-0.3,7.8h-1.1v2.1h1l-0.5,12.4l-0.1,2.3h-0.3v2.1h0.3l-0.6,14.7h-0.5v2.1h0.4l-1.3,31.5h-0.8h0v2.1h0h0.7l-0.2,5.4
	l-0.4,9.3h-0.1h0v2.1h0h0l-0.2,4l-0.5,10.7h-0.4v2.1h0.3l-1.3,30.2c-13.1,25.1-23.9,50.5-32.7,75.8c0,0,0,0,0,0l0,0c0,0,0,0,0,0
	c-1.1,3.1-2.1,6.1-3.1,9.2c0,0,0,0.1,0,0.1c-8.2,24.9-14.6,49.5-19.5,73.2c0,0,0,0.1,0,0.1c-0.6,2.8-1.1,5.6-1.7,8.4c0,0,0,0,0,0.1
	c-21.6,110.4-11.8,199.2-11.6,201.5c0,0,0,0,0,0c0,0,0,0,0,0c0.1-0.6,0.2-1.2,0.3-1.7c0,0,0,0,0,0c0.3-1.6,0.8-3.2,1.3-4.6
	c-0.6,2-1.1,4.1-1.6,6.4c0,0,3.7,26.3,4.1,28.1c0,0,2.4-9.1,6.7-20.2v12.8h-2.2v0v33.4v0h2.2h2.2h3.5h4.4h3.5h4.4h4.3h11.1h3.1h2.6
	h1.2h12.3h2.6h16.6h2.6h16h2.6h0h12.3h1.8h2.6h3.8h9.7h3.7h4.4h3.5h4.4h3.5h2.1h2.3v0v-33.4v0h-2.3v-17.8c5.6,13.6,9,26,9,26
	c0-0.2,0.1-0.6,0.2-1.1c0.9-5.4,3.9-27,3.9-27c0,0,0,0,0,0l0,0c0,0,0,0,0,0C1636.7,1109.3,1650.5,988.9,1612.1,853z M1568.6,749.6
	c0.1,0.4,0.2,0.8,0.3,1.2c0,0.1,0,0.1,0,0.2c1.4,6,3,13.6,4.7,23.1h-0.1c0.3,1.6,0.6,3.3,0.9,5h0.1c1.5,9.1,3.1,19.7,4.6,32h-0.1
	c0.2,1.7,0.4,3.3,0.6,5h0.1c0.6,5.2,1.2,10.7,1.8,16.5H1571l0-0.5l0-1.1h0.7v-2.1h-0.8l-0.6-14.7h0.6v-2.1h-0.7l-0.6-14.7h1v-2.1h-1
	l-0.5-11.6l-0.1-3.1h1v-2.1h-1.1l-0.1-3.2l-0.5-11.5h0.4v-2.1h-0.5l-0.6-14.7h0.6c0.2,0.8,0.4,1.6,0.6,2.5
	C1568.5,749.4,1568.5,749.5,1568.6,749.6z M1521.7,853c0.1-1.7,0.3-3.4,0.4-5c0.3-4.1,0.7-8.2,1-12.1h7v18.5h-8.6
	C1521.6,853.9,1521.7,853.4,1521.7,853z M1525.8,811c1.5-12.2,3-22.9,4.6-32c0.3-1.7,0.6-3.4,0.9-5c2-11,3.8-19.6,5.4-26.1
	l-0.4,10.2l-0.1,3.5h-0.4v2.1h0.3l-0.2,4.2l-0.4,10.5h-1v2.1h0.9l-0.3,6l-0.4,8.7h-1v2.1h0.9l-0.5,12.9l-0.1,1.8h-0.7h0v2.1h0h0.6
	l-0.2,5.9l-0.4,8.8h-0.8h0v2.1h0h0.7l-0.1,1.5h-9.6c0.6-5.8,1.1-11.3,1.7-16.5C1525.4,814.3,1525.6,812.6,1525.8,811z M1582.8,847.9
	h-0.1c0.1,1.7,0.3,3.3,0.4,5h0.1c0,0.5,0.1,0.9,0.1,1.4h-9.4v-18.5h7.9C1582.1,839.8,1582.5,843.8,1582.8,847.9z M1567.2,744.3
	c0,0.2,0.1,0.3,0.1,0.5h-0.1L1567.2,744.3z M1635.1,1102.9c0.7,2,1.3,4.1,1.6,6.4C1636.2,1107,1635.7,1104.9,1635.1,1102.9z"/>
<path class="st5" d="M931.6,1163.6c-2.2-45.9-40-82.4-86.5-82.4c-46.5,0-84.3,36.5-86.5,82.4H931.6z"/>
<path class="st3" d="M810.4,1142.7c-5.2,0-9.8,2.1-13.3,5.4c-3.4-3.3-8.1-5.4-13.3-5.4c-5.1,0-9.7,2-13.1,5.2
	c-3.4-3.3-8-5.2-13.1-5.2c-10.3,0-18.6,8.1-19.1,18.2h26.2h12h14.6h11.6h26.5C829,1150.7,820.6,1142.7,810.4,1142.7z"/>
<path class="st2" d="M974,1161c-1.3-26.2-22.8-47-49.3-47c-26.5,0-48.1,20.8-49.3,47H974z"/>
<path class="st4" d="M924.7,1161H974c-1.3-26.1-22.8-47-49.3-47V1161z"/>
<path class="st3" d="M1474.8,1161c-1.3-26.2-22.8-47-49.3-47c-26.5,0-48.1,20.8-49.3,47H1474.8z"/>
<path class="st4" d="M1425.5,1161h49.3c-1.3-26.1-22.8-47-49.3-47V1161z"/>
<path class="st2" d="M746.5,1146.2c-4,0-7.6,1.5-10.2,4.1c-2.6-2.6-6.2-4.1-10.2-4.1c-3.9,0-7.5,1.5-10.1,4c-2.6-2.5-6.2-4-10.1-4
	c-7.9,0-14.3,6.2-14.7,14h20.2h9.3h11.2h9h20.5C760.9,1152.4,754.4,1146.2,746.5,1146.2z"/>
<path class="st1" d="M1064.2,1151.3c-2.5,0-4.8,1-6.5,2.6c-1.7-1.6-4-2.6-6.5-2.6c-2.5,0-4.8,1-6.4,2.5c-1.7-1.6-3.9-2.5-6.4-2.5
	c-5,0-9.1,3.9-9.4,8.9h12.8h5.9h7.1h5.7h13C1073.3,1155.2,1069.2,1151.3,1064.2,1151.3z"/>
<path class="st1" d="M1286.9,1151.3c-2.5,0-4.8,1-6.5,2.6c-1.7-1.6-4-2.6-6.5-2.6c-2.5,0-4.8,1-6.4,2.5c-1.7-1.6-3.9-2.5-6.4-2.5
	c-5,0-9.1,3.9-9.4,8.9h12.8h5.9h7.1h5.7h13C1296,1155.2,1291.9,1151.3,1286.9,1151.3z"/>
<path class="st1" d="M2552.8,1151.3c-2.5,0-4.8,1-6.5,2.6c-1.7-1.6-4-2.6-6.5-2.6c-2.5,0-4.8,1-6.4,2.5c-1.7-1.6-3.9-2.5-6.4-2.5
	c-5,0-9.1,3.9-9.4,8.9h12.8h5.9h7.1h5.7h13C2561.9,1155.2,2557.8,1151.3,2552.8,1151.3z"/>
<path class="st3" d="M2813.6,1151.3c-2.5,0-4.8,1-6.5,2.6c-1.7-1.6-4-2.6-6.5-2.6c-2.5,0-4.8,1-6.4,2.5c-1.7-1.6-3.9-2.5-6.4-2.5
	c-5,0-9.1,3.9-9.4,8.9h12.8h5.9h7.1h5.7h13C2822.8,1155.2,2818.7,1151.3,2813.6,1151.3z"/>
<path class="st1" d="M2661,1151.3c-2.5,0-4.8,1-6.5,2.6c-1.7-1.6-4-2.6-6.5-2.6c-2.5,0-4.8,1-6.4,2.5c-1.7-1.6-3.9-2.5-6.4-2.5
	c-5,0-9.1,3.9-9.4,8.9h12.8h5.9h7.1h5.7h13C2670.1,1155.2,2666,1151.3,2661,1151.3z"/>
<path class="st1" d="M676.1,1151.3c-2.5,0-4.8,1-6.5,2.6c-1.7-1.6-4-2.6-6.5-2.6c-2.5,0-4.8,1-6.4,2.5c-1.7-1.6-3.9-2.5-6.4-2.5
	c-5,0-9.1,3.9-9.4,8.9h12.8h5.9h7.1h5.7h13C685.3,1155.2,681.2,1151.3,676.1,1151.3z"/>
<path class="st1" d="M523.5,1151.3c-2.5,0-4.8,1-6.5,2.6c-1.7-1.6-4-2.6-6.5-2.6c-2.5,0-4.8,1-6.4,2.5c-1.7-1.6-3.9-2.5-6.4-2.5
	c-5,0-9.1,3.9-9.4,8.9h12.8h5.9h7.1h5.7h13C532.6,1155.2,528.5,1151.3,523.5,1151.3z"/>
<path class="st1" d="M397.1,1038.8c-1-30.6-36.1-23.4-36.6-24.5c-0.5-1.1,29.2-7.7,28.7-8.1c-28-25.9-39.3,5.1-39.5,2
	c-1.2-18.1-21.9-20.7-21.9-20.7s15.8,22.3,10.6,19c-29.2-18.6-43.7,11.9-40.7,10.8c11.4-4.3,40.1,2.7,38.3,3
	c-26.3,4-29.8,34.7-29.8,34.7c22.3-3.7,34.8-17.1,40.3-24.8c-1.2,27.3-3.9,84.4-7.5,130.1l14.4,0.7l-2.1-118.5
	c3.4,18.9,19.8,32.5,20.6,31c14.8-31.6-12.8-45.8-12.1-45.9C368.7,1027.3,397.2,1039.2,397.1,1038.8z"/>
<path class="st1" d="M789.3,1000.2c-6.8,3.9,14-22.3,14-22.3s-27.3,3.1-28.8,24.3c-0.2,3.6-15.1-32.8-51.9-2.4
	c-0.6,0.5,38.5,8.2,37.8,9.5c-0.7,1.3-46.8-7.1-48.2,28.8c0,0.5,37.4-13.4,49.1-13.1c1,0-35.4,16.7-15.9,53.8
	c1,1.8,21.5-13.3,26.7-34.5l-3.7,122.9l19-0.8c-4.6-52.1-7.4-109.7-8.7-138.5c7.2,9,23.7,24.9,53.2,29.3c0,0-4.7-36.1-39.3-40.8
	c-2.4-0.3,35.4-8.5,50.4-3.5C846.8,1014.2,827.8,978.4,789.3,1000.2z"/>
<path class="st1" d="M947.5,1099.3c-2.4-37-44.6-27-45.2-28.3c-0.7-1.3,35-10.4,34.4-10.9c-34.9-30.2-47.3,7.7-47.6,4
	c-2.1-21.8-27.3-24.2-27.3-24.2s20,26.4,13.6,22.6c-36.1-21.3-52.4,16.1-48.9,14.6c13.7-5.6,48.6,1.7,46.4,2.1
	c-31.6,5.9-34.7,43.2-34.7,43.2c25.1-5,39.6-20,46.5-29.7c-2.1,17.7-5.1,45.8-6.6,73.6l12.8,2.8l0.6-68.1c0.1,0.6,0.2,1.3,0.3,2
	c3.8,24.1,25.6,41.1,26.5,39.1c16.7-38.8-17.3-54.9-16.4-55C912.7,1086.6,947.5,1099.8,947.5,1099.3z"/>
<polygon class="st3" points="2115.9,937.1 2115.9,927.2 2064,927.2 2064,1160.3 2091.3,1160.3 2091.3,1160.6 2151.2,1160.6 
	2151.2,937.1 "/>
<path class="st1" d="M332.6,1151.3c-2.5,0-4.8,1-6.5,2.6c-1.7-1.6-4-2.6-6.5-2.6c-2.5,0-4.8,1-6.4,2.5c-1.7-1.6-3.9-2.5-6.4-2.5
	c-5,0-9.1,3.9-9.4,8.9h12.8h5.9h7.1h5.7h13C341.7,1155.2,337.6,1151.3,332.6,1151.3z"/>
<path class="st1" d="M892.4,1151.3c-2.5,0-4.8,1-6.5,2.6c-1.7-1.6-4-2.6-6.5-2.6c-2.5,0-4.8,1-6.4,2.5c-1.7-1.6-3.9-2.5-6.4-2.5
	c-5,0-9.1,3.9-9.4,8.9h12.8h5.9h7.1h5.7h13C901.6,1155.2,897.5,1151.3,892.4,1151.3z"/>
<polygon class="st4" points="2275.9,1029.9 2076.4,1029.9 2062.2,1029.9 2061.1,1019.9 1975.1,1019.9 1983.8,1092 1966.6,1092 
	1965.2,1092 1948,1092 1946.6,1092 1929.4,1092 1929.4,1092 1927.9,1092 1910.7,1092 1909.3,1092 1902.9,1092 1902.9,1098.3 
	1902.9,1123.7 1896.7,1123.7 1896.7,1130.5 1894.2,1130.5 1839.1,1130.5 1839.1,1160.6 1896.7,1160.6 1900.3,1160.6 1902.9,1160.6 
	1940.4,1160.6 1992.1,1160.6 2028.8,1160.6 2075,1160.6 2076.4,1160.6 2076.4,1160.6 2082.9,1160.6 2086.9,1160.6 2101.5,1160.6 
	2103.9,1160.6 2105.5,1160.6 2120.2,1160.6 2124.1,1160.6 2138.8,1160.6 2142.8,1160.6 2157.5,1160.6 2161.4,1160.6 2161.4,1160.6 
	2176.1,1160.6 2180.1,1160.6 2194.7,1160.6 2198.7,1160.6 2213.4,1160.6 2217.3,1160.6 2232,1160.6 2236,1160.6 2250.7,1160.6 
	2254.6,1160.6 2259.4,1160.6 2259.4,1147.1 2268.6,1147.1 2275.9,1029.9 "/>
<path class="st1" d="M2171.1,1151.3c-2.5,0-4.8,1-6.5,2.6c-1.7-1.6-4-2.6-6.5-2.6c-2.5,0-4.8,1-6.4,2.5c-1.7-1.6-3.9-2.5-6.4-2.5
	c-5,0-9.1,3.9-9.4,8.9h12.8h5.9h7.1h5.7h13C2180.2,1155.2,2176.1,1151.3,2171.1,1151.3z"/>
<path class="st5" d="M1867.9,900.3v-5.5h0.9v-2.8h-10.3v2.8h0.9v5h-6.5v-5h0.9v-2.8h-10.3v2.8h0.9v5h-7.2v-5h0.9v-2.8h-3.2v-32.3
	h-0.7v-49.7h-0.4v-24.9h4.6v2.9v0h19v0v-9.5h-6.2v-2.9h-17.4v-1h0.7v-2.4h-0.7V772h0.4c0.4,0,0.8-0.4,0.8-0.8c0-0.4-0.4-0.8-0.8-0.8
	h-2.3c-0.4,0-0.8,0.4-0.8,0.8c0,0.4,0.4,0.8,0.8,0.8h0.4v0.4h-0.7v2.4h0.7v1v9.5v24.9h-0.4v49.7h-0.7v32.3h-3.3v2.8h0.9v5h-7.2v-5
	h0.9v-2.8H1812v2.8h0.9v5h-7.2v-5h0.9v-2.8h-10.3v2.8h0.9v5.5v0.5h-10v2.8h0.9v5h-7.2v-5h0.9v-2.8h-10.3v2.8h0.9v5h-6.5v-5h0.9v-2.8
	h-10.3v2.8h0.9v5h-7.2v-5h0.9v-2.8h-10.3v2.8h0.9v5h-7.2v-5h0.9v-2.8h-10.3v2.8h0.9v5h-7.2v-5h0.9v-2.8h-10.3v2.8h0.9v5h-7.2v-5h0.9
	v-2.8h-10.3v-0.5v-5.5h0.9v-2.8h-10.3v2.8h0.9v5h-6.5v-5h0.9v-2.8h-10.3v2.8h0.9v5h-7.2v-5h0.9v-2.8h-3.2v-32.3h-0.7v-49.7h-0.4
	v-24.9h4.6v2.9v0h19v0v-9.5h-6.2v-2.9h-17.4v-1h0.7h0v-2.4h0h-0.7V772h0.4c0.4,0,0.8-0.4,0.8-0.8c0-0.4-0.4-0.8-0.8-0.8h-2.3
	c-0.4,0-0.8,0.4-0.8,0.8c0,0.4,0.4,0.8,0.8,0.8h0.4v0.4h-0.7v2.4h0.7v1v9.5v24.9h-0.4v49.7h-0.7v32.3h-3.3v2.8h0.9v5h-7.2v-5h0.9
	v-2.8h-10.3v2.8h0.9v5h-7.2v-5h0.9v-2.8h-10.3v2.8h0.9v5.5v2.6v5.5h-0.9v2.8h2.7v0.8h-1v2.8h1v1.8h-0.5v2.8h2.8v3.9v79.2h-2.8v2.8v0
	h1.2v2.8h1.5v3.9v0v55h-2.8v2.8v0h1.2v2.8h1.5v3.9v0v50.9h-1.3v2.8h1.3v3h-2.8v2.8h0.7v24.3h2.1h62.7h2.1h17.5v-73.5l16.4-8.6
	c5.5-2.9,12.6-6.2,19.8-6.3c7.5-0.1,15.1,3.3,20.8,6.3l16.4,8.6v73.5h16.5h2.1h0.3h62.4h2.1v-24.3h0.7v-2.8h-2.8v-3h1.3v-2.8h-1.3
	v-50.9v0v-3.9h1.5v-2.8h1.2v0v-2.8h-2.8v-55v0v-3.9h1.5v-2.8h1.2v0v-2.8h-2.8v-79.2v-3.9h2.8v-2.8h-0.6v-1.8h1V912h-1v-0.8h2.7v-2.8
	h-0.9v-5.5V900.3z M1797.2,903.6v4.8h-0.6v-4.8H1797.2z M1694.6,903.6v4.8h-0.8v-4.8H1694.6z"/>
<path class="st1" d="M1636.7,1151.3c-2.5,0-4.8,1-6.5,2.6c-1.7-1.6-4-2.6-6.5-2.6c-2.5,0-4.8,1-6.4,2.5c-1.7-1.6-3.9-2.5-6.4-2.5
	c-5,0-9.1,3.9-9.4,8.9h12.8h5.9h7.1h5.7h13C1645.9,1155.2,1641.8,1151.3,1636.7,1151.3z"/>
<path class="st2" d="M1898.2,1142.7c-5.2,0-9.8,2.1-13.3,5.4c-3.4-3.3-8.1-5.4-13.3-5.4c-5.1,0-9.7,2-13.1,5.2
	c-3.4-3.3-8-5.2-13.1-5.2c-10.3,0-18.6,8.1-19.1,18.2h26.2h12h14.6h11.6h26.5C1916.8,1150.7,1908.5,1142.7,1898.2,1142.7z"/>
<path class="st3" d="M2375.3,1142.7c-5.2,0-9.8,2.1-13.3,5.4c-3.4-3.3-8.1-5.4-13.3-5.4c-5.1,0-9.7,2-13.1,5.2
	c-3.4-3.3-8-5.2-13.1-5.2c-10.3,0-18.6,8.1-19.1,18.2h26.2h12h14.6h11.6h26.5C2393.9,1150.7,2385.6,1142.7,2375.3,1142.7z"/>
<path class="st1" d="M2311.1,1151.3c-2.5,0-4.8,1-6.5,2.6c-1.7-1.6-4-2.6-6.5-2.6c-2.5,0-4.8,1-6.4,2.5c-1.7-1.6-3.9-2.5-6.4-2.5
	c-5,0-9.1,3.9-9.4,8.9h12.8h5.9h7.1h5.7h13C2320.2,1155.2,2316.1,1151.3,2311.1,1151.3z"/>
<path class="st3" d="M1516.5,1142.7c-5.2,0-9.8,2.1-13.3,5.4c-3.4-3.3-8.1-5.4-13.3-5.4c-5.1,0-9.7,2-13.1,5.2
	c-3.4-3.3-8-5.2-13.1-5.2c-10.3,0-18.6,8.1-19.1,18.2h26.2h12h14.6h11.6h26.5C1535.1,1150.7,1526.8,1142.7,1516.5,1142.7z"/>
<path class="st1" d="M1945.4,1151.3c-2.5,0-4.8,1-6.5,2.6c-1.7-1.6-4-2.6-6.5-2.6c-2.5,0-4.8,1-6.4,2.5c-1.7-1.6-3.9-2.5-6.4-2.5
	c-5,0-9.1,3.9-9.4,8.9h12.8h5.9h7.1h5.7h13C1954.5,1155.2,1950.4,1151.3,1945.4,1151.3z"/>
<path class="st1" d="M1795.8,1151.3c-2.5,0-4.8,1-6.5,2.6c-1.7-1.6-4-2.6-6.5-2.6c-2.5,0-4.8,1-6.4,2.5c-1.7-1.6-3.9-2.5-6.4-2.5
	c-5,0-9.1,3.9-9.4,8.9h12.8h5.9h7.1h5.7h13C1804.9,1155.2,1800.8,1151.3,1795.8,1151.3z"/>
<path class="st2" d="M2771.5,1069.2c-0.8-23.6-27.8-18.1-28.2-18.9c-0.4-0.9,22.5-5.9,22.2-6.2c-21.6-20-30.3,3.9-30.5,1.6
	c-0.9-13.9-16.9-16-16.9-16s12.2,17.2,8.2,14.7c-22.6-14.3-33.8,9.2-31.5,8.3c8.8-3.3,30.9,2.1,29.5,2.3c-20.3,3.1-23,26.8-23,26.8
	c17.2-2.8,26.9-13.2,31.1-19.1c-0.9,21.1-3,65.2-5.8,100.4l11.1,0.5l-1.6-91.5c2.6,14.6,15.3,25.1,15.9,23.9
	c11.4-24.4-9.9-35.4-9.3-35.4C2749.6,1060.3,2771.5,1069.5,2771.5,1069.2z"/>
<path class="st1" d="M1983.9,1015.3c-5.6,3.2,11.4-18.2,11.4-18.2s-22.2,2.5-23.5,19.8c-0.2,2.9-12.3-26.7-42.3-2
	c-0.5,0.4,31.4,6.7,30.8,7.7c-0.6,1-38.1-5.8-39.2,23.5c0,0.4,30.4-10.9,40-10.7c0.8,0-28.8,13.6-13,43.9c0.8,1.5,18.4-11.5,22-29.6
	l-2.3,113.3l15.5-0.6c-3.8-43.7-6.7-98.3-8-124.4c5.9,7.3,19.3,20.2,43.2,23.7c0,0-3.8-29.4-32-33.2c-1.9-0.3,28.8-6.9,41-2.9
	C2030.8,1026.7,2015.2,997.6,1983.9,1015.3z"/>
<path class="st1" d="M1965.3,1095.6c-2.6-39.1-47-28.5-47.8-29.9c-0.7-1.4,37-11,36.4-11.5c-36.8-31.9-49.9,8.2-50.3,4.3
	c-2.2-23-28.8-25.6-28.8-25.6s21.1,27.9,14.4,23.9c-38.1-22.5-55.4,17-51.6,15.5c14.4-5.9,51.3,1.8,49,2.2
	c-33.4,6.2-36.7,45.6-36.7,45.6c26.5-5.3,41.8-21.1,49.1-31.4c-2.2,18.7-5.4,48.3-7,77.8l13.5,3l0.7-71.9c0.1,0.7,0.2,1.4,0.3,2.1
	c4,25.4,27.1,43.4,28,41.3c17.7-40.9-18.3-58-17.3-58.1C1928.6,1082.1,1965.4,1096.1,1965.3,1095.6z"/>
<path class="st1" d="M1404.1,1099.4c-6.2-35.2-45.6-21.2-46.3-22.3c-0.8-1.2,32.5-13.7,31.9-14.1c-36.6-25.3-44.6,12.4-45.3,8.9
	c-4.3-20.7-28.7-20.3-28.7-20.3s21.9,23.2,15.4,20.3c-36.9-16.6-48.6,21-45.3,19.2c12.5-6.8,46.8-3.5,44.8-2.8
	c-29.7,8.9-28.8,45.1-28.8,45.1c24.3-7.7,36.6-24.3,42-34.3c-1.7,18.1-4.2,43.7-7.1,65.1l12.7,0.2l-0.3-64c0.6,2.5,1.3,5.5,2.1,8.8
	c6.1,22.7,28.9,36.7,29.6,34.7c11.9-39-22.4-50.9-21.5-51C1369.4,1090.8,1404.2,1099.9,1404.1,1099.4z"/>
</svg>
