<?xml version="1.0" standalone="no"?>
<!DOCTYPE svg PUBLIC "-//W3C//DTD SVG 1.1//EN" "http://www.w3.org/Graphics/SVG/1.1/DTD/svg11.dtd">
<svg xmlns="http://www.w3.org/2000/svg"><metadata>This SVG WebFont was generated by YouWorkForThem.
Â© 2016 Connary Fagen</metadata><defs><font horiz-adv-x="1243" id="ywftsvg"><font-face ascent="1638" bbox="-338 -598 2177.22 1921" cap-height="1434" descent="-410" font-family="" font-stretch="normal" font-weight="500" panose-1="0 0 6 0 0 0 0 0 0 0" underline-position="0" underline-thickness="0" unicode-range="U+0020-FB02" units-per-em="2048" x-height="1004"/><missing-glyph d="M831 1638v-2027h-643v2027h643zM676 1503h-336v-67h133v-76h-135v-66h338v66h-135v76h135v67zM541 1241h-203v-211h338v70h-135v141zM473 1171v-71h-67v71h67zM676 975h-338v-66h135v-75h-135v-68h203v143h135v66zM676 854h-68v-133h-270v-70h338v203zM676 606h-203v-112 h68v45h67v-95h-202v162h-68v-229h338v229zM676 256h-338v-229h338v229zM608 188v-94h-202v94h202zM676 -20h-338v-66h143l-143 -96v-68h338v68h-207l141 96h66v66z" horiz-adv-x="1013"/><glyph d="M674 1475q20 -12 20 -37v-107q0 -18 -11 -24.5t-26 4.5q-59 33 -114 32q-76 0 -102.5 -33.5t-26.5 -105.5v-200h213q31 0 30 -31v-92q0 -31 -30 -31h-213v-819q0 -31 -31 -31h-123q-31 0 -31 31v819h-118q-31 0 -31 31v92q0 31 31 31h118v215q0 289 299 288q87 1 146 -32 zM956.5 1231q-47.5 0 -79 31.5t-31.5 79t31.5 80t79 32.5t79 -32.5t31.5 -80t-31.5 -79t-79 -31.5zM1018 1004q31 0 31 -31v-942q0 -31 -31 -31h-123q-31 0 -31 31v942q0 31 31 31h123z" glyph-name="uniFB01" horiz-adv-x="1140" unicode="fi"/><glyph d="M674 1475q20 -12 20 -37v-107q0 -18 -11 -24.5t-26 4.5q-59 33 -114 32q-76 0 -102.5 -33.5t-26.5 -105.5v-200h213q31 0 30 -31v-92q0 -31 -30 -31h-213v-819q0 -31 -31 -31h-123q-31 0 -31 31v819h-118q-31 0 -31 31v92q0 31 31 31h118v215q0 289 299 288q87 1 146 -32 zM1010 1495q31 0 30 -31v-1433q0 -31 -30 -31h-123q-31 0 -31 31v1433q0 31 31 31h123z" glyph-name="uniFB02" horiz-adv-x="1148" unicode="fl"/><glyph d="M831 1638v-2027h-643v2027h643zM676 1503h-336v-67h133v-76h-135v-66h338v66h-135v76h135v67zM541 1241h-203v-211h338v70h-135v141zM473 1171v-71h-67v71h67zM676 975h-338v-66h135v-75h-135v-68h203v143h135v66zM676 854h-68v-133h-270v-70h338v203zM676 606h-203v-112 h68v45h67v-95h-202v162h-68v-229h338v229zM676 256h-338v-229h338v229zM608 188v-94h-202v94h202zM676 -20h-338v-66h143l-143 -96v-68h338v68h-207l141 96h66v66z" glyph-name=".notdef" horiz-adv-x="1013"/><glyph glyph-name="glyph1" horiz-adv-x="0"/><glyph glyph-name="glyph2" horiz-adv-x="681"/><glyph glyph-name="space" horiz-adv-x="573" unicode=" "/><glyph d="M375 1333l-53 -903q0 -31 -33 -31h-41q-33 0 -33 31l-53 903q-2 49 29.5 83t76.5 34t77 -34t30 -83zM268 -27q-47 0 -79.5 33t-32.5 80t32.5 79t79.5 32t79 -33t32 -78q0 -47 -32 -80t-79 -33z" glyph-name="exclam" horiz-adv-x="536" unicode="!"/><glyph d="M229 1434q31 0 31 -31l-16 -391q0 -31 -31 -31h-78q-27 0 -31 31l-14 391q0 31 31 31h108zM479 1434q31 0 31 -31l-16 -391q0 -31 -31 -31h-78q-27 0 -31 31l-14 391q0 31 31 31h108z" glyph-name="quotedbl" horiz-adv-x="600" unicode="&quot;"/><glyph d="M1020 1001h-141v-405h141q35 0 35 -31v-88q0 -31 -35 -31h-141v-251q0 -31 -31 -31h-113q-31 0 -30 31v251h-226v-251q0 -31 -30 -31h-113q-31 0 -31 31v251h-141q-31 0 -31 31v88q0 31 31 31h141v405h-141q-31 0 -31 31v88q0 31 31 31h141v252q0 31 31 31h113 q31 0 30 -31v-252h226v252q0 31 30 31h113q31 0 31 -31v-252h141q35 0 35 -31v-88q0 -31 -35 -31zM705 596v405h-226v-405h226z" glyph-name="numbersign" horiz-adv-x="1187" unicode="#"/><glyph d="M1038 379q0 -156 -115.5 -266.5t-285.5 -132.5v-134q0 -31 -31 -30h-90q-31 0 -31 30v134q-125 14 -224 72.5t-155 142.5q-14 23 7 41l75 77q20 20 43 -2q166 -158 334 -157q125 0 205 66.5t80 166.5q0 88 -74 148.5t-178 101.5t-208.5 87t-178.5 135t-74 216 q0 145 98.5 246.5t249.5 122.5v143q0 31 31 31h90q31 0 31 -31v-143q197 -29 336 -187q20 -20 0 -43l-68 -73q-23 -25 -43 -4q-147 137 -301 137q-104 0 -171.5 -54.5t-67.5 -146.5q0 -74 53 -128t133 -84t172 -70.5t172 -84.5t133 -128t53 -199z" glyph-name="dollar" horiz-adv-x="1120" unicode="$"/><glyph d="M381 1444q117 0 199 -80t82 -196.5t-82 -197.5t-199 -81q-115 0 -197 81t-82 197.5t82 196.5t197 80zM1151 1438l109 -74l-920 -1368l-109 74zM381 1317q-61 0 -105.5 -43t-44.5 -107q0 -66 44 -108.5t106 -42.5q63 0 108.5 43t45.5 108q0 63 -45.5 106.5t-108.5 43.5z M1110 545q115 0 197 -81t82 -197.5t-81 -196.5t-198 -80t-199 80t-82 196.5t82 197.5t199 81zM1110.5 418q-63.5 0 -108 -43t-44.5 -109q0 -63 44.5 -106t107.5 -43q61 0 106.5 43t45.5 106q0 66 -44 109t-107.5 43z" glyph-name="percent" horiz-adv-x="1490" unicode="%"/><glyph d="M1300 113q20 -23 -2 -45l-67 -68q-23 -23 -43 0l-164 174q-213 -193 -459 -192q-188 0 -321 106.5t-133 294.5q0 139 81.5 237.5t227.5 192.5q-172 186 -172 328q0 127 93 218t243 91q145 0 244.5 -92t99.5 -217q0 -111 -67.5 -195t-188.5 -168l352 -372q72 84 139 192 q16 27 39 10l86 -63q23 -16 4 -41q-82 -127 -157 -215zM420 1139q0 -92 135 -240q98 66 148.5 120t50.5 120q0 63 -49.5 105t-120.5 42q-70 0 -117 -42t-47 -105zM582 154q164 0 329 137l-374 397q-117 -80 -178.5 -148.5t-61.5 -152.5q0 -104 82 -168.5t203 -64.5z" glyph-name="ampersand" horiz-adv-x="1378" unicode="&amp;"/><glyph d="M229 1434q31 0 31 -31l-16 -391q0 -31 -31 -31h-78q-27 0 -31 31l-14 391q0 31 31 31h108z" glyph-name="quotesingle" horiz-adv-x="348" unicode="'"/><glyph d="M485 1526q16 0 22.5 -10.5t-1.5 -26.5q-190 -369 -191 -834q0 -496 193 -884q16 -37 -23 -37h-120q-25 0 -37 20q-205 362 -205 901q0 498 205 850q12 20 37 21h120z" glyph-name="parenleft" horiz-adv-x="634" unicode="("/><glyph d="M150 1526h120q25 0 37 -21q205 -352 205 -850q0 -539 -205 -901q-12 -20 -37 -20h-120q-39 0 -23 37q193 389 192 884q0 465 -190 834q-8 16 -1.5 26.5t22.5 10.5z" glyph-name="parenright" horiz-adv-x="634" unicode=")"/><glyph d="M801 1165l-230 -61l148 -197l-96 -63l-136 194l-135 -194l-96 63l147 197l-229 61l29 113l233 -70l-8 240h117l-4 -240l231 70zM537 1118l-17 58h-65l-15 -60l47 -41z" glyph-name="asterisk" horiz-adv-x="974" unicode="*"/><glyph d="M748 657q31 0 30 -30v-88q0 -31 -30 -31h-216v-219q0 -31 -30 -31h-88q-31 0 -31 31v219h-219q-31 0 -31 31v88q0 31 31 30h219v217q0 31 31 31h88q31 0 30 -31v-217h216z" glyph-name="plus" horiz-adv-x="911" unicode="+"/><glyph d="M209 197q51 0 86 -38t35 -108q0 -80 -44 -183.5t-118 -191.5l-55 37q76 109 86 256q-47 6 -77 38t-30 77q0 47 34 80t83 33z" glyph-name="comma" horiz-adv-x="421" unicode=","/><glyph d="M750 653q31 0 30 -30v-95q0 -31 -30 -30h-607q-31 0 -30 30v95q0 31 30 30h607z" glyph-name="hyphen" horiz-adv-x="882" unicode="-"/><glyph d="M205 -27q-47 0 -80 33t-33 80t33 79t80 32q45 0 77.5 -33t32.5 -78q0 -47 -31.5 -80t-78.5 -33z" glyph-name="period" horiz-adv-x="407" unicode="."/><glyph d="M874 1526q37 0 25 -35l-672 -1733q-10 -25 -37 -24h-120q-37 0 -25 35l672 1732q8 25 37 25h120z" glyph-name="slash" horiz-adv-x="944" unicode="/"/><glyph d="M647 1450q244 0 395.5 -194.5t151.5 -544.5q0 -348 -151.5 -543t-395.5 -195t-395.5 194.5t-151.5 543.5q0 350 151.5 544.5t395.5 194.5zM647 1282q-174 0 -272.5 -153.5t-98.5 -417.5q0 -262 98.5 -416t272.5 -154q172 0 270.5 154t98.5 416t-98.5 416.5t-270.5 154.5z " glyph-name="zero" horiz-adv-x="1294" unicode="0"/><glyph d="M508 1434q31 0 31 -31v-1372q0 -31 -31 -31h-123q-31 0 -31 31v1247h-223q-29 0 -29 31v94q0 31 29 31h377z" glyph-name="one" horiz-adv-x="671" unicode="1"/><glyph d="M942 156q31 0 31 -31v-94q0 -31 -31 -31h-813q-31 0 -31 31v125l310 327q29 31 79 83t71.5 76t59 63.5t53 60t40 52.5t35 52.5t21.5 48t15 51t4 50.5q0 119 -72.5 190.5t-199.5 71.5q-70 0 -133.5 -27.5t-93 -53t-70.5 -66.5q-23 -25 -45 -2l-72 69q-20 20 -2 43 q164 205 418 205q201 0 324 -121t123 -307q0 -131 -78 -244.5t-271 -316.5q-23 -23 -34 -35l-254 -270h616z" glyph-name="two" horiz-adv-x="1073" unicode="2"/><glyph d="M743 766q111 -49 180.5 -143.5t69.5 -221.5q0 -186 -134 -307t-341 -121q-272 0 -428 189q-18 23 2 43l72 65q23 23 45 0q121 -129 305 -129q131 0 216 74t85 191q0 125 -93 198.5t-253 77.5q-31 0 -31 31v86q0 33 33 32q147 4 223 71t76 167q0 96 -72.5 155.5 t-173.5 59.5q-160 0 -274 -131q-20 -25 -45 0l-70 66q-20 20 -2 43q158 188 395 188q168 0 289 -106.5t121 -268.5q0 -98 -53.5 -179t-141.5 -130z" glyph-name="three" horiz-adv-x="1085" unicode="3"/><glyph d="M1026 487q31 0 31 -30v-97q0 -31 -31 -30h-139v-299q0 -31 -31 -31h-123q-31 0 -31 31v299h-589q-31 0 -31 30v107q0 20 10 39l598 907q14 20 37 21h129q31 0 31 -31v-916h139zM702 487v658l-430 -658h430z" glyph-name="four" horiz-adv-x="1148" unicode="4"/><glyph d="M537 944q190 0 328.5 -135t138.5 -340q0 -223 -142.5 -358.5t-353.5 -135.5q-133 0 -239.5 57.5t-159.5 137.5q-18 25 6 41l84 63q25 18 45 -4q106 -127 266 -127q127 0 221 92.5t94 233.5q0 133 -96 223t-213 90q-156 0 -254 -116q-16 -23 -41 -11l-94 37q-27 12 -21 39 l179 676q6 27 32 27h572q31 0 31 -31v-92q0 -31 -31 -31h-471l-105 -399q89 63 224 63z" glyph-name="five" horiz-adv-x="1101" unicode="5"/><glyph d="M547 920q203 0 341 -135.5t138 -335.5q0 -199 -137 -337.5t-336 -138.5t-335 138.5t-136 337.5q0 176 139 358l488 651q20 27 43 6l82 -69q23 -20 6 -43l-330 -434q12 2 37 2zM553 141q127 0 211 87t84 221q0 131 -84 218t-211 87q-125 0 -209 -87t-84 -218 q0 -133 84 -220.5t209 -87.5z" glyph-name="six" horiz-adv-x="1107" unicode="6"/><glyph d="M961 1434q14 0 21 -8.5t3 -22.5l-557 -1372q-14 -31 -37 -31h-121q-14 0 -22 9t-2 22l510 1247h-635q-31 0 -31 31v94q0 31 31 31h840z" glyph-name="seven" horiz-adv-x="1048" unicode="7"/><glyph d="M561.5 -27q-196.5 0 -333 120t-136.5 313q0 137 78 241.5t195 149.5q-88 47 -138.5 128t-50.5 173q0 143 107.5 247.5t277.5 104.5t277.5 -104.5t107.5 -247.5q0 -92 -49 -173t-137 -128q117 -45 193.5 -149.5t76.5 -241.5q0 -193 -136 -313t-332.5 -120zM561 877 q92 0 157.5 63.5t65.5 155.5q-2 88 -63.5 147.5t-159.5 59.5t-159.5 -60.5t-61.5 -146.5q-2 -92 63.5 -155.5t157.5 -63.5zM561 141q127 0 209 74t82 195q0 125 -85 203.5t-206 78.5t-205 -78.5t-84 -203.5q0 -119 81 -194t208 -75z" glyph-name="eight" horiz-adv-x="1122" unicode="8"/><glyph d="M549 1450q199 0 335 -138t136 -337q0 -176 -139 -359l-488 -651q-20 -27 -43 -6l-82 70q-23 20 -6 43l330 434q-12 -2 -37 -2q-203 0 -341 135t-138 336q0 199 137 337t336 138zM549 670q125 0 209 87t84 218q0 133 -84 220t-209 87q-127 0 -211 -87t-84 -220 q0 -131 84 -218t211 -87z" glyph-name="nine" horiz-adv-x="1101" unicode="9"/><glyph d="M205 791q-47 0 -80 32.5t-33 79.5t33 79t80 32q45 0 77.5 -32t32.5 -79t-31.5 -79.5t-78.5 -32.5zM205 -27q-47 0 -80 33t-33 80t33 79t80 32q45 0 77.5 -33t32.5 -78q0 -47 -31.5 -80t-78.5 -33z" glyph-name="colon" horiz-adv-x="407" unicode=":"/><glyph d="M207 791q-47 0 -80 32.5t-33 79.5t33 79t80 32t78.5 -32t31.5 -79t-31.5 -79.5t-78.5 -32.5zM209 197q51 0 86 -38t35 -108q0 -80 -44 -183.5t-118 -191.5l-55 37q76 109 86 256q-47 6 -77 38t-30 77q0 47 34 80t83 33z" glyph-name="semicolon" horiz-adv-x="409" unicode=";"/><glyph d="M899 985q14 8 25.5 1t11.5 -23v-99q0 -25 -23 -37l-622 -317l622 -317q23 -12 23 -37v-99q0 -16 -11.5 -22t-25.5 2l-754 395q-23 12 -22 35v88q0 23 22 35z" glyph-name="less" horiz-adv-x="1038" unicode="&lt;"/><glyph d="M788 799q31 0 31 -31v-88q0 -31 -31 -31h-624q-31 0 -31 31v88q0 31 31 31h624zM788 518q31 0 31 -31v-88q0 -31 -31 -30h-624q-31 0 -31 30v88q0 31 31 31h624z" glyph-name="equal" horiz-adv-x="952" unicode="="/><glyph d="M180 985l754 -395q23 -12 22 -35v-88q0 -23 -22 -35l-754 -395q-16 -8 -26.5 -2t-10.5 22v99q0 25 23 37l622 317l-622 317q-23 12 -23 37v99q0 16 10.5 23t26.5 -1z" glyph-name="greater" horiz-adv-x="1079" unicode=">"/><glyph d="M516 1450q186 0 312 -105.5t126 -267.5q0 -141 -92 -240.5t-280 -185.5l-13 -223q0 -31 -30 -31h-93q-29 0 -28 31l-15 295q0 27 27 35q186 63 261 135t75 174q0 94 -71.5 148.5t-182.5 54.5q-164 0 -315 -135q-37 -33 -64 0l-47 57q-25 33 -2 61q70 88 187.5 142.5 t244.5 54.5zM498 197q47 0 78.5 -33t31.5 -78q0 -47 -31.5 -80t-78.5 -33t-80 33t-33 80t33 79t80 32z" glyph-name="question" horiz-adv-x="1046" unicode="?"/><glyph d="M1219 1040l-43 -436q-16 -137 96 -137q141 0 141 272q0 258 -165 408.5t-400 150.5q-233 0 -409.5 -157.5t-176.5 -427.5q0 -178 88 -313.5t218 -200t278 -64.5q172 0 307 90l117 -90q-188 -152 -422 -151q-299 0 -523.5 202.5t-224.5 526.5q0 332 223.5 534.5 t524.5 202.5t514 -197.5t213 -513.5q0 -209 -94.5 -314.5t-229.5 -105.5q-137 0 -188 101q-100 -90 -240 -90q-162 0 -268 109.5t-106 267t106.5 266t267.5 108.5q164 0 267 -116l30 75h99zM823 471q100 0 166 68.5t66 167t-65.5 166t-166.5 67.5q-104 0 -166.5 -66.5 t-62.5 -167t63.5 -168t165.5 -67.5z" glyph-name="at" horiz-adv-x="1675" unicode="@"/><glyph d="M1288 35q14 -35 -24 -35h-131q-27 0 -35 25l-105 299h-614l-107 -299q-8 -25 -34 -25h-132q-39 0 -24 35l502 1374q10 25 37 25h129q29 0 36 -25zM434 479h504l-252 715z" glyph-name="A" horiz-adv-x="1370" unicode="A"/><glyph d="M848 774q133 -31 214 -128t81 -228q0 -418 -514 -418h-447q-31 0 -30 31v1372q0 31 30 31h449q211 0 315.5 -101.5t104.5 -247.5q0 -111 -53.5 -193.5t-149.5 -117.5zM866 1069q0 190 -252 191h-272v-416h272q119 0 185.5 58t66.5 167zM627 174q322 0 321 256 q0 250 -321 250h-285v-506h285z" glyph-name="B" horiz-adv-x="1232" unicode="B"/><glyph d="M1243 299l82 -84q23 -23 -2 -43q-219 -199 -487 -199q-305 0 -515 215t-210 523q0 309 209.5 524t515.5 215q266 0 487 -197q23 -23 2 -43l-82 -86q-20 -20 -43 0q-166 139 -364 140q-221 0 -376 -159t-155 -394q0 -233 154.5 -392t376.5 -159q199 0 364 139q23 20 43 0z " glyph-name="C" horiz-adv-x="1435" unicode="C"/><glyph d="M524 1434q360 0 556 -201t196 -516.5t-195.5 -516t-556.5 -200.5h-342q-31 0 -30 31v1372q0 31 30 31h342zM524 174q274 0 415.5 142.5t141.5 400.5t-141 400.5t-416 142.5h-182v-1086h182z" glyph-name="D" horiz-adv-x="1374" unicode="D"/><glyph d="M901 174q31 0 31 -31v-112q0 -31 -31 -31h-719q-31 0 -30 31v1372q0 31 30 31h717q31 0 31 -31v-113q0 -31 -31 -30h-557v-418h524q31 0 31 -31v-113q0 -31 -31 -30h-524v-494h559z" glyph-name="E" horiz-adv-x="1064" unicode="E"/><glyph d="M881 1434q31 0 30 -31v-113q0 -31 -30 -30h-539v-418h512q31 0 31 -31v-113q0 -31 -31 -30h-512v-637q0 -31 -31 -31h-129q-31 0 -30 31v1372q0 31 30 31h699z" glyph-name="F" horiz-adv-x="1034" unicode="F"/><glyph d="M1468 760q31 0 31 -31v-80q0 -291 -180 -483.5t-479 -192.5q-309 0 -519 216.5t-210 527.5q0 305 209.5 519t515.5 214q266 0 487 -197q23 -23 2 -43l-82 -86q-20 -20 -43 0q-166 139 -364 140q-221 0 -376 -158t-155 -389q0 -238 152.5 -397.5t380.5 -159.5 q207 0 339 120.5t140 309.5h-459q-31 0 -31 31v108q0 31 31 31h610z" glyph-name="G" horiz-adv-x="1599" unicode="G"/><glyph d="M1139 1434q31 0 30 -31v-1372q0 -31 -30 -31h-129q-31 0 -31 31v594h-637v-594q0 -31 -31 -31h-129q-31 0 -30 31v1372q0 31 30 31h129q31 0 31 -31v-604h637v604q0 31 31 31h129z" glyph-name="H" horiz-adv-x="1320" unicode="H"/><glyph d="M152 1403q0 31 30 31h129q31 0 31 -31v-1372q0 -31 -31 -31h-129q-31 0 -30 31v1372z" glyph-name="I" horiz-adv-x="493" unicode="I"/><glyph d="M170 248q18 23 45 0q100 -84 227 -84q268 0 269 364v875q0 31 30 31h129q31 0 31 -31v-881q0 -274 -119.5 -407t-335.5 -133q-227 0 -344 135q-18 20 -2 43z" glyph-name="J" horiz-adv-x="1052" unicode="J"/><glyph d="M1186 37q10 -16 5 -26.5t-24 -10.5h-157q-25 0 -37 18l-498 670l-133 -147v-510q0 -31 -31 -31h-129q-31 0 -30 31v1372q0 31 30 31h129q31 0 31 -31v-608l549 622q14 16 37 17h168q20 0 24 -11.5t-8 -25.5l-512 -570z" glyph-name="K" horiz-adv-x="1273" unicode="K"/><glyph d="M860 174q31 0 31 -31v-112q0 -31 -31 -31h-678q-31 0 -30 31v1372q0 31 30 31h129q31 0 31 -31v-1229h518z" glyph-name="L" horiz-adv-x="1001" unicode="L"/><glyph d="M1581 1434q31 0 31 -31v-1372q0 -31 -31 -31h-129q-31 0 -31 31v1061l-30 -84l-410 -985q-8 -23 -35 -23h-127q-29 0 -37 23l-409 985l-31 86v-1063q0 -31 -31 -31h-129q-31 0 -30 31v1372q0 31 30 31h162q29 0 37 -21l502 -1196l499 1196q8 20 37 21h162z" glyph-name="M" horiz-adv-x="1763" unicode="M"/><glyph d="M1202 1434q31 0 31 -31v-1372q0 -27 -27 -31h-168q-25 0 -37 20l-659 1133v-1122q0 -31 -31 -31h-129q-31 0 -30 31v1372q0 27 26 31h166q25 0 37 -21l661 -1132v1122q0 31 31 31h129z" glyph-name="N" horiz-adv-x="1384" unicode="N"/><glyph d="M844 -27q-305 0 -519 215t-214 523q0 309 214 524t519 215t519 -215t214 -524q0 -307 -214 -522.5t-519 -215.5zM843.5 160q229.5 0 385 159.5t155.5 391.5q0 236 -155.5 394.5t-385 158.5t-385 -159t-155.5 -394q0 -231 155.5 -391t385 -160z" glyph-name="O" horiz-adv-x="1687" unicode="O"/><glyph d="M578 1434q231 0 360 -125t129 -326t-129 -326t-360 -125h-236v-501q0 -31 -31 -31h-129q-31 0 -30 31v1372q0 31 30 31h396zM569 707q139 0 226.5 66.5t87.5 209.5t-87 210t-227 67h-227v-553h227z" glyph-name="P" horiz-adv-x="1157" unicode="P"/><glyph d="M1419 254l148 -148q23 -20 0 -43l-86 -86q-23 -23 -45 0l-146 148q-197 -152 -446 -152q-305 0 -519 215t-214 523q0 309 214 524t519 215t519 -215t214 -524q0 -256 -158 -457zM844 160q172 0 313 98l-184 184q-20 20 0 43l86 84q23 20 43 0l182 -182q100 143 100 324 q0 236 -155.5 394.5t-385 158.5t-385 -159t-155.5 -394q0 -231 156 -391t385 -160z" glyph-name="Q" horiz-adv-x="1687" unicode="Q"/><glyph d="M1077 37q23 -37 -20 -37h-142q-25 0 -36 20l-338 512h-199v-501q0 -31 -31 -31h-129q-31 0 -30 31v1372q0 31 30 31h396q231 0 360 -125t129 -326q0 -164 -87 -279.5t-247 -152.5zM342 1260v-553h227q139 0 226.5 66.5t87.5 209.5t-87 210t-227 67h-227z" glyph-name="R" horiz-adv-x="1193" unicode="R"/><glyph d="M322 1073q0 -74 53 -128t133 -84t172 -70.5t172 -84.5t133 -128t53 -199q0 -174 -139 -289t-334 -115q-150 0 -272.5 60.5t-186.5 159.5q-14 23 7 41l75 77q20 20 43 -2q166 -158 334 -157q125 0 205 66.5t80 166.5q0 88 -74 148.5t-178 101.5t-208.5 87t-178.5 135 t-74 216q0 164 122 269.5t300 105.5q119 0 227.5 -51t186.5 -142q20 -20 0 -43l-68 -73q-23 -25 -43 -4q-147 137 -301 137q-104 0 -171.5 -54.5t-67.5 -146.5z" glyph-name="S" horiz-adv-x="1138" unicode="S"/><glyph d="M975 1434q31 0 31 -31v-113q0 -31 -31 -30h-322v-1229q0 -31 -30 -31h-129q-31 0 -31 31v1229h-322q-31 0 -30 30v113q0 31 30 31h834z" glyph-name="T" horiz-adv-x="1116" unicode="T"/><glyph d="M1153 1434q31 0 31 -31v-848q0 -279 -143.5 -430.5t-376.5 -151.5q-236 0 -379.5 151.5t-143.5 430.5v848q0 31 31 31h129q31 0 31 -31v-848q0 -197 90 -298t242 -101q150 0 239.5 101t89.5 298v848q0 31 31 31h129z" glyph-name="U" horiz-adv-x="1325" unicode="U"/><glyph d="M1118 1409q8 25 35 25h131q39 0 25 -35l-502 -1374q-8 -25 -37 -25h-129q-27 0 -37 25l-502 1374q-14 35 25 35h131q27 0 35 -25l414 -1169z" glyph-name="V" horiz-adv-x="1411" unicode="V"/><glyph d="M2150 1434q35 0 25 -35l-444 -1374q-8 -25 -37 -25h-138q-31 0 -36 25l-383 1122l-385 -1122q-10 -25 -35 -25h-137q-31 0 -37 25l-441 1374q-14 35 25 35h131q27 0 35 -25l356 -1169l393 1169q2 12 13 18q6 6 20 7h123q10 0 19 -4q8 -6 14 -21l393 -1169l358 1169 q6 25 35 25h133z" glyph-name="W" horiz-adv-x="2277" unicode="W"/><glyph d="M1180 37q10 -16 4 -26.5t-25 -10.5h-137q-25 0 -37 20l-342 549l-342 -549q-12 -20 -37 -20h-137q-18 0 -24.5 10t3.5 27l435 696l-414 664q-10 16 -4 26.5t24 10.5h138q25 0 37 -21l321 -516l322 516q12 20 36 21h138q18 0 24 -10.5t-4 -26.5l-414 -664z" glyph-name="X" horiz-adv-x="1286" unicode="X"/><glyph d="M1122 1434q18 0 24.5 -10.5t-3.5 -26.5l-422 -711v-655q0 -31 -31 -31h-131q-31 0 -31 31v657l-422 709q-10 16 -3.5 26.5t24.5 10.5h137q25 0 37 -21l324 -545l323 545q12 20 37 21h137z" glyph-name="Y" horiz-adv-x="1249" unicode="Y"/><glyph d="M1053 174q31 0 30 -31v-112q0 -31 -30 -31h-901q-31 0 -31 31v123q0 18 12 36l727 1070h-688q-31 0 -31 30v113q0 31 31 31h860q31 0 31 -31v-123q0 -18 -12 -37l-729 -1069h731z" glyph-name="Z" horiz-adv-x="1202" unicode="Z"/><glyph d="M463 1526q31 0 31 -31v-92q0 -31 -31 -31h-148v-1485h148q31 0 31 -30v-93q0 -31 -31 -30h-309q-31 0 -31 30v1731q0 31 31 31h309z" glyph-name="bracketleft" horiz-adv-x="616" unicode="["/><glyph d="M70 1526h120q27 0 37 -25l672 -1732q12 -35 -25 -35h-120q-29 0 -37 24l-672 1733q-12 35 25 35z" glyph-name="backslash" horiz-adv-x="944" unicode="\"/><glyph d="M154 1526h309q31 0 31 -31v-1731q0 -31 -31 -30h-309q-31 0 -31 30v93q0 31 31 30h147v1485h-147q-31 0 -31 31v92q0 31 31 31z" glyph-name="bracketright" horiz-adv-x="616" unicode="]"/><glyph d="M1075 657q8 -14 1 -25t-23 -11h-99q-25 0 -36 22l-318 623l-317 -623q-12 -23 -37 -22h-99q-16 0 -22 11t2 25l395 754q12 23 35 23h88q23 0 35 -23z" glyph-name="asciicircum" horiz-adv-x="1202" unicode="^"/><glyph d="M1116 0q31 0 31 -31v-94q0 -31 -31 -31h-962q-31 0 -31 31v94q0 31 31 31h962z" glyph-name="underscore" horiz-adv-x="1269" unicode="_"/><glyph d="M106 1491h99q25 0 35 -25l122 -258q16 -35 -24 -34h-98q-25 0 -35 24l-123 258q-17 35 24 35z" glyph-name="grave" horiz-adv-x="397" unicode="`"/><glyph d="M1081 1004q31 0 31 -31v-942q0 -31 -31 -31h-108q-27 0 -31 31l-10 121q-125 -166 -342 -166q-211 0 -350.5 149.5t-139.5 364.5q0 221 139.5 372.5t350.5 151.5q219 0 344 -176l8 125q4 31 31 31h108zM608.5 154q141.5 0 234.5 100t93 247.5t-93 251t-235 103.5 q-143 0 -237.5 -100.5t-94.5 -253.5q0 -147 95.5 -247.5t237 -100.5z" glyph-name="a" unicode="a"/><glyph d="M653 1024q211 0 350.5 -151.5t139.5 -372.5q0 -215 -139.5 -364.5t-350.5 -149.5q-217 0 -342 166l-10 -121q-4 -31 -31 -31h-108q-31 0 -31 31v1433q0 31 31 31h123q31 0 30 -31v-608q127 168 338 168zM635 154q141 0 236.5 100t95.5 248q0 154 -94.5 254t-237.5 100 q-141 0 -234.5 -103.5t-93.5 -251t93.5 -247.5t234.5 -100z" glyph-name="b" unicode="b"/><glyph d="M608 154q68 0 123 20.5t83 41t65 56.5q23 23 45 0l69 -65q20 -20 2 -43q-156 -178 -389 -178q-215 0 -360.5 150.5t-145.5 365.5q0 219 145.5 370.5t360.5 151.5q227 0 383 -178q18 -23 -2 -43l-69 -66q-20 -20 -46 0q-45 41 -66.5 57.5t-77.5 39t-120 22.5 q-145 0 -238.5 -101.5t-93.5 -252.5q0 -147 94.5 -247.5t237.5 -100.5z" glyph-name="c" horiz-adv-x="1093" unicode="c"/><glyph d="M1081 1495q31 0 31 -31v-1433q0 -31 -31 -31h-108q-27 0 -31 31l-10 121q-125 -166 -342 -166q-211 0 -350.5 149.5t-139.5 364.5q0 221 139.5 372.5t350.5 151.5t338 -168v608q0 31 30 31h123zM608.5 154q141.5 0 234.5 100t93 247.5t-93 251t-235 103.5 q-143 0 -237.5 -100.5t-94.5 -253.5q0 -147 95.5 -247.5t237 -100.5z" glyph-name="d" unicode="d"/><glyph d="M596 1024q209 0 340 -142.5t131 -340.5q0 -57 -12.5 -82t-48.5 -25h-725q20 -131 113 -210t238.5 -79t258.5 88q23 20 43 3l53 -50q23 -25 0 -47q-147 -154 -375 -153q-223 0 -367.5 150.5t-144.5 369.5t140.5 368.5t355.5 149.5zM596 862q-127 0 -213 -82t-102 -213h624 q-10 129 -96 212t-213 83z" glyph-name="e" horiz-adv-x="1167" unicode="e"/><glyph d="M795 1384q10 -14 -2 -26l-68 -66q-12 -12 -27 -4q-92 55 -151 55q-76 0 -104.5 -33.5t-28.5 -105.5v-200h200q31 0 31 -31v-92q0 -31 -31 -31h-200v-819q0 -31 -31 -31h-123q-31 0 -31 31v819h-118q-31 0 -31 31v92q0 31 31 31h118v215q0 289 303 288q161 0 263 -123z " glyph-name="f" horiz-adv-x="786" unicode="f"/><glyph d="M1081 1004q31 0 31 -31v-955q0 -113 -47 -197.5t-124 -131.5t-164 -71t-179 -24q-238 0 -395 105q-25 14 -10 43l38 72q16 25 41 12q141 -74 314 -74q141 0 245.5 65.5t104.5 202.5v150q-133 -174 -346 -174q-211 0 -350.5 149.5t-139.5 364.5t139.5 364.5t350.5 149.5 t342 -168l6 117q4 31 31 31h112zM608 164q139 0 233.5 103.5t94.5 244.5t-94 243.5t-234 102.5q-141 0 -236.5 -100.5t-95.5 -245.5q0 -147 95.5 -247.5t236.5 -100.5z" glyph-name="g" unicode="g"/><glyph d="M649 1026q162 0 258.5 -104.5t96.5 -300.5v-590q0 -31 -31 -31h-123q-31 0 -31 31v569q0 127 -59.5 193.5t-159.5 66.5q-121 0 -203 -88t-82 -139v-602q0 -31 -30 -31h-123q-31 0 -31 31v1433q0 31 31 31h123q31 0 30 -31v-628q129 190 334 190z" glyph-name="h" horiz-adv-x="1134" unicode="h"/><glyph d="M242 1231q-47 0 -79 31.5t-32 79t32 80t79 32.5t78.5 -32.5t31.5 -80t-31.5 -79t-78.5 -31.5zM150 973q0 31 30 31h123q31 0 31 -31v-942q0 -31 -31 -31h-123q-31 0 -30 31v942z" glyph-name="i" horiz-adv-x="483" unicode="i"/><glyph d="M360 1231q-45 0 -77.5 31.5t-32.5 79t31.5 80t79 32.5t80 -32.5t32.5 -80t-33 -79t-80 -31.5zM301 1004h123q31 0 31 -31v-961q0 -205 -93.5 -308t-259.5 -110q-18 0 -22 19l-37 127q-8 23 16 22q211 12 211 271v940q0 31 31 31z" glyph-name="j" horiz-adv-x="604" unicode="j"/><glyph d="M1028 37q10 -16 5 -26.5t-23 -10.5h-136q-25 0 -36 18l-346 447l-177 -184v-250q0 -31 -30 -31h-123q-31 0 -31 31v1433q0 31 31 31h123q31 0 30 -31v-964l461 487q14 16 37 17h139q20 0 25.5 -10.5t-8.5 -26.5l-367 -385z" glyph-name="k" horiz-adv-x="1097" unicode="k"/><glyph d="M131 1464q0 31 31 31h123q31 0 30 -31v-1433q0 -31 -30 -31h-123q-31 0 -31 31v1433z" glyph-name="l" horiz-adv-x="446" unicode="l"/><glyph d="M1331 1026q166 0 263.5 -104.5t97.5 -300.5v-590q0 -31 -31 -31h-123q-31 0 -31 31v569q0 127 -59 193.5t-160 66.5q-135 0 -209.5 -83t-74.5 -167v-579q0 -31 -31 -31h-123q-31 0 -31 31v569q0 127 -59.5 193.5t-159.5 66.5q-121 0 -203 -88t-82 -139v-602 q0 -31 -30 -31h-123q-31 0 -31 31v942q0 31 31 31h114q27 0 31 -31l8 -137q129 190 334 190q233 0 318 -199q124 199 364 199z" glyph-name="m" horiz-adv-x="1822" unicode="m"/><glyph d="M649 1026q162 0 258.5 -104.5t96.5 -300.5v-590q0 -31 -31 -31h-123q-31 0 -31 31v569q0 127 -59.5 193.5t-159.5 66.5q-121 0 -203 -88t-82 -139v-602q0 -31 -30 -31h-123q-31 0 -31 31v942q0 31 31 31h114q27 0 31 -31l8 -137q129 190 334 190z" glyph-name="n" horiz-adv-x="1134" unicode="n"/><glyph d="M610 -20q-215 0 -362.5 151.5t-147.5 370.5q0 221 147.5 372.5t362.5 151.5q217 0 364.5 -151.5t147.5 -372.5q0 -219 -147.5 -370.5t-364.5 -151.5zM610.5 147q141.5 0 237.5 100.5t96 254t-96 255t-237.5 101.5t-238 -101.5t-96.5 -254.5q0 -152 96.5 -253.5 t238 -101.5z" glyph-name="o" horiz-adv-x="1222" unicode="o"/><glyph d="M653 1024q211 0 350.5 -151.5t139.5 -372.5q0 -215 -139.5 -364.5t-350.5 -149.5t-338 161v-505q0 -31 -30 -31h-123q-31 0 -31 31v1331q0 31 31 31h108q27 0 31 -31l8 -125q125 176 344 176zM635 154q141 0 236.5 100t95.5 248q0 154 -94.5 254t-237.5 100 q-141 0 -234.5 -103.5t-93.5 -251t93.5 -247.5t234.5 -100z" glyph-name="p" unicode="p"/><glyph d="M1081 1004q31 0 31 -31v-1331q0 -31 -31 -31h-123q-31 0 -30 31v505q-127 -162 -338 -161.5t-350.5 150t-139.5 364.5q0 221 139.5 372.5t350.5 151.5q219 0 344 -176l8 125q4 31 31 31h108zM608.5 154q141.5 0 234.5 100t93 247.5t-93 251t-235 103.5 q-143 0 -237.5 -100.5t-94.5 -253.5q0 -147 95.5 -247.5t237 -100.5z" glyph-name="q" unicode="q"/><glyph d="M688 989q18 -12 6 -35l-39 -92q-10 -23 -41 -16q-55 12 -79 12q-94 0 -157 -63.5t-63 -159.5v-604q0 -31 -30 -31h-123q-31 0 -31 31v942q0 31 31 31h112q27 0 31 -31l8 -92q94 145 250 145q78 0 125 -37z" glyph-name="r" horiz-adv-x="737" unicode="r"/><glyph d="M295 743q0 -57 55.5 -94t134 -61.5t157.5 -56t134 -98t55 -165.5q0 -127 -108.5 -207.5t-247.5 -80.5q-119 0 -217 48t-158 119q-18 20 -2 39l54 72q16 20 45 -2q141 -117 272 -117q82 0 132 34t50 97q0 59 -55 99.5t-133 67t-156 57t-133 94t-55 155.5q0 125 95 204 t235 79q88 0 177 -40t150 -112q16 -18 -2 -43l-47 -59q-16 -23 -45 2q-123 98 -227 98q-63 0 -111.5 -31.5t-48.5 -97.5z" glyph-name="s" horiz-adv-x="919" unicode="s"/><glyph d="M623 1004q31 0 30 -31v-92q0 -31 -30 -31h-164v-819q0 -31 -31 -31h-123q-31 0 -31 31v819h-163q-31 0 -31 31v92q0 31 31 31h163v276q0 31 31 31h123q31 0 31 -31v-276h164z" glyph-name="t" horiz-adv-x="733" unicode="t"/><glyph d="M963 1004q31 0 30 -31v-942q0 -31 -30 -31h-115q-27 0 -31 31l-8 121q-121 -178 -315 -179q-174 0 -273.5 105.5t-99.5 304.5v590q0 31 31 31h122q31 0 31 -31v-570q0 -129 61.5 -196.5t165.5 -67.5q121 0 199 84t78 150v600q0 31 31 31h123z" glyph-name="u" horiz-adv-x="1124" unicode="u"/><glyph d="M852 979q8 25 37 25h125q37 0 24 -35l-374 -944q-8 -25 -37 -25h-131q-27 0 -37 25l-375 944q-12 35 25 35h124q29 0 37 -25l291 -768z" glyph-name="v" horiz-adv-x="1122" unicode="v"/><glyph d="M1737 1004q37 0 24 -35l-354 -944q-10 -25 -37 -25h-129q-29 0 -37 25l-282 737l-283 -737q-8 -25 -37 -25h-127q-29 0 -37 25l-354 944q-12 35 25 35h120q29 0 37 -25l277 -770l288 770q6 18 21 20q8 4 16 5h109q8 0 16 -5q14 -2 21 -20l289 -770l276 770q10 25 37 25 h121z" glyph-name="w" horiz-adv-x="1845" unicode="w"/><glyph d="M942 37q10 -16 4 -26.5t-24 -10.5h-140q-25 0 -37 20l-223 351l-225 -351q-14 -20 -37 -20h-139q-18 0 -24.5 10t3.5 27l322 475l-307 455q-10 16 -4 26.5t24 10.5h139q23 0 37 -21l211 -326l209 326q12 20 37 21h139q18 0 24.5 -10.5t-3.5 -26.5l-310 -455z" glyph-name="x" horiz-adv-x="1042" unicode="x"/><glyph d="M1016 1004q37 0 24 -35l-528 -1334q-8 -25 -37 -24h-123q-41 0 -24 35l141 350l-385 973q-12 35 25 35h124q29 0 37 -25l291 -768l291 768q8 25 37 25h127z" glyph-name="y" horiz-adv-x="1124" unicode="y"/><glyph d="M909 973v-101q0 -25 -14 -38l-588 -678h572q31 0 30 -31v-94q0 -31 -30 -31h-758q-31 0 -31 31v102q0 25 14 39l586 678h-569q-31 0 -31 31v92q0 31 31 31h758q30 0 30 -31z" glyph-name="z" horiz-adv-x="999" unicode="z"/><glyph d="M514 1526q31 0 31 -31v-94q0 -31 -31 -31h-41q-33 0 -52.5 -18.5t-19.5 -51.5v-514q0 -20 -12 -38l-61 -101q-14 -20 0 -41l61 -96q12 -23 12 -39v-512q0 -33 19.5 -51.5t52.5 -18.5h41q31 0 31 -30v-95q0 -31 -31 -30h-143q-68 0 -115 45t-47 121v561q0 23 -10 39 l-68 106q-12 23 -2 41l70 111q10 18 10 39v563q0 76 47 121t115 45h143z" glyph-name="braceleft" horiz-adv-x="667" unicode="{"/><glyph d="M141 1608q0 31 31 30h129q31 0 31 -30v-1966q0 -31 -31 -31h-129q-31 0 -31 31v1966z" glyph-name="bar" horiz-adv-x="473" unicode="|"/><glyph d="M100 1526h144q68 0 115 -45t47 -121v-563q0 -20 10 -39l69 -111q10 -18 -2 -41l-67 -106q-10 -16 -10 -39v-561q0 -76 -47.5 -121t-114.5 -45h-144q-31 0 -30 30v95q0 31 30 30h41q33 0 52.5 18.5t19.5 51.5v512q0 16 12 39l62 96q14 20 0 41l-62 101q-12 18 -12 38v514 q0 33 -19.5 51.5t-52.5 18.5h-41q-31 0 -30 31v94q-1 31 30 31z" glyph-name="braceright" horiz-adv-x="614" unicode="}"/><glyph d="M324 725q86 2 181 -75t148 -77q70 2 97 70q8 20 24 19h43q10 2 17.5 -4.5t5.5 -18.5q-8 -88 -62.5 -136t-132.5 -48q-70 0 -128 37.5t-107.5 74.5t-98.5 37q-76 2 -98 -67q-8 -18 -25 -21h-45q-23 4 -20 29q12 88 66.5 135t134.5 45z" glyph-name="asciitilde" horiz-adv-x="962" unicode="~"/><glyph d="M268 1092q47 0 79 -33t32 -80q0 -45 -32 -78t-79 -33t-79.5 32t-32.5 79t32.5 80t79.5 33zM375 -268q2 -49 -30 -83t-77 -34t-76.5 34t-29.5 83l53 903q0 31 33 31h41q33 0 33 -31z" glyph-name="exclamdown" horiz-adv-x="417" unicode="¡"/><glyph d="M993 356q20 -20 2 -43q-135 -154 -342 -172v-192q0 -31 -30 -31h-74q-31 0 -31 31v198q-182 29 -300 169.5t-118 328.5q0 190 118 331.5t300 172.5v254q0 31 31 31h74q31 0 30 -31v-248q201 -18 336 -172q18 -23 -2 -43l-69 -63q-20 -20 -46 0q-2 2 -19 17t-22.5 18 t-21.5 16.5t-25.5 18.5t-27 14.5t-31.5 13.5t-32.5 9t-39.5 7v-684q117 12 226 113q23 23 45 0zM276 645q0 -121 67 -211t175 -117v664q-109 -29 -175.5 -121t-66.5 -215z" glyph-name="cent" horiz-adv-x="1073" unicode="¢"/><glyph d="M594 1264q-96 0 -164 -61.5t-68 -166.5q0 -39 10.5 -78.5t22 -64.5t34 -69t32.5 -68h457q31 0 30 -31v-113q0 -31 -30 -30h-408q6 -45 6 -99q0 -176 -141 -309h600q31 0 31 -31v-112q0 -31 -31 -31h-819q-31 0 -31 31v143q80 45 145.5 126t65.5 192q0 37 -8 90h-174 q-31 0 -31 30v113q0 31 31 31h104q-84 164 -84 295q0 168 122 283.5t292 115.5q246 0 422 -213q25 -29 -2 -61l-45 -58q-23 -31 -64 2q-88 80 -152.5 112t-152.5 32z" glyph-name="sterling" horiz-adv-x="1144" unicode="£"/><glyph d="M1061 975q0 -143 -82 -264l94 -95l-102 -100l-92 92q-125 -92 -277 -92q-154 0 -274 92l-92 -92l-103 100l94 95q-84 117 -84 264q0 152 86 266l-96 96l103 101l94 -95q119 90 272 91q156 0 275 -91l94 95l102 -101l-96 -96q84 -119 84 -266zM264 975q0 -135 98.5 -236.5 t239.5 -101.5t241.5 101.5t100.5 236.5q0 133 -100.5 235.5t-241.5 102.5q-139 0 -238.5 -102.5t-99.5 -235.5z" glyph-name="currency" horiz-adv-x="1206" unicode="¤"/><glyph d="M1143 1397l-422 -711v-14h166q31 0 31 -31v-88q0 -31 -31 -31h-166v-86h166q31 0 31 -30v-89q0 -31 -31 -30h-166v-256q0 -31 -31 -31h-131q-31 0 -31 31v256h-184q-31 0 -31 30v89q0 31 31 30h184v86h-184q-31 0 -31 31v88q0 31 31 31h184v16l-422 709q-10 16 -3.5 26.5 t24.5 10.5h137q25 0 37 -21l324 -545l323 545q12 20 37 21h137q18 0 24.5 -10.5t-3.5 -26.5z" glyph-name="yen" horiz-adv-x="1228" unicode="¥"/><glyph d="M301 1638q31 0 31 -30v-574q0 -31 -31 -30h-129q-31 0 -31 30v574q0 31 31 30h129zM301 246q31 0 31 -31v-573q0 -31 -31 -31h-129q-31 0 -31 31v573q0 31 31 31h129z" glyph-name="brokenbar" horiz-adv-x="473" unicode="¦"/><glyph d="M1278 569q0 -213 -193 -323q-31 -147 -165 -235.5t-312 -88.5q-162 0 -293 66.5t-211 169.5q-25 31 -2 55l54 70q25 33 61 -2q94 -88 183 -132.5t214 -44.5q131 0 209 58.5t78 165.5q0 76 -57.5 131t-142.5 84.5t-185 68.5t-185 80t-142.5 122t-57.5 194q0 215 193 317 q27 143 147.5 228t294.5 85q270 0 453 -213q23 -27 -2 -61l-46 -57q-27 -33 -63 2q-94 82 -167 116.5t-173 34.5q-121 0 -191.5 -53t-70.5 -147q0 -88 80 -146.5t193.5 -96.5t226 -83t192.5 -136.5t80 -228.5zM319 1010q0 -78 62.5 -133.5t159 -90t197 -69.5t192.5 -96.5 t131 -147.5q27 47 26 105q0 80 -62 135t-157.5 90t-196 68.5t-192.5 94t-131 144.5q-29 -45 -29 -100z" glyph-name="section" horiz-adv-x="1368" unicode="§"/><glyph d="M133 1241q-41 0 -71.5 29.5t-30.5 72.5q0 41 30.5 71t71.5 30t72 -30t31 -71q0 -43 -31 -72.5t-72 -29.5zM526 1241q-41 0 -71.5 29.5t-30.5 72.5q0 41 30.5 71t71.5 30t72 -30t31 -71q0 -43 -31 -72.5t-72 -29.5z" glyph-name="dieresis" horiz-adv-x="659" unicode="¨"/><glyph d="M686 279q-244 0 -415 172t-171 413.5t171 413.5t415 172t416 -172t172 -413.5t-172 -413.5t-416 -172zM686 408q188 0 319.5 133t131.5 323.5t-131.5 323.5t-319.5 133t-319 -133t-131 -323.5t131 -323.5t319 -133zM889 649q20 -25 -2 -43q-76 -68 -191 -67 q-135 0 -228 94t-93 231q0 139 93 232.5t228 93.5q113 0 193 -68q20 -18 0 -43l-35 -35q-18 -18 -43 -2q-53 33 -113 33q-86 0 -145 -61.5t-59 -149.5t59 -149.5t145 -61.5q55 0 113 33q25 16 43 -2z" glyph-name="copyright" horiz-adv-x="1374" unicode="©"/><glyph d="M711 1434h116v-736h-116l-21 88q-92 -88 -227 -88q-156 0 -264.5 108.5t-108.5 264.5t108.5 264.5t264.5 108.5q137 0 227 -90zM462.5 834q100.5 0 169 68.5t68.5 168.5t-68.5 170t-169 70t-169 -70t-68.5 -170t68.5 -168.5t169 -68.5z" glyph-name="ordfeminine" horiz-adv-x="917" unicode="ª"/><glyph d="M92 645q0 23 17 37l208 184q14 12 25.5 7t11.5 -25v-80q0 -23 -16 -37l-164 -141l164 -141q16 -14 16 -37v-80q0 -20 -11 -24.5t-26 7.5l-208 183q-16 14 -17 37v110zM406 645q0 23 16 37l209 184q16 12 26.5 7t10.5 -25v-80q0 -23 -17 -37l-164 -141l164 -141 q16 -14 17 -37v-80q0 -20 -10.5 -24.5t-26.5 7.5l-209 183q-16 14 -16 37v110z" glyph-name="guillemotleft" horiz-adv-x="759" unicode="«"/><glyph d="M901 625q31 0 31 -31v-270q0 -31 -31 -31h-121q-31 0 -30 31v145h-596q-31 0 -31 31v94q0 31 31 31h747z" glyph-name="logicalnot" horiz-adv-x="1054" unicode="¬"/><glyph d="M750 653q31 0 30 -30v-95q0 -31 -30 -30h-607q-31 0 -30 30v95q0 31 30 30h607z" glyph-name="uni00AD" horiz-adv-x="839" unicode="­"/><glyph d="M686 1450q244 0 416 -172t172 -413.5t-172 -413.5t-416 -172t-415 172t-171 413.5t171 413.5t415 172zM686 408q188 0 319.5 133t131.5 323.5t-131.5 323.5t-319.5 133t-319 -133t-131 -323.5t131 -323.5t319 -133zM969 963q0 -160 -172 -189l164 -178q18 -23 -11 -23 h-96q-14 0 -23 11l-167 186h-113v-180q0 -16 -19 -17h-79q-18 0 -19 17v551q0 16 19 16h278q113 0 175.5 -50t62.5 -144zM733 874q59 0 90 25t31 64q0 90 -121 90h-182v-179h182z" glyph-name="registered" horiz-adv-x="1374" unicode="®"/><glyph d="M635 1434q31 0 31 -31v-88q0 -31 -31 -31h-574q-31 0 -30 31v88q0 31 30 31h574z" glyph-name="macron" horiz-adv-x="696" unicode="¯"/><glyph d="M424 1473q125 0 212 -87.5t87 -209.5q0 -125 -87 -213.5t-212 -88.5t-213 88.5t-88 213.5q0 123 88 210t213 87zM424 1350q-76 0 -125 -51.5t-49 -122.5q0 -74 49 -125.5t125 -51.5q74 0 124 51.5t50 125.5q0 72 -50 123t-124 51z" glyph-name="degree" horiz-adv-x="845" unicode="°"/><glyph d="M184 508q-31 0 -30 31v88q0 31 30 30h219v217q0 31 31 31h88q31 0 31 -31v-217h215q31 0 31 -30v-88q0 -31 -31 -31h-215v-219q0 -31 -31 -31h-88q-31 0 -31 31v219h-219zM788 150q31 0 31 -31v-88q0 -31 -31 -31h-624q-31 0 -31 31v88q0 31 31 31h624z" glyph-name="plusminus" horiz-adv-x="952" unicode="±"/><glyph d="M264 1442q70 0 121 -46t51 -108q0 -53 -29.5 -96t-109.5 -125l-96 -100h241v-66h-344v66l140 141q57 59 74.5 78.5t31.5 46.5t14 55q0 37 -28.5 63.5t-65.5 26.5q-39 0 -67.5 -26.5t-28.5 -75.5v-29h-76v29q0 72 50 119t122 47z" glyph-name="uni00B2" horiz-adv-x="542" unicode="²"/><glyph d="M279 1440q66 0 114.5 -42t48.5 -98q0 -66 -61 -108q86 -37 86 -135q0 -70 -56.5 -117t-131.5 -47q-82 0 -136.5 55.5t-50.5 130.5h78q-2 -49 28.5 -85t80.5 -36q45 0 77.5 28t32.5 71q0 102 -151 96v61q129 0 129 86q0 33 -26 54.5t-62 21.5q-45 0 -71 -29.5t-26 -82.5 h-76q-2 78 47.5 127t125.5 49z" glyph-name="uni00B3" horiz-adv-x="559" unicode="³"/><glyph d="M291 1491q41 0 24 -35l-122 -258q-10 -25 -35 -24h-99q-41 0 -24 34l123 258q10 25 35 25h98z" glyph-name="acute" horiz-adv-x="350" unicode="´"/><glyph d="M963 1004q31 0 30 -31v-942q0 -31 -30 -31h-115q-27 0 -31 31l-8 121q-121 -178 -315 -179q-115 0 -199 47v-378q0 -31 -31 -31h-123q-31 0 -30 31v1040h10v291q0 31 31 31h122q31 0 31 -31v-570q0 -129 61.5 -196.5t165.5 -67.5q121 0 199 84t78 150v600q0 31 31 31h123 z" glyph-name="uni00B5" horiz-adv-x="1103" unicode="µ"/><glyph d="M580 1434h395q31 0 31 -31v-1372q0 -31 -31 -31h-129q-31 0 -31 31v501h-235q-231 0 -360.5 125t-129.5 326t129.5 326t360.5 125zM1174 1403q0 31 30 31h129q31 0 31 -31v-1372q0 -31 -31 -31h-129q-31 0 -30 31v1372zM588 707h227v553h-227q-139 0 -226.5 -67 t-87.5 -210t87.5 -209.5t226.5 -66.5z" glyph-name="paragraph" horiz-adv-x="1495" unicode="¶"/><glyph d="M205 469q-47 0 -80 33t-33 80t33 78.5t80 31.5q45 0 77.5 -32.5t32.5 -77.5q0 -47 -31.5 -80t-78.5 -33z" glyph-name="periodcentered" horiz-adv-x="417" unicode="·"/><glyph d="M203 -78q70 -4 119 -47t49 -113q0 -119 -96.5 -167t-225.5 -31q-18 2 -18 22v68q0 20 22 20q84 -10 132 11.5t48 66.5q0 41 -52 58.5t-126 -5.5q-25 -10 -24 15v63q0 14 10 25l88 92h150z" glyph-name="cedilla" horiz-adv-x="401" unicode="¸"/><glyph d="M221 1436v-535h-76v461h-55v74h131z" glyph-name="uni00B9" horiz-adv-x="342" unicode="¹"/><glyph d="M462.5 698q-155.5 0 -264 108.5t-108.5 264.5t108.5 264.5t264 108.5t264.5 -108.5t109 -264.5t-109 -264.5t-264.5 -108.5zM462.5 834q100.5 0 169 68.5t68.5 168.5t-68.5 170t-169 70t-169 -70t-68.5 -170t68.5 -168.5t169 -68.5z" glyph-name="ordmasculine" horiz-adv-x="925" unicode="º"/><glyph d="M354 645v-110q0 -23 -16 -37l-209 -183q-14 -12 -25.5 -8t-11.5 25v80q0 23 17 37l163 141l-163 141q-16 14 -17 37v80q0 20 11.5 25.5t25.5 -7.5l209 -184q16 -14 16 -37zM668 645v-110q0 -23 -17 -37l-209 -183q-16 -12 -26 -8t-10 25v80q0 23 16 37l164 141l-164 141 q-16 14 -16 37v80q0 20 10 25.5t26 -7.5l209 -184q17 -14 17 -37z" glyph-name="guillemotright" horiz-adv-x="759" unicode="»"/><glyph d="M213 1436v-535h-76v461h-55v74h131zM1075 1434l-880 -1434h-99l893 1434h86zM1083 535v-316h56v-63h-56v-156h-75v156h-271l271 379h75zM1008 424l-144 -205h144v205z" glyph-name="onequarter" horiz-adv-x="1220" unicode="¼"/><glyph d="M213 1436v-535h-76v461h-55v74h131zM1075 1434l-880 -1434h-99l893 1434h86zM909 541q70 0 121 -46t51 -108q0 -53 -29.5 -96t-109.5 -125l-96 -100h241v-66h-344v66l140 141q57 59 74.5 78.5t32 46t14.5 55.5q0 37 -29 63.5t-66 26.5q-39 0 -67.5 -26.5t-28.5 -75.5v-29 h-76v29q0 72 50 119t122 47z" glyph-name="onehalf" horiz-adv-x="1169" unicode="½"/><glyph d="M268 1440q66 0 115 -42t49 -98q0 -66 -61 -108q86 -37 86 -135q0 -70 -56.5 -117t-132.5 -47q-82 0 -136 55.5t-50 130.5h78q-2 -49 28.5 -85t79.5 -36q45 0 78 28t33 71q0 102 -152 96v61q129 0 129 86q0 33 -25.5 54.5t-62.5 21.5q-45 0 -70.5 -29.5t-25.5 -82.5h-76 q-2 78 47 127t125 49zM1139 1434l-881 -1434h-98l893 1434h86zM1126 535v-316h56v-63h-56v-156h-75v156h-271l271 379h75zM1051 424l-144 -205h144v205z" glyph-name="threequarters" horiz-adv-x="1263" unicode="¾"/><glyph d="M549 868q-45 0 -78 33t-33 78q0 47 32 80t79 33t80 -33t33 -80t-33 -79t-80 -32zM961 -127q27 -33 2 -61q-70 -88 -188 -142.5t-245 -54.5q-186 0 -312 105.5t-126 267.5q0 141 92 240.5t281 185.5l12 223q0 31 31 31h92q29 0 29 -31l14 -295q0 -27 -27 -35 q-186 -63 -260.5 -135t-74.5 -174q0 -94 71.5 -148.5t182.5 -54.5q164 0 315 135q37 33 63 0z" glyph-name="questiondown" horiz-adv-x="1046" unicode="¿"/><glyph d="M592 1567l-123 258q-16 35 25 35h98q25 0 35 -25l123 -258q16 -35 -25 -35h-98q-25 0 -35 25zM1288 35q14 -35 -24 -35h-131q-27 0 -35 25l-105 299h-614l-107 -299q-8 -25 -34 -25h-132q-39 0 -24 35l502 1374q10 25 37 25h129q29 0 36 -25zM434 479h504l-252 715z" glyph-name="Agrave" horiz-adv-x="1370" unicode="À"/><glyph d="M653 1542q-41 0 -24 35l123 258q10 25 34 25h99q41 0 24 -35l-123 -258q-10 -25 -34 -25h-99zM1288 35q14 -35 -24 -35h-131q-27 0 -35 25l-105 299h-614l-107 -299q-8 -25 -34 -25h-132q-39 0 -24 35l502 1374q10 25 37 25h129q29 0 36 -25zM434 479h504l-252 715z" glyph-name="Aacute" horiz-adv-x="1370" unicode="Á"/><glyph d="M438 1597q-20 0 -24 10.5t8 26.5l182 209q14 16 37 17h111q23 0 36 -17l185 -209q12 -16 7 -26.5t-26 -10.5h-80q-23 0 -36 17l-142 164l-141 -164q-14 -16 -37 -17h-80zM1288 35q14 -35 -24 -35h-131q-27 0 -35 25l-105 299h-614l-107 -299q-8 -25 -34 -25h-132 q-39 0 -24 35l502 1374q10 25 37 25h129q29 0 36 -25zM434 479h504l-252 715z" glyph-name="Acircumflex" horiz-adv-x="1370" unicode="Â"/><glyph d="M391 1708q-23 0 -18 27q8 80 57 121.5t125 41.5q49 0 93 -21.5t72 -47t63.5 -47t70.5 -21.5q66 0 88 62q6 18 23 18h41q20 0 20 -20q-8 -82 -58 -126t-122 -44q-80 0 -167 68.5t-136 68.5q-66 0 -88 -62q-6 -18 -23 -18h-41zM1288 35q14 -35 -24 -35h-131q-27 0 -35 25 l-105 299h-614l-107 -299q-8 -25 -34 -25h-132q-39 0 -24 35l502 1374q10 25 37 25h129q29 0 36 -25zM434 479h504l-252 715z" glyph-name="Atilde" horiz-adv-x="1370" unicode="Ã"/><glyph d="M500 1671q-41 0 -72 30t-31 73q0 41 31 70.5t72 29.5t71.5 -29.5t30.5 -70.5q0 -43 -30.5 -73t-71.5 -30zM893 1671q-41 0 -71.5 30t-30.5 73q0 41 30.5 70.5t71.5 29.5t71.5 -29.5t30.5 -70.5q0 -43 -30.5 -73t-71.5 -30zM1288 35q14 -35 -24 -35h-131q-27 0 -35 25 l-105 299h-614l-107 -299q-8 -25 -34 -25h-132q-39 0 -24 35l502 1374q10 25 37 25h129q29 0 36 -25zM434 479h504l-252 715z" glyph-name="Adieresis" horiz-adv-x="1370" unicode="Ä"/><glyph d="M698 1569q-76 0 -127 50t-51 121.5t51.5 122t126.5 50.5q70 0 121 -51.5t51 -121t-51 -120.5t-121 -51zM696.5 1794q-22.5 0 -39 -15.5t-16.5 -38t16.5 -37.5t39 -15t39 15t16.5 37.5t-16.5 38t-39 15.5zM1288 35q14 -35 -24 -35h-131q-27 0 -35 25l-105 299h-614 l-107 -299q-8 -25 -34 -25h-132q-39 0 -24 35l502 1374q10 25 37 25h129q29 0 36 -25zM434 479h504l-252 715z" glyph-name="Aring" horiz-adv-x="1370" unicode="Å"/><glyph d="M1610 174q31 0 30 -31v-112q0 -31 -30 -31h-719q-31 0 -31 31v307h-444l-148 -313q-10 -25 -35 -25h-135q-16 0 -24 10t0 25l665 1374q12 25 37 25h832q31 0 30 -31v-113q0 -31 -30 -30h-557v-418h524q31 0 31 -31v-113q0 -31 -31 -30h-524v-494h559zM494 504h366v782z " glyph-name="AE" horiz-adv-x="1753" unicode="Æ"/><glyph d="M1243 299l82 -84q23 -23 -2 -43q-199 -182 -442 -197l-52 -53q70 -4 119 -47t49 -113q0 -119 -96 -167t-225 -31q-18 2 -19 22v68q0 20 23 20q84 -10 132 11.5t48 66.5q0 41 -52 58.5t-126 -5.5q-25 -10 -25 15v63q0 14 11 25l69 72q-270 37 -448 243.5t-178 487.5 q0 309 209.5 524t515.5 215q266 0 487 -197q23 -23 2 -43l-82 -86q-20 -20 -43 0q-166 139 -364 140q-221 0 -376 -159t-155 -394q0 -233 154.5 -392t376.5 -159q199 0 364 139q23 20 43 0z" glyph-name="Ccedilla" horiz-adv-x="1435" unicode="Ç"/><glyph d="M342 1860h98q25 0 35 -25l123 -258q16 -35 -25 -35h-98q-25 0 -35 25l-123 258q-16 35 25 35zM901 174q31 0 31 -31v-112q0 -31 -31 -31h-719q-31 0 -30 31v1372q0 31 30 31h717q31 0 31 -31v-113q0 -31 -31 -30h-557v-418h524q31 0 31 -31v-113q0 -31 -31 -30h-524v-494 h559z" glyph-name="Egrave" horiz-adv-x="1064" unicode="È"/><glyph d="M733 1860q41 0 25 -35l-123 -258q-10 -25 -35 -25h-98q-41 0 -25 35l123 258q10 25 35 25h98zM901 174q31 0 31 -31v-112q0 -31 -31 -31h-719q-31 0 -30 31v1372q0 31 30 31h717q31 0 31 -31v-113q0 -31 -31 -30h-557v-418h524q31 0 31 -31v-113q0 -31 -31 -30h-524v-494 h559z" glyph-name="Eacute" horiz-adv-x="1064" unicode="É"/><glyph d="M600 1860q23 0 37 -17l184 -209q12 -16 7 -26.5t-25 -10.5h-80q-23 0 -37 17l-141 164l-142 -164q-14 -16 -36 -17h-80q-20 0 -24.5 10.5t7.5 26.5l183 209q14 16 36 17h111zM901 174q31 0 31 -31v-112q0 -31 -31 -31h-719q-31 0 -30 31v1372q0 31 30 31h717q31 0 31 -31 v-113q0 -31 -31 -30h-557v-418h524q31 0 31 -31v-113q0 -31 -31 -30h-524v-494h559z" glyph-name="Ecircumflex" horiz-adv-x="1064" unicode="Ê"/><glyph d="M348 1671q-41 0 -71.5 30t-30.5 73q0 41 30.5 70.5t71.5 29.5t72 -29.5t31 -70.5q0 -43 -31 -73t-72 -30zM741 1671q-41 0 -71.5 30t-30.5 73q0 41 30.5 70.5t71.5 29.5t72 -29.5t31 -70.5q0 -43 -31 -73t-72 -30zM901 174q31 0 31 -31v-112q0 -31 -31 -31h-719 q-31 0 -30 31v1372q0 31 30 31h717q31 0 31 -31v-113q0 -31 -31 -30h-557v-418h524q31 0 31 -31v-113q0 -31 -31 -30h-524v-494h559z" glyph-name="Edieresis" horiz-adv-x="1064" unicode="Ë"/><glyph d="M45 1860h98q25 0 35 -25l123 -258q16 -35 -25 -35h-98q-25 0 -35 25l-123 258q-16 35 25 35zM152 1403q0 31 30 31h129q31 0 31 -31v-1372q0 -31 -31 -31h-129q-31 0 -30 31v1372z" glyph-name="Igrave" horiz-adv-x="493" unicode="Ì"/><glyph d="M436 1860q41 0 25 -35l-123 -258q-10 -25 -35 -25h-98q-41 0 -25 35l123 258q10 25 35 25h98zM152 1403q0 31 30 31h129q31 0 31 -31v-1372q0 -31 -31 -31h-129q-31 0 -30 31v1372z" glyph-name="Iacute" horiz-adv-x="493" unicode="Í"/><glyph d="M303 1860q23 0 37 -17l184 -209q12 -16 7 -26.5t-25 -10.5h-80q-23 0 -37 17l-141 164l-142 -164q-14 -16 -36 -17h-80q-20 0 -24.5 10.5t7.5 26.5l183 209q14 16 37 17h110zM152 1403q0 31 30 31h129q31 0 31 -31v-1372q0 -31 -31 -31h-129q-31 0 -30 31v1372z" glyph-name="Icircumflex" horiz-adv-x="493" unicode="Î"/><glyph d="M51 1671q-41 0 -71.5 30t-30.5 73q0 41 30.5 70.5t71.5 29.5t72 -29.5t31 -70.5q0 -43 -31 -73t-72 -30zM444 1671q-41 0 -71.5 30t-30.5 73q0 41 30.5 70.5t71.5 29.5t72 -29.5t31 -70.5q0 -43 -31 -73t-72 -30zM152 1403q0 31 30 31h129q31 0 31 -31v-1372 q0 -31 -31 -31h-129q-31 0 -30 31v1372z" glyph-name="Idieresis" horiz-adv-x="493" unicode="Ï"/><glyph d="M541 1434q360 0 555.5 -201t195.5 -516.5t-195.5 -516t-555.5 -200.5h-342q-31 0 -31 31v608h-86q-31 0 -31 31v88q0 31 31 30h86v615q0 31 31 31h342zM541 174q274 0 415.5 142.5t141.5 400.5t-141.5 400.5t-415.5 142.5h-183v-472h297q31 0 31 -30v-88q0 -31 -31 -31 h-297v-465h183z" glyph-name="Eth" horiz-adv-x="1390" unicode="Ð"/><glyph d="M387 1708q-23 0 -18 27q8 80 57 121.5t125 41.5q49 0 93 -21.5t71.5 -47t63.5 -47t71 -21.5q66 0 88 62q6 18 23 18h40q20 0 21 -20q-8 -82 -58.5 -126t-121.5 -44q-80 0 -167 68.5t-136 68.5q-66 0 -88 -62q-6 -18 -23 -18h-41zM1202 1434q31 0 31 -31v-1372 q0 -27 -27 -31h-168q-25 0 -37 20l-659 1133v-1122q0 -31 -31 -31h-129q-31 0 -30 31v1372q0 27 26 31h166q25 0 37 -21l661 -1132v1122q0 31 31 31h129z" glyph-name="Ntilde" horiz-adv-x="1384" unicode="Ñ"/><glyph d="M641 1860h98q25 0 35 -25l123 -258q16 -35 -25 -35h-98q-25 0 -35 25l-123 258q-16 35 25 35zM844 -27q-305 0 -519 215t-214 523q0 309 214 524t519 215t519 -215t214 -524q0 -307 -214 -522.5t-519 -215.5zM843.5 160q229.5 0 385 159.5t155.5 391.5 q0 236 -155.5 394.5t-385 158.5t-385 -159t-155.5 -394q0 -231 155.5 -391t385 -160z" glyph-name="Ograve" horiz-adv-x="1687" unicode="Ò"/><glyph d="M1032 1860q41 0 25 -35l-123 -258q-10 -25 -35 -25h-98q-41 0 -25 35l123 258q10 25 35 25h98zM844 -27q-305 0 -519 215t-214 523q0 309 214 524t519 215t519 -215t214 -524q0 -307 -214 -522.5t-519 -215.5zM843.5 160q229.5 0 385 159.5t155.5 391.5 q0 236 -155.5 394.5t-385 158.5t-385 -159t-155.5 -394q0 -231 155.5 -391t385 -160z" glyph-name="Oacute" horiz-adv-x="1687" unicode="Ó"/><glyph d="M899 1860q23 0 37 -17l184 -209q12 -16 7 -26.5t-25 -10.5h-80q-23 0 -37 17l-141 164l-142 -164q-14 -16 -36 -17h-80q-20 0 -24.5 10.5t7.5 26.5l183 209q14 16 36 17h111zM844 -27q-305 0 -519 215t-214 523q0 309 214 524t519 215t519 -215t214 -524 q0 -307 -214 -522.5t-519 -215.5zM843.5 160q229.5 0 385 159.5t155.5 391.5q0 236 -155.5 394.5t-385 158.5t-385 -159t-155.5 -394q0 -231 155.5 -391t385 -160z" glyph-name="Ocircumflex" horiz-adv-x="1687" unicode="Ô"/><glyph d="M702 1898q49 0 93.5 -21.5t72 -47t63.5 -47t70 -21.5q66 0 89 62q6 18 22 18h41q20 0 21 -20q-8 -82 -58.5 -126t-122.5 -44q-80 0 -167 68.5t-136 68.5q-66 0 -88 -62q-6 -18 -22 -18h-41q-23 0 -19 27q8 80 57 121.5t125 41.5zM844 -27q-305 0 -519 215t-214 523 q0 309 214 524t519 215t519 -215t214 -524q0 -307 -214 -522.5t-519 -215.5zM843.5 160q229.5 0 385 159.5t155.5 391.5q0 236 -155.5 394.5t-385 158.5t-385 -159t-155.5 -394q0 -231 155.5 -391t385 -160z" glyph-name="Otilde" horiz-adv-x="1687" unicode="Õ"/><glyph d="M647 1671q-41 0 -71.5 30t-30.5 73q0 41 30.5 70.5t71.5 29.5t72 -29.5t31 -70.5q0 -43 -31 -73t-72 -30zM1040 1671q-41 0 -71.5 30t-30.5 73q0 41 30.5 70.5t71.5 29.5t72 -29.5t31 -70.5q0 -43 -31 -73t-72 -30zM844 -27q-305 0 -519 215t-214 523q0 309 214 524 t519 215t519 -215t214 -524q0 -307 -214 -522.5t-519 -215.5zM843.5 160q229.5 0 385 159.5t155.5 391.5q0 236 -155.5 394.5t-385 158.5t-385 -159t-155.5 -394q0 -231 155.5 -391t385 -160z" glyph-name="Odieresis" horiz-adv-x="1687" unicode="Ö"/><glyph d="M510 582l152 -152q23 -20 0 -43l-62 -63q-23 -18 -45 0l-152 151l-153 -153q-23 -18 -45 0l-62 61q-20 23 0 43l156 156l-156 155q-20 20 0 43l62 62q23 23 45 0l153 -154l154 154q20 23 43 0l64 -64q20 -20 0 -43z" glyph-name="multiply" horiz-adv-x="804" unicode="×"/><glyph d="M1214 1350q166 -96 264.5 -266.5t98.5 -372.5q0 -307 -214 -522.5t-519 -215.5q-117 0 -238 39l-41 -92q-8 -23 -35 -22h-116q-39 0 -23 36l68 148q-160 100 -254 266t-94 363q0 309 214 524t519 215q109 0 219 -33l39 86q8 23 35 23h118q39 0 23 -37zM303 711 q0 -143 62.5 -262t171.5 -195l448 991q-68 18 -141 19q-229 0 -385 -158.5t-156 -394.5zM844 160q229 0 384.5 159.5t155.5 391.5q0 150 -66.5 272.5t-180.5 196.5l-453 -998q80 -22 160 -22z" glyph-name="Oslash" horiz-adv-x="1667" unicode="Ø"/><glyph d="M461 1860h98q25 0 35 -25l123 -258q16 -35 -25 -35h-98q-25 0 -35 25l-123 258q-16 35 25 35zM1153 1434q31 0 31 -31v-848q0 -279 -143.5 -430.5t-376.5 -151.5q-236 0 -379.5 151.5t-143.5 430.5v848q0 31 31 31h129q31 0 31 -31v-848q0 -197 90 -298t242 -101 q150 0 239.5 101t89.5 298v848q0 31 31 31h129z" glyph-name="Ugrave" horiz-adv-x="1325" unicode="Ù"/><glyph d="M852 1860q41 0 25 -35l-123 -258q-10 -25 -35 -25h-98q-41 0 -25 35l123 258q10 25 35 25h98zM1153 1434q31 0 31 -31v-848q0 -279 -143.5 -430.5t-376.5 -151.5q-236 0 -379.5 151.5t-143.5 430.5v848q0 31 31 31h129q31 0 31 -31v-848q0 -197 90 -298t242 -101 q150 0 239.5 101t89.5 298v848q0 31 31 31h129z" glyph-name="Uacute" horiz-adv-x="1325" unicode="Ú"/><glyph d="M719 1860q23 0 37 -17l184 -209q12 -16 7 -26.5t-25 -10.5h-80q-23 0 -37 17l-141 164l-142 -164q-14 -16 -37 -17h-79q-20 0 -24.5 10.5t7.5 26.5l182 209q14 16 37 17h111zM1153 1434q31 0 31 -31v-848q0 -279 -143.5 -430.5t-376.5 -151.5q-236 0 -379.5 151.5 t-143.5 430.5v848q0 31 31 31h129q31 0 31 -31v-848q0 -197 90 -298t242 -101q150 0 239.5 101t89.5 298v848q0 31 31 31h129z" glyph-name="Ucircumflex" horiz-adv-x="1325" unicode="Û"/><glyph d="M467 1671q-41 0 -71.5 30t-30.5 73q0 41 30.5 70.5t71.5 29.5t71.5 -29.5t30.5 -70.5q0 -43 -30.5 -73t-71.5 -30zM860 1671q-41 0 -71.5 30t-30.5 73q0 41 30.5 70.5t71.5 29.5t72 -29.5t31 -70.5q0 -43 -31 -73t-72 -30zM1153 1434q31 0 31 -31v-848 q0 -279 -143.5 -430.5t-376.5 -151.5q-236 0 -379.5 151.5t-143.5 430.5v848q0 31 31 31h129q31 0 31 -31v-848q0 -197 90 -298t242 -101q150 0 239.5 101t89.5 298v848q0 31 31 31h129z" glyph-name="Udieresis" horiz-adv-x="1325" unicode="Ü"/><glyph d="M582 1542q-41 0 -25 35l123 258q10 25 35 25h98q41 0 25 -35l-123 -258q-10 -25 -35 -25h-98zM1122 1434q18 0 24.5 -10.5t-3.5 -26.5l-422 -711v-655q0 -31 -31 -31h-131q-31 0 -31 31v657l-422 709q-10 16 -3.5 26.5t24.5 10.5h137q25 0 37 -21l324 -545l323 545 q12 20 37 21h137z" glyph-name="Yacute" horiz-adv-x="1249" unicode="Ý"/><glyph d="M592 1167q233 0 359 -122.5t126 -327.5t-126 -328t-359 -123h-250v-235q0 -31 -31 -31h-129q-31 0 -30 31v1372q0 31 30 31h129q31 0 31 -31v-236h250zM575 440q317 0 317.5 276.5t-317.5 276.5h-233v-553h233z" glyph-name="Thorn" horiz-adv-x="1157" unicode="Þ"/><glyph d="M821 768q152 -27 240 -121t88 -237q0 -215 -139.5 -312.5t-431.5 -97.5h-117q-31 0 -31 31v90q0 31 31 31h117q203 0 298 59t95 205q0 260 -398 260h-112q-31 0 -31 31v90q0 31 31 30h112q154 0 235 63.5t81 180.5q0 96 -77 148.5t-216 52.5q-145 0 -207.5 -57.5 t-62.5 -163.5v-1020q0 -31 -31 -31h-123q-31 0 -31 31v1020q0 178 121 280.5t334 102.5t342 -95.5t129 -259.5q0 -119 -66.5 -200.5t-179.5 -110.5z" glyph-name="germandbls" horiz-adv-x="1226" unicode="ß"/><glyph d="M508 1137l-123 258q-16 35 25 35h98q25 0 35 -25l123 -258q16 -35 -25 -35h-98q-25 0 -35 25zM1081 1004q31 0 31 -31v-942q0 -31 -31 -31h-108q-27 0 -31 31l-10 121q-125 -166 -342 -166q-211 0 -350.5 149.5t-139.5 364.5q0 221 139.5 372.5t350.5 151.5 q219 0 344 -176l8 125q4 31 31 31h108zM608.5 154q141.5 0 234.5 100t93 247.5t-93 251t-235 103.5q-143 0 -237.5 -100.5t-94.5 -253.5q0 -147 95.5 -247.5t237 -100.5z" glyph-name="agrave" unicode="à"/><glyph d="M569 1112q-41 0 -24 35l123 258q10 25 34 25h99q41 0 24 -35l-123 -258q-10 -25 -34 -25h-99zM1081 1004q31 0 31 -31v-942q0 -31 -31 -31h-108q-27 0 -31 31l-10 121q-125 -166 -342 -166q-211 0 -350.5 149.5t-139.5 364.5q0 221 139.5 372.5t350.5 151.5 q219 0 344 -176l8 125q4 31 31 31h108zM608.5 154q141.5 0 234.5 100t93 247.5t-93 251t-235 103.5q-143 0 -237.5 -100.5t-94.5 -253.5q0 -147 95.5 -247.5t237 -100.5z" glyph-name="aacute" unicode="á"/><glyph d="M354 1167q-20 0 -24 10.5t8 26.5l182 209q14 16 37 17h111q23 0 37 -17l184 -209q12 -16 7 -26.5t-26 -10.5h-79q-23 0 -37 17l-142 164l-141 -164q-14 -16 -37 -17h-80zM1081 1004q31 0 31 -31v-942q0 -31 -31 -31h-108q-27 0 -31 31l-10 121q-125 -166 -342 -166 q-211 0 -350.5 149.5t-139.5 364.5q0 221 139.5 372.5t350.5 151.5q219 0 344 -176l8 125q4 31 31 31h108zM608.5 154q141.5 0 234.5 100t93 247.5t-93 251t-235 103.5q-143 0 -237.5 -100.5t-94.5 -253.5q0 -147 95.5 -247.5t237 -100.5z" glyph-name="acircumflex" unicode="â"/><glyph d="M307 1278q-23 0 -18 27q8 80 57 121.5t125 41.5q78 0 164 -68.5t135 -68.5q66 0 88 62q6 18 23 18h41q20 0 20 -20q-8 -82 -58 -126t-122 -44q-80 0 -167 68.5t-136 68.5q-66 0 -88 -62q-6 -18 -23 -18h-41zM1081 1004q31 0 31 -31v-942q0 -31 -31 -31h-108q-27 0 -31 31 l-10 121q-125 -166 -342 -166q-211 0 -350.5 149.5t-139.5 364.5q0 221 139.5 372.5t350.5 151.5q219 0 344 -176l8 125q4 31 31 31h108zM608.5 154q141.5 0 234.5 100t93 247.5t-93 251t-235 103.5q-143 0 -237.5 -100.5t-94.5 -253.5q0 -147 95.5 -247.5t237 -100.5z" glyph-name="atilde" unicode="ã"/><glyph d="M416 1241q-41 0 -72 29.5t-31 72.5q0 41 31 71t72 30t71.5 -30t30.5 -71q0 -43 -30.5 -72.5t-71.5 -29.5zM809 1241q-41 0 -71.5 29.5t-30.5 72.5q0 41 30.5 71t71.5 30t71.5 -30t30.5 -71q0 -43 -30.5 -72.5t-71.5 -29.5zM1081 1004q31 0 31 -31v-942q0 -31 -31 -31 h-108q-27 0 -31 31l-10 121q-125 -166 -342 -166q-211 0 -350.5 149.5t-139.5 364.5q0 221 139.5 372.5t350.5 151.5q219 0 344 -176l8 125q4 31 31 31h108zM608.5 154q141.5 0 234.5 100t93 247.5t-93 251t-235 103.5q-143 0 -237.5 -100.5t-94.5 -253.5 q0 -147 95.5 -247.5t237 -100.5z" glyph-name="adieresis" unicode="ä"/><glyph d="M614 1139q-76 0 -127 50t-51 121.5t51.5 122t126.5 50.5q70 0 121 -51.5t51 -121t-51 -120.5t-121 -51zM612.5 1364q-22.5 0 -39 -15.5t-16.5 -38t16.5 -38t39 -15.5t39 15.5t16.5 38t-16.5 38t-39 15.5zM1081 1004q31 0 31 -31v-942q0 -31 -31 -31h-108q-27 0 -31 31 l-10 121q-125 -166 -342 -166q-211 0 -350.5 149.5t-139.5 364.5q0 221 139.5 372.5t350.5 151.5q219 0 344 -176l8 125q4 31 31 31h108zM608.5 154q141.5 0 234.5 100t93 247.5t-93 251t-235 103.5q-143 0 -237.5 -100.5t-94.5 -253.5q0 -147 95.5 -247.5t237 -100.5z" glyph-name="aring" unicode="å"/><glyph d="M1434 1024q209 0 340 -142.5t131 -340.5q0 -57 -12.5 -82t-49.5 -25h-725q20 -131 113.5 -210t239 -79t258.5 88q23 20 43 3l53 -50q23 -25 0 -47q-147 -154 -375 -153q-199 0 -338 123v-78q0 -31 -31 -31h-108q-27 0 -31 31l-10 121q-125 -166 -342 -166 q-211 0 -350.5 149.5t-139.5 364.5q0 221 139.5 372.5t350.5 151.5q219 0 344 -176l8 125q4 31 31 31h108q31 0 31 -31v-66q134 117 322 117zM1434 862q-127 0 -213 -82t-103 -213h625q-10 129 -96 212t-213 83zM608.5 154q141.5 0 234.5 100t93 247.5t-93 251t-235 103.5 q-143 0 -237.5 -100.5t-94.5 -253.5q0 -147 95.5 -247.5t237 -100.5z" glyph-name="ae" horiz-adv-x="1984" unicode="æ"/><glyph d="M993 207q20 -20 2 -43q-131 -150 -319 -174l-66 -68q70 -4 119 -47t49 -113q0 -119 -96 -167t-225 -31q-18 2 -19 22v68q0 20 23 20q84 -10 132 11.5t48 66.5q0 41 -52 58.5t-126 -5.5q-25 -10 -25 15v63q0 14 11 25l79 84q-186 27 -307 171t-121 339q0 219 145.5 370.5 t360.5 151.5q227 0 383 -178q18 -23 -2 -43l-69 -66q-20 -20 -46 0q-45 41 -66.5 57.5t-77.5 39t-120 22.5q-145 0 -238.5 -101.5t-93.5 -252.5q0 -147 94.5 -247.5t237.5 -100.5q68 0 123 20.5t83 41t65 56.5q23 23 45 0z" glyph-name="ccedilla" horiz-adv-x="1163" unicode="ç"/><glyph d="M479 1137l-123 258q-16 35 25 35h98q25 0 35 -25l123 -258q16 -35 -25 -35h-98q-25 0 -35 25zM596 1024q209 0 340 -142.5t131 -340.5q0 -57 -12.5 -82t-48.5 -25h-725q20 -131 113 -210t238.5 -79t258.5 88q23 20 43 3l53 -50q23 -25 0 -47q-147 -154 -375 -153 q-223 0 -367.5 150.5t-144.5 369.5t140.5 368.5t355.5 149.5zM596 862q-127 0 -213 -82t-102 -213h624q-10 129 -96 212t-213 83z" glyph-name="egrave" horiz-adv-x="1167" unicode="è"/><glyph d="M541 1112q-41 0 -25 35l123 258q10 25 35 25h98q41 0 25 -35l-123 -258q-10 -25 -35 -25h-98zM596 1024q209 0 340 -142.5t131 -340.5q0 -57 -12.5 -82t-48.5 -25h-725q20 -131 113 -210t238.5 -79t258.5 88q23 20 43 3l53 -50q23 -25 0 -47q-147 -154 -375 -153 q-223 0 -367.5 150.5t-144.5 369.5t140.5 368.5t355.5 149.5zM596 862q-127 0 -213 -82t-102 -213h624q-10 129 -96 212t-213 83z" glyph-name="eacute" horiz-adv-x="1167" unicode="é"/><glyph d="M326 1167q-20 0 -24.5 10.5t7.5 26.5l183 209q14 16 36 17h111q23 0 37 -17l184 -209q12 -16 7 -26.5t-25 -10.5h-80q-23 0 -37 17l-141 164l-142 -164q-14 -16 -36 -17h-80zM596 1024q209 0 340 -142.5t131 -340.5q0 -57 -12.5 -82t-48.5 -25h-725q20 -131 113 -210 t238.5 -79t258.5 88q23 20 43 3l53 -50q23 -25 0 -47q-147 -154 -375 -153q-223 0 -367.5 150.5t-144.5 369.5t140.5 368.5t355.5 149.5zM596 862q-127 0 -213 -82t-102 -213h624q-10 129 -96 212t-213 83z" glyph-name="ecircumflex" horiz-adv-x="1167" unicode="ê"/><glyph d="M387 1241q-41 0 -71.5 29.5t-30.5 72.5q0 41 30.5 71t71.5 30t71.5 -30t30.5 -71q0 -43 -30.5 -72.5t-71.5 -29.5zM780 1241q-41 0 -71.5 29.5t-30.5 72.5q0 41 30.5 71t71.5 30t72 -30t31 -71q0 -43 -31 -72.5t-72 -29.5zM596 1024q209 0 340 -142.5t131 -340.5 q0 -57 -12.5 -82t-48.5 -25h-725q20 -131 113 -210t238.5 -79t258.5 88q23 20 43 3l53 -50q23 -25 0 -47q-147 -154 -375 -153q-223 0 -367.5 150.5t-144.5 369.5t140.5 368.5t355.5 149.5zM596 862q-127 0 -213 -82t-102 -213h624q-10 129 -96 212t-213 83z" glyph-name="edieresis" horiz-adv-x="1167" unicode="ë"/><glyph d="M10 1430h99q25 0 34 -25l123 -258q16 -35 -24 -35h-99q-25 0 -34 25l-123 258q-17 35 24 35zM121 973q0 31 31 31h122q31 0 31 -31v-942q0 -31 -31 -31h-122q-31 0 -31 31v942z" glyph-name="igrave" horiz-adv-x="425" unicode="ì"/><glyph d="M401 1430q41 0 25 -35l-123 -258q-10 -25 -35 -25h-98q-41 0 -25 35l123 258q10 25 35 25h98zM121 973q0 31 31 31h122q31 0 31 -31v-942q0 -31 -31 -31h-122q-31 0 -31 31v942z" glyph-name="iacute" horiz-adv-x="425" unicode="í"/><glyph d="M268 1430q23 0 37 -17l184 -209q12 -16 7.5 -26.5t-25.5 -10.5h-80q-23 0 -37 17l-141 164l-141 -164q-14 -16 -37 -17h-80q-20 0 -24.5 10.5t8.5 26.5l182 209q14 16 37 17h110zM121 973q0 31 31 31h122q31 0 31 -31v-942q0 -31 -31 -31h-122q-31 0 -31 31v942z" glyph-name="icircumflex" horiz-adv-x="425" unicode="î"/><glyph d="M16 1241q-41 0 -71.5 29.5t-30.5 72.5q0 41 30.5 71t71.5 30t72 -30t31 -71q0 -43 -31 -72.5t-72 -29.5zM410 1241q-41 0 -72 29.5t-31 72.5q0 41 31 71t72 30t71.5 -30t30.5 -71q0 -43 -30.5 -72.5t-71.5 -29.5zM121 973q0 31 31 31h122q31 0 31 -31v-942q0 -31 -31 -31 h-122q-31 0 -31 31v942z" glyph-name="idieresis" horiz-adv-x="425" unicode="ï"/><glyph d="M1149 1300q33 4 33 -28v-80q0 -29 -29 -33l-41 -6v-1122q0 -31 -31 -31h-108q-27 0 -31 31l-10 121q-125 -166 -342 -166q-211 0 -350.5 149.5t-139.5 364.5q0 221 139.5 372.5t350.5 151.5t338 -168v272l-183 -24q-33 -4 -32 29v79q0 29 28 33l187 25v194q0 31 30 31 h123q31 0 31 -31v-168zM608.5 154q141.5 0 234.5 100t93 247.5t-93 251t-235 103.5q-143 0 -237.5 -100.5t-94.5 -253.5q0 -147 95.5 -247.5t237 -100.5z" glyph-name="eth" horiz-adv-x="1212" unicode="ð"/><glyph d="M262 1278q-23 0 -18 27q8 80 57 121.5t125 41.5q78 0 164 -68.5t135 -68.5q66 0 88 62q6 18 23 18h41q20 0 20 -20q-8 -82 -58.5 -126t-121.5 -44q-80 0 -167 68.5t-136 68.5q-66 0 -88 -62q-6 -18 -23 -18h-41zM649 1026q162 0 258.5 -104.5t96.5 -300.5v-590 q0 -31 -31 -31h-123q-31 0 -31 31v569q0 127 -59.5 193.5t-159.5 66.5q-121 0 -203 -88t-82 -139v-602q0 -31 -30 -31h-123q-31 0 -31 31v942q0 31 31 31h114q27 0 31 -31l8 -137q129 190 334 190z" glyph-name="ntilde" horiz-adv-x="1134" unicode="ñ"/><glyph d="M408 1430h98q25 0 35 -25l123 -258q16 -35 -25 -35h-98q-25 0 -35 25l-123 258q-16 35 25 35zM610 -20q-215 0 -362.5 151.5t-147.5 370.5q0 221 147.5 372.5t362.5 151.5q217 0 364.5 -151.5t147.5 -372.5q0 -219 -147.5 -370.5t-364.5 -151.5zM610.5 147 q141.5 0 237.5 100.5t96 254t-96 255t-237.5 101.5t-238 -101.5t-96.5 -254.5q0 -152 96.5 -253.5t238 -101.5z" glyph-name="ograve" horiz-adv-x="1222" unicode="ò"/><glyph d="M799 1430q41 0 24 -35l-123 -258q-10 -25 -34 -25h-99q-41 0 -24 35l123 258q10 25 34 25h99zM610 -20q-215 0 -362.5 151.5t-147.5 370.5q0 221 147.5 372.5t362.5 151.5q217 0 364.5 -151.5t147.5 -372.5q0 -219 -147.5 -370.5t-364.5 -151.5zM610.5 147 q141.5 0 237.5 100.5t96 254t-96 255t-237.5 101.5t-238 -101.5t-96.5 -254.5q0 -152 96.5 -253.5t238 -101.5z" glyph-name="oacute" horiz-adv-x="1222" unicode="ó"/><glyph d="M666 1430q23 0 36 -17l185 -209q12 -16 7 -26.5t-26 -10.5h-80q-23 0 -36 17l-142 164l-141 -164q-14 -16 -37 -17h-80q-20 0 -24 10.5t8 26.5l182 209q14 16 37 17h111zM610 -20q-215 0 -362.5 151.5t-147.5 370.5q0 221 147.5 372.5t362.5 151.5q217 0 364.5 -151.5 t147.5 -372.5q0 -219 -147.5 -370.5t-364.5 -151.5zM610.5 147q141.5 0 237.5 100.5t96 254t-96 255t-237.5 101.5t-238 -101.5t-96.5 -254.5q0 -152 96.5 -253.5t238 -101.5z" glyph-name="ocircumflex" horiz-adv-x="1222" unicode="ô"/><glyph d="M469 1468q49 0 93 -21.5t72 -47t63.5 -47t70.5 -21.5q66 0 88 62q6 18 23 18h41q20 0 20 -20q-8 -82 -58.5 -126t-121.5 -44q-80 0 -167 68.5t-136 68.5q-66 0 -88 -62q-6 -18 -23 -18h-41q-23 0 -18 27q8 80 57 121.5t125 41.5zM610 -20q-215 0 -362.5 151.5 t-147.5 370.5q0 221 147.5 372.5t362.5 151.5q217 0 364.5 -151.5t147.5 -372.5q0 -219 -147.5 -370.5t-364.5 -151.5zM610.5 147q141.5 0 237.5 100.5t96 254t-96 255t-237.5 101.5t-238 -101.5t-96.5 -254.5q0 -152 96.5 -253.5t238 -101.5z" glyph-name="otilde" horiz-adv-x="1222" unicode="õ"/><glyph d="M414 1241q-41 0 -72 29.5t-31 72.5q0 41 31 71t72 30t71.5 -30t30.5 -71q0 -43 -30.5 -72.5t-71.5 -29.5zM807 1241q-41 0 -71.5 29.5t-30.5 72.5q0 41 30.5 71t71.5 30t71.5 -30t30.5 -71q0 -43 -30.5 -72.5t-71.5 -29.5zM610 -20q-215 0 -362.5 151.5t-147.5 370.5 q0 221 147.5 372.5t362.5 151.5q217 0 364.5 -151.5t147.5 -372.5q0 -219 -147.5 -370.5t-364.5 -151.5zM610.5 147q141.5 0 237.5 100.5t96 254t-96 255t-237.5 101.5t-238 -101.5t-96.5 -254.5q0 -152 96.5 -253.5t238 -101.5z" glyph-name="odieresis" horiz-adv-x="1222" unicode="ö"/><glyph d="M479 754q-47 0 -79.5 32.5t-32.5 79.5t32.5 79t79.5 32q45 0 78 -32t33 -79t-32 -79.5t-79 -32.5zM788 657q31 0 31 -30v-88q0 -31 -31 -31h-624q-31 0 -31 31v88q0 31 31 30h624zM479 156q-47 0 -79.5 32.5t-32.5 79.5t32.5 79t79.5 32q45 0 78 -32t33 -79t-32 -79.5 t-79 -32.5z" glyph-name="divide" horiz-adv-x="952" unicode="÷"/><glyph d="M885 948q109 -70 173 -187.5t64 -258.5q0 -219 -147.5 -370.5t-364.5 -151.5q-76 0 -153 22l-56 -123q-10 -23 -34 -22h-99q-39 0 -22 37l78 174q-102 70 -163 184.5t-61 249.5q0 221 147.5 372.5t362.5 151.5q74 0 140 -18l51 112q10 23 35 23h98q39 0 22 -37zM276 502 q0 -172 119 -277l285 627q-33 6 -70 6q-141 0 -237.5 -101t-96.5 -255zM610 147q141 0 237.5 100.5t96.5 254.5q0 186 -131 286l-285 -630q41 -11 82 -11z" glyph-name="oslash" horiz-adv-x="1202" unicode="ø"/><glyph d="M453 1137l-123 258q-16 35 24 35h99q25 0 34 -25l123 -258q16 -35 -24 -35h-99q-24 0 -34 25zM963 1004q31 0 30 -31v-942q0 -31 -30 -31h-115q-27 0 -31 31l-8 121q-121 -178 -315 -179q-174 0 -273.5 105.5t-99.5 304.5v590q0 31 31 31h122q31 0 31 -31v-570 q0 -129 61.5 -196.5t165.5 -67.5q121 0 199 84t78 150v600q0 31 31 31h123z" glyph-name="ugrave" horiz-adv-x="1124" unicode="ù"/><glyph d="M514 1112q-41 0 -25 35l123 258q10 25 35 25h98q41 0 25 -35l-123 -258q-10 -25 -35 -25h-98zM963 1004q31 0 30 -31v-942q0 -31 -30 -31h-115q-27 0 -31 31l-8 121q-121 -178 -315 -179q-174 0 -273.5 105.5t-99.5 304.5v590q0 31 31 31h122q31 0 31 -31v-570 q0 -129 61.5 -196.5t165.5 -67.5q121 0 199 84t78 150v600q0 31 31 31h123z" glyph-name="uacute" horiz-adv-x="1124" unicode="ú"/><glyph d="M299 1167q-20 0 -24.5 10.5t8.5 26.5l182 209q14 16 37 17h110q23 0 37 -17l185 -209q12 -16 7 -26.5t-26 -10.5h-80q-23 0 -37 17l-141 164l-141 -164q-14 -16 -37 -17h-80zM963 1004q31 0 30 -31v-942q0 -31 -30 -31h-115q-27 0 -31 31l-8 121q-121 -178 -315 -179 q-174 0 -273.5 105.5t-99.5 304.5v590q0 31 31 31h122q31 0 31 -31v-570q0 -129 61.5 -196.5t165.5 -67.5q121 0 199 84t78 150v600q0 31 31 31h123z" glyph-name="ucircumflex" horiz-adv-x="1124" unicode="û"/><glyph d="M360 1241q-41 0 -71.5 29.5t-30.5 72.5q0 41 30.5 71t71.5 30t72 -30t31 -71q0 -43 -31 -72.5t-72 -29.5zM754 1241q-41 0 -72 29.5t-31 72.5q0 41 31 71t72 30t71.5 -30t30.5 -71q0 -43 -30.5 -72.5t-71.5 -29.5zM963 1004q31 0 30 -31v-942q0 -31 -30 -31h-115 q-27 0 -31 31l-8 121q-121 -178 -315 -179q-174 0 -273.5 105.5t-99.5 304.5v590q0 31 31 31h122q31 0 31 -31v-570q0 -129 61.5 -196.5t165.5 -67.5q121 0 199 84t78 150v600q0 31 31 31h123z" glyph-name="udieresis" horiz-adv-x="1124" unicode="ü"/><glyph d="M750 1430q41 0 24 -35l-123 -258q-10 -25 -35 -25h-98q-41 0 -24 35l122 258q10 25 35 25h99zM1016 1004q37 0 24 -35l-528 -1334q-8 -25 -37 -24h-123q-41 0 -24 35l141 350l-385 973q-12 35 25 35h124q29 0 37 -25l291 -768l291 768q8 25 37 25h127z" glyph-name="yacute" horiz-adv-x="1124" unicode="ý"/><glyph d="M666 1024q211 0 350 -151.5t139 -372.5q0 -215 -139 -364.5t-350 -149.5h-7h-6q-201 0 -325 147v-491q0 -31 -31 -31h-123q-31 0 -31 31v364q-12 6 -12 25v1433q0 31 31 31h123q31 0 30 -31v-520l7 -80q125 160 331 160h6h7zM319 502q0 -147 91.5 -246.5t230.5 -101.5 q139 2 232.5 102t93.5 246q0 152 -92.5 251t-233.5 103q-139 -2 -230.5 -105.5t-91.5 -248.5z" glyph-name="thorn" horiz-adv-x="1234" unicode="þ"/><glyph d="M365 1241q-41 0 -72 29.5t-31 72.5q0 41 31 71t72 30t71.5 -30t30.5 -71q0 -43 -30.5 -72.5t-71.5 -29.5zM758 1241q-41 0 -72 29.5t-31 72.5q0 41 31 71t72 30t71.5 -30t30.5 -71q0 -43 -30.5 -72.5t-71.5 -29.5zM1016 1004q37 0 24 -35l-528 -1334q-8 -25 -37 -24h-123 q-41 0 -24 35l141 350l-385 973q-12 35 25 35h124q29 0 37 -25l291 -768l291 768q8 25 37 25h127z" glyph-name="ydieresis" horiz-adv-x="1124" unicode="ÿ"/><glyph d="M410 1710q-31 0 -31 31v88q0 31 31 31h573q31 0 31 -31v-88q0 -31 -31 -31h-573zM1288 35q14 -35 -24 -35h-131q-27 0 -35 25l-105 299h-614l-107 -299q-8 -25 -34 -25h-132q-39 0 -24 35l502 1374q10 25 37 25h129q29 0 36 -25zM434 479h504l-252 715z" glyph-name="Amacron" horiz-adv-x="1370" unicode="Ā"/><glyph d="M326 1280q-31 0 -31 31v88q0 31 31 31h573q31 0 31 -31v-88q0 -31 -31 -31h-573zM1081 1004q31 0 31 -31v-942q0 -31 -31 -31h-108q-27 0 -31 31l-10 121q-125 -166 -342 -166q-211 0 -350.5 149.5t-139.5 364.5q0 221 139.5 372.5t350.5 151.5q219 0 344 -176l8 125 q4 31 31 31h108zM608.5 154q141.5 0 234.5 100t93 247.5t-93 251t-235 103.5q-143 0 -237.5 -100.5t-94.5 -253.5q0 -147 95.5 -247.5t237 -100.5z" glyph-name="amacron" unicode="ā"/><glyph d="M696 1585q-123 0 -201.5 69.5t-88.5 176.5q-4 31 28 31h62q27 0 32 -29q12 -57 56.5 -93t112 -36t111.5 36t56 93q6 29 33 29h61q33 0 29 -31q-10 -106 -89 -176t-202 -70zM1288 35q14 -35 -24 -35h-131q-27 0 -35 25l-105 299h-614l-107 -299q-8 -25 -34 -25h-132 q-39 0 -24 35l502 1374q10 25 37 25h129q29 0 36 -25zM434 479h504l-252 715z" glyph-name="Abreve" horiz-adv-x="1370" unicode="Ă"/><glyph d="M612 1155q-123 0 -201.5 69.5t-88.5 176.5q-2 31 28 31h62q27 0 32 -29q12 -57 56.5 -93t112 -36t111.5 36t56 93q6 29 33 29h61q31 0 29 -31q-10 -106 -89 -176t-202 -70zM1081 1004q31 0 31 -31v-942q0 -31 -31 -31h-108q-27 0 -31 31l-10 121q-125 -166 -342 -166 q-211 0 -350.5 149.5t-139.5 364.5q0 221 139.5 372.5t350.5 151.5q219 0 344 -176l8 125q4 31 31 31h108zM608.5 154q141.5 0 234.5 100t93 247.5t-93 251t-235 103.5q-143 0 -237.5 -100.5t-94.5 -253.5q0 -147 95.5 -247.5t237 -100.5z" glyph-name="abreve" unicode="ă"/><glyph d="M1288 35q14 -35 -24 -35q-96 0 -159 -56.5t-63 -121.5q0 -63 43 -91t123 -12v-125q-39 -18 -93 -18t-106.5 17.5t-89 66.5t-36.5 123q0 92 58 160.5t146 107.5l-94 273h-614l-107 -299q-8 -25 -34 -25h-132q-39 0 -24 35l502 1374q10 25 37 25h129q29 0 36 -25zM434 479 h504l-252 715z" glyph-name="Aogonek" horiz-adv-x="1370" unicode="Ą"/><glyph d="M1081 1004q31 0 31 -31v-942q0 -31 -31 -31h-6q-102 0 -161.5 -55.5t-59.5 -122.5q0 -63 43 -91t123 -12v-125q-39 -18 -93.5 -18t-106.5 17.5t-89 66.5t-37 123q0 102 71 174t173 109l-6 86q-125 -166 -342 -166q-211 0 -350.5 149.5t-139.5 364.5q0 221 139.5 372.5 t350.5 151.5q219 0 344 -176l8 125q4 31 31 31h108zM608.5 154q141.5 0 234.5 100t93 247.5t-93 251t-235 103.5q-143 0 -237.5 -100.5t-94.5 -253.5q0 -147 95.5 -247.5t237 -100.5z" glyph-name="aogonek" horiz-adv-x="1224" unicode="ą"/><glyph d="M1010 1860q41 0 24 -35l-123 -258q-10 -25 -34 -25h-99q-41 0 -24 35l123 258q10 25 34 25h99zM1243 299l82 -84q23 -23 -2 -43q-219 -199 -487 -199q-305 0 -515 215t-210 523q0 309 209.5 524t515.5 215q266 0 487 -197q23 -23 2 -43l-82 -86q-20 -20 -43 0 q-166 139 -364 140q-221 0 -376 -159t-155 -394q0 -233 154.5 -392t376.5 -159q199 0 364 139q23 20 43 0z" glyph-name="Cacute" horiz-adv-x="1435" unicode="Ć"/><glyph d="M809 1491q41 0 25 -35l-123 -258q-10 -25 -35 -24h-98q-41 0 -25 34l123 258q10 25 35 25h98zM608 154q68 0 123 20.5t83 41t65 56.5q23 23 45 0l69 -65q20 -20 2 -43q-156 -178 -389 -178q-215 0 -360.5 150.5t-145.5 365.5q0 219 145.5 370.5t360.5 151.5 q227 0 383 -178q18 -23 -2 -43l-69 -66q-20 -20 -46 0q-45 41 -66.5 57.5t-77.5 39t-120 22.5q-145 0 -238.5 -101.5t-93.5 -252.5q0 -147 94.5 -247.5t237.5 -100.5z" glyph-name="cacute" horiz-adv-x="1163" unicode="ć"/><glyph d="M821 1671q-41 0 -71.5 30t-30.5 73q0 41 30.5 70.5t71.5 29.5t72 -29.5t31 -70.5q0 -43 -31 -73t-72 -30zM1243 299l82 -84q23 -23 -2 -43q-219 -199 -487 -199q-305 0 -515 215t-210 523q0 309 209.5 524t515.5 215q266 0 487 -197q23 -23 2 -43l-82 -86q-20 -20 -43 0 q-166 139 -364 140q-221 0 -376 -159t-155 -394q0 -233 154.5 -392t376.5 -159q199 0 364 139q23 20 43 0z" glyph-name="Cdotaccent" horiz-adv-x="1435" unicode="Ċ"/><glyph d="M614 1241q-41 0 -71.5 29.5t-30.5 72.5q0 41 30.5 71t71.5 30t72 -30t31 -71q0 -43 -31 -72.5t-72 -29.5zM608 154q68 0 123 20.5t83 41t65 56.5q23 23 45 0l69 -65q20 -20 2 -43q-156 -178 -389 -178q-215 0 -360.5 150.5t-145.5 365.5q0 219 145.5 370.5t360.5 151.5 q227 0 383 -178q18 -23 -2 -43l-69 -66q-20 -20 -46 0q-45 41 -66.5 57.5t-77.5 39t-120 22.5q-145 0 -238.5 -101.5t-93.5 -252.5q0 -147 94.5 -247.5t237.5 -100.5z" glyph-name="cdotaccent" horiz-adv-x="1163" unicode="ċ"/><glyph d="M877 1597h-111q-23 0 -37 17l-182 209q-12 16 -8 26.5t24 10.5h80q23 0 37 -17l141 -164l142 164q14 16 36 17h80q20 0 25.5 -10.5t-6.5 -26.5l-185 -209q-13 -17 -36 -17zM1243 299l82 -84q23 -23 -2 -43q-219 -199 -487 -199q-305 0 -515 215t-210 523q0 309 209.5 524 t515.5 215q266 0 487 -197q23 -23 2 -43l-82 -86q-20 -20 -43 0q-166 139 -364 140q-221 0 -376 -159t-155 -394q0 -233 154.5 -392t376.5 -159q199 0 364 139q23 20 43 0z" glyph-name="Ccaron" horiz-adv-x="1435" unicode="Č"/><glyph d="M627 1171h-111q-23 0 -37 17l-182 209q-12 16 -8 26.5t24 10.5h80q23 0 37 -17l141 -164l142 164q14 16 37 17h79q20 0 25.5 -10.5t-6.5 -26.5l-184 -209q-14 -17 -37 -17zM608 154q68 0 123 20.5t83 41t65 56.5q23 23 45 0l69 -65q20 -20 2 -43q-156 -178 -389 -178 q-215 0 -360.5 150.5t-145.5 365.5q0 219 145.5 370.5t360.5 151.5q227 0 383 -178q18 -23 -2 -43l-69 -66q-20 -20 -46 0q-45 41 -66.5 57.5t-77.5 39t-120 22.5q-145 0 -238.5 -101.5t-93.5 -252.5q0 -147 94.5 -247.5t237.5 -100.5z" glyph-name="ccaron" horiz-adv-x="1163" unicode="č"/><glyph d="M575 1614l-182 209q-12 16 -8 26.5t25 10.5h79q23 0 37 -17l142 -164l141 164q14 16 37 17h80q20 0 25 -10.5t-7 -26.5l-184 -209q-14 -16 -37 -17h-111q-23 1 -37 17zM524 1434q360 0 556 -201t196 -516.5t-195.5 -516t-556.5 -200.5h-342q-31 0 -30 31v1372q0 31 30 31 h342zM524 174q274 0 415.5 142.5t141.5 400.5t-141 400.5t-416 142.5h-182v-1086h182z" glyph-name="Dcaron" horiz-adv-x="1374" unicode="Ď"/><glyph d="M1081 1495q31 0 31 -31v-1433q0 -31 -31 -31h-108q-27 0 -31 31l-10 121q-125 -166 -342 -166q-211 0 -350.5 149.5t-139.5 364.5q0 221 139.5 372.5t350.5 151.5t338 -168v608q0 31 30 31h123zM1446 1495q41 0 24 -35l-122 -258q-10 -25 -35 -24h-99q-41 0 -24 34 l123 258q10 25 35 25h98zM608.5 154q141.5 0 234.5 100t93 247.5t-93 251t-235 103.5q-143 0 -237.5 -100.5t-94.5 -253.5q0 -147 95.5 -247.5t237 -100.5z" glyph-name="dcaron" horiz-adv-x="1472" unicode="ď"/><glyph d="M541 1434q360 0 555.5 -201t195.5 -516.5t-195.5 -516t-555.5 -200.5h-342q-31 0 -31 31v608h-86q-31 0 -31 31v88q0 31 31 30h86v615q0 31 31 31h342zM541 174q274 0 415.5 142.5t141.5 400.5t-141.5 400.5t-415.5 142.5h-183v-472h297q31 0 31 -30v-88q0 -31 -31 -31 h-297v-465h183z" glyph-name="Dcroat" horiz-adv-x="1390" unicode="Đ"/><glyph d="M1210 1307q31 0 31 -31v-88q0 -31 -31 -31h-98v-1126q0 -31 -31 -31h-108q-27 0 -31 31l-10 121q-125 -166 -342 -166q-211 0 -350.5 149.5t-139.5 364.5q0 221 139.5 372.5t350.5 151.5t338 -168v301h-291q-31 0 -31 31v88q0 31 31 31h291v157q0 31 30 31h123 q31 0 31 -31v-157h98zM608.5 154q141.5 0 234.5 100t93 247.5t-93 251t-235 103.5q-143 0 -237.5 -100.5t-94.5 -253.5q0 -147 95.5 -247.5t237 -100.5z" glyph-name="dcroat" horiz-adv-x="1271" unicode="đ"/><glyph d="M831 1860q31 0 31 -31v-88q0 -31 -31 -31h-573q-31 0 -31 31v88q0 31 31 31h573zM901 174q31 0 31 -31v-112q0 -31 -31 -31h-719q-31 0 -30 31v1372q0 31 30 31h717q31 0 31 -31v-113q0 -31 -31 -30h-557v-418h524q31 0 31 -31v-113q0 -31 -31 -30h-524v-494h559z" glyph-name="Emacron" horiz-adv-x="1064" unicode="Ē"/><glyph d="M297 1280q-31 0 -31 31v88q0 31 31 31h573q31 0 31 -31v-88q0 -31 -31 -31h-573zM596 1024q209 0 340 -142.5t131 -340.5q0 -57 -12.5 -82t-48.5 -25h-725q20 -131 113 -210t238.5 -79t258.5 88q23 20 43 3l53 -50q23 -25 0 -47q-147 -154 -375 -153q-223 0 -367.5 150.5 t-144.5 369.5t140.5 368.5t355.5 149.5zM596 862q-127 0 -213 -82t-102 -213h624q-10 129 -96 212t-213 83z" glyph-name="emacron" horiz-adv-x="1167" unicode="ē"/><glyph d="M545 1671q-41 0 -72 30t-31 73q0 41 31 70.5t72 29.5t71.5 -29.5t30.5 -70.5q0 -43 -30.5 -73t-71.5 -30zM901 174q31 0 31 -31v-112q0 -31 -31 -31h-719q-31 0 -30 31v1372q0 31 30 31h717q31 0 31 -31v-113q0 -31 -31 -30h-557v-418h524q31 0 31 -31v-113 q0 -31 -31 -30h-524v-494h559z" glyph-name="Edotaccent" horiz-adv-x="1064" unicode="Ė"/><glyph d="M584 1241q-41 0 -72 29.5t-31 72.5q0 41 31 71t72 30t71.5 -30t30.5 -71q0 -43 -30.5 -72.5t-71.5 -29.5zM596 1024q209 0 340 -142.5t131 -340.5q0 -57 -12.5 -82t-48.5 -25h-725q20 -131 113 -210t238.5 -79t258.5 88q23 20 43 3l53 -50q23 -25 0 -47 q-147 -154 -375 -153q-223 0 -367.5 150.5t-144.5 369.5t140.5 368.5t355.5 149.5zM596 862q-127 0 -213 -82t-102 -213h624q-10 129 -96 212t-213 83z" glyph-name="edotaccent" horiz-adv-x="1167" unicode="ė"/><glyph d="M901 174q31 0 31 -31v-112q0 -31 -31 -31h-80q-55 -25 -87 -69t-32 -89q0 -63 43 -90.5t123 -11.5v-125q-39 -18 -93 -18t-106.5 17t-89 66.5t-36.5 122.5q0 111 92 197h-453q-31 0 -30 31v1372q0 31 30 31h717q31 0 31 -31v-113q0 -31 -31 -30h-557v-418h524 q31 0 31 -31v-113q0 -31 -31 -30h-524v-494h559z" glyph-name="Eogonek" horiz-adv-x="1064" unicode="Ę"/><glyph d="M596 1024q209 0 340 -142.5t131 -340.5q0 -57 -12.5 -82t-48.5 -25h-725q20 -131 113 -210t238.5 -79t258.5 88q23 20 43 3l53 -50q23 -25 0 -47q-92 -94 -215 -131v-8q-94 -25 -151.5 -78t-57.5 -117q0 -59 44 -85.5t122 -10.5v-125q-39 -18 -92 -18t-105.5 17.5 t-89 66.5t-36.5 123q0 129 126 219q-193 27 -312.5 171t-119.5 343q0 219 140.5 368.5t355.5 149.5zM596 862q-127 0 -213 -82t-102 -213h624q-10 129 -96 212t-213 83z" glyph-name="eogonek" horiz-adv-x="1146" unicode="ę"/><glyph d="M600 1597h-111q-23 0 -36 17l-183 209q-12 16 -8 26.5t25 10.5h80q23 0 36 -17l142 -164l141 164q14 16 37 17h80q20 0 25.5 -10.5t-7.5 -26.5l-184 -209q-14 -17 -37 -17zM901 174q31 0 31 -31v-112q0 -31 -31 -31h-719q-31 0 -30 31v1372q0 31 30 31h717q31 0 31 -31 v-113q0 -31 -31 -30h-557v-418h524q31 0 31 -31v-113q0 -31 -31 -30h-524v-494h559z" glyph-name="Ecaron" horiz-adv-x="1064" unicode="Ě"/><glyph d="M492 1184l-183 209q-12 16 -8 26.5t25 10.5h80q23 0 36 -17l142 -164l141 164q14 16 37 17h80q20 0 25 -10.5t-7 -26.5l-184 -209q-14 -16 -37 -17h-111q-22 1 -36 17zM596 1024q209 0 340 -142.5t131 -340.5q0 -57 -12.5 -82t-48.5 -25h-725q20 -131 113 -210t238.5 -79 t258.5 88q23 20 43 3l53 -50q23 -25 0 -47q-147 -154 -375 -153q-223 0 -367.5 150.5t-144.5 369.5t140.5 368.5t355.5 149.5zM596 862q-127 0 -213 -82t-102 -213h624q-10 129 -96 212t-213 83z" glyph-name="ecaron" horiz-adv-x="1167" unicode="ě"/><glyph d="M829.5 1585q-122.5 0 -201.5 69.5t-89 176.5q-2 31 28 31h62q27 0 33 -29q12 -57 56 -93t111.5 -36t111.5 36t56 93q6 29 33 29h62q31 0 28 -31q-10 -106 -89 -176t-201.5 -70zM1468 760q31 0 31 -31v-80q0 -291 -180 -483.5t-479 -192.5q-309 0 -519 216.5t-210 527.5 q0 305 209.5 519t515.5 214q266 0 487 -197q23 -23 2 -43l-82 -86q-20 -20 -43 0q-166 139 -364 140q-221 0 -376 -158t-155 -389q0 -238 152.5 -397.5t380.5 -159.5q207 0 339 120.5t140 309.5h-459q-31 0 -31 31v108q0 31 31 31h610z" glyph-name="Gbreve" horiz-adv-x="1599" unicode="Ğ"/><glyph d="M622.5 1155q-122.5 0 -201.5 69.5t-89 176.5q-4 31 28 31h62q27 0 33 -29q12 -57 56 -93t111.5 -36t111.5 36t57 93q6 29 32 29h62q33 0 28 -31q-10 -106 -89 -176t-201.5 -70zM1081 1004q31 0 31 -31v-955q0 -113 -47 -197.5t-124 -131.5t-164 -71t-179 -24 q-238 0 -395 105q-25 14 -10 43l38 72q16 25 41 12q141 -74 314 -74q141 0 245.5 65.5t104.5 202.5v150q-133 -174 -346 -174q-211 0 -350.5 149.5t-139.5 364.5t139.5 364.5t350.5 149.5t342 -168l6 117q4 31 31 31h112zM608 164q139 0 233.5 103.5t94.5 244.5t-94 243.5 t-234 102.5q-141 0 -236.5 -100.5t-95.5 -245.5q0 -147 95.5 -247.5t236.5 -100.5z" glyph-name="gbreve" unicode="ğ"/><glyph d="M829 1671q-41 0 -71.5 30t-30.5 73q0 41 30.5 70.5t71.5 29.5t72 -29.5t31 -70.5q0 -43 -31 -73t-72 -30zM1468 760q31 0 31 -31v-80q0 -291 -180 -483.5t-479 -192.5q-309 0 -519 216.5t-210 527.5q0 305 209.5 519t515.5 214q266 0 487 -197q23 -23 2 -43l-82 -86 q-20 -20 -43 0q-166 139 -364 140q-221 0 -376 -158t-155 -389q0 -238 152.5 -397.5t380.5 -159.5q207 0 339 120.5t140 309.5h-459q-31 0 -31 31v108q0 31 31 31h610z" glyph-name="Gdotaccent" horiz-adv-x="1599" unicode="Ġ"/><glyph d="M623 1241q-41 0 -72 29.5t-31 72.5q0 41 31 71t72 30t71.5 -30t30.5 -71q0 -43 -30.5 -72.5t-71.5 -29.5zM1081 1004q31 0 31 -31v-955q0 -113 -47 -197.5t-124 -131.5t-164 -71t-179 -24q-238 0 -395 105q-25 14 -10 43l38 72q16 25 41 12q141 -74 314 -74 q141 0 245.5 65.5t104.5 202.5v150q-133 -174 -346 -174q-211 0 -350.5 149.5t-139.5 364.5t139.5 364.5t350.5 149.5t342 -168l6 117q4 31 31 31h112zM608 164q139 0 233.5 103.5t94.5 244.5t-94 243.5t-234 102.5q-141 0 -236.5 -100.5t-95.5 -245.5q0 -147 95.5 -247.5 t236.5 -100.5z" glyph-name="gdotaccent" unicode="ġ"/><glyph d="M1468 760q31 0 31 -31v-80q0 -291 -180 -483.5t-479 -192.5q-309 0 -519 216.5t-210 527.5q0 305 209.5 519t515.5 214q266 0 487 -197q23 -23 2 -43l-82 -86q-20 -20 -43 0q-166 139 -364 140q-221 0 -376 -158t-155 -389q0 -238 152.5 -397.5t380.5 -159.5 q207 0 339 120.5t140 309.5h-459q-31 0 -31 31v108q0 31 31 31h610zM809 -78q51 0 86 -38t35 -107q0 -80 -44 -183.5t-118 -191.5l-55 37q76 109 86 256q-47 6 -77 37.5t-30 77.5q0 47 34 79.5t83 32.5z" glyph-name="Gcommaaccent" horiz-adv-x="1599" unicode="Ģ"/><glyph d="M608 1135q-51 0 -86 37.5t-35 107.5q0 80 44 183.5t118 191.5l56 -37q-76 -109 -87 -256q47 -6 77 -38t30 -77q0 -47 -34 -79.5t-83 -32.5zM1081 1004q31 0 31 -31v-955q0 -113 -47 -197.5t-124 -131.5t-164 -71t-179 -24q-238 0 -395 105q-25 14 -10 43l38 72 q16 25 41 12q141 -74 314 -74q141 0 245.5 65.5t104.5 202.5v150q-133 -174 -346 -174q-211 0 -350.5 149.5t-139.5 364.5t139.5 364.5t350.5 149.5t342 -168l6 117q4 31 31 31h112zM608 164q139 0 233.5 103.5t94.5 244.5t-94 243.5t-234 102.5q-141 0 -236.5 -100.5 t-95.5 -245.5q0 -147 95.5 -247.5t236.5 -100.5z" glyph-name="gcommaaccent" horiz-adv-x="1222" unicode="ģ"/><glyph d="M1139 1434q31 0 30 -31v-1372q0 -31 -30 -31h-129q-31 0 -31 31v594h-637v-594q0 -31 -31 -31h-129q-31 0 -30 31v1372q0 31 30 31h129q31 0 31 -31v-262h637v262q0 31 31 31h129zM342 799h637v180h-637v-180z" glyph-name="Hbar" horiz-adv-x="1320" unicode="Ħ"/><glyph d="M662 1026q162 0 258 -104.5t96 -300.5v-590q0 -31 -31 -31h-123q-31 0 -31 31v569q0 127 -59 193.5t-160 66.5q-121 0 -202.5 -88t-81.5 -139v-602q0 -31 -31 -31h-123q-31 0 -31 31v1120h-82q-31 0 -30 31v88q0 31 30 30h82v164q0 31 31 31h123q31 0 31 -31v-164h307 q31 0 31 -30v-88q0 -31 -31 -31h-307v-315q129 190 334 190z" glyph-name="hbar" horiz-adv-x="1126" unicode="ħ"/><glyph d="M535 1860q31 0 30 -31v-88q0 -31 -30 -31h-574q-31 0 -31 31v88q0 31 31 31h574zM152 1403q0 31 30 31h129q31 0 31 -31v-1372q0 -31 -31 -31h-129q-31 0 -30 31v1372z" glyph-name="Imacron" horiz-adv-x="493" unicode="Ī"/><glyph d="M500 1430q31 0 30 -31v-88q0 -31 -30 -31h-574q-31 0 -30 31v88q0 31 30 31h574zM121 973q0 31 31 31h122q31 0 31 -31v-942q0 -31 -31 -31h-122q-31 0 -31 31v942z" glyph-name="imacron" horiz-adv-x="425" unicode="ī"/><glyph d="M213 1241q-41 0 -71.5 29.5t-30.5 72.5q0 41 30.5 71t71.5 30t71.5 -30t30.5 -71q0 -43 -30.5 -72.5t-71.5 -29.5zM274 1004q31 0 31 -31v-942q0 -31 -31 -31q-96 0 -158.5 -56.5t-62.5 -121.5q0 -63 43 -91t123 -12v-125q-39 -18 -93 -18t-106.5 17.5t-89 66.5 t-36.5 123q0 98 65.5 169t161.5 109v912q0 31 31 31h122z" glyph-name="iogonek" horiz-adv-x="425" unicode="į"/><glyph d="M248 1671q-41 0 -72 30t-31 73q0 41 31 70.5t72 29.5t71.5 -29.5t30.5 -70.5q0 -43 -30.5 -73t-71.5 -30zM152 1403q0 31 30 31h129q31 0 31 -31v-1372q0 -31 -31 -31h-129q-31 0 -30 31v1372z" glyph-name="Idotaccent" horiz-adv-x="493" unicode="İ"/><glyph d="M121 973q0 31 31 31h122q31 0 31 -31v-942q0 -31 -31 -31h-122q-31 0 -31 31v942z" glyph-name="dotlessi" horiz-adv-x="425" unicode="ı"/><glyph d="M152 1403q0 31 30 31h129q31 0 31 -31v-1372q0 -31 -31 -31h-129q-31 0 -30 31v1372zM664 248q18 23 45 0q100 -84 227 -84q268 0 268 364v875q0 31 31 31h129q31 0 31 -31v-881q0 -274 -120 -407t-335 -133q-227 0 -344 135q-18 20 -2 43z" glyph-name="IJ" horiz-adv-x="1546" unicode="Ĳ"/><glyph d="M242 1231q-47 0 -79 31.5t-32 79t32 80t79 32.5t78.5 -32.5t31.5 -80t-31.5 -79t-78.5 -31.5zM782 1231q-45 0 -77.5 31.5t-32.5 79t31.5 80t78.5 32.5t80 -32.5t33 -80t-33 -79t-80 -31.5zM150 973q0 31 30 31h123q31 0 31 -31v-942q0 -31 -31 -31h-123q-31 0 -30 31 v942zM723 1004h123q31 0 31 -31v-961q0 -205 -93.5 -308t-259.5 -110q-18 0 -22 19l-37 127q-8 23 16 22q211 12 211 271v940q0 31 31 31z" glyph-name="ij" horiz-adv-x="1026" unicode="ĳ"/><glyph d="M1186 37q10 -16 5 -26.5t-24 -10.5h-157q-25 0 -37 18l-498 670l-133 -147v-510q0 -31 -31 -31h-129q-31 0 -30 31v1372q0 31 30 31h129q31 0 31 -31v-608l549 622q14 16 37 17h168q20 0 24 -11.5t-8 -25.5l-512 -570zM610 -78q51 0 86 -38t35 -107q0 -80 -44 -183.5 t-118 -191.5l-55 37q76 109 86 256q-47 6 -76.5 37.5t-29.5 77.5q0 47 33.5 79.5t82.5 32.5z" glyph-name="Kcommaaccent" horiz-adv-x="1198" unicode="Ķ"/><glyph d="M1028 37q10 -16 5 -26.5t-23 -10.5h-136q-25 0 -36 18l-346 447l-177 -184v-250q0 -31 -30 -31h-123q-31 0 -31 31v1433q0 31 31 31h123q31 0 30 -31v-964l461 487q14 16 37 17h139q20 0 25.5 -10.5t-8.5 -26.5l-367 -385zM571 -78q51 0 86 -38t35 -107q0 -80 -44 -183.5 t-118 -191.5l-55 37q76 109 86 256q-47 6 -76.5 37.5t-29.5 77.5q0 47 33.5 79.5t82.5 32.5z" glyph-name="kcommaaccent" horiz-adv-x="1097" unicode="ķ"/><glyph d="M229 1538q-41 0 -24 35l123 258q10 25 34 24h99q41 0 24 -34l-123 -258q-10 -25 -34 -25h-99zM860 174q31 0 31 -31v-112q0 -31 -31 -31h-678q-31 0 -30 31v1372q0 31 30 31h129q31 0 31 -31v-1229h518z" glyph-name="Lacute" horiz-adv-x="980" unicode="Ĺ"/><glyph d="M412 1921q41 0 24 -35l-123 -258q-10 -25 -34 -24h-99q-41 0 -24 34l123 258q10 25 34 25h99zM131 1464q0 31 31 31h123q31 0 30 -31v-1433q0 -31 -30 -31h-123q-31 0 -31 31v1433z" glyph-name="lacute" horiz-adv-x="446" unicode="ĺ"/><glyph d="M860 174q31 0 31 -31v-112q0 -31 -31 -31h-678q-31 0 -30 31v1372q0 31 30 31h129q31 0 31 -31v-1229h518zM502 -78q51 0 86 -38t35 -107q0 -80 -44 -183.5t-118 -191.5l-55 37q76 109 86 256q-47 6 -77 37.5t-30 77.5q0 47 34 79.5t83 32.5z" glyph-name="Lcommaaccent" horiz-adv-x="1001" unicode="Ļ"/><glyph d="M162 0q-31 0 -31 31v1433q0 31 31 31h123q31 0 30 -31v-1433q0 -31 -30 -31h-123zM229 -78q51 0 86 -38t35 -107q0 -80 -44 -183.5t-118 -191.5l-55 37q76 109 86 256q-47 6 -76.5 37.5t-29.5 77.5q0 47 33.5 79.5t82.5 32.5z" glyph-name="lcommaaccent" horiz-adv-x="446" unicode="ļ"/><glyph d="M629 1257q-47 6 -77 38t-30 77q0 47 34 80t83 33q51 0 86 -38t35 -108q0 -80 -44 -183t-118 -191l-55 36q76 109 86 256zM860 174q31 0 31 -31v-112q0 -31 -31 -31h-678q-31 0 -30 31v1372q0 31 30 31h129q31 0 31 -31v-1229h518z" glyph-name="Lcaron" horiz-adv-x="980" unicode="Ľ"/><glyph d="M537 1532q51 0 85.5 -38t34.5 -108q0 -80 -44 -183t-117 -191l-56 37q76 109 86 256q-47 6 -76.5 37.5t-29.5 76.5q0 47 34 80t83 33zM285 1495q31 0 30 -31v-1433q0 -31 -30 -31h-123q-31 0 -31 31v1433q0 31 31 31h123z" glyph-name="lcaron" horiz-adv-x="696" unicode="ľ"/><glyph d="M860 174q31 0 31 -31v-112q0 -31 -31 -31h-678q-31 0 -30 31v1372q0 31 30 31h129q31 0 31 -31v-1229h518zM690 647q-47 0 -79.5 33t-32.5 80t32.5 78.5t79.5 31.5t79 -31.5t32 -78.5t-32 -80t-79 -33z" glyph-name="Ldot" horiz-adv-x="991" unicode="Ŀ"/><glyph d="M131 1464q0 31 31 31h123q31 0 30 -31v-1433q0 -31 -30 -31h-123q-31 0 -31 31v1433zM508 643q-47 0 -80 33t-33 80t33 78.5t80 31.5q45 0 77.5 -31.5t32.5 -78.5t-31.5 -80t-78.5 -33z" glyph-name="ldot" horiz-adv-x="698" unicode="ŀ"/><glyph d="M895 174q31 0 31 -31v-112q0 -31 -31 -31h-678q-31 0 -31 31v446l-88 -86q-16 -14 -26.5 -9t-10.5 26v120q0 23 17 39l108 105v731q0 31 31 31h129q31 0 31 -31v-545l207 201q14 14 25.5 9t11.5 -26v-118q0 -23 -17 -39l-227 -221v-490h518z" glyph-name="Lslash" horiz-adv-x="1015" unicode="Ł"/><glyph d="M627 1081v-159l-189 -199v-692q0 -31 -30 -31h-123q-31 0 -31 31v497l-162 -170v162l162 170v774q0 31 31 31h123q31 0 30 -31v-579l187 196h2z" glyph-name="lslash" horiz-adv-x="718" unicode="ł"/><glyph d="M649 1542q-41 0 -24 35l123 258q10 25 34 25h99q41 0 24 -35l-123 -258q-10 -25 -34 -25h-99zM1202 1434q31 0 31 -31v-1372q0 -27 -27 -31h-168q-25 0 -37 20l-659 1133v-1122q0 -31 -31 -31h-129q-31 0 -30 31v1372q0 27 26 31h166q25 0 37 -21l661 -1132v1122 q0 31 31 31h129z" glyph-name="Nacute" horiz-adv-x="1384" unicode="Ń"/><glyph d="M524 1112q-41 0 -24 35l123 258q10 25 34 25h99q41 0 24 -35l-123 -258q-10 -25 -34 -25h-99zM649 1026q162 0 258.5 -104.5t96.5 -300.5v-590q0 -31 -31 -31h-123q-31 0 -31 31v569q0 127 -59.5 193.5t-159.5 66.5q-121 0 -203 -88t-82 -139v-602q0 -31 -30 -31h-123 q-31 0 -31 31v942q0 31 31 31h114q27 0 31 -31l8 -137q129 190 334 190z" glyph-name="nacute" horiz-adv-x="1134" unicode="ń"/><glyph d="M1202 1434q31 0 31 -31v-1372q0 -27 -27 -31h-168q-25 0 -37 20l-659 1133v-1122q0 -31 -31 -31h-129q-31 0 -30 31v1372q0 27 26 31h166q25 0 37 -21l661 -1132v1122q0 31 31 31h129zM698 -78q51 0 86 -38t35 -107q0 -80 -44 -183.5t-118 -191.5l-55 37q76 109 86 256 q-47 6 -76.5 37.5t-29.5 77.5q0 47 33.5 79.5t82.5 32.5z" glyph-name="Ncommaaccent" horiz-adv-x="1384" unicode="Ņ"/><glyph d="M649 1026q162 0 258.5 -104.5t96.5 -300.5v-590q0 -31 -31 -31h-123q-31 0 -31 31v569q0 127 -59.5 193.5t-159.5 66.5q-121 0 -203 -88t-82 -139v-602q0 -31 -30 -31h-123q-31 0 -31 31v942q0 31 31 31h114q27 0 31 -31l8 -137q129 190 334 190zM573 -78q51 0 86 -38 t35 -107q0 -80 -44 -183.5t-118 -191.5l-55 37q76 109 86 256q-47 6 -76.5 37.5t-29.5 77.5q0 47 33.5 79.5t82.5 32.5z" glyph-name="ncommaaccent" horiz-adv-x="1134" unicode="ņ"/><glyph d="M600 1614l-182 209q-12 16 -8 26.5t24 10.5h80q23 0 37 -17l141 -164l142 164q14 16 36 17h80q20 0 25.5 -10.5t-6.5 -26.5l-185 -209q-14 -16 -36 -17h-111q-23 1 -37 17zM1202 1434q31 0 31 -31v-1372q0 -27 -27 -31h-168q-25 0 -37 20l-659 1133v-1122q0 -31 -31 -31 h-129q-31 0 -30 31v1372q0 27 26 31h166q25 0 37 -21l661 -1132v1122q0 31 31 31h129z" glyph-name="Ncaron" horiz-adv-x="1384" unicode="Ň"/><glyph d="M475 1184l-182 209q-12 16 -8 26.5t24 10.5h80q23 0 37 -17l141 -164l142 164q14 16 36 17h80q20 0 25.5 -10.5t-6.5 -26.5l-185 -209q-14 -16 -36 -17h-111q-23 1 -37 17zM649 1026q162 0 258.5 -104.5t96.5 -300.5v-590q0 -31 -31 -31h-123q-31 0 -31 31v569 q0 127 -59.5 193.5t-159.5 66.5q-121 0 -203 -88t-82 -139v-602q0 -31 -30 -31h-123q-31 0 -31 31v942q0 31 31 31h114q27 0 31 -31l8 -137q129 190 334 190z" glyph-name="ncaron" horiz-adv-x="1134" unicode="ň"/><glyph d="M1202 1434q31 0 31 -31v-1372q0 -6 -4 -19q-23 -221 -139.5 -328.5t-311.5 -107.5q-227 0 -344 135q-18 20 -2 43l70 88q18 23 45 0q100 -84 227 -84q217 0 258 242q-18 4 -31 20l-659 1133v-1122q0 -31 -31 -31h-129q-31 0 -30 31v1372q0 27 26 31h166q25 0 37 -21 l661 -1132v1122q0 31 31 31h129z" glyph-name="Eng" horiz-adv-x="1363" unicode="Ŋ"/><glyph d="M649 1026q162 0 258.5 -104.5t96.5 -300.5v-590q0 -14 -11 -25q-2 -203 -95 -307.5t-257 -104.5q-18 0 -23 19l-36 127q-8 23 16 22q211 0 211 271v149h10v418q0 127 -59.5 193.5t-159.5 66.5q-121 0 -203 -88t-82 -139v-602q0 -31 -30 -31h-123q-31 0 -31 31v942 q0 31 31 31h114q27 0 31 -31l8 -137q129 190 334 190z" glyph-name="eng" horiz-adv-x="1114" unicode="ŋ"/><glyph d="M1130 1860q31 0 31 -31v-88q0 -31 -31 -31h-573q-31 0 -31 31v88q0 31 31 31h573zM844 -27q-305 0 -519 215t-214 523q0 309 214 524t519 215t519 -215t214 -524q0 -307 -214 -522.5t-519 -215.5zM843.5 160q229.5 0 385 159.5t155.5 391.5q0 236 -155.5 394.5 t-385 158.5t-385 -159t-155.5 -394q0 -231 155.5 -391t385 -160z" glyph-name="Omacron" horiz-adv-x="1687" unicode="Ō"/><glyph d="M897 1430q31 0 31 -31v-88q0 -31 -31 -31h-573q-31 0 -31 31v88q0 31 31 31h573zM610 -20q-215 0 -362.5 151.5t-147.5 370.5q0 221 147.5 372.5t362.5 151.5q217 0 364.5 -151.5t147.5 -372.5q0 -219 -147.5 -370.5t-364.5 -151.5zM610.5 147q141.5 0 237.5 100.5 t96 254t-96 255t-237.5 101.5t-238 -101.5t-96.5 -254.5q0 -152 96.5 -253.5t238 -101.5z" glyph-name="omacron" horiz-adv-x="1222" unicode="ō"/><glyph d="M844 1860q41 0 24 -35l-123 -258q-10 -25 -34 -25h-99q-41 0 -24 35l123 258q10 25 34 25h99zM1161 1860q41 0 25 -35l-123 -258q-10 -25 -35 -25h-98q-41 0 -25 35l123 258q10 25 35 25h98zM844 -27q-305 0 -519 215t-214 523q0 309 214 524t519 215t519 -215t214 -524 q0 -307 -214 -522.5t-519 -215.5zM843.5 160q229.5 0 385 159.5t155.5 391.5q0 236 -155.5 394.5t-385 158.5t-385 -159t-155.5 -394q0 -231 155.5 -391t385 -160z" glyph-name="Ohungarumlaut" horiz-adv-x="1687" unicode="Ő"/><glyph d="M610 1430q41 0 25 -35l-123 -258q-10 -25 -35 -25h-98q-41 0 -25 35l123 258q10 25 35 25h98zM928 1430q41 0 24 -35l-123 -258q-10 -25 -34 -25h-99q-41 0 -24 35l123 258q10 25 34 25h99zM610 -20q-215 0 -362.5 151.5t-147.5 370.5q0 221 147.5 372.5t362.5 151.5 q217 0 364.5 -151.5t147.5 -372.5q0 -219 -147.5 -370.5t-364.5 -151.5zM610.5 147q141.5 0 237.5 100.5t96 254t-96 255t-237.5 101.5t-238 -101.5t-96.5 -254.5q0 -152 96.5 -253.5t238 -101.5z" glyph-name="ohungarumlaut" horiz-adv-x="1222" unicode="ő"/><glyph d="M2138 174q31 0 31 -31v-112q0 -31 -31 -31h-719q-31 0 -30 31v184q-219 -242 -545 -242q-305 0 -519 215t-214 523q0 309 214 524t519 215q160 0 301 -64.5t244 -179.5v197q0 31 30 31h717q31 0 31 -31v-113q0 -31 -31 -30h-557v-418h524q31 0 31 -31v-113q0 -31 -31 -30 h-524v-494h559zM843.5 160q229.5 0 385 159.5t155.5 391.5q0 236 -155.5 394.5t-385 158.5t-385 -159t-155.5 -394q0 -231 155.5 -391t385 -160z" glyph-name="OE" horiz-adv-x="2281" unicode="Œ"/><glyph d="M1442 1024q209 0 340 -142.5t131 -340.5q0 -57 -12.5 -82t-49.5 -25h-725q20 -131 113.5 -210t239 -79t258.5 88q23 20 43 3l53 -50q23 -25 0 -47q-147 -154 -375 -153q-135 0 -244.5 58t-179.5 161q-70 -104 -180.5 -164.5t-243.5 -60.5q-215 0 -362.5 151.5 t-147.5 370.5q0 221 147.5 372.5t362.5 151.5q131 0 242 -59.5t180 -161.5q66 102 172.5 160.5t237.5 58.5zM1442 862q-127 0 -213 -82t-103 -213h625q-10 129 -96 212t-213 83zM610.5 147q141.5 0 237.5 100.5t96 254t-96 255t-237.5 101.5t-238 -101.5t-96.5 -254.5 q0 -152 96.5 -253.5t238 -101.5z" glyph-name="oe" horiz-adv-x="1992" unicode="œ"/><glyph d="M526 1542q-41 0 -24 35l123 258q10 25 34 25h99q41 0 24 -35l-123 -258q-10 -25 -34 -25h-99zM1077 37q23 -37 -20 -37h-142q-25 0 -36 20l-338 512h-199v-501q0 -31 -31 -31h-129q-31 0 -30 31v1372q0 31 30 31h396q231 0 360 -125t129 -326q0 -164 -87 -279.5 t-247 -152.5zM342 1260v-553h227q139 0 226.5 66.5t87.5 209.5t-87 210t-227 67h-227z" glyph-name="Racute" horiz-adv-x="1193" unicode="Ŕ"/><glyph d="M311 1112q-41 0 -24 35l123 258q10 25 34 25h99q41 0 24 -35l-123 -258q-10 -25 -34 -25h-99zM688 989q18 -12 6 -35l-39 -92q-10 -23 -41 -16q-55 12 -79 12q-94 0 -157 -63.5t-63 -159.5v-604q0 -31 -30 -31h-123q-31 0 -31 31v942q0 31 31 31h112q27 0 31 -31l8 -92 q94 145 250 145q78 0 125 -37z" glyph-name="racute" horiz-adv-x="737" unicode="ŕ"/><glyph d="M1077 37q23 -37 -20 -37h-142q-25 0 -36 20l-338 512h-199v-501q0 -31 -31 -31h-129q-31 0 -30 31v1372q0 31 30 31h396q231 0 360 -125t129 -326q0 -164 -87 -279.5t-247 -152.5zM342 1260v-553h227q139 0 226.5 66.5t87.5 209.5t-87 210t-227 67h-227zM575 -78 q51 0 86 -38t35 -107q0 -80 -44 -183.5t-117 -191.5l-56 37q76 109 86 256q-47 6 -76.5 37.5t-29.5 77.5q0 47 33.5 79.5t82.5 32.5z" glyph-name="Rcommaaccent" horiz-adv-x="1193" unicode="Ŗ"/><glyph d="M688 989q18 -12 6 -35l-39 -92q-10 -23 -41 -16q-55 12 -79 12q-94 0 -157 -63.5t-63 -159.5v-604q0 -31 -30 -31h-123q-31 0 -31 31v942q0 31 31 31h112q27 0 31 -31l8 -92q94 145 250 145q78 0 125 -37zM229 -78q51 0 86 -38t35 -107q0 -80 -44 -183.5t-118 -191.5 l-55 37q76 109 86 256q-47 6 -76.5 37.5t-29.5 77.5q0 47 33.5 79.5t82.5 32.5z" glyph-name="rcommaaccent" horiz-adv-x="737" unicode="ŗ"/><glyph d="M477 1614l-182 209q-12 16 -8 26.5t24 10.5h80q23 0 37 -17l141 -164l142 164q14 16 37 17h79q20 0 25.5 -10.5t-6.5 -26.5l-184 -209q-14 -16 -37 -17h-111q-23 1 -37 17zM1077 37q23 -37 -20 -37h-142q-25 0 -36 20l-338 512h-199v-501q0 -31 -31 -31h-129 q-31 0 -30 31v1372q0 31 30 31h396q231 0 360 -125t129 -326q0 -164 -87 -279.5t-247 -152.5zM342 1260v-553h227q139 0 226.5 66.5t87.5 209.5t-87 210t-227 67h-227z" glyph-name="Rcaron" horiz-adv-x="1193" unicode="Ř"/><glyph d="M299 1167q-23 0 -37 17l-182 209q-12 16 -8 26.5t24 10.5h80q23 0 37 -17l141 -164l142 164q14 16 36 17h80q20 0 25.5 -10.5t-6.5 -26.5l-185 -209q-14 -16 -36 -17h-111zM688 989q18 -12 6 -35l-39 -92q-10 -23 -41 -16q-55 12 -79 12q-94 0 -157 -63.5t-63 -159.5 v-604q0 -31 -30 -31h-123q-31 0 -31 31v942q0 31 31 31h112q27 0 31 -31l8 -92q94 145 250 145q78 0 125 -37z" glyph-name="rcaron" horiz-adv-x="737" unicode="ř"/><glyph d="M741 1860q41 0 25 -35l-123 -258q-10 -25 -35 -25h-98q-41 0 -25 35l123 258q10 25 35 25h98zM322 1073q0 -74 53 -128t133 -84t172 -70.5t172 -84.5t133 -128t53 -199q0 -174 -139 -289t-334 -115q-150 0 -272.5 60.5t-186.5 159.5q-14 23 7 41l75 77q20 20 43 -2 q166 -158 334 -157q125 0 205 66.5t80 166.5q0 88 -74 148.5t-178 101.5t-208.5 87t-178.5 135t-74 216q0 164 122 269.5t300 105.5q119 0 227.5 -51t186.5 -142q20 -20 0 -43l-68 -73q-23 -25 -43 -4q-147 137 -301 137q-104 0 -171.5 -54.5t-67.5 -146.5z" glyph-name="Sacute" horiz-adv-x="1138" unicode="Ś"/><glyph d="M651 1430q41 0 25 -35l-123 -258q-10 -25 -35 -25h-98q-41 0 -25 35l123 258q10 25 35 25h98zM295 743q0 -57 55.5 -94t134 -61.5t157.5 -56t134 -98t55 -165.5q0 -127 -108.5 -207.5t-247.5 -80.5q-119 0 -217 48t-158 119q-18 20 -2 39l54 72q16 20 45 -2 q141 -117 272 -117q82 0 132 34t50 97q0 59 -55 99.5t-133 67t-156 57t-133 94t-55 155.5q0 125 95 204t235 79q88 0 177 -40t150 -112q16 -18 -2 -43l-47 -59q-16 -23 -45 2q-123 98 -227 98q-63 0 -111.5 -31.5t-48.5 -97.5z" glyph-name="sacute" horiz-adv-x="919" unicode="ś"/><glyph d="M1038 379q0 -162 -122.5 -273.5t-301.5 -128.5l-53 -55q70 -4 119 -47t49 -113q0 -119 -96 -167t-225 -31q-18 2 -19 22v68q0 20 23 20q84 -10 132 11.5t48 66.5q0 41 -52.5 58.5t-125.5 -5.5q-25 -10 -25 15v63q0 14 10 25l72 74q-250 39 -365 213q-14 23 7 41l75 77 q20 20 43 -2q166 -158 334 -157q125 0 205 66.5t80 166.5q0 88 -74 148.5t-178 101.5t-208.5 87t-178.5 135t-74 216q0 164 122 269.5t300 105.5q119 0 227.5 -51t186.5 -142q20 -20 0 -43l-68 -73q-23 -25 -43 -4q-147 137 -301 137q-104 0 -171.5 -54.5t-67.5 -146.5 q0 -74 53 -128t133 -84t172 -70.5t172 -84.5t133 -128t53 -199z" glyph-name="Scedilla" horiz-adv-x="1138" unicode="Ş"/><glyph d="M831 268q0 -115 -88 -191.5t-213 -92.5l-59 -62q70 -4 119 -47t49 -113q0 -119 -96.5 -167t-225.5 -31q-18 2 -18 22v68q0 20 23 20q84 -10 132 11.5t48 66.5q0 41 -52.5 58.5t-125.5 -5.5q-25 -10 -25 15v63q0 14 10 25l76 80q-170 31 -285 159q-18 20 -2 39l54 72 q16 20 45 -2q141 -117 272 -117q82 0 132 34t50 97q0 59 -55 99.5t-133 67t-156 57t-133 94t-55 155.5q0 125 95 204t235 79q88 0 177 -40t150 -112q16 -18 -2 -43l-47 -59q-16 -23 -45 2q-123 98 -227 98q-63 0 -111.5 -31.5t-48.5 -97.5q0 -57 55.5 -94t134 -61.5 t157.5 -56t134 -98.5t55 -165z" glyph-name="scedilla" horiz-adv-x="919" unicode="ş"/><glyph d="M608 1597h-110q-23 0 -37 17l-182 209q-12 16 -8.5 26.5t24.5 10.5h80q23 0 37 -17l141 -164l141 164q14 16 37 17h80q20 0 25.5 -10.5t-7.5 -26.5l-184 -209q-14 -17 -37 -17zM322 1073q0 -74 53 -128t133 -84t172 -70.5t172 -84.5t133 -128t53 -199q0 -174 -139 -289 t-334 -115q-150 0 -272.5 60.5t-186.5 159.5q-14 23 7 41l75 77q20 20 43 -2q166 -158 334 -157q125 0 205 66.5t80 166.5q0 88 -74 148.5t-178 101.5t-208.5 87t-178.5 135t-74 216q0 164 122 269.5t300 105.5q119 0 227.5 -51t186.5 -142q20 -20 0 -43l-68 -73 q-23 -25 -43 -4q-147 137 -301 137q-104 0 -171.5 -54.5t-67.5 -146.5z" glyph-name="Scaron" horiz-adv-x="1138" unicode="Š"/><glyph d="M518 1167h-110q-23 0 -37 17l-183 209q-12 16 -8 26.5t25 10.5h80q23 0 37 -17l141 -164l141 164q14 16 37 17h80q20 0 25.5 -10.5t-7.5 -26.5l-184 -209q-14 -17 -37 -17zM295 743q0 -57 55.5 -94t134 -61.5t157.5 -56t134 -98t55 -165.5q0 -127 -108.5 -207.5 t-247.5 -80.5q-119 0 -217 48t-158 119q-18 20 -2 39l54 72q16 20 45 -2q141 -117 272 -117q82 0 132 34t50 97q0 59 -55 99.5t-133 67t-156 57t-133 94t-55 155.5q0 125 95 204t235 79q88 0 177 -40t150 -112q16 -18 -2 -43l-47 -59q-16 -23 -45 2q-123 98 -227 98 q-63 0 -111.5 -31.5t-48.5 -97.5z" glyph-name="scaron" horiz-adv-x="919" unicode="š"/><glyph d="M975 1434q31 0 31 -31v-113q0 -31 -31 -30h-322v-1229q0 -31 -30 -31h20l-76 -78q70 -4 119 -47t49 -113q0 -119 -96 -167t-225 -31q-18 2 -19 22v68q0 20 23 20q84 -10 132 11.5t48 66.5q0 41 -52 58.5t-126 -5.5q-25 -10 -25 15v63q0 14 11 25l88 92q-31 0 -31 31v1229 h-322q-31 0 -30 30v113q0 31 30 31h834z" glyph-name="Tcommaaccent" horiz-adv-x="1116" unicode="Ţ"/><glyph d="M623 1004q31 0 30 -31v-92q0 -31 -30 -31h-164v-819q0 -31 -31 -31l-59 -61q70 -4 119 -47.5t49 -112.5q0 -119 -96.5 -167t-225.5 -32q-18 2 -18 23v67q0 20 22 21q84 -10 132 11.5t48 66.5q0 41 -52 58t-126 -5q-25 -10 -24 14v64q0 14 10 24l78 82q-10 10 -11 25v819 h-163q-31 0 -31 31v92q0 31 31 31h163v276q0 31 31 31h123q31 0 31 -31v-276h164z" glyph-name="tcommaaccent" horiz-adv-x="733" unicode="ţ"/><glyph d="M614 1597h-110q-23 0 -37 17l-182 209q-12 16 -8 26.5t24 10.5h80q23 0 37 -17l141 -164l141 164q14 16 37 17h80q20 0 25.5 -10.5t-6.5 -26.5l-185 -209q-14 -17 -37 -17zM975 1434q31 0 31 -31v-113q0 -31 -31 -30h-322v-1229q0 -31 -30 -31h-129q-31 0 -31 31v1229 h-322q-31 0 -30 30v113q0 31 30 31h834z" glyph-name="Tcaron" horiz-adv-x="1116" unicode="Ť"/><glyph d="M766 1436q41 0 25 -35l-123 -258q-10 -25 -35 -25h-98q-41 0 -25 35l123 258q10 25 35 25h98zM623 1004q31 0 30 -31v-92q0 -31 -30 -31h-164v-819q0 -31 -31 -31h-123q-31 0 -31 31v819h-163q-31 0 -31 31v92q0 31 31 31h163v276q0 31 31 31h123q31 0 31 -31v-276h164z " glyph-name="tcaron" horiz-adv-x="825" unicode="ť"/><glyph d="M975 1434q31 0 31 -31v-113q0 -31 -31 -30h-322v-256h183q31 0 30 -31v-88q0 -31 -30 -31h-183v-823q0 -31 -30 -31h-129q-31 0 -31 31v823h-201q-31 0 -31 31v88q0 31 31 31h201v256h-322q-31 0 -30 30v113q0 31 30 31h834z" glyph-name="Tbar" horiz-adv-x="1095" unicode="Ŧ"/><glyph d="M623 1004q31 0 30 -31v-92q0 -31 -30 -31h-164v-133h123q31 0 30 -31v-94q0 -31 -30 -31h-123v-530q0 -31 -31 -31h-123q-31 0 -31 31v530h-163q-31 0 -31 31v94q0 31 31 31h163v133h-163q-31 0 -31 31v92q0 31 31 31h163v276q0 31 31 31h123q31 0 31 -31v-276h164z" glyph-name="tbar" horiz-adv-x="692" unicode="ŧ"/><glyph d="M950 1860q31 0 31 -31v-88q0 -31 -31 -31h-573q-31 0 -31 31v88q0 31 31 31h573zM1153 1434q31 0 31 -31v-848q0 -279 -143.5 -430.5t-376.5 -151.5q-236 0 -379.5 151.5t-143.5 430.5v848q0 31 31 31h129q31 0 31 -31v-848q0 -197 90 -298t242 -101q150 0 239.5 101 t89.5 298v848q0 31 31 31h129z" glyph-name="Umacron" horiz-adv-x="1325" unicode="Ū"/><glyph d="M270 1280q-31 0 -30 31v88q0 31 30 31h574q31 0 30 -31v-88q0 -31 -30 -31h-574zM963 1004q31 0 30 -31v-942q0 -31 -30 -31h-115q-27 0 -31 31l-8 121q-121 -178 -315 -179q-174 0 -273.5 105.5t-99.5 304.5v590q0 31 31 31h122q31 0 31 -31v-570q0 -129 61.5 -196.5 t165.5 -67.5q121 0 199 84t78 150v600q0 31 31 31h123z" glyph-name="umacron" horiz-adv-x="1124" unicode="ū"/><glyph d="M831 1833q6 29 33 29h62q33 0 28 -31q-10 -106 -89 -176t-201.5 -70t-201.5 69.5t-89 176.5q-4 31 28 31h62q27 0 33 -29q12 -57 56 -93t111.5 -36t111.5 36t56 93zM1153 1434q31 0 31 -31v-848q0 -279 -143.5 -430.5t-376.5 -151.5q-236 0 -379.5 151.5t-143.5 430.5 v848q0 31 31 31h129q31 0 31 -31v-848q0 -197 90 -298t242 -101q150 0 239.5 101t89.5 298v848q0 31 31 31h129z" glyph-name="Ubreve" horiz-adv-x="1325" unicode="Ŭ"/><glyph d="M557 1155q-123 0 -202 69.5t-89 176.5q-4 31 29 31h61q27 0 33 -29q12 -57 56 -93t112 -36t112 36t56 93q6 29 33 29h61q33 0 29 -31q-10 -106 -89 -176t-202 -70zM963 1004q31 0 30 -31v-942q0 -31 -30 -31h-115q-27 0 -31 31l-8 121q-121 -178 -315 -179 q-174 0 -273.5 105.5t-99.5 304.5v590q0 31 31 31h122q31 0 31 -31v-570q0 -129 61.5 -196.5t165.5 -67.5q121 0 199 84t78 150v600q0 31 31 31h123z" glyph-name="ubreve" horiz-adv-x="1124" unicode="ŭ"/><glyph d="M666 1913q70 0 121 -51.5t51 -121t-51.5 -120.5t-120.5 -51q-76 0 -127.5 50t-51.5 121.5t51.5 122t127.5 50.5zM663.5 1688q22.5 0 39 15t16.5 37.5t-16.5 38t-39 15.5t-39 -15.5t-16.5 -38t16.5 -37.5t39 -15zM1153 1434q31 0 31 -31v-848q0 -279 -143.5 -430.5 t-376.5 -151.5q-236 0 -379.5 151.5t-143.5 430.5v848q0 31 31 31h129q31 0 31 -31v-848q0 -197 90 -298t242 -101q150 0 239.5 101t89.5 298v848q0 31 31 31h129z" glyph-name="Uring" horiz-adv-x="1325" unicode="Ů"/><glyph d="M559 1139q-76 0 -127 50t-51 121.5t51 122t127 50.5q70 0 121 -51.5t51 -121t-51 -120.5t-121 -51zM557.5 1364q-22.5 0 -39 -15.5t-16.5 -38t16.5 -38t39 -15.5t38.5 15.5t16 38t-16 38t-38.5 15.5zM963 1004q31 0 30 -31v-942q0 -31 -30 -31h-115q-27 0 -31 31l-8 121 q-121 -178 -315 -179q-174 0 -273.5 105.5t-99.5 304.5v590q0 31 31 31h122q31 0 31 -31v-570q0 -129 61.5 -196.5t165.5 -67.5q121 0 199 84t78 150v600q0 31 31 31h123z" glyph-name="uring" horiz-adv-x="1124" unicode="ů"/><glyph d="M664 1860q41 0 24 -35l-123 -258q-10 -25 -35 -25h-98q-41 0 -24 35l122 258q10 25 35 25h99zM981 1860q41 0 25 -35l-123 -258q-10 -25 -35 -25h-98q-41 0 -25 35l123 258q10 25 35 25h98zM1153 1434q31 0 31 -31v-848q0 -279 -143.5 -430.5t-376.5 -151.5 q-236 0 -379.5 151.5t-143.5 430.5v848q0 31 31 31h129q31 0 31 -31v-848q0 -197 90 -298t242 -101q150 0 239.5 101t89.5 298v848q0 31 31 31h129z" glyph-name="Uhungarumlaut" horiz-adv-x="1325" unicode="Ű"/><glyph d="M326 1112q-41 0 -25 35l123 258q10 25 35 25h98q41 0 25 -35l-123 -258q-10 -25 -35 -25h-98zM643 1112q-41 0 -25 35l123 258q10 25 35 25h98q41 0 25 -35l-123 -258q-10 -25 -35 -25h-98zM963 1004q31 0 30 -31v-942q0 -31 -30 -31h-115q-27 0 -31 31l-8 121 q-121 -178 -315 -179q-174 0 -273.5 105.5t-99.5 304.5v590q0 31 31 31h122q31 0 31 -31v-570q0 -129 61.5 -196.5t165.5 -67.5q121 0 199 84t78 150v600q0 31 31 31h123z" glyph-name="uhungarumlaut" horiz-adv-x="1124" unicode="ű"/><glyph d="M1153 1434q31 0 31 -31v-848q0 -231 -100.5 -375.5t-274.5 -189.5q-154 -70 -154 -174q0 -59 43 -86t123 -11v-125q-39 -18 -93 -18t-106.5 17.5t-89 66.5t-36.5 123q0 113 96 194q-205 23 -328 172.5t-123 405.5v848q0 31 31 31h129q31 0 31 -31v-848q0 -197 90 -298 t242 -101q150 0 239.5 101t89.5 298v848q0 31 31 31h129z" glyph-name="Uogonek" horiz-adv-x="1304" unicode="Ų"/><glyph d="M963 1004q31 0 30 -31v-942q0 -31 -30 -31q-102 0 -162 -55.5t-60 -122.5q0 -63 43 -91t123 -12v-125q-39 -18 -93 -18t-106.5 17.5t-89 66.5t-36.5 123q0 98 66.5 169t166.5 109l-6 91q-121 -178 -315 -179q-174 0 -273.5 105.5t-99.5 304.5v590q0 31 31 31h122 q31 0 31 -31v-570q0 -129 61.5 -196.5t165.5 -67.5q121 0 199 84t78 150v600q0 31 31 31h123z" glyph-name="uogonek" horiz-adv-x="1103" unicode="ų"/><glyph d="M881 1597q-20 0 -24.5 10.5t7.5 26.5l183 209q14 16 36 17h111q23 0 37 -17l184 -209q12 -16 7 -26.5t-25 -10.5h-80q-23 0 -37 17l-141 164l-142 -164q-14 -16 -36 -17h-80zM2150 1434q35 0 25 -35l-444 -1374q-8 -25 -37 -25h-138q-31 0 -36 25l-383 1122l-385 -1122 q-10 -25 -35 -25h-137q-31 0 -37 25l-441 1374q-14 35 25 35h131q27 0 35 -25l356 -1169l393 1169q2 12 13 18q6 6 20 7h123q10 0 19 -4q8 -6 14 -21l393 -1169l358 1169q6 25 35 25h133z" glyph-name="Wcircumflex" horiz-adv-x="2277" unicode="Ŵ"/><glyph d="M666 1167q-20 0 -24.5 10.5t7.5 26.5l182 209q14 16 37 17h111q23 0 37 -17l184 -209q12 -16 7 -26.5t-25 -10.5h-80q-23 0 -37 17l-141 164l-142 -164q-14 -16 -37 -17h-79zM1737 1004q37 0 24 -35l-354 -944q-10 -25 -37 -25h-129q-29 0 -37 25l-282 737l-283 -737 q-8 -25 -37 -25h-127q-29 0 -37 25l-354 944q-12 35 25 35h120q29 0 37 -25l277 -770l288 770q6 18 21 20q8 4 16 5h109q8 0 16 -5q14 -2 21 -20l289 -770l276 770q10 25 37 25h121z" glyph-name="wcircumflex" horiz-adv-x="1845" unicode="ŵ"/><glyph d="M367 1597q-20 0 -24.5 10.5t7.5 26.5l182 209q14 16 37 17h111q23 0 37 -17l184 -209q12 -16 7 -26.5t-25 -10.5h-80q-23 0 -37 17l-141 164l-142 -164q-14 -16 -37 -17h-79zM1122 1434q18 0 24.5 -10.5t-3.5 -26.5l-422 -711v-655q0 -31 -31 -31h-131q-31 0 -31 31v657 l-422 709q-10 16 -3.5 26.5t24.5 10.5h137q25 0 37 -21l324 -545l323 545q12 20 37 21h137z" glyph-name="Ycircumflex" horiz-adv-x="1249" unicode="Ŷ"/><glyph d="M616 1430q23 0 37 -17l185 -209q12 -16 7 -26.5t-26 -10.5h-80q-23 0 -37 17l-141 164l-141 -164q-14 -16 -37 -17h-80q-20 0 -24.5 10.5t8.5 26.5l182 209q14 16 37 17h110zM1016 1004q37 0 24 -35l-528 -1334q-8 -25 -37 -24h-123q-41 0 -24 35l141 350l-385 973 q-12 35 25 35h124q29 0 37 -25l291 -768l291 768q8 25 37 25h127z" glyph-name="ycircumflex" horiz-adv-x="1124" unicode="ŷ"/><glyph d="M428 1671q-41 0 -71.5 30t-30.5 73q0 41 30.5 70.5t71.5 29.5t71.5 -29.5t30.5 -70.5q0 -43 -30.5 -73t-71.5 -30zM821 1671q-41 0 -71.5 30t-30.5 73q0 41 30.5 70.5t71.5 29.5t72 -29.5t31 -70.5q0 -43 -31 -73t-72 -30zM1122 1434q18 0 24.5 -10.5t-3.5 -26.5 l-422 -711v-655q0 -31 -31 -31h-131q-31 0 -31 31v657l-422 709q-10 16 -3.5 26.5t24.5 10.5h137q25 0 37 -21l324 -545l323 545q12 20 37 21h137z" glyph-name="Ydieresis" horiz-adv-x="1249" unicode="Ÿ"/><glyph d="M791 1860q41 0 24 -35l-123 -258q-10 -25 -35 -25h-98q-41 0 -24 35l122 258q10 25 35 25h99zM1053 174q31 0 30 -31v-112q0 -31 -30 -31h-901q-31 0 -31 31v123q0 18 12 36l727 1070h-688q-31 0 -31 30v113q0 31 31 31h860q31 0 31 -31v-123q0 -18 -12 -37l-729 -1069 h731z" glyph-name="Zacute" horiz-adv-x="1202" unicode="Ź"/><glyph d="M688 1430q41 0 25 -35l-123 -258q-10 -25 -35 -25h-98q-41 0 -25 35l123 258q10 25 35 25h98zM909 973v-101q0 -25 -14 -38l-588 -678h572q31 0 30 -31v-94q0 -31 -30 -31h-758q-31 0 -31 31v102q0 25 14 39l586 678h-569q-31 0 -31 31v92q0 31 31 31h758q30 0 30 -31z " glyph-name="zacute" horiz-adv-x="999" unicode="ź"/><glyph d="M602 1671q-41 0 -71.5 30t-30.5 73q0 41 30.5 70.5t71.5 29.5t72 -29.5t31 -70.5q0 -43 -31 -73t-72 -30zM1053 174q31 0 30 -31v-112q0 -31 -30 -31h-901q-31 0 -31 31v123q0 18 12 36l727 1070h-688q-31 0 -31 30v113q0 31 31 31h860q31 0 31 -31v-123q0 -18 -12 -37 l-729 -1069h731z" glyph-name="Zdotaccent" horiz-adv-x="1202" unicode="Ż"/><glyph d="M500 1241q-41 0 -72 29.5t-31 72.5q0 41 31 71t72 30t71.5 -30t30.5 -71q0 -43 -30.5 -72.5t-71.5 -29.5zM909 973v-101q0 -25 -14 -38l-588 -678h572q31 0 30 -31v-94q0 -31 -30 -31h-758q-31 0 -31 31v102q0 25 14 39l586 678h-569q-31 0 -31 31v92q0 31 31 31h758 q30 0 30 -31z" glyph-name="zdotaccent" horiz-adv-x="999" unicode="ż"/><glyph d="M657 1597h-110q-23 0 -37 17l-182 209q-12 16 -8 26.5t24 10.5h80q23 0 37 -17l141 -164l141 164q14 16 37 17h80q20 0 25.5 -10.5t-6.5 -26.5l-185 -209q-14 -17 -37 -17zM1053 174q31 0 30 -31v-112q0 -31 -30 -31h-901q-31 0 -31 31v123q0 18 12 36l727 1070h-688 q-31 0 -31 30v113q0 31 31 31h860q31 0 31 -31v-123q0 -18 -12 -37l-729 -1069h731z" glyph-name="Zcaron" horiz-adv-x="1202" unicode="Ž"/><glyph d="M555 1167h-111q-23 0 -36 17l-183 209q-12 16 -8 26.5t25 10.5h80q23 0 36 -17l142 -164l141 164q14 16 37 17h80q20 0 25 -10.5t-7 -26.5l-184 -209q-14 -17 -37 -17zM909 973v-101q0 -25 -14 -38l-588 -678h572q31 0 30 -31v-94q0 -31 -30 -31h-758q-31 0 -31 31v102 q0 25 14 39l586 678h-569q-31 0 -31 31v92q0 31 31 31h758q30 0 30 -31z" glyph-name="zcaron" horiz-adv-x="999" unicode="ž"/><glyph d="M705 1434q20 -12 20 -37v-107q0 -18 -10 -24t-27 4q-59 33 -115 33q-76 0 -102.5 -34t-26.5 -106v-159h213q31 0 31 -31v-92q0 -31 -31 -31h-213v-950q0 -289 -301 -289q-82 0 -143 33q-20 12 -20 37v106q0 41 36 20q59 -33 115 -32q76 0 102.5 33.5t26.5 105.5v936h-119 q-31 0 -30 31v92q0 31 30 31h119v174q0 289 299 288q85 1 146 -32z" glyph-name="florin" horiz-adv-x="704" unicode="ƒ"/><glyph d="M604 1614l-182 209q-12 16 -8 26.5t24 10.5h80q23 0 37 -17l141 -164l142 164q14 16 36 17h80q20 0 25.5 -10.5t-6.5 -26.5l-185 -209q-14 -16 -36 -17h-111q-23 1 -37 17zM1288 35q14 -35 -24 -35h-131q-27 0 -35 25l-105 299h-614l-107 -299q-8 -25 -34 -25h-132 q-39 0 -24 35l502 1374q10 25 37 25h129q29 0 36 -25zM434 479h504l-252 715z" glyph-name="uni01CD" horiz-adv-x="1370" unicode="Ǎ"/><glyph d="M520 1184l-182 209q-12 16 -8 26.5t24 10.5h80q23 0 37 -17l141 -164l142 164q14 16 37 17h79q20 0 25.5 -10.5t-6.5 -26.5l-184 -209q-14 -16 -37 -17h-111q-23 1 -37 17zM1081 1004q31 0 31 -31v-942q0 -31 -31 -31h-108q-27 0 -31 31l-10 121q-125 -166 -342 -166 q-211 0 -350.5 149.5t-139.5 364.5q0 221 139.5 372.5t350.5 151.5q219 0 344 -176l8 125q4 31 31 31h108zM608.5 154q141.5 0 234.5 100t93 247.5t-93 251t-235 103.5q-143 0 -237.5 -100.5t-94.5 -253.5q0 -147 95.5 -247.5t237 -100.5z" glyph-name="uni01CE" unicode="ǎ"/><glyph d="M303 1597h-110q-23 0 -37 17l-183 209q-12 16 -8 26.5t25 10.5h80q23 0 36 -17l142 -164l141 164q14 16 37 17h80q20 0 25.5 -10.5t-7.5 -26.5l-184 -209q-14 -17 -37 -17zM152 1403q0 31 30 31h129q31 0 31 -31v-1372q0 -31 -31 -31h-129q-31 0 -30 31v1372z" glyph-name="uni01CF" horiz-adv-x="493" unicode="Ǐ"/><glyph d="M268 1167h-110q-23 0 -37 17l-182 209q-12 16 -8.5 26.5t24.5 10.5h80q23 0 37 -17l141 -164l141 164q14 16 37 17h80q20 0 25.5 -10.5t-7.5 -26.5l-184 -209q-14 -17 -37 -17zM121 973q0 31 31 31h122q31 0 31 -31v-942q0 -31 -31 -31h-122q-31 0 -31 31v942z" glyph-name="uni01D0" horiz-adv-x="425" unicode="ǐ"/><glyph d="M899 1597h-111q-23 0 -36 17l-183 209q-12 16 -8 26.5t25 10.5h80q23 0 36 -17l142 -164l141 164q14 16 37 17h80q20 0 25.5 -10.5t-7.5 -26.5l-184 -209q-14 -17 -37 -17zM844 -27q-305 0 -519 215t-214 523q0 309 214 524t519 215t519 -215t214 -524 q0 -307 -214 -522.5t-519 -215.5zM843.5 160q229.5 0 385 159.5t155.5 391.5q0 236 -155.5 394.5t-385 158.5t-385 -159t-155.5 -394q0 -231 155.5 -391t385 -160z" glyph-name="uni01D1" horiz-adv-x="1687" unicode="Ǒ"/><glyph d="M666 1167h-111q-23 0 -37 17l-182 209q-12 16 -8 26.5t24 10.5h80q23 0 37 -17l141 -164l142 164q14 16 36 17h80q20 0 25.5 -10.5t-6.5 -26.5l-185 -209q-13 -17 -36 -17zM610 -20q-215 0 -362.5 151.5t-147.5 370.5q0 221 147.5 372.5t362.5 151.5q217 0 364.5 -151.5 t147.5 -372.5q0 -219 -147.5 -370.5t-364.5 -151.5zM610.5 147q141.5 0 237.5 100.5t96 254t-96 255t-237.5 101.5t-238 -101.5t-96.5 -254.5q0 -152 96.5 -253.5t238 -101.5z" glyph-name="uni01D2" horiz-adv-x="1222" unicode="ǒ"/><glyph d="M719 1597h-111q-23 0 -37 17l-182 209q-12 16 -8 26.5t25 10.5h79q23 0 37 -17l142 -164l141 164q14 16 37 17h80q20 0 25 -10.5t-7 -26.5l-184 -209q-14 -17 -37 -17zM1153 1434q31 0 31 -31v-848q0 -279 -143.5 -430.5t-376.5 -151.5q-236 0 -379.5 151.5t-143.5 430.5 v848q0 31 31 31h129q31 0 31 -31v-848q0 -197 90 -298t242 -101q150 0 239.5 101t89.5 298v848q0 31 31 31h129z" glyph-name="uni01D3" horiz-adv-x="1325" unicode="Ǔ"/><glyph d="M465 1184l-182 209q-12 16 -8 26.5t24 10.5h80q23 0 37 -17l141 -164l141 164q14 16 37 17h80q20 0 25.5 -10.5t-6.5 -26.5l-185 -209q-14 -16 -37 -17h-110q-23 1 -37 17zM963 1004q31 0 30 -31v-942q0 -31 -30 -31h-115q-27 0 -31 31l-8 121q-121 -178 -315 -179 q-174 0 -273.5 105.5t-99.5 304.5v590q0 31 31 31h122q31 0 31 -31v-570q0 -129 61.5 -196.5t165.5 -67.5q121 0 199 84t78 150v600q0 31 31 31h123z" glyph-name="uni01D4" horiz-adv-x="1124" unicode="ǔ"/><glyph d="M866 -27q-106 -55 -106 -151q0 -63 43 -91t123 -12v-125q-39 -18 -93.5 -18t-106.5 17.5t-89 66.5t-37 123q0 117 102 205q-256 49 -423.5 251.5t-167.5 471.5q0 309 214 524t519 215t519 -215t214 -524q0 -301 -207 -514.5t-504 -223.5zM303 711q0 -231 155.5 -391 t385 -160t385 159.5t155.5 391.5q0 236 -155.5 394.5t-385 158.5t-385 -158.5t-155.5 -394.5z" glyph-name="uni01EA" horiz-adv-x="1667" unicode="Ǫ"/><glyph d="M698 -12q-141 -63 -141 -172q0 -59 44 -86t122 -11v-125q-39 -18 -93.5 -18t-106.5 17.5t-89 66.5t-37 123q0 123 113 207q-180 35 -295 177t-115 335q0 221 147.5 372.5t362.5 151.5q217 0 364.5 -151.5t147.5 -372.5q0 -197 -120 -340t-304 -174zM276 502 q0 -152 96.5 -253.5t238 -101.5t237.5 100.5t96 254t-96 255t-237.5 101.5t-238 -101t-96.5 -255z" glyph-name="uni01EB" horiz-adv-x="1202" unicode="ǫ"/><glyph d="M322 1073q0 -74 53 -128t133 -84t172 -70.5t172 -84.5t133 -128t53 -199q0 -174 -139 -289t-334 -115q-150 0 -272.5 60.5t-186.5 159.5q-14 23 7 41l75 77q20 20 43 -2q166 -158 334 -157q125 0 205 66.5t80 166.5q0 88 -74 148.5t-178 101.5t-208.5 87t-178.5 135 t-74 216q0 164 122 269.5t300 105.5q119 0 227.5 -51t186.5 -142q20 -20 0 -43l-68 -73q-23 -25 -43 -4q-147 137 -301 137q-104 0 -171.5 -54.5t-67.5 -146.5zM559 -78q51 0 86 -38t35 -107q0 -80 -44 -183.5t-118 -191.5l-55 37q76 109 86 256q-47 6 -77 37.5t-30 77.5 q0 47 34 79.5t83 32.5z" glyph-name="Scommaaccent" horiz-adv-x="1138" unicode="Ș"/><glyph d="M295 743q0 -57 55.5 -94t134 -61.5t157.5 -56t134 -98t55 -165.5q0 -127 -108.5 -207.5t-247.5 -80.5q-119 0 -217 48t-158 119q-18 20 -2 39l54 72q16 20 45 -2q141 -117 272 -117q82 0 132 34t50 97q0 59 -55 99.5t-133 67t-156 57t-133 94t-55 155.5q0 125 95 204 t235 79q88 0 177 -40t150 -112q16 -18 -2 -43l-47 -59q-16 -23 -45 2q-123 98 -227 98q-63 0 -111.5 -31.5t-48.5 -97.5zM469 -78q51 0 86 -38t35 -107q0 -80 -44 -183.5t-118 -191.5l-55 37q76 109 86 256q-47 6 -77 37.5t-30 77.5q0 47 34 79.5t83 32.5z" glyph-name="scommaaccent" horiz-adv-x="919" unicode="ș"/><glyph d="M975 1434q31 0 31 -31v-113q0 -31 -31 -30h-322v-1229q0 -31 -30 -31h-129q-31 0 -31 31v1229h-322q-31 0 -30 30v113q0 31 30 31h834zM565 -78q51 0 86 -38t35 -107q0 -80 -44 -183.5t-118 -191.5l-55 37q76 109 86 256q-47 6 -76.5 37.5t-29.5 77.5q0 47 33.5 79.5 t82.5 32.5z" glyph-name="uni021A" horiz-adv-x="1116" unicode="Ț"/><glyph d="M623 1004q31 0 30 -31v-92q0 -31 -30 -31h-164v-819q0 -31 -31 -31h-123q-31 0 -31 31v819h-163q-31 0 -31 31v92q0 31 31 31h163v276q0 31 31 31h123q31 0 31 -31v-276h164zM367 -61q51 0 85.5 -38t34.5 -108q0 -80 -44 -183.5t-117 -191.5l-56 37q76 109 86 256 q-47 6 -76.5 38t-29.5 77q0 47 34 80t83 33z" glyph-name="uni021B" horiz-adv-x="733" unicode="ț"/><glyph d="M291 1004h123q31 0 30 -31v-961q0 -205 -93 -308t-259 -110q-18 0 -22 19l-37 127q-8 23 16 22q211 12 211 271v940q0 31 31 31z" glyph-name="uni0237" horiz-adv-x="544" unicode="ȷ"/><glyph d="M371 1434q23 0 37 -17l184 -209q12 -16 7 -26.5t-26 -10.5h-79q-23 0 -37 17l-142 164l-141 -164q-14 -16 -37 -17h-80q-20 0 -24 10.5t8 26.5l182 209q14 16 37 17h111z" glyph-name="circumflex" horiz-adv-x="632" unicode="ˆ"/><glyph d="M371 1171h-111q-23 0 -37 17l-182 209q-12 16 -8 26.5t24 10.5h80q23 0 37 -17l141 -164l142 164q14 16 37 17h79q20 0 25.5 -10.5t-6.5 -26.5l-184 -209q-14 -17 -37 -17z" glyph-name="caron" horiz-adv-x="632" unicode="ˇ"/><glyph d="M492 1405q6 29 32 29h62q33 0 28 -31q-10 -106 -89 -176t-201.5 -70t-201.5 69.5t-89 176.5q-4 31 28 31h62q27 0 33 -29q12 -57 56 -93t111.5 -36t112 36t56.5 93z" glyph-name="breve" horiz-adv-x="647" unicode="˘"/><glyph d="M133 1241q-41 0 -71.5 29.5t-30.5 72.5q0 41 30.5 71t71.5 30t72 -30t31 -71q0 -43 -31 -72.5t-72 -29.5z" glyph-name="dotaccent" horiz-adv-x="266" unicode="˙"/><glyph d="M209 1483q70 0 121 -51.5t51 -121t-51 -120.5t-121 -51q-76 0 -127 50t-51 121.5t51 122t127 50.5zM206.5 1257q22.5 0 39 15.5t16.5 38t-16.5 38t-39 15.5t-38.5 -15.5t-16 -38t16 -38t38.5 -15.5z" glyph-name="ring" horiz-adv-x="411" unicode="˚"/><glyph d="M412 0q-96 0 -159 -56.5t-63 -121.5q0 -63 43 -91t123 -12v-125q-39 -18 -93 -18t-106.5 17.5t-89 66.5t-36.5 123q0 141 130 226t251 85v-94z" glyph-name="ogonek" horiz-adv-x="442" unicode="˛"/><glyph d="M215 1473q49 0 93 -21.5t72 -47.5t63.5 -47.5t70.5 -21.5q66 0 88 62q6 18 23 18h41q20 0 20 -20q-8 -82 -58 -126t-122 -44q-80 0 -167 68.5t-136 68.5q-66 0 -88 -62q-6 -18 -23 -18h-41q-23 0 -18 27q8 80 57 122t125 42z" glyph-name="tilde" horiz-adv-x="716" unicode="˜"/><glyph d="M291 1491q41 0 24 -35l-122 -258q-10 -25 -35 -24h-99q-41 0 -24 34l123 258q10 25 35 25h98zM608 1491q41 0 25 -35l-123 -258q-10 -25 -35 -24h-98q-41 0 -25 34l123 258q10 25 35 25h98z" glyph-name="hungarumlaut" horiz-adv-x="714" unicode="˝"/><glyph d="M-139 -78q51 0 86 -38t35 -107q0 -80 -44 -183.5t-118 -191.5l-56 37q76 109 86 256q-47 6 -76.5 37.5t-29.5 77.5q0 47 34 79.5t83 32.5z" glyph-name="uni0326" horiz-adv-x="0" unicode="̦"/><glyph d="M1290 35q14 -35 -24 -35h-1157q-39 0 -25 35l502 1374q8 25 37 25h129q29 0 36 -25zM688 1194l-366 -1038h731z" glyph-name="Delta" horiz-adv-x="1353" unicode="Δ"/><glyph d="M1335 201v-45h234v-156h-426v264q238 160 237 465q0 229 -157.5 385t-388.5 156q-229 0 -387 -156t-158 -385q0 -303 235 -465v-264h-424v156h234v45q-233 186 -234 528q0 303 214 512t519.5 209t520.5 -209t215 -512q-1 -342 -234 -528z" glyph-name="Omega" horiz-adv-x="1669" unicode="Ω"/><glyph d="M963 1004q31 0 30 -31v-942q0 -31 -30 -31h-115q-27 0 -31 31l-8 121q-121 -178 -315 -179q-115 0 -199 47v-378q0 -31 -31 -31h-123q-31 0 -30 31v1040h10v291q0 31 31 31h122q31 0 31 -31v-570q0 -129 61.5 -196.5t165.5 -67.5q121 0 199 84t78 150v600q0 31 31 31h123 z" glyph-name="mu" horiz-adv-x="1103" unicode="μ"/><glyph d="M1212 158q37 6 37 -29v-88q0 -55 -153 -55q-223 0 -224 235v629h-368v-819q0 -31 -31 -31h-123q-31 0 -31 31v819h-174q-31 0 -30 31v92q0 31 30 31h1069q31 0 31 -31v-92q0 -31 -31 -31h-157v-608q0 -88 80 -88q50 0 75 4z" glyph-name="pi" horiz-adv-x="1335" unicode="π"/><glyph d="M348 1671q-41 0 -71.5 30t-30.5 73q0 41 30.5 70.5t71.5 29.5t72 -29.5t31 -70.5q0 -43 -31 -73t-72 -30zM741 1671q-41 0 -71.5 30t-30.5 73q0 41 30.5 70.5t71.5 29.5t72 -29.5t31 -70.5q0 -43 -31 -73t-72 -30zM901 174q31 0 31 -31v-112q0 -31 -31 -31h-719 q-31 0 -30 31v1372q0 31 30 31h717q31 0 31 -31v-113q0 -31 -31 -30h-557v-418h524q31 0 31 -31v-113q0 -31 -31 -30h-524v-494h559z" glyph-name="afii10023" horiz-adv-x="1064" unicode="Ё"/><glyph d="M461 1542q-41 0 -25 35l123 258q10 25 35 25h98q41 0 25 -35l-123 -258q-10 -25 -35 -25h-98zM895 1434q31 0 31 -31v-113q0 -31 -31 -30h-553v-1229q0 -31 -31 -31h-129q-31 0 -30 31v1372q0 31 30 31h713z" glyph-name="afii10052" horiz-adv-x="1003" unicode="Ѓ"/><glyph d="M1243 299l82 -84q23 -23 -2 -43q-219 -199 -487 -199q-305 0 -515 215t-210 523q0 309 209.5 524t515.5 215q266 0 487 -197q23 -23 2 -43l-82 -86q-20 -20 -43 0q-166 139 -364 140q-197 0 -344.5 -129t-178.5 -330h525q31 0 30 -31v-112q0 -31 -30 -31h-527 q27 -205 175.5 -338t349.5 -133q199 0 364 139q23 20 43 0z" glyph-name="afii10053" horiz-adv-x="1415" unicode="Є"/><glyph d="M152 1403q0 31 30 31h129q31 0 31 -31v-1372q0 -31 -31 -31h-129q-31 0 -30 31v1372z" glyph-name="afii10055" horiz-adv-x="493" unicode="І"/><glyph d="M51 1671q-41 0 -71.5 30t-30.5 73q0 41 30.5 70.5t71.5 29.5t72 -29.5t31 -70.5q0 -43 -31 -73t-72 -30zM444 1671q-41 0 -71.5 30t-30.5 73q0 41 30.5 70.5t71.5 29.5t72 -29.5t31 -70.5q0 -43 -31 -73t-72 -30zM152 1403q0 31 30 31h129q31 0 31 -31v-1372 q0 -31 -31 -31h-129q-31 0 -30 31v1372z" glyph-name="afii10056" horiz-adv-x="493" unicode="Ї"/><glyph d="M584 1542q-41 0 -25 35l123 258q10 25 35 25h98q41 0 25 -35l-123 -258q-10 -25 -35 -25h-98zM1186 37q10 -16 5 -26.5t-24 -10.5h-157q-25 0 -37 18l-498 670l-133 -147v-510q0 -31 -31 -31h-129q-31 0 -30 31v1372q0 31 30 31h129q31 0 31 -31v-608l549 622 q14 16 37 17h168q20 0 24 -11.5t-8 -25.5l-512 -570z" glyph-name="afii10061" horiz-adv-x="1273" unicode="Ќ"/><glyph d="M674 1585q-123 0 -202 69.5t-89 176.5q-2 31 29 31h61q27 0 33 -29q12 -57 56 -93t111.5 -36t111.5 36t57 93q6 29 32 29h62q31 0 29 -31q-10 -106 -89 -176t-202 -70zM1231 1434q18 0 24.5 -10.5t-4.5 -26.5l-831 -1377q-12 -20 -37 -20h-139q-41 0 -21 37l346 573 l-473 787q-10 16 -4 26.5t25 10.5h137q25 0 37 -21l381 -633l383 633q12 20 37 21h139z" glyph-name="afii10062" horiz-adv-x="1345" unicode="Ў"/><glyph d="M1288 35q14 -35 -24 -35h-131q-27 0 -35 25l-105 299h-614l-107 -299q-8 -25 -34 -25h-132q-39 0 -24 35l502 1374q10 25 37 25h129q29 0 36 -25zM434 479h504l-252 715z" glyph-name="afii10017" horiz-adv-x="1370" unicode="А"/><glyph d="M578 901q231 0 360 -125t129 -325.5t-129 -325.5t-360 -125h-396q-31 0 -30 31v1372q0 31 30 31h713q31 0 31 -31v-113q0 -31 -31 -30h-553v-359h236zM569 174q139 0 226.5 66.5t87.5 210t-87 210t-227 66.5h-227v-553h227z" glyph-name="afii10018" horiz-adv-x="1136" unicode="Б"/><glyph d="M848 774q133 -31 214 -128t81 -228q0 -418 -514 -418h-447q-31 0 -30 31v1372q0 31 30 31h449q211 0 315.5 -101.5t104.5 -247.5q0 -111 -53.5 -193.5t-149.5 -117.5zM866 1069q0 190 -252 191h-272v-416h272q119 0 185.5 58t66.5 167zM627 174q322 0 321 256 q0 250 -321 250h-285v-506h285z" glyph-name="afii10019" horiz-adv-x="1232" unicode="В"/><glyph d="M895 1434q31 0 31 -31v-113q0 -31 -31 -30h-553v-1229q0 -31 -31 -31h-129q-31 0 -30 31v1372q0 31 30 31h713z" glyph-name="afii10020" horiz-adv-x="1003" unicode="Г"/><glyph d="M1436 174q31 0 30 -31v-254q0 -31 -30 -30h-131q-31 0 -31 30v111h-1000v-111q0 -31 -30 -30h-131q-31 0 -31 30v254q0 31 31 31h75q123 51 123 254v975q0 31 31 31h967q31 0 30 -31v-1229h97zM504 408q0 -137 -45 -234h690v1086h-645v-852z" glyph-name="afii10021" horiz-adv-x="1548" unicode="Д"/><glyph d="M901 174q31 0 31 -31v-112q0 -31 -31 -31h-719q-31 0 -30 31v1372q0 31 30 31h717q31 0 31 -31v-113q0 -31 -31 -30h-557v-418h524q31 0 31 -31v-113q0 -31 -31 -30h-524v-494h559z" glyph-name="afii10022" horiz-adv-x="1064" unicode="Е"/><glyph d="M1966 37q10 -16 5 -26.5t-23 -10.5h-158q-25 0 -37 18l-498 670l-133 -147v-510q0 -31 -30 -31h-150q-31 0 -31 31v510l-133 147l-497 -670q-12 -18 -37 -18h-158q-18 0 -23.5 10t5.5 27l585 790l-512 570q-12 14 -8 25.5t25 11.5h168q23 0 36 -17l549 -622v608 q0 31 31 31h150q31 0 30 -31v-608l549 622q14 16 37 17h168q20 0 24.5 -11.5t-8.5 -25.5l-512 -570z" glyph-name="afii10024" horiz-adv-x="2031" unicode="Ж"/><glyph d="M748 772q111 -43 184.5 -137t73.5 -221q0 -184 -138.5 -307t-349.5 -123q-262 0 -418 178q-18 23 2 43l82 78q23 23 45 0q123 -115 287 -115q131 0 213 68.5t82 183.5t-92 185.5t-252 72.5q-31 0 -31 31v106q0 33 31 33q147 2 222 65.5t75 151.5q0 92 -71.5 146.5 t-168.5 54.5q-135 0 -256 -109q-25 -20 -45 0l-76 74q-20 20 -2 43q145 176 383 176q170 0 297 -106.5t127 -264.5q0 -98 -58 -180t-146 -127z" glyph-name="afii10025" horiz-adv-x="1097" unicode="З"/><glyph d="M1186 1434q27 -4 26 -31v-1372q0 -31 -30 -31h-129q-31 0 -31 31v1122l-660 -1133q-12 -20 -36 -20h-168q-27 4 -27 31v1372q0 31 31 31h129q31 0 31 -31v-1122l661 1132q12 20 37 21h166z" glyph-name="afii10026" horiz-adv-x="1363" unicode="И"/><glyph d="M682 1585q-123 0 -202 69.5t-89 176.5q-2 31 29 31h61q27 0 33 -29q12 -57 56 -93t112 -36t112 36t56 93q6 29 33 29h61q31 0 29 -31q-10 -106 -89 -176t-202 -70zM1186 1434q27 -4 26 -31v-1372q0 -31 -30 -31h-129q-31 0 -31 31v1122l-660 -1133q-12 -20 -36 -20h-168 q-27 4 -27 31v1372q0 31 31 31h129q31 0 31 -31v-1122l661 1132q12 20 37 21h166z" glyph-name="afii10027" horiz-adv-x="1363" unicode="Й"/><glyph d="M1186 37q10 -16 5 -26.5t-24 -10.5h-157q-25 0 -37 18l-498 670l-133 -147v-510q0 -31 -31 -31h-129q-31 0 -30 31v1372q0 31 30 31h129q31 0 31 -31v-608l549 622q14 16 37 17h168q20 0 24 -11.5t-8 -25.5l-512 -570z" glyph-name="afii10028" horiz-adv-x="1273" unicode="К"/><glyph d="M1268 1434q31 0 30 -31v-1372q0 -31 -30 -31h-129q-31 0 -31 31v1229h-645v-852q0 -205 -97.5 -311.5t-263.5 -106.5q-14 0 -22 18l-37 127q-4 23 16 23q211 0 211 270v975q0 31 31 31h967z" glyph-name="afii10029" horiz-adv-x="1429" unicode="Л"/><glyph d="M1581 1434q31 0 31 -31v-1372q0 -31 -31 -31h-129q-31 0 -31 31v1061l-30 -84l-410 -985q-8 -23 -35 -23h-127q-29 0 -37 23l-409 985l-31 86v-1063q0 -31 -31 -31h-129q-31 0 -30 31v1372q0 31 30 31h162q29 0 37 -21l502 -1196l499 1196q8 20 37 21h162z" glyph-name="afii10030" horiz-adv-x="1763" unicode="М"/><glyph d="M1139 1434q31 0 30 -31v-1372q0 -31 -30 -31h-129q-31 0 -31 31v594h-637v-594q0 -31 -31 -31h-129q-31 0 -30 31v1372q0 31 30 31h129q31 0 31 -31v-604h637v604q0 31 31 31h129z" glyph-name="afii10031" horiz-adv-x="1320" unicode="Н"/><glyph d="M844 -27q-305 0 -519 215t-214 523q0 309 214 524t519 215t519 -215t214 -524q0 -307 -214 -522.5t-519 -215.5zM843.5 160q229.5 0 385 159.5t155.5 391.5q0 236 -155.5 394.5t-385 158.5t-385 -159t-155.5 -394q0 -231 155.5 -391t385 -160z" glyph-name="afii10032" horiz-adv-x="1687" unicode="О"/><glyph d="M1139 1434q31 0 30 -31v-1372q0 -31 -30 -31h-129q-31 0 -31 31v1229h-637v-1229q0 -31 -31 -31h-129q-31 0 -30 31v1372q0 31 30 31h957z" glyph-name="afii10033" horiz-adv-x="1300" unicode="П"/><glyph d="M578 1434q231 0 360 -125t129 -326t-129 -326t-360 -125h-236v-501q0 -31 -31 -31h-129q-31 0 -30 31v1372q0 31 30 31h396zM569 707q139 0 226.5 66.5t87.5 209.5t-87 210t-227 67h-227v-553h227z" glyph-name="afii10034" horiz-adv-x="1157" unicode="Р"/><glyph d="M1243 299l82 -84q23 -23 -2 -43q-219 -199 -487 -199q-305 0 -515 215t-210 523q0 309 209.5 524t515.5 215q266 0 487 -197q23 -23 2 -43l-82 -86q-20 -20 -43 0q-166 139 -364 140q-221 0 -376 -159t-155 -394q0 -233 154.5 -392t376.5 -159q199 0 364 139q23 20 43 0z " glyph-name="afii10035" horiz-adv-x="1435" unicode="С"/><glyph d="M975 1434q31 0 31 -31v-113q0 -31 -31 -30h-322v-1229q0 -31 -30 -31h-129q-31 0 -31 31v1229h-322q-31 0 -30 30v113q0 31 30 31h834z" glyph-name="afii10036" horiz-adv-x="1116" unicode="Т"/><glyph d="M1231 1434q18 0 24.5 -10.5t-4.5 -26.5l-831 -1377q-12 -20 -37 -20h-139q-41 0 -21 37l346 573l-473 787q-10 16 -4 26.5t25 10.5h137q25 0 37 -21l381 -633l383 633q12 20 37 21h139z" glyph-name="afii10037" horiz-adv-x="1345" unicode="У"/><glyph d="M995 1311q322 0 503 -176.5t181 -418t-181 -417.5t-503 -176h-6v-92q0 -31 -31 -31h-129q-31 0 -30 31v92h-25q-322 0 -503 176t-181 417.5t181.5 418t502.5 176.5h25v92q0 31 30 31h129q31 0 31 -31v-92h6zM774 297h25v840h-25q-236 0 -362.5 -118t-126.5 -302.5 t126.5 -302t362.5 -117.5zM995 297q236 0 363 117.5t127 302t-127 302.5t-363 118h-6v-840h6z" glyph-name="afii10038" horiz-adv-x="1769" unicode="Ф"/><glyph d="M1180 37q10 -16 4 -26.5t-25 -10.5h-137q-25 0 -37 20l-342 549l-342 -549q-12 -20 -37 -20h-137q-18 0 -24.5 10t3.5 27l435 696l-414 664q-10 16 -4 26.5t24 10.5h138q25 0 37 -21l321 -516l322 516q12 20 36 21h138q18 0 24 -10.5t-4 -26.5l-414 -664z" glyph-name="afii10039" horiz-adv-x="1286" unicode="Х"/><glyph d="M1264 174q31 0 30 -31v-254q0 -31 -30 -30h-129q-31 0 -31 30v111h-922q-31 0 -30 31v1372q0 31 30 31h129q31 0 31 -31v-1229h637v1229q0 31 31 31h129q31 0 30 -31v-1229h95z" glyph-name="afii10040" horiz-adv-x="1376" unicode="Ц"/><glyph d="M1057 1434q31 0 30 -31v-1372q0 -31 -30 -31h-129q-31 0 -31 31v594q-150 -201 -416 -201q-172 0 -285.5 114.5t-113.5 311.5v553q0 31 31 31h131q31 0 30 -31v-533q0 -127 74 -195.5t193 -68.5q78 0 148.5 25.5t113.5 61.5t68.5 69t25.5 51v590q0 31 31 31h129z" glyph-name="afii10041" horiz-adv-x="1228" unicode="Ч"/><glyph d="M1966 1434q31 0 31 -31v-1372q0 -31 -31 -31h-1784q-31 0 -30 31v1372q0 31 30 31h129q31 0 31 -31v-1229h637v1229q0 31 31 31h129q31 0 30 -31v-1229h637v1229q0 31 31 31h129z" glyph-name="afii10042" horiz-adv-x="2127" unicode="Ш"/><glyph d="M2091 174q31 0 31 -31v-254q0 -31 -31 -30h-131q-31 0 -31 30v111h-1747q-31 0 -30 31v1372q0 31 30 31h129q31 0 31 -31v-1229h637v1229q0 31 31 31h129q31 0 30 -31v-1229h637v1229q0 31 31 31h129q31 0 31 -31v-1229h94z" glyph-name="afii10043" horiz-adv-x="2203" unicode="Щ"/><glyph d="M727 901q231 0 360.5 -125t129.5 -325.5t-129.5 -325.5t-360.5 -125h-395q-31 0 -31 31v1229h-219q-31 0 -31 30v113q0 31 31 31h379q31 0 31 -31v-502h235zM719 174q139 0 226 66.5t87 210t-87 210t-226 66.5h-227v-553h227z" glyph-name="afii10044" horiz-adv-x="1286" unicode="Ъ"/><glyph d="M578 0h-396q-31 0 -30 31v1372q0 31 30 31h129q31 0 31 -31v-502h236q231 0 360 -125t129 -325.5t-129 -325.5t-360 -125zM1331 1403q0 31 31 31h129q31 0 31 -31v-1372q0 -31 -31 -31h-129q-31 0 -31 31v1372zM569 727h-227v-553h227q139 0 226.5 66.5t87.5 210 t-87.5 210t-226.5 66.5z" glyph-name="afii10045" horiz-adv-x="1652" unicode="Ы"/><glyph d="M578 0h-396q-31 0 -30 31v1372q0 31 30 31h129q31 0 31 -31v-502h236q231 0 360 -125t129 -325.5t-129 -325.5t-360 -125zM569 727h-227v-553h227q139 0 226.5 66.5t87.5 210t-87.5 210t-226.5 66.5z" glyph-name="afii10046" horiz-adv-x="1136" unicode="Ь"/><glyph d="M590 1450q305 0 515 -215t210 -524q0 -307 -210 -522.5t-515 -215.5q-268 0 -488 199q-25 20 -2 43l82 84q20 20 43 0q166 -139 365 -139q201 0 349 133t175 338h-526q-31 0 -31 31v112q0 31 31 31h524q-31 201 -178.5 330t-343.5 129q-199 0 -365 -140q-23 -20 -43 0 l-82 86q-20 20 2 43q222 197 488 197z" glyph-name="afii10047" horiz-adv-x="1415" unicode="Э"/><glyph d="M1241 1450q305 0 519 -215t214 -524q0 -307 -214 -522.5t-519 -215.5q-283 0 -491.5 189.5t-237.5 468.5h-170v-600q0 -31 -31 -31h-129q-31 0 -30 31v1372q0 31 30 31h129q31 0 31 -31v-598h172q35 276 240.5 460.5t486.5 184.5zM1241 160q229 0 385 159.5t156 391.5 q0 236 -156 394.5t-385 158.5t-385 -159t-156 -394q0 -231 156 -391t385 -160z" glyph-name="afii10048" horiz-adv-x="2062" unicode="Ю"/><glyph d="M1012 1434q31 0 30 -31v-1372q0 -31 -30 -31h-129q-31 0 -31 31v501h-199l-338 -512q-12 -20 -36 -20h-142q-43 0 -20 37l344 514q-160 37 -247 152.5t-87 279.5q0 201 129 326t360 125h396zM852 707v553h-227q-139 0 -226.5 -67t-87.5 -210t87 -209.5t227 -66.5h227z " glyph-name="afii10049" horiz-adv-x="1193" unicode="Я"/><glyph d="M1081 1004q31 0 31 -31v-942q0 -31 -31 -31h-108q-27 0 -31 31l-10 121q-125 -166 -342 -166q-211 0 -350.5 149.5t-139.5 364.5q0 221 139.5 372.5t350.5 151.5q219 0 344 -176l8 125q4 31 31 31h108zM608.5 154q141.5 0 234.5 100t93 247.5t-93 251t-235 103.5 q-143 0 -237.5 -100.5t-94.5 -253.5q0 -147 95.5 -247.5t237 -100.5z" glyph-name="afii10065" unicode="а"/><glyph d="M643 1024q211 0 350.5 -151.5t139.5 -372.5t-139.5 -373t-350.5 -152q-213 0 -342 170l-8 -114q-4 -31 -31 -31h-110q-31 0 -31 31v1040q0 188 77.5 275.5t254.5 87.5h260q100 0 149 41h164q-16 -119 -93 -163t-218 -44h-226q-98 0 -139 -44t-41 -145v-215 q129 160 334 160zM625 143q143 0 236 102.5t93 256t-93 255t-236 101.5q-141 0 -234.5 -104.5t-93.5 -252t93.5 -253t234.5 -105.5z" glyph-name="afii10066" horiz-adv-x="1222" unicode="б"/><glyph d="M803 539q111 -18 174 -88t63 -162q0 -139 -109.5 -214t-328.5 -75h-450q-31 0 -31 31v942q0 31 31 31h450q170 0 263 -69t93 -183q1 -160 -155 -213zM788 729q0 55 -38.5 88t-149.5 33h-295v-248h279q204 0 204 127zM600 156q264 0 264 147q0 160 -280 160h-279v-307h295 z" glyph-name="afii10067" horiz-adv-x="1118" unicode="в"/><glyph d="M760 1004q31 0 31 -31v-92q0 -31 -31 -31h-455v-819q0 -31 -31 -31h-122q-31 0 -31 31v942q0 31 31 31h608z" glyph-name="afii10068" horiz-adv-x="870" unicode="г"/><glyph d="M1313 156q31 0 30 -31v-231q0 -31 -30 -31h-123q-31 0 -31 31v106h-893v-106q0 -31 -30 -31h-123q-31 0 -31 31v243q0 23 22 23h31q176 23 176 268v545q0 31 31 31h827q31 0 31 -31v-817h113zM496 850v-442q0 -152 -54 -252h574v694h-520z" glyph-name="afii10069" horiz-adv-x="1425" unicode="д"/><glyph d="M596 1024q209 0 340 -142.5t131 -340.5q0 -57 -12.5 -82t-48.5 -25h-725q20 -131 113 -210t238.5 -79t258.5 88q23 20 43 3l53 -50q23 -25 0 -47q-147 -154 -375 -153q-223 0 -367.5 150.5t-144.5 369.5t140.5 368.5t355.5 149.5zM596 862q-127 0 -213 -82t-102 -213h624 q-10 129 -96 212t-213 83z" glyph-name="afii10070" horiz-adv-x="1167" unicode="е"/><glyph d="M1714 37q12 -16 8 -26.5t-24 -10.5h-156q-23 0 -37 16l-379 439l-137 -138v-286q0 -31 -31 -31h-124q-31 0 -31 31v286l-137 138l-379 -439q-14 -16 -37 -16h-156q-20 0 -24 10t8 27l467 541l-389 389q-14 16 -10 26.5t24 10.5h156q23 0 39 -17l438 -438v424q0 31 31 31 h124q31 0 31 -31v-424l438 438q16 16 39 17h156q20 0 24.5 -10.5t-10.5 -26.5l-389 -389z" glyph-name="afii10072" horiz-adv-x="1792" unicode="ж"/><glyph d="M612 541q78 -39 122 -103.5t44 -144.5q0 -135 -101.5 -222t-256.5 -87q-211 0 -316 129q-27 33 5 59l53 51q23 23 55 -6q76 -76 197 -76q84 0 140 45t56 117q0 70 -62.5 115t-168.5 45q-20 0 -34.5 12t-14.5 31v49q0 47 49 47q88 0 140 38t52 97q0 55 -45 89t-112 34 q-90 0 -174 -67q-35 -31 -64 -2l-43 45q-27 27 0 55q113 125 291 125q135 0 226 -76t91 -192q0 -123 -129 -207z" glyph-name="afii10073" horiz-adv-x="870" unicode="з"/><glyph d="M1030 1004q31 0 31 -31v-942q0 -31 -31 -31h-123q-31 0 -30 31v747l-517 -758q-14 -20 -38 -20h-170q-31 0 -31 31v942q0 31 31 31h122q31 0 31 -31v-760l524 770q14 20 39 21h162z" glyph-name="afii10074" horiz-adv-x="1179" unicode="и"/><glyph d="M602 1155q-123 0 -201.5 69.5t-89.5 176.5q-4 31 29 31h61q27 0 33 -29q12 -57 56.5 -93t112 -36t111.5 36t56 93q6 29 33 29h61q33 0 29 -31q-10 -106 -89 -176t-202 -70zM1030 1004q31 0 31 -31v-942q0 -31 -31 -31h-123q-31 0 -30 31v747l-517 -758q-14 -20 -38 -20 h-170q-31 0 -31 31v942q0 31 31 31h122q31 0 31 -31v-760l524 770q14 20 39 21h162z" glyph-name="afii10075" horiz-adv-x="1179" unicode="й"/><glyph d="M1030 37q12 -16 8 -26.5t-24 -10.5h-156q-23 0 -37 16l-379 439l-137 -138v-286q0 -31 -31 -31h-122q-31 0 -31 31v942q0 31 31 31h122q31 0 31 -31v-424l438 438q16 16 39 17h156q20 0 24.5 -10.5t-10.5 -26.5l-389 -389z" glyph-name="afii10076" horiz-adv-x="1110" unicode="к"/><glyph d="M1118 1004q31 0 31 -31v-942q0 -31 -31 -31h-123q-31 0 -30 31v819h-521v-442q0 -207 -93 -312.5t-259 -105.5q-18 0 -22 18l-37 127q-8 23 16 23q211 0 211 270v545q0 31 31 31h827z" glyph-name="afii10077" horiz-adv-x="1269" unicode="л"/><glyph d="M1327 1004q31 0 31 -31v-942q0 -31 -31 -31h-123q-31 0 -30 31v667l-328 -675q-12 -23 -35 -23h-145q-23 0 -35 23l-326 671v-663q0 -31 -31 -31h-122q-31 0 -31 31v942q0 31 31 31h170q23 0 34 -23l383 -782l383 782q12 23 35 23h170z" glyph-name="afii10078" horiz-adv-x="1478" unicode="м"/><glyph d="M1024 1004q31 0 31 -31v-942q0 -31 -31 -31h-123q-31 0 -31 31v393h-565v-393q0 -31 -31 -31h-122q-31 0 -31 31v942q0 31 31 31h122q31 0 31 -31v-393h565v393q0 31 31 31h123z" glyph-name="afii10079" horiz-adv-x="1175" unicode="н"/><glyph d="M610 -20q-215 0 -362.5 151.5t-147.5 370.5q0 221 147.5 372.5t362.5 151.5q217 0 364.5 -151.5t147.5 -372.5q0 -219 -147.5 -370.5t-364.5 -151.5zM610.5 147q141.5 0 237.5 100.5t96 254t-96 255t-237.5 101.5t-238 -101.5t-96.5 -254.5q0 -152 96.5 -253.5 t238 -101.5z" glyph-name="afii10080" horiz-adv-x="1222" unicode="о"/><glyph d="M1024 1004q31 0 31 -31v-942q0 -31 -31 -31h-123q-31 0 -31 31v819h-565v-819q0 -31 -31 -31h-122q-31 0 -31 31v942q0 31 31 31h872z" glyph-name="afii10081" horiz-adv-x="1175" unicode="п"/><glyph d="M653 1024q211 0 350.5 -151.5t139.5 -372.5q0 -215 -139.5 -364.5t-350.5 -149.5t-338 161v-505q0 -31 -30 -31h-123q-31 0 -31 31v1331q0 31 31 31h108q27 0 31 -31l8 -125q125 176 344 176zM635 154q141 0 236.5 100t95.5 248q0 154 -94.5 254t-237.5 100 q-141 0 -234.5 -103.5t-93.5 -251t93.5 -247.5t234.5 -100z" glyph-name="afii10082" unicode="р"/><glyph d="M608 154q68 0 123 20.5t83 41t65 56.5q23 23 45 0l69 -65q20 -20 2 -43q-156 -178 -389 -178q-215 0 -360.5 150.5t-145.5 365.5q0 219 145.5 370.5t360.5 151.5q227 0 383 -178q18 -23 -2 -43l-69 -66q-20 -20 -46 0q-45 41 -66.5 57.5t-77.5 39t-120 22.5 q-145 0 -238.5 -101.5t-93.5 -252.5q0 -147 94.5 -247.5t237.5 -100.5z" glyph-name="afii10083" horiz-adv-x="1093" unicode="с"/><glyph d="M817 1004q31 0 31 -31v-92q0 -31 -31 -31h-256v-819q0 -31 -31 -31h-122q-31 0 -31 31v819h-256q-31 0 -31 31v92q0 31 31 31h696z" glyph-name="afii10084" horiz-adv-x="937" unicode="т"/><glyph d="M1016 1004q37 0 24 -35l-528 -1334q-8 -25 -37 -24h-123q-41 0 -24 35l141 350l-385 973q-12 35 25 35h124q29 0 37 -25l291 -768l291 768q8 25 37 25h127z" glyph-name="afii10085" horiz-adv-x="1103" unicode="у"/><glyph d="M1456 1024q211 0 350.5 -151.5t139.5 -372.5t-139.5 -373t-350.5 -152q-215 0 -346 179v-512q0 -31 -31 -31h-123q-31 0 -30 31v512q-131 -178 -346 -179q-211 0 -350.5 153t-139.5 374t139.5 372.5t350.5 151.5q215 0 346 -176v510q0 31 30 31h123q31 0 31 -31v-514 q131 178 346 178zM598 143q139 0 233.5 104.5t94.5 252t-94.5 253t-233.5 105.5q-143 0 -237.5 -102.5t-94.5 -256t94.5 -255t237.5 -101.5zM1439.5 143q141.5 0 235.5 102.5t94 256.5q0 152 -94 254t-235.5 102t-235.5 -104.5t-94 -252t94 -253t235.5 -105.5z" glyph-name="afii10086" horiz-adv-x="2035" unicode="ф"/><glyph d="M942 37q10 -16 4 -26.5t-24 -10.5h-140q-25 0 -37 20l-223 351l-225 -351q-14 -20 -37 -20h-139q-18 0 -24.5 10t3.5 27l322 475l-307 455q-10 16 -4 26.5t24 10.5h139q23 0 37 -21l211 -326l209 326q12 20 37 21h139q18 0 24.5 -10.5t-3.5 -26.5l-310 -455z" glyph-name="afii10087" horiz-adv-x="1042" unicode="х"/><glyph d="M1126 156q31 0 31 -31v-231q0 -31 -31 -31h-122q-31 0 -31 31v106h-821q-31 0 -31 31v942q0 31 31 31h122q31 0 31 -31v-819h553v2h12v817q0 31 31 31h123q31 0 31 -31v-817h71z" glyph-name="afii10088" horiz-adv-x="1239" unicode="ц"/><glyph d="M999 1004q31 0 31 -31v-942q0 -31 -31 -31h-122q-31 0 -31 31v397q-143 -172 -369 -172q-158 0 -272.5 92t-114.5 299v326q0 31 31 31h123q31 0 30 -31v-320q0 -246 240 -245q201 0 332 192v373q0 31 31 31h122z" glyph-name="afii10089" horiz-adv-x="1148" unicode="ч"/><glyph d="M1298 1004q31 0 31 -31v-942q0 -31 -31 -31h-1146q-31 0 -31 31v942q0 31 31 31h122q31 0 31 -31v-817h328v817q0 31 31 31h122q31 0 31 -31v-817h328v817q0 31 31 31h122z" glyph-name="afii10090" horiz-adv-x="1449" unicode="ш"/><glyph d="M1413 156q31 0 31 -31v-231q0 -31 -31 -31h-123q-31 0 -30 31v106h-1108q-31 0 -31 31v942q0 31 31 31h122q31 0 31 -31v-817h328v817q0 31 31 31h122q31 0 31 -31v-817h328v817q0 31 31 31h122q31 0 31 -31v-817h84z" glyph-name="afii10091" horiz-adv-x="1525" unicode="щ"/><glyph d="M672 668q207 0 317.5 -87t110.5 -247t-110.5 -247t-317.5 -87h-465q-31 0 -31 31v819h-84q-31 0 -31 31v92q0 31 31 31h238q31 0 30 -31v-305h312zM676 152q248 0 248 182t-248 182h-316v-364h316z" glyph-name="afii10092" horiz-adv-x="1179" unicode="ъ"/><glyph d="M616 668q207 0 317.5 -87t110.5 -247t-110.5 -247t-317.5 -87h-464q-31 0 -31 31v942q0 31 31 31h122q31 0 31 -31v-305h311zM1389 1004q31 0 30 -31v-942q0 -31 -30 -31h-123q-31 0 -31 31v942q0 31 31 31h123zM621 152q248 0 247.5 182t-247.5 182h-316v-364h316z" glyph-name="afii10093" horiz-adv-x="1538" unicode="ы"/><glyph d="M616 668q207 0 317.5 -87t110.5 -247t-110.5 -247t-317.5 -87h-464q-31 0 -31 31v942q0 31 31 31h122q31 0 31 -31v-305h311zM621 152q248 0 247.5 182t-247.5 182h-316v-364h316z" glyph-name="afii10094" horiz-adv-x="1124" unicode="ь"/><glyph d="M477 1024q215 0 360.5 -151.5t145.5 -370.5q0 -215 -145.5 -365.5t-360.5 -150.5q-233 0 -389 178q-18 23 2 43l70 65q23 23 45 0q37 -37 64.5 -57t83 -40.5t122.5 -20.5q125 0 214 76.5t112 197.5h-359q-31 0 -30 31v82q0 31 30 30h359q-20 127 -109.5 206t-216.5 79 q-63 0 -119.5 -22.5t-78 -39t-66.5 -57.5q-25 -20 -45 0l-70 66q-20 20 -2 43q156 178 383 178z" glyph-name="afii10095" horiz-adv-x="1073" unicode="э"/><glyph d="M973 1026q217 0 364.5 -151.5t147.5 -372.5q0 -219 -147.5 -370.5t-364.5 -151.5q-195 0 -336 125.5t-168 318.5h-164v-395q0 -31 -31 -31h-122q-31 0 -31 31v942q0 31 31 30h122q31 0 31 -30v-393h162q27 195 169 321.5t337 126.5zM972.5 147q141.5 0 238 100.5 t96.5 254t-96.5 255t-238 101.5t-237.5 -101.5t-96 -254.5q0 -152 96 -253.5t237.5 -101.5z" glyph-name="afii10096" horiz-adv-x="1564" unicode="ю"/><glyph d="M973 1004q31 0 31 -31v-942q0 -31 -31 -31h-123q-31 0 -31 31v305h-237l-287 -320q-14 -16 -37 -16h-133q-20 0 -25.5 11.5t9.5 25.5l280 309q-145 25 -222 108t-77 216q0 160 109.5 247t318.5 87h455zM514 487h305v365h-305q-248 0 -248 -182.5t248 -182.5z" glyph-name="afii10097" horiz-adv-x="1124" unicode="я"/><glyph d="M414 1303q-41 0 -72 29.5t-31 72.5q0 41 31 70.5t72 29.5t71.5 -29.5t30.5 -70.5q0 -43 -30.5 -72.5t-71.5 -29.5zM807 1303q-41 0 -71.5 29.5t-30.5 72.5q0 41 30.5 70.5t71.5 29.5t71.5 -29.5t30.5 -70.5q0 -43 -30.5 -72.5t-71.5 -29.5zM596 1024q209 0 340 -142.5 t131 -340.5q0 -57 -12.5 -82t-48.5 -25h-725q20 -131 113 -210t238.5 -79t258.5 88q23 20 43 3l53 -50q23 -25 0 -47q-147 -154 -375 -153q-223 0 -367.5 150.5t-144.5 369.5t140.5 368.5t355.5 149.5zM596 862q-127 0 -213 -82t-102 -213h624q-10 129 -96 212t-213 83z" glyph-name="afii10071" horiz-adv-x="1167" unicode="ё"/><glyph d="M389 1112q-41 0 -24 35l122 258q10 25 35 25h99q41 0 24 -35l-123 -258q-10 -25 -35 -25h-98zM760 1004q31 0 31 -31v-92q0 -31 -31 -31h-455v-819q0 -31 -31 -31h-122q-31 0 -31 31v942q0 31 31 31h608z" glyph-name="afii10100" horiz-adv-x="870" unicode="ѓ"/><glyph d="M993 207q20 -20 2 -43q-156 -178 -389 -178q-215 0 -360.5 150.5t-145.5 365.5q0 219 145.5 370.5t360.5 151.5q227 0 383 -178q18 -23 -2 -43l-69 -66q-20 -20 -46 0q-45 41 -66.5 57.5t-77.5 39t-120 22.5q-127 0 -216 -79t-109 -206h358q31 0 31 -30v-82 q0 -31 -31 -31h-358q23 -121 111.5 -197.5t213.5 -76.5q68 0 123 20.5t83 41t65 56.5q23 23 45 0z" glyph-name="afii10101" horiz-adv-x="1073" unicode="є"/><glyph d="M16 1241q-41 0 -71.5 29.5t-30.5 72.5q0 41 30.5 71t71.5 30t72 -30t31 -71q0 -43 -31 -72.5t-72 -29.5zM410 1241q-41 0 -72 29.5t-31 72.5q0 41 31 71t72 30t71.5 -30t30.5 -71q0 -43 -30.5 -72.5t-71.5 -29.5zM121 973q0 31 31 31h122q31 0 31 -31v-942q0 -31 -31 -31 h-122q-31 0 -31 31v942z" glyph-name="afii10104" horiz-adv-x="425" unicode="ї"/><glyph d="M512 1112q-41 0 -25 35l123 258q10 25 35 25h98q41 0 25 -35l-123 -258q-10 -25 -35 -25h-98zM1030 37q12 -16 8 -26.5t-24 -10.5h-156q-23 0 -37 16l-379 439l-137 -138v-286q0 -31 -31 -31h-122q-31 0 -31 31v942q0 31 31 31h122q31 0 31 -31v-424l438 438q16 16 39 17 h156q20 0 24.5 -10.5t-10.5 -26.5l-389 -389z" glyph-name="afii10109" horiz-adv-x="1110" unicode="ќ"/><glyph d="M729 1403q6 29 33 29h61q33 0 29 -31q-10 -106 -89 -176t-202 -70t-201.5 69.5t-89.5 176.5q-4 31 29 31h61q27 0 33 -29q12 -57 56.5 -93t112 -36t111.5 36t56 93zM1016 1004q37 0 24 -35l-528 -1334q-8 -25 -37 -24h-123q-41 0 -24 35l141 350l-385 973q-12 35 25 35 h124q29 0 37 -25l291 -768l291 768q8 25 37 25h127z" glyph-name="afii10110" horiz-adv-x="1103" unicode="ў"/><glyph d="M895 1538q31 0 31 -31v-217q0 -31 -31 -30h-553v-1229q0 -31 -31 -31h-129q-31 0 -30 31v1372q0 31 30 31h570v73q0 31 30 31h113z" glyph-name="afii10050" horiz-adv-x="1003" unicode="Ґ"/><glyph d="M760 1130q31 0 31 -30v-219q0 -31 -31 -31h-455v-819q0 -31 -31 -31h-122q-31 0 -31 31v942q0 31 31 31h454v96q0 31 31 30h123z" glyph-name="afii10098" horiz-adv-x="870" unicode="ґ"/><glyph d="M1034 1567l-123 258q-16 35 25 35h98q25 0 35 -25l123 -258q16 -35 -25 -35h-98q-25 0 -35 25zM2150 1434q35 0 25 -35l-444 -1374q-8 -25 -37 -25h-138q-31 0 -36 25l-383 1122l-385 -1122q-10 -25 -35 -25h-137q-31 0 -37 25l-441 1374q-14 35 25 35h131q27 0 35 -25 l356 -1169l393 1169q2 12 13 18q6 6 20 7h123q10 0 19 -4q8 -6 14 -21l393 -1169l358 1169q6 25 35 25h133z" glyph-name="Wgrave" horiz-adv-x="2277" unicode="Ẁ"/><glyph d="M819 1137l-123 258q-16 35 25 35h98q25 0 35 -25l123 -258q16 -35 -25 -35h-98q-25 0 -35 25zM1737 1004q37 0 24 -35l-354 -944q-10 -25 -37 -25h-129q-29 0 -37 25l-282 737l-283 -737q-8 -25 -37 -25h-127q-29 0 -37 25l-354 944q-12 35 25 35h120q29 0 37 -25 l277 -770l288 770q6 18 21 20q8 4 16 5h109q8 0 16 -5q14 -2 21 -20l289 -770l276 770q10 25 37 25h121z" glyph-name="wgrave" horiz-adv-x="1845" unicode="ẁ"/><glyph d="M1096 1542q-41 0 -25 35l123 258q10 25 35 25h98q41 0 25 -35l-123 -258q-10 -25 -35 -25h-98zM2150 1434q35 0 25 -35l-444 -1374q-8 -25 -37 -25h-138q-31 0 -36 25l-383 1122l-385 -1122q-10 -25 -35 -25h-137q-31 0 -37 25l-441 1374q-14 35 25 35h131q27 0 35 -25 l356 -1169l393 1169q2 12 13 18q6 6 20 7h123q10 0 19 -4q8 -6 14 -21l393 -1169l358 1169q6 25 35 25h133z" glyph-name="Wacute" horiz-adv-x="2277" unicode="Ẃ"/><glyph d="M881 1112q-41 0 -25 35l123 258q10 25 35 25h98q41 0 25 -35l-123 -258q-10 -25 -35 -25h-98zM1737 1004q37 0 24 -35l-354 -944q-10 -25 -37 -25h-129q-29 0 -37 25l-282 737l-283 -737q-8 -25 -37 -25h-127q-29 0 -37 25l-354 944q-12 35 25 35h120q29 0 37 -25 l277 -770l288 770q6 18 21 20q8 4 16 5h109q8 0 16 -5q14 -2 21 -20l289 -770l276 770q10 25 37 25h121z" glyph-name="wacute" horiz-adv-x="1845" unicode="ẃ"/><glyph d="M942 1671q-41 0 -71.5 30t-30.5 73q0 41 30.5 70.5t71.5 29.5t71.5 -29.5t30.5 -70.5q0 -43 -30.5 -73t-71.5 -30zM1335 1671q-41 0 -71.5 30t-30.5 73q0 41 30.5 70.5t71.5 29.5t72 -29.5t31 -70.5q0 -43 -31 -73t-72 -30zM2150 1434q35 0 25 -35l-444 -1374 q-8 -25 -37 -25h-138q-31 0 -36 25l-383 1122l-385 -1122q-10 -25 -35 -25h-137q-31 0 -37 25l-441 1374q-14 35 25 35h131q27 0 35 -25l356 -1169l393 1169q2 12 13 18q6 6 20 7h123q10 0 19 -4q8 -6 14 -21l393 -1169l358 1169q6 25 35 25h133z" glyph-name="Wdieresis" horiz-adv-x="2277" unicode="Ẅ"/><glyph d="M727 1241q-41 0 -71.5 29.5t-30.5 72.5q0 41 30.5 71t71.5 30t71.5 -30t30.5 -71q0 -43 -30.5 -72.5t-71.5 -29.5zM1120 1241q-41 0 -71.5 29.5t-30.5 72.5q0 41 30.5 71t71.5 30t72 -30t31 -71q0 -43 -31 -72.5t-72 -29.5zM1737 1004q37 0 24 -35l-354 -944 q-10 -25 -37 -25h-129q-29 0 -37 25l-282 737l-283 -737q-8 -25 -37 -25h-127q-29 0 -37 25l-354 944q-12 35 25 35h120q29 0 37 -25l277 -770l288 770q6 18 21 20q8 4 16 5h109q8 0 16 -5q14 -2 21 -20l289 -770l276 770q10 25 37 25h121z" glyph-name="wdieresis" horiz-adv-x="1845" unicode="ẅ"/><glyph d="M520 1567l-123 258q-16 35 25 35h98q25 0 35 -25l123 -258q16 -35 -25 -35h-98q-25 0 -35 25zM1122 1434q18 0 24.5 -10.5t-3.5 -26.5l-422 -711v-655q0 -31 -31 -31h-131q-31 0 -31 31v657l-422 709q-10 16 -3.5 26.5t24.5 10.5h137q25 0 37 -21l324 -545l323 545 q12 20 37 21h137z" glyph-name="Ygrave" horiz-adv-x="1249" unicode="Ỳ"/><glyph d="M358 1430h99q25 0 35 -25l122 -258q16 -35 -24 -35h-98q-25 0 -35 25l-123 258q-17 35 24 35zM1016 1004q37 0 24 -35l-528 -1334q-8 -25 -37 -24h-123q-41 0 -24 35l141 350l-385 973q-12 35 25 35h124q29 0 37 -25l291 -768l291 768q8 25 37 25h127z" glyph-name="ygrave" horiz-adv-x="1124" unicode="ỳ"/><glyph d="M1137 653q31 0 30 -30v-95q0 -31 -30 -30h-983q-31 0 -31 30v95q0 31 31 30h983z" glyph-name="endash" horiz-adv-x="1290" unicode="–"/><glyph d="M1260 653q31 0 30 -30v-95q0 -31 -30 -30h-1106q-31 0 -31 30v95q0 31 31 30h1106z" glyph-name="emdash" horiz-adv-x="1413" unicode="—"/><glyph d="M213 1176q47 -6 76.5 -38t29.5 -77q0 -47 -33.5 -80t-82.5 -33q-51 0 -86 38t-35 108q0 80 44 183t118 191l55 -36q-76 -109 -86 -256z" glyph-name="quoteleft" horiz-adv-x="401" unicode="‘"/><glyph d="M199 1466q51 0 85.5 -37.5t34.5 -107.5q0 -80 -44 -183.5t-117 -191.5l-56 37q76 109 86 256q-47 6 -76.5 38t-29.5 77q0 47 34 79.5t83 32.5z" glyph-name="quoteright" horiz-adv-x="401" unicode="’"/><glyph d="M199 197q51 0 85.5 -38t34.5 -108q0 -80 -44 -183.5t-117 -191.5l-56 37q76 109 86 256q-47 6 -76.5 38t-29.5 77q0 47 34 80t83 33z" glyph-name="quotesinglbase" horiz-adv-x="389" unicode="‚"/><glyph d="M211 1176q47 -6 76.5 -38t29.5 -77q0 -47 -33.5 -80t-82.5 -33q-51 0 -86 38t-35 108q0 80 44 183t118 191l55 -36q-76 -109 -86 -256zM537 1176q47 -6 76.5 -38t29.5 -77q0 -47 -34 -80t-83 -33q-51 0 -85.5 38t-34.5 108q0 80 44 183t117 191l56 -36q-76 -109 -86 -256 z" glyph-name="quotedblleft" horiz-adv-x="724" unicode="“"/><glyph d="M199 1466q51 0 85.5 -37.5t34.5 -107.5q0 -80 -44 -183.5t-117 -191.5l-56 37q76 109 86 256q-47 6 -76.5 38t-29.5 77q0 47 34 79.5t83 32.5zM524 1466q51 0 86 -37.5t35 -107.5q0 -80 -44 -183.5t-118 -191.5l-55 37q76 109 86 256q-47 6 -76.5 38t-29.5 77 q0 47 33.5 79.5t82.5 32.5z" glyph-name="quotedblright" horiz-adv-x="724" unicode="”"/><glyph d="M199 197q51 0 85.5 -38t34.5 -108q0 -80 -44 -183.5t-117 -191.5l-56 37q76 109 86 256q-47 6 -76.5 38t-29.5 77q0 47 34 80t83 33zM526 197q51 0 86 -38t35 -108q0 -80 -44 -183.5t-118 -191.5l-55 37q76 109 86 256q-47 6 -76.5 38t-29.5 77q0 47 33.5 80t82.5 33z " glyph-name="quotedblbase" horiz-adv-x="727" unicode="„"/><glyph d="M748 1188q31 0 30 -31v-88q0 -31 -30 -31h-216v-219q0 -31 -30 -31h-88q-31 0 -31 31v219h-219q-31 0 -31 31v88q0 31 31 31h219v217q0 31 31 31h88q31 0 30 -31v-217h216z" glyph-name="dagger" horiz-adv-x="911" unicode="†"/><glyph d="M748 1188q31 0 30 -31v-88q0 -31 -30 -31h-216v-219q0 -31 -30 -31h-88q-31 0 -31 31v219h-219q-31 0 -31 31v88q0 31 31 31h219v217q0 31 31 31h88q31 0 30 -31v-217h216zM748 438q31 0 30 -30v-89q0 -31 -30 -30h-216v-219q0 -31 -30 -31h-88q-31 0 -31 31v219h-219 q-31 0 -31 30v89q0 31 31 30h219v217q0 31 31 31h88q31 0 30 -31v-217h216z" glyph-name="daggerdbl" horiz-adv-x="911" unicode="‡"/><glyph d="M291 408q-66 0 -112 46t-46 109.5t46 109.5t112 46q63 0 109 -46t46 -109.5t-46 -109.5t-109 -46z" glyph-name="bullet" horiz-adv-x="579" unicode="•"/><glyph d="M205 -27q-47 0 -80 33t-33 80t33 79t80 32q45 0 77.5 -33t32.5 -78q0 -47 -31.5 -80t-78.5 -33zM711 -27q-47 0 -80 33t-33 80t33 79t80 32t78.5 -33t31.5 -78q0 -47 -31.5 -80t-78.5 -33zM1216.5 -27q-47.5 0 -80 33t-32.5 80t32.5 79t80.5 32q45 0 77.5 -33t32.5 -78 q0 -47 -31.5 -80t-79 -33z" glyph-name="ellipsis" horiz-adv-x="1419" unicode="…"/><glyph d="M381 1444q117 0 199 -80t82 -196.5t-82 -197.5t-199 -81q-115 0 -197 81t-82 197.5t82 196.5t197 80zM1151 1438l109 -74l-920 -1368l-109 74zM381 1317q-61 0 -105.5 -43t-44.5 -107q0 -66 44 -108.5t106 -42.5q63 0 108.5 43t45.5 108q0 63 -45.5 106.5t-108.5 43.5z M1110 545q115 0 197 -81t82 -197.5t-81 -196.5t-198 -80t-199 80t-82 196.5t82 197.5t199 81zM1829 545q115 0 196.5 -81t81.5 -197.5t-81.5 -196.5t-196.5 -80q-117 0 -199 80t-82 196.5t82 197.5t199 81zM1110.5 418q-63.5 0 -108 -43t-44.5 -109q0 -63 44.5 -106 t107.5 -43q61 0 106.5 43t45.5 106q0 66 -44 109t-107.5 43zM1829 418q-66 0 -110 -43t-44 -109q0 -63 44 -106t110 -43q61 0 105 43t44 106q0 66 -44 109t-105 43z" glyph-name="perthousand" horiz-adv-x="2209" unicode="‰"/><glyph d="M92 645q0 23 17 37l208 184q14 12 25.5 7t11.5 -25v-80q0 -23 -16 -37l-164 -141l164 -141q16 -14 16 -37v-80q0 -20 -11 -24.5t-26 7.5l-208 183q-16 14 -17 37v110z" glyph-name="guilsinglleft" horiz-adv-x="446" unicode="‹"/><glyph d="M354 666v-111q0 -23 -16 -37l-209 -182q-14 -12 -25.5 -8t-11.5 24v80q0 23 17 37l163 141l-163 142q-16 14 -17 36v80q0 20 11.5 25.5t25.5 -6.5l209 -185q16 -13 16 -36z" glyph-name="guilsinglright" horiz-adv-x="446" unicode="›"/><glyph d="M641 1434l-881 -1434h-98l893 1434h86z" glyph-name="fraction" horiz-adv-x="303" unicode="⁄"/><glyph d="M1315 299l82 -84q23 -23 -2 -43q-219 -199 -488 -199q-250 0 -442.5 150.5t-255.5 386.5h-96q-31 0 -31 31v88q0 31 31 30h71q-2 16 -2 52v37h-69q-31 0 -31 30v88q0 31 31 31h92q61 244 254.5 398.5t447.5 154.5q266 0 488 -197q23 -23 2 -43l-82 -86q-20 -20 -43 0 q-166 139 -365 140q-172 0 -309 -101.5t-192 -265.5h249q31 0 31 -31v-88q0 -31 -31 -30h-276q-2 -12 -2 -37q0 -35 2 -52h276q31 0 31 -30v-88q0 -31 -31 -31h-243q57 -158 192 -254t303 -96q199 0 365 139q23 20 43 0z" glyph-name="Euro" horiz-adv-x="1486" unicode="€"/><glyph d="M1137 748h-260q-49 -29 -193 -89h453q35 0 30 -30v-88q4 -31 -30 -31h-719q-45 -51 -45 -123q0 -100 79.5 -166.5t204.5 -66.5q168 0 334 157q23 23 43 2l76 -77q20 -18 6 -41q-63 -98 -186 -159t-273 -61q-195 0 -334 115t-139 289q0 66 21 131h-82q-31 0 -31 31v88 q0 31 31 30h186q53 47 137 89h-323q-31 0 -31 30v88q0 31 31 31h661q117 72 117 176q0 92 -67.5 146.5t-171.5 54.5q-154 0 -302 -137q-20 -20 -43 4l-67 73q-20 23 0 43q78 90 186.5 141.5t227.5 51.5q178 0 299.5 -105.5t121.5 -269.5q0 -100 -45 -178h97q35 0 30 -31v-88 q5 -30 -30 -30z" glyph-name="uni20B4" horiz-adv-x="1257" unicode="₴"/><glyph d="M475 1434q10 0 10 -11v-45q0 -10 -10 -10h-129v-293q0 -10 -10 -10h-53q-10 0 -11 10v293h-129q-10 0 -10 10v45q0 10 10 11h332zM991 1434q10 0 10 -11v-348q0 -10 -10 -10h-53q-10 0 -10 10v225l-117 -227q-4 -8 -12 -8h-41q-8 0 -13 8l-114 227v-225q0 -10 -10 -10 h-54q-10 0 -10 10v348q0 10 10 11h62q8 0 12 -9l137 -270l137 270q4 8 13 9h63z" glyph-name="trademark" horiz-adv-x="1134" unicode="™"/><glyph d="M213 1436v-535h-76v461h-55v74h131zM1075 1434l-880 -1434h-99l893 1434h86zM924 539q74 0 117.5 -41t43.5 -97q0 -70 -61 -108q88 -43 88 -135q0 -70 -55.5 -116t-132.5 -46q-76 0 -131.5 46t-55.5 116q0 92 88 135q-61 39 -61 108q0 53 44 95.5t116 42.5zM924 475 q-41 0 -62.5 -21.5t-21.5 -52t25.5 -55t58.5 -24.5q35 0 59.5 23.5t24.5 55.5q0 74 -84 74zM924 258q-45 0 -78 -28.5t-33 -71.5q0 -41 33 -70t78 -29q49 0 79.5 27t30.5 72t-30.5 72.5t-79.5 27.5z" glyph-name="oneeighth" horiz-adv-x="1193" unicode="⅛"/><glyph d="M268 1440q66 0 115 -42t49 -98q0 -66 -61 -108q86 -37 86 -135q0 -70 -56.5 -117t-132.5 -47q-82 0 -136 55.5t-50 130.5h78q-2 -49 28.5 -85t79.5 -36q45 0 78 28t33 71q0 102 -152 96v61q129 0 129 86q0 33 -25.5 54.5t-62.5 21.5q-45 0 -70.5 -29.5t-25.5 -82.5h-76 q-2 78 47 127t125 49zM1122 1434l-880 -1434h-99l893 1434h86zM967 539q74 0 117.5 -41t43.5 -97q0 -70 -61 -108q88 -43 88 -135q0 -70 -55.5 -116t-132.5 -46q-76 0 -131.5 46t-55.5 116q0 92 88 135q-61 39 -61 108q0 53 44 95.5t116 42.5zM967 475q-41 0 -62.5 -21.5 t-21.5 -52t25.5 -55t58.5 -24.5q37 0 60.5 23.5t23.5 55.5q0 74 -84 74zM967 258q-45 0 -78 -28.5t-33 -71.5q0 -41 33 -70t78 -29q49 0 79.5 27t30.5 72t-30.5 72.5t-79.5 27.5z" glyph-name="threeeighths" horiz-adv-x="1236" unicode="⅜"/><glyph d="M412 1436v-66h-213l-17 -119q45 20 92 21q72 0 129.5 -54.5t57.5 -134t-57.5 -135t-137.5 -55.5q-68 0 -120 38t-64 89l68 39q4 -41 35.5 -71t80.5 -30q47 0 82 36t35 89q0 51 -34 87t-75 36q-72 0 -116 -59l-66 16l37 273h283zM1122 1434l-880 -1434h-99l893 1434h86z M971 539q74 0 118 -41t44 -97q0 -70 -62 -108q88 -43 88 -135q0 -70 -55 -116t-133 -46q-76 0 -131.5 46t-55.5 116q0 92 88 135q-61 39 -61 108q0 53 44 95.5t116 42.5zM971 475q-41 0 -62.5 -21.5t-21.5 -52t25.5 -55t58.5 -24.5q37 0 60.5 23.5t23.5 55.5q0 74 -84 74z M971 258q-45 0 -78 -28.5t-33 -71.5q0 -41 33 -70t78 -29q49 0 79.5 27t30.5 72t-30.5 72.5t-79.5 27.5z" glyph-name="fiveeighths" horiz-adv-x="1241" unicode="⅝"/><glyph d="M436 1436l-209 -535h-80l183 469h-248v66h354zM1077 1434l-880 -1434h-99l893 1434h86zM926 539q74 0 117.5 -41t43.5 -97q0 -70 -61 -108q88 -43 88 -135q0 -70 -55 -116t-133 -46q-76 0 -131.5 46t-55.5 116q0 92 88 135q-61 39 -61 108q0 53 44 95.5t116 42.5z M926 475q-41 0 -62.5 -21.5t-21.5 -52t25.5 -55t58.5 -24.5q37 0 60.5 23.5t23.5 55.5q0 74 -84 74zM926 258q-45 0 -78 -28.5t-33 -71.5q0 -41 33 -70t78 -29q49 0 79.5 27t30.5 72t-30.5 72.5t-79.5 27.5z" glyph-name="seveneighths" horiz-adv-x="1196" unicode="⅞"/><glyph d="M881 807q139 -182 139 -358q0 -199 -136 -337.5t-335 -138.5t-336 138.5t-137 337.5q0 201 138 336t341 135q25 0 37 -2l-330 434q-16 23 6 43l82 69q23 20 43 -6zM549 141q125 0 209 87t84 221q0 131 -84 218t-209 87q-127 0 -211 -87t-84 -218q0 -133 84 -220.5 t211 -87.5z" glyph-name="partialdiff" horiz-adv-x="1101" unicode="∂"/><glyph d="M123 1608q0 31 31 30h1112q31 0 30 -30v-1966q0 -31 -30 -31h-123q-31 0 -31 31v1822h-805v-1822q0 -31 -31 -31h-122q-31 0 -31 31v1966z" glyph-name="product" horiz-adv-x="1419" unicode="∏"/><glyph d="M1251 1638q31 0 31 -30v-113q0 -31 -31 -31h-905l549 -819q12 -20 0 -41l-549 -819h905q31 0 31 -31v-112q0 -31 -31 -31h-1097q-31 0 -31 31v122q0 18 12 37l551 824l-551 823q-12 18 -12 37v123q0 31 31 30h1097z" glyph-name="summation" horiz-adv-x="1404" unicode="∑"/><glyph d="M788 657q31 0 31 -30v-88q0 -31 -31 -31h-624q-31 0 -31 31v88q0 31 31 30h624z" glyph-name="minus" horiz-adv-x="952" unicode="−"/><glyph d="M1296 1638q33 0 27 -34l-477 -1966q-6 -27 -33 -27h-168q-29 0 -35 27l-262 888h-194q-31 0 -31 31v113q0 31 31 30h290q29 0 35 -26l246 -875l434 1813q6 27 33 26h104z" glyph-name="radical" horiz-adv-x="1447" unicode="√"/><glyph d="M1221 870q143 0 242.5 -96t99.5 -239q0 -145 -99.5 -241.5t-242.5 -96.5q-205 0 -390 233q-188 -233 -387 -233q-145 0 -244.5 96t-99.5 242q0 143 99.5 239t244.5 96q199 0 387 -233q185 233 390 233zM451 319q156 0 303 216q-145 215 -303 215q-96 0 -158 -61.5 t-62 -154t62 -154t158 -61.5zM1212 319q96 0 158 61.5t62 154t-61.5 154t-158.5 61.5q-158 0 -305 -215q149 -216 305 -216z" glyph-name="infinity" horiz-adv-x="1662" unicode="∞"/><glyph d="M803 1606q20 -12 20 -37v-107q0 -41 -37 -20q-55 33 -112 33q-76 0 -102.5 -34t-26.5 -106v-1435q0 -289 -301 -289q-82 0 -144 33q-20 12 -20 37v106q0 41 37 20q55 -33 114 -32q74 0 101.5 33.5t27.5 105.5v1436q0 289 299 288q85 1 144 -32z" glyph-name="integral" horiz-adv-x="802" unicode="∫"/><glyph d="M324 864q86 2 181 -74.5t148 -76.5q70 2 97 69q8 20 24 19h43q10 2 17.5 -4t5.5 -19q-8 -88 -62.5 -136t-132.5 -48q-70 0 -128 38t-107.5 74.5t-98.5 36.5q-76 2 -98 -67q-8 -18 -25 -21h-45q-23 4 -20 29q12 88 66.5 135t134.5 45zM324 537q86 2 181 -75t148 -77 q70 2 97 70q8 20 24 18h43q10 2 17.5 -4t5.5 -18q-8 -88 -62.5 -136.5t-132.5 -48.5q-70 0 -128 38t-107.5 75t-98.5 37q-76 2 -98 -68q-8 -18 -25 -20h-45q-23 4 -20 28q12 88 66.5 135.5t134.5 45.5z" glyph-name="approxequal" horiz-adv-x="962" unicode="≈"/><glyph d="M788 649h-204l-52 -131h256q31 0 31 -31v-88q0 -31 -31 -30h-313l-133 -344q-10 -25 -37 -25h-90q-37 0 -25 35l129 334h-155q-31 0 -31 30v88q0 31 31 31h213l51 131h-264q-31 0 -31 31v88q0 31 31 31h321l127 325q10 25 37 25h90q37 0 25 -35l-123 -315h147 q31 0 31 -31v-88q0 -31 -31 -31z" glyph-name="notequal" horiz-adv-x="952" unicode="≠"/><glyph d="M786 1214q14 8 23.5 2t9.5 -22v-88q0 -20 -20 -35l-525 -287l525 -288q20 -10 20 -33v-90q0 -16 -9 -21.5t-24 2.5l-634 359q-18 12 -19 32v80q0 23 19 31zM786 137q31 0 31 -31v-88q0 -31 -31 -30h-624q-31 0 -31 30v88q0 31 31 31h624z" glyph-name="lessequal" horiz-adv-x="950" unicode="≤"/><glyph d="M170 1214l635 -358q18 -8 18 -31v-80q0 -20 -18 -32l-635 -359q-14 -8 -23.5 -3t-9.5 22v90q0 23 21 33l524 288l-524 287q-20 14 -21 35v88q0 16 9.5 22t23.5 -2zM170 137h625q31 0 30 -31v-88q0 -31 -30 -30h-625q-31 0 -31 30v88q0 31 31 31z" glyph-name="greaterequal" horiz-adv-x="960" unicode="≥"/><glyph d="M662 1434q27 0 34 -23l299 -674q8 -20 0 -41l-299 -673q-8 -23 -34 -23h-197q-27 0 -35 23l-299 673q-8 20 0 41l299 674q8 23 35 23h197zM563 115l266 602l-266 604l-266 -604z" glyph-name="lozenge" horiz-adv-x="1126" unicode="◊"/><glyph d="M1581 1225q20 -20 0 -43l-971 -971q-20 -23 -43 0l-479 479q-23 23 0 43l80 80q20 23 43 0l367 -367l868 869q23 23 43 0z" glyph-name="uni2713" horiz-adv-x="1671" unicode="✓"/><glyph d="M213 1241q-41 0 -71.5 29.5t-30.5 72.5q0 41 30.5 71t71.5 30t71.5 -30t30.5 -71q0 -43 -30.5 -72.5t-71.5 -29.5zM121 973q0 31 31 31h122q31 0 31 -31v-942q0 -31 -31 -31h-122q-31 0 -31 31v942z" glyph-name="i.aalt" horiz-adv-x="425"/><glyph d="M674 1475q20 -12 20 -37v-107q0 -18 -11 -24.5t-26 4.5q-59 33 -114 32q-76 0 -102.5 -33.5t-26.5 -105.5v-200h213q31 0 30 -31v-92q0 -31 -30 -31h-213v-819q0 -31 -31 -31h-123q-31 0 -31 31v819h-118q-31 0 -31 31v92q0 31 31 31h118v215q0 289 299 288q87 1 146 -32 z" glyph-name="f.aalt" horiz-adv-x="776"/><glyph d="M991 137q27 -14 27 -35v-73q0 -31 -29 -35q-94 -12 -150.5 23.5t-66.5 109.5q-160 -154 -373 -154q-154 0 -231.5 79t-77.5 206t76 203t240 102l243 43q111 20 121 49q-2 211 -219 211q-209 0 -227 -155q-4 -23 -31 -23h-117q-33 0 -31 31q10 162 121 234.5t287 72.5 q201 0 301 -96t100 -275v-434q0 -66 37 -84zM274 276.5q0 -61.5 40 -100.5t124 -39q180 0 332 150v231q-10 -27 -108 -43l-218 -39q-96 -18 -133 -58t-37 -101.5z" glyph-name="a.salt" horiz-adv-x="1097"/><glyph d="M510 1112q-41 0 -25 35l123 258q10 25 35 25h98q41 0 25 -35l-123 -258q-10 -25 -35 -25h-98zM991 137q27 -14 27 -35v-73q0 -31 -29 -35q-94 -12 -150.5 23.5t-66.5 109.5q-160 -154 -373 -154q-154 0 -231.5 79t-77.5 206t76 203t240 102l243 43q111 20 121 49 q-2 211 -219 211q-209 0 -227 -155q-4 -23 -31 -23h-117q-33 0 -31 31q10 162 121 234.5t287 72.5q201 0 301 -96t100 -275v-434q0 -66 37 -84zM274 276.5q0 -61.5 40 -100.5t124 -39q180 0 332 150v231q-10 -27 -108 -43l-218 -39q-96 -18 -133 -58t-37 -101.5z" glyph-name="aacute.aalt" horiz-adv-x="1097"/><glyph d="M553 1155q-123 0 -202 69.5t-89 176.5q-4 31 29 31h61q27 0 33 -29q12 -57 56 -93t112 -36t112 36t56 93q6 29 33 29h61q33 0 29 -31q-10 -106 -89 -176t-202 -70zM991 137q27 -14 27 -35v-73q0 -31 -29 -35q-94 -12 -150.5 23.5t-66.5 109.5q-160 -154 -373 -154 q-154 0 -231.5 79t-77.5 206t76 203t240 102l243 43q111 20 121 49q-2 211 -219 211q-209 0 -227 -155q-4 -23 -31 -23h-117q-33 0 -31 31q10 162 121 234.5t287 72.5q201 0 301 -96t100 -275v-434q0 -66 37 -84zM274 276.5q0 -61.5 40 -100.5t124 -39q180 0 332 150v231 q-10 -27 -108 -43l-218 -39q-96 -18 -133 -58t-37 -101.5z" glyph-name="abreve.aalt" horiz-adv-x="1097"/><glyph d="M461 1184l-182 209q-12 16 -8.5 26.5t24.5 10.5h80q23 0 37 -17l141 -164l141 164q14 16 37 17h80q20 0 25.5 -10.5t-7.5 -26.5l-184 -209q-14 -16 -37 -17h-110q-23 1 -37 17zM991 137q27 -14 27 -35v-73q0 -31 -29 -35q-94 -12 -150.5 23.5t-66.5 109.5 q-160 -154 -373 -154q-154 0 -231.5 79t-77.5 206t76 203t240 102l243 43q111 20 121 49q-2 211 -219 211q-209 0 -227 -155q-4 -23 -31 -23h-117q-33 0 -31 31q10 162 121 234.5t287 72.5q201 0 301 -96t100 -275v-434q0 -66 37 -84zM274 276.5q0 -61.5 40 -100.5t124 -39 q180 0 332 150v231q-10 -27 -108 -43l-218 -39q-96 -18 -133 -58t-37 -101.5z" glyph-name="uni01CE.aalt" horiz-adv-x="1097"/><glyph d="M295 1167q-20 0 -24.5 10.5t8.5 26.5l182 209q14 16 37 17h110q23 0 37 -17l184 -209q12 -16 7 -26.5t-25 -10.5h-80q-23 0 -37 17l-141 164l-141 -164q-14 -16 -37 -17h-80zM991 137q27 -14 27 -35v-73q0 -31 -29 -35q-94 -12 -150.5 23.5t-66.5 109.5 q-160 -154 -373 -154q-154 0 -231.5 79t-77.5 206t76 203t240 102l243 43q111 20 121 49q-2 211 -219 211q-209 0 -227 -155q-4 -23 -31 -23h-117q-33 0 -31 31q10 162 121 234.5t287 72.5q201 0 301 -96t100 -275v-434q0 -66 37 -84zM274 276.5q0 -61.5 40 -100.5t124 -39 q180 0 332 150v231q-10 -27 -108 -43l-218 -39q-96 -18 -133 -58t-37 -101.5z" glyph-name="acircumflex.aalt" horiz-adv-x="1097"/><glyph d="M356 1241q-41 0 -71.5 29.5t-30.5 72.5q0 41 30.5 71t71.5 30t72 -30t31 -71q0 -43 -31 -72.5t-72 -29.5zM750 1241q-41 0 -72 29.5t-31 72.5q0 41 31 71t72 30t71.5 -30t30.5 -71q0 -43 -30.5 -72.5t-71.5 -29.5zM991 137q27 -14 27 -35v-73q0 -31 -29 -35 q-94 -12 -150.5 23.5t-66.5 109.5q-160 -154 -373 -154q-154 0 -231.5 79t-77.5 206t76 203t240 102l243 43q111 20 121 49q-2 211 -219 211q-209 0 -227 -155q-4 -23 -31 -23h-117q-33 0 -31 31q10 162 121 234.5t287 72.5q201 0 301 -96t100 -275v-434q0 -66 37 -84z M274 276.5q0 -61.5 40 -100.5t124 -39q180 0 332 150v231q-10 -27 -108 -43l-218 -39q-96 -18 -133 -58t-37 -101.5z" glyph-name="adieresis.aalt" horiz-adv-x="1097"/><glyph d="M449 1137l-123 258q-16 35 24 35h99q25 0 34 -25l123 -258q16 -35 -24 -35h-99q-24 0 -34 25zM991 137q27 -14 27 -35v-73q0 -31 -29 -35q-94 -12 -150.5 23.5t-66.5 109.5q-160 -154 -373 -154q-154 0 -231.5 79t-77.5 206t76 203t240 102l243 43q111 20 121 49 q-2 211 -219 211q-209 0 -227 -155q-4 -23 -31 -23h-117q-33 0 -31 31q10 162 121 234.5t287 72.5q201 0 301 -96t100 -275v-434q0 -66 37 -84zM274 276.5q0 -61.5 40 -100.5t124 -39q180 0 332 150v231q-10 -27 -108 -43l-218 -39q-96 -18 -133 -58t-37 -101.5z" glyph-name="agrave.aalt" horiz-adv-x="1097"/><glyph d="M266 1280q-31 0 -30 31v88q0 31 30 31h574q31 0 30 -31v-88q0 -31 -30 -31h-574zM991 137q27 -14 27 -35v-73q0 -31 -29 -35q-94 -12 -150.5 23.5t-66.5 109.5q-160 -154 -373 -154q-154 0 -231.5 79t-77.5 206t76 203t240 102l243 43q111 20 121 49q-2 211 -219 211 q-209 0 -227 -155q-4 -23 -31 -23h-117q-33 0 -31 31q10 162 121 234.5t287 72.5q201 0 301 -96t100 -275v-434q0 -66 37 -84zM274 276.5q0 -61.5 40 -100.5t124 -39q180 0 332 150v231q-10 -27 -108 -43l-218 -39q-96 -18 -133 -58t-37 -101.5z" glyph-name="amacron.aalt" horiz-adv-x="1097"/><glyph d="M991 137q27 -14 27 -35v-73q0 -31 -29 -35q-33 -4 -47 -2q-80 -8 -130 -50t-50 -100q0 -63 43 -90.5t123 -11.5v-125q-39 -18 -93.5 -18t-106.5 17t-89 66.5t-37 122.5q0 178 199 250q-23 33 -29 74q-160 -154 -373 -154q-154 0 -231.5 79t-77.5 206t76 203t240 102 l243 43q111 20 121 49q-2 211 -219 211q-209 0 -227 -155q-4 -23 -31 -23h-117q-33 0 -31 31q10 162 121 234.5t287 72.5q201 0 301 -96t100 -275v-434q0 -66 37 -84zM274 276.5q0 -61.5 40 -100.5t124 -39q180 0 332 150v231q-10 -27 -108 -43l-218 -39q-96 -18 -133 -58 t-37 -101.5z" glyph-name="aogonek.aalt" horiz-adv-x="1087"/><glyph d="M555 1139q-76 0 -127 50t-51 121.5t51 122t127 50.5q70 0 121 -51.5t51 -121t-51 -120.5t-121 -51zM552.5 1364q-22.5 0 -38.5 -15.5t-16 -38t16 -38t38.5 -15.5t39 15.5t16.5 38t-16.5 38t-39 15.5zM991 137q27 -14 27 -35v-73q0 -31 -29 -35q-94 -12 -150.5 23.5 t-66.5 109.5q-160 -154 -373 -154q-154 0 -231.5 79t-77.5 206t76 203t240 102l243 43q111 20 121 49q-2 211 -219 211q-209 0 -227 -155q-4 -23 -31 -23h-117q-33 0 -31 31q10 162 121 234.5t287 72.5q201 0 301 -96t100 -275v-434q0 -66 37 -84zM274 276.5 q0 -61.5 40 -100.5t124 -39q180 0 332 150v231q-10 -27 -108 -43l-218 -39q-96 -18 -133 -58t-37 -101.5z" glyph-name="aring.aalt" horiz-adv-x="1097"/><glyph d="M248 1278q-23 0 -19 27q8 80 57.5 121.5t125.5 41.5q49 0 93 -21.5t71.5 -47t63.5 -47t71 -21.5q66 0 88 62q6 18 22 18h41q20 0 21 -20q-8 -82 -58.5 -126t-122.5 -44q-80 0 -166.5 68.5t-136.5 68.5q-66 0 -88 -62q-6 -18 -22 -18h-41zM991 137q27 -14 27 -35v-73 q0 -31 -29 -35q-94 -12 -150.5 23.5t-66.5 109.5q-160 -154 -373 -154q-154 0 -231.5 79t-77.5 206t76 203t240 102l243 43q111 20 121 49q-2 211 -219 211q-209 0 -227 -155q-4 -23 -31 -23h-117q-33 0 -31 31q10 162 121 234.5t287 72.5q201 0 301 -96t100 -275v-434 q0 -66 37 -84zM274 276.5q0 -61.5 40 -100.5t124 -39q180 0 332 150v231q-10 -27 -108 -43l-218 -39q-96 -18 -133 -58t-37 -101.5z" glyph-name="atilde.aalt" horiz-adv-x="1097"/><glyph d="M797 104q285 0 284 -231q0 -276 -520 -276q-471 0 -471 237q0 59 34 101t85 63q-90 57 -90 158q0 127 131 174q-115 111 -115 284q0 178 125 295t322 117q129 0 233 -55l191 33q12 2 21 -7.5t9 -23.5v-84q0 -31 -30 -31h-58q78 -106 78 -244q0 -178 -124 -294.5 t-320 -116.5q-131 0 -232 53q-39 0 -61.5 -19.5t-22.5 -50.5q0 -82 187 -82h344zM581.5 870q-114.5 0 -192.5 -73.5t-78 -182t78 -182.5t192.5 -74t191.5 74t77 182.5t-77 182t-191.5 73.5zM561 -266q346 0 346 131q0 80 -121 80h-378q-156 0 -156 -88q0 -123 309 -123z" glyph-name="g.aalt" horiz-adv-x="1171"/><glyph d="M602 1155q-123 0 -201.5 69.5t-89.5 176.5q-4 31 29 31h61q27 0 33 -29q12 -57 56.5 -93t112 -36t111.5 36t56 93q6 29 33 29h61q33 0 29 -31q-10 -106 -89 -176t-202 -70zM797 104q285 0 284 -231q0 -276 -520 -276q-471 0 -471 237q0 59 34 101t85 63q-90 57 -90 158 q0 127 131 174q-115 111 -115 284q0 178 125 295t322 117q129 0 233 -55l191 33q12 2 21 -7.5t9 -23.5v-84q0 -31 -30 -31h-58q78 -106 78 -244q0 -178 -124 -294.5t-320 -116.5q-131 0 -232 53q-39 0 -61.5 -19.5t-22.5 -50.5q0 -82 187 -82h344zM581.5 870 q-114.5 0 -192.5 -73.5t-78 -182t78 -182.5t192.5 -74t191.5 74t77 182.5t-77 182t-191.5 73.5zM561 -266q346 0 346 131q0 80 -121 80h-378q-156 0 -156 -88q0 -123 309 -123z" glyph-name="gbreve.aalt" horiz-adv-x="1171"/><glyph d="M604 1137q-51 0 -86 37.5t-35 107.5q0 80 44 183.5t118 191.5l55 -37q-76 -109 -86 -256q47 -6 77 -38t30 -77q0 -47 -34 -79.5t-83 -32.5zM797 104q285 0 284 -231q0 -276 -520 -276q-471 0 -471 237q0 59 34 101t85 63q-90 57 -90 158q0 127 131 174q-115 111 -115 284 q0 178 125 295t322 117q129 0 233 -55l191 33q12 2 21 -7.5t9 -23.5v-84q0 -31 -30 -31h-58q78 -106 78 -244q0 -178 -124 -294.5t-320 -116.5q-131 0 -232 53q-39 0 -61.5 -19.5t-22.5 -50.5q0 -82 187 -82h344zM581.5 870q-114.5 0 -192.5 -73.5t-78 -182t78 -182.5 t192.5 -74t191.5 74t77 182.5t-77 182t-191.5 73.5zM561 -266q346 0 346 131q0 80 -121 80h-378q-156 0 -156 -88q0 -123 309 -123z" glyph-name="gcommaaccent.aalt" horiz-adv-x="1202"/><glyph d="M602 1241q-41 0 -71.5 29.5t-30.5 72.5q0 41 30.5 71t71.5 30t72 -30t31 -71q0 -43 -31 -72.5t-72 -29.5zM797 104q285 0 284 -231q0 -276 -520 -276q-471 0 -471 237q0 59 34 101t85 63q-90 57 -90 158q0 127 131 174q-115 111 -115 284q0 178 125 295t322 117 q129 0 233 -55l191 33q12 2 21 -7.5t9 -23.5v-84q0 -31 -30 -31h-58q78 -106 78 -244q0 -178 -124 -294.5t-320 -116.5q-131 0 -232 53q-39 0 -61.5 -19.5t-22.5 -50.5q0 -82 187 -82h344zM581.5 870q-114.5 0 -192.5 -73.5t-78 -182t78 -182.5t192.5 -74t191.5 74t77 182.5 t-77 182t-191.5 73.5zM561 -266q346 0 346 131q0 80 -121 80h-378q-156 0 -156 -88q0 -123 309 -123z" glyph-name="gdotaccent.aalt" horiz-adv-x="1171"/><glyph d="M600 850h-164v-606q0 -88 80 -88q51 0 76 4q37 6 37 -29v-88q0 -55 -154 -55q-223 0 -223 235v627h-141q-31 0 -31 31v92q0 31 31 31h141v235q0 31 31 31h123q31 0 30 -31v-235h164q31 0 31 -31v-92q0 -31 -31 -31z" glyph-name="t.aalt" horiz-adv-x="720"/><glyph d="M757.5 1450q243.5 0 395.5 -194.5t152 -544.5q0 -348 -152 -543t-395.5 -195t-395 194.5t-151.5 543.5q0 350 151.5 544.5t395 194.5zM758 1282q-174 0 -272.5 -153.5t-98.5 -417.5q0 -262 98.5 -416t272.5 -154q172 0 270 154t98 416t-98 416.5t-270 154.5z" glyph-name="zero.tnum" horiz-adv-x="1495"/><glyph d="M995 1434q31 0 31 -31v-1372q0 -31 -31 -31h-123q-31 0 -30 31v1247h-224q-29 0 -28 31v94q0 31 28 31h377z" glyph-name="one.tnum" horiz-adv-x="1495"/><glyph d="M1155 156q31 0 31 -31v-94q0 -31 -31 -31h-813q-31 0 -31 31v125l310 327q29 31 79 83t71.5 76t59 63.5t53 60t40 52.5t35 52.5t21.5 48t15 51t4 50.5q0 119 -72.5 190.5t-199.5 71.5q-70 0 -133.5 -27.5t-93 -53t-70.5 -66.5q-23 -25 -45 -2l-72 69q-20 20 -2 43 q164 205 418 205q201 0 324 -121t123 -307q0 -131 -78 -244.5t-271 -316.5q-23 -23 -34 -35l-254 -270h616z" glyph-name="two.tnum" horiz-adv-x="1495"/><glyph d="M948 766q111 -49 180.5 -143.5t69.5 -221.5q0 -186 -134 -307t-341 -121q-272 0 -428 189q-18 23 2 43l72 65q23 23 45 0q121 -129 305 -129q131 0 216 74t85 191q0 125 -93 198.5t-253 77.5q-31 0 -31 31v86q0 33 33 32q147 4 223 71t76 167q0 96 -73 155.5t-173 59.5 q-160 0 -274 -131q-20 -25 -45 0l-70 66q-20 20 -2 43q158 188 395 188q168 0 289 -106.5t121 -268.5q0 -98 -53.5 -179t-141.5 -130z" glyph-name="three.tnum" horiz-adv-x="1495"/><glyph d="M1204 487q31 0 31 -30v-97q0 -31 -31 -30h-139v-299q0 -31 -31 -31h-123q-31 0 -30 31v299h-590q-31 0 -31 30v107q0 20 10 39l598 907q14 20 37 21h129q31 0 31 -31v-916h139zM881 487v658l-430 -658h430z" glyph-name="four.tnum" horiz-adv-x="1495"/><glyph d="M723 944q190 0 328.5 -135t138.5 -340q0 -223 -142.5 -358.5t-353.5 -135.5q-133 0 -239.5 57.5t-159.5 137.5q-18 25 6 41l84 63q25 18 45 -4q106 -127 266 -127q127 0 221.5 92.5t94.5 233.5q0 133 -96.5 223t-213.5 90q-156 0 -253 -116q-16 -23 -41 -11l-95 37 q-27 12 -20 39l178 676q6 27 33 27h571q31 0 31 -31v-92q0 -31 -31 -31h-471l-104 -399q88 63 223 63z" glyph-name="five.tnum" horiz-adv-x="1495"/><glyph d="M743 920q203 0 341.5 -135.5t138.5 -335.5q0 -199 -137.5 -337.5t-336 -138.5t-334.5 138.5t-136 337.5q0 176 139 358l487 651q20 27 43 6l82 -69q23 -20 6 -43l-329 -434q11 2 36 2zM750 141q127 0 210.5 87t83.5 221q0 131 -83.5 218t-210.5 87q-125 0 -209 -87 t-84 -218q0 -133 84 -220.5t209 -87.5z" glyph-name="six.tnum" horiz-adv-x="1495"/><glyph d="M1171 1434q14 0 21.5 -8.5t3.5 -22.5l-557 -1372q-14 -31 -37 -31h-121q-14 0 -22 9t-2 22l510 1247h-635q-31 0 -31 31v94q0 31 31 31h839z" glyph-name="seven.tnum" horiz-adv-x="1495"/><glyph d="M745.5 -27q-196.5 0 -333 120t-136.5 313q0 137 78 241.5t195 149.5q-88 47 -138.5 128t-50.5 173q0 143 107.5 247.5t277.5 104.5t277.5 -104.5t107.5 -247.5q0 -92 -49 -173t-137 -128q117 -45 193.5 -149.5t76.5 -241.5q0 -193 -136 -313t-332.5 -120zM745.5 877 q92.5 0 158 63.5t65.5 155.5q-2 88 -63.5 147.5t-160 59.5t-160 -60.5t-61.5 -146.5q-2 -92 63.5 -155.5t158 -63.5zM745 141q127 0 209 74t82 195q0 125 -85 203.5t-205.5 78.5t-204.5 -78.5t-84 -203.5q0 -119 80.5 -194t207.5 -75z" glyph-name="eight.tnum" horiz-adv-x="1495"/><glyph d="M755.5 1450q198.5 0 335 -138t136.5 -337q0 -176 -140 -359l-487 -651q-20 -27 -43 -6l-82 70q-23 20 -6 43l330 434q-12 -2 -37 -2q-203 0 -341 135t-138 336q0 199 137 337t335.5 138zM756 670q125 0 209 87t84 218q0 133 -84 220t-209 87q-127 0 -211 -87t-84 -220 q0 -131 84 -218t211 -87z" glyph-name="nine.tnum" horiz-adv-x="1495"/><glyph d="M297 539q96 0 155.5 -72t59.5 -186v-27q0 -115 -59.5 -186.5t-155.5 -71.5q-92 0 -153.5 71.5t-61.5 186.5v27q0 115 61.5 186.5t153.5 71.5zM297 475q-59 0 -99 -52t-40 -142v-27q0 -90 40 -142.5t99 -52.5q63 0 101 51.5t38 143.5v27q0 92 -38 143t-101 51z" glyph-name="zero.dnom" horiz-adv-x="593"/><glyph d="M213 535v-535h-76v461h-55v74h131z" glyph-name="one.dnom" horiz-adv-x="294"/><glyph d="M254 541q70 0 121 -46t51 -108q0 -53 -29.5 -96t-109.5 -125l-97 -100h242v-66h-344v66l139 141q57 59 74.5 78.5t32 46t14.5 55.5q0 37 -28.5 63.5t-65.5 26.5q-39 0 -67.5 -26.5t-28.5 -75.5v-29h-76v29q0 72 50 119t122 47z" glyph-name="two.dnom" horiz-adv-x="514"/><glyph d="M268 539q66 0 115 -42t49 -98q0 -66 -61 -108q86 -37 86 -135q0 -70 -56.5 -117t-132.5 -47q-82 0 -136 55t-50 131h78q-2 -49 28.5 -85t79.5 -36q45 0 78 28t33 71q0 102 -152 96v61q129 0 129 86q0 33 -25.5 54.5t-62.5 21.5q-45 0 -70.5 -29.5t-25.5 -83.5h-76 q-2 78 47 127.5t125 49.5z" glyph-name="three.dnom" horiz-adv-x="538"/><glyph d="M428 535v-316h55v-63h-55v-156h-76v156h-270l270 379h76zM352 424l-143 -205h143v205z" glyph-name="four.dnom" horiz-adv-x="565"/><glyph d="M412 535v-66h-213l-17 -119q45 20 92 21q72 0 129.5 -54.5t57.5 -134.5t-57.5 -135t-137.5 -55q-68 0 -120 38t-64 89l68 39q4 -41 35.5 -71t80.5 -30q47 0 82 36t35 89q0 51 -34 87t-75 36q-72 0 -116 -59l-66 16l37 273h283z" glyph-name="five.dnom" horiz-adv-x="542"/><glyph d="M387 535l-139 -197h12q70 0 123 -51t53 -121q0 -72 -53 -123t-123 -51t-124 51t-54 123q0 33 11 64.5t20.5 47t37 51.5t33.5 44l117 162h86zM260 272q-45 0 -73.5 -28.5t-28.5 -77.5q0 -47 31.5 -78t70.5 -31q37 0 68.5 31t31.5 78t-30.5 76.5t-69.5 29.5z" glyph-name="six.dnom" horiz-adv-x="518"/><glyph d="M436 535l-209 -535h-80l183 469h-248v66h354z" glyph-name="seven.dnom" horiz-adv-x="518"/><glyph d="M268 539q74 0 118 -41t44 -97q0 -70 -61 -108q88 -43 88 -135q0 -70 -55.5 -116t-133.5 -46q-76 0 -131 46t-55 116q0 92 88 135q-61 39 -61 108q0 53 43.5 95.5t115.5 42.5zM268 475q-41 0 -62.5 -21.5t-21.5 -52t26 -55t58 -24.5q35 0 59.5 23.5t24.5 55.5q0 74 -84 74 zM268 258q-45 0 -77.5 -28.5t-32.5 -71.5q0 -41 32.5 -70t77.5 -29q49 0 80 27t31 72t-31 72.5t-80 27.5z" glyph-name="eight.dnom" horiz-adv-x="538"/><glyph d="M260 541q70 0 124 -50.5t54 -121.5q0 -27 -5 -49.5t-18.5 -46t-21.5 -37t-29.5 -40t-29.5 -36.5l-115 -160h-88l139 195h-10q-72 0 -125 52t-53 122q0 72 54 122t124 50zM260 475q-39 0 -70.5 -30.5t-31.5 -75.5q0 -47 31.5 -78t70.5 -31q45 0 72.5 29.5t27.5 79.5 q0 45 -31.5 75.5t-68.5 30.5z" glyph-name="nine.dnom" horiz-adv-x="520"/><glyph d="M297 1440q96 0 155.5 -72t59.5 -186v-27q0 -115 -59.5 -186.5t-155.5 -71.5q-92 0 -153.5 71.5t-61.5 186.5v27q0 115 61.5 186.5t153.5 71.5zM297 1376q-59 0 -99 -52t-40 -142v-27q0 -90 40 -142t99 -52q63 0 101 51t38 143v27q0 92 -38 143t-101 51z" glyph-name="zero.numr" horiz-adv-x="593"/><glyph d="M213 1436v-535h-76v461h-55v74h131z" glyph-name="one.numr" horiz-adv-x="294"/><glyph d="M254 1442q70 0 121 -46t51 -108q0 -53 -29.5 -96t-109.5 -125l-97 -100h242v-66h-344v66l139 141q57 59 74.5 78.5t32 46.5t14.5 55q0 37 -28.5 63.5t-65.5 26.5q-39 0 -67.5 -26.5t-28.5 -75.5v-29h-76v29q0 72 50 119t122 47z" glyph-name="two.numr" horiz-adv-x="514"/><glyph d="M268 1440q66 0 115 -42t49 -98q0 -66 -61 -108q86 -37 86 -135q0 -70 -56.5 -117t-132.5 -47q-82 0 -136 55.5t-50 130.5h78q-2 -49 28.5 -85t79.5 -36q45 0 78 28t33 71q0 102 -152 96v61q129 0 129 86q0 33 -25.5 54.5t-62.5 21.5q-45 0 -70.5 -29.5t-25.5 -82.5h-76 q-2 78 47 127t125 49z" glyph-name="three.numr" horiz-adv-x="538"/><glyph d="M428 1436v-316h55v-63h-55v-156h-76v156h-270l270 379h76zM352 1325l-143 -205h143v205z" glyph-name="four.numr" horiz-adv-x="565"/><glyph d="M412 1436v-66h-213l-17 -119q45 20 92 21q72 0 129.5 -54.5t57.5 -134t-57.5 -135t-137.5 -55.5q-68 0 -120 38t-64 89l68 39q4 -41 35.5 -71t80.5 -30q47 0 82 36t35 89q0 51 -34 87t-75 36q-72 0 -116 -59l-66 16l37 273h283z" glyph-name="five.numr" horiz-adv-x="542"/><glyph d="M387 1436l-139 -197h12q70 0 123 -51t53 -121q0 -72 -53 -123t-123 -51t-124 51t-54 123q0 33 11 64.5t20.5 47t37 51.5t33.5 44l117 162h86zM260 1174q-45 0 -73.5 -29t-28.5 -78q0 -47 31.5 -78t70.5 -31q37 0 68.5 31t31.5 78t-30.5 77t-69.5 30z" glyph-name="six.numr" horiz-adv-x="518"/><glyph d="M436 1436l-209 -535h-80l183 469h-248v66h354z" glyph-name="seven.numr" horiz-adv-x="518"/><glyph d="M268 1440q74 0 118 -41t44 -96q0 -70 -61 -109q88 -43 88 -135q0 -70 -55.5 -116t-133.5 -46q-76 0 -131 46t-55 116q0 92 88 135q-61 39 -61 109q0 53 43.5 95t115.5 42zM268 1376q-41 0 -62.5 -21.5t-21.5 -52t26 -55t58 -24.5q35 0 59.5 23.5t24.5 56.5q0 73 -84 73z M268 1159q-45 0 -77.5 -28.5t-32.5 -71.5q0 -41 32.5 -69.5t77.5 -28.5q49 0 80 26.5t31 71.5t-31 72.5t-80 27.5z" glyph-name="eight.numr" horiz-adv-x="538"/><glyph d="M260 1442q70 0 124 -50.5t54 -121.5q0 -27 -5 -49.5t-18.5 -46t-21.5 -37t-29.5 -40t-29.5 -36.5l-115 -160h-88l139 195h-10q-72 0 -125 52t-53 122q0 72 54 122t124 50zM260 1376q-39 0 -70.5 -30.5t-31.5 -75.5q0 -47 31.5 -78t70.5 -31q45 0 72.5 30t27.5 79 q0 45 -31.5 75.5t-68.5 30.5z" glyph-name="nine.numr" horiz-adv-x="520"/><glyph d="M653 1542q-41 0 -24 35l123 258q10 25 34 25h99q41 0 24 -35l-123 -258q-10 -25 -34 -25h-99zM1288 35q14 -35 -24 -35h-131q-27 0 -35 25l-105 299h-614l-107 -299q-8 -25 -34 -25h-132q-39 0 -24 35l502 1374q10 25 37 25h129q29 0 36 -25zM434 479h504l-252 715z" glyph-name="glyph499" horiz-adv-x="1370"/><glyph d="M733 1860q41 0 25 -35l-123 -258q-10 -25 -35 -25h-98q-41 0 -25 35l123 258q10 25 35 25h98zM901 174q31 0 31 -31v-112q0 -31 -31 -31h-719q-31 0 -30 31v1372q0 31 30 31h717q31 0 31 -31v-113q0 -31 -31 -30h-557v-418h524q31 0 31 -31v-113q0 -31 -31 -30h-524v-494 h559z" glyph-name="glyph500" horiz-adv-x="1064"/><glyph d="M639 1542q-41 0 -25 35l123 258q10 25 35 25h98q41 0 25 -35l-123 -258q-10 -25 -35 -25h-98zM1186 1434q27 -4 26 -31v-1372q0 -31 -30 -31h-129q-31 0 -31 31v1122l-660 -1133q-12 -20 -36 -20h-168q-27 4 -27 31v1372q0 31 31 31h129q31 0 31 -31v-1122l661 1132 q12 20 37 21h166z" glyph-name="glyph501" horiz-adv-x="1363"/><glyph d="M1032 1860q41 0 25 -35l-123 -258q-10 -25 -35 -25h-98q-41 0 -25 35l123 258q10 25 35 25h98zM844 -27q-305 0 -519 215t-214 523q0 309 214 524t519 215t519 -215t214 -524q0 -307 -214 -522.5t-519 -215.5zM843.5 160q229.5 0 385 159.5t155.5 391.5 q0 236 -155.5 394.5t-385 158.5t-385 -159t-155.5 -394q0 -231 155.5 -391t385 -160z" glyph-name="glyph502" horiz-adv-x="1687"/><glyph d="M631 1542q-41 0 -25 35l123 258q10 25 35 25h98q41 0 25 -35l-123 -258q-10 -25 -35 -25h-98zM1231 1434q18 0 24.5 -10.5t-4.5 -26.5l-831 -1377q-12 -20 -37 -20h-139q-41 0 -21 37l346 573l-473 787q-10 16 -4 26.5t25 10.5h137q25 0 37 -21l381 -633l383 633 q12 20 37 21h139z" glyph-name="glyph503" horiz-adv-x="1345"/><glyph d="M1016 1860q41 0 24 -35l-122 -258q-10 -25 -35 -25h-99q-41 0 -24 35l123 258q10 25 35 25h98zM578 0h-396q-31 0 -30 31v1372q0 31 30 31h129q31 0 31 -31v-502h236q231 0 360 -125t129 -325.5t-129 -325.5t-360 -125zM1331 1403q0 31 31 31h129q31 0 31 -31v-1372 q0 -31 -31 -31h-129q-31 0 -31 31v1372zM569 727h-227v-553h227q139 0 226.5 66.5t87.5 210t-87.5 210t-226.5 66.5z" glyph-name="glyph504" horiz-adv-x="1652"/><glyph d="M666 1542q-41 0 -25 35l123 258q10 25 35 25h98q41 0 25 -35l-123 -258q-10 -25 -35 -25h-98zM590 1450q305 0 515 -215t210 -524q0 -307 -210 -522.5t-515 -215.5q-268 0 -488 199q-25 20 -2 43l82 84q20 20 43 0q166 -139 365 -139q201 0 349 133t175 338h-526 q-31 0 -31 31v112q0 31 31 31h524q-31 201 -178.5 330t-343.5 129q-199 0 -365 -140q-23 -20 -43 0l-82 86q-20 20 2 43q222 197 488 197z" glyph-name="glyph505" horiz-adv-x="1415"/><glyph d="M989 1542q-41 0 -24 35l122 258q10 25 35 25h99q41 0 24 -35l-123 -258q-10 -25 -35 -25h-98zM1241 1450q305 0 519 -215t214 -524q0 -307 -214 -522.5t-519 -215.5q-283 0 -491.5 189.5t-237.5 468.5h-170v-600q0 -31 -31 -31h-129q-31 0 -30 31v1372q0 31 30 31h129 q31 0 31 -31v-598h172q35 276 240.5 460.5t486.5 184.5zM1241 160q229 0 385 159.5t156 391.5q0 236 -156 394.5t-385 158.5t-385 -159t-156 -394q0 -231 156 -391t385 -160z" glyph-name="glyph506" horiz-adv-x="2062"/><glyph d="M582 1542q-41 0 -25 35l123 258q10 25 35 25h98q41 0 25 -35l-123 -258q-10 -25 -35 -25h-98zM1012 1434q31 0 30 -31v-1372q0 -31 -30 -31h-129q-31 0 -31 31v501h-199l-338 -512q-12 -20 -36 -20h-142q-43 0 -20 37l344 514q-160 37 -247 152.5t-87 279.5 q0 201 129 326t360 125h396zM852 707v553h-227q-139 0 -226.5 -67t-87.5 -210t87 -209.5t227 -66.5h227z" glyph-name="glyph507" horiz-adv-x="1193"/><glyph d="M569 1112q-41 0 -24 35l123 258q10 25 34 25h99q41 0 24 -35l-123 -258q-10 -25 -34 -25h-99zM1081 1004q31 0 31 -31v-942q0 -31 -31 -31h-108q-27 0 -31 31l-10 121q-125 -166 -342 -166q-211 0 -350.5 149.5t-139.5 364.5q0 221 139.5 372.5t350.5 151.5 q219 0 344 -176l8 125q4 31 31 31h108zM608.5 154q141.5 0 234.5 100t93 247.5t-93 251t-235 103.5q-143 0 -237.5 -100.5t-94.5 -253.5q0 -147 95.5 -247.5t237 -100.5z" glyph-name="glyph508"/><glyph d="M567 1174q-41 0 -24 34l123 258q10 25 34 25h99q41 0 24 -35l-123 -258q-10 -25 -34 -24h-99zM596 1024q209 0 340 -142.5t131 -340.5q0 -57 -12.5 -82t-48.5 -25h-725q20 -131 113 -210t238.5 -79t258.5 88q23 20 43 3l53 -50q23 -25 0 -47q-147 -154 -375 -153 q-223 0 -367.5 150.5t-144.5 369.5t140.5 368.5t355.5 149.5zM596 862q-127 0 -213 -82t-102 -213h624q-10 129 -96 212t-213 83z" glyph-name="glyph509" horiz-adv-x="1167"/><glyph d="M559 1112q-41 0 -24 35l122 258q10 25 35 25h99q41 0 24 -35l-123 -258q-10 -25 -35 -25h-98zM1030 1004q31 0 31 -31v-942q0 -31 -31 -31h-123q-31 0 -30 31v747l-517 -758q-14 -20 -38 -20h-170q-31 0 -31 31v942q0 31 31 31h122q31 0 31 -31v-760l524 770q14 20 39 21 h162z" glyph-name="glyph510" horiz-adv-x="1179"/><glyph d="M799 1430q41 0 24 -35l-123 -258q-10 -25 -34 -25h-99q-41 0 -24 35l123 258q10 25 34 25h99zM610 -20q-215 0 -362.5 151.5t-147.5 370.5q0 221 147.5 372.5t362.5 151.5q217 0 364.5 -151.5t147.5 -372.5q0 -219 -147.5 -370.5t-364.5 -151.5zM610.5 147 q141.5 0 237.5 100.5t96 254t-96 255t-237.5 101.5t-238 -101.5t-96.5 -254.5q0 -152 96.5 -253.5t238 -101.5z" glyph-name="glyph511" horiz-adv-x="1222"/><glyph d="M750 1430q41 0 24 -35l-123 -258q-10 -25 -35 -25h-98q-41 0 -24 35l122 258q10 25 35 25h99zM1016 1004q37 0 24 -35l-528 -1334q-8 -25 -37 -24h-123q-41 0 -24 35l141 350l-385 973q-12 35 25 35h124q29 0 37 -25l291 -768l291 768q8 25 37 25h127z" glyph-name="glyph512" horiz-adv-x="1103"/><glyph d="M727 1112q-41 0 -25 35l123 258q10 25 35 25h98q41 0 25 -35l-123 -258q-10 -25 -35 -25h-98zM616 668q207 0 317.5 -87t110.5 -247t-110.5 -247t-317.5 -87h-464q-31 0 -31 31v942q0 31 31 31h122q31 0 31 -31v-305h311zM1389 1004q31 0 30 -31v-942q0 -31 -30 -31h-123 q-31 0 -31 31v942q0 31 31 31h123zM621 152q248 0 247.5 182t-247.5 182h-316v-364h316z" glyph-name="glyph513" horiz-adv-x="1538"/><glyph d="M496 1112q-41 0 -25 35l123 258q10 25 35 25h98q41 0 25 -35l-123 -258q-10 -25 -35 -25h-98zM477 1024q215 0 360.5 -151.5t145.5 -370.5q0 -215 -145.5 -365.5t-360.5 -150.5q-233 0 -389 178q-18 23 2 43l70 65q23 23 45 0q37 -37 64.5 -57t83 -40.5t122.5 -20.5 q125 0 214 76.5t112 197.5h-359q-31 0 -30 31v82q0 31 30 30h359q-20 127 -109.5 206t-216.5 79q-63 0 -119.5 -22.5t-78 -39t-66.5 -57.5q-25 -20 -45 0l-70 66q-20 20 -2 43q156 178 383 178z" glyph-name="glyph514" horiz-adv-x="1073"/><glyph d="M739 1112q-41 0 -24 35l123 258q10 25 34 25h99q41 0 24 -35l-123 -258q-10 -25 -34 -25h-99zM973 1026q217 0 364.5 -151.5t147.5 -372.5q0 -219 -147.5 -370.5t-364.5 -151.5q-195 0 -336 125.5t-168 318.5h-164v-395q0 -31 -31 -31h-122q-31 0 -31 31v942q0 31 31 30 h122q31 0 31 -30v-393h162q27 195 169 321.5t337 126.5zM972.5 147q141.5 0 238 100.5t96.5 254t-96.5 255t-238 101.5t-237.5 -101.5t-96 -254.5q0 -152 96 -253.5t237.5 -101.5z" glyph-name="glyph515" horiz-adv-x="1564"/><glyph d="M518 1112q-41 0 -24 35l122 258q10 25 35 25h99q41 0 24 -35l-123 -258q-10 -25 -35 -25h-98zM973 1004q31 0 31 -31v-942q0 -31 -31 -31h-123q-31 0 -31 31v305h-237l-287 -320q-14 -16 -37 -16h-133q-20 0 -25.5 11.5t9.5 25.5l280 309q-145 25 -222 108t-77 216 q0 160 109.5 247t318.5 87h455zM514 487h305v365h-305q-248 0 -248 -182.5t248 -182.5z" glyph-name="glyph516" horiz-adv-x="1124"/></font>
</defs>
</svg>
