<svg width="26" height="20" viewBox="0 0 26 20" fill="none" xmlns="http://www.w3.org/2000/svg">
<path d="M23.8095 0.169434H2.75833C1.59126 0.169434 0.647949 1.11055 0.647949 2.27052V17.6785C0.647949 18.8385 1.59126 19.7796 2.75833 19.7796H23.8095C24.9766 19.7796 25.9199 18.8385 25.9199 17.6785V2.27052C25.9199 1.11055 24.9766 0.169434 23.8095 0.169434ZM3.02158 2.27052H23.5463C23.6911 2.27052 23.8095 2.38871 23.8095 2.53316V4.37161H2.75833V2.53316C2.75833 2.38871 2.8768 2.27052 3.02158 2.27052ZM23.5463 17.6785H3.02158C2.8768 17.6785 2.75833 17.5603 2.75833 17.4159V9.97452H23.8095V17.4159C23.8095 17.5603 23.6911 17.6785 23.5463 17.6785ZM9.07194 13.3012V15.0522C9.07194 15.3411 8.83502 15.5774 8.54544 15.5774H5.38644C5.09687 15.5774 4.85994 15.3411 4.85994 15.0522V13.3012C4.85994 13.0123 5.09687 12.776 5.38644 12.776H8.54544C8.83502 12.776 9.07194 13.0123 9.07194 13.3012ZM17.4959 13.3012V15.0522C17.4959 15.3411 17.259 15.5774 16.9694 15.5774H11.0024C10.7129 15.5774 10.4759 15.3411 10.4759 15.0522V13.3012C10.4759 13.0123 10.7129 12.776 11.0024 12.776H16.9694C17.259 12.776 17.4959 13.0123 17.4959 13.3012Z" fill="#F57153"/>
</svg>
