<svg width="24" height="24" viewBox="0 0 24 24" fill="none" xmlns="http://www.w3.org/2000/svg">
<rect width="24" height="24" fill="transparent"/>
<path fill-rule="evenodd" clip-rule="evenodd" d="M5.56065 3.43958C4.97486 2.8538 4.02511 2.8538 3.43933 3.43958C2.85354 4.02537 2.85354 4.97512 3.43933 5.5609L9.818 11.9396L3.43931 18.3183C2.85352 18.904 2.85352 19.8538 3.43931 20.4396C4.0251 21.0254 4.97484 21.0254 5.56063 20.4396L11.9393 14.0609L18.2886 20.4101C18.8744 20.9959 19.8241 20.9959 20.4099 20.4101C20.9957 19.8244 20.9957 18.8746 20.4099 18.2888L14.0606 11.9396L20.4099 5.59034C20.9957 5.00455 20.9957 4.05481 20.4099 3.46902C19.8241 2.88323 18.8743 2.88323 18.2886 3.46902L11.9393 9.81825L5.56065 3.43958Z" fill="#F57153"/>
</svg>
