<svg width="27" height="25" viewBox="0 0 27 25" fill="none" xmlns="http://www.w3.org/2000/svg">
<g clip-path="url(#clip0)">
<path d="M24.1714 13.5358L26.2232 4.19206C26.3713 3.51743 25.8759 2.875 25.2074 2.875H8.15958L7.76175 0.862051C7.66262 0.360318 7.23606 0 6.74122 0H2.29118C1.71587 0 1.24951 0.482686 1.24951 1.07812V1.79688C1.24951 2.39231 1.71587 2.875 2.29118 2.875H5.3243L8.37325 18.3027C7.64383 18.7369 7.15229 19.551 7.15229 20.4844C7.15229 21.8737 8.24049 23 9.58285 23C10.9252 23 12.0134 21.8737 12.0134 20.4844C12.0134 19.7803 11.7336 19.1441 11.2832 18.6875H20.3825C19.9321 19.1441 19.6523 19.7803 19.6523 20.4844C19.6523 21.8737 20.7405 23 22.0828 23C23.4252 23 24.5134 21.8737 24.5134 20.4844C24.5134 19.4884 23.954 18.6277 23.1428 18.2201L23.3822 17.1296C23.5304 16.4549 23.0349 15.8125 22.3665 15.8125H10.7164L10.4323 14.375H23.1556C23.642 14.375 24.0636 14.0267 24.1714 13.5358Z" fill="black" fill-opacity="0.6"/>
</g>
<defs>
<clipPath id="clip0">
<rect x="0.91748" y="0.152588" width="25.704" height="23.9345" fill="white"/>
</clipPath>
</defs>
</svg>
