<svg width="37" height="49" viewBox="0 0 37 49" fill="none" xmlns="http://www.w3.org/2000/svg">
<path fill-rule="evenodd" clip-rule="evenodd" d="M18.4013 45.3604L16.6304 43.3074C7.67296 32.9147 2.32861 23.5315 2.32861 18.2069C2.32861 9.43558 9.53634 2.30401 18.4013 2.30401C27.2637 2.30401 34.4714 9.43558 34.4714 18.2069C34.4714 23.5315 29.1271 32.9147 20.1696 43.3048L18.4013 45.3604ZM18.4013 0C8.23855 0 0 8.1515 0 18.2069C0 28.2074 14.4896 44.5079 17.7537 48.0514C18.1001 48.428 18.7 48.428 19.0462 48.0514C22.3105 44.5079 36.8 28.2074 36.8 18.2069C36.8 8.1515 28.5615 0 18.4013 0Z" fill="#F57153"/>
<path fill-rule="evenodd" clip-rule="evenodd" d="M31.7228 20.8766C30.337 25.8528 25.6155 33.3606 18.8065 41.3391C18.5956 41.5862 18.2068 41.5863 17.9958 41.3392C17.2007 40.4084 16.4352 39.484 15.7027 38.5714C13.6643 36.0397 11.861 33.5834 10.3321 31.2708C10.1205 30.9508 10.314 30.5223 10.6968 30.4681C14.4964 29.9297 18.1605 28.2131 21.0866 25.3203C23.921 22.5158 27.4484 20.8184 31.1231 20.2261C31.5019 20.165 31.8247 20.5105 31.7228 20.8766Z" fill="#F57153"/>
</svg>
