<?xml version="1.0" standalone="no"?>
<!DOCTYPE svg PUBLIC "-//W3C//DTD SVG 1.1//EN" "http://www.w3.org/Graphics/SVG/1.1/DTD/svg11.dtd">
<svg xmlns="http://www.w3.org/2000/svg"><metadata>This SVG WebFont was generated by YouWorkForThem.
Â© 2016 Connary Fagen</metadata><defs><font horiz-adv-x="1257" id="ywftsvg"><font-face ascent="1638" bbox="-338 -676 2234.03 1944" cap-height="1434" descent="-410" font-family="" font-stretch="normal" font-weight="700" panose-1="0 0 8 0 0 0 0 0 0 0" underline-position="0" underline-thickness="0" unicode-range="U+0020-FB02" units-per-em="2048" x-height="1004"/><missing-glyph d="M831 1638v-2027h-643v2027h643zM676 1503h-336v-67h133v-76h-135v-66h338v66h-135v76h135v67zM541 1241h-203v-211h338v70h-135v141zM473 1171v-71h-67v71h67zM676 975h-338v-66h135v-75h-135v-68h203v143h135v66zM676 854h-68v-133h-270v-70h338v203zM676 606h-203v-112 h68v45h67v-95h-202v162h-68v-229h338v229zM676 256h-338v-229h338v229zM608 188v-94h-202v94h202zM676 -20h-338v-66h143l-143 -96v-68h338v68h-207l141 96h66v66z" horiz-adv-x="1013"/><glyph d="M739 1473q20 -12 21 -37v-183q0 -18 -11.5 -24t-25.5 4q-57 33 -119 33q-68 0 -90 -31t-22 -96v-135h213q31 0 30 -31v-160q0 -31 -30 -31h-213v-751q0 -31 -31 -31h-209q-31 0 -31 31v751h-119q-31 0 -30 31v160q0 31 30 31h119v170q0 166 92.5 249.5t257.5 83.5 q107 1 168 -34zM1053 1194q-63 0 -106.5 44t-43.5 105.5t43 105.5t107 44q61 0 104 -44t43 -105.5t-43 -105.5t-104 -44zM1155 1004q31 0 31 -31v-942q0 -31 -31 -31h-209q-31 0 -31 31v942q0 31 31 31h209z" glyph-name="uniFB01" horiz-adv-x="1280" unicode="fi"/><glyph d="M739 1473q20 -12 21 -37v-183q0 -18 -11.5 -24t-25.5 4q-57 33 -119 33q-68 0 -90 -31t-22 -96v-135h213q31 0 30 -31v-160q0 -31 -30 -31h-213v-751q0 -31 -31 -31h-209q-31 0 -31 31v751h-119q-31 0 -30 31v160q0 31 30 31h119v170q0 166 92.5 249.5t257.5 83.5 q107 1 168 -34zM1153 1495q31 0 31 -31v-1433q0 -31 -31 -31h-209q-31 0 -31 31v1433q0 31 31 31h209z" glyph-name="uniFB02" horiz-adv-x="1286" unicode="fl"/><glyph d="M831 1638v-2027h-643v2027h643zM676 1503h-336v-67h133v-76h-135v-66h338v66h-135v76h135v67zM541 1241h-203v-211h338v70h-135v141zM473 1171v-71h-67v71h67zM676 975h-338v-66h135v-75h-135v-68h203v143h135v66zM676 854h-68v-133h-270v-70h338v203zM676 606h-203v-112 h68v45h67v-95h-202v162h-68v-229h338v229zM676 256h-338v-229h338v229zM608 188v-94h-202v94h202zM676 -20h-338v-66h143l-143 -96v-68h338v68h-207l141 96h66v66z" glyph-name=".notdef" horiz-adv-x="1013"/><glyph glyph-name="glyph1" horiz-adv-x="0"/><glyph glyph-name="glyph2" horiz-adv-x="681"/><glyph glyph-name="space" horiz-adv-x="573" unicode=" "/><glyph d="M459 1280l-70 -823q-2 -29 -31 -29h-90q-29 0 -30 29l-72 823q-8 76 35 123t110.5 47t111.5 -47t36 -123zM313 -27q-63 0 -106 43t-43 107q0 61 43 104t106 43q61 0 104.5 -43t43.5 -104q0 -63 -43.5 -106.5t-104.5 -43.5z" glyph-name="exclam" horiz-adv-x="624" unicode="!"/><glyph d="M295 1434q14 0 23.5 -8.5t7.5 -22.5l-23 -399q-4 -31 -31 -31h-135q-27 0 -31 31l-22 399q-2 14 7 22.5t24 8.5h180zM616 1434q14 0 23.5 -8.5t7.5 -22.5l-22 -399q-4 -31 -31 -31h-135q-27 0 -31 31l-22 399q-2 14 7 22.5t23 8.5h180z" glyph-name="quotedbl" horiz-adv-x="729" unicode="&quot;"/><glyph d="M1128 958h-133v-319h133q31 0 31 -31v-141q0 -31 -31 -31h-133v-241q0 -31 -30 -31h-189q-31 0 -31 31v241h-196v-241q0 -31 -31 -31h-190q-31 0 -31 31v241h-133q-31 0 -31 31v141q0 31 31 31h133v319h-133q-31 0 -31 31v141q0 31 31 31h133v242q0 31 31 31h190 q31 0 31 -31v-242h196v242q0 31 31 31h189q31 0 30 -31v-242h133q31 0 31 -31v-141q0 -31 -31 -31zM745 639v319h-196v-319h196z" glyph-name="numbersign" horiz-adv-x="1292" unicode="#"/><glyph d="M1081 399q0 -168 -114.5 -277.5t-284.5 -137.5v-138q0 -31 -31 -30h-149q-31 0 -31 30v140q-119 20 -218 79.5t-153 133.5q-16 23 2 43l123 133q20 25 45 2q160 -139 320 -139q92 0 154.5 46t62.5 122q0 59 -49 103t-124 71.5t-162 66.5t-161.5 83t-124 126t-49.5 193 q0 152 94.5 255t239.5 134v149q0 31 31 31h149q31 0 31 -31v-145q186 -31 338 -182q20 -20 2 -43l-113 -138q-18 -25 -43 -6q-147 115 -274 115q-84 0 -133 -41t-49 -105q0 -68 69.5 -113.5t167.5 -79.5t196.5 -79t168 -139.5t69.5 -231.5z" glyph-name="dollar" horiz-adv-x="1153" unicode="$"/><glyph d="M381 1444q117 0 199 -80t82 -196.5t-82 -197.5t-199 -81t-198 81t-81 197.5t81 196.5t198 80zM1114 1427l154 -96l-891 -1325l-154 96zM381 1270q-43 0 -72.5 -30t-29.5 -73q0 -45 30.5 -74.5t71.5 -29.5q43 0 73.5 29.5t30.5 74.5q0 43 -30.5 73t-73.5 30zM1110 545 q117 0 198 -81t81 -197.5t-81 -196.5t-198 -80t-199 80t-82 196.5t82 197.5t199 81zM1110 371q-43 0 -73.5 -30t-30.5 -75q0 -43 30.5 -72.5t73.5 -29.5t72.5 29.5t29.5 72.5q0 45 -30.5 75t-71.5 30z" glyph-name="percent" horiz-adv-x="1490" unicode="%"/><glyph d="M1341 150q23 -23 0 -46l-110 -110q-23 -23 -45 -2l-166 164q-213 -174 -440 -174q-190 0 -334 111.5t-144 303.5q0 129 73 222.5t200 175.5q-160 164 -160 311q0 139 108.5 241.5t270.5 102.5q156 0 268.5 -103.5t112.5 -240.5q0 -199 -238 -363l281 -276q63 80 145 203 q16 27 41 10l135 -96q20 -14 4 -43q-74 -119 -167 -230zM461 1100q0 -76 106 -189q164 100 164 189q0 49 -40 85t-97 36q-59 0 -96 -35t-37 -86zM608 227q127 0 250 88l-307 308q-84 -57 -129 -107.5t-45 -112.5q0 -72 63.5 -124t167.5 -52z" glyph-name="ampersand" horiz-adv-x="1415" unicode="&amp;"/><glyph d="M295 1434q14 0 23.5 -8.5t7.5 -22.5l-23 -399q-4 -31 -31 -31h-135q-27 0 -31 31l-22 399q-2 14 7 22.5t24 8.5h180z" glyph-name="quotesingle" horiz-adv-x="407" unicode="'"/><glyph d="M580 1526q16 0 22 -10.5t-2 -26.5q-197 -365 -197 -834q0 -494 199 -884q16 -37 -22 -37h-205q-25 0 -37 20q-215 383 -215 901q0 492 215 850q12 20 37 21h205z" glyph-name="parenleft" horiz-adv-x="729" unicode="("/><glyph d="M150 1526h204q25 0 37 -21q215 -358 215 -850q0 -518 -215 -901q-12 -20 -37 -20h-204q-39 0 -23 37q199 391 199 884q0 469 -197 834q-8 16 -1.5 26.5t22.5 10.5z" glyph-name="parenright" horiz-adv-x="729" unicode=")"/><glyph d="M881 1139l-211 -58l143 -188l-158 -96l-127 180l-129 -180l-157 96l143 188l-211 58l43 182l225 -68l-6 236h180l-2 -236l224 68zM516 1135l12 -11l11 11h-23z" glyph-name="asterisk" horiz-adv-x="1054" unicode="*"/><glyph d="M819 684q31 0 31 -31v-139q0 -31 -31 -31h-227v-227q0 -31 -31 -31h-139q-31 0 -31 31v227h-227q-31 0 -31 31v139q0 31 31 31h227v227q0 31 31 31h139q31 0 31 -31v-227h227z" glyph-name="plus" horiz-adv-x="983" unicode="+"/><glyph d="M247.5 270q65.5 0 109.5 -48t44 -134q0 -96 -54 -207.5t-142 -208.5l-70 43q78 115 88 256q-55 8 -93 50t-38 100q0 63 45 106t110.5 43z" glyph-name="comma" horiz-adv-x="493" unicode=","/><glyph d="M758 678q31 0 30 -31v-160q0 -31 -30 -30h-615q-31 0 -30 30v160q0 31 30 31h615z" glyph-name="hyphen" horiz-adv-x="862" unicode="-"/><glyph d="M242 -27q-63 0 -106.5 43t-43.5 107q0 61 43 104t107 43q61 0 104 -43t43 -104q0 -63 -43 -106.5t-104 -43.5z" glyph-name="period" horiz-adv-x="481" unicode="."/><glyph d="M973 1526q37 0 24 -35l-671 -1733q-10 -25 -37 -24h-219q-37 0 -25 35l672 1732q8 25 37 25h219z" glyph-name="slash" horiz-adv-x="1042" unicode="/"/><glyph d="M668 1450q244 0 409.5 -193.5t165.5 -545.5q0 -350 -166 -544t-409 -194q-242 0 -409 193.5t-167 544t167 545t409 194.5zM668 1200q-152 0 -234 -139t-82 -350t82 -349.5t234 -138.5q154 0 234.5 138.5t80.5 349.5t-80.5 350t-234.5 139z" glyph-name="zero" horiz-adv-x="1337" unicode="0"/><glyph d="M608 1434q31 0 31 -31v-1372q0 -31 -31 -31h-209q-31 0 -30 31v1181h-236q-31 0 -31 31v160q0 31 31 31h475z" glyph-name="one" horiz-adv-x="772" unicode="1"/><glyph d="M985 221q31 0 31 -31v-159q0 -31 -31 -31h-842q-31 0 -30 31v190l231 248q55 57 140 144t118 122t75 88.5t55 91t13 80.5q0 94 -62 152.5t-157 58.5q-154 0 -264 -139q-20 -27 -45 -2l-125 123q-18 18 -2 43q68 94 184.5 156.5t257.5 62.5q205 0 339.5 -127t134.5 -317 q0 -63 -15.5 -116.5t-67 -124.5t-79 -104.5t-127 -138t-135.5 -143.5l-146 -158h549z" glyph-name="two" horiz-adv-x="1107" unicode="2"/><glyph d="M807 756q102 -51 164.5 -138.5t62.5 -205.5q0 -188 -137 -313.5t-358 -125.5q-141 0 -260 54.5t-189 148.5q-16 25 2 43l125 121q25 25 45 0q106 -121 262 -121q113 0 178.5 59.5t65.5 149.5q0 86 -67.5 145.5t-213.5 63.5q-31 0 -30 31v145q0 31 32 31q137 4 195.5 58 t58.5 130q0 78 -62.5 125t-137.5 47q-145 0 -238 -119q-20 -25 -45 0l-125 119q-20 20 -2 43q70 94 181.5 148.5t238.5 54.5q178 0 303 -110.5t125 -280.5q0 -184 -174 -303z" glyph-name="three" horiz-adv-x="1126" unicode="3"/><glyph d="M1087 506q31 0 31 -31v-158q0 -31 -31 -30h-129v-256q0 -31 -30 -31h-209q-31 0 -31 31v256h-575q-31 0 -31 30v168q0 20 10 39l584 889q14 20 37 21h215q31 0 30 -31v-897h129zM688 506v524l-342 -524h342z" glyph-name="four" horiz-adv-x="1210" unicode="4"/><glyph d="M555 963q201 0 337 -139.5t136 -340.5q0 -231 -144.5 -369.5t-367.5 -138.5q-143 0 -253.5 63.5t-162.5 149.5q-14 25 9 39l149 107q25 18 45 -4q82 -109 213 -109q106 0 178 77t72 185q0 100 -74 175t-174 75q-115 0 -190 -82q-18 -20 -41 -12l-164 51q-27 8 -21 37 l179 680q6 27 32 27h607q31 0 30 -31v-160q0 -31 -30 -31h-449l-74 -284q56 35 158 35z" glyph-name="five" horiz-adv-x="1120" unicode="5"/><glyph d="M625 952q197 -20 328.5 -154t131.5 -333q0 -209 -145 -350.5t-356 -141.5t-356.5 141.5t-145.5 350.5q0 199 170 414l463 579q20 25 43 6l143 -123q25 -23 6 -43zM583.5 223q102.5 0 172 69.5t69.5 172.5q0 109 -69.5 179.5t-172 70.5t-172 -71t-69.5 -179 q0 -102 69.5 -172t172 -70z" glyph-name="six" horiz-adv-x="1167" unicode="6"/><glyph d="M991 1434q14 0 21.5 -8.5t3.5 -22.5l-543 -1372q-10 -31 -35 -31h-205q-14 0 -23 9t-3 22l473 1181h-567q-31 0 -31 31v160q0 31 31 31h878z" glyph-name="seven" horiz-adv-x="1079" unicode="7"/><glyph d="M589.5 -27q-198.5 0 -348 124t-149.5 329q0 131 67.5 232.5t178.5 152.5q-154 100 -154 279q0 150 112 255t294 105t293.5 -105.5t111.5 -254.5q0 -178 -153 -279q111 -51 178 -152.5t67 -232.5q0 -205 -149.5 -329t-348 -124zM590 911q72 0 120 48.5t48 116t-48 113.5 t-120 46t-120 -46t-48 -113.5t48 -116t120 -48.5zM590 219q98 0 163.5 58.5t65.5 156.5q0 102 -67.5 162.5t-161.5 60.5t-162 -60t-68 -163q0 -98 66 -156.5t164 -58.5z" glyph-name="eight" horiz-adv-x="1179" unicode="8"/><glyph d="M563 1450q211 0 356.5 -141.5t145.5 -350.5q0 -199 -170 -413l-463 -580q-20 -25 -43 -6l-143 123q-25 23 -6 43l282 346q-197 20 -329 154.5t-132 332.5q0 209 145.5 350.5t356.5 141.5zM563.5 709q102.5 0 172 70.5t69.5 178.5q0 102 -69.5 172t-172 70t-172 -69.5 t-69.5 -172.5q0 -109 69.5 -179t172 -70z" glyph-name="nine" horiz-adv-x="1146" unicode="9"/><glyph d="M242 717q-63 0 -106.5 43t-43.5 106q0 61 43 104.5t107 43.5q61 0 104 -43t43 -105q0 -63 -43 -106t-104 -43zM242 -27q-63 0 -106.5 43t-43.5 107q0 61 43 104t107 43q61 0 104 -43t43 -104q0 -63 -43 -106.5t-104 -43.5z" glyph-name="colon" horiz-adv-x="481" unicode=":"/><glyph d="M244 717q-63 0 -106.5 43t-43.5 106q0 61 43 104.5t107 43.5q61 0 104 -43t43 -105q0 -63 -43 -106t-104 -43zM247.5 270q65.5 0 109.5 -48t44 -134q0 -96 -54 -207.5t-142 -208.5l-70 43q78 115 88 256q-55 8 -93 50t-38 100q0 63 45 106t110.5 43z" glyph-name="semicolon" horiz-adv-x="483" unicode=";"/><glyph d="M899 985q14 8 25.5 1t11.5 -23v-168q0 -25 -23 -35l-544 -250l544 -250q23 -10 23 -35v-168q0 -16 -11.5 -23t-25.5 1l-754 377q-23 12 -22 34v127q0 23 22 35z" glyph-name="less" horiz-adv-x="1038" unicode="&lt;"/><glyph d="M860 846q31 0 31 -31v-139q0 -31 -31 -31h-696q-31 0 -31 31v139q0 31 31 31h696zM860 522q31 0 31 -30v-140q0 -31 -31 -30h-696q-31 0 -31 30v140q0 31 31 30h696z" glyph-name="equal" horiz-adv-x="1024" unicode="="/><glyph d="M180 985l754 -377q23 -12 22 -35v-127q0 -23 -22 -34l-754 -377q-16 -8 -26.5 -1t-10.5 23v168q0 25 23 35l545 250l-545 250q-23 10 -23 35v168q0 16 10.5 23t26.5 -1z" glyph-name="greater" horiz-adv-x="1079" unicode=">"/><glyph d="M545 1450q186 0 322.5 -109.5t136.5 -277.5q0 -141 -81 -235.5t-274 -190.5l-14 -178q-4 -31 -31 -31h-162q-27 0 -30 31l-19 289q-2 25 27 34q172 53 236.5 110.5t64.5 133.5q0 72 -59.5 113t-135.5 41q-137 0 -278 -123q-37 -33 -64 0l-98 121q-25 33 -2 61 q78 94 198 152.5t263 58.5zM524 270q61 0 104.5 -43t43.5 -104q0 -63 -43 -106.5t-105 -43.5q-63 0 -106 43t-43 107q0 61 43 104t106 43z" glyph-name="question" horiz-adv-x="1095" unicode="?"/><glyph d="M1192 1030l-37 -385q-12 -119 76 -119q115 0 115 226q0 219 -146.5 356t-353.5 137q-219 0 -377 -147.5t-158 -388.5q0 -231 156 -376t369 -145q150 0 268 76l170 -114q-80 -76 -192.5 -121t-235.5 -45q-195 0 -366 86t-279.5 255t-108.5 384q0 168 63.5 310t169 235.5 t240.5 144.5t281 51q297 0 508 -195.5t211 -504.5q0 -199 -101.5 -308.5t-253.5 -109.5q-123 0 -190 71q-80 -59 -193 -59q-158 0 -261 105.5t-103 259t103.5 259t260.5 105.5q133 0 222 -84l28 41h115zM827.5 530q75.5 0 124.5 51.5t49 127t-49 127t-124.5 51.5t-125 -51.5 t-49.5 -127t49.5 -127t125 -51.5z" glyph-name="at" horiz-adv-x="1658" unicode="@"/><glyph d="M1348 35q14 -35 -25 -35h-227q-27 0 -35 25l-82 243h-537l-82 -243q-8 -25 -34 -25h-228q-39 0 -24 35l497 1374q10 25 35 25h205q31 0 39 -25zM518 494h385l-192 575z" glyph-name="A" horiz-adv-x="1421" unicode="A"/><glyph d="M905 768q121 -31 203 -126t82 -228q0 -414 -528 -414h-488q-31 0 -31 31v1372q0 31 31 31h488q205 0 315 -103.5t110 -259.5q0 -109 -51 -190.5t-131 -112.5zM823 1036q0 150 -188 150h-211v-318h211q188 0 188 168zM670 248q240 0 239 196q0 94 -62.5 143.5t-176.5 49.5 h-246v-389h246z" glyph-name="B" horiz-adv-x="1273" unicode="B"/><glyph d="M1204 369l135 -146q20 -23 0 -43q-207 -207 -499 -207q-307 0 -522.5 214t-215.5 523.5t215 524.5t523 215q293 0 499 -207q20 -23 0 -43l-135 -145q-18 -23 -43 -2q-139 123 -323 123q-188 0 -317.5 -133.5t-129.5 -331.5q0 -197 129 -330t318 -133q184 0 323 123 q25 21 43 -2z" glyph-name="C" horiz-adv-x="1443" unicode="C"/><glyph d="M578 1434q356 0 553.5 -202t197.5 -515.5t-197.5 -515t-553.5 -201.5h-404q-31 0 -31 31v1372q0 31 31 31h404zM578 248q229 0 347.5 122t118.5 347t-118.5 347t-347.5 122h-154v-938h154z" glyph-name="D" horiz-adv-x="1421" unicode="D"/><glyph d="M930 248q31 0 31 -31v-186q0 -31 -31 -31h-756q-31 0 -31 31v1372q0 31 31 31h754q31 0 30 -31v-186q0 -31 -30 -31h-504v-324h473q31 0 31 -31v-186q0 -31 -31 -31h-473v-366h506z" glyph-name="E" horiz-adv-x="1093" unicode="E"/><glyph d="M909 1434q31 0 31 -31v-186q0 -31 -31 -31h-485v-324h459q31 0 30 -31v-186q0 -31 -30 -31h-459v-583q0 -31 -31 -31h-219q-31 0 -31 31v1372q0 31 31 31h735z" glyph-name="F" horiz-adv-x="1062" unicode="F"/><glyph d="M1475 803q31 0 30 -31v-121q0 -289 -179 -483.5t-478 -194.5q-313 0 -529.5 216.5t-216.5 527.5q0 305 215 519t523 214q293 0 499 -207q20 -23 0 -43l-135 -145q-18 -23 -43 -2q-139 123 -323 123q-188 0 -317.5 -132.5t-129.5 -326.5q0 -201 128 -335t327 -134 q174 0 278.5 91t110.5 228h-379q-31 0 -31 31v174q0 31 31 31h619z" glyph-name="G" horiz-adv-x="1597" unicode="G"/><glyph d="M1212 1434q31 0 31 -31v-1372q0 -31 -31 -31h-219q-31 0 -30 31v551h-539v-551q0 -31 -31 -31h-219q-31 0 -31 31v1372q0 31 31 31h219q31 0 31 -31v-574h539v574q0 31 30 31h219z" glyph-name="H" horiz-adv-x="1388" unicode="H"/><glyph d="M143 1403q0 31 31 31h219q31 0 31 -31v-1372q0 -31 -31 -31h-219q-31 0 -31 31v1372z" glyph-name="I" horiz-adv-x="567" unicode="I"/><glyph d="M213 324q16 23 45 2q2 -2 13.5 -9.5t15.5 -9.5t16 -9t18.5 -10t19.5 -9.5t21.5 -9.5t22.5 -7t25.5 -6t27 -3t29.5 -1q225 0 225 295v856q0 31 31 31h219q31 0 31 -31v-866q0 -283 -133 -419t-365 -136q-248 0 -373 147q-16 20 0 43z" glyph-name="J" horiz-adv-x="1116" unicode="J"/><glyph d="M1282 37q10 -16 5 -26.5t-23 -10.5h-260q-25 0 -37 18l-428 590l-115 -133v-444q0 -31 -31 -31h-219q-31 0 -31 31v1372q0 31 31 31h219q31 0 31 -31v-555l479 569q14 16 37 17h272q20 0 24.5 -11.5t-7.5 -25.5l-504 -576z" glyph-name="K" horiz-adv-x="1361" unicode="K"/><glyph d="M889 248q31 0 31 -31v-186q0 -31 -31 -31h-715q-31 0 -31 31v1372q0 31 31 31h219q31 0 31 -31v-1155h465z" glyph-name="L" horiz-adv-x="1021" unicode="L"/><glyph d="M1628 1434q31 0 31 -31v-1372q0 -31 -31 -31h-219q-31 0 -31 31v880l-26 -90l-316 -796q-8 -25 -37 -25h-194q-27 0 -37 25l-317 796l-27 92v-882q0 -31 -31 -31h-219q-31 0 -31 31v1372q0 31 31 31h246q29 0 37 -21l444 -1091l442 1091q8 20 37 21h248z" glyph-name="M" horiz-adv-x="1804" unicode="M"/><glyph d="M1264 1434q31 0 30 -31v-1372q0 -31 -30 -31h-252q-25 0 -37 20l-551 973v-962q0 -31 -31 -31h-219q-31 0 -31 31v1372q0 31 31 31h252q25 0 37 -21l551 -973v963q0 31 30 31h220z" glyph-name="N" horiz-adv-x="1437" unicode="N"/><glyph d="M840 -27q-305 0 -521.5 215t-216.5 522.5t216.5 523.5t521.5 216t521 -216t216 -523.5t-216 -522.5t-521 -215zM839.5 248q192.5 0 322.5 133t130 330q0 199 -130 332t-322.5 133t-322.5 -133.5t-130 -331.5q0 -197 130 -330t322.5 -133z" glyph-name="O" horiz-adv-x="1679" unicode="O"/><glyph d="M598 1434q248 0 384 -128t136 -339t-136 -340t-384 -129h-174v-467q0 -31 -31 -31h-219q-31 0 -31 31v1372q0 31 31 31h424zM592 748q113 0 185.5 51t72.5 168q0 115 -74 167t-184 52h-168v-438h168z" glyph-name="P" horiz-adv-x="1200" unicode="P"/><glyph d="M1444 287l121 -123q20 -20 0 -43l-148 -148q-20 -23 -43 0l-125 125q-182 -125 -409 -125q-305 0 -521.5 215t-216.5 522.5t216.5 523.5t521.5 216t521 -216t216 -523q0 -236 -133 -424zM840 248q113 0 211 51l-162 162q-23 23 -2 43l149 147q23 20 43 0l162 -162 q51 102 51 222q0 199 -130 332t-322.5 133t-322.5 -133.5t-130 -331.5q0 -197 130 -330t323 -133z" glyph-name="Q" horiz-adv-x="1679" unicode="Q"/><glyph d="M1143 37q23 -37 -21 -37h-233q-25 0 -37 20l-309 478h-119v-467q0 -31 -31 -31h-219q-31 0 -31 31v1372q0 31 31 31h424q248 0 384 -128t136 -339q0 -158 -77.5 -272.5t-223.5 -164.5zM424 1186v-438h168q113 0 185.5 51t72.5 168q0 115 -74 167t-184 52h-168z" glyph-name="R" horiz-adv-x="1251" unicode="R"/><glyph d="M410 1042q0 -68 69.5 -113.5t167.5 -79.5t196.5 -79t168 -139t69.5 -232q0 -193 -148.5 -308.5t-348.5 -115.5q-150 0 -283 64.5t-201 159.5q-16 23 2 43l123 133q20 25 45 2q160 -139 320 -139q92 0 154.5 46t62.5 122q0 59 -49 103t-124 71.5t-162 66.5t-161.5 83 t-124 126t-49.5 193q0 180 131 290.5t316 110.5q250 0 436 -190q20 -20 2 -43l-113 -138q-18 -25 -43 -6q-147 115 -274 115q-84 0 -133 -41.5t-49 -104.5z" glyph-name="S" horiz-adv-x="1173" unicode="S"/><glyph d="M1034 1434q31 0 31 -31v-186q0 -31 -31 -31h-309v-1155q0 -31 -31 -31h-219q-31 0 -31 31v1155h-311q-31 0 -31 31v186q0 31 31 31h901z" glyph-name="T" horiz-adv-x="1167" unicode="T"/><glyph d="M1190 1434q31 0 31 -31v-846q0 -276 -150.5 -430t-392.5 -154q-244 0 -394.5 154t-150.5 430v846q0 31 31 31h219q31 0 31 -31v-846q0 -150 69.5 -229.5t194.5 -79.5t193.5 80t68.5 229v846q0 31 31 31h219z" glyph-name="U" horiz-adv-x="1353" unicode="U"/><glyph d="M1081 1409q8 25 35 25h227q39 0 25 -35l-498 -1374q-10 -25 -39 -25h-204q-25 0 -35 25l-498 1374q-14 35 25 35h227q27 0 35 -25l350 -1044z" glyph-name="V" horiz-adv-x="1462" unicode="V"/><glyph d="M2183 1434q35 0 25 -35l-436 -1374q-10 -25 -39 -25h-217q-29 0 -35 25l-332 989l-332 -989q-10 -25 -35 -25h-217q-31 0 -37 25l-434 1374q-14 35 25 35h227q27 0 35 -25l297 -1040l334 1040q2 14 16 21q8 4 16 4h209q10 0 19 -4q8 -6 14 -21l334 -1040l301 1040 q6 25 35 25h227z" glyph-name="W" horiz-adv-x="2301" unicode="W"/><glyph d="M1241 37q20 -37 -20 -37h-232q-25 0 -37 20l-282 467l-283 -467q-12 -20 -37 -20h-231q-41 0 -21 37l422 696l-401 664q-20 37 20 37h232q25 0 37 -21l262 -432l262 432q12 20 37 21h231q41 0 21 -37l-402 -664z" glyph-name="X" horiz-adv-x="1339" unicode="X"/><glyph d="M1198 1434q41 0 21 -37l-420 -731v-635q0 -31 -31 -31h-219q-31 0 -31 31v641l-420 725q-20 37 21 37h231q25 0 37 -21l272 -479l273 479q12 20 37 21h229z" glyph-name="Y" horiz-adv-x="1318" unicode="Y"/><glyph d="M1090 248q31 0 30 -31v-186q0 -31 -30 -31h-947q-31 0 -30 31v196q0 18 12 37l674 922h-635q-31 0 -31 31v186q0 31 31 31h905q31 0 31 -31v-197q0 -18 -13 -37l-673 -921h676z" glyph-name="Z" horiz-adv-x="1232" unicode="Z"/><glyph d="M537 1526q31 0 30 -31v-160q0 -31 -30 -30h-134v-1350h134q31 0 30 -31v-160q0 -31 -30 -30h-383q-31 0 -31 30v1731q0 31 31 31h383z" glyph-name="bracketleft" horiz-adv-x="690" unicode="["/><glyph d="M70 1526h219q27 0 37 -25l671 -1732q12 -35 -24 -35h-219q-29 0 -37 24l-672 1733q-12 35 25 35z" glyph-name="backslash" horiz-adv-x="1042" unicode="\"/><glyph d="M154 1526h383q31 0 30 -31v-1731q0 -31 -30 -30h-383q-31 0 -31 30v160q0 31 31 31h133v1350h-133q-31 0 -31 30v160q0 31 31 31z" glyph-name="bracketright" horiz-adv-x="690" unicode="]"/><glyph d="M1077 657q8 -14 1 -25t-23 -11h-168q-25 0 -35 22l-250 545l-250 -545q-10 -23 -35 -22h-167q-16 0 -23.5 11t0.5 25l377 754q12 23 35 23h127q23 0 34 -23z" glyph-name="asciicircum" horiz-adv-x="1204" unicode="^"/><glyph d="M1116 0q31 0 31 -31v-159q0 -31 -31 -31h-962q-31 0 -31 31v159q0 31 31 31h962z" glyph-name="underscore" horiz-adv-x="1269" unicode="_"/><glyph d="M106 1491h185q25 0 35 -25l123 -258q16 -35 -25 -34h-184q-25 0 -35 24l-123 258q-17 35 24 35z" glyph-name="grave" horiz-adv-x="483" unicode="`"/><glyph d="M1104 1004q31 0 31 -31v-942q0 -31 -31 -31h-178q-27 0 -31 31l-12 98q-113 -143 -303 -143q-211 0 -349.5 148.5t-138.5 365.5q0 221 138.5 372.5t349.5 151.5q188 0 305 -154l10 103q4 31 31 31h178zM610.5 231q112.5 0 184 77t71.5 193.5t-71.5 196.5t-184 80 t-185.5 -77.5t-73 -198.5q0 -117 73 -194t185.5 -77z" glyph-name="a" unicode="a"/><glyph d="M678 1024q211 0 349 -151.5t138 -372.5q0 -217 -138 -365.5t-349 -148.5q-190 0 -303 143l-13 -98q-4 -31 -30 -31h-178q-31 0 -31 31v1433q0 31 31 31h208q31 0 31 -31v-569q113 129 285 129zM647.5 231q112.5 0 185 77t72.5 194q0 121 -72.5 198.5t-185 77.5 t-184.5 -80t-72 -196.5t72 -193.5t184.5 -77z" glyph-name="b" unicode="b"/><glyph d="M610 236q115 0 215 90q25 20 45 0l125 -119q20 -20 2 -43q-156 -178 -393 -178q-215 0 -363.5 151.5t-148.5 368.5t148.5 367.5t363.5 150.5q231 0 387 -178q18 -23 -2 -43l-125 -121q-20 -20 -45 2q-100 90 -209 90q-113 0 -185.5 -76.5t-72.5 -191.5t72.5 -192.5 t185.5 -77.5z" glyph-name="c" horiz-adv-x="1087" unicode="c"/><glyph d="M1104 1495q31 0 31 -31v-1433q0 -31 -31 -31h-178q-27 0 -31 31l-12 98q-113 -143 -303 -143q-211 0 -349.5 148.5t-138.5 365.5q0 221 138.5 372.5t349.5 151.5q172 0 284 -129v569q0 31 31 31h209zM610.5 231q112.5 0 184 77t71.5 193.5t-71.5 196.5t-184 80 t-185.5 -77.5t-73 -198.5q0 -117 73 -194t185.5 -77z" glyph-name="d" unicode="d"/><glyph d="M1075 528q0 -66 -14 -93t-57 -27h-644q23 -96 96.5 -149.5t190.5 -53.5q115 0 213 69q27 16 45 -2l90 -88q20 -20 -2 -45q-154 -154 -372 -153q-231 0 -380 150.5t-149 369.5t144.5 368.5t361.5 149.5q213 0 345 -144.5t132 -351.5zM600 793q-94 0 -159.5 -54.5 t-84.5 -154.5h480q-14 98 -79 153.5t-157 55.5z" glyph-name="e" horiz-adv-x="1167" unicode="e"/><glyph d="M899 1346q14 -14 -2 -29l-104 -103q-14 -12 -29 -4q-92 55 -156 56q-70 0 -93 -32t-23 -95v-135h202q31 0 31 -31v-160q0 -31 -31 -31h-202v-751q0 -31 -31 -31h-209q-31 0 -31 31v751h-119q-31 0 -30 31v160q0 31 30 31h119v170q0 166 94.5 249.5t259.5 83.5 q195 1 324 -161z" glyph-name="f" horiz-adv-x="886" unicode="f"/><glyph d="M1108 1004q31 0 31 -31v-963q0 -115 -49.5 -198.5t-129 -128.5t-167.5 -67t-181 -22q-254 0 -432 123q-20 14 -8 41l68 123q16 27 41 13q137 -76 309 -76q70 0 133 17.5t114.5 67.5t51.5 128v110q-127 -147 -311 -147q-209 0 -347.5 150.5t-138.5 365.5t138.5 365.5 t347.5 150.5q180 0 305 -143l6 90q4 31 31 31h188zM610 240q109 0 182.5 81.5t73.5 190.5t-73.5 188.5t-182.5 79.5q-111 0 -184.5 -77.5t-73.5 -190.5q0 -115 73.5 -193.5t184.5 -78.5z" glyph-name="g" horiz-adv-x="1261" unicode="g"/><glyph d="M711 1026q158 0 260 -113.5t102 -310.5v-571q0 -31 -31 -31h-208q-31 0 -31 31v522q0 117 -53.5 170t-135.5 53q-100 0 -160.5 -72.5t-60.5 -123.5v-549q0 -31 -31 -31h-208q-31 0 -31 31v1433q0 31 31 31h208q31 0 31 -31v-624q115 186 318 186z" glyph-name="h" horiz-adv-x="1196" unicode="h"/><glyph d="M272 1194q-63 0 -106 44t-43 105.5t43 105.5t106 44q61 0 104.5 -44t43.5 -105.5t-43.5 -105.5t-104.5 -44zM135 973q0 31 31 31h209q31 0 31 -31v-942q0 -31 -31 -31h-209q-31 0 -31 31v942z" glyph-name="i" horiz-adv-x="542" unicode="i"/><glyph d="M403 1194q-63 0 -106 44t-43 105.5t43 105.5t106 44q61 0 104.5 -44t43.5 -105.5t-43.5 -105.5t-104.5 -44zM301 1004h209q31 0 31 -31v-953q0 -205 -109.5 -312t-298.5 -114q-20 0 -24 17l-66 213q-8 23 14 22q92 6 152.5 60.5t60.5 163.5v903q0 31 31 31z" glyph-name="j" horiz-adv-x="675" unicode="j"/><glyph d="M1110 37q10 -16 5 -26.5t-23 -10.5h-226q-25 0 -37 18l-297 394l-139 -148v-233q0 -31 -31 -31h-208q-31 0 -31 31v1433q0 31 31 31h208q31 0 31 -31v-874l369 397q14 16 37 17h235q20 0 25.5 -11.5t-8.5 -25.5l-355 -379z" glyph-name="k" horiz-adv-x="1179" unicode="k"/><glyph d="M123 1464q0 31 31 31h208q31 0 31 -31v-1433q0 -31 -31 -31h-208q-31 0 -31 31v1433z" glyph-name="l" horiz-adv-x="518" unicode="l"/><glyph d="M1374 1026q168 0 272.5 -113.5t104.5 -310.5v-571q0 -31 -31 -31h-209q-31 0 -30 31v522q0 117 -53.5 170t-133.5 53q-102 0 -161.5 -63.5t-59.5 -128.5v-553q0 -31 -31 -31h-208q-31 0 -31 31v522q0 117 -53.5 170t-135.5 53q-100 0 -160.5 -72.5t-60.5 -123.5v-549 q0 -31 -31 -31h-208q-31 0 -31 31v942q0 31 31 31h200q27 0 31 -31l8 -131v-2q115 186 318 186q211 0 309 -186q123 186 354 186z" glyph-name="m" horiz-adv-x="1873" unicode="m"/><glyph d="M711 1026q158 0 260 -113.5t102 -310.5v-571q0 -31 -31 -31h-208q-31 0 -31 31v522q0 117 -53.5 170t-135.5 53q-100 0 -160.5 -72.5t-60.5 -123.5v-549q0 -31 -31 -31h-208q-31 0 -31 31v942q0 31 31 31h200q27 0 31 -31l8 -131v-2q115 186 318 186z" glyph-name="n" horiz-adv-x="1196" unicode="n"/><glyph d="M612 -20q-217 0 -368.5 152.5t-151.5 369.5q0 219 151.5 371.5t368.5 152.5t369 -152.5t152 -371.5q0 -217 -152 -369.5t-369 -152.5zM612 229q109 0 184.5 78t75.5 195q0 119 -75.5 196.5t-184.5 77.5q-111 0 -185.5 -77.5t-74.5 -196.5q0 -117 74.5 -195t185.5 -78z " glyph-name="o" horiz-adv-x="1224" unicode="o"/><glyph d="M678 1024q211 0 349 -151.5t138 -372.5q0 -217 -138 -365.5t-349 -148.5q-174 0 -285 120v-464q0 -31 -31 -31h-208q-31 0 -31 31v1331q0 31 31 31h178q27 0 30 -31l11 -103q117 154 305 154zM647.5 231q112.5 0 185 77t72.5 194q0 121 -72.5 198.5t-185 77.5t-184.5 -80 t-72 -196.5t72 -193.5t184.5 -77z" glyph-name="p" unicode="p"/><glyph d="M1104 1004q31 0 31 -31v-1331q0 -31 -31 -31h-209q-31 0 -31 31v464q-111 -121 -284 -120q-211 0 -349.5 148.5t-138.5 365.5q0 221 138.5 372.5t349.5 151.5q188 0 305 -154l10 103q4 31 31 31h178zM610.5 231q112.5 0 184 77t71.5 193.5t-71.5 196.5t-184 80 t-185.5 -77.5t-73 -198.5q0 -117 73 -194t185.5 -77z" glyph-name="q" unicode="q"/><glyph d="M782 979q20 -16 11 -41l-62 -152q-10 -31 -45 -20q-47 14 -84 14q-94 0 -151.5 -61.5t-57.5 -155.5v-532q0 -31 -31 -31h-208q-31 0 -31 31v942q0 31 31 31h198q27 0 31 -31l8 -111q90 164 256 164q80 0 135 -47z" glyph-name="r" horiz-adv-x="825" unicode="r"/><glyph d="M369 723q0 -37 35.5 -63.5t90 -40t118 -38t117.5 -54t90 -92t36 -148.5q0 -137 -116.5 -222t-266.5 -85q-121 0 -222 49t-161 118q-16 18 0 41l80 113q16 20 45 -2q145 -92 250 -92q129 0 129 84q0 43 -50 72.5t-121 52t-142.5 53.5t-121.5 94.5t-50 157.5q0 139 102 222 t246 83q215 0 344 -152q16 -20 -2 -43l-78 -102q-16 -20 -45 2q-119 78 -197 78q-47 0 -78.5 -23.5t-31.5 -62.5z" glyph-name="s" horiz-adv-x="937" unicode="s"/><glyph d="M700 1004q31 0 31 -31v-160q0 -31 -31 -31h-163v-751q0 -31 -31 -31h-209q-31 0 -31 31v751h-164q-31 0 -30 31v160q0 31 30 31h164v276q0 31 31 31h209q31 0 31 -31v-276h163z" glyph-name="t" horiz-adv-x="804" unicode="t"/><glyph d="M1032 1004q31 0 31 -31v-942q0 -31 -31 -31h-201q-27 0 -30 31l-8 112q-121 -170 -299 -170q-172 0 -276.5 113t-104.5 311v576q0 31 30 31h209q31 0 31 -31v-527q0 -115 55.5 -169t136.5 -54q98 0 158 64.5t60 130.5v555q0 31 30 31h209z" glyph-name="u" horiz-adv-x="1185" unicode="u"/><glyph d="M838 979q10 25 36 25h211q37 0 25 -35l-375 -944q-10 -25 -37 -25h-209q-27 0 -36 25l-377 944q-12 35 24 35h211q29 0 37 -25l246 -664z" glyph-name="v" horiz-adv-x="1187" unicode="v"/><glyph d="M1786 1004q37 0 24 -35l-350 -944q-10 -25 -37 -25h-202q-29 0 -37 25l-240 626l-239 -626q-8 -25 -37 -25h-205q-29 0 -37 25l-350 944q-12 35 24 35h205q27 0 37 -25l231 -666l238 666q6 18 20 20q8 4 17 5h192q8 0 17 -5q14 -2 20 -20l240 -666l227 666q8 25 37 25 h205z" glyph-name="w" horiz-adv-x="1888" unicode="w"/><glyph d="M1063 37q10 -16 4 -26.5t-25 -10.5h-237q-23 0 -37 20l-186 289l-187 -289q-14 -20 -37 -20h-237q-18 0 -24.5 10t3.5 27l328 477l-311 453q-10 16 -4 26.5t24 10.5h238q23 0 37 -21l170 -264l170 264q14 20 36 21h238q18 0 24.5 -10.5t-3.5 -26.5l-312 -453z" glyph-name="x" horiz-adv-x="1163" unicode="x"/><glyph d="M1090 1004q37 0 24 -35l-530 -1334q-10 -25 -37 -24h-205q-41 0 -25 35l146 352l-387 971q-12 35 24 35h211q29 0 37 -25l246 -664l244 664q10 25 36 25h216z" glyph-name="y" horiz-adv-x="1191" unicode="y"/><glyph d="M930 973v-168q0 -25 -15 -39l-507 -545h491q31 0 31 -31v-159q0 -31 -31 -31h-786q-31 0 -31 31v168q0 25 14 39l510 544h-493q-31 0 -31 31v160q0 31 31 31h786q31 0 31 -31z" glyph-name="z" horiz-adv-x="1013" unicode="z"/><glyph d="M602 1526q31 0 31 -31v-160q0 -31 -31 -30h-41q-72 0 -72 -66v-453q0 -18 -12 -36l-74 -101q-14 -23 0 -43l74 -98q12 -18 12 -37v-451q0 -66 72 -65h41q31 0 31 -31v-160q0 -31 -31 -30h-194q-80 0 -139.5 47t-59.5 153v527q0 23 -10 39l-68 106q-12 23 -2 41l70 111 q10 18 10 39v528q0 106 59.5 153.5t139.5 47.5h194z" glyph-name="braceleft" horiz-adv-x="755" unicode="{"/><glyph d="M133 1608q0 31 31 30h219q31 0 31 -30v-1966q0 -31 -31 -31h-219q-31 0 -31 31v1966z" glyph-name="bar" horiz-adv-x="546" unicode="|"/><glyph d="M98 1526h195q80 0 139.5 -47t59.5 -154v-528q0 -20 10 -39l69 -111q10 -18 -2 -41l-67 -106q-10 -16 -10 -39v-527q0 -106 -59.5 -153t-139.5 -47h-195q-31 0 -30 30v160q0 31 30 31h41q72 0 72 65v451q0 18 12 37l74 98q14 20 0 43l-74 101q-12 18 -12 36v453 q0 66 -72 66h-41q-31 0 -30 30v160q-1 31 30 31z" glyph-name="braceright" horiz-adv-x="700" unicode="}"/><glyph d="M358 748q76 0 141.5 -40t121 -79t104.5 -39q74 0 100 65q10 18 25 19h68q23 0 22 -23q-2 -111 -68.5 -170t-166.5 -59q-76 0 -141.5 40t-120 79t-103.5 39q-80 0 -104 -64q-6 -18 -25 -18h-66q-27 0 -22 28q14 111 76.5 166.5t158.5 55.5z" glyph-name="asciitilde" horiz-adv-x="1062" unicode="~"/><glyph d="M313 1092q61 0 104.5 -43t43.5 -107q0 -61 -43 -104t-105 -43q-63 0 -106 43t-43 104q0 63 43 106.5t106 43.5zM459 -215q8 -76 -36 -123t-111.5 -47t-110.5 47t-35 123l72 823q2 29 30 29h90q29 0 31 -29z" glyph-name="exclamdown" horiz-adv-x="518" unicode="¡"/><glyph d="M995 356q20 -20 2 -43q-125 -141 -311 -168v-196q0 -31 -31 -31h-120q-31 0 -31 31v201q-180 35 -296 174t-116 325.5t116 324.5t296 173v256q0 31 31 31h120q31 0 31 -31v-252q180 -27 305 -168q18 -23 -2 -43l-125 -119q-20 -20 -45 2q-68 59 -133 78v-508 q72 18 139 80q25 20 45 0zM352 649q0 -82 41 -147.5t111 -93.5v483q-70 -29 -111 -94.5t-41 -147.5z" glyph-name="cent" horiz-adv-x="1067" unicode="¢"/><glyph d="M647 1176q-78 0 -129 -46.5t-51 -128.5q0 -25 4 -47t14.5 -45.5t17.5 -37t23.5 -41l22.5 -37.5h434q31 0 31 -31v-189q0 -31 -31 -30h-358v-13q0 -154 -133 -282h534q31 0 31 -31v-186q0 -31 -31 -31h-866q-31 0 -31 31v217q217 109 221 295h-196q-31 0 -31 30v189 q0 31 31 31h90q-59 115 -60 243q0 178 130 296t311 118q231 0 444 -213q25 -25 -2 -59l-90 -121q-23 -31 -64 2q-82 68 -137 92.5t-129 24.5z" glyph-name="sterling" horiz-adv-x="1204" unicode="£"/><glyph d="M1079 975q0 -121 -57 -225l94 -95l-143 -141l-86 86q-119 -84 -266 -84q-141 0 -261 82l-84 -84l-143 141l90 90q-61 106 -61 230q0 127 63 235l-92 93l143 141l89 -88q117 78 256 78q141 0 260 -82l92 92l143 -141l-98 -99q61 -106 61 -229zM621 698q129 0 204.5 88 t75.5 188.5t-75.5 188.5t-204.5 88q-127 0 -202 -88t-75 -188q0 -102 75 -189.5t202 -87.5z" glyph-name="currency" horiz-adv-x="1249" unicode="¤"/><glyph d="M1198 1434q41 0 21 -37l-418 -729h155q31 0 31 -31v-139q0 -31 -31 -31h-157v-84h157q31 0 31 -31v-139q0 -31 -31 -31h-157v-151q0 -31 -31 -31h-219q-31 0 -31 31v151h-176q-31 0 -31 31v139q0 31 31 31h176v84h-176q-31 0 -31 31v139q0 31 31 31h176v4l-420 725 q-20 37 21 37h231q25 0 37 -21l272 -479l273 479q12 20 37 21h229z" glyph-name="yen" horiz-adv-x="1298" unicode="¥"/><glyph d="M383 1638q31 0 31 -30v-574q0 -31 -31 -30h-219q-31 0 -31 30v574q0 31 31 30h219zM383 246q31 0 31 -31v-573q0 -31 -31 -31h-219q-31 0 -31 31v573q0 31 31 31h219z" glyph-name="brokenbar" horiz-adv-x="546" unicode="¦"/><glyph d="M1350 596q0 -236 -217 -350q-18 -178 -168 -279.5t-347 -101.5q-170 0 -307 67.5t-217 167.5q-23 29 0 58l94 127q23 31 64 0q96 -76 182 -113t189 -37q104 0 164.5 41t60.5 117q0 72 -75 118t-180.5 77.5t-212 73.5t-181 131t-74.5 225q0 121 58.5 212t158.5 142 q18 170 150.5 268t318.5 98q266 0 479 -213q23 -27 -2 -59l-92 -121q-20 -29 -63 2q-94 66 -163 94.5t-153 28.5q-92 0 -142 -40t-50 -103q0 -72 74.5 -118t181 -77t213 -71.5t181.5 -133t75 -231.5zM410 920q0 -72 74.5 -119t171 -70.5t213 -74t180.5 -121.5q14 27 14 65 q0 57 -47 97t-123 67t-159 52.5t-170 68.5t-138 100q-16 -28 -16 -65z" glyph-name="section" horiz-adv-x="1431" unicode="§"/><glyph d="M168 1169q-57 0 -97 40t-40 97.5t40 97.5t97 40q55 0 96 -40t41 -97.5t-41 -97.5t-96 -40zM610.5 1169q-55.5 0 -96.5 40t-41 97.5t41 97.5t96.5 40t96.5 -40t41 -97.5t-41 -97.5t-96.5 -40z" glyph-name="dieresis" horiz-adv-x="778" unicode="¨"/><glyph d="M682 279q-244 0 -417 172t-173 413.5t173 413.5t417 172t417 -172t173 -413.5t-173 -413.5t-417 -172zM682 438q176 0 298 124t122 302t-122 302t-298 124t-298 -124t-122 -302t122 -302t298 -124zM868 676q20 -25 -2 -43q-72 -61 -172 -62q-119 0 -205 85t-86 208 t86 208t205 85q98 0 174 -61q20 -18 0 -43l-51 -54q-14 -16 -41 -2q-37 18 -78 19q-63 0 -106 -44t-43 -107.5t43 -107.5t106 -44q37 0 78 18q29 12 41 -2z" glyph-name="copyright" horiz-adv-x="1363" unicode="©"/><glyph d="M649 1434h170v-736h-170l-16 60q-80 -59 -178 -60q-156 0 -264.5 108.5t-108.5 264.5t108.5 264.5t264.5 108.5q98 0 178 -60zM454.5 889q77.5 0 131 53t53.5 129t-53.5 130t-130.5 54q-76 0 -129.5 -53t-53.5 -131q0 -76 52.5 -129t130 -53z" glyph-name="ordfeminine" horiz-adv-x="903" unicode="ª"/><glyph d="M92 647q0 23 17 37l221 197q14 12 25.5 7t11.5 -26v-133q0 -23 -17 -37l-145 -123l145 -125q16 -14 17 -36v-132q0 -20 -11.5 -25t-25.5 7l-221 197q-16 14 -17 37v155zM434 647q0 23 17 37l221 197q14 12 25.5 7t11.5 -26v-133q0 -23 -17 -37l-145 -123l145 -125 q16 -14 17 -36v-132q0 -20 -11.5 -25t-25.5 7l-221 197q-16 14 -17 37v155z" glyph-name="guillemotleft" horiz-adv-x="800" unicode="«"/><glyph d="M958 639q31 0 31 -31v-313q0 -31 -31 -31h-204q-31 0 -31 31v123h-569q-31 0 -31 31v159q0 31 31 31h804z" glyph-name="logicalnot" horiz-adv-x="1112" unicode="¬"/><glyph d="M758 678q31 0 30 -31v-160q0 -31 -30 -30h-615q-31 0 -30 30v160q0 31 30 31h615z" glyph-name="uni00AD" horiz-adv-x="839" unicode="­"/><glyph d="M682 1450q244 0 417 -172t173 -413.5t-173 -413.5t-417 -172t-417 172t-173 413.5t173 413.5t417 172zM682 438q176 0 298 124t122 302t-122 302t-298 124t-298 -124t-122 -302t122 -302t298 -124zM817 768l146 -150q6 -8 3 -14t-12 -6h-125q-12 0 -20 8l-143 154h-84 v-146q0 -16 -15 -16h-108q-16 0 -17 16v500q0 16 17 16h276q104 0 167 -45t63 -139q-1 -147 -148 -178zM582 1014v-137h155q82 0 82 69q0 68 -82 68h-155z" glyph-name="registered" horiz-adv-x="1363" unicode="®"/><glyph d="M678 1434q31 0 31 -31v-150q0 -31 -31 -30h-617q-31 0 -30 30v150q0 31 30 31h617z" glyph-name="macron" horiz-adv-x="739" unicode="¯"/><glyph d="M426 1473q125 0 214 -88.5t89 -210.5q0 -125 -89 -214.5t-214 -89.5t-214 89.5t-89 214.5q0 123 89 211t214 88zM426 1307q-61 0 -97 -42t-36 -91q0 -51 34.5 -94.5t98 -43.5t98.5 43t35 95q0 49 -36 91t-97 42z" glyph-name="degree" horiz-adv-x="851" unicode="°"/><glyph d="M184 539q-31 0 -30 30v140q0 31 30 30h228v228q0 31 30 30h140q31 0 30 -30v-228h228q31 0 30 -30v-140q0 -31 -30 -30h-228v-228q0 -31 -30 -30h-140q-31 0 -30 30v228h-228zM860 201q31 0 31 -31v-139q0 -31 -31 -31h-696q-31 0 -31 31v139q0 31 31 31h696z" glyph-name="plusminus" horiz-adv-x="1024" unicode="±"/><glyph d="M236 1442q70 0 121 -46t51 -108q0 -53 -30 -96t-110 -125l-96 -100h242v-66h-344v66l139 141q57 59 74.5 78.5t32 46.5t14.5 55q0 37 -29 63.5t-65 26.5q-39 0 -68 -26.5t-29 -75.5v-29h-76v29q0 72 50.5 119t122.5 47z" glyph-name="uni00B2" horiz-adv-x="505" unicode="²"/><glyph d="M281 1440q66 0 114.5 -42t48.5 -98q0 -66 -61 -108q86 -37 86 -135q0 -70 -56.5 -117t-131.5 -47q-84 0 -138.5 55.5t-48.5 130.5h78q-8 -47 24.5 -84t84.5 -37q45 0 77.5 28t32.5 71q0 113 -151 92v63q129 6 129 88q0 31 -26 53.5t-62 22.5q-45 0 -72 -31.5t-23 -84.5 h-77q-6 78 45 129t127 51z" glyph-name="uni00B3" horiz-adv-x="561" unicode="³"/><glyph d="M377 1491q41 0 24 -35l-122 -258q-10 -25 -35 -24h-185q-41 0 -24 34l123 258q10 25 35 25h184z" glyph-name="acute" horiz-adv-x="436" unicode="´"/><glyph d="M1032 1004q31 0 31 -31v-942q0 -31 -31 -31h-201q-27 0 -30 31l-8 112q-121 -170 -299 -170q-61 0 -121 17v-348q0 -31 -31 -31h-209q-31 0 -31 31v1112h11v219q0 31 30 31h209q31 0 31 -31v-527q0 -115 55.5 -169t136.5 -54q98 0 158 64.5t60 130.5v555q0 31 30 31h209z " glyph-name="uni00B5" horiz-adv-x="1165" unicode="µ"/><glyph d="M602 1434h424q31 0 31 -31v-1372q0 -31 -31 -31h-219q-31 0 -31 31v467h-174q-248 0 -384 129t-136 340t136 339t384 128zM1251 1403q0 31 31 31h219q31 0 31 -31v-1372q0 -31 -31 -31h-219q-31 0 -31 31v1372zM608 748h168v438h-168q-111 0 -184.5 -52.5t-73.5 -166.5 q0 -117 72.5 -168t185.5 -51z" glyph-name="paragraph" horiz-adv-x="1654" unicode="¶"/><glyph d="M242 426q-63 0 -106.5 43t-43.5 106q0 61 43 104.5t107 43.5q61 0 104 -43t43 -105q0 -63 -43 -106t-104 -43z" glyph-name="periodcentered" horiz-adv-x="518" unicode="·"/><glyph d="M225 -68q74 -6 128.5 -51t54.5 -119q0 -127 -106.5 -178t-252.5 -28q-18 2 -18 22v94q0 20 22 21q170 -18 170 57q0 33 -48 46.5t-120 -9.5q-25 -10 -24 14v97q0 14 10 24l80 78h180z" glyph-name="cedilla" horiz-adv-x="438" unicode="¸"/><glyph d="M213 1436v-535h-76v461h-55v74h131z" glyph-name="uni00B9" horiz-adv-x="327" unicode="¹"/><glyph d="M454.5 698q-155.5 0 -264 108.5t-108.5 264.5t108.5 264.5t264 108.5t264 -108.5t108.5 -264.5t-108.5 -264.5t-264 -108.5zM454.5 889q77.5 0 131 53t53.5 129t-53.5 130t-130.5 54q-76 0 -129.5 -53t-53.5 -131q0 -76 52.5 -129t130 -53z" glyph-name="ordmasculine" horiz-adv-x="911" unicode="º"/><glyph d="M367 647v-155q0 -23 -17 -37l-221 -197q-14 -12 -25.5 -7t-11.5 25v132q0 23 17 36l145 125l-145 123q-16 14 -17 37v133q0 20 11.5 25.5t25.5 -6.5l221 -197q17 -14 17 -37zM709 647v-155q0 -23 -17 -37l-221 -197q-14 -12 -25.5 -7t-11.5 25v132q0 23 17 36l145 125 l-145 123q-16 14 -17 37v133q0 20 11.5 25.5t25.5 -6.5l221 -197q17 -14 17 -37z" glyph-name="guillemotright" horiz-adv-x="800" unicode="»"/><glyph d="M213 1436v-535h-76v461h-55v74h131zM1075 1434l-880 -1434h-99l893 1434h86zM1083 535v-316h56v-63h-56v-156h-75v156h-271l271 379h75zM1008 424l-144 -205h144v205z" glyph-name="onequarter" horiz-adv-x="1220" unicode="¼"/><glyph d="M213 1436v-535h-76v461h-55v74h131zM1075 1434l-880 -1434h-99l893 1434h86zM909 541q70 0 121 -46t51 -108q0 -53 -29.5 -96t-109.5 -125l-96 -100h241v-66h-344v66l140 141q57 59 74.5 78.5t32 46t14.5 55.5q0 37 -29 63.5t-66 26.5q-39 0 -67.5 -26.5t-28.5 -75.5v-29 h-76v29q0 72 50 119t122 47z" glyph-name="onehalf" horiz-adv-x="1169" unicode="½"/><glyph d="M268 1440q66 0 115 -42t49 -98q0 -66 -61 -108q86 -37 86 -135q0 -70 -56.5 -117t-132.5 -47q-84 0 -138 55.5t-48 130.5h78q-8 -47 24.5 -84t83.5 -37q45 0 78 28t33 71q0 113 -152 92v63q129 6 129 88q0 31 -25.5 53.5t-62.5 22.5q-45 0 -71.5 -31.5t-22.5 -84.5h-78 q-6 78 45 129t127 51zM1139 1434l-881 -1434h-98l893 1434h86zM1126 535v-316h56v-63h-56v-156h-75v156h-271l271 379h75zM1051 424l-144 -205h144v205z" glyph-name="threequarters" horiz-adv-x="1263" unicode="¾"/><glyph d="M571 795q-61 0 -104 43t-43 104q0 63 43 106.5t104 43.5q63 0 106.5 -43t43.5 -107q0 -61 -43.5 -104t-106.5 -43zM1010 -113q27 -33 2 -61q-78 -94 -198 -152.5t-263 -58.5q-186 0 -322.5 109.5t-136.5 277.5q0 141 81 235.5t273 190.5l15 178q4 31 31 31h161 q27 0 31 -31l18 -289q2 -25 -26 -34q-172 -53 -236.5 -110.5t-64.5 -133.5q0 -72 59.5 -113t134.5 -41q137 0 279 123q37 33 63 0z" glyph-name="questiondown" horiz-adv-x="1095" unicode="¿"/><glyph d="M569 1567l-123 258q-16 35 25 35h184q25 0 35 -25l123 -258q16 -35 -25 -35h-184q-25 0 -35 25zM1348 35q14 -35 -25 -35h-227q-27 0 -35 25l-82 243h-537l-82 -243q-8 -25 -34 -25h-228q-39 0 -24 35l497 1374q10 25 35 25h205q31 0 39 -25zM518 494h385l-192 575z" glyph-name="Agrave" horiz-adv-x="1421" unicode="À"/><glyph d="M635 1542q-41 0 -25 35l123 258q10 25 35 25h184q41 0 25 -35l-123 -258q-10 -25 -35 -25h-184zM1348 35q14 -35 -25 -35h-227q-27 0 -35 25l-82 243h-537l-82 -243q-8 -25 -34 -25h-228q-39 0 -24 35l497 1374q10 25 35 25h205q31 0 39 -25zM518 494h385l-192 575z" glyph-name="Aacute" horiz-adv-x="1421" unicode="Á"/><glyph d="M428 1585q-20 0 -25.5 11.5t7.5 25.5l196 221q14 16 37 17h156q23 0 37 -17l196 -221q12 -14 7 -25.5t-25 -11.5h-133q-23 0 -37 17l-123 145l-125 -145q-14 -16 -37 -17h-131zM1348 35q14 -35 -25 -35h-227q-27 0 -35 25l-82 243h-537l-82 -243q-8 -25 -34 -25h-228 q-39 0 -24 35l497 1374q10 25 35 25h205q31 0 39 -25zM518 494h385l-192 575z" glyph-name="Acircumflex" horiz-adv-x="1421" unicode="Â"/><glyph d="M371 1675q-20 0 -21 27q8 98 66.5 150.5t148.5 52.5q68 0 127.5 -36t109.5 -72t95 -36q70 0 94 58q6 16 23 16h59q20 0 21 -20q-6 -102 -65.5 -154.5t-149.5 -52.5q-68 0 -127.5 35.5t-109.5 70.5t-95 35q-70 0 -94 -57q-6 -16 -23 -17h-59zM1348 35q14 -35 -25 -35h-227 q-27 0 -35 25l-82 243h-537l-82 -243q-8 -25 -34 -25h-228q-39 0 -24 35l497 1374q10 25 35 25h205q31 0 39 -25zM518 494h385l-192 575z" glyph-name="Atilde" horiz-adv-x="1421" unicode="Ã"/><glyph d="M500 1599q-57 0 -97.5 40t-40.5 97.5t40 97.5t98 40q55 0 96 -40t41 -97.5t-41 -97.5t-96 -40zM942 1599q-55 0 -96 40t-41 97.5t41 97.5t96 40t96 -40t41 -97.5t-41 -97.5t-96 -40zM1348 35q14 -35 -25 -35h-227q-27 0 -35 25l-82 243h-537l-82 -243q-8 -25 -34 -25 h-228q-39 0 -24 35l497 1374q10 25 35 25h205q31 0 39 -25zM518 494h385l-192 575z" glyph-name="Adieresis" horiz-adv-x="1421" unicode="Ä"/><glyph d="M723 1536q-86 0 -147.5 60.5t-61.5 142.5q0 84 61.5 144.5t147.5 60.5q82 0 142.5 -61.5t60.5 -143.5t-60.5 -142.5t-142.5 -60.5zM720.5 1790q-20.5 0 -34.5 -14.5t-14 -35t14 -34.5t34.5 -14t35 14t14.5 34.5t-14.5 35t-35 14.5zM1348 35q14 -35 -25 -35h-227 q-27 0 -35 25l-82 243h-537l-82 -243q-8 -25 -34 -25h-228q-39 0 -24 35l497 1374q10 25 35 25h205q31 0 39 -25zM518 494h385l-192 575z" glyph-name="Aring" horiz-adv-x="1421" unicode="Å"/><glyph d="M1624 248q31 0 31 -31v-186q0 -31 -31 -31h-756q-31 0 -30 31v264h-375l-111 -270q-10 -25 -35 -25h-229q-39 0 -25 35l605 1374q12 25 37 25h917q31 0 31 -31v-186q0 -31 -31 -31h-504v-324h473q31 0 31 -31v-186q0 -31 -31 -31h-473v-366h506zM561 535h277v669z" glyph-name="AE" horiz-adv-x="1767" unicode="Æ"/><glyph d="M1204 369l135 -146q20 -23 0 -43q-186 -186 -444 -205l-49 -43q74 -6 128 -51t54 -119q0 -127 -106.5 -178t-251.5 -28q-18 2 -19 22v94q0 20 23 21q170 -18 170 57q0 33 -48 46.5t-120 -9.5q-25 -10 -25 14v97q0 14 11 24l61 60q-266 41 -443.5 246.5t-177.5 482.5 q0 309 215 524t523 215q293 0 499 -207q20 -23 0 -43l-135 -145q-18 -23 -43 -2q-139 123 -323 123q-188 0 -317.5 -133.5t-129.5 -331.5q0 -197 129 -330t318 -133q184 0 323 123q25 21 43 -2z" glyph-name="Ccedilla" horiz-adv-x="1443" unicode="Ç"/><glyph d="M309 1860h185q25 0 34 -25l123 -258q16 -35 -24 -35h-185q-25 0 -34 25l-123 258q-17 35 24 35zM930 248q31 0 31 -31v-186q0 -31 -31 -31h-756q-31 0 -31 31v1372q0 31 31 31h754q31 0 30 -31v-186q0 -31 -30 -31h-504v-324h473q31 0 31 -31v-186q0 -31 -31 -31h-473 v-366h506z" glyph-name="Egrave" horiz-adv-x="1093" unicode="È"/><glyph d="M791 1860q41 0 24 -35l-123 -258q-10 -25 -35 -25h-184q-41 0 -24 35l122 258q10 25 35 25h185zM930 248q31 0 31 -31v-186q0 -31 -31 -31h-756q-31 0 -31 31v1372q0 31 31 31h754q31 0 30 -31v-186q0 -31 -30 -31h-504v-324h473q31 0 31 -31v-186q0 -31 -31 -31h-473 v-366h506z" glyph-name="Eacute" horiz-adv-x="1093" unicode="É"/><glyph d="M637 1860q23 0 37 -17l196 -221q12 -14 7 -25.5t-25 -11.5h-133q-23 0 -37 17l-123 145l-125 -145q-14 -16 -37 -17h-131q-20 0 -25 11.5t7 25.5l196 221q14 16 37 17h156zM930 248q31 0 31 -31v-186q0 -31 -31 -31h-756q-31 0 -31 31v1372q0 31 31 31h754q31 0 30 -31 v-186q0 -31 -30 -31h-504v-324h473q31 0 31 -31v-186q0 -31 -31 -31h-473v-366h506z" glyph-name="Ecircumflex" horiz-adv-x="1093" unicode="Ê"/><glyph d="M338 1599q-57 0 -97 40t-40 97.5t40 97.5t97 40q55 0 96 -40t41 -97.5t-41 -97.5t-96 -40zM780.5 1599q-55.5 0 -96.5 40t-41 97.5t41 97.5t96.5 40t96.5 -40t41 -97.5t-41 -97.5t-96.5 -40zM930 248q31 0 31 -31v-186q0 -31 -31 -31h-756q-31 0 -31 31v1372q0 31 31 31 h754q31 0 30 -31v-186q0 -31 -30 -31h-504v-324h473q31 0 31 -31v-186q0 -31 -31 -31h-473v-366h506z" glyph-name="Edieresis" horiz-adv-x="1093" unicode="Ë"/><glyph d="M35 1860h184q25 0 35 -25l123 -258q16 -35 -25 -35h-184q-25 0 -35 25l-123 258q-16 35 25 35zM143 1403q0 31 31 31h219q31 0 31 -31v-1372q0 -31 -31 -31h-219q-31 0 -31 31v1372z" glyph-name="Igrave" horiz-adv-x="567" unicode="Ì"/><glyph d="M516 1860q41 0 25 -35l-123 -258q-10 -25 -35 -25h-184q-41 0 -25 35l123 258q10 25 35 25h184zM143 1403q0 31 31 31h219q31 0 31 -31v-1372q0 -31 -31 -31h-219q-31 0 -31 31v1372z" glyph-name="Iacute" horiz-adv-x="567" unicode="Í"/><glyph d="M362 1860q23 0 37 -17l197 -221q12 -14 7 -25.5t-25 -11.5h-134q-23 0 -36 17l-123 145l-125 -145q-14 -16 -37 -17h-131q-20 0 -25.5 11.5t6.5 25.5l197 221q14 16 37 17h155zM143 1403q0 31 31 31h219q31 0 31 -31v-1372q0 -31 -31 -31h-219q-31 0 -31 31v1372z" glyph-name="Icircumflex" horiz-adv-x="567" unicode="Î"/><glyph d="M63 1599q-57 0 -97 40t-40 97.5t40 97.5t97 40q55 0 96.5 -40t41.5 -97.5t-41.5 -97.5t-96.5 -40zM506 1599q-55 0 -96 40t-41 97.5t41 97.5t96 40t96 -40t41 -97.5t-41 -97.5t-96 -40zM143 1403q0 31 31 31h219q31 0 31 -31v-1372q0 -31 -31 -31h-219q-31 0 -31 31v1372 z" glyph-name="Idieresis" horiz-adv-x="567" unicode="Ï"/><glyph d="M594 1434q356 0 554 -202t198 -515.5t-198 -515t-554 -201.5h-404q-31 0 -30 31v569h-78q-31 0 -31 31v149q0 31 31 31h78v592q0 31 30 31h404zM594 248q229 0 348 122t119 347t-119 347t-348 122h-154v-375h258q31 0 31 -31v-149q0 -31 -31 -31h-258v-352h154z" glyph-name="Eth" horiz-adv-x="1437" unicode="Ð"/><glyph d="M369 1675q-20 0 -21 27q8 98 66.5 150.5t148.5 52.5q68 0 127.5 -36t109.5 -72t95 -36q70 0 94 58q6 16 23 16h59q20 0 21 -20q-6 -102 -65.5 -154.5t-149.5 -52.5q-68 0 -127.5 35.5t-109.5 70.5t-95 35q-70 0 -94 -57q-6 -16 -23 -17h-59zM1264 1434q31 0 30 -31v-1372 q0 -31 -30 -31h-252q-25 0 -37 20l-551 973v-962q0 -31 -31 -31h-219q-31 0 -31 31v1372q0 31 31 31h252q25 0 37 -21l551 -973v963q0 31 30 31h220z" glyph-name="Ntilde" horiz-adv-x="1437" unicode="Ñ"/><glyph d="M590 1860h184q25 0 35 -25l123 -258q16 -35 -25 -35h-184q-25 0 -35 25l-123 258q-16 35 25 35zM840 -27q-305 0 -521.5 215t-216.5 522.5t216.5 523.5t521.5 216t521 -216t216 -523.5t-216 -522.5t-521 -215zM839.5 248q192.5 0 322.5 133t130 330q0 199 -130 332 t-322.5 133t-322.5 -133.5t-130 -331.5q0 -197 130 -330t322.5 -133z" glyph-name="Ograve" horiz-adv-x="1679" unicode="Ò"/><glyph d="M1071 1860q41 0 25 -35l-123 -258q-10 -25 -35 -25h-184q-41 0 -25 35l123 258q10 25 35 25h184zM840 -27q-305 0 -521.5 215t-216.5 522.5t216.5 523.5t521.5 216t521 -216t216 -523.5t-216 -522.5t-521 -215zM839.5 248q192.5 0 322.5 133t130 330q0 199 -130 332 t-322.5 133t-322.5 -133.5t-130 -331.5q0 -197 130 -330t322.5 -133z" glyph-name="Oacute" horiz-adv-x="1679" unicode="Ó"/><glyph d="M918 1860q23 0 36 -17l197 -221q12 -14 7 -25.5t-25 -11.5h-134q-23 0 -36 17l-123 145l-125 -145q-14 -16 -37 -17h-131q-20 0 -25.5 11.5t6.5 25.5l197 221q14 16 37 17h156zM840 -27q-305 0 -521.5 215t-216.5 522.5t216.5 523.5t521.5 216t521 -216t216 -523.5 t-216 -522.5t-521 -215zM839.5 248q192.5 0 322.5 133t130 330q0 199 -130 332t-322.5 133t-322.5 -133.5t-130 -331.5q0 -197 130 -330t322.5 -133z" glyph-name="Ocircumflex" horiz-adv-x="1679" unicode="Ô"/><glyph d="M684 1905q68 0 127 -36t109.5 -72t95.5 -36q70 0 94 58q6 16 23 16h59q20 0 20 -20q-6 -102 -65.5 -154.5t-149.5 -52.5q-68 0 -127 35.5t-109 70.5t-95 35q-70 0 -95 -57q-6 -16 -22 -17h-60q-20 0 -20 27q8 98 66.5 150.5t148.5 52.5zM840 -27q-305 0 -521.5 215 t-216.5 522.5t216.5 523.5t521.5 216t521 -216t216 -523.5t-216 -522.5t-521 -215zM839.5 248q192.5 0 322.5 133t130 330q0 199 -130 332t-322.5 133t-322.5 -133.5t-130 -331.5q0 -197 130 -330t322.5 -133z" glyph-name="Otilde" horiz-adv-x="1679" unicode="Õ"/><glyph d="M618 1599q-57 0 -97 40t-40 97.5t40 97.5t97 40q55 0 96.5 -40t41.5 -97.5t-41.5 -97.5t-96.5 -40zM1061 1599q-55 0 -96 40t-41 97.5t41 97.5t96 40t96 -40t41 -97.5t-41 -97.5t-96 -40zM840 -27q-305 0 -521.5 215t-216.5 522.5t216.5 523.5t521.5 216t521 -216 t216 -523.5t-216 -522.5t-521 -215zM839.5 248q192.5 0 322.5 133t130 330q0 199 -130 332t-322.5 133t-322.5 -133.5t-130 -331.5q0 -197 130 -330t322.5 -133z" glyph-name="Odieresis" horiz-adv-x="1679" unicode="Ö"/><glyph d="M588 584l160 -162q23 -20 0 -43l-99 -98q-23 -20 -43 0l-162 159l-159 -159q-23 -18 -45 0l-99 98q-23 23 0 43l162 162l-162 159q-18 23 0 45l99 99q23 18 45 0l159 -162l162 162q20 20 43 0l99 -99q18 -23 0 -45z" glyph-name="multiply" horiz-adv-x="890" unicode="×"/><glyph d="M1247 1327q152 -102 241 -264t89 -352q0 -307 -216 -522.5t-521 -215.5q-102 0 -205 29l-39 -82q-10 -23 -35 -22h-203q-39 0 -22 36l80 172q-143 102 -228.5 261t-85.5 344q0 307 216.5 523t521.5 216q96 0 188 -25l35 78q10 23 35 23h202q39 0 23 -37zM387 711 q0 -211 148 -346l374 806q-45 4 -69 5q-193 0 -323 -133t-130 -332zM840 248q193 0 322.5 133t129.5 330q0 225 -162 360l-378 -815q39 -8 88 -8z" glyph-name="Oslash" horiz-adv-x="1658" unicode="Ø"/><glyph d="M428 1860h184q25 0 35 -25l123 -258q16 -35 -25 -35h-184q-25 0 -35 25l-123 258q-16 35 25 35zM1190 1434q31 0 31 -31v-846q0 -276 -150.5 -430t-392.5 -154q-244 0 -394.5 154t-150.5 430v846q0 31 31 31h219q31 0 31 -31v-846q0 -150 69.5 -229.5t194.5 -79.5 t193.5 80t68.5 229v846q0 31 31 31h219z" glyph-name="Ugrave" horiz-adv-x="1353" unicode="Ù"/><glyph d="M909 1860q41 0 25 -35l-123 -258q-10 -25 -35 -25h-184q-41 0 -25 35l123 258q10 25 35 25h184zM1190 1434q31 0 31 -31v-846q0 -276 -150.5 -430t-392.5 -154q-244 0 -394.5 154t-150.5 430v846q0 31 31 31h219q31 0 31 -31v-846q0 -150 69.5 -229.5t194.5 -79.5 t193.5 80t68.5 229v846q0 31 31 31h219z" glyph-name="Uacute" horiz-adv-x="1353" unicode="Ú"/><glyph d="M756 1860q23 0 37 -17l196 -221q12 -14 7 -25.5t-25 -11.5h-133q-23 0 -37 17l-123 145l-125 -145q-14 -16 -37 -17h-131q-20 0 -25.5 11.5t7.5 25.5l196 221q14 16 37 17h156zM1190 1434q31 0 31 -31v-846q0 -276 -150.5 -430t-392.5 -154q-244 0 -394.5 154t-150.5 430 v846q0 31 31 31h219q31 0 31 -31v-846q0 -150 69.5 -229.5t194.5 -79.5t193.5 80t68.5 229v846q0 31 31 31h219z" glyph-name="Ucircumflex" horiz-adv-x="1353" unicode="Û"/><glyph d="M457 1599q-57 0 -97.5 40t-40.5 97.5t40 97.5t98 40q55 0 96 -40t41 -97.5t-41 -97.5t-96 -40zM899 1599q-55 0 -96 40t-41 97.5t41 97.5t96 40t96 -40t41 -97.5t-41 -97.5t-96 -40zM1190 1434q31 0 31 -31v-846q0 -276 -150.5 -430t-392.5 -154q-244 0 -394.5 154 t-150.5 430v846q0 31 31 31h219q31 0 31 -31v-846q0 -150 69.5 -229.5t194.5 -79.5t193.5 80t68.5 229v846q0 31 31 31h219z" glyph-name="Udieresis" horiz-adv-x="1353" unicode="Ü"/><glyph d="M573 1542q-41 0 -24 35l123 258q10 25 35 25h184q41 0 24 -35l-122 -258q-10 -25 -35 -25h-185zM1198 1434q41 0 21 -37l-420 -731v-635q0 -31 -31 -31h-219q-31 0 -31 31v641l-420 725q-20 37 21 37h231q25 0 37 -21l272 -479l273 479q12 20 37 21h229z" glyph-name="Yacute" horiz-adv-x="1318" unicode="Ý"/><glyph d="M608 1184q252 0 386 -123t134 -344t-134 -344t-386 -123h-184v-219q0 -31 -31 -31h-219q-31 0 -31 31v1372q0 31 31 31h219q31 0 31 -31v-219h184zM590 498q131 0 200.5 49t69.5 170t-69.5 170t-200.5 49h-166v-438h166z" glyph-name="Thorn" horiz-adv-x="1200" unicode="Þ"/><glyph d="M883 748q139 -20 232 -107.5t93 -232.5q0 -219 -140 -313.5t-437 -94.5h-94q-31 0 -31 31v149q0 31 31 31h94q164 0 240.5 46t76.5 161q0 109 -84 150.5t-258 41.5h-69q-31 0 -31 31v150q0 31 31 30h69q260 0 260 205q0 78 -63.5 121t-169.5 43q-117 0 -173.5 -42 t-56.5 -140v-977q0 -31 -30 -31h-209q-31 0 -31 31v977q0 207 139.5 316.5t360.5 109.5q213 0 353 -99.5t140 -277.5q0 -133 -72.5 -215t-170.5 -94z" glyph-name="germandbls" horiz-adv-x="1280" unicode="ß"/><glyph d="M461 1137l-123 258q-16 35 24 35h185q25 0 35 -25l123 -258q16 -35 -25 -35h-184q-25 0 -35 25zM1104 1004q31 0 31 -31v-942q0 -31 -31 -31h-178q-27 0 -31 31l-12 98q-113 -143 -303 -143q-211 0 -349.5 148.5t-138.5 365.5q0 221 138.5 372.5t349.5 151.5 q188 0 305 -154l10 103q4 31 31 31h178zM610.5 231q112.5 0 184 77t71.5 193.5t-71.5 196.5t-184 80t-185.5 -77.5t-73 -198.5q0 -117 73 -194t185.5 -77z" glyph-name="agrave" unicode="à"/><glyph d="M526 1112q-41 0 -24 35l123 258q10 25 34 25h185q41 0 24 -35l-123 -258q-10 -25 -34 -25h-185zM1104 1004q31 0 31 -31v-942q0 -31 -31 -31h-178q-27 0 -31 31l-12 98q-113 -143 -303 -143q-211 0 -349.5 148.5t-138.5 365.5q0 221 138.5 372.5t349.5 151.5 q188 0 305 -154l10 103q4 31 31 31h178zM610.5 231q112.5 0 184 77t71.5 193.5t-71.5 196.5t-184 80t-185.5 -77.5t-73 -198.5q0 -117 73 -194t185.5 -77z" glyph-name="aacute" unicode="á"/><glyph d="M319 1155q-20 0 -25 11.5t7 25.5l197 221q14 16 37 17h155q23 0 37 -17l197 -221q12 -14 7 -25.5t-26 -11.5h-133q-23 0 -37 16l-123 146l-125 -146q-14 -16 -36 -16h-132zM1104 1004q31 0 31 -31v-942q0 -31 -31 -31h-178q-27 0 -31 31l-12 98q-113 -143 -303 -143 q-211 0 -349.5 148.5t-138.5 365.5q0 221 138.5 372.5t349.5 151.5q188 0 305 -154l10 103q4 31 31 31h178zM610.5 231q112.5 0 184 77t71.5 193.5t-71.5 196.5t-184 80t-185.5 -77.5t-73 -198.5q0 -117 73 -194t185.5 -77z" glyph-name="acircumflex" unicode="â"/><glyph d="M262 1245q-20 0 -20 27q8 98 66.5 150.5t148.5 52.5q68 0 127 -36t109 -72t95 -36q70 0 95 58q6 16 22 16h60q20 0 20 -21q-6 -102 -65.5 -154t-149.5 -52q-68 0 -127 35.5t-109.5 70.5t-95.5 35q-70 0 -94 -57q-6 -16 -22 -17h-60zM1104 1004q31 0 31 -31v-942 q0 -31 -31 -31h-178q-27 0 -31 31l-12 98q-113 -143 -303 -143q-211 0 -349.5 148.5t-138.5 365.5q0 221 138.5 372.5t349.5 151.5q188 0 305 -154l10 103q4 31 31 31h178zM610.5 231q112.5 0 184 77t71.5 193.5t-71.5 196.5t-184 80t-185.5 -77.5t-73 -198.5 q0 -117 73 -194t185.5 -77z" glyph-name="atilde" unicode="ã"/><glyph d="M391 1169q-57 0 -97 40t-40 97.5t40 97.5t97 40q55 0 96 -40t41 -97.5t-41 -97.5t-96 -40zM833.5 1169q-55.5 0 -96.5 40t-41 97.5t41 97.5t96.5 40t96.5 -40t41 -97.5t-41 -97.5t-96.5 -40zM1104 1004q31 0 31 -31v-942q0 -31 -31 -31h-178q-27 0 -31 31l-12 98 q-113 -143 -303 -143q-211 0 -349.5 148.5t-138.5 365.5q0 221 138.5 372.5t349.5 151.5q188 0 305 -154l10 103q4 31 31 31h178zM610.5 231q112.5 0 184 77t71.5 193.5t-71.5 196.5t-184 80t-185.5 -77.5t-73 -198.5q0 -117 73 -194t185.5 -77z" glyph-name="adieresis" unicode="ä"/><glyph d="M614 1106q-86 0 -147 60.5t-61 142.5q0 84 61 144t147 60q82 0 142.5 -61t60.5 -143t-60.5 -142.5t-142.5 -60.5zM612.5 1360q-20.5 0 -35 -14.5t-14.5 -35t14.5 -34.5t35 -14t35 14t14.5 34.5t-14.5 35t-35 14.5zM1104 1004q31 0 31 -31v-942q0 -31 -31 -31h-178 q-27 0 -31 31l-12 98q-113 -143 -303 -143q-211 0 -349.5 148.5t-138.5 365.5q0 221 138.5 372.5t349.5 151.5q188 0 305 -154l10 103q4 31 31 31h178zM610.5 231q112.5 0 184 77t71.5 193.5t-71.5 196.5t-184 80t-185.5 -77.5t-73 -198.5q0 -117 73 -194t185.5 -77z" glyph-name="aring" unicode="å"/><glyph d="M1858 528q0 -66 -14.5 -93t-57.5 -27h-643q23 -96 96.5 -149.5t190.5 -53.5q115 0 212 69q27 16 46 -2l90 -88q20 -20 -2 -45q-154 -154 -373 -153q-147 0 -268 65v-20q0 -31 -31 -31h-178q-27 0 -31 31l-12 98q-113 -143 -303 -143q-211 0 -349.5 148.5t-138.5 365.5 q0 221 138.5 372.5t349.5 151.5q188 0 305 -154l10 103q4 31 31 31h178q31 0 31 -31v-10q113 61 245 61q213 0 345.5 -144.5t132.5 -351.5zM1382 793q-94 0 -159.5 -54.5t-83.5 -154.5h479q-14 98 -79 153.5t-157 55.5zM610.5 231q112.5 0 184 77t71.5 193.5t-71.5 196.5 t-184 80t-185.5 -77.5t-73 -198.5q0 -117 73 -194t185.5 -77z" glyph-name="ae" horiz-adv-x="1929" unicode="æ"/><glyph d="M995 207q20 -20 2 -43q-135 -156 -340 -176l-63 -56q74 -6 128 -51t54 -119q0 -127 -106.5 -178t-251.5 -28q-18 2 -19 22v94q0 20 23 21q170 -18 170 57q0 33 -48 46.5t-120 -9.5q-25 -10 -25 14v97q0 14 11 24l77 76q-174 41 -284.5 182.5t-110.5 325.5 q0 217 148.5 367.5t363.5 150.5q231 0 387 -178q18 -23 -2 -43l-125 -121q-20 -20 -45 2q-100 90 -209 90q-113 0 -185.5 -76.5t-72.5 -191.5t73 -192.5t185 -77.5q115 0 215 90q25 20 45 0z" glyph-name="ccedilla" horiz-adv-x="1177" unicode="ç"/><glyph d="M434 1137l-123 258q-16 35 25 35h184q25 0 35 -25l123 -258q16 -35 -25 -35h-184q-25 0 -35 25zM1075 528q0 -66 -14 -93t-57 -27h-644q23 -96 96.5 -149.5t190.5 -53.5q115 0 213 69q27 16 45 -2l90 -88q20 -20 -2 -45q-154 -154 -372 -153q-231 0 -380 150.5 t-149 369.5t144.5 368.5t361.5 149.5q213 0 345 -144.5t132 -351.5zM600 793q-94 0 -159.5 -54.5t-84.5 -154.5h480q-14 98 -79 153.5t-157 55.5z" glyph-name="egrave" horiz-adv-x="1167" unicode="è"/><glyph d="M500 1112q-41 0 -25 35l123 258q10 25 35 25h184q41 0 25 -35l-123 -258q-10 -25 -35 -25h-184zM1075 528q0 -66 -14 -93t-57 -27h-644q23 -96 96.5 -149.5t190.5 -53.5q115 0 213 69q27 16 45 -2l90 -88q20 -20 -2 -45q-154 -154 -372 -153q-231 0 -380 150.5 t-149 369.5t144.5 368.5t361.5 149.5q213 0 345 -144.5t132 -351.5zM600 793q-94 0 -159.5 -54.5t-84.5 -154.5h480q-14 98 -79 153.5t-157 55.5z" glyph-name="eacute" horiz-adv-x="1167" unicode="é"/><glyph d="M293 1155q-20 0 -25.5 11.5t6.5 25.5l197 221q14 16 37 17h156q23 0 36 -17l197 -221q12 -14 7 -25.5t-25 -11.5h-134q-23 0 -36 16l-123 146l-125 -146q-14 -16 -37 -16h-131zM1075 528q0 -66 -14 -93t-57 -27h-644q23 -96 96.5 -149.5t190.5 -53.5q115 0 213 69 q27 16 45 -2l90 -88q20 -20 -2 -45q-154 -154 -372 -153q-231 0 -380 150.5t-149 369.5t144.5 368.5t361.5 149.5q213 0 345 -144.5t132 -351.5zM600 793q-94 0 -159.5 -54.5t-84.5 -154.5h480q-14 98 -79 153.5t-157 55.5z" glyph-name="ecircumflex" horiz-adv-x="1167" unicode="ê"/><glyph d="M365 1169q-57 0 -97.5 40t-40.5 97.5t40 97.5t98 40q55 0 96 -40t41 -97.5t-41 -97.5t-96 -40zM807 1169q-55 0 -96 40t-41 97.5t41 97.5t96 40t96 -40t41 -97.5t-41 -97.5t-96 -40zM1075 528q0 -66 -14 -93t-57 -27h-644q23 -96 96.5 -149.5t190.5 -53.5q115 0 213 69 q27 16 45 -2l90 -88q20 -20 -2 -45q-154 -154 -372 -153q-231 0 -380 150.5t-149 369.5t144.5 368.5t361.5 149.5q213 0 345 -144.5t132 -351.5zM600 793q-94 0 -159.5 -54.5t-84.5 -154.5h480q-14 98 -79 153.5t-157 55.5z" glyph-name="edieresis" horiz-adv-x="1167" unicode="ë"/><glyph d="M0 1430h184q25 0 35 -25l123 -258q16 -35 -25 -35h-184q-25 0 -35 25l-123 258q-16 35 25 35zM113 973q0 31 30 31h209q31 0 31 -31v-942q0 -31 -31 -31h-209q-31 0 -30 31v942z" glyph-name="igrave" horiz-adv-x="497" unicode="ì"/><glyph d="M481 1430q41 0 25 -35l-123 -258q-10 -25 -35 -25h-184q-41 0 -25 35l123 258q10 25 35 25h184zM113 973q0 31 30 31h209q31 0 31 -31v-942q0 -31 -31 -31h-209q-31 0 -30 31v942z" glyph-name="iacute" horiz-adv-x="497" unicode="í"/><glyph d="M328 1430q23 0 37 -17l196 -221q12 -14 7 -25.5t-25 -11.5h-133q-23 0 -37 16l-123 146l-125 -146q-14 -16 -37 -16h-131q-20 0 -25.5 11.5t7.5 25.5l196 221q14 16 37 17h156zM113 973q0 31 30 31h209q31 0 31 -31v-942q0 -31 -31 -31h-209q-31 0 -30 31v942z" glyph-name="icircumflex" horiz-adv-x="497" unicode="î"/><glyph d="M29 1169q-57 0 -97.5 40t-40.5 97.5t40 97.5t98 40q55 0 96 -40t41 -97.5t-41 -97.5t-96 -40zM471 1169q-55 0 -96 40t-41 97.5t41 97.5t96 40t96 -40t41 -97.5t-41 -97.5t-96 -40zM113 973q0 31 30 31h209q31 0 31 -31v-942q0 -31 -31 -31h-209q-31 0 -30 31v942z" glyph-name="idieresis" horiz-adv-x="497" unicode="ï"/><glyph d="M1153 1331q33 4 33 -28v-132q0 -29 -29 -32l-22 -2v-1106q0 -31 -31 -31h-178q-27 0 -31 31l-12 98q-113 -143 -303 -143q-211 0 -349.5 148.5t-138.5 365.5q0 221 138.5 372.5t349.5 151.5q172 0 284 -129v207l-157 -19q-33 -4 -33 29v131q0 29 28 33l162 20v168 q0 31 31 31h209q31 0 31 -31v-135zM610.5 231q112.5 0 184 77t71.5 193.5t-71.5 196.5t-184 80t-185.5 -77.5t-73 -198.5q0 -117 73 -194t185.5 -77z" glyph-name="eth" horiz-adv-x="1216" unicode="ð"/><glyph d="M248 1245q-20 0 -21 27q8 98 66.5 150.5t148.5 52.5q68 0 127.5 -36t109.5 -72t95 -36q70 0 94 58q6 16 23 16h59q20 0 21 -21q-6 -102 -65.5 -154t-149.5 -52q-68 0 -127.5 35.5t-109.5 70.5t-95 35q-70 0 -94 -57q-6 -16 -23 -17h-59zM711 1026q158 0 260 -113.5 t102 -310.5v-571q0 -31 -31 -31h-208q-31 0 -31 31v522q0 117 -53.5 170t-135.5 53q-100 0 -160.5 -72.5t-60.5 -123.5v-549q0 -31 -31 -31h-208q-31 0 -31 31v942q0 31 31 31h200q27 0 31 -31l8 -131v-2q115 186 318 186z" glyph-name="ntilde" horiz-adv-x="1196" unicode="ñ"/><glyph d="M362 1430h185q25 0 35 -25l123 -258q16 -35 -25 -35h-184q-25 0 -35 25l-123 258q-17 35 24 35zM612 -20q-217 0 -368.5 152.5t-151.5 369.5q0 219 151.5 371.5t368.5 152.5t369 -152.5t152 -371.5q0 -217 -152 -369.5t-369 -152.5zM612 229q109 0 184.5 78t75.5 195 q0 119 -75.5 196.5t-184.5 77.5q-111 0 -185.5 -77.5t-74.5 -196.5q0 -117 74.5 -195t185.5 -78z" glyph-name="ograve" horiz-adv-x="1224" unicode="ò"/><glyph d="M844 1430q41 0 24 -35l-123 -258q-10 -25 -34 -25h-185q-41 0 -24 35l123 258q10 25 34 25h185zM612 -20q-217 0 -368.5 152.5t-151.5 369.5q0 219 151.5 371.5t368.5 152.5t369 -152.5t152 -371.5q0 -217 -152 -369.5t-369 -152.5zM612 229q109 0 184.5 78t75.5 195 q0 119 -75.5 196.5t-184.5 77.5q-111 0 -185.5 -77.5t-74.5 -196.5q0 -117 74.5 -195t185.5 -78z" glyph-name="oacute" horiz-adv-x="1224" unicode="ó"/><glyph d="M690 1430q23 0 37 -17l197 -221q12 -14 7 -25.5t-26 -11.5h-133q-23 0 -37 16l-123 146l-125 -146q-14 -16 -36 -16h-132q-20 0 -25 11.5t7 25.5l197 221q14 16 37 17h155zM612 -20q-217 0 -368.5 152.5t-151.5 369.5q0 219 151.5 371.5t368.5 152.5t369 -152.5 t152 -371.5q0 -217 -152 -369.5t-369 -152.5zM612 229q109 0 184.5 78t75.5 195q0 119 -75.5 196.5t-184.5 77.5q-111 0 -185.5 -77.5t-74.5 -196.5q0 -117 74.5 -195t185.5 -78z" glyph-name="ocircumflex" horiz-adv-x="1224" unicode="ô"/><glyph d="M457 1475q68 0 127 -36t109 -72t95 -36q70 0 95 58q6 16 22 16h60q20 0 20 -21q-6 -102 -65.5 -154t-149.5 -52q-68 0 -127 35.5t-109.5 70.5t-95.5 35q-70 0 -94 -57q-6 -16 -22 -17h-60q-20 0 -20 27q8 98 66.5 150.5t148.5 52.5zM612 -20q-217 0 -368.5 152.5 t-151.5 369.5q0 219 151.5 371.5t368.5 152.5t369 -152.5t152 -371.5q0 -217 -152 -369.5t-369 -152.5zM612 229q109 0 184.5 78t75.5 195q0 119 -75.5 196.5t-184.5 77.5q-111 0 -185.5 -77.5t-74.5 -196.5q0 -117 74.5 -195t185.5 -78z" glyph-name="otilde" horiz-adv-x="1224" unicode="õ"/><glyph d="M391 1169q-57 0 -97 40t-40 97.5t40 97.5t97 40q55 0 96 -40t41 -97.5t-41 -97.5t-96 -40zM833.5 1169q-55.5 0 -96.5 40t-41 97.5t41 97.5t96.5 40t96.5 -40t41 -97.5t-41 -97.5t-96.5 -40zM612 -20q-217 0 -368.5 152.5t-151.5 369.5q0 219 151.5 371.5t368.5 152.5 t369 -152.5t152 -371.5q0 -217 -152 -369.5t-369 -152.5zM612 229q109 0 184.5 78t75.5 195q0 119 -75.5 196.5t-184.5 77.5q-111 0 -185.5 -77.5t-74.5 -196.5q0 -117 74.5 -195t185.5 -78z" glyph-name="odieresis" horiz-adv-x="1224" unicode="ö"/><glyph d="M512 752q-63 0 -106.5 43t-43.5 106q0 61 43.5 104.5t106.5 43.5q61 0 104 -43t43 -105q0 -63 -43 -106t-104 -43zM860 684q31 0 31 -31v-139q0 -31 -31 -31h-696q-31 0 -31 31v139q0 31 31 31h696zM512 84q-63 0 -106.5 43t-43.5 106q0 61 43.5 104.5t106.5 43.5 q61 0 104 -43t43 -105q0 -63 -43 -106t-104 -43z" glyph-name="divide" horiz-adv-x="1024" unicode="÷"/><glyph d="M909 934q102 -72 163 -185.5t61 -246.5q0 -217 -152 -369.5t-369 -152.5q-68 0 -123 14l-51 -115q-8 -23 -35 -22h-161q-39 0 -23 37l84 186q-98 74 -154.5 183.5t-56.5 238.5q0 219 151.5 371.5t368.5 152.5q51 0 109 -10l47 104q8 23 35 23h162q39 0 22 -37zM352 502 q0 -102 60 -178l202 452h-2q-111 0 -185.5 -77.5t-74.5 -196.5zM612 229q109 0 184.5 78t75.5 195q0 115 -69 190l-207 -463h16z" glyph-name="oslash" horiz-adv-x="1204" unicode="ø"/><glyph d="M436 1137l-123 258q-16 35 25 35h184q25 0 35 -25l123 -258q16 -35 -25 -35h-184q-25 0 -35 25zM1032 1004q31 0 31 -31v-942q0 -31 -31 -31h-201q-27 0 -30 31l-8 112q-121 -170 -299 -170q-172 0 -276.5 113t-104.5 311v576q0 31 30 31h209q31 0 31 -31v-527 q0 -115 55.5 -169t136.5 -54q98 0 158 64.5t60 130.5v555q0 31 30 31h209z" glyph-name="ugrave" horiz-adv-x="1185" unicode="ù"/><glyph d="M502 1112q-41 0 -25 35l123 258q10 25 35 25h184q41 0 25 -35l-123 -258q-10 -25 -35 -25h-184zM1032 1004q31 0 31 -31v-942q0 -31 -31 -31h-201q-27 0 -30 31l-8 112q-121 -170 -299 -170q-172 0 -276.5 113t-104.5 311v576q0 31 30 31h209q31 0 31 -31v-527 q0 -115 55.5 -169t136.5 -54q98 0 158 64.5t60 130.5v555q0 31 30 31h209z" glyph-name="uacute" horiz-adv-x="1185" unicode="ú"/><glyph d="M295 1155q-20 0 -25.5 11.5t6.5 25.5l197 221q14 16 37 17h156q23 0 36 -17l197 -221q12 -14 7 -25.5t-25 -11.5h-133q-23 0 -37 16l-123 146l-125 -146q-14 -16 -37 -16h-131zM1032 1004q31 0 31 -31v-942q0 -31 -31 -31h-201q-27 0 -30 31l-8 112q-121 -170 -299 -170 q-172 0 -276.5 113t-104.5 311v576q0 31 30 31h209q31 0 31 -31v-527q0 -115 55.5 -169t136.5 -54q98 0 158 64.5t60 130.5v555q0 31 30 31h209z" glyph-name="ucircumflex" horiz-adv-x="1185" unicode="û"/><glyph d="M367 1169q-57 0 -97.5 40t-40.5 97.5t40 97.5t98 40q55 0 96 -40t41 -97.5t-41 -97.5t-96 -40zM809 1169q-55 0 -96 40t-41 97.5t41 97.5t96 40t96 -40t41 -97.5t-41 -97.5t-96 -40zM1032 1004q31 0 31 -31v-942q0 -31 -31 -31h-201q-27 0 -30 31l-8 112 q-121 -170 -299 -170q-172 0 -276.5 113t-104.5 311v576q0 31 30 31h209q31 0 31 -31v-527q0 -115 55.5 -169t136.5 -54q98 0 158 64.5t60 130.5v555q0 31 30 31h209z" glyph-name="udieresis" horiz-adv-x="1185" unicode="ü"/><glyph d="M825 1430q41 0 25 -35l-123 -258q-10 -25 -35 -25h-184q-41 0 -25 35l123 258q10 25 35 25h184zM1090 1004q37 0 24 -35l-530 -1334q-10 -25 -37 -24h-205q-41 0 -25 35l146 352l-387 971q-12 35 24 35h211q29 0 37 -25l246 -664l244 664q10 25 36 25h216z" glyph-name="yacute" horiz-adv-x="1191" unicode="ý"/><glyph d="M686 1024q211 0 349.5 -151.5t138.5 -372.5q0 -217 -138.5 -365.5t-349.5 -148.5h-4h-4q-168 0 -277 112v-456q0 -31 -30 -31h-209q-31 0 -31 31v366q-8 8 -8 23v1433q0 31 31 31h208q31 0 31 -31v-569q113 129 285 129h4h4zM399 501.5q0 -114.5 71 -191.5t181 -79 q111 2 182.5 79t71.5 192q0 119 -71.5 196.5t-182.5 79.5q-111 -2 -181.5 -82t-70.5 -194.5z" glyph-name="thorn" horiz-adv-x="1249" unicode="þ"/><glyph d="M373 1169q-57 0 -97 40t-40 97.5t39.5 97.5t97.5 40q55 0 96 -40t41 -97.5t-41 -97.5t-96 -40zM815 1169q-55 0 -96 40t-41 97.5t41 97.5t96 40t96 -40t41 -97.5t-41 -97.5t-96 -40zM1090 1004q37 0 24 -35l-530 -1334q-10 -25 -37 -24h-205q-41 0 -25 35l146 352 l-387 971q-12 35 24 35h211q29 0 37 -25l246 -664l244 664q10 25 36 25h216z" glyph-name="ydieresis" horiz-adv-x="1191" unicode="ÿ"/><glyph d="M414 1649q-31 0 -31 30v150q0 31 31 31h616q31 0 31 -31v-150q0 -31 -31 -30h-616zM1348 35q14 -35 -25 -35h-227q-27 0 -35 25l-82 243h-537l-82 -243q-8 -25 -34 -25h-228q-39 0 -24 35l497 1374q10 25 35 25h205q31 0 39 -25zM518 494h385l-192 575z" glyph-name="Amacron" horiz-adv-x="1421" unicode="Ā"/><glyph d="M305 1219q-31 0 -31 30v150q0 31 31 31h617q31 0 30 -31v-150q0 -31 -30 -30h-617zM1104 1004q31 0 31 -31v-942q0 -31 -31 -31h-178q-27 0 -31 31l-12 98q-113 -143 -303 -143q-211 0 -349.5 148.5t-138.5 365.5q0 221 138.5 372.5t349.5 151.5q188 0 305 -154l10 103 q4 31 31 31h178zM610.5 231q112.5 0 184 77t71.5 193.5t-71.5 196.5t-184 80t-185.5 -77.5t-73 -198.5q0 -117 73 -194t185.5 -77z" glyph-name="amacron" unicode="ā"/><glyph d="M721 1571q-137 0 -222 73.5t-96 186.5q-2 31 29 31h105q23 0 32 -29q12 -45 51 -77t100.5 -32t101.5 32t52 77q6 29 33 29h103q31 0 28 -31q-10 -113 -95 -186.5t-222 -73.5zM1348 35q14 -35 -25 -35h-227q-27 0 -35 25l-82 243h-537l-82 -243q-8 -25 -34 -25h-228 q-39 0 -24 35l497 1374q10 25 35 25h205q31 0 39 -25zM518 494h385l-192 575z" glyph-name="Abreve" horiz-adv-x="1421" unicode="Ă"/><glyph d="M612.5 1141q-137.5 0 -222.5 73.5t-95 186.5q-4 31 29 31h104q23 0 33 -29q12 -45 51 -77t100.5 -32t101.5 32t52 77q6 29 33 29h102q33 0 29 -31q-10 -113 -95 -186.5t-222.5 -73.5zM1104 1004q31 0 31 -31v-942q0 -31 -31 -31h-178q-27 0 -31 31l-12 98 q-113 -143 -303 -143q-211 0 -349.5 148.5t-138.5 365.5q0 221 138.5 372.5t349.5 151.5q188 0 305 -154l10 103q4 31 31 31h178zM610.5 231q112.5 0 184 77t71.5 193.5t-71.5 196.5t-184 80t-185.5 -77.5t-73 -198.5q0 -117 73 -194t185.5 -77z" glyph-name="abreve" unicode="ă"/><glyph d="M1348 35q14 -35 -25 -35h-4q-86 0 -137.5 -49t-51.5 -109q0 -45 35 -69.5t103 -10.5v-168q-45 -20 -105.5 -21t-118 17.5t-96.5 70.5t-39 128q0 145 152 238l-82 241h-537l-82 -243q-8 -25 -34 -25h-228q-39 0 -24 35l497 1374q10 25 35 25h205q31 0 39 -25zM518 494h385 l-192 575z" glyph-name="Aogonek" horiz-adv-x="1421" unicode="Ą"/><glyph d="M1104 1004q31 0 31 -31v-942q0 -31 -31 -31h-29q-88 0 -138 -49t-50 -109q0 -45 34.5 -69.5t102.5 -10.5v-168q-45 -20 -105.5 -21t-118 17.5t-96 70.5t-38.5 128q0 94 64.5 165t160.5 112l-8 63q-113 -143 -303 -143q-211 0 -349.5 148.5t-138.5 365.5 q0 221 138.5 372.5t349.5 151.5q188 0 305 -154l10 103q4 31 31 31h178zM610.5 231q112.5 0 184 77t71.5 193.5t-71.5 196.5t-184 80t-185.5 -77.5t-73 -198.5q0 -117 73 -194t185.5 -77z" glyph-name="aogonek" horiz-adv-x="1241" unicode="ą"/><glyph d="M1057 1860q41 0 24 -35l-123 -258q-10 -25 -34 -25h-185q-41 0 -24 35l123 258q10 25 34 25h185zM1204 369l135 -146q20 -23 0 -43q-207 -207 -499 -207q-307 0 -522.5 214t-215.5 523.5t215 524.5t523 215q293 0 499 -207q20 -23 0 -43l-135 -145q-18 -23 -43 -2 q-139 123 -323 123q-188 0 -317.5 -133.5t-129.5 -331.5q0 -197 129 -330t318 -133q184 0 323 123q25 21 43 -2z" glyph-name="Cacute" horiz-adv-x="1443" unicode="Ć"/><glyph d="M868 1491q41 0 25 -35l-123 -258q-10 -25 -35 -24h-184q-41 0 -25 34l123 258q10 25 35 25h184zM610 236q115 0 215 90q25 20 45 0l125 -119q20 -20 2 -43q-156 -178 -393 -178q-215 0 -363.5 151.5t-148.5 368.5t148.5 367.5t363.5 150.5q231 0 387 -178q18 -23 -2 -43 l-125 -121q-20 -20 -45 2q-100 90 -209 90q-113 0 -185.5 -76.5t-72.5 -191.5t72.5 -192.5t185.5 -77.5z" glyph-name="cacute" horiz-adv-x="1177" unicode="ć"/><glyph d="M825 1599q-57 0 -97 40t-40 97.5t40 97.5t97 40q55 0 96.5 -40t41.5 -97.5t-41.5 -97.5t-96.5 -40zM1204 369l135 -146q20 -23 0 -43q-207 -207 -499 -207q-307 0 -522.5 214t-215.5 523.5t215 524.5t523 215q293 0 499 -207q20 -23 0 -43l-135 -145q-18 -23 -43 -2 q-139 123 -323 123q-188 0 -317.5 -133.5t-129.5 -331.5q0 -197 129 -330t318 -133q184 0 323 123q25 21 43 -2z" glyph-name="Cdotaccent" horiz-adv-x="1443" unicode="Ċ"/><glyph d="M618 1169q-57 0 -97 40t-40 97.5t40 97.5t97 40q55 0 96.5 -40t41.5 -97.5t-41.5 -97.5t-96.5 -40zM610 236q115 0 215 90q25 20 45 0l125 -119q20 -20 2 -43q-156 -178 -393 -178q-215 0 -363.5 151.5t-148.5 368.5t148.5 367.5t363.5 150.5q231 0 387 -178 q18 -23 -2 -43l-125 -121q-20 -20 -45 2q-100 90 -209 90q-113 0 -185.5 -76.5t-72.5 -191.5t72.5 -192.5t185.5 -77.5z" glyph-name="cdotaccent" horiz-adv-x="1177" unicode="ċ"/><glyph d="M903 1585h-155q-23 0 -37 17l-197 221q-12 14 -7 25.5t25 11.5h132q23 0 36 -17l125 -145l123 145q14 16 37 17h133q20 0 25.5 -11.5t-6.5 -25.5l-197 -221q-14 -17 -37 -17zM1204 369l135 -146q20 -23 0 -43q-207 -207 -499 -207q-307 0 -522.5 214t-215.5 523.5 t215 524.5t523 215q293 0 499 -207q20 -23 0 -43l-135 -145q-18 -23 -43 -2q-139 123 -323 123q-188 0 -317.5 -133.5t-129.5 -331.5q0 -197 129 -330t318 -133q184 0 323 123q25 21 43 -2z" glyph-name="Ccaron" horiz-adv-x="1443" unicode="Č"/><glyph d="M641 1159h-156q-23 0 -36 17l-197 221q-12 14 -7 25.5t25 11.5h131q23 0 37 -17l125 -145l123 145q14 16 37 17h133q20 0 25.5 -11.5t-7.5 -25.5l-196 -221q-14 -17 -37 -17zM610 236q115 0 215 90q25 20 45 0l125 -119q20 -20 2 -43q-156 -178 -393 -178 q-215 0 -363.5 151.5t-148.5 368.5t148.5 367.5t363.5 150.5q231 0 387 -178q18 -23 -2 -43l-125 -121q-20 -20 -45 2q-100 90 -209 90q-113 0 -185.5 -76.5t-72.5 -191.5t72.5 -192.5t185.5 -77.5z" glyph-name="ccaron" horiz-adv-x="1177" unicode="č"/><glyph d="M575 1602l-196 221q-12 14 -7 25.5t25 11.5h131q23 0 37 -17l125 -145l123 145q14 16 37 17h133q20 0 25.5 -11.5t-7.5 -25.5l-196 -221q-14 -16 -37 -17h-156q-23 1 -37 17zM578 1434q356 0 553.5 -202t197.5 -515.5t-197.5 -515t-553.5 -201.5h-404q-31 0 -31 31v1372 q0 31 31 31h404zM578 248q229 0 347.5 122t118.5 347t-118.5 347t-347.5 122h-154v-938h154z" glyph-name="Dcaron" horiz-adv-x="1421" unicode="Ď"/><glyph d="M1104 1495q31 0 31 -31v-1433q0 -31 -31 -31h-178q-27 0 -31 31l-12 98q-113 -143 -303 -143q-211 0 -349.5 148.5t-138.5 365.5q0 221 138.5 372.5t349.5 151.5q172 0 284 -129v569q0 31 31 31h209zM1550 1495q41 0 25 -35l-123 -258q-10 -25 -35 -24h-184q-41 0 -25 34 l123 258q10 25 35 25h184zM610.5 231q112.5 0 184 77t71.5 193.5t-71.5 196.5t-184 80t-185.5 -77.5t-73 -198.5q0 -117 73 -194t185.5 -77z" glyph-name="dcaron" horiz-adv-x="1576" unicode="ď"/><glyph d="M594 1434q356 0 554 -202t198 -515.5t-198 -515t-554 -201.5h-404q-31 0 -30 31v569h-78q-31 0 -31 31v149q0 31 31 31h78v592q0 31 30 31h404zM594 248q229 0 348 122t119 347t-119 347t-348 122h-154v-375h258q31 0 31 -31v-149q0 -31 -31 -31h-258v-352h154z" glyph-name="Dcroat" horiz-adv-x="1437" unicode="Đ"/><glyph d="M1212 1321q31 0 31 -31v-149q0 -31 -31 -31h-77v-1079q0 -31 -31 -31h-178q-27 0 -31 31l-12 98q-113 -143 -303 -143q-211 0 -349.5 148.5t-138.5 365.5q0 221 138.5 372.5t349.5 151.5q172 0 284 -129v215h-268q-31 0 -31 31v149q0 31 31 31h268v143q0 31 31 31h209 q31 0 31 -31v-143h77zM610.5 231q112.5 0 184 77t71.5 193.5t-71.5 196.5t-184 80t-185.5 -77.5t-73 -198.5q0 -117 73 -194t185.5 -77z" glyph-name="dcroat" horiz-adv-x="1273" unicode="đ"/><glyph d="M868 1860q31 0 31 -31v-150q0 -31 -31 -30h-616q-31 0 -31 30v150q0 31 31 31h616zM930 248q31 0 31 -31v-186q0 -31 -31 -31h-756q-31 0 -31 31v1372q0 31 31 31h754q31 0 30 -31v-186q0 -31 -30 -31h-504v-324h473q31 0 31 -31v-186q0 -31 -31 -31h-473v-366h506z" glyph-name="Emacron" horiz-adv-x="1093" unicode="Ē"/><glyph d="M279 1219q-31 0 -31 30v150q0 31 31 31h616q31 0 31 -31v-150q0 -31 -31 -30h-616zM1075 528q0 -66 -14 -93t-57 -27h-644q23 -96 96.5 -149.5t190.5 -53.5q115 0 213 69q27 16 45 -2l90 -88q20 -20 -2 -45q-154 -154 -372 -153q-231 0 -380 150.5t-149 369.5 t144.5 368.5t361.5 149.5q213 0 345 -144.5t132 -351.5zM600 793q-94 0 -159.5 -54.5t-84.5 -154.5h480q-14 98 -79 153.5t-157 55.5z" glyph-name="emacron" horiz-adv-x="1167" unicode="ē"/><glyph d="M559 1599q-57 0 -97 40t-40 97.5t40 97.5t97 40q55 0 96 -40t41 -97.5t-41 -97.5t-96 -40zM930 248q31 0 31 -31v-186q0 -31 -31 -31h-756q-31 0 -31 31v1372q0 31 31 31h754q31 0 30 -31v-186q0 -31 -30 -31h-504v-324h473q31 0 31 -31v-186q0 -31 -31 -31h-473v-366 h506z" glyph-name="Edotaccent" horiz-adv-x="1093" unicode="Ė"/><glyph d="M586 1169q-57 0 -97 40t-40 97.5t39.5 97.5t97.5 40q55 0 96 -40t41 -97.5t-41 -97.5t-96 -40zM1075 528q0 -66 -14 -93t-57 -27h-644q23 -96 96.5 -149.5t190.5 -53.5q115 0 213 69q27 16 45 -2l90 -88q20 -20 -2 -45q-154 -154 -372 -153q-231 0 -380 150.5t-149 369.5 t144.5 368.5t361.5 149.5q213 0 345 -144.5t132 -351.5zM600 793q-94 0 -159.5 -54.5t-84.5 -154.5h480q-14 98 -79 153.5t-157 55.5z" glyph-name="edotaccent" horiz-adv-x="1167" unicode="ė"/><glyph d="M930 248q31 0 31 -31v-186q0 -31 -31 -31h-76q-94 -47 -94 -137q0 -45 34.5 -69.5t102.5 -10.5v-168q-45 -20 -105.5 -21.5t-118 17t-96 71t-38.5 128.5q0 106 88 190h-453q-31 0 -31 31v1372q0 31 31 31h754q31 0 30 -31v-186q0 -31 -30 -31h-504v-324h473q31 0 31 -31 v-186q0 -31 -31 -31h-473v-366h506z" glyph-name="Eogonek" horiz-adv-x="1093" unicode="Ę"/><glyph d="M1075 528q0 -66 -14 -93t-57 -27h-644q23 -96 96.5 -149.5t190.5 -53.5q115 0 213 69q27 16 45 -2l90 -88q20 -20 -2 -45q-90 -90 -217 -131v-8q-195 -49 -194 -168q0 -45 34.5 -69.5t102.5 -10.5v-168q-45 -20 -104.5 -21t-117 17.5t-96.5 70.5t-39 128q0 133 134 219 q-182 39 -293 180t-111 328q0 219 144.5 368.5t361.5 149.5q213 0 345 -144.5t132 -351.5zM600 793q-94 0 -159.5 -54.5t-84.5 -154.5h480q-14 98 -79 153.5t-157 55.5z" glyph-name="eogonek" horiz-adv-x="1146" unicode="ę"/><glyph d="M637 1585h-156q-23 0 -37 17l-196 221q-12 14 -7 25.5t25 11.5h131q23 0 37 -17l125 -145l123 145q14 16 37 17h133q20 0 25.5 -11.5t-7.5 -25.5l-196 -221q-14 -17 -37 -17zM930 248q31 0 31 -31v-186q0 -31 -31 -31h-756q-31 0 -31 31v1372q0 31 31 31h754q31 0 30 -31 v-186q0 -31 -30 -31h-504v-324h473q31 0 31 -31v-186q0 -31 -31 -31h-473v-366h506z" glyph-name="Ecaron" horiz-adv-x="1093" unicode="Ě"/><glyph d="M471 1171l-197 222q-12 14 -7 25.5t26 11.5h131q23 0 37 -17l125 -145l123 145q14 16 36 17h134q20 0 25 -11.5t-7 -25.5l-197 -222q-14 -16 -36 -16h-156q-23 0 -37 16zM1075 528q0 -66 -14 -93t-57 -27h-644q23 -96 96.5 -149.5t190.5 -53.5q115 0 213 69q27 16 45 -2 l90 -88q20 -20 -2 -45q-154 -154 -372 -153q-231 0 -380 150.5t-149 369.5t144.5 368.5t361.5 149.5q213 0 345 -144.5t132 -351.5zM600 793q-94 0 -159.5 -54.5t-84.5 -154.5h480q-14 98 -79 153.5t-157 55.5z" glyph-name="ecaron" horiz-adv-x="1167" unicode="ě"/><glyph d="M835.5 1571q-137.5 0 -222.5 73.5t-95 186.5q-2 31 29 31h104q23 0 33 -29q12 -45 51 -77t100.5 -32t101.5 32t52 77q6 29 33 29h102q31 0 29 -31q-10 -113 -95 -186.5t-222.5 -73.5zM1475 803q31 0 30 -31v-121q0 -289 -179 -483.5t-478 -194.5q-313 0 -529.5 216.5 t-216.5 527.5q0 305 215 519t523 214q293 0 499 -207q20 -23 0 -43l-135 -145q-18 -23 -43 -2q-139 123 -323 123q-188 0 -317.5 -132.5t-129.5 -326.5q0 -201 128 -335t327 -134q174 0 278.5 91t110.5 228h-379q-31 0 -31 31v174q0 31 31 31h619z" glyph-name="Gbreve" horiz-adv-x="1597" unicode="Ğ"/><glyph d="M633 1141q-137 0 -222 73.5t-96 186.5q-4 31 29 31h105q23 0 32 -29q12 -45 51 -77t100.5 -32t101.5 32t52 77q6 29 33 29h103q33 0 28 -31q-10 -113 -95 -186.5t-222 -73.5zM1108 1004q31 0 31 -31v-963q0 -115 -49.5 -198.5t-129 -128.5t-167.5 -67t-181 -22 q-254 0 -432 123q-20 14 -8 41l68 123q16 27 41 13q137 -76 309 -76q70 0 133 17.5t114.5 67.5t51.5 128v110q-127 -147 -311 -147q-209 0 -347.5 150.5t-138.5 365.5t138.5 365.5t347.5 150.5q180 0 305 -143l6 90q4 31 31 31h188zM610 240q109 0 182.5 81.5t73.5 190.5 t-73.5 188.5t-182.5 79.5q-111 0 -184.5 -77.5t-73.5 -190.5q0 -115 73.5 -193.5t184.5 -78.5z" glyph-name="gbreve" horiz-adv-x="1261" unicode="ğ"/><glyph d="M836 1599q-57 0 -97.5 40t-40.5 97.5t40 97.5t98 40q55 0 96 -40t41 -97.5t-41 -97.5t-96 -40zM1475 803q31 0 30 -31v-121q0 -289 -179 -483.5t-478 -194.5q-313 0 -529.5 216.5t-216.5 527.5q0 305 215 519t523 214q293 0 499 -207q20 -23 0 -43l-135 -145 q-18 -23 -43 -2q-139 123 -323 123q-188 0 -317.5 -132.5t-129.5 -326.5q0 -201 128 -335t327 -134q174 0 278.5 91t110.5 228h-379q-31 0 -31 31v174q0 31 31 31h619z" glyph-name="Gdotaccent" horiz-adv-x="1597" unicode="Ġ"/><glyph d="M633 1169q-57 0 -97 40t-40 97.5t39.5 97.5t97.5 40q55 0 96 -40t41 -97.5t-41 -97.5t-96 -40zM1108 1004q31 0 31 -31v-963q0 -115 -49.5 -198.5t-129 -128.5t-167.5 -67t-181 -22q-254 0 -432 123q-20 14 -8 41l68 123q16 27 41 13q137 -76 309 -76q70 0 133 17.5 t114.5 67.5t51.5 128v110q-127 -147 -311 -147q-209 0 -347.5 150.5t-138.5 365.5t138.5 365.5t347.5 150.5q180 0 305 -143l6 90q4 31 31 31h188zM610 240q109 0 182.5 81.5t73.5 190.5t-73.5 188.5t-182.5 79.5q-111 0 -184.5 -77.5t-73.5 -190.5q0 -115 73.5 -193.5 t184.5 -78.5z" glyph-name="gdotaccent" horiz-adv-x="1261" unicode="ġ"/><glyph d="M1475 803q31 0 30 -31v-121q0 -289 -179 -483.5t-478 -194.5q-313 0 -529.5 216.5t-216.5 527.5q0 305 215 519t523 214q293 0 499 -207q20 -23 0 -43l-135 -145q-18 -23 -43 -2q-139 123 -323 123q-188 0 -317.5 -132.5t-129.5 -326.5q0 -201 128 -335t327 -134 q174 0 278.5 91t110.5 228h-379q-31 0 -31 31v174q0 31 31 31h619zM811 -78q66 0 110 -48t44 -134q0 -96 -54.5 -208t-142.5 -208l-70 43q78 115 88 256q-55 8 -93 50t-38 100q0 63 45 106t111 43z" glyph-name="Gcommaaccent" horiz-adv-x="1597" unicode="Ģ"/><glyph d="M612.5 1124q-65.5 0 -109.5 48.5t-44 134.5q0 96 54 207.5t142 207.5l70 -43q-78 -115 -88 -256q55 -8 93 -50t38 -99q0 -63 -45 -106.5t-110.5 -43.5zM1108 1004q31 0 31 -31v-963q0 -115 -49.5 -198.5t-129 -128.5t-167.5 -67t-181 -22q-254 0 -432 123q-20 14 -8 41 l68 123q16 27 41 13q137 -76 309 -76q70 0 133 17.5t114.5 67.5t51.5 128v110q-127 -147 -311 -147q-209 0 -347.5 150.5t-138.5 365.5t138.5 365.5t347.5 150.5q180 0 305 -143l6 90q4 31 31 31h188zM610 240q109 0 182.5 81.5t73.5 190.5t-73.5 188.5t-182.5 79.5 q-111 0 -184.5 -77.5t-73.5 -190.5q0 -115 73.5 -193.5t184.5 -78.5z" glyph-name="gcommaaccent" horiz-adv-x="1241" unicode="ģ"/><glyph d="M1212 1434q31 0 31 -31v-1372q0 -31 -31 -31h-219q-31 0 -30 31v551h-539v-551q0 -31 -31 -31h-219q-31 0 -31 31v1372q0 31 31 31h219q31 0 31 -31v-213h539v213q0 31 30 31h219zM424 829h539v136h-539v-136z" glyph-name="Hbar" horiz-adv-x="1388" unicode="Ħ"/><glyph d="M731 1026q158 0 260.5 -113.5t102.5 -310.5v-571q0 -31 -31 -31h-209q-31 0 -31 31v522q0 117 -53 170t-135 53q-100 0 -160.5 -72.5t-60.5 -123.5v-549q0 -31 -31 -31h-209q-31 0 -31 31v1059h-82q-31 0 -30 30v150q0 31 30 30h82v164q0 31 31 31h209q31 0 31 -31v-164 h264q31 0 31 -30v-150q0 -31 -31 -30h-264v-250q114 186 317 186z" glyph-name="hbar" horiz-adv-x="1196" unicode="ħ"/><glyph d="M594 1860q31 0 31 -31v-150q0 -31 -31 -30h-617q-31 0 -30 30v150q0 31 30 31h617zM143 1403q0 31 31 31h219q31 0 31 -31v-1372q0 -31 -31 -31h-219q-31 0 -31 31v1372z" glyph-name="Imacron" horiz-adv-x="567" unicode="Ī"/><glyph d="M559 1430q31 0 31 -31v-150q0 -31 -31 -30h-616q-31 0 -31 30v150q0 31 31 31h616zM113 973q0 31 30 31h209q31 0 31 -31v-942q0 -31 -31 -31h-209q-31 0 -30 31v942z" glyph-name="imacron" horiz-adv-x="497" unicode="ī"/><glyph d="M250 1169q-57 0 -97 40t-40 97.5t40 97.5t97 40q55 0 96 -40t41 -97.5t-41 -97.5t-96 -40zM352 1004q31 0 31 -31v-942q0 -31 -31 -31q-86 0 -137 -49t-51 -109q0 -45 34.5 -69.5t102.5 -10.5v-168q-45 -20 -105.5 -21t-118 17.5t-96 70.5t-38.5 128q0 152 170 250v934 q0 31 30 31h209z" glyph-name="iogonek" horiz-adv-x="497" unicode="į"/><glyph d="M285 1599q-57 0 -97.5 40t-40.5 97.5t40 97.5t98 40q55 0 96 -40t41 -97.5t-41 -97.5t-96 -40zM143 1403q0 31 31 31h219q31 0 31 -31v-1372q0 -31 -31 -31h-219q-31 0 -31 31v1372z" glyph-name="Idotaccent" horiz-adv-x="567" unicode="İ"/><glyph d="M113 973q0 31 30 31h209q31 0 31 -31v-942q0 -31 -31 -31h-209q-31 0 -30 31v942z" glyph-name="dotlessi" horiz-adv-x="497" unicode="ı"/><glyph d="M143 1403q0 31 31 31h219q31 0 31 -31v-1372q0 -31 -31 -31h-219q-31 0 -31 31v1372zM780 324q16 23 45 2q2 -2 13.5 -9.5t15.5 -9.5t16.5 -9t18.5 -10t19.5 -9.5t21.5 -9.5t22.5 -7t25.5 -6t26.5 -3t29.5 -1q225 0 226 295v856q0 31 30 31h219q31 0 31 -31v-866 q0 -283 -133 -419t-365 -136q-248 0 -372 147q-16 20 0 43z" glyph-name="IJ" horiz-adv-x="1683" unicode="Ĳ"/><glyph d="M272 1194q-63 0 -106 44t-43 105.5t43 105.5t106 44q61 0 104.5 -44t43.5 -105.5t-43.5 -105.5t-104.5 -44zM885 1194q-63 0 -106.5 44t-43.5 105.5t43 105.5t107 44q61 0 104 -44t43 -105.5t-43 -105.5t-104 -44zM135 973q0 31 31 31h209q31 0 31 -31v-942 q0 -31 -31 -31h-209q-31 0 -31 31v942zM782 1004h209q31 0 31 -31v-953q0 -205 -109.5 -312t-298.5 -114q-20 0 -24 17l-66 213q-8 23 15 22q92 6 152.5 60.5t60.5 163.5v903q-1 31 30 31z" glyph-name="ij" horiz-adv-x="1157" unicode="ĳ"/><glyph d="M1282 37q10 -16 5 -26.5t-23 -10.5h-260q-25 0 -37 18l-428 590l-115 -133v-444q0 -31 -31 -31h-219q-31 0 -31 31v1372q0 31 31 31h219q31 0 31 -31v-555l479 569q14 16 37 17h272q20 0 24.5 -11.5t-7.5 -25.5l-504 -576zM731.5 -78q65.5 0 109.5 -48t44 -134 q0 -96 -54.5 -208t-142.5 -208l-70 43q78 115 89 256q-55 8 -93.5 50t-38.5 100q0 63 45.5 106t111 43z" glyph-name="Kcommaaccent" horiz-adv-x="1439" unicode="Ķ"/><glyph d="M1110 37q10 -16 5 -26.5t-23 -10.5h-226q-25 0 -37 18l-297 394l-139 -148v-233q0 -31 -31 -31h-208q-31 0 -31 31v1433q0 31 31 31h208q31 0 31 -31v-874l369 397q14 16 37 17h235q20 0 25.5 -11.5t-8.5 -25.5l-355 -379zM608.5 -78q65.5 0 109.5 -48t44 -134 q0 -96 -54.5 -208t-142.5 -208l-69 43q78 115 88 256q-55 8 -93 50t-38 100q0 63 45 106t110.5 43z" glyph-name="kcommaaccent" horiz-adv-x="1179" unicode="ķ"/><glyph d="M227 1538q-41 0 -24 35l123 258q10 25 34 24h185q41 0 24 -34l-123 -258q-10 -25 -34 -25h-185zM889 248q31 0 31 -31v-186q0 -31 -31 -31h-715q-31 0 -31 31v1372q0 31 31 31h219q31 0 31 -31v-1155h465z" glyph-name="Lacute" horiz-adv-x="1001" unicode="Ĺ"/><glyph d="M492 1921q41 0 24 -35l-123 -258q-10 -25 -35 -24h-184q-41 0 -24 34l122 258q10 25 35 25h185zM123 1464q0 31 31 31h208q31 0 31 -31v-1433q0 -31 -31 -31h-208q-31 0 -31 31v1433z" glyph-name="lacute" horiz-adv-x="518" unicode="ĺ"/><glyph d="M889 248q31 0 31 -31v-186q0 -31 -31 -31h-715q-31 0 -31 31v1372q0 31 31 31h219q31 0 31 -31v-1155h465zM514.5 -78q65.5 0 109.5 -48t44 -134q0 -96 -54.5 -208t-142.5 -208l-70 43q78 115 88 256q-55 8 -93 50t-38 100q0 63 45.5 106t111 43z" glyph-name="Lcommaaccent" horiz-adv-x="1021" unicode="Ļ"/><glyph d="M154 0q-31 0 -31 31v1433q0 31 31 31h208q31 0 31 -31v-1433q0 -31 -31 -31h-208zM266.5 -78q65.5 0 109.5 -48t44 -134q0 -96 -54.5 -208t-142.5 -208l-69 43q78 115 88 256q-55 8 -93 50t-38 100q0 63 45 106t110.5 43z" glyph-name="lcommaaccent" horiz-adv-x="518" unicode="ļ"/><glyph d="M709 1217q-55 8 -93 50t-38 99q0 63 45 106.5t110.5 43.5t109.5 -48.5t44 -134.5q0 -96 -54.5 -207.5t-142.5 -207.5l-69 43q78 115 88 256zM889 248q31 0 31 -31v-186q0 -31 -31 -31h-715q-31 0 -31 31v1372q0 31 31 31h219q31 0 31 -31v-1155h465z" glyph-name="Lcaron" horiz-adv-x="1001" unicode="Ľ"/><glyph d="M653.5 1532q65.5 0 109.5 -48t44 -134q0 -96 -54.5 -208t-142.5 -208l-69 43q78 115 88 256q-55 8 -93 50t-38 99q0 63 45 106.5t110.5 43.5zM362 1495q31 0 31 -31v-1433q0 -31 -31 -31h-208q-31 0 -31 31v1433q0 31 31 31h208z" glyph-name="lcaron" horiz-adv-x="849" unicode="ľ"/><glyph d="M889 248q31 0 31 -31v-186q0 -31 -31 -31h-715q-31 0 -31 31v1372q0 31 31 31h219q31 0 31 -31v-1155h465zM793 604q-63 0 -106.5 43t-43.5 107q0 61 43 104t107 43q61 0 104 -43t43 -104q0 -63 -43 -106.5t-104 -43.5z" glyph-name="Ldot" horiz-adv-x="1038" unicode="Ŀ"/><glyph d="M123 1464q0 31 31 31h208q31 0 31 -31v-1433q0 -31 -31 -31h-208q-31 0 -31 31v1433zM623 600q-63 0 -106.5 43t-43.5 107q0 61 43 104t107 43q61 0 104 -43t43 -104q0 -63 -43 -106.5t-104 -43.5z" glyph-name="ldot" horiz-adv-x="843" unicode="ŀ"/><glyph d="M932 248q31 0 31 -31v-186q0 -31 -31 -31h-715q-31 0 -31 31v403l-88 -86q-16 -14 -26.5 -9t-10.5 26v178q0 23 17 39l108 106v715q0 31 31 31h219q31 0 31 -31v-442l188 184q16 14 26.5 9t10.5 -26v-176q0 -23 -16 -39l-209 -204v-461h465z" glyph-name="Lslash" horiz-adv-x="1044" unicode="Ł"/><glyph d="M627 1124v-231l-148 -156v-706q0 -31 -30 -31h-209q-31 0 -31 31v422l-117 -123v233l117 123v778q0 31 31 31h209q31 0 30 -31v-493l146 153h2z" glyph-name="lslash" horiz-adv-x="718" unicode="ł"/><glyph d="M633 1542q-41 0 -25 35l123 258q10 25 35 25h184q41 0 25 -35l-123 -258q-10 -25 -35 -25h-184zM1264 1434q31 0 30 -31v-1372q0 -31 -30 -31h-252q-25 0 -37 20l-551 973v-962q0 -31 -31 -31h-219q-31 0 -31 31v1372q0 31 31 31h252q25 0 37 -21l551 -973v963 q0 31 30 31h220z" glyph-name="Nacute" horiz-adv-x="1437" unicode="Ń"/><glyph d="M512 1112q-41 0 -25 35l123 258q10 25 35 25h184q41 0 25 -35l-123 -258q-10 -25 -35 -25h-184zM711 1026q158 0 260 -113.5t102 -310.5v-571q0 -31 -31 -31h-208q-31 0 -31 31v522q0 117 -53.5 170t-135.5 53q-100 0 -160.5 -72.5t-60.5 -123.5v-549q0 -31 -31 -31h-208 q-31 0 -31 31v942q0 31 31 31h200q27 0 31 -31l8 -131v-2q115 186 318 186z" glyph-name="nacute" horiz-adv-x="1196" unicode="ń"/><glyph d="M1264 1434q31 0 30 -31v-1372q0 -31 -30 -31h-252q-25 0 -37 20l-551 973v-962q0 -31 -31 -31h-219q-31 0 -31 31v1372q0 31 31 31h252q25 0 37 -21l551 -973v963q0 31 30 31h220zM725 -78q66 0 110 -48t44 -134q0 -96 -54.5 -208t-142.5 -208l-70 43q78 115 88 256 q-55 8 -93 50t-38 100q0 63 45 106t111 43z" glyph-name="Ncommaaccent" horiz-adv-x="1437" unicode="Ņ"/><glyph d="M711 1026q158 0 260 -113.5t102 -310.5v-571q0 -31 -31 -31h-208q-31 0 -31 31v522q0 117 -53.5 170t-135.5 53q-100 0 -160.5 -72.5t-60.5 -123.5v-549q0 -31 -31 -31h-208q-31 0 -31 31v942q0 31 31 31h200q27 0 31 -31l8 -131v-2q115 186 318 186zM604.5 -78 q65.5 0 109.5 -48t44 -134q0 -96 -54.5 -208t-142.5 -208l-69 43q78 115 88 256q-55 8 -93 50t-38 100q0 63 45 106t110.5 43z" glyph-name="ncommaaccent" horiz-adv-x="1196" unicode="ņ"/><glyph d="M604 1602l-196 221q-12 14 -7 25.5t25 11.5h131q23 0 37 -17l125 -145l123 145q14 16 37 17h133q20 0 25 -11.5t-7 -25.5l-196 -221q-14 -16 -37 -17h-156q-23 1 -37 17zM1264 1434q31 0 30 -31v-1372q0 -31 -30 -31h-252q-25 0 -37 20l-551 973v-962q0 -31 -31 -31h-219 q-31 0 -31 31v1372q0 31 31 31h252q25 0 37 -21l551 -973v963q0 31 30 31h220z" glyph-name="Ncaron" horiz-adv-x="1437" unicode="Ň"/><glyph d="M483 1171l-196 222q-12 14 -7 25.5t25 11.5h131q23 0 37 -17l125 -145l123 145q14 16 37 17h133q20 0 25.5 -11.5t-7.5 -25.5l-196 -222q-14 -16 -37 -16h-156q-23 0 -37 16zM711 1026q158 0 260 -113.5t102 -310.5v-571q0 -31 -31 -31h-208q-31 0 -31 31v522 q0 117 -53.5 170t-135.5 53q-100 0 -160.5 -72.5t-60.5 -123.5v-549q0 -31 -31 -31h-208q-31 0 -31 31v942q0 31 31 31h200q27 0 31 -31l8 -131v-2q115 186 318 186z" glyph-name="ncaron" horiz-adv-x="1196" unicode="ň"/><glyph d="M1264 1434q31 0 30 -31v-1372q0 -14 -8 -21q-27 -221 -156 -327.5t-333 -106.5q-248 0 -373 148q-16 20 0 43l111 151q16 23 45 2q2 -2 13 -9t15 -9t16.5 -9.5t18.5 -10.5t19.5 -9t21.5 -9t22.5 -7t25.5 -6.5t26.5 -3.5t29.5 -1q162 0 209 156q-12 2 -22 18l-551 973 v-962q0 -31 -31 -31h-219q-31 0 -31 31v1372q0 31 31 31h252q25 0 37 -21l551 -973v963q0 31 30 31h220z" glyph-name="Eng" horiz-adv-x="1417" unicode="Ŋ"/><glyph d="M711 1026q158 0 260 -113.5t102 -310.5v-571q0 -14 -10 -25q-4 -199 -114.5 -305.5t-293.5 -106.5q-18 0 -24 17l-66 213q-8 23 15 22q88 0 150.5 56.5t62.5 167.5v127h10v356q0 117 -53.5 170t-135.5 53q-100 0 -160.5 -72.5t-60.5 -123.5v-549q0 -31 -31 -31h-208 q-31 0 -31 31v942q0 31 31 31h200q27 0 31 -31l8 -131v-2q115 186 318 186z" glyph-name="eng" horiz-adv-x="1175" unicode="ŋ"/><glyph d="M1149 1860q31 0 31 -31v-150q0 -31 -31 -30h-617q-31 0 -30 30v150q0 31 30 31h617zM840 -27q-305 0 -521.5 215t-216.5 522.5t216.5 523.5t521.5 216t521 -216t216 -523.5t-216 -522.5t-521 -215zM839.5 248q192.5 0 322.5 133t130 330q0 199 -130 332t-322.5 133 t-322.5 -133.5t-130 -331.5q0 -197 130 -330t322.5 -133z" glyph-name="Omacron" horiz-adv-x="1679" unicode="Ō"/><glyph d="M922 1430q31 0 30 -31v-150q0 -31 -30 -30h-617q-31 0 -31 30v150q0 31 31 31h617zM612 -20q-217 0 -368.5 152.5t-151.5 369.5q0 219 151.5 371.5t368.5 152.5t369 -152.5t152 -371.5q0 -217 -152 -369.5t-369 -152.5zM612 229q109 0 184.5 78t75.5 195 q0 119 -75.5 196.5t-184.5 77.5q-111 0 -185.5 -77.5t-74.5 -196.5q0 -117 74.5 -195t185.5 -78z" glyph-name="omacron" horiz-adv-x="1224" unicode="ō"/><glyph d="M926 1860q41 0 24 -35l-123 -258q-10 -25 -34 -25h-185q-41 0 -24 35l123 258q10 25 34 25h185zM1300 1860q41 0 25 -35l-123 -258q-10 -25 -35 -25h-184q-41 0 -25 35l123 258q10 25 35 25h184zM840 -27q-305 0 -521.5 215t-216.5 522.5t216.5 523.5t521.5 216t521 -216 t216 -523.5t-216 -522.5t-521 -215zM839.5 248q192.5 0 322.5 133t130 330q0 199 -130 332t-322.5 133t-322.5 -133.5t-130 -331.5q0 -197 130 -330t322.5 -133z" glyph-name="Ohungarumlaut" horiz-adv-x="1679" unicode="Ő"/><glyph d="M698 1430q41 0 25 -35l-123 -258q-10 -25 -35 -25h-184q-41 0 -25 35l123 258q10 25 35 25h184zM1073 1430q41 0 25 -35l-123 -258q-10 -25 -35 -25h-184q-41 0 -25 35l123 258q10 25 35 25h184zM612 -20q-217 0 -368.5 152.5t-151.5 369.5q0 219 151.5 371.5 t368.5 152.5t369 -152.5t152 -371.5q0 -217 -152 -369.5t-369 -152.5zM612 229q109 0 184.5 78t75.5 195q0 119 -75.5 196.5t-184.5 77.5q-111 0 -185.5 -77.5t-74.5 -196.5q0 -117 74.5 -195t185.5 -78z" glyph-name="ohungarumlaut" horiz-adv-x="1224" unicode="ő"/><glyph d="M2083 248q31 0 31 -31v-186q0 -31 -31 -31h-756q-31 0 -31 31v100q-201 -158 -456 -158q-305 0 -521.5 215t-216.5 522.5t216.5 523.5t521.5 216q256 0 456 -158v111q0 31 31 31h754q31 0 30 -31v-186q0 -31 -30 -31h-504v-324h473q31 0 31 -31v-186q0 -31 -31 -31h-473 v-366h506zM839.5 248q192.5 0 322.5 133t130 330q0 199 -130 332t-322.5 133t-322.5 -133.5t-130 -331.5q0 -197 130 -330t322.5 -133z" glyph-name="OE" horiz-adv-x="2226" unicode="Œ"/><glyph d="M1853 528q0 -66 -14 -93t-57 -27h-643q23 -96 96.5 -149.5t189.5 -53.5q115 0 213 69q27 16 45 -2l91 -88q20 -20 -2 -45q-154 -154 -373 -153q-244 0 -398 168q-154 -174 -389 -174q-217 0 -368.5 152.5t-151.5 369.5q0 219 151.5 371.5t368.5 152.5q231 0 385 -170 q152 168 379 168q213 0 345 -144.5t132 -351.5zM1378 793q-94 0 -159.5 -54.5t-83.5 -154.5h479q-14 98 -79 153.5t-157 55.5zM612 229q102 0 176 70t82 176v31v26q-8 106 -82.5 175t-175.5 69q-111 0 -185.5 -77.5t-74.5 -196.5q0 -117 74.5 -195t185.5 -78z" glyph-name="oe" horiz-adv-x="1925" unicode="œ"/><glyph d="M504 1542q-41 0 -25 35l123 258q10 25 35 25h184q41 0 25 -35l-123 -258q-10 -25 -35 -25h-184zM1143 37q23 -37 -21 -37h-233q-25 0 -37 20l-309 478h-119v-467q0 -31 -31 -31h-219q-31 0 -31 31v1372q0 31 31 31h424q248 0 384 -128t136 -339q0 -158 -77.5 -272.5 t-223.5 -164.5zM424 1186v-438h168q113 0 185.5 51t72.5 168q0 115 -74 167t-184 52h-168z" glyph-name="Racute" horiz-adv-x="1251" unicode="Ŕ"/><glyph d="M305 1112q-41 0 -24 35l122 258q10 25 35 25h185q41 0 24 -35l-123 -258q-10 -25 -35 -25h-184zM782 979q20 -16 11 -41l-62 -152q-10 -31 -45 -20q-47 14 -84 14q-94 0 -151.5 -61.5t-57.5 -155.5v-532q0 -31 -31 -31h-208q-31 0 -31 31v942q0 31 31 31h198q27 0 31 -31 l8 -111q90 164 256 164q80 0 135 -47z" glyph-name="racute" horiz-adv-x="825" unicode="ŕ"/><glyph d="M1143 37q23 -37 -21 -37h-233q-25 0 -37 20l-309 478h-119v-467q0 -31 -31 -31h-219q-31 0 -31 31v1372q0 31 31 31h424q248 0 384 -128t136 -339q0 -158 -77.5 -272.5t-223.5 -164.5zM424 1186v-438h168q113 0 185.5 51t72.5 168q0 115 -74 167t-184 52h-168zM596 -78 q66 0 110 -48t44 -134q0 -96 -54.5 -208t-142.5 -208l-70 43q78 115 88 256q-55 8 -93 50t-38 100q0 63 45 106t111 43z" glyph-name="Rcommaaccent" horiz-adv-x="1251" unicode="Ŗ"/><glyph d="M782 979q20 -16 11 -41l-62 -152q-10 -31 -45 -20q-47 14 -84 14q-94 0 -151.5 -61.5t-57.5 -155.5v-532q0 -31 -31 -31h-208q-31 0 -31 31v942q0 31 31 31h198q27 0 31 -31l8 -111q90 164 256 164q80 0 135 -47zM264.5 -78q65.5 0 109.5 -48t44 -134q0 -96 -54.5 -208 t-142.5 -208l-69 43q78 115 88 256q-55 8 -93 50t-38 100q0 63 45 106t110.5 43z" glyph-name="rcommaaccent" horiz-adv-x="825" unicode="ŗ"/><glyph d="M475 1602l-196 221q-12 14 -7.5 25.5t25.5 11.5h131q23 0 37 -17l125 -145l123 145q14 16 37 17h133q20 0 25 -11.5t-7 -25.5l-196 -221q-14 -16 -37 -17h-156q-23 1 -37 17zM1143 37q23 -37 -21 -37h-233q-25 0 -37 20l-309 478h-119v-467q0 -31 -31 -31h-219 q-31 0 -31 31v1372q0 31 31 31h424q248 0 384 -128t136 -339q0 -158 -77.5 -272.5t-223.5 -164.5zM424 1186v-438h168q113 0 185.5 51t72.5 168q0 115 -74 167t-184 52h-168z" glyph-name="Rcaron" horiz-adv-x="1251" unicode="Ř"/><glyph d="M313 1155q-23 0 -37 16l-196 222q-12 14 -7 25.5t25 11.5h131q23 0 37 -17l125 -145l123 145q14 16 37 17h133q20 0 25.5 -11.5t-7.5 -25.5l-196 -222q-14 -16 -37 -16h-156zM782 979q20 -16 11 -41l-62 -152q-10 -31 -45 -20q-47 14 -84 14q-94 0 -151.5 -61.5 t-57.5 -155.5v-532q0 -31 -31 -31h-208q-31 0 -31 31v942q0 31 31 31h198q27 0 31 -31l8 -111q90 164 256 164q80 0 135 -47z" glyph-name="rcaron" horiz-adv-x="825" unicode="ř"/><glyph d="M803 1860q41 0 24 -35l-122 -258q-10 -25 -35 -25h-185q-41 0 -24 35l123 258q10 25 34 25h185zM410 1042q0 -68 69.5 -113.5t167.5 -79.5t196.5 -79t168 -139t69.5 -232q0 -193 -148.5 -308.5t-348.5 -115.5q-150 0 -283 64.5t-201 159.5q-16 23 2 43l123 133 q20 25 45 2q160 -139 320 -139q92 0 154.5 46t62.5 122q0 59 -49 103t-124 71.5t-162 66.5t-161.5 83t-124 126t-49.5 193q0 180 131 290.5t316 110.5q250 0 436 -190q20 -20 2 -43l-113 -138q-18 -25 -43 -6q-147 115 -274 115q-84 0 -133 -41.5t-49 -104.5z" glyph-name="Sacute" horiz-adv-x="1173" unicode="Ś"/><glyph d="M702 1430q41 0 25 -35l-123 -258q-10 -25 -35 -25h-184q-41 0 -25 35l123 258q10 25 35 25h184zM369 723q0 -37 35.5 -63.5t90 -40t118 -38t117.5 -54t90 -92t36 -148.5q0 -137 -116.5 -222t-266.5 -85q-121 0 -222 49t-161 118q-16 18 0 41l80 113q16 20 45 -2 q145 -92 250 -92q129 0 129 84q0 43 -50 72.5t-121 52t-142.5 53.5t-121.5 94.5t-50 157.5q0 139 102 222t246 83q215 0 344 -152q16 -20 -2 -43l-78 -102q-16 -20 -45 2q-119 78 -197 78q-47 0 -78.5 -23.5t-31.5 -62.5z" glyph-name="sacute" horiz-adv-x="937" unicode="ś"/><glyph d="M1081 399q0 -178 -128 -290.5t-310 -131.5l-51 -45q74 -6 128 -51t54 -119q0 -127 -106.5 -178t-251.5 -28q-18 2 -19 22v94q0 20 23 21q170 -18 170 57q0 33 -48 46.5t-120 -9.5q-25 -10 -25 14v97q0 14 11 24l65 64q-119 20 -219 78.5t-154 134.5q-16 23 2 43l123 133 q20 25 45 2q160 -139 320 -139q92 0 154.5 46t62.5 122q0 59 -49 103t-124 71.5t-162 66.5t-161.5 83t-124 126t-49.5 193q0 180 131 290.5t316 110.5q250 0 436 -190q20 -20 2 -43l-113 -138q-18 -25 -43 -6q-147 115 -274 115q-84 0 -133 -41t-49 -105q0 -68 69.5 -113.5 t167.5 -79.5t196.5 -79t168 -139.5t69.5 -231.5z" glyph-name="Scedilla" horiz-adv-x="1173" unicode="Ş"/><glyph d="M856 287q0 -119 -88 -200t-215 -101l-61 -54q74 -6 128 -51t54 -119q0 -127 -106.5 -178t-252.5 -28q-18 2 -18 22v94q0 20 22 21q170 -18 170 57q0 33 -48 46.5t-119 -9.5q-25 -10 -25 14v97q0 14 10 24l68 66q-178 35 -285 159q-16 18 0 41l80 113q16 20 45 -2 q145 -92 250 -92q129 0 129 84q0 43 -50 72.5t-121 52t-142.5 53.5t-121.5 94.5t-50 157.5q0 139 102 222t246 83q215 0 344 -152q16 -20 -2 -43l-78 -102q-16 -20 -45 2q-119 78 -197 78q-47 0 -78.5 -23.5t-31.5 -62.5q0 -37 35.5 -63.5t90 -40t118 -38t117.5 -54t90 -92 t36 -148.5z" glyph-name="scedilla" horiz-adv-x="937" unicode="ş"/><glyph d="M649 1585h-155q-23 0 -37 17l-197 221q-12 14 -7 25.5t26 11.5h131q23 0 36 -17l125 -145l123 145q14 16 37 17h133q20 0 25.5 -11.5t-6.5 -25.5l-197 -221q-14 -17 -37 -17zM410 1042q0 -68 69.5 -113.5t167.5 -79.5t196.5 -79t168 -139t69.5 -232q0 -193 -148.5 -308.5 t-348.5 -115.5q-150 0 -283 64.5t-201 159.5q-16 23 2 43l123 133q20 25 45 2q160 -139 320 -139q92 0 154.5 46t62.5 122q0 59 -49 103t-124 71.5t-162 66.5t-161.5 83t-124 126t-49.5 193q0 180 131 290.5t316 110.5q250 0 436 -190q20 -20 2 -43l-113 -138 q-18 -25 -43 -6q-147 115 -274 115q-84 0 -133 -41.5t-49 -104.5z" glyph-name="Scaron" horiz-adv-x="1173" unicode="Š"/><glyph d="M549 1155h-156q-23 0 -37 16l-196 222q-12 14 -7 25.5t25 11.5h131q23 0 37 -17l125 -145l123 145q14 16 37 17h133q20 0 25.5 -11.5t-7.5 -25.5l-196 -222q-14 -16 -37 -16zM369 723q0 -37 35.5 -63.5t90 -40t118 -38t117.5 -54t90 -92t36 -148.5q0 -137 -116.5 -222 t-266.5 -85q-121 0 -222 49t-161 118q-16 18 0 41l80 113q16 20 45 -2q145 -92 250 -92q129 0 129 84q0 43 -50 72.5t-121 52t-142.5 53.5t-121.5 94.5t-50 157.5q0 139 102 222t246 83q215 0 344 -152q16 -20 -2 -43l-78 -102q-16 -20 -45 2q-119 78 -197 78 q-47 0 -78.5 -23.5t-31.5 -62.5z" glyph-name="scaron" horiz-adv-x="937" unicode="š"/><glyph d="M1034 1434q31 0 31 -31v-186q0 -31 -31 -31h-309v-1155q0 -31 -31 -31h-14l-76 -68q74 -6 128 -51t54 -119q0 -127 -106.5 -178t-251.5 -28q-18 2 -18 22v94q0 20 22 21q170 -18 170 57q0 33 -48 46.5t-120 -9.5q-25 -10 -24 14v97q0 14 10 24l80 78h-25q-31 0 -31 31 v1155h-311q-31 0 -31 31v186q0 31 31 31h901z" glyph-name="Tcommaaccent" horiz-adv-x="1167" unicode="Ţ"/><glyph d="M700 1004q31 0 31 -31v-160q0 -31 -31 -31h-163v-751q0 -31 -31 -31h-14l-68 -59q74 -6 128 -51.5t54 -118.5q0 -127 -106.5 -178.5t-251.5 -28.5q-18 2 -19 22v95q0 20 23 20q170 -18 170 57q0 33 -48 46.5t-120 -9.5q-25 -10 -25 15v96q0 14 11 24l71 70h-14 q-31 0 -31 31v751h-164q-31 0 -30 31v160q0 31 30 31h164v276q0 31 31 31h209q31 0 31 -31v-276h163z" glyph-name="tcommaaccent" horiz-adv-x="804" unicode="ţ"/><glyph d="M662 1585h-156q-23 0 -37 17l-197 221q-12 14 -7 25.5t26 11.5h131q23 0 37 -17l125 -145l123 145q14 16 36 17h134q20 0 25 -11.5t-7 -25.5l-197 -221q-13 -17 -36 -17zM1034 1434q31 0 31 -31v-186q0 -31 -31 -31h-309v-1155q0 -31 -31 -31h-219q-31 0 -31 31v1155 h-311q-31 0 -31 31v186q0 31 31 31h901z" glyph-name="Tcaron" horiz-adv-x="1167" unicode="Ť"/><glyph d="M934 1434q41 0 24 -35l-122 -258q-10 -25 -35 -25h-185q-41 0 -24 35l123 258q10 25 35 25h184zM700 1004q31 0 31 -31v-160q0 -31 -31 -31h-163v-751q0 -31 -31 -31h-209q-31 0 -31 31v751h-164q-31 0 -30 31v160q0 31 30 31h164v276q0 31 31 31h209q31 0 31 -31v-276 h163z" glyph-name="tcaron" horiz-adv-x="993" unicode="ť"/><glyph d="M1034 1434q31 0 31 -31v-186q0 -31 -31 -31h-309v-182h158q31 0 30 -31v-150q0 -31 -30 -30h-158v-762q0 -31 -31 -31h-219q-31 0 -31 31v762h-178q-31 0 -30 30v150q0 31 30 31h178v182h-311q-31 0 -31 31v186q0 31 31 31h901z" glyph-name="Tbar" horiz-adv-x="1146" unicode="Ŧ"/><glyph d="M700 1004q31 0 31 -31v-160q0 -31 -31 -31h-163v-98h122q31 0 31 -31v-159q0 -31 -31 -31h-122v-432q0 -31 -31 -31h-209q-31 0 -31 31v432h-164q-31 0 -30 31v159q0 31 30 31h164v98h-164q-31 0 -30 31v160q0 31 30 31h164v276q0 31 31 31h209q31 0 31 -31v-276h163z " glyph-name="tbar" horiz-adv-x="763" unicode="ŧ"/><glyph d="M987 1860q31 0 31 -31v-150q0 -31 -31 -30h-616q-31 0 -31 30v150q0 31 31 31h616zM1190 1434q31 0 31 -31v-846q0 -276 -150.5 -430t-392.5 -154q-244 0 -394.5 154t-150.5 430v846q0 31 31 31h219q31 0 31 -31v-846q0 -150 69.5 -229.5t194.5 -79.5t193.5 80t68.5 229 v846q0 31 31 31h219z" glyph-name="Umacron" horiz-adv-x="1353" unicode="Ū"/><glyph d="M281 1219q-31 0 -31 30v150q0 31 31 31h616q31 0 31 -31v-150q0 -31 -31 -30h-616zM1032 1004q31 0 31 -31v-942q0 -31 -31 -31h-201q-27 0 -30 31l-8 112q-121 -170 -299 -170q-172 0 -276.5 113t-104.5 311v576q0 31 30 31h209q31 0 31 -31v-527q0 -115 55.5 -169 t136.5 -54q98 0 158 64.5t60 130.5v555q0 31 30 31h209z" glyph-name="umacron" horiz-adv-x="1185" unicode="ū"/><glyph d="M831 1833q6 29 33 29h103q33 0 28 -31q-10 -113 -95 -186.5t-222 -73.5t-222 73.5t-96 186.5q-4 31 29 31h105q23 0 32 -29q12 -45 51 -77t100.5 -32t101.5 32t52 77zM1190 1434q31 0 31 -31v-846q0 -276 -150.5 -430t-392.5 -154q-244 0 -394.5 154t-150.5 430v846 q0 31 31 31h219q31 0 31 -31v-846q0 -150 69.5 -229.5t194.5 -79.5t193.5 80t68.5 229v846q0 31 31 31h219z" glyph-name="Ubreve" horiz-adv-x="1353" unicode="Ŭ"/><glyph d="M588 1141q-137 0 -222 73.5t-96 186.5q-4 31 29 31h104q23 0 33 -29q12 -45 51 -77t100.5 -32t101.5 32t52 77q6 29 33 29h103q33 0 28 -31q-10 -113 -95 -186.5t-222 -73.5zM1032 1004q31 0 31 -31v-942q0 -31 -31 -31h-201q-27 0 -30 31l-8 112q-121 -170 -299 -170 q-172 0 -276.5 113t-104.5 311v576q0 31 30 31h209q31 0 31 -31v-527q0 -115 55.5 -169t136.5 -54q98 0 158 64.5t60 130.5v555q0 31 30 31h209z" glyph-name="ubreve" horiz-adv-x="1185" unicode="ŭ"/><glyph d="M680 1944q82 0 142.5 -61.5t60.5 -143.5t-60.5 -142.5t-142.5 -60.5q-86 0 -147.5 60.5t-61.5 142.5q0 84 61.5 144.5t147.5 60.5zM677.5 1692q20.5 0 35 14t14.5 34.5t-14.5 35t-35 14.5t-34.5 -14.5t-14 -35t14 -34.5t34.5 -14zM1190 1434q31 0 31 -31v-846 q0 -276 -150.5 -430t-392.5 -154q-244 0 -394.5 154t-150.5 430v846q0 31 31 31h219q31 0 31 -31v-846q0 -150 69.5 -229.5t194.5 -79.5t193.5 80t68.5 229v846q0 31 31 31h219z" glyph-name="Uring" horiz-adv-x="1353" unicode="Ů"/><glyph d="M590 1106q-86 0 -147.5 60.5t-61.5 142.5q0 84 61.5 144t147.5 60q82 0 142.5 -61t60.5 -143t-60.5 -142.5t-142.5 -60.5zM587.5 1360q-20.5 0 -34.5 -14.5t-14 -35t14 -34.5t34.5 -14t35 14t14.5 34.5t-14.5 35t-35 14.5zM1032 1004q31 0 31 -31v-942q0 -31 -31 -31 h-201q-27 0 -30 31l-8 112q-121 -170 -299 -170q-172 0 -276.5 113t-104.5 311v576q0 31 30 31h209q31 0 31 -31v-527q0 -115 55.5 -169t136.5 -54q98 0 158 64.5t60 130.5v555q0 31 30 31h209z" glyph-name="uring" horiz-adv-x="1185" unicode="ů"/><glyph d="M764 1860q41 0 24 -35l-122 -258q-10 -25 -35 -25h-185q-41 0 -24 35l123 258q10 25 35 25h184zM1139 1860q41 0 24 -35l-123 -258q-10 -25 -34 -25h-185q-41 0 -24 35l123 258q10 25 34 25h185zM1190 1434q31 0 31 -31v-846q0 -276 -150.5 -430t-392.5 -154 q-244 0 -394.5 154t-150.5 430v846q0 31 31 31h219q31 0 31 -31v-846q0 -150 69.5 -229.5t194.5 -79.5t193.5 80t68.5 229v846q0 31 31 31h219z" glyph-name="Uhungarumlaut" horiz-adv-x="1353" unicode="Ű"/><glyph d="M356 1112q-41 0 -24 35l123 258q10 25 34 25h185q41 0 24 -35l-123 -258q-10 -25 -34 -25h-185zM1049 1430q41 0 24 -35l-123 -258q-10 -25 -35 -25h-184q-41 0 -24 35l122 258q10 25 35 25h185zM1032 1004q31 0 31 -31v-942q0 -31 -31 -31h-201q-27 0 -30 31l-8 112 q-121 -170 -299 -170q-172 0 -276.5 113t-104.5 311v576q0 31 30 31h209q31 0 31 -31v-527q0 -115 55.5 -169t136.5 -54q98 0 158 64.5t60 130.5v555q0 31 30 31h209z" glyph-name="uhungarumlaut" horiz-adv-x="1185" unicode="ű"/><glyph d="M1190 1434q31 0 31 -31v-846q0 -227 -102.5 -372.5t-280.5 -190.5q-139 -63 -140 -152q0 -45 34 -69.5t104 -10.5v-168q-45 -20 -105.5 -21t-118 17.5t-96.5 70.5t-39 128q0 111 96 193q-201 31 -320.5 180t-119.5 395v846q0 31 31 31h219q31 0 31 -31v-846 q0 -150 69.5 -229.5t194.5 -79.5t193.5 80t68.5 229v846q0 31 31 31h219z" glyph-name="Uogonek" horiz-adv-x="1333" unicode="Ų"/><glyph d="M1032 1004q31 0 31 -31v-942q0 -31 -31 -31h-2q-88 0 -138 -49t-50 -109q0 -45 33.5 -69.5t103.5 -10.5v-168q-45 -20 -105.5 -21t-118 17.5t-96 70.5t-38.5 128q0 160 180 254l-8 100q-121 -170 -299 -170q-172 0 -276.5 113t-104.5 311v576q0 31 30 31h209q31 0 31 -31 v-527q0 -115 55.5 -169t136.5 -54q98 0 158 64.5t60 130.5v555q0 31 30 31h209z" glyph-name="uogonek" horiz-adv-x="1165" unicode="ų"/><glyph d="M860 1585q-20 0 -25.5 11.5t7.5 25.5l196 221q14 16 37 17h156q23 0 37 -17l196 -221q12 -14 7 -25.5t-25 -11.5h-133q-23 0 -37 17l-123 145l-125 -145q-14 -16 -37 -17h-131zM2183 1434q35 0 25 -35l-436 -1374q-10 -25 -39 -25h-217q-29 0 -35 25l-332 989l-332 -989 q-10 -25 -35 -25h-217q-31 0 -37 25l-434 1374q-14 35 25 35h227q27 0 35 -25l297 -1040l334 1040q2 14 16 21q8 4 16 4h209q10 0 19 -4q8 -6 14 -21l334 -1040l301 1040q6 25 35 25h227z" glyph-name="Wcircumflex" horiz-adv-x="2301" unicode="Ŵ"/><glyph d="M651 1155q-20 0 -25 11.5t7 25.5l196 221q14 16 37 17h156q23 0 37 -17l196 -221q12 -14 7 -25.5t-25 -11.5h-133q-23 0 -37 16l-123 146l-125 -146q-14 -16 -37 -16h-131zM1786 1004q37 0 24 -35l-350 -944q-10 -25 -37 -25h-202q-29 0 -37 25l-240 626l-239 -626 q-8 -25 -37 -25h-205q-29 0 -37 25l-350 944q-12 35 24 35h205q27 0 37 -25l231 -666l238 666q6 18 20 20q8 4 17 5h192q8 0 17 -5q14 -2 20 -20l240 -666l227 666q8 25 37 25h205z" glyph-name="wcircumflex" horiz-adv-x="1888" unicode="ŵ"/><glyph d="M367 1585q-20 0 -25.5 11.5t6.5 25.5l197 221q14 16 37 17h155q23 0 37 -17l197 -221q12 -14 7 -25.5t-26 -11.5h-133q-23 0 -37 17l-123 145l-124 -145q-14 -16 -37 -17h-131zM1198 1434q41 0 21 -37l-420 -731v-635q0 -31 -31 -31h-219q-31 0 -31 31v641l-420 725 q-20 37 21 37h231q25 0 37 -21l272 -479l273 479q12 20 37 21h229z" glyph-name="Ycircumflex" horiz-adv-x="1318" unicode="Ŷ"/><glyph d="M672 1430q23 0 37 -17l196 -221q12 -14 7 -25.5t-25 -11.5h-133q-23 0 -37 16l-123 146l-125 -146q-14 -16 -37 -16h-131q-20 0 -25.5 11.5t7.5 25.5l196 221q14 16 37 17h156zM1090 1004q37 0 24 -35l-530 -1334q-10 -25 -37 -24h-205q-41 0 -25 35l146 352l-387 971 q-12 35 24 35h211q29 0 37 -25l246 -664l244 664q10 25 36 25h216z" glyph-name="ycircumflex" horiz-adv-x="1191" unicode="ŷ"/><glyph d="M438 1599q-57 0 -97 40t-40 97.5t40 97.5t97 40q55 0 96 -40t41 -97.5t-41 -97.5t-96 -40zM880.5 1599q-55.5 0 -96.5 40t-41 97.5t41 97.5t96.5 40t96.5 -40t41 -97.5t-41 -97.5t-96.5 -40zM1198 1434q41 0 21 -37l-420 -731v-635q0 -31 -31 -31h-219q-31 0 -31 31v641 l-420 725q-20 37 21 37h231q25 0 37 -21l272 -479l273 479q12 20 37 21h229z" glyph-name="Ydieresis" horiz-adv-x="1318" unicode="Ÿ"/><glyph d="M848 1860q41 0 24 -35l-122 -258q-10 -25 -35 -25h-185q-41 0 -24 35l123 258q10 25 35 25h184zM1090 248q31 0 30 -31v-186q0 -31 -30 -31h-947q-31 0 -30 31v196q0 18 12 37l674 922h-635q-31 0 -31 31v186q0 31 31 31h905q31 0 31 -31v-197q0 -18 -13 -37l-673 -921 h676z" glyph-name="Zacute" horiz-adv-x="1232" unicode="Ź"/><glyph d="M739 1430q41 0 25 -35l-123 -258q-10 -25 -35 -25h-184q-41 0 -25 35l123 258q10 25 35 25h184zM930 973v-168q0 -25 -15 -39l-507 -545h491q31 0 31 -31v-159q0 -31 -31 -31h-786q-31 0 -31 31v168q0 25 14 39l510 544h-493q-31 0 -31 31v160q0 31 31 31h786 q31 0 31 -31z" glyph-name="zacute" horiz-adv-x="1013" unicode="ź"/><glyph d="M616 1599q-57 0 -97 40t-40 97.5t40 97.5t97 40q55 0 96.5 -40t41.5 -97.5t-41.5 -97.5t-96.5 -40zM1090 248q31 0 30 -31v-186q0 -31 -30 -31h-947q-31 0 -30 31v196q0 18 12 37l674 922h-635q-31 0 -31 31v186q0 31 31 31h905q31 0 31 -31v-197q0 -18 -13 -37 l-673 -921h676z" glyph-name="Zdotaccent" horiz-adv-x="1232" unicode="Ż"/><glyph d="M508 1169q-57 0 -97 40t-40 97.5t40 97.5t97 40q55 0 96 -40t41 -97.5t-41 -97.5t-96 -40zM930 973v-168q0 -25 -15 -39l-507 -545h491q31 0 31 -31v-159q0 -31 -31 -31h-786q-31 0 -31 31v168q0 25 14 39l510 544h-493q-31 0 -31 31v160q0 31 31 31h786q31 0 31 -31z " glyph-name="zdotaccent" horiz-adv-x="1013" unicode="ż"/><glyph d="M694 1585h-155q-23 0 -37 17l-197 221q-12 14 -7 25.5t26 11.5h131q23 0 37 -17l124 -145l123 145q14 16 37 17h133q20 0 25.5 -11.5t-6.5 -25.5l-197 -221q-14 -17 -37 -17zM1090 248q31 0 30 -31v-186q0 -31 -30 -31h-947q-31 0 -30 31v196q0 18 12 37l674 922h-635 q-31 0 -31 31v186q0 31 31 31h905q31 0 31 -31v-197q0 -18 -13 -37l-673 -921h676z" glyph-name="Zcaron" horiz-adv-x="1232" unicode="Ž"/><glyph d="M586 1155h-156q-23 0 -37 16l-196 222q-12 14 -7 25.5t25 11.5h131q23 0 37 -17l125 -145l123 145q14 16 37 17h133q20 0 25 -11.5t-7 -25.5l-196 -222q-14 -16 -37 -16zM930 973v-168q0 -25 -15 -39l-507 -545h491q31 0 31 -31v-159q0 -31 -31 -31h-786q-31 0 -31 31 v168q0 25 14 39l510 544h-493q-31 0 -31 31v160q0 31 31 31h786q31 0 31 -31z" glyph-name="zcaron" horiz-adv-x="1013" unicode="ž"/><glyph d="M764 1432q20 -12 20 -37v-183q0 -18 -11 -24t-25 2q-59 35 -119 35q-68 0 -90.5 -31t-22.5 -96v-94h213q31 0 31 -31v-160q0 -31 -31 -31h-213v-837q0 -166 -91 -250t-257 -84q-106 0 -168 35q-20 12 -20 37v182q0 18 10 24.5t26 -2.5q59 -35 119 -34q68 0 89.5 30.5 t21.5 96.5v802h-119q-31 0 -31 31v160q0 31 31 31h119v129q0 166 92 249.5t258 83.5q107 1 168 -34z" glyph-name="florin" horiz-adv-x="763" unicode="ƒ"/><glyph d="M606 1602l-196 221q-12 14 -7 25.5t25 11.5h131q23 0 37 -17l125 -145l123 145q14 16 37 17h133q20 0 25 -11.5t-7 -25.5l-196 -221q-14 -16 -37 -17h-156q-23 1 -37 17zM1348 35q14 -35 -25 -35h-227q-27 0 -35 25l-82 243h-537l-82 -243q-8 -25 -34 -25h-228 q-39 0 -24 35l497 1374q10 25 35 25h205q31 0 39 -25zM518 494h385l-192 575z" glyph-name="uni01CD" horiz-adv-x="1421" unicode="Ǎ"/><glyph d="M498 1171l-197 222q-12 14 -7 25.5t25 11.5h132q23 0 36 -17l125 -145l123 145q14 16 37 17h133q20 0 25.5 -11.5t-6.5 -25.5l-197 -222q-14 -16 -37 -16h-155q-23 0 -37 16zM1104 1004q31 0 31 -31v-942q0 -31 -31 -31h-178q-27 0 -31 31l-12 98q-113 -143 -303 -143 q-211 0 -349.5 148.5t-138.5 365.5q0 221 138.5 372.5t349.5 151.5q188 0 305 -154l10 103q4 31 31 31h178zM610.5 231q112.5 0 184 77t71.5 193.5t-71.5 196.5t-184 80t-185.5 -77.5t-73 -198.5q0 -117 73 -194t185.5 -77z" glyph-name="uni01CE" unicode="ǎ"/><glyph d="M362 1585h-155q-23 0 -37 17l-197 221q-12 14 -7 25.5t26 11.5h131q23 0 37 -17l125 -145l123 145q14 16 36 17h134q20 0 25 -11.5t-7 -25.5l-197 -221q-14 -17 -37 -17zM143 1403q0 31 31 31h219q31 0 31 -31v-1372q0 -31 -31 -31h-219q-31 0 -31 31v1372z" glyph-name="uni01CF" horiz-adv-x="567" unicode="Ǐ"/><glyph d="M328 1155h-156q-23 0 -37 16l-196 222q-12 14 -7 25.5t25 11.5h131q23 0 37 -17l125 -145l123 145q14 16 37 17h133q20 0 25 -11.5t-7 -25.5l-196 -222q-14 -16 -37 -16zM113 973q0 31 30 31h209q31 0 31 -31v-942q0 -31 -31 -31h-209q-31 0 -30 31v942z" glyph-name="uni01D0" horiz-adv-x="497" unicode="ǐ"/><glyph d="M918 1585h-156q-23 0 -37 17l-197 221q-12 14 -7 25.5t26 11.5h131q23 0 37 -17l125 -145l123 145q14 16 36 17h134q20 0 25 -11.5t-7 -25.5l-197 -221q-13 -17 -36 -17zM840 -27q-305 0 -521.5 215t-216.5 522.5t216.5 523.5t521.5 216t521 -216t216 -523.5t-216 -522.5 t-521 -215zM839.5 248q192.5 0 322.5 133t130 330q0 199 -130 332t-322.5 133t-322.5 -133.5t-130 -331.5q0 -197 130 -330t322.5 -133z" glyph-name="uni01D1" horiz-adv-x="1679" unicode="Ǒ"/><glyph d="M690 1155h-155q-23 0 -37 16l-197 222q-12 14 -7 25.5t25 11.5h132q23 0 36 -17l125 -145l123 145q14 16 37 17h133q20 0 25.5 -11.5t-6.5 -25.5l-197 -222q-14 -16 -37 -16zM612 -20q-217 0 -368.5 152.5t-151.5 369.5q0 219 151.5 371.5t368.5 152.5t369 -152.5 t152 -371.5q0 -217 -152 -369.5t-369 -152.5zM612 229q109 0 184.5 78t75.5 195q0 119 -75.5 196.5t-184.5 77.5q-111 0 -185.5 -77.5t-74.5 -196.5q0 -117 74.5 -195t185.5 -78z" glyph-name="uni01D2" horiz-adv-x="1224" unicode="ǒ"/><glyph d="M756 1585h-156q-23 0 -37 17l-196 221q-12 14 -7 25.5t25 11.5h131q23 0 37 -17l125 -145l123 145q14 16 37 17h133q20 0 25 -11.5t-7 -25.5l-196 -221q-14 -17 -37 -17zM1190 1434q31 0 31 -31v-846q0 -276 -150.5 -430t-392.5 -154q-244 0 -394.5 154t-150.5 430v846 q0 31 31 31h219q31 0 31 -31v-846q0 -150 69.5 -229.5t194.5 -79.5t193.5 80t68.5 229v846q0 31 31 31h219z" glyph-name="uni01D3" horiz-adv-x="1353" unicode="Ǔ"/><glyph d="M473 1171l-197 222q-12 14 -7 25.5t26 11.5h131q23 0 37 -17l125 -145l123 145q14 16 37 17h133q20 0 25 -11.5t-7 -25.5l-197 -222q-14 -16 -36 -16h-156q-23 0 -37 16zM1032 1004q31 0 31 -31v-942q0 -31 -31 -31h-201q-27 0 -30 31l-8 112q-121 -170 -299 -170 q-172 0 -276.5 113t-104.5 311v576q0 31 30 31h209q31 0 31 -31v-527q0 -115 55.5 -169t136.5 -54q98 0 158 64.5t60 130.5v555q0 31 30 31h209z" glyph-name="uni01D4" horiz-adv-x="1185" unicode="ǔ"/><glyph d="M811 -27q-84 -47 -84 -131q0 -45 35 -69.5t102 -10.5v-168q-45 -20 -105.5 -21t-117.5 17.5t-96 70.5t-39 128q0 123 119 217q-229 68 -376 262.5t-147 442.5q0 307 216.5 523t521.5 216t521 -216t216 -523.5t-216 -522.5t-521 -215h-29zM387 711q0 -197 130 -330 t322.5 -133t322.5 133t130 330q0 199 -130 332t-322.5 133t-322.5 -133t-130 -332z" glyph-name="uni01EA" horiz-adv-x="1658" unicode="Ǫ"/><glyph d="M694 -14q-121 -51 -121 -144q0 -45 35 -69.5t103 -10.5v-168q-45 -20 -104.5 -21t-117 17.5t-96.5 70.5t-39 128q0 125 119 209q-168 47 -274.5 185.5t-106.5 318.5q0 219 151.5 371.5t368.5 152.5t369 -152.5t152 -371.5q0 -195 -125.5 -341t-313.5 -175zM352 502 q0 -117 75 -195t185 -78q109 0 184.5 78t75.5 195q0 119 -75.5 196.5t-184.5 77.5q-111 0 -185.5 -77.5t-74.5 -196.5z" glyph-name="uni01EB" horiz-adv-x="1204" unicode="ǫ"/><glyph d="M410 1042q0 -68 69.5 -113.5t167.5 -79.5t196.5 -79t168 -139t69.5 -232q0 -193 -148.5 -308.5t-348.5 -115.5q-150 0 -283 64.5t-201 159.5q-16 23 2 43l123 133q20 25 45 2q160 -139 320 -139q92 0 154.5 46t62.5 122q0 59 -49 103t-124 71.5t-162 66.5t-161.5 83 t-124 126t-49.5 193q0 180 131 290.5t316 110.5q250 0 436 -190q20 -20 2 -43l-113 -138q-18 -25 -43 -6q-147 115 -274 115q-84 0 -133 -41.5t-49 -104.5zM577.5 -78q65.5 0 109.5 -48t44 -134q0 -96 -54 -208t-142 -208l-70 43q78 115 88 256q-55 8 -93 50t-38 100 q0 63 45 106t110.5 43z" glyph-name="Scommaaccent" horiz-adv-x="1173" unicode="Ș"/><glyph d="M369 723q0 -37 35.5 -63.5t90 -40t118 -38t117.5 -54t90 -92t36 -148.5q0 -137 -116.5 -222t-266.5 -85q-121 0 -222 49t-161 118q-16 18 0 41l80 113q16 20 45 -2q145 -92 250 -92q129 0 129 84q0 43 -50 72.5t-121 52t-142.5 53.5t-121.5 94.5t-50 157.5q0 139 102 222 t246 83q215 0 344 -152q16 -20 -2 -43l-78 -102q-16 -20 -45 2q-119 78 -197 78q-47 0 -78.5 -23.5t-31.5 -62.5zM477.5 -78q65.5 0 109.5 -48t44 -134q0 -96 -54.5 -208t-142.5 -208l-69 43q78 115 88 256q-55 8 -93 50t-38 100q0 63 45 106t110.5 43z" glyph-name="scommaaccent" horiz-adv-x="937" unicode="ș"/><glyph d="M1034 1434q31 0 31 -31v-186q0 -31 -31 -31h-309v-1155q0 -31 -31 -31h-219q-31 0 -31 31v1155h-311q-31 0 -31 31v186q0 31 31 31h901zM589.5 -78q65.5 0 109.5 -48t44 -134q0 -96 -54 -208t-142 -208l-70 43q78 115 88 256q-55 8 -93 50t-38 100q0 63 45 106t110.5 43z " glyph-name="uni021A" horiz-adv-x="1167" unicode="Ț"/><glyph d="M700 1004q31 0 31 -31v-160q0 -31 -31 -31h-163v-751q0 -31 -31 -31h-209q-31 0 -31 31v751h-164q-31 0 -30 31v160q0 31 30 31h164v276q0 31 31 31h209q31 0 31 -31v-276h163zM409.5 -70q65.5 0 109.5 -48t44 -134q0 -96 -54 -207.5t-142 -208.5l-70 43q78 115 88 256 q-55 8 -93 50.5t-38 99.5q0 63 45 106t110.5 43z" glyph-name="uni021B" horiz-adv-x="804" unicode="ț"/><glyph d="M291 1004h209q31 0 30 -31v-953q0 -205 -109.5 -312t-297.5 -114q-20 0 -25 17l-65 213q-8 23 14 22q92 6 152.5 60.5t60.5 163.5v903q0 31 31 31z" glyph-name="uni0237" horiz-adv-x="632" unicode="ȷ"/><glyph d="M430 1434q23 0 37 -17l197 -221q12 -14 7 -25.5t-26 -11.5h-133q-23 0 -37 17l-123 145l-125 -145q-14 -16 -37 -17h-131q-20 0 -25 11.5t7 25.5l197 221q14 16 36 17h156z" glyph-name="circumflex" horiz-adv-x="704" unicode="ˆ"/><glyph d="M430 1159h-156q-23 0 -36 17l-197 221q-12 14 -7 25.5t25 11.5h131q23 0 37 -17l125 -145l123 145q14 16 37 17h133q20 0 25.5 -11.5t-6.5 -25.5l-197 -221q-14 -17 -37 -17z" glyph-name="caron" horiz-adv-x="704" unicode="ˇ"/><glyph d="M504 1405q6 29 33 29h102q33 0 29 -31q-10 -113 -95.5 -186.5t-222.5 -73.5t-222 73.5t-95 186.5q-4 31 28 31h105q23 0 33 -29q12 -45 51 -77t100.5 -32t101.5 32t52 77z" glyph-name="breve" horiz-adv-x="700" unicode="˘"/><glyph d="M168 1169q-57 0 -97 40t-40 97.5t40 97.5t97 40q55 0 96 -40t41 -97.5t-41 -97.5t-96 -40z" glyph-name="dotaccent" horiz-adv-x="335" unicode="˙"/><glyph d="M240 1513q82 0 142 -61t60 -143t-60 -142.5t-142 -60.5q-86 0 -147.5 60.5t-61.5 142.5q0 84 61.5 144t147.5 60zM237.5 1262q20.5 0 35 14t14.5 34.5t-14.5 35t-35 14.5t-35 -14.5t-14.5 -35t14.5 -34.5t35 -14z" glyph-name="ring" horiz-adv-x="473" unicode="˚"/><glyph d="M440 0q-86 0 -137 -49t-51 -109q0 -45 35 -69.5t102 -10.5v-168q-45 -20 -105.5 -21t-117.5 17.5t-96 70.5t-39 128q0 100 76.5 177t167 110t165.5 33v-109z" glyph-name="ogonek" horiz-adv-x="471" unicode="˛"/><glyph d="M246 1479q68 0 127 -36t109 -72t96 -36q70 0 94 58q6 16 22 16h60q20 0 20 -20q-6 -102 -65.5 -154.5t-149.5 -52.5q-68 0 -127 35.5t-109.5 70.5t-95.5 35q-70 0 -94 -57q-6 -16 -22 -17h-60q-20 0 -20 27q8 98 66.5 150.5t148.5 52.5z" glyph-name="tilde" horiz-adv-x="804" unicode="˜"/><glyph d="M377 1491q41 0 24 -35l-122 -258q-10 -25 -35 -24h-185q-41 0 -24 34l123 258q10 25 35 25h184zM752 1491q41 0 24 -35l-123 -258q-10 -25 -35 -24h-184q-41 0 -24 34l122 258q10 25 35 25h185z" glyph-name="hungarumlaut" horiz-adv-x="858" unicode="˝"/><glyph d="M-174.5 -78q65.5 0 110 -48t44.5 -134q0 -96 -54.5 -208t-142.5 -208l-70 43q78 115 88 256q-55 8 -93 50t-38 100q0 63 45 106t110.5 43z" glyph-name="uni0326" horiz-adv-x="0" unicode="̦"/><glyph d="M1350 35q14 -35 -25 -35h-1225q-39 0 -24 35l497 1374q8 25 35 25h205q31 0 39 -25zM713 1069l-285 -848h569z" glyph-name="Delta" horiz-adv-x="1404" unicode="Δ"/><glyph d="M1327 225v-4h240v-221h-520v317q240 133 239 420q0 190 -132 316.5t-324.5 126.5t-324.5 -126t-132 -317q0 -287 239 -420v-317h-520v221h240v4q-123 90 -181.5 229.5t-58.5 282.5q0 301 215 507t522.5 206t522.5 -206t215 -507q0 -143 -58.5 -282.5t-181.5 -229.5z" glyph-name="Omega" horiz-adv-x="1658" unicode="Ω"/><glyph d="M1032 1004q31 0 31 -31v-942q0 -31 -31 -31h-201q-27 0 -30 31l-8 112q-121 -170 -299 -170q-61 0 -121 17v-348q0 -31 -31 -31h-209q-31 0 -31 31v1112h11v219q0 31 30 31h209q31 0 31 -31v-527q0 -115 55.5 -169t136.5 -54q98 0 158 64.5t60 130.5v555q0 31 30 31h209z " glyph-name="mu" horiz-adv-x="1165" unicode="μ"/><glyph d="M1337 233q37 6 37 -28v-160q0 -59 -178 -59q-123 0 -202 68.5t-79 215.5v512h-319v-751q0 -31 -31 -31h-209q-31 0 -30 31v751h-172q-31 0 -31 31v160q0 31 31 31h1155q31 0 30 -31v-160q0 -31 -30 -31h-123v-465q0 -88 80 -88q46 0 71 4z" glyph-name="pi" horiz-adv-x="1445" unicode="π"/><glyph d="M338 1599q-57 0 -97 40t-40 97.5t40 97.5t97 40q55 0 96 -40t41 -97.5t-41 -97.5t-96 -40zM780.5 1599q-55.5 0 -96.5 40t-41 97.5t41 97.5t96.5 40t96.5 -40t41 -97.5t-41 -97.5t-96.5 -40zM930 248q31 0 31 -31v-186q0 -31 -31 -31h-756q-31 0 -31 31v1372q0 31 31 31 h754q31 0 30 -31v-186q0 -31 -30 -31h-504v-324h473q31 0 31 -31v-186q0 -31 -31 -31h-473v-366h506z" glyph-name="afii10023" horiz-adv-x="1093" unicode="Ё"/><glyph d="M432 1542q-41 0 -24 35l122 258q10 25 35 25h185q41 0 24 -35l-123 -258q-10 -25 -35 -25h-184zM926 1434q31 0 30 -31v-186q0 -31 -30 -31h-502v-1155q0 -31 -31 -31h-219q-31 0 -31 31v1372q0 31 31 31h752z" glyph-name="afii10052" horiz-adv-x="1028" unicode="Ѓ"/><glyph d="M1204 369l135 -146q20 -23 0 -43q-207 -207 -499 -207q-307 0 -522.5 214t-215.5 523.5t215 524.5t523 215q293 0 499 -207q20 -23 0 -43l-135 -145q-18 -23 -43 -2q-139 123 -323 123q-154 0 -271.5 -92.5t-158.5 -241.5h460q31 0 31 -31v-188q0 -31 -31 -31h-462 q37 -154 155.5 -249t276.5 -95q184 0 323 123q25 21 43 -2z" glyph-name="afii10053" horiz-adv-x="1423" unicode="Є"/><glyph d="M143 1403q0 31 31 31h219q31 0 31 -31v-1372q0 -31 -31 -31h-219q-31 0 -31 31v1372z" glyph-name="afii10055" horiz-adv-x="567" unicode="І"/><glyph d="M63 1599q-57 0 -97 40t-40 97.5t40 97.5t97 40q55 0 96.5 -40t41.5 -97.5t-41.5 -97.5t-96.5 -40zM506 1599q-55 0 -96 40t-41 97.5t41 97.5t96 40t96 -40t41 -97.5t-41 -97.5t-96 -40zM143 1403q0 31 31 31h219q31 0 31 -31v-1372q0 -31 -31 -31h-219q-31 0 -31 31v1372 z" glyph-name="afii10056" horiz-adv-x="567" unicode="Ї"/><glyph d="M584 1542q-41 0 -25 35l123 258q10 25 35 25h184q41 0 25 -35l-123 -258q-10 -25 -35 -25h-184zM1282 37q10 -16 5 -26.5t-23 -10.5h-260q-25 0 -37 18l-428 590l-115 -133v-444q0 -31 -31 -31h-219q-31 0 -31 31v1372q0 31 31 31h219q31 0 31 -31v-555l479 569 q14 16 37 17h272q20 0 24.5 -11.5t-7.5 -25.5l-504 -576z" glyph-name="afii10061" horiz-adv-x="1361" unicode="Ќ"/><glyph d="M719 1571q-137 0 -222 73.5t-96 186.5q-4 31 29 31h105q23 0 32 -29q12 -45 51 -77t100.5 -32t101.5 32t52 77q6 29 33 29h103q33 0 28 -31q-10 -113 -95 -186.5t-222 -73.5zM1331 1434q18 0 24.5 -10.5t-3.5 -26.5l-832 -1377q-12 -20 -37 -20h-231q-41 0 -21 37 l340 561l-483 799q-10 16 -4 26.5t25 10.5h231q25 0 37 -21l344 -567l342 567q12 20 37 21h231z" glyph-name="afii10062" horiz-adv-x="1439" unicode="Ў"/><glyph d="M1348 35q14 -35 -25 -35h-227q-27 0 -35 25l-82 243h-537l-82 -243q-8 -25 -34 -25h-228q-39 0 -24 35l497 1374q10 25 35 25h205q31 0 39 -25zM518 494h385l-192 575z" glyph-name="afii10017" horiz-adv-x="1421" unicode="А"/><glyph d="M598 936q248 0 384 -129t136 -340t-136 -339t-384 -128h-424q-31 0 -31 31v1372q0 31 31 31h752q31 0 30 -31v-186q0 -31 -30 -31h-502v-250h174zM592 248q111 0 184.5 52t73.5 167q0 117 -72.5 168t-185.5 51h-168v-438h168z" glyph-name="afii10018" horiz-adv-x="1179" unicode="Б"/><glyph d="M905 768q121 -31 203 -126t82 -228q0 -414 -528 -414h-488q-31 0 -31 31v1372q0 31 31 31h488q205 0 315 -103.5t110 -259.5q0 -109 -51 -190.5t-131 -112.5zM823 1036q0 150 -188 150h-211v-318h211q188 0 188 168zM670 248q240 0 239 196q0 94 -62.5 143.5t-176.5 49.5 h-246v-389h246z" glyph-name="afii10019" horiz-adv-x="1273" unicode="В"/><glyph d="M926 1434q31 0 30 -31v-186q0 -31 -30 -31h-502v-1155q0 -31 -31 -31h-219q-31 0 -31 31v1372q0 31 31 31h752z" glyph-name="afii10020" horiz-adv-x="1028" unicode="Г"/><glyph d="M1561 248q31 0 30 -31v-328q0 -31 -30 -30h-220q-31 0 -30 30v111h-949v-111q0 -31 -30 -30h-219q-31 0 -31 30v328q0 31 31 31h43q70 16 113.5 70.5t43.5 146.5v938q0 31 31 31h1049q31 0 30 -31v-1155h138zM594 416q0 -94 -25 -168h574v938h-549v-770z" glyph-name="afii10021" horiz-adv-x="1673" unicode="Д"/><glyph d="M930 248q31 0 31 -31v-186q0 -31 -31 -31h-756q-31 0 -31 31v1372q0 31 31 31h754q31 0 30 -31v-186q0 -31 -30 -31h-504v-324h473q31 0 31 -31v-186q0 -31 -31 -31h-473v-366h506z" glyph-name="afii10022" horiz-adv-x="1093" unicode="Е"/><glyph d="M2083 37q10 -16 5 -26.5t-24 -10.5h-260q-25 0 -37 18l-428 590l-114 -133v-444q0 -31 -31 -31h-238q-31 0 -30 31v444l-115 133l-428 -590q-12 -18 -37 -18h-260q-18 0 -23.5 10t5.5 27l557 784l-504 576q-12 14 -8 25.5t24 11.5h273q23 0 36 -17l480 -569v555 q0 31 30 31h238q31 0 31 -31v-555l479 569q14 16 37 17h272q20 0 24.5 -11.5t-7.5 -25.5l-504 -576z" glyph-name="afii10024" horiz-adv-x="2142" unicode="Ж"/><glyph d="M795 762q104 -41 175.5 -131t71.5 -209q0 -186 -143 -312t-367 -126q-276 0 -432 178q-18 23 2 43l138 131q20 20 45 0q102 -86 235 -86q111 0 173.5 51t62.5 137q0 80 -72 137.5t-227 59.5q-31 0 -31 31v161q0 31 33 31q262 4 262 168q0 74 -58.5 116t-125.5 42 q-115 0 -209 -80q-25 -20 -45 0l-133 127q-20 20 -3 43q70 82 174.5 129t223.5 47q182 0 316 -108.5t134 -276.5q0 -100 -57 -181t-143 -122z" glyph-name="afii10025" horiz-adv-x="1134" unicode="З"/><glyph d="M1243 1434q31 0 31 -31v-1372q0 -31 -31 -31h-219q-31 0 -31 31v962l-551 -973q-12 -20 -36 -20h-252q-31 0 -31 31v1372q0 31 31 31h219q31 0 30 -31v-963l551 973q12 20 37 21h252z" glyph-name="afii10026" horiz-adv-x="1417" unicode="И"/><glyph d="M708.5 1571q-137.5 0 -222.5 73.5t-95 186.5q-2 31 29 31h104q23 0 33 -29q12 -45 51 -77t100.5 -32t101.5 32t52 77q6 29 33 29h102q31 0 29 -31q-10 -113 -95 -186.5t-222.5 -73.5zM1243 1434q31 0 31 -31v-1372q0 -31 -31 -31h-219q-31 0 -31 31v962l-551 -973 q-12 -20 -36 -20h-252q-31 0 -31 31v1372q0 31 31 31h219q31 0 30 -31v-963l551 973q12 20 37 21h252z" glyph-name="afii10027" horiz-adv-x="1417" unicode="Й"/><glyph d="M1282 37q10 -16 5 -26.5t-23 -10.5h-260q-25 0 -37 18l-428 590l-115 -133v-444q0 -31 -31 -31h-219q-31 0 -31 31v1372q0 31 31 31h219q31 0 31 -31v-555l479 569q14 16 37 17h272q20 0 24.5 -11.5t-7.5 -25.5l-504 -576z" glyph-name="afii10028" horiz-adv-x="1361" unicode="К"/><glyph d="M1350 1434q31 0 30 -31v-1372q0 -31 -30 -31h-220q-31 0 -30 31v1155h-549v-770q0 -205 -114.5 -315.5t-303.5 -110.5q-18 0 -24 16l-66 213q-8 23 14 23q88 0 150.5 56t62.5 167v938q0 31 31 31h1049z" glyph-name="afii10029" horiz-adv-x="1503" unicode="Л"/><glyph d="M1628 1434q31 0 31 -31v-1372q0 -31 -31 -31h-219q-31 0 -31 31v880l-26 -90l-316 -796q-8 -25 -37 -25h-194q-27 0 -37 25l-317 796l-27 92v-882q0 -31 -31 -31h-219q-31 0 -31 31v1372q0 31 31 31h246q29 0 37 -21l444 -1091l442 1091q8 20 37 21h248z" glyph-name="afii10030" horiz-adv-x="1804" unicode="М"/><glyph d="M1212 1434q31 0 31 -31v-1372q0 -31 -31 -31h-219q-31 0 -30 31v551h-539v-551q0 -31 -31 -31h-219q-31 0 -31 31v1372q0 31 31 31h219q31 0 31 -31v-574h539v574q0 31 30 31h219z" glyph-name="afii10031" horiz-adv-x="1388" unicode="Н"/><glyph d="M840 -27q-305 0 -521.5 215t-216.5 522.5t216.5 523.5t521.5 216t521 -216t216 -523.5t-216 -522.5t-521 -215zM839.5 248q192.5 0 322.5 133t130 330q0 199 -130 332t-322.5 133t-322.5 -133.5t-130 -331.5q0 -197 130 -330t322.5 -133z" glyph-name="afii10032" horiz-adv-x="1679" unicode="О"/><glyph d="M1212 1434q31 0 31 -31v-1372q0 -31 -31 -31h-219q-31 0 -30 31v1155h-539v-1155q0 -31 -31 -31h-219q-31 0 -31 31v1372q0 31 31 31h1038z" glyph-name="afii10033" horiz-adv-x="1368" unicode="П"/><glyph d="M598 1434q248 0 384 -128t136 -339t-136 -340t-384 -129h-174v-467q0 -31 -31 -31h-219q-31 0 -31 31v1372q0 31 31 31h424zM592 748q113 0 185.5 51t72.5 168q0 115 -74 167t-184 52h-168v-438h168z" glyph-name="afii10034" horiz-adv-x="1200" unicode="Р"/><glyph d="M1204 369l135 -146q20 -23 0 -43q-207 -207 -499 -207q-307 0 -522.5 214t-215.5 523.5t215 524.5t523 215q293 0 499 -207q20 -23 0 -43l-135 -145q-18 -23 -43 -2q-139 123 -323 123q-188 0 -317.5 -133.5t-129.5 -331.5q0 -197 129 -330t318 -133q184 0 323 123 q25 21 43 -2z" glyph-name="afii10035" horiz-adv-x="1443" unicode="С"/><glyph d="M1034 1434q31 0 31 -31v-186q0 -31 -31 -31h-309v-1155q0 -31 -31 -31h-219q-31 0 -31 31v1155h-311q-31 0 -31 31v186q0 31 31 31h901z" glyph-name="afii10036" horiz-adv-x="1167" unicode="Т"/><glyph d="M1331 1434q18 0 24.5 -10.5t-3.5 -26.5l-832 -1377q-12 -20 -37 -20h-231q-41 0 -21 37l340 561l-483 799q-10 16 -4 26.5t25 10.5h231q25 0 37 -21l344 -567l342 567q12 20 37 21h231z" glyph-name="afii10037" horiz-adv-x="1439" unicode="У"/><glyph d="M1116 1311q307 0 488.5 -178.5t181.5 -416t-181.5 -415.5t-488.5 -178h-31v-92q0 -31 -30 -31h-219q-31 0 -31 31v92h-51q-307 0 -489.5 178t-182.5 415.5t182 416t490 178.5h51v92q0 31 31 31h219q31 0 30 -31v-92h31zM754 371h51v692h-51q-182 0 -284.5 -98.5 t-102.5 -248t102.5 -247.5t284.5 -98zM1116 371q180 0 282.5 98t102.5 247.5t-102.5 248t-282.5 98.5h-31v-692h31z" glyph-name="afii10038" horiz-adv-x="1869" unicode="Ф"/><glyph d="M1241 37q20 -37 -20 -37h-232q-25 0 -37 20l-282 467l-283 -467q-12 -20 -37 -20h-231q-41 0 -21 37l422 696l-401 664q-20 37 20 37h232q25 0 37 -21l262 -432l262 432q12 20 37 21h231q41 0 21 -37l-402 -664z" glyph-name="afii10039" horiz-adv-x="1339" unicode="Х"/><glyph d="M1384 248q31 0 31 -31v-328q0 -31 -31 -30h-219q-31 0 -30 30v111h-961q-31 0 -31 31v1372q0 31 31 31h219q31 0 31 -31v-1155h539v1155q0 31 30 31h219q31 0 31 -31v-1155h141z" glyph-name="afii10040" horiz-adv-x="1497" unicode="Ц"/><glyph d="M1151 1434q31 0 31 -31v-1372q0 -31 -31 -31h-219q-31 0 -31 31v577q-147 -193 -405 -192q-170 0 -292 126t-122 322v539q0 31 31 31h219q31 0 30 -31v-490q0 -115 68 -169t156 -54q129 0 222 65.5t93 112.5v535q0 31 31 31h219z" glyph-name="afii10041" horiz-adv-x="1314" unicode="Ч"/><glyph d="M2032 1434q31 0 30 -31v-1372q0 -31 -30 -31h-1858q-31 0 -31 31v1372q0 31 31 31h219q31 0 31 -31v-1155h539v1155q0 31 30 31h219q31 0 31 -31v-1155h539v1155q0 31 30 31h220z" glyph-name="afii10042" horiz-adv-x="2187" unicode="Ш"/><glyph d="M2204 248q31 0 30 -31v-328q0 -31 -30 -30h-219q-31 0 -31 30v111h-1780q-31 0 -31 31v1372q0 31 31 31h219q31 0 31 -31v-1155h539v1155q0 31 30 31h219q31 0 31 -31v-1155h539v1155q0 31 30 31h220q31 0 30 -31v-1155h142z" glyph-name="afii10043" horiz-adv-x="2316" unicode="Щ"/><glyph d="M762 936q248 0 384 -129t136 -340t-136 -339t-384 -128h-424q-31 0 -31 31v1155h-225q-31 0 -31 31v186q0 31 31 31h475q31 0 31 -31v-467h174zM756 248q111 0 184.5 52t73.5 167q0 117 -73 168t-185 51h-168v-438h168z" glyph-name="afii10044" horiz-adv-x="1343" unicode="Ъ"/><glyph d="M598 0h-424q-31 0 -31 31v1372q0 31 31 31h219q31 0 31 -31v-467h174q248 0 384 -129t136 -340t-136 -339t-384 -128zM1368 1403q0 31 31 31h219q31 0 31 -31v-1372q0 -31 -31 -31h-219q-31 0 -31 31v1372zM592 686h-168v-438h168q111 0 184.5 52t73.5 167 q0 117 -72.5 168t-185.5 51z" glyph-name="afii10045" horiz-adv-x="1773" unicode="Ы"/><glyph d="M598 0h-424q-31 0 -31 31v1372q0 31 31 31h219q31 0 31 -31v-467h174q248 0 384 -129t136 -340t-136 -339t-384 -128zM592 686h-168v-438h168q111 0 184.5 52t73.5 167q0 117 -72.5 168t-185.5 51z" glyph-name="afii10046" horiz-adv-x="1179" unicode="Ь"/><glyph d="M594 1450q307 0 522 -215t215 -524.5t-215 -523.5t-522 -214q-293 0 -500 207q-20 20 0 43l135 146q18 23 43 2q139 -123 324 -123q158 0 276.5 95t155.5 249h-463q-31 0 -30 31v188q0 31 30 31h461q-41 150 -158.5 242t-271.5 92q-184 0 -324 -123q-25 -20 -43 2 l-135 145q-20 20 0 43q207 207 500 207z" glyph-name="afii10047" horiz-adv-x="1423" unicode="Э"/><glyph d="M1280 1450q305 0 521 -216t216 -523.5t-216 -522.5t-521 -215q-272 0 -479 177.5t-248 441.5h-129v-561q0 -31 -31 -31h-219q-31 0 -31 31v1372q0 31 31 31h219q31 0 31 -31v-561h131q47 262 252 435t473 173zM1280 248q193 0 323 133t130 330q0 199 -130 332t-323 133 t-323 -133.5t-130 -331.5q0 -197 130 -330t323 -133z" glyph-name="afii10048" horiz-adv-x="2099" unicode="Ю"/><glyph d="M1077 1434q31 0 31 -31v-1372q0 -31 -31 -31h-219q-31 0 -31 31v467h-118l-310 -478q-12 -20 -37 -20h-233q-43 0 -20 37l325 493q-145 49 -223 164t-78 273q0 211 136.5 339t383.5 128h424zM827 748v438h-168q-111 0 -184.5 -52.5t-73.5 -166.5q0 -117 73 -168t185 -51 h168z" glyph-name="afii10049" horiz-adv-x="1251" unicode="Я"/><glyph d="M1104 1004q31 0 31 -31v-942q0 -31 -31 -31h-178q-27 0 -31 31l-12 98q-113 -143 -303 -143q-211 0 -349.5 148.5t-138.5 365.5q0 221 138.5 372.5t349.5 151.5q188 0 305 -154l10 103q4 31 31 31h178zM610.5 231q112.5 0 184 77t71.5 193.5t-71.5 196.5t-184 80 t-185.5 -77.5t-73 -198.5q0 -117 73 -194t185.5 -77z" glyph-name="afii10065" unicode="а"/><glyph d="M674 1026q209 0 347 -152.5t138 -373.5t-138 -374t-347 -153q-178 0 -303 142l-6 -84q-4 -31 -31 -31h-191q-31 0 -30 31v1030q0 373 333 373h248q109 0 154 41h211q-6 -156 -100.5 -217.5t-264.5 -61.5h-180q-74 0 -103.5 -36t-29.5 -109v-160q125 135 293 135zM641 219 q113 0 185.5 81t72.5 202t-72.5 199.5t-185.5 78.5q-109 0 -182.5 -82t-73.5 -196.5t73.5 -198.5t182.5 -84z" glyph-name="afii10066" horiz-adv-x="1241" unicode="б"/><glyph d="M893 528q100 -20 159.5 -86.5t59.5 -152.5q0 -145 -122 -217t-337 -72h-510q-31 0 -30 31v942q0 31 30 31h510q170 0 275.5 -74t105.5 -203q0 -144 -141 -199zM791 698q0 25 -7.5 40.5t-42 29.5t-98.5 14h-260v-172h260q90 0 119 24.5t29 63.5zM643 221q125 0 167 25.5 t42 75.5q0 47 -42 72.5t-167 25.5h-260v-199h260z" glyph-name="afii10067" horiz-adv-x="1183" unicode="в"/><glyph d="M797 1004q31 0 30 -31v-160q0 -31 -30 -31h-414v-751q0 -31 -31 -31h-209q-31 0 -30 31v942q0 31 30 31h654z" glyph-name="afii10068" horiz-adv-x="899" unicode="г"/><glyph d="M1413 221q31 0 31 -31v-282q0 -31 -31 -31h-209q-31 0 -30 31v92h-822v-92q0 -31 -30 -31h-209q-31 0 -31 31v315q0 18 16 19q88 0 150.5 56t62.5 167v508q0 31 31 31h877q31 0 30 -31v-752h164zM582 782v-366q0 -106 -33 -195h430v561h-397z" glyph-name="afii10069" horiz-adv-x="1525" unicode="д"/><glyph d="M1075 528q0 -66 -14 -93t-57 -27h-644q23 -96 96.5 -149.5t190.5 -53.5q115 0 213 69q27 16 45 -2l90 -88q20 -20 -2 -45q-154 -154 -372 -153q-231 0 -380 150.5t-149 369.5t144.5 368.5t361.5 149.5q213 0 345 -144.5t132 -351.5zM600 793q-94 0 -159.5 -54.5 t-84.5 -154.5h480q-14 98 -79 153.5t-157 55.5z" glyph-name="afii10070" horiz-adv-x="1167" unicode="е"/><glyph d="M1853 37q12 -16 7 -26.5t-25 -10.5h-252q-23 0 -37 16l-329 377l-119 -121v-241q0 -31 -31 -31h-209q-31 0 -31 31v241l-118 121l-330 -377q-14 -16 -37 -16h-252q-20 0 -25.5 10t7.5 27l467 532l-389 398q-14 16 -9.5 26.5t25.5 10.5h250q25 0 39 -17l372 -381v367 q0 31 31 31h209q31 0 31 -31v-367l372 381q14 16 39 17h250q20 0 25.5 -10.5t-8.5 -26.5l-390 -398z" glyph-name="afii10072" horiz-adv-x="1925" unicode="ж"/><glyph d="M655 537q160 -80 160 -244q0 -139 -108.5 -224t-257.5 -85q-240 0 -345 129q-25 33 5 61l94 94q23 23 55 -4q70 -55 164 -55q59 0 105 28.5t46 84.5q0 49 -48 81.5t-146 32.5q-23 0 -36 12.5t-13 32.5v88q0 47 49 47q158 0 158 95q0 39 -34 60.5t-87 21.5q-66 0 -133 -41 q-47 -31 -74 0l-74 79q-29 29 -2 60q111 125 316 125q135 0 235 -74t100 -194q0 -127 -129 -211z" glyph-name="afii10073" horiz-adv-x="907" unicode="з"/><glyph d="M1073 1004q29 0 29 -31v-942q0 -31 -31 -31h-209q-31 0 -31 31v616l-423 -627q-14 -20 -39 -20h-226q-31 0 -30 31v942q0 31 30 31h209q31 0 31 -31v-621l426 631q14 20 39 21h225z" glyph-name="afii10074" horiz-adv-x="1216" unicode="и"/><glyph d="M633 1141q-137 0 -222 73.5t-96 186.5q-4 31 29 31h105q23 0 32 -29q12 -45 51 -77t100.5 -32t101.5 32t52 77q6 29 33 29h103q33 0 28 -31q-10 -113 -95 -186.5t-222 -73.5zM1073 1004q29 0 29 -31v-942q0 -31 -31 -31h-209q-31 0 -31 31v616l-423 -627q-14 -20 -39 -20 h-226q-31 0 -30 31v942q0 31 30 31h209q31 0 31 -31v-621l426 631q14 20 39 21h225z" glyph-name="afii10075" horiz-adv-x="1216" unicode="й"/><glyph d="M1139 37q12 -16 7 -26.5t-26 -10.5h-252q-23 0 -37 16l-329 377l-119 -121v-241q0 -31 -31 -31h-209q-31 0 -30 31v942q0 31 30 31h209q31 0 31 -31v-367l373 381q14 16 39 17h249q20 0 25.5 -10.5t-8.5 -26.5l-389 -398z" glyph-name="afii10076" horiz-adv-x="1210" unicode="к"/><glyph d="M1167 1004q31 0 31 -31v-942q0 -31 -31 -31h-209q-31 0 -30 31v751h-398v-366q0 -207 -110.5 -316.5t-296.5 -109.5q-18 0 -25 16l-65 213q-8 23 14 23q88 0 150.5 56t62.5 167v508q0 31 31 31h876z" glyph-name="afii10077" horiz-adv-x="1312" unicode="л"/><glyph d="M1405 1004q31 0 31 -31v-942q0 -31 -31 -31h-209q-31 0 -31 31v506l-243 -514q-10 -23 -35 -23h-225q-25 0 -35 23l-244 516v-508q0 -31 -31 -31h-209q-31 0 -30 31v942q0 31 30 31h256q23 0 35 -23l342 -698l338 698q12 23 35 23h256z" glyph-name="afii10078" horiz-adv-x="1550" unicode="м"/><glyph d="M1081 1004q31 0 31 -31v-942q0 -31 -31 -31h-209q-31 0 -30 31v360h-459v-360q0 -31 -31 -31h-209q-31 0 -30 31v942q0 31 30 31h209q31 0 31 -31v-361h459v361q0 31 30 31h209z" glyph-name="afii10079" horiz-adv-x="1224" unicode="н"/><glyph d="M612 -20q-217 0 -368.5 152.5t-151.5 369.5q0 219 151.5 371.5t368.5 152.5t369 -152.5t152 -371.5q0 -217 -152 -369.5t-369 -152.5zM612 229q109 0 184.5 78t75.5 195q0 119 -75.5 196.5t-184.5 77.5q-111 0 -185.5 -77.5t-74.5 -196.5q0 -117 74.5 -195t185.5 -78z " glyph-name="afii10080" horiz-adv-x="1224" unicode="о"/><glyph d="M1081 1004q31 0 31 -31v-942q0 -31 -31 -31h-209q-31 0 -30 31v751h-459v-751q0 -31 -31 -31h-209q-31 0 -30 31v942q0 31 30 31h938z" glyph-name="afii10081" horiz-adv-x="1224" unicode="п"/><glyph d="M678 1024q211 0 349 -151.5t138 -372.5q0 -217 -138 -365.5t-349 -148.5q-174 0 -285 120v-464q0 -31 -31 -31h-208q-31 0 -31 31v1331q0 31 31 31h178q27 0 30 -31l11 -103q117 154 305 154zM647.5 231q112.5 0 185 77t72.5 194q0 121 -72.5 198.5t-185 77.5t-184.5 -80 t-72 -196.5t72 -193.5t184.5 -77z" glyph-name="afii10082" unicode="р"/><glyph d="M610 236q115 0 215 90q25 20 45 0l125 -119q20 -20 2 -43q-156 -178 -393 -178q-215 0 -363.5 151.5t-148.5 368.5t148.5 367.5t363.5 150.5q231 0 387 -178q18 -23 -2 -43l-125 -121q-20 -20 -45 2q-100 90 -209 90q-113 0 -185.5 -76.5t-72.5 -191.5t72.5 -192.5 t185.5 -77.5z" glyph-name="afii10083" horiz-adv-x="1087" unicode="с"/><glyph d="M850 1004q31 0 31 -31v-160q0 -31 -31 -31h-234v-751q0 -31 -30 -31h-209q-31 0 -31 31v751h-233q-31 0 -31 31v160q0 31 31 31h737z" glyph-name="afii10084" horiz-adv-x="962" unicode="т"/><glyph d="M1090 1004q37 0 24 -35l-530 -1334q-10 -25 -37 -24h-205q-41 0 -25 35l146 352l-387 971q-12 35 24 35h211q29 0 37 -25l246 -664l244 664q10 25 36 25h216z" glyph-name="afii10085" horiz-adv-x="1171" unicode="у"/><glyph d="M1415 1026q211 0 349.5 -152.5t138.5 -373.5t-138.5 -374t-349.5 -153q-168 0 -289 127v-458q0 -31 -30 -31h-209q-31 0 -31 31v464q-125 -129 -289 -129q-209 0 -347 153t-138 374t138 373.5t347 152.5q168 0 289 -125v457q0 31 31 31h209q31 0 30 -31v-467 q125 131 289 131zM600 223q109 0 182.5 82t73.5 196.5t-73.5 198.5t-182.5 84q-111 0 -184.5 -80.5t-73.5 -201.5t72.5 -200t185.5 -79zM1384.5 219q110.5 0 183 81t72.5 202t-72.5 199.5t-183 78.5t-184.5 -82t-74 -196q0 -117 74 -200t184.5 -83z" glyph-name="afii10086" horiz-adv-x="1984" unicode="ф"/><glyph d="M1063 37q10 -16 4 -26.5t-25 -10.5h-237q-23 0 -37 20l-186 289l-187 -289q-14 -20 -37 -20h-237q-18 0 -24.5 10t3.5 27l328 477l-311 453q-10 16 -4 26.5t24 10.5h238q23 0 37 -21l170 -264l170 264q14 20 36 21h238q18 0 24.5 -10.5t-3.5 -26.5l-312 -453z" glyph-name="afii10087" horiz-adv-x="1163" unicode="х"/><glyph d="M1219 221q31 0 30 -31v-282q0 -31 -30 -31h-209q-31 0 -31 31v92h-836q-31 0 -30 31v942q0 31 30 31h209q31 0 31 -31v-752h459v752q0 31 30 31h209q31 0 31 -31v-752h107z" glyph-name="afii10088" horiz-adv-x="1331" unicode="ц"/><glyph d="M1069 1004q31 0 31 -31v-942q0 -31 -31 -31h-209q-31 0 -31 31v354q-129 -143 -325 -143q-182 0 -302 106.5t-120 323.5v301q0 31 31 31h209q31 0 30 -31v-303q0 -102 51.5 -167t155.5 -65q156 0 270 162v373q0 31 31 31h209z" glyph-name="afii10089" horiz-adv-x="1214" unicode="ч"/><glyph d="M1434 1004q31 0 30 -31v-942q0 -31 -30 -31h-1291q-31 0 -30 31v942q0 31 30 31h209q31 0 31 -31v-752h270v752q0 31 31 31h209q31 0 31 -31v-752h270v752q0 31 31 31h209z" glyph-name="afii10090" horiz-adv-x="1579" unicode="ш"/><glyph d="M1591 221q31 0 31 -31v-282q0 -31 -31 -31h-209q-31 0 -30 31v92h-1209q-31 0 -30 31v942q0 31 30 31h209q31 0 31 -31v-752h270v752q0 31 31 31h209q31 0 31 -31v-752h270v752q0 31 31 31h209q31 0 30 -31v-752h127z" glyph-name="afii10091" horiz-adv-x="1703" unicode="щ"/><glyph d="M707 668q438 0 438 -334t-438 -334h-492q-31 0 -31 31v751h-92q-31 0 -31 31v160q0 31 31 31h332q31 0 31 -31v-305h252zM711 201q90 0 132 30.5t42 102.5t-42 102.5t-132 30.5h-256v-266h256z" glyph-name="afii10092" horiz-adv-x="1218" unicode="ъ"/><glyph d="M635 668q438 0 438 -334t-438 -334h-492q-31 0 -30 31v942q0 31 30 31h209q31 0 31 -31v-305h252zM1481 1004q31 0 30 -31v-942q0 -31 -30 -31h-209q-31 0 -31 31v942q0 31 31 31h209zM639 201q90 0 132 30.5t42 102.5t-42 102.5t-132 30.5h-256v-266h256z" glyph-name="afii10093" horiz-adv-x="1624" unicode="ы"/><glyph d="M635 668q438 0 438 -334t-438 -334h-492q-31 0 -30 31v942q0 31 30 31h209q31 0 31 -31v-305h252zM639 201q90 0 132 30.5t42 102.5t-42 102.5t-132 30.5h-256v-266h256z" glyph-name="afii10094" horiz-adv-x="1144" unicode="ь"/><glyph d="M473 1024q215 0 363.5 -150.5t148.5 -367.5t-148.5 -368.5t-363.5 -151.5q-238 0 -393 178q-18 23 2 43l125 119q20 20 45 0q100 -90 215 -90q84 0 147.5 45t92.5 120h-285q-31 0 -31 31v135q0 31 31 31h289q-25 80 -90.5 128t-153.5 48q-109 0 -209 -90q-25 -23 -45 -2 l-125 121q-20 20 -2 43q156 178 387 178z" glyph-name="afii10095" horiz-adv-x="1067" unicode="э"/><glyph d="M1051 1026q217 0 368.5 -152.5t151.5 -371.5q0 -217 -151.5 -369.5t-368.5 -152.5q-186 0 -327.5 115.5t-180.5 293.5h-160v-360q0 -31 -31 -31h-209q-31 0 -30 31v942q0 31 30 30h209q31 0 31 -30v-361h158q37 180 179.5 298t330.5 118zM1051 229q109 0 184.5 78 t75.5 195q0 119 -76 196.5t-184 77.5q-111 0 -185.5 -77.5t-74.5 -196.5q0 -117 74.5 -195t185.5 -78z" glyph-name="afii10096" horiz-adv-x="1642" unicode="ю"/><glyph d="M1038 1004q31 0 31 -31v-942q0 -31 -31 -31h-209q-31 0 -30 31v305h-142l-288 -320q-14 -16 -37 -16h-217q-20 0 -25.5 11.5t8.5 25.5l285 309q-301 49 -301 324q0 334 438 334h518zM342 670q0 -133 174 -133h283v266h-283q-174 0 -174 -133z" glyph-name="afii10097" horiz-adv-x="1183" unicode="я"/><glyph d="M389 1231q-57 0 -97 40t-40 97t40 97t97 40q55 0 96 -40t41 -97t-41 -97t-96 -40zM831.5 1231q-55.5 0 -96.5 40t-41 97t41 97t96.5 40t96.5 -40t41 -97t-41 -97t-96.5 -40zM1075 528q0 -66 -14 -93t-57 -27h-644q23 -96 96.5 -149.5t190.5 -53.5q115 0 213 69 q27 16 45 -2l90 -88q20 -20 -2 -45q-154 -154 -372 -153q-231 0 -380 150.5t-149 369.5t144.5 368.5t361.5 149.5q213 0 345 -144.5t132 -351.5zM600 793q-94 0 -159.5 -54.5t-84.5 -154.5h480q-14 98 -79 153.5t-157 55.5z" glyph-name="afii10071" horiz-adv-x="1167" unicode="ё"/><glyph d="M360 1112q-41 0 -24 35l123 258q10 25 35 25h184q41 0 24 -35l-122 -258q-10 -25 -35 -25h-185zM797 1004q31 0 30 -31v-160q0 -31 -30 -31h-414v-751q0 -31 -31 -31h-209q-31 0 -30 31v942q0 31 30 31h654z" glyph-name="afii10100" horiz-adv-x="899" unicode="ѓ"/><glyph d="M995 207q20 -20 2 -43q-156 -178 -393 -178q-215 0 -363.5 151.5t-148.5 368.5t148.5 367.5t363.5 150.5q231 0 387 -178q18 -23 -2 -43l-125 -121q-20 -20 -45 2q-100 90 -209 90q-88 0 -153.5 -48t-89.5 -128h288q31 0 31 -31v-135q0 -31 -31 -31h-284 q29 -76 92 -120.5t147 -44.5q115 0 215 90q25 20 45 0z" glyph-name="afii10101" horiz-adv-x="1067" unicode="є"/><glyph d="M29 1169q-57 0 -97.5 40t-40.5 97.5t40 97.5t98 40q55 0 96 -40t41 -97.5t-41 -97.5t-96 -40zM471 1169q-55 0 -96 40t-41 97.5t41 97.5t96 40t96 -40t41 -97.5t-41 -97.5t-96 -40zM113 973q0 31 30 31h209q31 0 31 -31v-942q0 -31 -31 -31h-209q-31 0 -30 31v942z" glyph-name="afii10104" horiz-adv-x="497" unicode="ї"/><glyph d="M520 1112q-41 0 -24 35l122 258q10 25 35 25h185q41 0 24 -35l-123 -258q-10 -25 -34 -25h-185zM1139 37q12 -16 7 -26.5t-26 -10.5h-252q-23 0 -37 16l-329 377l-119 -121v-241q0 -31 -31 -31h-209q-31 0 -30 31v942q0 31 30 31h209q31 0 31 -31v-367l373 381 q14 16 39 17h249q20 0 25.5 -10.5t-8.5 -26.5l-389 -398z" glyph-name="afii10109" horiz-adv-x="1210" unicode="ќ"/><glyph d="M748 1403q6 29 32 29h103q31 0 28 -31q-10 -113 -95 -186.5t-222 -73.5t-222 73.5t-96 186.5q-2 31 29 31h105q23 0 32 -29q12 -45 51 -77t100.5 -32t102 32t52.5 77zM1090 1004q37 0 24 -35l-530 -1334q-10 -25 -37 -24h-205q-41 0 -25 35l146 352l-387 971 q-12 35 24 35h211q29 0 37 -25l246 -664l244 664q10 25 36 25h216z" glyph-name="afii10110" horiz-adv-x="1171" unicode="ў"/><glyph d="M926 1538q31 0 30 -31v-290q0 -31 -30 -31h-502v-1155q0 -31 -31 -31h-219q-31 0 -31 31v1372q0 31 31 31h535v73q0 31 30 31h187z" glyph-name="afii10050" horiz-adv-x="1028" unicode="Ґ"/><glyph d="M797 1130q31 0 30 -30v-287q0 -31 -30 -31h-414v-751q0 -31 -31 -31h-209q-31 0 -30 31v942q0 31 30 31h414v96q0 31 31 30h209z" glyph-name="afii10098" horiz-adv-x="899" unicode="ґ"/><glyph d="M1001 1567l-122 258q-16 35 24 35h184q25 0 35 -25l123 -258q16 -35 -24 -35h-185q-25 0 -35 25zM2183 1434q35 0 25 -35l-436 -1374q-10 -25 -39 -25h-217q-29 0 -35 25l-332 989l-332 -989q-10 -25 -35 -25h-217q-31 0 -37 25l-434 1374q-14 35 25 35h227q27 0 35 -25 l297 -1040l334 1040q2 14 16 21q8 4 16 4h209q10 0 19 -4q8 -6 14 -21l334 -1040l301 1040q6 25 35 25h227z" glyph-name="Wgrave" horiz-adv-x="2301" unicode="Ẁ"/><glyph d="M793 1137l-123 258q-16 35 24 35h185q25 0 34 -25l123 -258q16 -35 -24 -35h-185q-24 0 -34 25zM1786 1004q37 0 24 -35l-350 -944q-10 -25 -37 -25h-202q-29 0 -37 25l-240 626l-239 -626q-8 -25 -37 -25h-205q-29 0 -37 25l-350 944q-12 35 24 35h205q27 0 37 -25 l231 -666l238 666q6 18 20 20q8 4 17 5h192q8 0 17 -5q14 -2 20 -20l240 -666l227 666q8 25 37 25h205z" glyph-name="wgrave" horiz-adv-x="1888" unicode="ẁ"/><glyph d="M1067 1542q-41 0 -25 35l123 258q10 25 35 25h184q41 0 25 -35l-123 -258q-10 -25 -35 -25h-184zM2183 1434q35 0 25 -35l-436 -1374q-10 -25 -39 -25h-217q-29 0 -35 25l-332 989l-332 -989q-10 -25 -35 -25h-217q-31 0 -37 25l-434 1374q-14 35 25 35h227q27 0 35 -25 l297 -1040l334 1040q2 14 16 21q8 4 16 4h209q10 0 19 -4q8 -6 14 -21l334 -1040l301 1040q6 25 35 25h227z" glyph-name="Wacute" horiz-adv-x="2301" unicode="Ẃ"/><glyph d="M858 1112q-41 0 -24 35l122 258q10 25 35 25h185q41 0 24 -35l-123 -258q-10 -25 -35 -25h-184zM1786 1004q37 0 24 -35l-350 -944q-10 -25 -37 -25h-202q-29 0 -37 25l-240 626l-239 -626q-8 -25 -37 -25h-205q-29 0 -37 25l-350 944q-12 35 24 35h205q27 0 37 -25 l231 -666l238 666q6 18 20 20q8 4 17 5h192q8 0 17 -5q14 -2 20 -20l240 -666l227 666q8 25 37 25h205z" glyph-name="wacute" horiz-adv-x="1888" unicode="ẃ"/><glyph d="M932 1599q-57 0 -97 40t-40 97.5t39.5 97.5t97.5 40q55 0 96 -40t41 -97.5t-41 -97.5t-96 -40zM1374.5 1599q-55.5 0 -96.5 40t-41 97.5t41 97.5t96.5 40t96 -40t40.5 -97.5t-40.5 -97.5t-96 -40zM2183 1434q35 0 25 -35l-436 -1374q-10 -25 -39 -25h-217q-29 0 -35 25 l-332 989l-332 -989q-10 -25 -35 -25h-217q-31 0 -37 25l-434 1374q-14 35 25 35h227q27 0 35 -25l297 -1040l334 1040q2 14 16 21q8 4 16 4h209q10 0 19 -4q8 -6 14 -21l334 -1040l301 1040q6 25 35 25h227z" glyph-name="Wdieresis" horiz-adv-x="2301" unicode="Ẅ"/><glyph d="M723 1169q-57 0 -97 40t-40 97.5t40 97.5t97 40q55 0 96 -40t41 -97.5t-41 -97.5t-96 -40zM1165.5 1169q-55.5 0 -96.5 40t-41 97.5t41 97.5t96.5 40t96.5 -40t41 -97.5t-41 -97.5t-96.5 -40zM1786 1004q37 0 24 -35l-350 -944q-10 -25 -37 -25h-202q-29 0 -37 25 l-240 626l-239 -626q-8 -25 -37 -25h-205q-29 0 -37 25l-350 944q-12 35 24 35h205q27 0 37 -25l231 -666l238 666q6 18 20 20q8 4 17 5h192q8 0 17 -5q14 -2 20 -20l240 -666l227 666q8 25 37 25h205z" glyph-name="wdieresis" horiz-adv-x="1888" unicode="ẅ"/><glyph d="M508 1567l-123 258q-16 35 25 35h184q25 0 35 -25l123 -258q16 -35 -25 -35h-184q-25 0 -35 25zM1198 1434q41 0 21 -37l-420 -731v-635q0 -31 -31 -31h-219q-31 0 -31 31v641l-420 725q-20 37 21 37h231q25 0 37 -21l272 -479l273 479q12 20 37 21h229z" glyph-name="Ygrave" horiz-adv-x="1318" unicode="Ỳ"/><glyph d="M344 1430h184q25 0 35 -25l123 -258q16 -35 -24 -35h-185q-25 0 -35 25l-123 258q-16 35 25 35zM1090 1004q37 0 24 -35l-530 -1334q-10 -25 -37 -24h-205q-41 0 -25 35l146 352l-387 971q-12 35 24 35h211q29 0 37 -25l246 -664l244 664q10 25 36 25h216z" glyph-name="ygrave" horiz-adv-x="1191" unicode="ỳ"/><glyph d="M1137 678q31 0 30 -31v-160q0 -31 -30 -30h-983q-31 0 -31 30v160q0 31 31 31h983z" glyph-name="endash" horiz-adv-x="1290" unicode="–"/><glyph d="M1260 678q31 0 30 -31v-160q0 -31 -30 -30h-1106q-31 0 -31 30v160q0 31 31 31h1106z" glyph-name="emdash" horiz-adv-x="1413" unicode="—"/><glyph d="M260 1169q55 -8 93 -50t38 -99q0 -63 -45 -106.5t-110.5 -43.5t-109.5 48.5t-44 134.5q0 96 54 207.5t143 207.5l69 -43q-78 -115 -88 -256z" glyph-name="quoteleft" horiz-adv-x="473" unicode="‘"/><glyph d="M237.5 1466q65.5 0 109.5 -48t44 -134q0 -96 -54 -207.5t-142 -208.5l-70 43q78 115 88 256q-55 8 -93 50.5t-38 99.5q0 63 45 106t110.5 43z" glyph-name="quoteright" horiz-adv-x="473" unicode="’"/><glyph d="M237.5 270q65.5 0 109.5 -48t44 -134q0 -96 -54 -207.5t-142 -208.5l-70 43q78 115 88 256q-55 8 -93 50t-38 100q0 63 45 106t110.5 43z" glyph-name="quotesinglbase" horiz-adv-x="462" unicode="‚"/><glyph d="M258 1169q55 -8 93 -50t38 -99q0 -63 -45 -106.5t-110.5 -43.5t-109.5 48.5t-44 134.5q0 96 54 207.5t142 207.5l70 -43q-78 -115 -88 -256zM645 1169q55 -8 93 -50t38 -99q0 -63 -45 -106.5t-110.5 -43.5t-109.5 48.5t-44 134.5q0 96 54 207.5t143 207.5l69 -43 q-78 -115 -88 -256z" glyph-name="quotedblleft" horiz-adv-x="858" unicode="“"/><glyph d="M237.5 1466q65.5 0 109.5 -48t44 -134q0 -96 -54 -207.5t-142 -208.5l-70 43q78 115 88 256q-55 8 -93 50.5t-38 99.5q0 63 45 106t110.5 43zM624.5 1466q65.5 0 109.5 -48t44 -134q0 -96 -54 -207.5t-142 -208.5l-70 43q78 115 88 256q-55 8 -93 50.5t-38 99.5 q0 63 45 106t110.5 43z" glyph-name="quotedblright" horiz-adv-x="858" unicode="”"/><glyph d="M237.5 270q65.5 0 109.5 -48t44 -134q0 -96 -54 -207.5t-142 -208.5l-70 43q78 115 88 256q-55 8 -93 50t-38 100q0 63 45 106t110.5 43zM634.5 270q65.5 0 109.5 -48t44 -134q0 -96 -54 -207.5t-142 -208.5l-70 43q78 115 88 256q-55 8 -93 50t-38 100q0 63 45 106 t110.5 43z" glyph-name="quotedblbase" horiz-adv-x="870" unicode="„"/><glyph d="M819 1176q31 0 31 -31v-139q0 -31 -31 -31h-227v-227q0 -31 -31 -31h-139q-31 0 -31 31v227h-227q-31 0 -31 31v139q0 31 31 31h227v227q0 31 31 31h139q31 0 31 -31v-227h227z" glyph-name="dagger" horiz-adv-x="983" unicode="†"/><glyph d="M819 1176q31 0 31 -31v-139q0 -31 -31 -31h-227v-227q0 -31 -31 -31h-139q-31 0 -31 31v227h-227q-31 0 -31 31v139q0 31 31 31h227v227q0 31 31 31h139q31 0 31 -31v-227h227zM819 346q31 0 31 -31v-139q0 -31 -31 -31h-227v-227q0 -31 -31 -31h-139q-31 0 -31 31v227 h-227q-31 0 -31 31v139q0 31 31 31h227v227q0 31 31 31h139q31 0 31 -31v-227h227z" glyph-name="daggerdbl" horiz-adv-x="983" unicode="‡"/><glyph d="M334 362q-84 0 -142.5 58.5t-58.5 142.5t58.5 142.5t142.5 58.5t143.5 -58.5t59.5 -142.5t-59.5 -142.5t-143.5 -58.5z" glyph-name="bullet" horiz-adv-x="669" unicode="•"/><glyph d="M242 -27q-63 0 -106.5 43t-43.5 107q0 61 43 104t107 43q61 0 104 -43t43 -104q0 -63 -43 -106.5t-104 -43.5zM748 -27q-63 0 -106.5 43t-43.5 107q0 61 43 104t107 43q61 0 104 -43t43 -104q0 -63 -43 -106.5t-104 -43.5zM1253 -27q-63 0 -106 43t-43 107q0 61 43 104 t106 43q61 0 104.5 -43t43.5 -104q0 -63 -43.5 -106.5t-104.5 -43.5z" glyph-name="ellipsis" horiz-adv-x="1492" unicode="…"/><glyph d="M381 1444q117 0 199 -80t82 -196.5t-82 -197.5t-199 -81t-198 81t-81 197.5t81 196.5t198 80zM1114 1427l154 -96l-891 -1325l-154 96zM381 1270q-43 0 -72.5 -30t-29.5 -73q0 -45 30.5 -74.5t71.5 -29.5q43 0 73.5 29.5t30.5 74.5q0 43 -30.5 73t-73.5 30zM1110 545 q117 0 198 -81t81 -197.5t-81 -196.5t-198 -80t-199 80t-82 196.5t82 197.5t199 81zM1831 545q117 0 197.5 -81t80.5 -197.5t-80.5 -196.5t-197.5 -80t-199 80t-82 196.5t82 197.5t199 81zM1110 371q-43 0 -73.5 -30t-30.5 -75q0 -43 30.5 -72.5t73.5 -29.5t72.5 29.5 t29.5 72.5q0 45 -30.5 75t-71.5 30zM1831 371q-43 0 -74 -30t-31 -75q0 -43 31 -72.5t74 -29.5t72.5 29.5t29.5 72.5q0 45 -30.5 75t-71.5 30z" glyph-name="perthousand" horiz-adv-x="2211" unicode="‰"/><glyph d="M92 645q0 23 17 37l221 197q14 12 25.5 7t11.5 -26v-133q0 -23 -17 -37l-145 -123l145 -125q16 -14 17 -36v-132q0 -20 -11.5 -25t-25.5 7l-221 197q-16 14 -17 36v156z" glyph-name="guilsinglleft" horiz-adv-x="458" unicode="‹"/><glyph d="M367 725v-156q0 -23 -17 -37l-221 -196q-14 -12 -25.5 -7t-11.5 25v131q0 23 17 37l145 125l-145 123q-16 14 -17 37v133q0 20 11.5 25.5t25.5 -7.5l221 -196q17 -14 17 -37z" glyph-name="guilsinglright" horiz-adv-x="458" unicode="›"/><glyph d="M641 1434l-881 -1434h-98l893 1434h86z" glyph-name="fraction" horiz-adv-x="303" unicode="⁄"/><glyph d="M1276 369l135 -146q23 -23 0 -43q-207 -207 -500 -207q-240 0 -429 135.5t-265 352.5h-104q-31 0 -31 31v139q0 31 31 31h63q-2 16 -2 49v34h-61q-31 0 -31 31v139q0 31 31 31h98q74 223 265.5 363.5t434.5 140.5q293 0 500 -207q23 -23 0 -43l-135 -145q-18 -23 -43 -2 q-139 123 -324 123q-125 0 -227 -61.5t-160 -168.5h205q31 0 31 -31v-139q0 -31 -31 -31h-262q-2 -12 -2 -34q0 -33 2 -49h262q31 0 31 -31v-139q0 -31 -31 -31h-197q59 -98 160 -155.5t219 -57.5q184 0 324 123q25 21 43 -2z" glyph-name="Euro" horiz-adv-x="1495" unicode="€"/><glyph d="M1178 745h-211q-66 -49 -148 -83h359q35 0 30 -31v-139q4 -31 -30 -31h-717q-12 -25 -12 -55q0 -76 62 -122t155 -46q160 0 319 139q25 23 45 -2l123 -133q18 -20 2 -43q-68 -94 -201 -159t-282 -65q-201 0 -349.5 116t-148.5 308q0 25 4 62h-65q-31 0 -31 31v139 q0 31 31 31h153q49 51 105 83h-258q-31 0 -31 31v139q0 31 31 31h688q45 41 45 96q0 63 -49 104.5t-133 41.5q-127 0 -275 -115q-25 -18 -43 6l-113 138q-18 23 3 43q186 190 436 190q184 0 315 -110.5t131 -290.5q0 -55 -12 -103h72q35 0 30 -31v-139q5 -31 -30 -31z" glyph-name="uni20B4" horiz-adv-x="1290" unicode="₴"/><glyph d="M477 1434q10 0 10 -11v-59q0 -10 -10 -10h-119v-279q0 -10 -10 -10h-76q-10 0 -10 10v279h-119q-10 0 -10 10v59q0 10 10 11h334zM1028 1434q10 0 10 -11v-348q0 -10 -10 -10h-72q-10 0 -10 10v199l-110 -203q-4 -6 -13 -6h-51q-10 0 -12 6l-111 203v-199q0 -10 -10 -10 h-70q-10 0 -10 10v348q0 10 10 11h78q8 0 12 -7l138 -245l139 245q2 6 12 7h80z" glyph-name="trademark" horiz-adv-x="1171" unicode="™"/><glyph d="M213 1436v-535h-76v461h-55v74h131zM1075 1434l-880 -1434h-99l893 1434h86zM924 539q74 0 117.5 -41t43.5 -97q0 -70 -61 -108q88 -43 88 -135q0 -70 -55.5 -116t-132.5 -46q-76 0 -131.5 46t-55.5 116q0 92 88 135q-61 39 -61 108q0 53 44 95.5t116 42.5zM924 475 q-41 0 -62.5 -21.5t-21.5 -52t25.5 -55t58.5 -24.5q35 0 59.5 23.5t24.5 55.5q0 74 -84 74zM924 258q-45 0 -78 -28.5t-33 -71.5q0 -41 33 -70t78 -29q49 0 79.5 27t30.5 72t-30.5 72.5t-79.5 27.5z" glyph-name="oneeighth" horiz-adv-x="1193" unicode="⅛"/><glyph d="M268 1440q66 0 115 -42t49 -98q0 -66 -61 -108q86 -37 86 -135q0 -70 -56.5 -117t-132.5 -47q-84 0 -138 55.5t-48 130.5h78q-8 -47 24.5 -84t83.5 -37q45 0 78 28t33 71q0 113 -152 92v63q129 6 129 88q0 31 -25.5 53.5t-62.5 22.5q-45 0 -71.5 -31.5t-22.5 -84.5h-78 q-6 78 45 129t127 51zM1122 1434l-880 -1434h-99l893 1434h86zM967 539q74 0 117.5 -41t43.5 -97q0 -70 -61 -108q88 -43 88 -135q0 -70 -55.5 -116t-132.5 -46q-76 0 -131.5 46t-55.5 116q0 92 88 135q-61 39 -61 108q0 53 44 95.5t116 42.5zM967 475q-41 0 -62.5 -21.5 t-21.5 -52t25.5 -55t58.5 -24.5q37 0 60.5 23.5t23.5 55.5q0 74 -84 74zM967 258q-45 0 -78 -28.5t-33 -71.5q0 -41 33 -70t78 -29q49 0 79.5 27t30.5 72t-30.5 72.5t-79.5 27.5z" glyph-name="threeeighths" horiz-adv-x="1236" unicode="⅜"/><glyph d="M412 1436v-66h-213l-17 -119q45 20 92 21q72 0 129.5 -54.5t57.5 -134t-57.5 -135t-137.5 -55.5q-68 0 -120 38t-64 89l68 39q4 -41 35.5 -71t80.5 -30q47 0 82 36t35 89q0 51 -34 87t-75 36q-72 0 -116 -59l-66 16l37 273h283zM1122 1434l-880 -1434h-99l893 1434h86z M971 539q74 0 118 -41t44 -97q0 -70 -62 -108q88 -43 88 -135q0 -70 -55 -116t-133 -46q-76 0 -131.5 46t-55.5 116q0 92 88 135q-61 39 -61 108q0 53 44 95.5t116 42.5zM971 475q-41 0 -62.5 -21.5t-21.5 -52t25.5 -55t58.5 -24.5q37 0 60.5 23.5t23.5 55.5q0 74 -84 74z M971 258q-45 0 -78 -28.5t-33 -71.5q0 -41 33 -70t78 -29q49 0 79.5 27t30.5 72t-30.5 72.5t-79.5 27.5z" glyph-name="fiveeighths" horiz-adv-x="1241" unicode="⅝"/><glyph d="M436 1436l-209 -535h-80l183 469h-248v66h354zM1077 1434l-880 -1434h-99l893 1434h86zM926 539q74 0 117.5 -41t43.5 -97q0 -70 -61 -108q88 -43 88 -135q0 -70 -55 -116t-133 -46q-76 0 -131.5 46t-55.5 116q0 92 88 135q-61 39 -61 108q0 53 44 95.5t116 42.5z M926 475q-41 0 -62.5 -21.5t-21.5 -52t25.5 -55t58.5 -24.5q37 0 60.5 23.5t23.5 55.5q0 74 -84 74zM926 258q-45 0 -78 -28.5t-33 -71.5q0 -41 33 -70t78 -29q49 0 79.5 27t30.5 72t-30.5 72.5t-79.5 27.5z" glyph-name="seveneighths" horiz-adv-x="1196" unicode="⅞"/><glyph d="M895 879q170 -215 170 -414q0 -209 -145.5 -350.5t-356.5 -141.5t-356.5 141.5t-145.5 350.5q0 199 132.5 333t328.5 154l-282 346q-18 20 6 43l143 123q23 18 43 -6zM563.5 223q102.5 0 172 69.5t69.5 172.5q0 109 -69.5 179.5t-172 70.5t-172 -71t-69.5 -179 q0 -102 69.5 -172t172 -70z" glyph-name="partialdiff" horiz-adv-x="1146" unicode="∂"/><glyph d="M123 1608q0 31 31 30h1198q31 0 30 -30v-1966q0 -31 -30 -31h-191q-31 0 -31 31v1749h-755v-1749q0 -31 -31 -31h-190q-31 0 -31 31v1966z" glyph-name="product" horiz-adv-x="1505" unicode="∏"/><glyph d="M1294 1638q31 0 31 -30v-189q0 -31 -31 -30h-852l549 -742q16 -23 0 -45l-549 -741h852q31 0 31 -31v-188q0 -31 -31 -31h-1140q-31 0 -31 31v198q0 18 12 37l551 748l-551 747q-12 18 -12 37v199q0 31 31 30h1140z" glyph-name="summation" horiz-adv-x="1447" unicode="∑"/><glyph d="M860 684q31 0 31 -31v-139q0 -31 -31 -31h-696q-31 0 -31 31v139q0 31 31 31h696z" glyph-name="minus" horiz-adv-x="1024" unicode="−"/><glyph d="M1423 1638q37 0 27 -34l-522 -1966q-6 -27 -33 -27h-231q-29 0 -35 24l-267 873h-208q-31 0 -31 31v188q0 31 31 31h348q29 0 35 -27l237 -831l451 1712q6 27 32 26h166z" glyph-name="radical" horiz-adv-x="1574" unicode="√"/><glyph d="M1235 877q152 0 259.5 -95.5t107.5 -244.5q0 -154 -106.5 -250.5t-260.5 -96.5q-207 0 -387 199q-184 -199 -389 -199q-154 0 -260.5 96.5t-106.5 250.5q0 150 107.5 245t259.5 95q205 0 389 -199q180 199 387 199zM469 367q141 0 264 168q-66 88 -127 126.5t-137 38.5 t-125 -49t-49 -116q0 -70 49 -119t125 -49zM1225 367q76 0 125 49t49 119q0 68 -49.5 116.5t-125 48.5t-137 -38.5t-126.5 -126.5q123 -168 264 -168z" glyph-name="infinity" horiz-adv-x="1693" unicode="∞"/><glyph d="M856 1604q20 -12 21 -37v-183q0 -18 -10.5 -24t-26.5 2q-59 35 -119 35q-68 0 -89.5 -31t-21.5 -96v-1325q0 -166 -92 -250t-258 -84q-106 0 -168 35q-20 12 -20 37v182q0 18 11 24.5t26 -2.5q59 -35 118 -34q68 0 90.5 30.5t22.5 96.5v1325q0 166 91 249.5t257 83.5 q107 1 168 -34z" glyph-name="integral" horiz-adv-x="856" unicode="∫"/><glyph d="M358 887q76 0 141.5 -40t121 -79t104.5 -39q74 0 100 66q10 18 25 18h68q23 0 22 -22q-2 -111 -68.5 -170.5t-166.5 -59.5q-59 0 -114.5 24.5t-89.5 54.5t-78 54.5t-83 24.5q-80 0 -104 -64q-6 -18 -25 -18h-66q-27 0 -22 29q14 111 76.5 166t158.5 55zM358 559 q76 0 141.5 -40t121 -79t104.5 -39q74 0 100 66q10 18 25 18h68q23 0 22 -22q-2 -111 -68.5 -170.5t-166.5 -59.5q-59 0 -114.5 25t-89.5 54.5t-78 54t-83 24.5q-80 0 -104 -63q-6 -18 -25 -19h-66q-27 0 -22 29q14 111 76.5 166t158.5 55z" glyph-name="approxequal" horiz-adv-x="1062" unicode="≈"/><glyph d="M860 645h-207l-47 -123h254q31 0 31 -30v-140q0 -31 -31 -30h-332l-114 -297q-8 -25 -37 -25h-162q-37 0 -25 35l111 287h-137q-31 0 -31 30v140q0 31 31 30h215l47 123h-262q-31 0 -31 31v139q0 31 31 31h340l108 278q10 25 37 25h162q37 0 25 -35l-105 -268h129 q31 0 31 -31v-139q0 -31 -31 -31z" glyph-name="notequal" horiz-adv-x="1024" unicode="≠"/><glyph d="M825 1214q14 8 23.5 2t9.5 -22v-152q0 -23 -20 -32l-492 -226l492 -227q20 -10 20 -31v-153q0 -35 -33 -21l-680 342q-20 14 -20 33v115q0 20 20 30zM852 207q31 0 31 -31v-139q0 -31 -31 -31h-696q-31 0 -31 31v139q0 31 31 31h696z" glyph-name="lessequal" horiz-adv-x="987" unicode="≤"/><glyph d="M190 1214l680 -342q20 -10 21 -30v-115q0 -18 -21 -33l-680 -342q-33 -14 -32 21v153q0 20 20 31l492 227l-492 226q-20 10 -20 32v152q0 16 9 22t23 -2zM164 207h696q31 0 31 -31v-139q0 -31 -31 -31h-696q-31 0 -31 31v139q0 31 31 31z" glyph-name="greaterequal" horiz-adv-x="1026" unicode="≥"/><glyph d="M762 1434q25 0 35 -23l299 -674q8 -20 0 -41l-299 -673q-10 -23 -35 -23h-297q-27 0 -35 23l-299 673q-8 20 0 41l299 674q8 23 35 23h297zM612 162l246 555l-246 555l-243 -555z" glyph-name="lozenge" horiz-adv-x="1226" unicode="◊"/><glyph d="M1602 1204q20 -20 0 -43l-971 -971q-20 -23 -43 0l-506 506q-20 20 0 43l131 131q23 23 45 0l328 -327l817 817q23 20 43 0z" glyph-name="uni2713" horiz-adv-x="1683" unicode="✓"/><glyph d="M250 1169q-57 0 -97 40t-40 97.5t40 97.5t97 40q55 0 96 -40t41 -97.5t-41 -97.5t-96 -40zM113 973q0 31 30 31h209q31 0 31 -31v-942q0 -31 -31 -31h-209q-31 0 -30 31v942z" glyph-name="i.aalt" horiz-adv-x="497"/><glyph d="M739 1473q20 -12 21 -37v-183q0 -18 -11.5 -24t-25.5 4q-57 33 -119 33q-68 0 -90 -31t-22 -96v-135h213q31 0 30 -31v-160q0 -31 -30 -31h-213v-751q0 -31 -31 -31h-209q-31 0 -31 31v751h-119q-31 0 -30 31v160q0 31 30 31h119v170q0 166 92.5 249.5t257.5 83.5 q107 1 168 -34z" glyph-name="f.aalt" horiz-adv-x="841"/><glyph d="M1032 209q27 -12 27 -35v-145q0 -33 -27 -35q-233 -31 -293 119q-131 -139 -325 -140q-160 0 -246 78t-86 217q0 135 84 207t264 103l162 26q115 23 133 51q-10 143 -159.5 143.5t-172.5 -114.5q-4 -20 -28 -20h-199q-35 0 -31 30q18 332 432 332q207 0 317.5 -100.5 t110.5 -296.5v-336q0 -68 37 -84zM350 301q0 -98 121 -98q143 0 254 108v176q-16 -33 -131 -53l-131 -24q-113 -21 -113 -109z" glyph-name="a.salt" horiz-adv-x="1130"/><glyph d="M485 1112q-41 0 -24 35l123 258q10 25 34 25h185q41 0 24 -35l-122 -258q-10 -25 -35 -25h-185zM1032 209q27 -12 27 -35v-145q0 -33 -27 -35q-233 -31 -293 119q-131 -139 -325 -140q-160 0 -246 78t-86 217q0 135 84 207t264 103l162 26q115 23 133 51 q-10 143 -159.5 143.5t-172.5 -114.5q-4 -20 -28 -20h-199q-35 0 -31 30q18 332 432 332q207 0 317.5 -100.5t110.5 -296.5v-336q0 -68 37 -84zM350 301q0 -98 121 -98q143 0 254 108v176q-16 -33 -131 -53l-131 -24q-113 -21 -113 -109z" glyph-name="aacute.aalt" horiz-adv-x="1130"/><glyph d="M571.5 1141q-137.5 0 -222.5 73.5t-95 186.5q-4 31 29 31h104q23 0 33 -29q12 -45 51 -77t100.5 -32t101.5 32t52 77q6 29 33 29h102q33 0 29 -31q-10 -113 -95 -186.5t-222.5 -73.5zM1032 209q27 -12 27 -35v-145q0 -33 -27 -35q-233 -31 -293 119q-131 -139 -325 -140 q-160 0 -246 78t-86 217q0 135 84 207t264 103l162 26q115 23 133 51q-10 143 -159.5 143.5t-172.5 -114.5q-4 -20 -28 -20h-199q-35 0 -31 30q18 332 432 332q207 0 317.5 -100.5t110.5 -296.5v-336q0 -68 37 -84zM350 301q0 -98 121 -98q143 0 254 108v176 q-16 -33 -131 -53l-131 -24q-113 -21 -113 -109z" glyph-name="abreve.aalt" horiz-adv-x="1130"/><glyph d="M457 1171l-197 222q-12 14 -7 25.5t26 11.5h131q23 0 36 -17l125 -145l123 145q14 16 37 17h133q20 0 25.5 -11.5t-6.5 -25.5l-197 -222q-14 -16 -37 -16h-155q-23 0 -37 16zM1032 209q27 -12 27 -35v-145q0 -33 -27 -35q-233 -31 -293 119q-131 -139 -325 -140 q-160 0 -246 78t-86 217q0 135 84 207t264 103l162 26q115 23 133 51q-10 143 -159.5 143.5t-172.5 -114.5q-4 -20 -28 -20h-199q-35 0 -31 30q18 332 432 332q207 0 317.5 -100.5t110.5 -296.5v-336q0 -68 37 -84zM350 301q0 -98 121 -98q143 0 254 108v176 q-16 -33 -131 -53l-131 -24q-113 -21 -113 -109z" glyph-name="uni01CE.aalt" horiz-adv-x="1130"/><glyph d="M279 1155q-20 0 -25.5 11.5t6.5 25.5l197 221q14 16 37 17h155q23 0 37 -17l197 -221q12 -14 7 -25.5t-26 -11.5h-133q-23 0 -37 16l-123 146l-125 -146q-14 -16 -36 -16h-131zM1032 209q27 -12 27 -35v-145q0 -33 -27 -35q-233 -31 -293 119q-131 -139 -325 -140 q-160 0 -246 78t-86 217q0 135 84 207t264 103l162 26q115 23 133 51q-10 143 -159.5 143.5t-172.5 -114.5q-4 -20 -28 -20h-199q-35 0 -31 30q18 332 432 332q207 0 317.5 -100.5t110.5 -296.5v-336q0 -68 37 -84zM350 301q0 -98 121 -98q143 0 254 108v176 q-16 -33 -131 -53l-131 -24q-113 -21 -113 -109z" glyph-name="acircumflex.aalt" horiz-adv-x="1130"/><glyph d="M350 1169q-57 0 -97 40t-40 97.5t40 97.5t97 40q55 0 96 -40t41 -97.5t-41 -97.5t-96 -40zM792.5 1169q-55.5 0 -96.5 40t-41 97.5t41 97.5t96.5 40t96.5 -40t41 -97.5t-41 -97.5t-96.5 -40zM1032 209q27 -12 27 -35v-145q0 -33 -27 -35q-233 -31 -293 119 q-131 -139 -325 -140q-160 0 -246 78t-86 217q0 135 84 207t264 103l162 26q115 23 133 51q-10 143 -159.5 143.5t-172.5 -114.5q-4 -20 -28 -20h-199q-35 0 -31 30q18 332 432 332q207 0 317.5 -100.5t110.5 -296.5v-336q0 -68 37 -84zM350 301q0 -98 121 -98 q143 0 254 108v176q-16 -33 -131 -53l-131 -24q-113 -21 -113 -109z" glyph-name="adieresis.aalt" horiz-adv-x="1130"/><glyph d="M420 1137l-123 258q-16 35 25 35h184q25 0 35 -25l123 -258q16 -35 -25 -35h-184q-25 0 -35 25zM1032 209q27 -12 27 -35v-145q0 -33 -27 -35q-233 -31 -293 119q-131 -139 -325 -140q-160 0 -246 78t-86 217q0 135 84 207t264 103l162 26q115 23 133 51 q-10 143 -159.5 143.5t-172.5 -114.5q-4 -20 -28 -20h-199q-35 0 -31 30q18 332 432 332q207 0 317.5 -100.5t110.5 -296.5v-336q0 -68 37 -84zM350 301q0 -98 121 -98q143 0 254 108v176q-16 -33 -131 -53l-131 -24q-113 -21 -113 -109z" glyph-name="agrave.aalt" horiz-adv-x="1130"/><glyph d="M264 1219q-31 0 -31 30v150q0 31 31 31h617q31 0 30 -31v-150q0 -31 -30 -30h-617zM1032 209q27 -12 27 -35v-145q0 -33 -27 -35q-233 -31 -293 119q-131 -139 -325 -140q-160 0 -246 78t-86 217q0 135 84 207t264 103l162 26q115 23 133 51q-10 143 -159.5 143.5 t-172.5 -114.5q-4 -20 -28 -20h-199q-35 0 -31 30q18 332 432 332q207 0 317.5 -100.5t110.5 -296.5v-336q0 -68 37 -84zM350 301q0 -98 121 -98q143 0 254 108v176q-16 -33 -131 -53l-131 -24q-113 -21 -113 -109z" glyph-name="amacron.aalt" horiz-adv-x="1130"/><glyph d="M1032 209q27 -12 27 -35v-145q0 -33 -27 -35q-29 -4 -45 -4q-70 -2 -111.5 -38t-41.5 -89q0 -45 33.5 -69.5t103.5 -10.5v-168q-45 -20 -105.5 -21.5t-118 17t-96.5 71t-39 128.5q0 166 172 237q-33 33 -45 66q-131 -139 -325 -140q-160 0 -246 78t-86 217q0 135 84 207 t264 103l162 26q115 23 133 51q-10 143 -159.5 143.5t-172.5 -114.5q-4 -20 -28 -20h-199q-35 0 -31 30q18 332 432 332q207 0 317.5 -100.5t110.5 -296.5v-336q0 -68 37 -84zM350 301q0 -98 121 -98q143 0 254 108v176q-16 -33 -131 -53l-131 -24q-113 -21 -113 -109z" glyph-name="aogonek.aalt" horiz-adv-x="1120"/><glyph d="M573 1106q-86 0 -147 60.5t-61 142.5q0 84 61 144t147 60q82 0 142.5 -61t60.5 -143t-60.5 -142.5t-142.5 -60.5zM571.5 1360q-20.5 0 -35 -14.5t-14.5 -35t14.5 -34.5t35 -14t35 14t14.5 34.5t-14.5 35t-35 14.5zM1032 209q27 -12 27 -35v-145q0 -33 -27 -35 q-233 -31 -293 119q-131 -139 -325 -140q-160 0 -246 78t-86 217q0 135 84 207t264 103l162 26q115 23 133 51q-10 143 -159.5 143.5t-172.5 -114.5q-4 -20 -28 -20h-199q-35 0 -31 30q18 332 432 332q207 0 317.5 -100.5t110.5 -296.5v-336q0 -68 37 -84zM350 301 q0 -98 121 -98q143 0 254 108v176q-16 -33 -131 -53l-131 -24q-113 -21 -113 -109z" glyph-name="aring.aalt" horiz-adv-x="1130"/><glyph d="M221 1245q-20 0 -20 27q8 98 66.5 150.5t148.5 52.5q68 0 127 -36t109 -72t96 -36q70 0 94 58q6 16 22 16h60q20 0 20 -21q-6 -102 -65.5 -154t-149.5 -52q-68 0 -127 35.5t-109.5 70.5t-95.5 35q-70 0 -94 -57q-6 -16 -22 -17h-60zM1032 209q27 -12 27 -35v-145 q0 -33 -27 -35q-233 -31 -293 119q-131 -139 -325 -140q-160 0 -246 78t-86 217q0 135 84 207t264 103l162 26q115 23 133 51q-10 143 -159.5 143.5t-172.5 -114.5q-4 -20 -28 -20h-199q-35 0 -31 30q18 332 432 332q207 0 317.5 -100.5t110.5 -296.5v-336q0 -68 37 -84z M350 301q0 -98 121 -98q143 0 254 108v176q-16 -33 -131 -53l-131 -24q-113 -21 -113 -109z" glyph-name="atilde.aalt" horiz-adv-x="1130"/><glyph d="M784 131q158 0 232 -69.5t74 -182.5q0 -283 -531 -282q-477 0 -477 227q0 104 117 149q-90 74 -90 174q0 131 127 191q-109 109 -109 278q0 180 127 295t330 115q135 0 245 -55l195 33q12 2 21.5 -7.5t9.5 -23.5v-127q0 -31 -31 -31h-33q49 -92 49 -199 q0 -182 -127 -296.5t-329 -114.5q-121 0 -224 45q-57 -4 -57 -49q0 -70 207 -70h274zM584 805q-84 0 -140.5 -53.5t-56.5 -135t56.5 -136t140.5 -54.5q82 0 138 54.5t56 135.5q0 80 -56 134.5t-138 54.5zM559 -229q285 0 285 79q0 51 -101 52h-333q-115 0 -115 -54 q0 -77 264 -77z" glyph-name="g.aalt" horiz-adv-x="1171"/><glyph d="M602 1141q-137 0 -222 73.5t-95 186.5q-2 31 28 31h105q23 0 33 -29q12 -45 51 -77t100.5 -32t101 32t52.5 77q6 29 32 29h103q31 0 29 -31q-10 -113 -95.5 -186.5t-222.5 -73.5zM784 131q158 0 232 -69.5t74 -182.5q0 -283 -531 -282q-477 0 -477 227q0 104 117 149 q-90 74 -90 174q0 131 127 191q-109 109 -109 278q0 180 127 295t330 115q135 0 245 -55l195 33q12 2 21.5 -7.5t9.5 -23.5v-127q0 -31 -31 -31h-33q49 -92 49 -199q0 -182 -127 -296.5t-329 -114.5q-121 0 -224 45q-57 -4 -57 -49q0 -70 207 -70h274zM584 805 q-84 0 -140.5 -53.5t-56.5 -135t56.5 -136t140.5 -54.5q82 0 138 54.5t56 135.5q0 80 -56 134.5t-138 54.5zM559 -229q285 0 285 79q0 51 -101 52h-333q-115 0 -115 -54q0 -77 264 -77z" glyph-name="gbreve.aalt" horiz-adv-x="1171"/><glyph d="M593.5 1137q-65.5 0 -109.5 48t-44 134q0 96 54.5 207.5t142.5 208.5l70 -43q-78 -115 -89 -256q55 -8 93.5 -50.5t38.5 -99.5q0 -63 -45.5 -106t-111 -43zM784 131q158 0 232 -69.5t74 -182.5q0 -283 -531 -282q-477 0 -477 227q0 104 117 149q-90 74 -90 174 q0 131 127 191q-109 109 -109 278q0 180 127 295t330 115q135 0 245 -55l195 33q12 2 21.5 -7.5t9.5 -23.5v-127q0 -31 -31 -31h-33q49 -92 49 -199q0 -182 -127 -296.5t-329 -114.5q-121 0 -224 45q-57 -4 -57 -49q0 -70 207 -70h274zM584 805q-84 0 -140.5 -53.5 t-56.5 -135t56.5 -136t140.5 -54.5q82 0 138 54.5t56 135.5q0 80 -56 134.5t-138 54.5zM559 -229q285 0 285 79q0 51 -101 52h-333q-115 0 -115 -54q0 -77 264 -77z" glyph-name="gcommaaccent.aalt" horiz-adv-x="1202"/><glyph d="M602 1169q-57 0 -97 40t-40 97.5t40 97.5t97 40q55 0 96 -40t41 -97.5t-41 -97.5t-96 -40zM784 131q158 0 232 -69.5t74 -182.5q0 -283 -531 -282q-477 0 -477 227q0 104 117 149q-90 74 -90 174q0 131 127 191q-109 109 -109 278q0 180 127 295t330 115q135 0 245 -55 l195 33q12 2 21.5 -7.5t9.5 -23.5v-127q0 -31 -31 -31h-33q49 -92 49 -199q0 -182 -127 -296.5t-329 -114.5q-121 0 -224 45q-57 -4 -57 -49q0 -70 207 -70h274zM584 805q-84 0 -140.5 -53.5t-56.5 -135t56.5 -136t140.5 -54.5q82 0 138 54.5t56 135.5q0 80 -56 134.5 t-138 54.5zM559 -229q285 0 285 79q0 51 -101 52h-333q-115 0 -115 -54q0 -77 264 -77z" glyph-name="gdotaccent.aalt" horiz-adv-x="1171"/><glyph d="M666 782h-158v-463q0 -88 80 -88q47 0 71 5q37 6 37 -29v-160q0 -59 -178 -59q-123 0 -201.5 68.5t-78.5 215.5v510h-136q-31 0 -30 31v160q0 31 30 31h136v235q0 31 30 31h209q31 0 31 -31v-235h158q31 0 30 -31v-160q1 -31 -30 -31z" glyph-name="t.aalt" horiz-adv-x="778"/><glyph d="M758 1450q244 0 409.5 -193.5t165.5 -545.5q0 -350 -166 -544t-409 -194q-242 0 -409 193.5t-167 544t167 545t409 194.5zM758 1200q-152 0 -234 -139t-82 -350t82 -349.5t234 -138.5q154 0 234.5 138.5t80.5 349.5t-80.5 350t-234.5 139z" glyph-name="zero.tnum" horiz-adv-x="1495"/><glyph d="M1040 1434q31 0 31 -31v-1372q0 -31 -31 -31h-209q-31 0 -30 31v1181h-236q-31 0 -30 31v160q0 31 30 31h475z" glyph-name="one.tnum" horiz-adv-x="1495"/><glyph d="M1204 221q31 0 31 -31v-159q0 -31 -31 -31h-842q-31 0 -30 31v190l231 248q55 57 140 144t118 122t75 88.5t55.5 91t13.5 80.5q0 94 -62.5 152.5t-157.5 58.5q-154 0 -264 -139q-20 -27 -45 -2l-125 123q-18 18 -2 43q68 94 184.5 156.5t258.5 62.5q205 0 339 -127 t134 -317q0 -63 -15.5 -116.5t-66.5 -124.5t-79 -104.5t-127 -138t-136 -143.5l-146 -158h549z" glyph-name="two.tnum" horiz-adv-x="1495"/><glyph d="M997 756q102 -51 165 -138.5t63 -205.5q0 -188 -137.5 -313.5t-358.5 -125.5q-141 0 -260 54.5t-188 148.5q-16 25 2 43l125 121q25 25 45 0q106 -121 262 -121q113 0 178 59.5t65 149.5q0 86 -67.5 145.5t-212.5 63.5q-31 0 -31 31v145q0 31 33 31q137 4 195.5 58 t58.5 130q0 78 -62.5 125t-138.5 47q-145 0 -237 -119q-20 -25 -45 0l-125 119q-20 20 -2 43q70 94 181 148.5t238 54.5q178 0 303 -110.5t125 -280.5q0 -184 -174 -303z" glyph-name="three.tnum" horiz-adv-x="1495"/><glyph d="M1235 506q31 0 31 -31v-158q0 -31 -31 -30h-129v-256q0 -31 -31 -31h-209q-31 0 -30 31v256h-576q-31 0 -31 30v168q0 20 11 39l583 889q14 20 37 21h215q31 0 31 -31v-897h129zM836 506v524l-342 -524h342z" glyph-name="four.tnum" horiz-adv-x="1495"/><glyph d="M727 963q201 0 337 -139.5t136 -340.5q0 -231 -144.5 -369.5t-367.5 -138.5q-143 0 -253.5 63.5t-162.5 149.5q-14 25 9 39l149 107q25 18 45 -4q82 -109 213 -109q106 0 178 77t72 185q0 100 -73.5 175t-174.5 75q-115 0 -190 -82q-18 -20 -41 -12l-164 51q-27 8 -21 37 l179 680q6 27 32 27h607q31 0 30 -31v-160q0 -31 -30 -31h-449l-74 -284q56 35 158 35z" glyph-name="five.tnum" horiz-adv-x="1495"/><glyph d="M799 952q197 -20 329 -154t132 -333q0 -209 -145.5 -350.5t-356.5 -141.5t-356.5 141.5t-145.5 350.5q0 199 170 414l463 579q20 25 43 6l143 -123q25 -23 6 -43zM757.5 223q102.5 0 172 69.5t69.5 172.5q0 109 -69.5 179.5t-172 70.5t-172 -71t-69.5 -179 q0 -102 69.5 -172t172 -70z" glyph-name="six.tnum" horiz-adv-x="1495"/><glyph d="M1188 1434q14 0 21.5 -8.5t2.5 -22.5l-542 -1372q-10 -31 -35 -31h-205q-14 0 -23.5 9t-3.5 22l474 1181h-568q-31 0 -30 31v160q0 31 30 31h879z" glyph-name="seven.tnum" horiz-adv-x="1495"/><glyph d="M753.5 -27q-198.5 0 -348 124t-149.5 329q0 131 67.5 232.5t178.5 152.5q-154 100 -154 279q0 150 111.5 255t294 105t294 -105.5t111.5 -254.5q0 -178 -153 -279q111 -51 178 -152.5t67 -232.5q0 -205 -149.5 -329t-348 -124zM753.5 911q71.5 0 120 48.5t48.5 116 t-48.5 113.5t-120 46t-119.5 -46t-48 -113.5t48 -116t119.5 -48.5zM753.5 219q98.5 0 164 58.5t65.5 156.5q0 102 -67.5 162.5t-162 60.5t-162 -60t-67.5 -163q0 -98 65.5 -156.5t164 -58.5z" glyph-name="eight.tnum" horiz-adv-x="1495"/><glyph d="M776 1450q211 0 356.5 -141.5t145.5 -350.5q0 -199 -170 -413l-463 -580q-20 -25 -43 -6l-143 123q-25 23 -6 43l282 346q-197 20 -329 154.5t-132 332.5q0 209 145.5 350.5t356.5 141.5zM776.5 709q102.5 0 172 70.5t69.5 178.5q0 102 -69.5 172t-172 70t-172 -69.5 t-69.5 -172.5q0 -109 69.5 -179t172 -70z" glyph-name="nine.tnum" horiz-adv-x="1495"/><glyph d="M297 539q96 0 155.5 -72t59.5 -186v-27q0 -115 -59.5 -186.5t-155.5 -71.5q-92 0 -153.5 71.5t-61.5 186.5v27q0 115 61.5 186.5t153.5 71.5zM297 475q-59 0 -99 -52t-40 -142v-27q0 -90 40 -142.5t99 -52.5q63 0 101 51.5t38 143.5v27q0 92 -38 143t-101 51z" glyph-name="zero.dnom" horiz-adv-x="593"/><glyph d="M213 535v-535h-76v461h-55v74h131z" glyph-name="one.dnom" horiz-adv-x="294"/><glyph d="M254 541q70 0 121 -46t51 -108q0 -53 -29.5 -96t-109.5 -125l-97 -100h242v-66h-344v66l139 141q57 59 74.5 78.5t32 46t14.5 55.5q0 37 -28.5 63.5t-65.5 26.5q-39 0 -67.5 -26.5t-28.5 -75.5v-29h-76v29q0 72 50 119t122 47z" glyph-name="two.dnom" horiz-adv-x="514"/><glyph d="M268 539q66 0 115 -42t49 -98q0 -66 -61 -108q86 -37 86 -135q0 -70 -56.5 -117t-132.5 -47q-84 0 -138 55t-48 131h78q-8 -47 24.5 -84t83.5 -37q45 0 78 28t33 71q0 113 -152 92v63q129 6 129 88q0 31 -25.5 53.5t-62.5 22.5q-45 0 -71.5 -31.5t-22.5 -85.5h-78 q-6 78 45 129.5t127 51.5z" glyph-name="three.dnom" horiz-adv-x="538"/><glyph d="M428 535v-316h55v-63h-55v-156h-76v156h-270l270 379h76zM352 424l-143 -205h143v205z" glyph-name="four.dnom" horiz-adv-x="565"/><glyph d="M412 535v-66h-213l-17 -119q45 20 92 21q72 0 129.5 -54.5t57.5 -134.5t-57.5 -135t-137.5 -55q-68 0 -120 38t-64 89l68 39q4 -41 35.5 -71t80.5 -30q47 0 82 36t35 89q0 51 -34 87t-75 36q-72 0 -116 -59l-66 16l37 273h283z" glyph-name="five.dnom" horiz-adv-x="542"/><glyph d="M387 535l-139 -197h12q70 0 123 -51t53 -121q0 -72 -53 -123t-123 -51t-124 51t-54 123q0 33 11 64.5t20.5 47t37 51.5t33.5 44l117 162h86zM260 272q-45 0 -73.5 -28.5t-28.5 -77.5q0 -47 31.5 -78t70.5 -31q37 0 68.5 31t31.5 78t-30.5 76.5t-69.5 29.5z" glyph-name="six.dnom" horiz-adv-x="518"/><glyph d="M436 535l-209 -535h-80l183 469h-248v66h354z" glyph-name="seven.dnom" horiz-adv-x="518"/><glyph d="M268 539q74 0 118 -41t44 -97q0 -70 -61 -108q88 -43 88 -135q0 -70 -55.5 -116t-133.5 -46q-76 0 -131 46t-55 116q0 92 88 135q-61 39 -61 108q0 53 43.5 95.5t115.5 42.5zM268 475q-41 0 -62.5 -21.5t-21.5 -52t26 -55t58 -24.5q35 0 59.5 23.5t24.5 55.5q0 74 -84 74 zM268 258q-45 0 -77.5 -28.5t-32.5 -71.5q0 -41 32.5 -70t77.5 -29q49 0 80 27t31 72t-31 72.5t-80 27.5z" glyph-name="eight.dnom" horiz-adv-x="538"/><glyph d="M260 541q70 0 124 -50.5t54 -121.5q0 -27 -5 -49.5t-18.5 -46t-21.5 -37t-29.5 -40t-29.5 -36.5l-115 -160h-88l139 195h-10q-72 0 -125 52t-53 122q0 72 54 122t124 50zM260 475q-39 0 -70.5 -30.5t-31.5 -75.5q0 -47 31.5 -78t70.5 -31q45 0 72.5 29.5t27.5 79.5 q0 45 -31.5 75.5t-68.5 30.5z" glyph-name="nine.dnom" horiz-adv-x="520"/><glyph d="M297 1440q96 0 155.5 -72t59.5 -186v-27q0 -115 -59.5 -186.5t-155.5 -71.5q-92 0 -153.5 71.5t-61.5 186.5v27q0 115 61.5 186.5t153.5 71.5zM297 1376q-59 0 -99 -52t-40 -142v-27q0 -90 40 -142t99 -52q63 0 101 51t38 143v27q0 92 -38 143t-101 51z" glyph-name="zero.numr" horiz-adv-x="593"/><glyph d="M213 1436v-535h-76v461h-55v74h131z" glyph-name="one.numr" horiz-adv-x="294"/><glyph d="M254 1442q70 0 121 -46t51 -108q0 -53 -29.5 -96t-109.5 -125l-97 -100h242v-66h-344v66l139 141q57 59 74.5 78.5t32 46.5t14.5 55q0 37 -28.5 63.5t-65.5 26.5q-39 0 -67.5 -26.5t-28.5 -75.5v-29h-76v29q0 72 50 119t122 47z" glyph-name="two.numr" horiz-adv-x="514"/><glyph d="M268 1440q66 0 115 -42t49 -98q0 -66 -61 -108q86 -37 86 -135q0 -70 -56.5 -117t-132.5 -47q-84 0 -138 55.5t-48 130.5h78q-8 -47 24.5 -84t83.5 -37q45 0 78 28t33 71q0 113 -152 92v63q129 6 129 88q0 31 -25.5 53.5t-62.5 22.5q-45 0 -71.5 -31.5t-22.5 -84.5h-78 q-6 78 45 129t127 51z" glyph-name="three.numr" horiz-adv-x="538"/><glyph d="M428 1436v-316h55v-63h-55v-156h-76v156h-270l270 379h76zM352 1325l-143 -205h143v205z" glyph-name="four.numr" horiz-adv-x="565"/><glyph d="M412 1436v-66h-213l-17 -119q45 20 92 21q72 0 129.5 -54.5t57.5 -134t-57.5 -135t-137.5 -55.5q-68 0 -120 38t-64 89l68 39q4 -41 35.5 -71t80.5 -30q47 0 82 36t35 89q0 51 -34 87t-75 36q-72 0 -116 -59l-66 16l37 273h283z" glyph-name="five.numr" horiz-adv-x="542"/><glyph d="M387 1436l-139 -197h12q70 0 123 -51t53 -121q0 -72 -53 -123t-123 -51t-124 51t-54 123q0 33 11 64.5t20.5 47t37 51.5t33.5 44l117 162h86zM260 1174q-45 0 -73.5 -29t-28.5 -78q0 -47 31.5 -78t70.5 -31q37 0 68.5 31t31.5 78t-30.5 77t-69.5 30z" glyph-name="six.numr" horiz-adv-x="518"/><glyph d="M436 1436l-209 -535h-80l183 469h-248v66h354z" glyph-name="seven.numr" horiz-adv-x="518"/><glyph d="M268 1440q74 0 118 -41t44 -96q0 -70 -61 -109q88 -43 88 -135q0 -70 -55.5 -116t-133.5 -46q-76 0 -131 46t-55 116q0 92 88 135q-61 39 -61 109q0 53 43.5 95t115.5 42zM268 1376q-41 0 -62.5 -21.5t-21.5 -52t26 -55t58 -24.5q35 0 59.5 23.5t24.5 56.5q0 73 -84 73z M268 1159q-45 0 -77.5 -28.5t-32.5 -71.5q0 -41 32.5 -69.5t77.5 -28.5q49 0 80 26.5t31 71.5t-31 72.5t-80 27.5z" glyph-name="eight.numr" horiz-adv-x="538"/><glyph d="M260 1442q70 0 124 -50.5t54 -121.5q0 -27 -5 -49.5t-18.5 -46t-21.5 -37t-29.5 -40t-29.5 -36.5l-115 -160h-88l139 195h-10q-72 0 -125 52t-53 122q0 72 54 122t124 50zM260 1376q-39 0 -70.5 -30.5t-31.5 -75.5q0 -47 31.5 -78t70.5 -31q45 0 72.5 30t27.5 79 q0 45 -31.5 75.5t-68.5 30.5z" glyph-name="nine.numr" horiz-adv-x="520"/><glyph d="M635 1542q-41 0 -25 35l123 258q10 25 35 25h184q41 0 25 -35l-123 -258q-10 -25 -35 -25h-184zM1348 35q14 -35 -25 -35h-227q-27 0 -35 25l-82 243h-537l-82 -243q-8 -25 -34 -25h-228q-39 0 -24 35l497 1374q10 25 35 25h205q31 0 39 -25zM518 494h385l-192 575z" glyph-name="glyph499" horiz-adv-x="1421"/><glyph d="M791 1860q41 0 24 -35l-123 -258q-10 -25 -35 -25h-184q-41 0 -24 35l122 258q10 25 35 25h185zM930 248q31 0 31 -31v-186q0 -31 -31 -31h-756q-31 0 -31 31v1372q0 31 31 31h754q31 0 30 -31v-186q0 -31 -30 -31h-504v-324h473q31 0 31 -31v-186q0 -31 -31 -31h-473 v-366h506z" glyph-name="glyph500" horiz-adv-x="1093"/><glyph d="M623 1542q-41 0 -25 35l123 258q10 25 35 25h184q41 0 25 -35l-123 -258q-10 -25 -35 -25h-184zM1243 1434q31 0 31 -31v-1372q0 -31 -31 -31h-219q-31 0 -31 31v962l-551 -973q-12 -20 -36 -20h-252q-31 0 -31 31v1372q0 31 31 31h219q31 0 30 -31v-963l551 973 q12 20 37 21h252z" glyph-name="glyph501" horiz-adv-x="1417"/><glyph d="M1071 1860q41 0 25 -35l-123 -258q-10 -25 -35 -25h-184q-41 0 -25 35l123 258q10 25 35 25h184zM840 -27q-305 0 -521.5 215t-216.5 522.5t216.5 523.5t521.5 216t521 -216t216 -523.5t-216 -522.5t-521 -215zM839.5 248q192.5 0 322.5 133t130 330q0 199 -130 332 t-322.5 133t-322.5 -133.5t-130 -331.5q0 -197 130 -330t322.5 -133z" glyph-name="glyph502" horiz-adv-x="1679"/><glyph d="M633 1542q-41 0 -25 35l123 258q10 25 35 25h184q41 0 25 -35l-123 -258q-10 -25 -35 -25h-184zM1331 1434q18 0 24.5 -10.5t-3.5 -26.5l-832 -1377q-12 -20 -37 -20h-231q-41 0 -21 37l340 561l-483 799q-10 16 -4 26.5t25 10.5h231q25 0 37 -21l344 -567l342 567 q12 20 37 21h231z" glyph-name="glyph503" horiz-adv-x="1439"/><glyph d="M1118 1860q41 0 25 -35l-123 -258q-10 -25 -35 -25h-184q-41 0 -25 35l123 258q10 25 35 25h184zM598 0h-424q-31 0 -31 31v1372q0 31 31 31h219q31 0 31 -31v-467h174q248 0 384 -129t136 -340t-136 -339t-384 -128zM1368 1403q0 31 31 31h219q31 0 31 -31v-1372 q0 -31 -31 -31h-219q-31 0 -31 31v1372zM592 686h-168v-438h168q111 0 184.5 52t73.5 167q0 117 -72.5 168t-185.5 51z" glyph-name="glyph504" horiz-adv-x="1773"/><glyph d="M627 1542q-41 0 -25 35l123 258q10 25 35 25h184q41 0 25 -35l-123 -258q-10 -25 -35 -25h-184zM594 1450q307 0 522 -215t215 -524.5t-215 -523.5t-522 -214q-293 0 -500 207q-20 20 0 43l135 146q18 23 43 2q139 -123 324 -123q158 0 276.5 95t155.5 249h-463 q-31 0 -30 31v188q0 31 30 31h461q-41 150 -158.5 242t-271.5 92q-184 0 -324 -123q-25 -20 -43 2l-135 145q-20 20 0 43q207 207 500 207z" glyph-name="glyph505" horiz-adv-x="1423"/><glyph d="M963 1542q-41 0 -25 35l123 258q10 25 35 25h184q41 0 25 -35l-123 -258q-10 -25 -35 -25h-184zM1280 1450q305 0 521 -216t216 -523.5t-216 -522.5t-521 -215q-272 0 -479 177.5t-248 441.5h-129v-561q0 -31 -31 -31h-219q-31 0 -31 31v1372q0 31 31 31h219q31 0 31 -31 v-561h131q47 262 252 435t473 173zM1280 248q193 0 323 133t130 330q0 199 -130 332t-323 133t-323 -133.5t-130 -331.5q0 -197 130 -330t323 -133z" glyph-name="glyph506" horiz-adv-x="2099"/><glyph d="M575 1542q-41 0 -24 35l123 258q10 25 35 25h184q41 0 25 -35l-123 -258q-10 -25 -35 -25h-185zM1077 1434q31 0 31 -31v-1372q0 -31 -31 -31h-219q-31 0 -31 31v467h-118l-310 -478q-12 -20 -37 -20h-233q-43 0 -20 37l325 493q-145 49 -223 164t-78 273 q0 211 136.5 339t383.5 128h424zM827 748v438h-168q-111 0 -184.5 -52.5t-73.5 -166.5q0 -117 73 -168t185 -51h168z" glyph-name="glyph507" horiz-adv-x="1251"/><glyph d="M526 1112q-41 0 -24 35l123 258q10 25 34 25h185q41 0 24 -35l-123 -258q-10 -25 -34 -25h-185zM1104 1004q31 0 31 -31v-942q0 -31 -31 -31h-178q-27 0 -31 31l-12 98q-113 -143 -303 -143q-211 0 -349.5 148.5t-138.5 365.5q0 221 138.5 372.5t349.5 151.5 q188 0 305 -154l10 103q4 31 31 31h178zM610.5 231q112.5 0 184 77t71.5 193.5t-71.5 196.5t-184 80t-185.5 -77.5t-73 -198.5q0 -117 73 -194t185.5 -77z" glyph-name="glyph508"/><glyph d="M524 1174q-41 0 -24 34l123 258q10 25 34 25h185q41 0 24 -35l-123 -258q-10 -25 -34 -24h-185zM1075 528q0 -66 -14 -93t-57 -27h-644q23 -96 96.5 -149.5t190.5 -53.5q115 0 213 69q27 16 45 -2l90 -88q20 -20 -2 -45q-154 -154 -372 -153q-231 0 -380 150.5 t-149 369.5t144.5 368.5t361.5 149.5q213 0 345 -144.5t132 -351.5zM600 793q-94 0 -159.5 -54.5t-84.5 -154.5h480q-14 98 -79 153.5t-157 55.5z" glyph-name="glyph509" horiz-adv-x="1167"/><glyph d="M547 1112q-41 0 -25 35l123 258q10 25 35 25h184q41 0 25 -35l-123 -258q-10 -25 -35 -25h-184zM1073 1004q29 0 29 -31v-942q0 -31 -31 -31h-209q-31 0 -31 31v616l-423 -627q-14 -20 -39 -20h-226q-31 0 -30 31v942q0 31 30 31h209q31 0 31 -31v-621l426 631 q14 20 39 21h225z" glyph-name="glyph510" horiz-adv-x="1216"/><glyph d="M844 1430q41 0 24 -35l-123 -258q-10 -25 -34 -25h-185q-41 0 -24 35l123 258q10 25 34 25h185zM612 -20q-217 0 -368.5 152.5t-151.5 369.5q0 219 151.5 371.5t368.5 152.5t369 -152.5t152 -371.5q0 -217 -152 -369.5t-369 -152.5zM612 229q109 0 184.5 78t75.5 195 q0 119 -75.5 196.5t-184.5 77.5q-111 0 -185.5 -77.5t-74.5 -196.5q0 -117 74.5 -195t185.5 -78z" glyph-name="glyph511" horiz-adv-x="1224"/><glyph d="M825 1430q41 0 25 -35l-123 -258q-10 -25 -35 -25h-184q-41 0 -25 35l123 258q10 25 35 25h184zM1090 1004q37 0 24 -35l-530 -1334q-10 -25 -37 -24h-205q-41 0 -25 35l146 352l-387 971q-12 35 24 35h211q29 0 37 -25l246 -664l244 664q10 25 36 25h216z" glyph-name="glyph512" horiz-adv-x="1171"/><glyph d="M727 1112q-41 0 -25 35l123 258q10 25 35 25h184q41 0 25 -35l-123 -258q-10 -25 -35 -25h-184zM635 668q438 0 438 -334t-438 -334h-492q-31 0 -30 31v942q0 31 30 31h209q31 0 31 -31v-305h252zM1481 1004q31 0 30 -31v-942q0 -31 -30 -31h-209q-31 0 -31 31v942 q0 31 31 31h209zM639 201q90 0 132 30.5t42 102.5t-42 102.5t-132 30.5h-256v-266h256z" glyph-name="glyph513" horiz-adv-x="1624"/><glyph d="M449 1112q-41 0 -25 35l123 258q10 25 35 25h184q41 0 25 -35l-123 -258q-10 -25 -35 -25h-184zM473 1024q215 0 363.5 -150.5t148.5 -367.5t-148.5 -368.5t-363.5 -151.5q-238 0 -393 178q-18 23 2 43l125 119q20 20 45 0q100 -90 215 -90q84 0 147.5 45t92.5 120h-285 q-31 0 -31 31v135q0 31 31 31h289q-25 80 -90.5 128t-153.5 48q-109 0 -209 -90q-25 -23 -45 -2l-125 121q-20 20 -2 43q156 178 387 178z" glyph-name="glyph514" horiz-adv-x="1067"/><glyph d="M737 1112q-41 0 -24 35l123 258q10 25 34 25h185q41 0 24 -35l-123 -258q-10 -25 -34 -25h-185zM1051 1026q217 0 368.5 -152.5t151.5 -371.5q0 -217 -151.5 -369.5t-368.5 -152.5q-186 0 -327.5 115.5t-180.5 293.5h-160v-360q0 -31 -31 -31h-209q-31 0 -30 31v942 q0 31 30 30h209q31 0 31 -30v-361h158q37 180 179.5 298t330.5 118zM1051 229q109 0 184.5 78t75.5 195q0 119 -76 196.5t-184 77.5q-111 0 -185.5 -77.5t-74.5 -196.5q0 -117 74.5 -195t185.5 -78z" glyph-name="glyph515" horiz-adv-x="1642"/><glyph d="M506 1112q-41 0 -25 35l123 258q10 25 35 25h184q41 0 25 -35l-123 -258q-10 -25 -35 -25h-184zM1038 1004q31 0 31 -31v-942q0 -31 -31 -31h-209q-31 0 -30 31v305h-142l-288 -320q-14 -16 -37 -16h-217q-20 0 -25.5 11.5t8.5 25.5l285 309q-301 49 -301 324 q0 334 438 334h518zM342 670q0 -133 174 -133h283v266h-283q-174 0 -174 -133z" glyph-name="glyph516" horiz-adv-x="1183"/></font>
</defs>
</svg>
